<?xml version="1.0" encoding="utf-8"?>
<!-- Generator: Adobe Illustrator 27.7.0, SVG Export Plug-In . SVG Version: 6.00 Build 0)  -->
<svg version="1.1" id="레이어_1" xmlns="http://www.w3.org/2000/svg" xmlns:xlink="http://www.w3.org/1999/xlink" x="0px"
	 y="0px" width="1035px" height="540px" viewBox="0 0 1035 540" enable-background="new 0 0 1035 540" xml:space="preserve">
<rect fill="#FFFFFF" width="1035" height="540"/>
<g>
	<path fill="#FFFFFF" d="M240.1,134.1c-0.3,0.3-0.8,0.2-0.9-0.1c-1.6-4.5-18-24.1-23.8-24.4c-6.5-0.3-13.2,35.6-13.2,35.6
		s-39.3,19.3-42.3,60.1s-15.1,53-10.4,75.3s20.1,30.2,20.1,30.2s-19.9,24.3-17.2,52.7c2.7,28.4,21.6,23.1,21.6,23.1
		s0,32.9,14.2,39.4c14.2,6.5,30.8,4.7,36.7,2.7c5.9-2.1,3-8.9,11-8.6s34.1,0,34.1,0s7.1-1.3,8.3,3.6s7.1,7.3,25.5,6.9
		c18.4-0.4,23.7-11.4,25.8-21.5c2.1-10.1,2.1-24,2.1-24s6.8,5.6,16.6-0.9s8.6-30.2,3-44.7c-4.4-11.4-13.3-29.6-13.3-29.6
		s30-14.5,17.5-58.1s-3.9-55.7-19-77.6c-15.1-21.9-30.5-28.4-30.5-28.4s-6-35.9-13.7-36.1c0,0-9.2,2.7-24.4,25.3
		c-0.2,0.4-0.7,0.5-1,0.1c-1.6-2.7-6.5-9.3-9.7,0c-0.1,0.2-0.3,0.4-0.5,0.4H251c-0.2,0-0.4-0.2-0.5-0.4
		C249.9,133.1,246.7,125.7,240.1,134.1z"/>
	<path fill="#FFFFFF" d="M598.2,386.2c0,8.8,0.6,15.5-0.9,22.7c-2.1,10.1-6,21.6-24.4,21.6c-14.4,0-16.1-1.9-17.3-6.9
		c-1.2-5-8.3-3.6-8.3-3.6s-21,0.3-29,0c-8-0.3-5,6.5-11,8.6c-5.9,2.1-38.8,3.9-53.1-2.7s-14.2-39.4-14.2-39.4s-19,5.3-21.6-23.1
		c-2.7-28.4,17.2-52.7,17.2-52.7s-15.4-8-20.1-30.2c-4.7-22.2,7.4-34.4,10.4-75.3c3-40.9,43.3-59,43.3-59s6-34.7,12.2-36.7
		c4.9-1.6,25.8,19.6,27.3,24.2c0.1,0.4,0.7,0.5,0.9,0.1c6.6-8.4,9.3-0.8,9.8,1.1c0.1,0.2,0.3,0.4,0.5,0.4h5.7c0.2,0,0.4-0.2,0.5-0.4
		c3.2-9.3,8-2.7,9.7,0c0.2,0.4,0.7,0.3,1-0.1c16.7-27.1,22.3-25.4,22.3-25.4c6.1,1,9.6,33.8,9.6,33.8s18.7,9,33.8,30.9
		c15.1,21.9,3.5,34.1,16,77.6c12.5,43.6-20.3,63-20.3,63s7.8,15.2,10.1,26.5c5.1,24.9,2.1,35-7.1,43.3L598.2,386.2z"/>
	<path fill="#FFFFFF" d="M794.9,134.1c0.3,0.3,0.8,0.2,0.9-0.1c1.6-4.5,18-24.1,23.8-24.4c6.5-0.3,13.2,35.6,13.2,35.6
		s39.3,19.3,42.3,60.1s15.1,53,10.4,75.3s-20.1,30.2-20.1,30.2s19.9,24.3,17.2,52.7c-2.7,28.4-21.6,23.1-21.6,23.1s0,32.9-14.2,39.4
		s-30.8,4.7-36.7,2.7c-5.9-2.1-3-8.9-11-8.6s-34.1,0-34.1,0s-7.1-1.3-8.3,3.6s-7.1,7.3-25.5,6.9c-18.4-0.4-23.7-11.4-25.8-21.5
		c-2.1-10.1-2.1-24-2.1-24s-6.8,5.6-16.6-0.9s-8.6-25.6-3-44.7c4.5-15.1,13.3-29.6,13.3-29.6s-30-14.5-17.5-58.1
		c12.5-43.6,3.9-55.7,19-77.6c15.1-21.9,30.5-28.4,30.5-28.4s6-35.9,13.7-36.1c0,0,9.2,2.7,24.4,25.3c0.2,0.4,0.7,0.5,1,0.1
		c1.6-2.7,6.5-9.3,9.7,0c0.1,0.2,0.3,0.4,0.5,0.4h5.7c0.2,0,0.4-0.2,0.5-0.4C785.1,133.1,788.3,125.7,794.9,134.1z"/>
	<path fill="#231815" d="M703.2,386.7c-1.4,0-2.5-1.1-2.5-2.4c0-1.1-0.7-28,2.3-43.8c0.3-1.4,1.6-2.2,2.9-2c1.4,0.3,2.2,1.6,2,2.9
		c-2.9,15.3-2.2,42.5-2.2,42.7C705.8,385.5,704.7,386.6,703.2,386.7C703.3,386.7,703.3,386.7,703.2,386.7z"/>
	<path fill="#231815" d="M860.8,389C860.8,389,860.8,389,860.8,389c-1.4,0-2.5-1.2-2.5-2.6c0-0.3,0.7-29-2.2-45.1
		c-0.2-1.4,0.7-2.7,2-2.9c1.3-0.2,2.7,0.7,2.9,2c3,16.6,2.3,44.9,2.3,46.1C863.3,387.9,862.2,389,860.8,389z"/>
	<path fill="#FFCCCD" d="M253.5,136.1c0,0-4.1,25.6-35.2,42.2s-54.6,9.1-54.6,9.1s8.7-27.4,36.6-41.1c0,0,8.3-36.9,15.2-36.7
		c6.9,0.1,24.7,25.1,24.7,25.1s4.1-7.3,8.3-3.7c0,0,1.8,1.9,2.2,4.3h2.9V136.1z"/>
	<path fill="#FFCCCD" d="M522.5,136.1c0,0-4.1,25.6-35.2,42.2s-57.3,8.6-57.3,8.6s11.4-27,39.2-40.7c0,0,8.3-36.9,15.2-36.7
		c6.9,0.1,24.7,25.1,24.7,25.1s4.1-7.3,8.3-3.7c0,0,1.8,1.9,2.2,4.3h2.9V136.1z"/>
	<path fill="#FF9AA0" d="M281.5,135.2c-0.8-0.5-1-1.6-0.6-2.4c1.5-2.6,4.9-8,7.7-7.6c2.7,0.5,2.7,7.5,2.6,10.8c0,1-0.9,1.7-1.9,1.6
		C287.2,137.4,283.8,136.7,281.5,135.2z"/>
	<path fill="#FF9AA0" d="M224.6,135.8c0.9-0.4,1.2-1.4,0.8-2.3c-1.2-2.8-4-8.5-6.8-8.4c-2.8,0.2-3.6,7.1-3.8,10.4
		c-0.1,1,0.7,1.8,1.7,1.8C218.7,137.2,222.1,137,224.6,135.8z"/>
	<path fill="#FF9AA0" d="M323.7,258.2c4.9-4.7,3.4-12.6-2.6-15.6c-2.6-1.3-6.1-2-10.8-1.2c-13.8,2.2-12.6,10.5-12.4,13.9
		c0.2,4.3,5.3,9.2,17.8,6.7C319.4,261.4,322,259.9,323.7,258.2z"/>
	<path fill="#FF9AA0" d="M183.9,258.2c-4.9-4.7-3.4-12.6,2.6-15.6c2.6-1.3,6.1-2,10.8-1.2c13.8,2.2,12.6,10.5,12.4,13.9
		c-0.2,4.3-5.3,9.2-17.8,6.7C188.2,261.4,185.6,259.9,183.9,258.2z"/>
	<path fill="#FF9AA0" d="M244.2,340.3c-11,0-20.7,7.5-23.3,18.3c-0.6,2.6-1,5.6-1.2,9c-0.9,25.8,20.4,26.1,37,26.1s31.9-6.2,31-26.7
		c-0.8-20.4-15.5-26.7-23.6-26.7C261,340.3,251.5,340.3,244.2,340.3z"/>
	<path fill="#231815" d="M174.1,389.1c-1.4,0-2.5-1.1-2.5-2.5c0-1.3,1-2.4,2.3-2.5c1.3-0.3,5.1-4.1,7.2-17.5
		c3.2-20.2,11.2-27.8,11.6-28.1c1-0.9,2.6-0.9,3.5,0.1c0.9,1,0.9,2.6-0.1,3.5c-0.1,0.1-7.1,7-10,25.2
		C182.8,388,175.5,389.1,174.1,389.1z M174.1,384.1C174.1,384.1,174.1,384.1,174.1,384.1C174.1,384.1,174.1,384.1,174.1,384.1z
		 M174.1,384.1C174.1,384.1,174.1,384.1,174.1,384.1C174.1,384.1,174.1,384.1,174.1,384.1z"/>
	<path fill="#231815" d="M331.8,387.6c-0.3,0-0.6,0-0.8-0.1c-0.8-0.3-7.5-3-8.9-17.5c-1.3-12.6-10.9-28.1-11-28.3
		c-0.7-1.2-0.4-2.7,0.8-3.4c1.2-0.7,2.7-0.4,3.4,0.8c0.4,0.7,10.3,16.7,11.7,30.4c1.1,11.2,5.6,13.3,5.7,13.3c1.3,0.5,2,1.9,1.5,3.2
		C333.8,387,332.8,387.6,331.8,387.6z"/>
	<path fill="#231815" d="M299.6,433.1c-13.4,0-22-1.8-23.7-8.8c-0.6-2.5-5.4-1.8-5.4-1.8l-0.4,0c-1.1,0-26.2,0.3-34.2,0
		c-2.9-0.1-3.3,0.7-4.3,2.8c-0.9,1.9-2.2,4.5-5.7,5.7c-6,2.1-23.4,4.2-38.6-2.8c-13-6-15.2-30.4-15.6-38.8c-2.8,0.2-7.1-0.2-11.2-3
		c-5.9-4.1-9.4-11.7-10.5-22.7c-2.3-24.4,11.1-45.5,16-52.3c-4.8-3.4-15.1-12.5-19-30.4c-2.7-12.6-0.2-22.2,3-34.4
		c2.7-10.2,6-22.9,7.3-41.6c2.8-38.4,35.8-58,42.5-61.6c0.5-2.8,2-9.9,4-16.9c4.8-17.4,8.4-19.6,11.6-19.5
		c6.5,0.3,20,16.1,24.6,23.3c2.3-2.2,4.6-3.1,6.8-2.6c3,0.6,4.7,3.3,5.4,5h3c1.3-3.2,3.2-4.9,5.4-5.2c2.6-0.3,4.8,1.4,6.5,3.5
		c14.3-20.7,23.3-23.8,24.3-24l0.4-0.1l0.4,0c3.1,0.1,7.3,2.5,12.1,20c1.9,7.1,3.3,14.1,3.8,16.9c4.1,2.1,17.3,9.8,30.3,28.7
		c8.8,12.8,9.9,22.6,11.4,36.1c1.1,10.4,2.5,23.3,8,42.2c10.9,38-9.8,55.2-16.7,59.7c2.5,5.1,8.9,18.7,12.4,27.8
		c5.7,14.6,7.6,40.1-3.9,47.7c-6.6,4.4-12.1,4-15.6,2.8c-0.2,4.9-0.6,13.5-2.1,20.5c-3.2,15.4-12.4,23.1-28.2,23.4
		C302.5,433.1,301,433.1,299.6,433.1z M272.1,417.4c3.4,0,7.7,1.2,8.7,5.7c0.6,2.7,3.9,5.4,23,4.9c17.3-0.4,21.6-10.6,23.4-19.5
		c2-9.7,2-23.4,2-23.5l0-5.3l4.1,3.4c0.2,0.2,5.6,4.3,13.6-1c8-5.4,7.7-27.2,2-41.8c-4.3-11.1-13.2-29.3-13.3-29.4l-1.1-2.3l2.3-1.1
		c1.1-0.6,27.9-14.2,16.2-55.1c-5.5-19.3-7-32.5-8.1-43.1c-1.5-13.3-2.4-22.1-10.5-33.8C320,154.6,305.1,148,305,148l-1.3-0.5
		l-0.2-1.3c0-0.1-1.5-9-3.9-17.7c-3.6-13-6.3-15.7-7.1-16.2c-2.1,1-10.3,5.8-22.5,24.1c-0.6,0.9-1.7,1.5-2.7,1.4
		c-1,0-1.9-0.6-2.5-1.4c-1.7-2.8-3.1-3.6-3.4-3.6c0,0-0.8,0.4-1.8,3.1c-0.4,1.2-1.6,2.1-2.9,2.1H251c-1.3,0-2.5-0.9-2.9-2.2
		c-0.3-1.1-1.3-2.8-2.1-2.9c-0.6-0.1-2,0.6-3.9,2.9l0,0c-0.7,0.9-1.8,1.3-2.9,1.1c-1.1-0.2-2-0.9-2.4-2c-1.5-4.3-17-22.1-21.4-22.7
		c-2.7,1.4-7.6,16.7-10.8,33.5l-0.2,1.2l-1.1,0.6c-0.4,0.2-38.1,19.2-40.9,58.1c-1.4,19.1-4.8,32-7.5,42.5c-3.1,12-5.4,20.7-3,32.1
		c4.4,20.7,18.7,28.5,18.9,28.5l2.7,1.4l-1.9,2.4c-0.2,0.2-19.2,23.9-16.6,50.9c0.9,9.4,3.7,15.8,8.2,19c4.8,3.3,10,2,10.2,1.9
		l3.1-0.8l0,3.3c0,8.7,2.3,32.3,12.8,37.1c13.7,6.3,29.7,4.4,34.9,2.6c1.6-0.5,2.1-1.5,2.9-3.2c1.1-2.3,2.8-5.8,9-5.5
		c7.5,0.3,31.3,0,33.8,0C270.5,417.4,271.3,417.4,272.1,417.4z"/>
	<path fill="#FF9AA0" d="M487.2,137.9c-1,0.1-1.8-0.7-1.9-1.6c-0.3-3-0.7-9.4,1.8-10.6c2.5-1.2,6.6,4.5,8.4,7.3
		c0.5,0.8,0.2,1.9-0.7,2.4C493,136.3,489.9,137.7,487.2,137.9z"/>
	<path fill="#FF9AA0" d="M555.4,136.2c0.8,0.1,1.5-0.5,1.5-1.3c0.3-2.4,0.7-7.6-1.4-8.7c-2-1-5.4,3.6-6.9,5.8
		c-0.5,0.7-0.2,1.6,0.5,2C550.7,134.9,553.2,136.1,555.4,136.2z"/>
	<path fill="#FF9AA0" d="M616.1,258.2c4-4.7,2.8-12.6-2.2-15.6c-2.1-1.3-4.9-2-8.8-1.2c-11.2,2.2-10.3,10.5-10.1,13.9
		c0.2,4.3,4.3,9.2,14.5,6.7C612.6,261.4,614.7,259.9,616.1,258.2z"/>
	<path fill="#FF9AA0" d="M488.6,258.2c-4.9-4.7-3.4-12.6,2.6-15.6c2.6-1.3,6.1-2,10.8-1.2c13.8,2.2,12.6,10.5,12.4,13.9
		c-0.2,4.3-5.3,9.2-17.8,6.7C493,261.4,490.4,259.9,488.6,258.2z"/>
	<path fill="#FF9AA0" d="M529.5,340.3c-11,0-20.7,7.5-23.3,18.3c-0.6,2.6-1,5.6-1.2,9c-0.9,25.8,20.4,26.1,37,26.1s31.9-6.2,31-26.7
		c-0.8-20.4-15.5-26.7-23.6-26.7C546.3,340.3,536.8,340.3,529.5,340.3z"/>
	<path fill="#231815" d="M440.1,389.1c-1.4,0-2.5-1.1-2.5-2.5c0-1.4,1.1-2.5,2.5-2.5c0.4,0,8.4-0.6,11.1-17.4
		c3.2-20.2,11.2-27.8,11.6-28.1c1-0.9,2.6-0.9,3.5,0.1c0.9,1,0.9,2.6-0.1,3.5c-0.1,0.1-7.1,7-10,25.2
		C452.7,388.8,440.6,389.1,440.1,389.1z"/>
	<path fill="#231815" d="M572.9,433c-14.1,0-18-1.7-19.7-8.8c-0.6-2.5-5.4-1.8-5.4-1.8l-0.4,0c-0.9,0-21.1,0.3-29.1,0
		c-2.9-0.1-3.3,0.7-4.3,2.8c-0.9,1.9-2.2,4.5-5.7,5.7c-6.6,2.3-40.3,4-54.9-2.8c-13-6-15.2-30.4-15.6-38.8c-2.8,0.2-7.1-0.2-11.2-3
		c-5.9-4.1-9.4-11.7-10.5-22.7c-2.3-24.4,11.1-45.5,16-52.3c-4.8-3.4-15.1-12.5-19-30.4c-2.7-12.6-0.2-22.2,3-34.4
		c2.7-10.2,6-22.9,7.3-41.6c2.8-38.4,36.6-57,43.6-60.5c0.5-2.8,1.8-9.6,3.6-16.5c4.3-16.9,7.5-20,10-20.9
		c1.3-0.4,4.8-1.6,17.4,10.3c3.6,3.4,8.9,8.9,11.6,12.7c2.2-2.2,4.4-3,6.6-2.6c2.9,0.6,4.4,3.2,5.2,5.2h3c1.3-3.2,3.2-4.9,5.4-5.2
		c2.5-0.3,4.7,1.4,6.4,3.4c14-22.2,20.6-24.7,23.4-24.1c2.7,0.5,5.9,3.3,9,19.2c1.3,6.4,2.1,12.7,2.4,15.4
		c4.5,2.4,20.3,11.9,33.5,31.1c8.5,12.4,9,21.7,9.5,34.5c0.5,10.7,1.1,23.9,6.8,43.8c11.1,38.6-12.4,59.3-19.5,64.5
		c2.2,4.5,7.5,16,9.4,25.2c4.9,24,2.9,35.9-7.9,45.6l-0.2,0.2l-2,1.1c0,1.4,0,2.8,0.1,4.2c0.1,6.3,0.2,11.7-1,17.5
		C597.3,421.1,592.3,433,572.9,433z M442.6,383.3l0,3.3c0,8.7,2.3,32.3,12.8,37.1c14,6.4,46.1,4.4,51.2,2.6c1.6-0.5,2.1-1.5,2.9-3.2
		c1.1-2.3,2.9-5.8,9-5.5c7.4,0.3,26.5,0,28.6,0c3.3-0.6,9.6-0.1,11,5.5c0.8,3.3,1.2,4.9,14.8,4.9c16.5,0,19.9-9.7,22-19.6
		c1.1-5.3,1-10.5,0.9-16.5c0-1.8-0.1-3.7-0.1-5.7v-1.4l4-2.3c7.9-7.2,11.2-16,6.1-40.7c-2.2-10.9-9.8-25.7-9.9-25.9l-1.1-2.1l2-1.2
		c1.3-0.8,30.9-19,19.2-60.1c-5.9-20.4-6.5-34-7-45c-0.6-12.5-1-20.8-8.7-31.9c-14.6-21.1-32.6-30-32.8-30.1l-1.3-0.6l-0.1-1.4
		c-1.6-15.2-5-29.6-7.5-31.5c-1.2,0.4-6.9,3.3-19.8,24.1c-0.6,0.9-1.6,1.5-2.7,1.5c0,0,0,0,0,0c-1,0-2-0.5-2.5-1.4
		c-1.7-2.8-3.1-3.6-3.4-3.6c0,0-0.8,0.4-1.8,3.1c-0.4,1.2-1.6,2.1-2.9,2.1H520c-1.3,0-2.5-0.9-2.9-2.2c-0.5-1.8-1.4-3-1.9-3.1
		c-0.4-0.1-1.6,0.4-3.6,2.9c-0.7,0.9-1.8,1.3-2.9,1.1c-1.1-0.2-2-0.9-2.4-2c-1.5-4.2-20.1-22.3-24.3-22.6
		c-2.7,1.6-7.4,17.4-10.4,34.8l-0.2,1.3l-1.2,0.5c-0.4,0.2-39,18-41.8,56.9c-1.4,19.1-4.8,32-7.5,42.5c-3.1,12-5.4,20.7-3,32.1
		c4.4,20.7,18.7,28.5,18.9,28.5l2.7,1.4l-1.9,2.4c-0.2,0.2-19.2,23.9-16.6,50.9c0.9,9.4,3.7,15.8,8.2,19c4.8,3.3,10,2,10.2,1.9
		L442.6,383.3z M558.6,111.9L558.6,111.9L558.6,111.9z"/>
	<path fill="#231815" d="M598.2,388.7c-1.3,0-2.4-1-2.5-2.4c0-0.3-2-34.1-6.2-46.4c-0.4-1.3,0.3-2.7,1.6-3.2
		c1.3-0.4,2.7,0.3,3.2,1.6c4.4,13,6.4,46.3,6.5,47.7c0.1,1.4-1,2.6-2.4,2.6C598.3,388.7,598.3,388.7,598.2,388.7z"/>
	<g>
		<g>
			<path fill="#FF9AA0" d="M250.1,236.5l-1.6,1.6c-1,1.1-1,2.8,0,3.8l3.2,3.2c1.1,1.1,2.8,1.1,3.9,0l3.1-3.2c1.1-1.1,1.1-2.8,0-3.9
				l-1.7-1.7c-0.5-0.5-1.2-0.8-2-0.8h-3.1C251.4,235.7,250.6,236,250.1,236.5z"/>
			<path fill="#231815" d="M253.7,248.6c-1.4,0-2.7-0.6-3.7-1.6l-3.2-3.2c-2-2-2-5.2-0.1-7.3l1.6-1.6c1-1,2.4-1.6,3.8-1.6h3.1
				c1.4,0,2.8,0.6,3.7,1.6l1.7,1.7c2,2,2,5.3,0,7.4l-3.1,3.2C256.5,248,255.2,248.6,253.7,248.6z M251.9,238.3l-1.6,1.6
				c-0.1,0.1-0.1,0.3,0,0.4l3.2,3.2c0.1,0.1,0.3,0.1,0.4,0l3.1-3.2c0.1-0.1,0.1-0.3,0-0.4l-1.7-1.7c0,0-0.1-0.1-0.2-0.1h-3.1
				C252,238.2,252,238.2,251.9,238.3L251.9,238.3z"/>
		</g>
		<path fill="#231815" d="M247.3,262.7c-2.1,0-4.2-0.5-6.3-1.4l-2-1c-1.2-0.6-1.8-2.1-1.1-3.3c0.6-1.2,2.1-1.8,3.3-1.1l1.9,0.9
			c4.2,1.9,7,0.5,8-0.1l0.1,0v-9.3c0-1.4,1.1-2.5,2.5-2.5s2.5,1.1,2.5,2.5v12.3l-2.4,1.3C251.9,262,249.6,262.7,247.3,262.7z"/>
		<path fill="#231815" d="M260.5,262.7c-2.3,0-4.4-0.7-6.5-2l-1-0.3c-1.3-0.4-2.1-1.7-1.8-3.1c0.4-1.3,1.7-2.1,3.1-1.8l1.8,0.5
			l0.4,0.2c2.7,1.9,5.8,1.7,9.7-0.5c1.2-0.7,2.7-0.3,3.4,0.9c0.7,1.2,0.3,2.7-0.9,3.4C265.8,261.8,263.1,262.7,260.5,262.7z"/>
		<path fill="#231815" d="M228.2,232.5h-7.5c-1.2,0-2.2-1-2.1-2.2c0.1-2.7,1.1-6.8,5.8-6.8c5.1,0,5.9,4.2,5.9,6.9
			C230.4,231.5,229.4,232.5,228.2,232.5z"/>
		<path fill="#231815" d="M287,232.5h-7.5c-1.2,0-2.2-1-2.1-2.2c0.1-2.7,1.1-6.8,5.8-6.8c5.1,0,5.9,4.2,5.9,6.9
			C289.1,231.5,288.1,232.5,287,232.5z"/>
		<g>
			<path fill="#231815" d="M194.4,257.3c-1.3,0-2.4-1-2.5-2.3c-0.1-1.4,1-2.6,2.3-2.7l23.9-1.6c1.4-0.1,2.6,1,2.7,2.3
				c0.1,1.4-1,2.6-2.3,2.7l-23.9,1.6C194.5,257.3,194.5,257.3,194.4,257.3z"/>
			<path fill="#231815" d="M218.3,245.3c-0.1,0-0.2,0-0.3,0l-23.9-2.4c-1.4-0.1-2.4-1.4-2.2-2.7c0.1-1.4,1.4-2.4,2.7-2.2l23.9,2.4
				c1.4,0.1,2.4,1.4,2.2,2.7C220.6,244.3,219.5,245.3,218.3,245.3z"/>
			<path fill="#231815" d="M313.2,257.3c-0.1,0-0.1,0-0.2,0l-23.9-1.6c-1.4-0.1-2.4-1.3-2.3-2.7c0.1-1.4,1.3-2.4,2.7-2.3l23.9,1.6
				c1.4,0.1,2.4,1.3,2.3,2.7C315.6,256.3,314.5,257.3,313.2,257.3z"/>
			<path fill="#231815" d="M289.3,245.3c-1.3,0-2.4-1-2.5-2.2c-0.1-1.4,0.9-2.6,2.2-2.7l23.9-2.4c1.4-0.1,2.6,0.9,2.7,2.2
				c0.1,1.4-0.9,2.6-2.2,2.7l-23.9,2.4C289.5,245.3,289.4,245.3,289.3,245.3z"/>
		</g>
		<path fill="#231815" d="M289.5,214.7c-1.2,0-2.2-0.8-2.4-2c-0.1-0.4-0.8-2.5-3.8-2.5s-3.8,2.1-3.9,2.6c-0.3,1.3-1.7,2.2-3,1.9
			c-1.3-0.3-2.2-1.6-1.9-2.9c0.5-2.3,2.9-6.5,8.7-6.5s8.3,4.3,8.7,6.5c0.3,1.4-0.6,2.7-1.9,3C289.8,214.7,289.7,214.7,289.5,214.7z"
			/>
		<g>
			<path fill="#FF9AA0" d="M244.7,260.7l8,13.8c0.5,0.7,1.6,0.7,2.1,0.1l8.3-13.5c0.3-0.3,0-0.8-0.4-0.8c-2.2,0.1-6.5,0-8.7-1.6
				c0,0-4.2,2.4-9,1.7C244.7,260.2,244.5,260.5,244.7,260.7z"/>
			<path fill="#231815" d="M253.7,277.5C253.7,277.5,253.7,277.5,253.7,277.5c-1.3,0-2.4-0.6-3.1-1.5l-0.2-0.2l-8-13.7
				c-0.6-0.9-0.6-2,0-2.9c0.6-1,1.7-1.5,2.8-1.3c3.9,0.6,7.4-1.4,7.4-1.4l1.4-0.8l1.3,1c1.1,0.8,3.8,1.2,7.1,1.1
				c1.2,0,2.3,0.6,2.8,1.7c0.5,1,0.4,2.1-0.2,3l-8.4,13.7C256,277,254.9,277.5,253.7,277.5z M248.8,262.7l5,8.6l5.4-8.8
				c-2.1-0.2-3.9-0.6-5.3-1.2C252.7,261.8,250.9,262.5,248.8,262.7z"/>
		</g>
	</g>
	<path fill="#FFCCCD" d="M781.5,136.1c0,0,4.1,25.6,35.2,42.2c31.1,16.7,54.6,9.1,54.6,9.1s-8.7-27.4-36.6-41.1
		c0,0-8.3-36.9-15.2-36.7c-6.9,0.1-24.7,25.1-24.7,25.1s-4.1-7.3-8.3-3.7c0,0-1.8,1.9-2.2,4.3h-2.9V136.1z"/>
	<path fill="#231815" d="M735.4,433.1c-1.4,0-2.8,0-4.3-0.1c-15.8-0.4-25-8-28.2-23.4c-1.4-7-1.9-15.5-2.1-20.5
		c-3.5,1.1-9,1.6-15.6-2.8c-13.6-9.1-7.3-36.3-4-47.5c3.6-12,9.7-23.4,12.3-28.1c-7.1-4.7-27.4-21.9-16.5-59.6
		c5.4-18.9,6.8-31.8,8-42.2c1.5-13.5,2.5-23.3,11.4-36.1c13-18.9,26.2-26.7,30.3-28.7c0.5-2.8,1.8-9.8,3.8-16.9
		c4.8-17.5,9-19.9,12.1-20l0.4,0l0.4,0.1c1,0.3,9.9,3.4,24.3,24c1.7-2.1,3.9-3.8,6.5-3.5c2.3,0.3,4.1,2,5.4,5.2h3
		c0.8-1.7,2.4-4.4,5.4-5c2.3-0.4,4.5,0.4,6.8,2.6c4.6-7.2,18.1-23,24.6-23.3c3.1-0.1,6.7,2.1,11.6,19.5c2,7,3.4,14.1,4,16.9
		c6.7,3.6,39.8,23.2,42.5,61.6c1.3,18.6,4.7,31.3,7.3,41.6c3.2,12.2,5.7,21.8,3,34.4c-3.8,17.9-14.2,27-19,30.4
		c4.9,6.8,18.3,27.9,16,52.3c-1,11-4.5,18.6-10.5,22.7c-4.1,2.8-8.4,3.2-11.2,3c-0.4,8.5-2.6,32.8-15.6,38.8
		c-15.2,7-32.6,4.9-38.6,2.8c-3.6-1.2-4.8-3.8-5.7-5.7c-1-2.1-1.4-2.9-4.3-2.8c-8,0.3-33.1,0-34.2,0l-0.4,0c0,0-4.8-0.8-5.4,1.8
		C757.3,431.3,748.8,433.1,735.4,433.1z M705.7,379.8l0,5.3c0,0.1,0,13.8,2,23.5c1.8,8.9,6.1,19.1,23.4,19.5
		c19.1,0.4,22.4-2.3,23-4.9c1.3-5.6,7.6-6.1,11-5.5c2.5,0,26.3,0.3,33.8,0c6.1-0.2,7.8,3.2,9,5.5c0.8,1.7,1.4,2.6,2.9,3.2
		c5.2,1.8,21.2,3.7,34.9-2.6c10.5-4.8,12.8-28.4,12.8-37.1l0-3.3l3.2,0.9c0.2,0.1,5.4,1.4,10.2-1.9c4.6-3.2,7.4-9.6,8.2-19
		c2.5-27.1-16.4-50.7-16.6-50.9l-1.9-2.4l2.7-1.4c0.1-0.1,14.4-7.8,18.9-28.5c2.4-11.4,0.2-20.1-3-32.1c-2.7-10.4-6.1-23.4-7.5-42.5
		c-2.8-38.9-40.5-57.9-40.9-58.1l-1.1-0.6l-0.2-1.2c-3.1-16.8-8-32.1-10.8-33.5c-4.4,0.6-19.9,18.4-21.4,22.7c-0.4,1-1.3,1.8-2.4,2
		c-1.1,0.2-2.2-0.2-2.9-1.1l0,0c-1.9-2.4-3.3-3.1-3.9-2.9c-0.8,0.2-1.8,1.8-2.1,2.9c-0.4,1.3-1.6,2.2-2.9,2.2h-5.7
		c-1.3,0-2.5-0.8-2.9-2.1c-0.9-2.8-1.8-3.1-1.8-3.1c0,0,0,0,0,0c-0.3,0-1.7,0.8-3.4,3.6c-0.5,0.9-1.5,1.4-2.5,1.4
		c-1.1,0-2.1-0.5-2.7-1.5c-12.2-18.2-20.4-23-22.5-24c-0.9,0.5-3.6,3.2-7.1,16.2c-2.4,8.8-3.9,17.7-3.9,17.7l-0.2,1.4L730,148
		c-0.1,0.1-15,6.6-29.4,27.6c-8.1,11.8-9.1,20.6-10.5,33.9c-1.2,10.6-2.6,23.8-8.1,43.1c-11.7,40.9,15.1,54.6,16.2,55.1l2.5,1.2
		l-1.4,2.3c-0.1,0.1-8.7,14.4-13.1,29c-6.3,21.2-5.6,36.9,2,41.9c8.1,5.4,13.6,1.1,13.6,1L705.7,379.8z"/>
	<g>
		<g>
			<path fill="#FF9AA0" d="M556.4,235.6l-1.6,1.6c-1,1.1-1,2.8,0,3.8l3.2,3.2c1.1,1.1,2.8,1.1,3.9,0l3.1-3.2c1.1-1.1,1.1-2.8,0-3.9
				l-1.7-1.7c-0.5-0.5-1.2-0.8-2-0.8h-3.1C557.6,234.7,556.9,235,556.4,235.6z"/>
			<path fill="#231815" d="M560,247.6c-1.4,0-2.7-0.6-3.7-1.6l-3.2-3.2c-2-2-2-5.2-0.1-7.3l1.6-1.6c1-1,2.4-1.6,3.8-1.6h3.1
				c1.4,0,2.8,0.6,3.7,1.6l1.7,1.7c2,2,2,5.3,0,7.4l-3.1,3.2C562.7,247,561.4,247.6,560,247.6z M558.2,237.3l-1.6,1.6
				c-0.1,0.1-0.1,0.3,0,0.4l3.2,3.2c0.1,0.1,0.3,0.1,0.4,0l3.1-3.2c0.1-0.1,0.1-0.3,0-0.4l-1.7-1.7c0,0-0.1-0.1-0.2-0.1h-3.1
				C558.3,237.2,558.2,237.2,558.2,237.3L558.2,237.3z"/>
		</g>
		<path fill="#231815" d="M553.6,261.7c-2.1,0-4.2-0.5-6.3-1.4l-2-1c-1.2-0.6-1.8-2.1-1.1-3.3c0.6-1.2,2.1-1.8,3.3-1.1l1.9,0.9
			c4.2,1.9,7,0.5,8-0.1l0.1,0v-9.3c0-1.4,1.1-2.5,2.5-2.5s2.5,1.1,2.5,2.5v12.3l-2.4,1.3C558.1,261.1,555.9,261.7,553.6,261.7z"/>
		<path fill="#231815" d="M566.5,261.7c-2,0-4-0.6-6.1-1.9l-1-0.3c-1.3-0.4-2.1-1.7-1.8-3.1c0.4-1.3,1.7-2.1,3.1-1.8l1.8,0.5
			l0.3,0.2c2.7,1.8,4.6,1.8,7.6,0.1c1.2-0.7,2.7-0.3,3.4,0.9c0.7,1.2,0.3,2.7-0.9,3.4C570.6,261,568.5,261.7,566.5,261.7z"/>
		<path fill="#231815" d="M532.4,231.5h-7.5c-1.2,0-2.2-1-2.1-2.2c0.1-2.7,1.1-6.8,5.8-6.8c5.1,0,5.9,4.2,5.9,6.9
			C534.5,230.5,533.6,231.5,532.4,231.5z"/>
		<path fill="#231815" d="M583.3,231.5h-7.5c-1.2,0-2.2-1-2.1-2.2c0.1-2.7,1.1-6.8,5.8-6.8c5.1,0,5.9,4.2,5.9,6.9
			C585.4,230.5,584.4,231.5,583.3,231.5z"/>
		<g>
			<path fill="#231815" d="M498.7,256.3c-1.3,0-2.4-1-2.5-2.3c-0.1-1.4,1-2.6,2.3-2.7l23.9-1.6c1.4-0.1,2.6,1,2.7,2.3
				s-1,2.6-2.3,2.7l-23.9,1.6C498.8,256.3,498.7,256.3,498.7,256.3z"/>
			<path fill="#231815" d="M522.5,244.3c-0.1,0-0.2,0-0.3,0l-23.9-2.4c-1.4-0.1-2.4-1.4-2.2-2.7s1.4-2.4,2.7-2.2l23.9,2.4
				c1.4,0.1,2.4,1.4,2.2,2.7C524.9,243.4,523.8,244.3,522.5,244.3z"/>
			<path fill="#231815" d="M607,256.3c-0.1,0-0.1,0-0.2,0l-21.5-1.6c-1.4-0.1-2.4-1.3-2.3-2.7c0.1-1.4,1.3-2.4,2.7-2.3l21.5,1.6
				c1.4,0.1,2.4,1.3,2.3,2.7C609.4,255.3,608.3,256.3,607,256.3z"/>
			<path fill="#231815" d="M585.6,244.3c-1.3,0-2.3-0.9-2.5-2.2c-0.2-1.4,0.8-2.6,2.2-2.8l21.5-2.4c1.4-0.2,2.6,0.8,2.8,2.2
				c0.2,1.4-0.8,2.6-2.2,2.8l-21.5,2.4C585.7,244.3,585.7,244.3,585.6,244.3z"/>
		</g>
		<path fill="#231815" d="M585.8,213.7c-1.2,0-2.2-0.8-2.4-2c-0.1-0.4-0.8-2.5-3.8-2.5c-3.1,0-3.8,2.1-3.9,2.6
			c-0.3,1.3-1.7,2.2-3,1.9c-1.3-0.3-2.2-1.6-1.9-2.9c0.5-2.3,2.9-6.5,8.7-6.5c5.8,0,8.3,4.3,8.7,6.5c0.3,1.4-0.6,2.7-1.9,3
			C586.1,213.7,586,213.7,585.8,213.7z"/>
		<g>
			<path fill="#FF9AA0" d="M550.9,259.7l8,13.8c0.5,0.7,1.6,0.7,2.1,0.1l8.3-13.5c0.3-0.3,0-0.8-0.4-0.8c-2.2,0.1-6.5,0-8.7-1.6
				c0,0-4.2,2.4-9,1.7C551,259.2,550.8,259.5,550.9,259.7z"/>
			<path fill="#231815" d="M560,276.5C560,276.5,559.9,276.5,560,276.5c-1.3,0-2.4-0.6-3.1-1.5l-0.2-0.2l-8-13.7
				c-0.6-0.9-0.6-2,0-2.9c0.6-1,1.7-1.5,2.8-1.3c3.9,0.6,7.4-1.4,7.4-1.4l1.4-0.8l1.3,0.9c1.1,0.8,3.8,1.2,7.1,1.1
				c1.2,0,2.3,0.6,2.8,1.7c0.5,1,0.4,2.1-0.2,3l-8.4,13.7C562.2,276,561.2,276.5,560,276.5z M555,261.7l5,8.6l5.4-8.8
				c-2.1-0.2-3.9-0.6-5.3-1.2C559,260.9,557.2,261.5,555,261.7z M569,261.7C569,261.7,569,261.7,569,261.7
				C569,261.7,569,261.7,569,261.7z"/>
		</g>
	</g>
	<path fill="#231815" d="M567.6,145.5c-14.6-7-29.8-8.1-31.5-8.1l0-1.3l-0.4-3.7c1.3-0.2,17.7,0.7,34.2,8.5L567.6,145.5z"/>
</g>
</svg>
