<?xml version="1.0" encoding="utf-8"?>
<!-- Generator: Adobe Illustrator 27.7.0, SVG Export Plug-In . SVG Version: 6.00 Build 0)  -->
<svg version="1.1" id="레이어_1" xmlns="http://www.w3.org/2000/svg" xmlns:xlink="http://www.w3.org/1999/xlink" x="0px"
	 y="0px" width="1920px" height="1080px" viewBox="0 0 1920 1080" style="enable-background:new 0 0 1920 1080;"
	 xml:space="preserve">
<style type="text/css">
	.st0{fill:#F5F6FB;}
</style>
<g>
	<path class="st0" d="M1952.7,222.3c-5.9-231.6,5.7-786.8,1.3-924.6s7.7-680.2,1-858.7c-6.4-171.6,4.4-627.1-2.8-639.9
		c-6.6-11.2-294.9-11.9-790.2-10.1c-520.9,2-898.5,13.9-952.7,5.2c-54.2-8.8-628.9-0.4-842.4,2.5c-195.2,2.7-539.7-5.8-597.7-7.4
		c-4.6,0-8.5,3.4-8.5,7.9l-0.8,38.5c0,0-11,313.9-11,400.7s6.9,347.6,11,451.7s1,700.4-11,772.8s-24,709.2-24,772.8
		c0,0,19.5,23.2,37.6,20.2c18.1-2.9,9,23.2,42.1,26.1s33-11.5,54.2,0c21.2,11.5,29.9,9,48,23.4c18.1,14.4,36.1,23.2,36.1,23.2
		c39.1,14.4,61.1,17.8,72.1,23.2c4.6,2.2,4.9,4,9,5.4c4.9,1.6,18.4,8.8,45.2,17.8c26.3,9,0,8.8,42.1,0c42.1-8.8,27.1,1.1,60.1,14.8
		c33,13.7,4.9,7.2,29.1,18.7c24,11.5,20,0.9,38.1,21.4c18.1,20.5,37.9-3.1,37.9-3.1s14.8,11.9,19.2,11.9c42.1,0.9,65.2,6.5,74.3,9.4
		c9,2.9,26.3,2.5,26.3,2.5l28.9,8.3c0,0,9.9,17.1,18.9,15.1c9-2,35.6,0.9,43.7,2.7c8,1.8,11.5-3.6,17.6-3.8c31-2.2,44.5,2.9,54-0.9
		c5.3-2.2,11.7,3.8,17.4,1.3c8-3.4,3.1,4.5,8,1.6c4.9-2.9,18.6,2.7,27.6-0.2c9-2.9-6.7,7.6,11.3,0.7c18.1-6.7,13.5-8.1,22.8-3.1
		c7.2,3.8,8.5,4.5,15.6,1.6c7.1-2.9,13.5-2.5,19.4-5.4c5.9-2.9,14.6-4,38.6-2.2c24,2,12-2.7,32-2.7s8-2,30.1,0c22,2,36.1,2,46.2,5.8
		c10,3.8,20,5.8,20,5.8s14,2,24,3.8c10,2,36.1,2,36.1,2l22.2,2c0,0,24-5.2,34-5.2c10,0,4.1,2,26.1,3.8c22,2,26.1-4,32-2.2
		c5.9,2-5.9-9.7,20,3.8c26.1,13.5,35.6,2.2,55.7-0.9s-0.5,3.6,37.1-3.8c34.8-6.7-1.5-5.2,34.7-9.7c36.1-4.5,36.5-7.6,52.7-7.6
		c16.1,0,52.7,11.5,60.6,5.8c8-5.8-2,15.7,22.2,6.1c24-9.7,25.8,4.3,35,2.2c9.2-2,3.1,2,29.2-7.6c26.1-9.7,46.2-15.3,58.2-19.3
		c12-3.8,2-2,28.1-7.6c26.1-5.6,56.2,6.1,72.1,0.2c16.1-5.8,12-3.8,36.1-3.8c24,0,24,16.6,32,16.6c5.1,0,36.6-3.8,36.6-3.8
		s6.1,0,12,0c19.7-0.2,42.1-3.8,48.1-2c5.9,2,8,2,14,2s0,7.6,18.1-3.8c18.1-11.7,14-13.5,26.1-19.3c12-5.8,0-11.5,20-11.5
		s40.1,0,40.1,0s-14-2,10,0c24,2,38.1,21.4,50.1,2c12-19.3,14.9-16.2,38.6-32.8c16.6-11.5,13.8-16.9,34.7-14.4
		c2.8,0.2,5.6,0.2,7.9,0c6.2-0.7,12.6-0.9,18.9-0.4c3.4,0.2,9.5-0.7,19.5-4.3c28.1-9.7,10.5-14.8,30.6-14.8c20,0,7.7-4.9,27.6-0.4
		c49.4,11,30.1,7.6,50.1,7.6c20,0-10,5.8,34,0c44.2-5.8,38.8-13,60.8-20.9c22.2-7.6,22.2-11.5,34-11.5c12,0,18.1-3.8,38.1,0
		c20,3.8,10,2,20,3.8c10,2,10,2,10,2s8-5.8,32-9.7c24-3.8,37.6,7.4,43.5,3.6c5.9-3.8-16.1-3.8,5.9-3.8c22.2,0,40.1,0,40.1,0
		s3.4-6.7,4.9-7.4c1.5-0.4,15.6-2.5,25-2.5s8-0.9,16.1,0.9c8,2,4.1-2,7.1,0.9c3.1,2.9,5.9-5.8,5.9-5.8s29.1-3.4,41.6-3.8
		c12.5-0.4,11-1.3,22.2,2.5c11,3.8,8,0,11-1.3c3.1-1.3,5.9,0,5.9,0s13.1,0,23,0.9c10,0.9,14-0.9,14.9,2c1,2.9,14.6-3.8,14.6-3.8
		c12,5.8,12,5.8,12,5.8c22.2,3.8,32,0,52.1,15.3s30.1,23.2,38.1,25.2c8,2,14,3.8,22.2,2c8-2,36.1,7.6,36.1,7.6s8,17.3,22.2,7.6
		c14-9.7,30.1-23.2,38.1-27c8-3.8,8-3.8,8-3.8s4.1-17.3,20-32.8c16.1-15.3,6.6-18.7,25-38.7c0,0,10.7-5.4,11.2-6.7
		c0.5-1.3,2.5,3.4,6.6-2.5c4.1-5.8,4.9-6.7,7.1-6.7c2.1,0,2.5-0.4,5.6-0.4c3.1,0-1,5.4,5.6-0.4c6.6-5.8,3.4-3.8,9-8.3
		c5.6-4.3,4.1-6.7,8.5-7.4c4.4-0.4-3.1,3.8,4.4-0.4C1950.6,224.5,1952.7,222.3,1952.7,222.3z"/>
</g>
</svg>
