<?xml version="1.0" encoding="utf-8"?>
<!-- Generator: Adobe Illustrator 27.7.0, SVG Export Plug-In . SVG Version: 6.00 Build 0)  -->
<svg version="1.1" id="레이어_1" xmlns="http://www.w3.org/2000/svg" xmlns:xlink="http://www.w3.org/1999/xlink" x="0px"
	 y="0px" width="2220.7px" height="1514.7px" viewBox="0 0 2220.7 1514.7" style="enable-background:new 0 0 2220.7 1514.7;"
	 xml:space="preserve">
<style type="text/css">
	.st0{fill:#DDD7D7;}
	.st1{fill:#FCE9DB;}
	.st2{fill:#F7F5F5;}
	.st3{fill:#231815;}
	.st4{fill:#FC5959;}
	.st5{fill:#FFFFFF;}
</style>
<g>
	<path class="st0" d="M2050.4,1107.8c0,83.9-404.1,152-940.1,152s-940.1-68-940.1-152s588.2-152,940.1-152
		C1514.3,955.8,2050.4,1023.8,2050.4,1107.8z"/>
	<path class="st1" d="M1110.3,1351.4c557.1,0,880-87.4,880-87.4l0,0c-51.5,62.5-123,105.5-202.4,121.5c-123,24.8-339.6,54-677.6,54
		s-554.6-29.2-677.6-54c-79.4-16-150.9-59-202.4-121.5l0,0C230.3,1264,553.2,1351.4,1110.3,1351.4z M2176.5,1134.1
		c0,120-460.8,217.3-1066.2,217.3S44.2,1254.1,44.2,1134.1S505,916.8,1110.4,916.8S2176.5,1014,2176.5,1134.1z M2050.4,1107.8
		c0-83.9-536.1-152-940.1-152c-351.9,0-940.1,68-940.1,152s404.1,152,940.1,152S2050.4,1191.7,2050.4,1107.8z"/>
	<path class="st2" d="M1110.3,1259.7c-224.7,0-489.3-23.2-489.3-23.2c-17.9-30.9-28.5-86.9-30.4-185.5
		c-3.9-197.1,108.2-320.7,108.2-320.7c-11.6-34.8,0-286,23.2-413.5S718.1,83.1,853.4,75.3c81.5-4.7,154.3,102.1,182.4,155.4
		c12.8,24.3,31.6,40.1,60,45.6c13.4,2.6,28.8,1.9,45.3-5.2c21-9,32.4-17.3,43.7-40.1c26.6-53.8,100.8-160.4,182.5-155.7
		c135.3,7.7,108.2,113.9,131.4,241.4s34.8,378.7,23.2,413.5c0,0,112.1,123.7,108.2,320.7c-2,100.6-13,156.9-31.5,187.4
		C1598.5,1238.4,1335,1259.7,1110.3,1259.7z"/>
	<path class="st3" d="M2186.5,1134.1c0-81.6-170.8-133.9-314-163.5c-72.7-15-154.8-27.5-243.9-37.4c-10.7-49.6-27.2-90.7-42.2-120.9
		c-22.4-45.2-45-74.3-53.6-84.6c6.9-34.5,2.2-137.5,0.5-169.9c-4.9-93.6-14.2-184.4-24.8-242.8c-5-27.5-7.6-53.6-10.1-78.9
		c-4.6-46-8.5-85.7-25.5-116c-19.2-34.3-52.6-51.6-105-54.6c-38.9-2.2-79.2,17.6-119.6,58.9c-40.9,41.8-65.7,88.9-72.4,102.4
		c-10.1,20.4-19.7,27.1-38.7,35.3c-13,5.6-26.3,7.1-39.5,4.6c-24.2-4.7-41.1-17.6-53.1-40.4c-9.3-17.6-34.9-62.8-72.8-101.8
		c-40.2-41.3-80.3-61.2-119-59c-52.4,3-85.8,20.4-105,54.6c-17,30.3-20.9,70-25.5,116c-2.5,25.3-5.1,51.5-10.1,78.9
		c-10.6,58.4-19.9,149.2-24.8,242.8c-1.7,32.4-6.4,135.4,0.5,169.9c-8.6,10.3-31.1,39.4-53.6,84.6c-15,30.2-31.5,71.3-42.2,120.9
		c-89.1,9.9-171.2,22.4-243.9,37.4c-143.3,29.5-314,81.8-314,163.5c0,57.3,84.2,100.2,183.9,130.8l4.5,5.5
		c52.9,64.2,126.8,108.5,208.2,124.9c122.7,24.7,340.2,54.2,679.6,54.2s556.9-29.5,679.6-54.2c81.3-16.4,155.3-60.8,208.2-124.9
		l4.5-5.5C2102.3,1234.2,2186.5,1191.4,2186.5,1134.1z M580.6,1051.2c1.6,83,9.5,139.6,24.5,175.4c-59.2-6-114.3-13.1-164.2-21.3
		c-192.2-31.5-260.7-71-260.7-97.6c0-5.3,6.5-24.5,90.3-49.6c56.9-17,139.6-33.6,239.2-48c23.4-3.4,47.7-6.6,72.4-9.7
		C580.9,1016.8,580.3,1033.7,580.6,1051.2z M1638.3,997.8c31.6,3.8,62.5,8,92.1,12.4c94.8,14.1,173.3,30.7,226.9,47.9
		c77.1,24.8,83.1,44.3,83.1,49.6c0,26.6-68.5,66.1-260.7,97.6c-49.9,8.2-105,15.3-164.2,21.3c15-35.9,22.9-92.5,24.5-175.4
		C1640.4,1032.7,1639.7,1014.9,1638.3,997.8z M651.9,821.8c26.6-53.9,54.1-84.6,54.3-84.9l3.9-4.3l-1.8-5.5
		c-4.1-12.2-6.1-70-0.9-168.3c4.9-92.8,14-182.6,24.5-240.3c5.1-28.3,7.8-54.8,10.3-80.5c4.4-43.8,8.1-81.6,23.1-108.2
		c15.8-28.1,43.1-41.9,88.7-44.5c32.6-1.9,67.5,15.9,103.5,52.9c37.1,38.1,62.5,84,69.5,97.1c14.9,28.3,36.8,44.9,67,50.8
		c17.2,3.4,34.4,1.4,51.2-5.8c22.4-9.6,36-19.2,48.7-44.8c30.9-62.6,102.4-154.2,173-150.2c45.6,2.6,73,16.3,88.7,44.5
		c14.9,26.7,18.7,64.5,23.1,108.2c2.6,25.7,5.2,52.3,10.3,80.5c10.5,57.6,19.6,147.4,24.5,240.3c5.1,98.2,3.1,156.1-1,168.3
		l-1.8,5.5l3.9,4.3c0.3,0.3,27.7,31,54.3,84.9c24.5,49.6,53.2,129.5,51.3,229c-1.8,89.4-10.5,146.3-27.6,178
		c-38.3,3-277.7,20.9-482.1,20.9c-204.2,0-444.4-19.5-483.1-22.7c-16.2-31.9-25-89.6-26.7-176.2
		C598.7,951.4,627.4,871.4,651.9,821.8z M1785.9,1375.7c-121.8,24.5-337.9,53.8-675.6,53.8s-553.8-29.3-675.6-53.8
		c-66.4-13.4-127.6-46.5-175.2-94.4c36.8,8.4,104.9,22.4,200.5,36.3c2.7,0.4,5.4,0.8,8.1,1.2c182.5,27.7,405.5,42.6,642.3,42.6
		s459.8-15,642.3-42.6c2.7-0.4,5.4-0.8,8.1-1.2c95.6-13.9,163.6-27.9,200.5-36.3C1913.5,1329.2,1852.3,1362.3,1785.9,1375.7z
		 M2090.6,1209.7c-51.8,25.6-126.6,48.5-222.2,68.2c-37.1,7.6-76.7,14.7-118.4,21c-137.4,19.6-357.8,42.5-639.7,42.5
		s-502.3-22.8-639.7-42.5c-41.7-6.3-81.3-13.3-118.4-21c-95.6-19.7-170.4-42.7-222.2-68.2c-49.6-24.5-75.9-50.7-75.9-75.6
		s26.2-51.1,75.9-75.6c51.8-25.6,126.6-48.5,222.2-68.2c70.4-14.5,149.8-26.7,235.8-36.4c-1.5,8.6-2.8,17.3-3.9,26.3
		c-26.5,3.2-52.3,6.7-77.3,10.3c-100.6,14.5-184.3,31.3-242.1,48.6c-71.3,21.4-104.5,43.2-104.5,68.7s25.5,47.9,77.9,68.5
		c46.9,18.4,114,34.9,199.6,48.9c174.6,28.6,411.2,44.4,666.9,44.6c1.9,0,3.9,0,5.8,0c2.1,0,4.1,0,6.2,0
		c174.5-0.2,340.1-7.6,483.1-21.4l4.8-0.4l0.1-0.1c64.6-6.3,124.5-13.9,178.5-22.8c85.6-14,152.7-30.4,199.6-48.9
		c52.4-20.6,77.9-43,77.9-68.5c0-25.6-30.8-47.4-97-68.7c-55.4-17.8-132.8-34.2-230.1-48.7c-31.3-4.7-63.8-9-97.2-13
		c-1-8.1-2.2-15.9-3.6-23.6c86,9.7,165.4,21.9,235.8,36.4c95.6,19.7,170.4,42.7,222.2,68.2c49.6,24.5,75.9,50.7,75.9,75.6
		S2140.2,1185.2,2090.6,1209.7z M1039.2,443.8c0,10.9-6.7,19.8-15.1,19.8c-8.3,0-15.1-8.9-15.1-19.8s6.7-19.8,15.1-19.8
		C1032.5,424,1039.2,432.9,1039.2,443.8z M1211.6,443.8c0,10.9-6.7,19.8-15.1,19.8c-8.3,0-15.1-8.9-15.1-19.8s6.7-19.8,15.1-19.8
		C1204.8,424,1211.6,432.9,1211.6,443.8z"/>
	<path class="st4" d="M1289.6,490.1c0,10.9-12.6,19.7-28.2,19.7s-28.2-8.8-28.2-19.7s12.6-19.7,28.2-19.7
		C1276.9,470.5,1289.6,479.3,1289.6,490.1z M966.7,470.5c-15.6,0-28.2,8.8-28.2,19.7s12.6,19.7,28.2,19.7c15.6,0,28.2-8.8,28.2-19.7
		S982.3,470.5,966.7,470.5z"/>
	<path class="st5" d="M853.6,247.1c-18.8,23.6-30.3,163.9-36,225.7s-12.1,57.3-26.3,53.8s10.7-160,19.6-238.2
		c8.9-78.2,37.3-74.7,37.3-74.7S880.2,213.7,853.6,247.1z M926.4,1075.9c0,0-11.6,120.9,12,117.3
		C962,1189.7,970.9,1038.6,926.4,1075.9z M1289.6,644.6c-1.8-23.1-69.3,0-69.3,0C1177.6,676.6,1291.3,667.7,1289.6,644.6z"/>
</g>
</svg>
