<?xml version="1.0" encoding="utf-8"?>
<!-- Generator: Adobe Illustrator 27.7.0, SVG Export Plug-In . SVG Version: 6.00 Build 0)  -->
<svg version="1.1" id="레이어_1" xmlns="http://www.w3.org/2000/svg" xmlns:xlink="http://www.w3.org/1999/xlink" x="0px"
	 y="0px" width="1505.3px" height="1365px" viewBox="0 0 1505.3 1365" style="enable-background:new 0 0 1505.3 1365;"
	 xml:space="preserve">
<style type="text/css">
	.st0{fill:#231815;}
	.st1{opacity:0.4;fill:#FFDEDE;enable-background:new    ;}
	.st2{fill:#7C1313;}
	.st3{fill:#DB2121;}
	.st4{fill:#FFFFFF;}
</style>
<g>
	<path class="st0" d="M928.6,722.5v-7.4l12.2-9.9l217.7,64.3v20.9L928.6,722.5z M1299.8,832.1l141,41.6l12.6-12v-5.1l-153.6-45.3
		V832.1z M645.8,524.4l-20,16v71.8l20,5.9V524.4z M645.8,39.1l-10.4-2.7l-9.6,7v86.9l20,10.8V39.1z M611.3,630.3L549.2,677v25
		l86-64.7L611.3,630.3z M73.6,1060l295.6-222.4v-25L56.4,1047.9C56.4,1047.9,57.4,1054,73.6,1060z"/>
	<path class="st1" d="M1463.4,264.7v602.1c0,0.9-0.4,1.7-1.1,2.3l-2.2,1.8c0.1,0.9-0.3,1.9-1.1,2.5l-539.2,446.2
		c-0.8,0.6-1.8,0.8-2.8,0.6L50.9,1064.6c-0.8-0.2-1.4-0.8-1.8-1.5l-1.5-0.4c-1.3-0.4-2.1-1.5-2.1-2.9L34,453.1c0-2,1.9-3.4,3.8-2.9
		l551.2,163l0,0c0.5-0.5,1.2-0.7,1.9-0.7L39.4,450c-2.3-0.7-2.9-3.6-1.1-5.2L632.5,26.3c0.8-0.6,1.8-0.8,2.8-0.6l822.7,231
		c2.3,0.7,2.9,3.6,1.1,5.2L919.8,708.1c-0.8,0.6-1.8,0.8-2.8,0.6L877.2,697l42.8,12.6l538.4-447.1
		C1460.4,260.8,1463.4,262.2,1463.4,264.7z"/>
	<path class="st2" d="M702.5,327.3c0.1,0,0.1,0.1,0.1,0.2c-2.1,2.2-20.6,18.8-76.7,1.3c-115.5-36.1-110.3-36.3-137.2-50
		c-33.7-17.1-66-35.4-45.3-76.4c0.7-1.5,2.9-1.3,3.3,0.3c0.7,2.3,2.5,4.5,6.6,5.5c0,0,14.3-0.2,44.6,4c33.2,4.6,67.9,16.4,99.9,40.6
		S671.2,315.7,702.5,327.3z M979,376.9c0,0-74-8.6-134.2-11.8c-42.9-2.3-60.2-6.2-66.5-8.2c-0.7-0.2-1.2,0.7-0.6,1.1
		c11.1,9.9,55.5,47.1,117,71.3c36,14.2,38.5,15.5,62.7,22.7c33.4,9.8,100.4,34,169.2-23.9c1-0.9-2-4.5-3-5.4
		C1077.7,384.3,979,376.9,979,376.9z"/>
	<path class="st3" d="M1183.4,371.5c15.6-19.1,24.1-31.2,22.4-33.7c-35.8-51.6-201.7-94.1-325.8-55.7l0,0
		c21.9-8.3,72.7-14.4,72.7-14.4l142-113L942.6,112L755.1,257.8l0.1,0.1c-27.4-36.6-104.4-129.7-198.6-136.7
		c-24.1-1.8-73.5,35.9-98.3,61.9c6.7-8.1,12.8-13.4,12.8-13.4l-30.1-8.5L313.5,251l325.6,96.9l-259.9,202v611l160,50.3V596.5
		l265.7-211.3l2.9-3.5l-30.2-27l24.1-23.1l0,0c-13.4,15.7-24.1,23.1-24.1,23.1c22.9,19.4,75.1,8.1,175.1,19.1
		c104.9,11.5,135.8,23.7,172.9,50.7c3.9,2.8,13.3-1.4,16.5-5c14.4-16.3,27-30.7,37.1-42.8c-4,8.4-14.7,25.5-41.7,48.8
		c-44.3,38.2-112.5,37.3-112.5,37.3l143.6,42.7v606.8l121.3-98.4V401.6L1183.4,371.5z M797.1,278.6c-5.3-3.1-10-5.5-14.1-7.3
		C787.2,273,792,275.4,797.1,278.6z M761.6,266.6c0,0,1.9-0.1,5.2,0.3c-0.8,0.3-1.5,0.7-2,1.3l-1.2,1.2c0-0.1-0.1-0.3-0.2-0.4
		C762.8,268.4,762.2,267.5,761.6,266.6L761.6,266.6z M759.5,273.3l-20,18.9C747.5,284.5,754.8,277.6,759.5,273.3z M652.3,337.6
		l-103.9-29.4c-46.7-20.5-92-44-105.3-73.3c-5-11.1-2.3-23.1,3.1-33.7c0.4,3.2,2.7,6.1,6.3,6.8c34.5,7.1,77.4-3,159.9,55.1
		c36.9,26,78.2,68.6,92.1,63.7c0,0.1,0,0.3,0,0.4l0,0L652.3,337.6L652.3,337.6z M739.1,351.3c11.4,5.9,20.2,9.4,26.2,10.7
		C761.1,361.2,752.7,358.9,739.1,351.3L739.1,351.3z M768.7,362.3c0,0-0.4,0-1.4,0c1-0.2,2.9-1.5,4.8-2.9L768.7,362.3z M829.4,304
		l-0.2,0.2c0.4-1.3,0.2-2.8-0.5-4c0.5,0.4,0.7,0.5,0.7,0.5s10.1-3.6,22.6-8.2C844.2,296,836.7,299.8,829.4,304z"/>
	<path class="st4" d="M715.5,338.7l41.8,22.5l-281,223.7v606.5l-47.5-15.9v-607L715.5,338.7z M1036.9,138.5l-53.2-14.9L794.3,275.5
		l38.1,25.9L1036.9,138.5z M1156.7,407.8c-16.2,19-43.8,33.2-43.8,33.2l101.4,29.5l-6.2,609.6l41.7-35.4V435L1156.7,407.8z
		 M444.9,199.6l-41.2-12.1l-47.2,33.2l86.4,25.2C431.4,224.9,444.9,199.6,444.9,199.6z M479,172.4c144,13.9,226.4,117.3,239.5,135
		c1,1.3,2.9,1.4,4.1,0.2l11.4-12.1c0.9-0.9,1-2.3,0.2-3.4c-98.1-138-208.4-150.1-221.2-151c-0.8-0.1-3.2-0.5-3.8,0l-32.1,25.3
		C474.6,168.2,475.8,172.1,479,172.4z M1187.4,366.5C1023.5,245.7,810,323.6,810,323.6l-17.7,17c254.1-44,366.6,59.9,366.6,59.9
		L1187.4,366.5z"/>
	<path class="st0" d="M549.3,1222.2l365,107.7c1.2,0.4,2.5,0.5,3.7,0.5c3,0,5.9-1,8.3-3l348.7-288.5l24.9-20.2v-0.4l165.6-137
		c1.5-1.3,2.8-2.2,4.6-4.3c2.7-3,3.3-6.3,3.3-10V264.7c0-3.6-1.5-6.9-4-9.3c-1.4-3.9-4.5-7-8.6-8.2l-344.7-96.8l-57.8-16.2l-13-3.7
		L940.4,101L638,16.2c-4-1.1-8.2-0.3-11.5,2.2l-594,418.4l-0.6,0.5c-2.2,1.9-3.7,4.3-4.4,7.1c-2.3,2.4-3.6,5.6-3.6,8.9v0.1
		L35.5,1060c0.1,5.2,3.3,9.9,8.1,11.9c1.3,1,2.8,1.8,4.5,2.3L406.4,1180L549.3,1222.2z M1073.1,159.1l-124.5,99
		c-9.1,1.2-38,5.1-59.2,10.7l149.7-119.2L1073.1,159.1z M1086.6,390.8c-8.9-3.9-18.5-7.1-29.4-10c-37.7-10.5-72.7-13.5-77-13.8
		c-8.3-1-17-2.1-26.3-3.1c-12.2-1.3-23.6-2.3-34.3-3.1c-23.1-2.1-49.8-4.3-74-5.6c-22.7-1.2-37.9-2.9-47.9-4.4c0.3-0.3,0.7-0.7,1-1
		c126-21.1,215.1-4.4,267.8,13.4c40.4,13.6,66.1,30,78,38.7c-3.1,3.5-6.3,7.2-9.8,11.1c-0.8,0.8-3,1.9-4.5,2.4
		c-0.1-0.1-0.1-0.1-0.2-0.1C1118,405.2,1102.7,397.2,1086.6,390.8z M1111.6,426.9c-7.8,5.8-15.5,10.6-23.2,14.4
		c-32.2,11.5-62.9,11.4-63.4,11.4l-27.7-0.4c-12-2.3-22.8-5.6-32-8.3c-1.9-0.6-3.6-1.1-5.3-1.6c-20.8-6.1-25.2-7.9-50-17.7
		c-3.5-1.4-7.4-2.9-11.9-4.7c-32.7-12.9-60.4-29.6-80.7-43.6c10.4,0.8,22.4,1.1,36.2,1.4c18.1,0.5,39.3,1,64.1,2.8
		c33.5,3.1,59.5,6.1,60,6.2h0.1c33,4.2,57.2,8.6,76.6,14c5.1,1.5,10.2,3.1,15.3,4.8C1086,411.4,1098.8,418.3,1111.6,426.9z
		 M749.9,267.6l0.4,0.6c-3.4,3.2-7.8,7.3-12.5,11.8C696.6,223.9,649,182.3,596,156.2c-22.6-11.1-42.2-17.4-56.8-20.9
		c7.5-3.2,13.1-4.4,16.6-4.2C640.1,137.4,711.8,216.3,749.9,267.6z M722.6,293.1l-1.4,1.5c-23.6-29.5-100-112.2-225.4-130.2
		l16.9-13.3C526.1,152.2,629,164.6,722.6,293.1z M746.6,299.3l19.5-18.5c0.1-0.1,0.3-0.2,0.4-0.3c0.9-0.6,2.4-1.5,3.7-2.8
		c2.6,0.6,5.7,1.5,9.2,2.9c3.3,1.5,7.3,3.5,12.1,6.3c0.1,0,0.1,0.1,0.2,0.1c10.5,6.7,18.8,12.4,24.3,16.3l-21.3,21.1l-19.5,18.7
		l-3.9,3.8l-6.5,4.5c-4.8-1.4-11.6-4.2-20.3-8.7c-0.1-0.1-0.2-0.1-0.3-0.2c-10.3-5.8-18.9-11.7-24.7-16.1
		C727,318.5,737.2,308.4,746.6,299.3z M1074.1,344.5c-35.6-12.2-74.8-19.9-116.6-23.2c-14.6-1.1-29.5-1.7-44.7-1.7
		c-20.7,0-41.9,1-63.5,3.1c22.2-5.3,53.3-11,89.1-13.1c63-3.7,153.6,3.7,233.4,58.1l-0.1,0.8c-0.1,0.3-0.3,1-0.9,2.2l-13.3,15.8
		C1144.9,377.1,1117.6,359.4,1074.1,344.5z M1061.4,299.1c-39-8.8-81-11.9-124.8-9.3c-28.5,1.7-53.9,5.5-74.5,9.7
		c6.7-2.5,13.8-5.1,20.1-7.5c47.5-14.9,105.2-18.7,165.2-10.5c66.6,9.2,125.9,32.8,147.3,58.4c-1.4,2.4-4.2,6.4-9.3,13
		C1148.8,327.5,1107.1,309.4,1061.4,299.1z M1005.7,140.2l9.7,2.7L831.9,289l-20.8-14.2l174.8-140.2L1005.7,140.2z M944.7,123
		l17.5,4.9L792.1,264.4c-1.8-0.9-3.5-1.6-5.2-2.3c-5.6-2.5-10.5-4.2-14.7-5L944.7,123z M625.8,130.3c-21.5-10.3-44.5-17.3-68.5-19.1
		c-19.3-1.4-46.3,15.3-65.6,29.6c-7.7,5.7-15.4,11.9-22.4,18l-5.4-1.5l161.9-114l10.3-7.2l9.7,3l275,77.2l-164,127.4
		c-26.5-33.8-64.8-75.2-111-102.7 M464.9,190.5c2.9-2.8,6-5.9,9.3-9.1c1.2,0.5,2.5,0.8,3.8,0.9c130.4,12.6,208.3,100,229.1,126.7
		l-6.9,6.5c-6.9-3.2-14.3-7.6-22-12.9c-6.6-5.1-13.8-11.1-21.4-17.3C644.1,274.8,631,264,618,254.9c-3.2-2.2-6.3-4.4-9.4-6.4
		c-1.6-1.3-3.3-2.5-4.9-3.8c-30.1-22.8-65.3-37.1-104.6-42.5c-19.7-2.7-32.8-3.6-39.9-3.9C461,195.6,463,192.9,464.9,190.5z
		 M452.5,218.3c7.4,1.4,15.1,2.1,23.1,2.8c29,2.7,64.7,6,121.5,43.7c6.9,5.4,14.1,11.3,21.7,17.4c16,13,32.4,26.3,48.1,36.9
		c1.9,1.5,3.8,2.9,5.6,4.2l-13.4,2.7c-8.3-1-18.3-3-30.2-6.8c-102-31.9-109-35.5-127.7-45.2c-0.2-0.1-0.5-0.2-0.7-0.4
		c-22.7-12.8-41.2-27.1-48.3-42.7c-1.8-4-2.1-8.4-1.3-12.9c0.1,0,0.3,0.1,0.4,0.1l1,0.2L452.5,218.3L452.5,218.3z M442.8,172.2
		l9.4,2.6c-0.4,0.5-0.8,0.9-1.2,1.4c-4,4.2-7.5,8.2-10.2,11.8l-14.5-4.2L442.8,172.2z M405.5,198.5l25.4,7.4
		c-3.3,8.8-4.6,17.1-3.8,25L379.2,217L405.5,198.5z M358.3,231.7l78.5,22.9c0.4,0.5,0.7,0.9,1.1,1.4c10.8,13.2,28,22.6,46.3,31.8
		c2.4,1.2,4.6,2.4,6.6,3.4c2.7,1.6,5.5,3.1,8.3,4.6l-163-48.5L358.3,231.7z M315.3,262l302.3,90L376.9,539L56.2,444.5L315.3,262z
		 M56.4,1047.9c-1.4-3.3-1.2-5.9-1.2-5.9l-11-579.4l325,96.1v223.5v26v4.3v25v310L73.6,1060C73.6,1060,60.3,1057.1,56.4,1047.9z
		 M418.8,1162.8l-29.6-9.3V554.8l256-199l11.5-8.9l3.1-0.6c3.9,0.4,7.6,0.6,11,0.6c9.2,0,16.4-1.2,22.1-3L418.8,563.8V1162.8z
		 M466.3,580.1v597.5l-27.5-9.2v-595l277.8-222.8l22.6,12.2L466.3,580.1z M529.2,1197.6l-42.9-13.5V589.7l274.4-218.5
		c1,0.2,1.9,0.4,2.8,0.6c0.6,0.1,1.2,0.2,1.8,0.3c0.6,0.1,1.1,0.1,1.7,0.1c0.1,0,0.2,0,0.3,0c1,0,1.7,0,2.2,0l3.2-0.3l2.9-2.5
		c4.1,3.4,9.6,7.9,16.5,13.1L529.2,591.7V1197.6z M625.8,612.3l-31.1-9.2c-0.6-0.2-1.1-0.3-1.7-0.4l-33.2-9.8l66-52.5l20-15.9
		L809,394.8c21,14.4,49.1,30.9,82,43.9c4.4,1.7,8.3,3.3,11.8,4.7c25.4,10.1,30,11.9,51.7,18.3c1.7,0.5,3.4,1,5.2,1.5
		c16.5,5,41,12.3,69.2,12.3c1.2,0,2.5,0,3.8-0.1l112.3,33.4L916.3,698l-36.1-10.6l-234.4-69.2L625.8,612.3z M549.2,677.1v-17.9v-26
		v-21.3l19,5.6l23.1,6.9l20,5.9l23.9,7.1l273.4,80.8v589.1l-359.4-106.5V702.1L549.2,677.1L549.2,677.1z M928.6,715.9l12.2-10.7
		l217.7-180.8v245.1v20.9v318.1l-229.9,191v-577V715.9z M1198.2,1075.3l-19.7,15.9V498L1077,467.8c6.2-2.1,12.3-4.6,18.3-7.5
		c6.5-2.3,13.1-5.1,19.6-8.3l89.3,26L1198.2,1075.3z M1239.8,1040.2l-21.5,18.2l6-595.3l-86.5-25.2c2-1.5,3.9-3,5.8-4.6
		c5.5-4.1,11.2-8.9,16.2-14.1l80,23.4V1040.2z M1279.8,1009.1l-19.9,16.2V427.5l-85.8-25.1c6.5-8,10.5-14.6,13.1-19.5l92.6,26.3
		L1279.8,1009.1L1279.8,1009.1z M1200.9,366.1l1-1.2l-0.3-0.2c13.5-17.4,17.2-25.4,12.3-32.5c-22.3-32.1-86.6-59.8-163.8-70.4
		c-23.2-3.2-46.1-4.6-68.3-4.4l115.1-91.5l345.5,96.9l-154.6,127.9L1200.9,366.1z M1441.1,873.8l-141.3,117.3v-159v-20.8v-404
		l153.6-127.5v576.8C1453.4,856.6,1454.3,863,1441.1,873.8z"/>
</g>
</svg>
