<?xml version="1.0" encoding="utf-8"?>
<!-- Generator: Adobe Illustrator 27.7.0, SVG Export Plug-In . SVG Version: 6.00 Build 0)  -->
<svg version="1.1" id="레이어_1" xmlns="http://www.w3.org/2000/svg" xmlns:xlink="http://www.w3.org/1999/xlink" x="0px"
	 y="0px" width="2780.4px" height="1242.2px" viewBox="0 0 2780.4 1242.2" style="enable-background:new 0 0 2780.4 1242.2;"
	 xml:space="preserve">
<style type="text/css">
	.st0{fill:#D3D3D3;}
	.st1{fill:#DDB28E;}
	.st2{opacity:0.3;enable-background:new    ;}
	.st3{opacity:0.1;enable-background:new    ;}
</style>
<path class="st0" d="M2486.3,819.6v422.7h-84.1v-124H379.5v124h-84.1V819.6h84.1h2022.7H2486.3z"/>
<path class="st1" d="M2769.7,707.6V776c0,24.1-19.5,43.6-43.6,43.6h-321.5v224H382v-224H55.9c-24.3,0-44-19.7-44-44v-68l341-644.4
	c17-32.2,50.4-52.3,86.9-52.3H2342c36.4,0,69.8,20.1,86.9,52.3L2769.7,707.6z"/>
<rect x="379.5" y="819.6" class="st2" width="2022.7" height="224"/>
<path class="st3" d="M2726.2,819.6H55.9c-24.3,0-44-19.7-44-44v-68h2757.8V776C2769.7,800,2750.2,819.6,2726.2,819.6z"/>
</svg>
