<?xml version="1.0" encoding="utf-8"?>
<!-- Generator: Adobe Illustrator 27.7.0, SVG Export Plug-In . SVG Version: 6.00 Build 0)  -->
<svg version="1.1" id="레이어_1" xmlns="http://www.w3.org/2000/svg" xmlns:xlink="http://www.w3.org/1999/xlink" x="0px"
	 y="0px" width="1917px" height="2186.3px" viewBox="0 0 1917 2186.3" style="enable-background:new 0 0 1917 2186.3;"
	 xml:space="preserve">
<style type="text/css">
	.st0{fill:#DDDDDD;}
	.st1{opacity:0.3;enable-background:new    ;}
	.st2{fill:#FF4229;}
	.st3{fill:#231815;}
	.st4{fill:#FFFFFF;}
</style>
<g>
	<path class="st0" d="M848.9,18.1c-458,0-829.3,150.4-829.3,336l0,0l0,0v1468.4c0,0,3.6,336,829.3,336s829.3-336,829.3-336V354.1
		C1678.3,168.5,1307,18.1,848.9,18.1z M22.1,380.4c0-0.1-0.1-0.3-0.1-0.4C22,380.1,22.1,380.2,22.1,380.4z M29.2,405.3L29.2,405.3
		L29.2,405.3z M27.8,401.6c-0.1-0.2-0.1-0.3-0.2-0.5C27.7,401.2,27.8,401.4,27.8,401.6z"/>
	<path class="st1" d="M1560.9,341.6c0,140.4-318.8,254.2-712,254.2s-712-113.8-712-254.2s318.8-254.2,712-254.2
		S1560.9,201.2,1560.9,341.6z"/>
	<path class="st2" d="M569.5,576.8C331.6,541.3,239.8,469,239.8,469c94.8-66.5,274.1-136.3,609.2-136.3
		c330.7,0,509.8,70.4,605.6,138.4c0,0-23.2,18.3-77,41c3.5,2.2,6.4,5.1,6.7,9.2c14.8,198.5-187.6,292.4-233,344.8
		c-46.2,53.3,24.9,412.4-92.4,398.2c-30.2-3.7-47.1-24.3-57.2-53.9c-0.6-1.8-1.2-3.6-1.7-5.5c-6.4-21.3-9.7-46.8-12.1-73.7
		c-0.2-2.3-0.4-4.7-0.6-7c-0.1-1.2-0.2-2.4-0.3-3.5c-0.2-2.4-0.4-4.7-0.6-7.1c-0.4-4.8-0.7-9.5-1.1-14.3c-0.2-2.4-0.3-4.8-0.5-7.2
		c-0.5-7.2-1-14.4-1.6-21.5c-0.2-2.4-0.4-4.8-0.6-7.1c-0.2-2.4-0.4-4.7-0.6-7.1c-0.1-1.2-0.2-2.4-0.3-3.5c-0.3-3.5-0.7-7-1.1-10.5
		c-0.1-1.3-0.3-2.6-0.4-3.8c-0.2-2.1-0.5-4.1-0.8-6.1c-0.2-1.4-0.4-2.8-0.6-4.2c-0.3-2.1-0.6-4.2-0.9-6.3c-0.2-1.1-0.3-2.2-0.5-3.3
		c-0.9-5.7-1.9-11.3-3.1-16.8c-1.9-8.9-4.2-17.5-6.9-25.5c-0.2-0.6-0.4-1.1-0.6-1.7c-0.8-2.2-1.6-4.3-2.4-6.4
		c-0.5-1.3-1-2.5-1.6-3.7c-0.4-0.9-0.8-1.7-1.2-2.6c-0.8-1.7-1.6-3.4-2.5-5c-0.4-0.8-0.9-1.6-1.3-2.4c-2.1-3.8-4.4-7.4-6.9-10.7
		c-1.5-2-3-3.9-4.6-5.7c-0.8-0.9-1.7-1.8-2.5-2.7l-0.1-0.1c-4.2-4.3-8.9-8-14.2-11.1c-9.1-5.4-16.5-10-22.7-14
		c-2.8-1.8-5.3-3.5-7.6-5.2c-4.1-2.9-7.5-5.5-10.5-7.9c-2.2-1.8-4.2-3.5-5.9-5.2c-0.4-0.4-0.8-0.7-1.1-1.1c-0.6-0.5-1.1-1.1-1.7-1.6
		c-0.4-0.4-0.7-0.7-1-1.1c-1.3-1.4-2.6-2.7-3.7-4.1c-0.1-0.1-0.2-0.2-0.2-0.3c-0.4-0.5-0.8-0.9-1.2-1.4c-0.3-0.4-0.7-0.8-1-1.2
		c-1.9-2.3-3.8-4.6-5.9-7.1c-0.1-0.1-0.2-0.3-0.3-0.4c-3-3.6-6.4-7.5-10.9-12.1l-0.1-0.1c-8.7-8.9-21.3-20.4-42.2-36.8
		c-0.9-0.7-1.9-1.6-3.2-2.6c-0.3-0.3-0.6-0.5-0.9-0.8c-0.6-0.6-1.3-1.2-2-1.8c-0.4-0.3-0.7-0.6-1.1-1c-1.1-1-2.3-2-3.5-3.1
		c-0.4-0.4-0.8-0.7-1.2-1.1c-1.5-1.3-3-2.6-4.6-4c-0.4-0.3-0.8-0.7-1.2-1c-0.5-0.4-1-0.8-1.5-1.2c-0.9-0.7-1.7-1.4-2.6-2.1
		c-0.5-0.4-1-0.8-1.5-1.2c-1.1-0.9-2.3-1.7-3.4-2.6c-1.4-1-2.7-2-4.1-2.8c-0.9-0.6-1.8-1.1-2.6-1.7c-1.7-1-3.4-1.9-4.9-2.6
		c-1-0.4-2-0.8-3-1c-0.9-0.2-1.8-0.4-2.6-0.4s-1.5,0.1-2.2,0.4c-0.5,0.2-0.9,0.5-1.3,0.8c-0.1,0.1-0.3,0.2-0.4,0.4c0,0,0,0.1,0,0.2
		c0,0.1,0,0.1,0,0.2c0,0.2,0,0.4,0,0.6c0,0.8,0,2.1,0,3.6c0,0.4,0,0.9,0,1.3c0,0.4,0,0.9,0,1.3c0,0.4,0,0.9,0,1.3c0,0.4,0,0.9,0,1.3
		s0,0.8,0,1.2c0,1.2,0,2.1,0,2.7c0,0.2,0,0.4,0,0.5s0,0.2,0,0.2c-0.1,5,0,10,0.2,14.8c0.1,1.6,0.1,3.2,0.2,4.8
		c0.1,2.4,0.3,4.7,0.4,7c0.4,5.4,0.8,10.6,1.1,15.6c0.1,0.7,0.1,1.4,0.2,2.1c0.2,2.8,0.4,5.6,0.5,8.3c0,0.7,0.1,1.3,0.1,2
		c0.2,4,0.3,7.8,0.2,11.4c0,0.6,0,1.2-0.1,1.8c0,1.2-0.1,2.4-0.2,3.5c-0.7,9.8-3.1,18-8.6,24.3c-0.3,0.4-0.7,0.7-1,1.1
		c-4.5,4.6-10.8,8.1-19.8,10.3c-3.4,0.8-6.7,1.3-9.8,1.3c-15,0.2-26.4-8.5-34.9-25.2c-0.4-0.7-0.7-1.4-1-2.1
		c-2-4.3-3.9-9.2-5.6-14.4c-2.3-7.1-4.2-15-5.8-23.7c-0.4-2.2-0.8-4.4-1.2-6.7s-0.7-4.6-1.1-7c-0.3-2.4-0.7-4.8-1-7.3
		c-2.1-17.3-3.5-37-4-58.9c-0.5-17.4-4.4-31.4-10.6-43.4c-1-2-2.1-3.9-3.3-5.8s-2.3-3.7-3.6-5.5c-4.4-6.2-9.3-11.9-14.6-17.3
		c-1.5-1.5-3.1-3-4.6-4.5c-5.5-5.2-11.2-10.2-16.9-15.1c-0.8-0.7-1.6-1.4-2.5-2.1c-5.7-5-11.4-10-16.8-15.3
		c-0.8-0.8-1.5-1.5-2.3-2.3c-1.5-1.5-3-3.1-4.4-4.7c-2.2-2.4-4.3-4.9-6.3-7.5c-3.3-4.3-6.4-8.8-9.1-13.7c-0.5-1-1.1-2-1.6-3
		c-1-2-2-4.1-2.9-6.2c-4.5-10.7-7.3-23-7.6-37.6c0-0.8,0-1.5,0-2.3c0-0.2,0-0.3,0-0.5c0-0.7,0.1-1.4,0.2-2.1c0-0.2,0.1-0.5,0.1-0.7
		c0.1-0.5,0.2-1,0.3-1.5c0.1-0.4,0.2-0.8,0.3-1.1c0.1-0.4,0.2-0.8,0.3-1.2c0.1-0.3,0.2-0.7,0.3-1
		C569.1,577.7,569.3,577.2,569.5,576.8z M1895.5,1142.4c-5.9-94-25.7-198-58.7-309.1c-56-188.2-129.9-330-133-336
		c-5.2-9.9-15.1-34-25.6-34.4l0.1,120.4c26.6,58.4,68,156.5,100.9,267.1c49.5,166.4,92.6,401.5,16.8,577.2
		c-49.1,113.9-143.9,191.2-281.6,229.8c-251.3,70.4-474.5,50.2-663.6-60.2C663,1487.6,542.3,1307.1,474.1,1175
		c-74.6-144.5-104.5-264.5-104.8-265.7c-3.9-16.1-20.2-25.9-36.3-22c-16.1,3.9-26,20.2-22,36.3c1.2,5.1,31.5,126.8,109,277.4
		c45.6,88.6,98.2,168.7,156.3,238.1c73.1,87.3,155.2,157.9,244,209.8c125.1,73.1,263.6,109.8,413.8,109.8
		c94.3,0,193.4-14.5,296.6-43.4c156-43.7,263.8-132.5,320.5-263.8C1888.1,1365.8,1903,1261.8,1895.5,1142.4z"/>
	<path class="st3" d="M9.6,363.8v1468.4v0.1c0,0.9,0.4,23.3,14.2,56.3c12.5,29.8,39.1,74.7,94.5,119.4
		c61.5,49.6,145.7,89.1,250,117.4c129.6,35.1,291.3,52.8,480.6,52.8c189.2,0,350.9-17.8,480.6-52.8c104.4-28.2,188.5-67.7,250-117.4
		c55.4-44.7,82-89.6,94.5-119.4c13.8-32.9,14.2-55.3,14.2-56.3v-0.1v-174.9c77.8-49.4,135.4-117,172.1-202
		c37.6-87.1,52.7-192.6,45.1-313.6c-6-94.8-25.8-199.5-59.1-311.3c-56.3-189.1-130.6-331.8-133.7-337.7c-0.7-1.4-1.6-3.2-2.6-5.2
		c-5.7-11.6-12.4-25.3-21.8-31.3v-92.4h-0.3c0.2-3.2,0.3-6.5,0.3-9.7c0-94.1-88.5-181.8-249.2-246.9
		C1281.3,43.3,1071.7,8.1,848.9,8.1s-432.4,35.2-590.2,99.1C98.1,172.3,9.6,260,9.6,354.1V363.8z M1688.3,630.4
		c25.6,59.6,56.1,137.7,81.4,222.9c49,164.8,91.8,397.5,17.2,570.4c-22.8,52.9-55.8,97.7-98.6,134.2V630.4z M91.7,230.5
		c40.9-39.1,99.6-74.4,174.6-104.8C421.8,62.7,628.7,28,849,28s427.2,34.7,582.7,97.7c75,30.4,133.7,65.6,174.6,104.8
		c41.2,39.5,62.1,81,62.1,123.6s-20.9,84.1-62.1,123.6c-40.9,39.1-99.6,74.4-174.6,104.8c-13.9,5.6-28.2,11-42.9,16.2
		c5.5-26.8,7.3-55.5,5.4-82.3c118.7-48.1,183.6-110.4,183.6-177.1c0-72.5-76.4-139.6-215.2-189.2c-135.5-48.4-315.5-75-506.8-75
		s-371.3,26.7-506.8,75c-139,49.4-215.4,116.6-215.4,189.1S210,478.8,348.8,528.4c61.1,21.8,131.3,39.2,207.5,51.8
		c0.7,5.7,1,8.8,1,8.8c0.8,33.5,13.7,56.1,29.8,74.1c-119.6-16.2-229.2-43.4-320.8-80.6c-75-30.4-133.7-65.6-174.6-104.8
		c-41.2-39.5-62.1-81-62.1-123.6S50.5,270,91.7,230.5z M755.4,808.6v0.9c-0.3,14,0.7,27.3,1.6,39.1c3,39.6,2.1,52.9-20.7,58.4
		c-8.9,2.2-15.8,1-21.9-3.6c-18.1-13.9-28.3-57.9-30.2-130.9c-1.3-50.6-30.8-76.1-56.8-98.7c-25.3-22-49.3-42.8-50.3-85.4
		c-0.2-9.1,3.3-11.6-0.8-21.8c0,0,1.1-0.2-2-0.3c-83.3-12.5-154.2-31.1-220-54.5c-36.5-13-68.1-27.9-95.1-43.8
		c91.7-59.2,266.4-125.2,589.5-125.2c321.9,0,496.4,67.9,587.8,128.4c-12.2,7.6-28.7,17.6-62.6,31.5l0.3,22.9
		c9,146.3-104.1,232.8-179.1,290.2c-22.8,17.4-40.8,31.2-51.7,43.8c-19.2,22.2-20.5,77.2-21.1,165.1c-0.5,85.5-1.2,191.9-35.3,221.9
		c-7.5,6.6-16.4,9.1-27.3,7.8c-54-6.5-59.3-80.4-64.9-158.7c-5.3-74.2-10.9-151-60.4-180.2c-39.9-23.5-46.7-31.8-57-44.3
		c-9.4-11.4-21.1-25.7-58.1-54.5c-1.6-1.2-4.1-3.5-7.1-6.1c-9.7-8.5-23-20.2-33.6-24.8c-3.7-1.6-6.9-2.2-9.6-2.2
		c-5.8,0-9.4,2.8-11.3,5c-2.5,2.9-2.5,4.5-2.5,12.1C755.4,803.6,755.4,807,755.4,808.6z M1459.7,462.6
		c-57.1-40.4-130.2-72.6-217.3-95.8c-109.8-29.2-242.2-44.1-393.4-44.1c-153,0-286.7,14.7-397.2,43.5c-84.2,22-155.2,52.3-211,90
		c-12.8-8.4-24.4-17.1-34.7-25.8c-34.8-29.4-52.4-60.1-52.4-91.3s17.6-62,52.4-91.3c34.9-29.5,85.2-56.1,149.5-79
		c133.3-47.6,311-73.8,500-73.8s366.7,26.2,500.1,73.9c64.3,22.9,114.6,49.5,149.5,79c34.8,29.4,52.4,60.1,52.4,91.3
		s-17.6,62-52.4,91.3C1491.8,441.8,1476.8,452.4,1459.7,462.6z M1668.3,1832.1c0,1-0.8,21.1-13.4,50.4
		c-11.9,27.7-37.2,69.5-89.8,111.4c-94,74.9-294.6,164.3-716.2,164.3s-622.1-89.3-716.1-164.3c-52.6-41.9-77.9-83.7-89.8-111.4
		c-12.7-29.5-13.4-49.7-13.4-50.4v-820.4V440.1v-9.7C64.1,495,142.6,553.9,258.8,601c100,40.5,220.8,69.5,352.6,85.3
		c1,0.9,2,1.8,3,2.7c25.1,21.8,48.8,42.4,49.9,84.1c2.2,81.6,14.3,128.1,38.1,146.3c10.9,8.3,23.9,10.8,38.7,7.2
		c18.8-4.6,30.2-14.8,34.7-31.3c3.8-13.5,2.5-29.5,1.1-48c-0.9-11.9-1.8-24.2-1.6-37.3c0,0,0-0.5,0-1.3c0-0.7,0-1.3,0-2
		c7.6,4.7,17.5,13.4,23.8,19c3.3,2.9,6,5.2,8,6.8c35.2,27.5,46.2,40.8,54.9,51.5c11.2,13.6,19.3,23.5,62.3,48.8
		c40.5,23.9,45.6,95.3,50.6,164.4c2.9,40.2,5.9,81.9,16.2,113.9c12.4,38.6,34.1,59.3,66.3,63.2c2.7,0.3,5.3,0.5,7.9,0.5
		c13.4,0,25.1-4.4,35.1-13.2c40.8-35.9,41.4-138,42.1-236.8c0.4-66.1,0.9-134.4,16.2-152.1c9.5-11,27.7-24.9,48.7-41
		c38.9-29.7,87.2-66.7,125.8-117c21.2-27.6,37.1-56.6,47.3-86.1c0.8-2.2,1.5-4.5,2.2-6.8c19.4-6.6,38.2-13.5,56.4-20.9
		c116.2-47.1,194.6-106,229.2-170.6v9.7v571.7v562c-43.4,32.2-95.6,57-156.5,74c-96.8,27.1-189.3,40.7-277.2,40.7
		c-138,0-264.7-33.3-378.6-99.9c-185.7-108.4-305.3-287.2-372.9-418.2c-38.7-75.1-65.4-143.5-82-191.9
		c19.7-17.9,32.1-43.8,32.1-72.4c0-54-44-98-98-98s-98,44-98,98c0,50.6,38.5,92.4,87.8,97.5c17.4,50.9,45.3,122.4,86.2,201.9
		c45.9,89.2,98.9,169.9,157.5,239.9c73.8,88.2,156.8,159.5,246.6,212c126.2,73.7,267.1,111.1,418.8,111.1
		c95,0,195.7-14.7,299.3-43.8c49.8-14,94.8-32.4,134.9-55.3L1668.3,1832.1L1668.3,1832.1z M335.2,856.1c-27.6,0-50,22.4-50,50
		c0,17.2,8.8,32.4,22.1,41.4c2.6,9,6.1,20.7,10.6,34.6c-34.7-7.9-60.7-39-60.7-76c0-43,35-78,78-78s78,35,78,78
		c0,19.6-7.2,37.4-19.2,51.1c-5-15.3-8.6-27.7-11.1-36.3c1.5-4.7,2.3-9.7,2.3-14.9C385.2,878.5,362.8,856.1,335.2,856.1z
		 M1842,1447.4c-55.4,128.4-161,215.3-314,258.1c-101.9,28.5-200.7,43-293.9,43c-148.2,0-285.7-36.5-408.7-108.4
		c-87.8-51.3-169-121.2-241.4-207.6c-57.6-68.9-109.8-148.3-155-236.2c-77-149.5-106.9-270.1-108.1-275.2
		c-1.3-5.2-0.4-10.6,2.3-15.1c2.8-4.6,7.2-7.8,12.3-9c1.6-0.4,3.2-0.6,4.7-0.6c9,0,17.2,6.1,19.4,15.3
		c0.3,1.2,30.5,122.4,105.6,267.9c68.8,133.3,190.7,315.4,380.5,426.3c117.1,68.4,247.1,102.6,388.6,102.6
		c89.8,0,184.2-13.8,282.8-41.4c140.8-39.4,237.7-118.7,288.1-235.5c77-178.4,33.6-416.1-16.4-584c-32-107.5-72.1-203.9-100.5-266.4
		l-0.1-92.5c1.6,3.1,3,5.9,3.8,7.6c1,2.1,2,4.1,2.9,5.7c3.1,5.9,76.5,146.9,132.2,334.2c32.8,110.3,52.4,213.6,58.3,306.8
		C1892.9,1260.9,1878.3,1363.3,1842,1447.4z"/>
	<path class="st4" d="M1304.3,530.9c-4.1,56.9-28.2,114.2-65.8,157.1c-5.4,6.1-11.5,12.5-17.4,18c-8.6,8-18.6,16.5-27.2,24.5
		c-11.3,10.9-23,22.4-34,33.5c-2.1,2-6.3,6.3-8.4,8.5c-2.3,2.4-6.1,6.1-8.3,8.5c-16.3,17.2-32.3,35.7-46.4,54.8
		c-2.3,3.2-4.8,6.6-6.9,10c-0.3,0.5-1,0.6-1.4,0.3c-0.4-0.2-0.5-0.7-0.4-1c1.8-8.1,4.9-15.9,8.2-23.5c11-24.6,26.8-47,44.5-67.3
		c15-16.9,32.6-32,50.7-45.4c7.4-5.6,16.5-12.5,23.4-18.6c5-4.5,10.2-9.5,14.9-14.3c26.8-28.1,47.1-62,60.2-98.6
		c5.4-15.1,9.9-30.7,12.2-46.6c0.1-0.6,0.6-1,1.1-0.9C1303.9,530,1304.3,530.4,1304.3,530.9L1304.3,530.9z M1079.1,928.1
		c-0.1-0.5-0.5-0.9-1-0.9c-0.6,0-1,0.4-1,1c-1.7,43-3.5,86-6.2,128.9c-1.4,21.3-4.9,42.5-5.3,63.7c-0.4,10.6-0.7,21.1-1.2,31.6
		c-0.5,7.7-0.8,15.4-2.9,22.7c-0.8,2.2-1.6,4.3-3.7,5.4c-1,0.4-0.9,1.8,0.2,2c6.5,0.4,10.8-6.8,13.7-11.6
		c7.9-15,11.3-31.8,13.9-48.2c3.4-21.6,1.7-43.5,1.4-65.2C1086.2,1014.3,1083.5,971.1,1079.1,928.1L1079.1,928.1z M1308.7,482.4
		c-0.5-0.6-1.5-0.6-2,0c-2.9,3.8-5.2,7.5-7,11.8c-0.7,1.8-3.5,3.7-2,5.9c2.1,3,4.7,4.3,9,5.9c0.6,0.2,1.3,0.2,2,0
		c4.3-1.6,6.9-2.9,9-5.9c1.5-2.2-1.3-4.1-2-5.9C1313.9,489.9,1311.6,486.2,1308.7,482.4L1308.7,482.4z M637.6,573.3
		c0-0.5-0.5-0.9-1-0.9c-0.6,0-1,0.5-1,1c0.9,34.9,12.7,73.6,43.2,93.9c8.8,5.3,14.9,14.1,18.6,23.6c13,33.3,5.2,69.8,10.9,104.8
		c1.6,10,4.1,19.7,6.7,29.5c3.6,12.9,7.6,25.6,13.3,37.8c0.2,0.3,0.5,0.6,0.9,0.6c0.6,0,1-0.5,1-1c0.1-13.4-0.4-26.6-1.1-39.7
		c-0.4-9.7-1.4-19.3-1.8-29c-0.3-9.6-0.2-19.2-0.7-29c-1.1-20.2-3.8-40.4-8.9-60.1c-4.8-17.9-13.8-36.7-30.8-46.2
		c-2-1.1-4.2-2.3-6.1-3.5C654.3,637.4,641.9,604,637.6,573.3L637.6,573.3z"/>
</g>
</svg>
