<?xml version="1.0" encoding="utf-8"?>
<!-- Generator: Adobe Illustrator 27.7.0, SVG Export Plug-In . SVG Version: 6.00 Build 0)  -->
<svg version="1.1" id="레이어_1" xmlns="http://www.w3.org/2000/svg" xmlns:xlink="http://www.w3.org/1999/xlink" x="0px"
	 y="0px" width="1138.7px" height="1399.1px" viewBox="0 0 1138.7 1399.1" style="enable-background:new 0 0 1138.7 1399.1;"
	 xml:space="preserve">
<style type="text/css">
	.st0{fill:#D1BDB8;}
	.st1{opacity:0.8;fill:#FFB6BF;enable-background:new    ;}
	.st2{opacity:0.5;fill:#FFFFFF;enable-background:new    ;}
	.st3{opacity:0.8;fill:#C7E6FF;enable-background:new    ;}
	.st4{opacity:0.8;fill:#FFE2A9;enable-background:new    ;}
	.st5{opacity:0.8;fill:#CAFFF0;enable-background:new    ;}
</style>
<path class="st0" d="M739.3,1250.5c-11.9-3.5-28.9,4.2-47.7,14.2c-3.6-114.1,18.8-254.8,38.6-353.9c22-110.5,40.6-176.5,40.9-177.4
	l-2.4-1c-1.4-0.6-2.8-1.2-4.1-2l-2.3-1.3c-0.2,0.8-19.8,68.8-41.9,179.6c-13.7,68.8-28.7,157.6-35.5,243.8
	C670,892.1,622.1,618.2,622,615l-10,0.3c0.1,3.3,51,293.9,64.2,561c-7.3-41.3-16.4-91.5-26.4-145c-22.4-120.1-38.8-185.4-39-186.2
	l-0.8,0.3c-2.3,0.8-4.8,1.4-7.2,1.8l-1.7,0.3c0.2,0.8,16.5,65.9,38.9,185.7c16.1,86.3,27.4,149.7,34.2,190.2
	c-26-60-80.9-150.6-164-270.5c-78.7-113.6-138-190.5-138.7-191.5c-2.1,1.7-4.5,2.9-7.1,3.8l-1.4,0.4c3,3.9,285.8,373.5,316.2,502.1
	c-17.9-2.9-53.6-6.7-63.4,6.3c-2.5,3.3-4.6,9.1-0.2,17.9c2.2,4.4,5.6,7.3,10.1,8.7c13,4,32.9-6.2,54.3-18
	c-2.1,8.8-4.3,25.2-0.8,50.8c5.1,36.9,0.3,51.4,0.3,51.5l9.4,3.4c0.2-0.7,5.7-16.4,0.3-56.3c-2.3-16.5-2-28.8-1.1-37.3
	c4.5,9.8,11.6,23.3,20.5,34.8c18.4,23.9,1.8,50.5,1.1,51.6l8.4,5.4c0.2-0.3,5.4-8.5,7.9-20.2c3.3-15.8,0-30.6-9.4-42.9
	c-10.7-13.9-18.8-31.4-22.5-40.2c3.9,0.5,9.8,1.1,16.7,1.4c17.7,0.7,29.8-1.3,36.2-6c2.9-2.2,8.9-8.4,3-19.4
	C747.5,1254.8,743.9,1251.9,739.3,1250.5z M628.6,1291c-1.9-0.6-3.1-1.7-4.1-3.6c-1.7-3.4-2-5.9-0.8-7.4c2.8-3.7,11.8-5.1,22.8-5.1
	c7.4,0,15.7,0.6,23.8,1.7C653.6,1285.4,636.9,1293.5,628.6,1291z M741.7,1269.7c-5.1,6.4-31.3,5.4-45.3,3.8
	c16-8.5,31.8-15.8,40-13.4c2,0.6,3.4,1.8,4.5,3.8C743.1,1267.9,742,1269.2,741.7,1269.7z"/>
<path class="st1" d="M370,718.1c37.2,34.8,7.3,34.1,7.3,34.1c-6.4,22.3-39.2,11.6-39.2,11.6c-23.1,22.5-15.1-19.9-12-33.5
	C197.6,753.1,66.7,667.3,25.5,528c-44-148.7,30.9-302.1,167.4-342.5s282.9,47.4,326.9,196.1C561.9,523.8,495.3,670.2,370,718.1z"/>
<path class="st2" d="M461.8,493.2c-0.7,0-1.4,0-2.1-0.1c-11-1.1-19-10.9-17.9-21.9c5.9-57.5-9-105.4-44.2-142.5
	c-25.9-27.2-53.7-38.3-54-38.4c-10.3-3.9-15.5-15.5-11.5-25.8c3.9-10.3,15.5-15.5,25.8-11.5c1.5,0.6,36.3,14.1,68.7,48.2
	c30,31.5,63.9,87.4,55,174.1C480.7,485.6,472,493.2,461.8,493.2z"/>
<path class="st2" d="M434.1,573c-3.4,0-6.8-0.9-10-2.7c-9.6-5.5-12.9-17.7-7.3-27.3l2.5-4.4c5.5-9.6,17.7-12.9,27.3-7.3
	c9.6,5.5,12.9,17.7,7.3,27.3l-2.5,4.4C447.8,569.4,441.1,573,434.1,573z"/>
<path class="st3" d="M892.8,310.1c-9.7,148-122.9,262.3-256.9,263.9c22.8,45.5-4.9,34.5-4.9,34.5c-13.7,18.7-40.8-2.7-40.8-2.7
	c-29.5,13.1-7.3-23.8,0.3-35.6c-128.5-23-221.6-148.8-212.2-293.7C388.5,121.7,511.8,3.7,653.9,13S902.9,155.3,892.8,310.1z"/>
<path class="st2" d="M806.7,396.1c-2.9,0-5.9-0.7-8.8-2c-9.9-4.9-14-16.8-9.2-26.8c25.4-51.9,28-102,7.8-149
	c-14.8-34.5-37.1-54.5-37.4-54.7c-8.3-7.3-9.2-19.9-1.9-28.2s19.9-9.2,28.2-1.9c1.2,1,29.1,25.8,47.8,69
	c17.2,40,29.7,104.1-8.6,182.4C821.2,391.9,814.1,396.1,806.7,396.1z"/>
<path class="st2" d="M753.2,461.3c-5.7,0-11.4-2.4-15.4-7.2c-7.1-8.5-5.9-21.1,2.6-28.2l3.9-3.2c8.5-7.1,21.1-5.9,28.2,2.6
	c7.1,8.5,5.9,21.1-2.6,28.2l-3.9,3.2C762.2,459.8,757.7,461.3,753.2,461.3z"/>
<path class="st4" d="M1112.3,499.7c-43.5,141.8-180,226.9-310.8,197.7c11.7,49.5-12.7,32.4-12.7,32.4c-17.6,15-39.1-12-39.1-12
	c-31.7,6-1.6-24.9,8.5-34.6c-119.7-52.1-181.3-196-138.7-334.8C665,200.2,812.2,113.8,948.3,155.5
	C1084.4,197.3,1157.8,351.4,1112.3,499.7z"/>
<path class="st2" d="M1013.4,564c-4.5,0-9-1.5-12.7-4.5c-8.5-7-9.8-19.6-2.8-28.1c36.3-44.2,50.4-91.8,42.2-141.6
	c-6.3-37.9-23.9-63.3-24.1-63.5c-6.4-9-4.3-21.4,4.7-27.9c9-6.4,21.5-4.3,27.9,4.7c0.9,1.3,22.4,31.8,30.6,78.2
	c7.6,42.9,4.9,108.1-50.4,175.5C1024.9,561.5,1019.2,564,1013.4,564z"/>
<path class="st2" d="M946.3,615.2c-7.3,0-14.4-4.1-17.9-11.1c-4.9-9.9-0.9-21.9,9-26.8l4.5-2.3c9.9-4.9,21.9-0.9,26.8,9
	c4.9,9.9,0.9,21.9-9,26.8l-4.5,2.3C952.3,614.5,949.3,615.2,946.3,615.2z"/>
<path class="st5" d="M611.4,798.1c40.1,31.4,10.3,33.3,10.3,33.3c-4.4,22.8-38,15-38,15c-21,24.5-16.8-18.4-15-32.3
	c-126,34-264-39.9-317.4-174.9c-57-144.3,4.1-303.6,136.5-356s286,22.2,343,166.5C785.4,587.5,731.9,739.2,611.4,798.1z"/>
<path class="st2" d="M681.2,566c-0.1,0-0.2,0-0.3,0c-11-0.1-19.9-9.2-19.7-20.3c0.8-57.8-18.3-104.2-56.6-138
	c-28.2-24.8-56.9-33.4-57.2-33.5c-10.6-3-16.8-14.1-13.8-24.7s14.1-16.8,24.7-13.8c1.5,0.4,37.4,10.8,72.7,42
	c32.7,28.8,71.3,81.4,70.2,168.5C701,557.2,692.1,566,681.2,566z"/>
<path class="st2" d="M660.7,647.9c-2.8,0-5.7-0.6-8.4-1.9c-10-4.6-14.4-16.5-9.7-26.6l2.1-4.6c4.6-10,16.5-14.4,26.6-9.7
	c10,4.6,14.4,16.5,9.7,26.6l-2.1,4.6C675.4,643.6,668.2,647.9,660.7,647.9z"/>
</svg>
