<?xml version="1.0" encoding="utf-8"?>
<!-- Generator: Adobe Illustrator 27.7.0, SVG Export Plug-In . SVG Version: 6.00 Build 0)  -->
<svg version="1.1" id="레이어_1" xmlns="http://www.w3.org/2000/svg" xmlns:xlink="http://www.w3.org/1999/xlink" x="0px"
	 y="0px" width="443.2px" height="550.5px" viewBox="0 0 443.2 550.5" style="enable-background:new 0 0 443.2 550.5;"
	 xml:space="preserve">
<style type="text/css">
	.st0{fill:#333333;}
	.st1{fill:#FFFFFF;}
	.st2{fill:#FFEC5F;}
	.st3{opacity:0.7;fill:#FFFFFF;enable-background:new    ;}
	.st4{fill:#FFDDD4;}
	.st5{fill:#231815;}
</style>
<g>
	<path class="st0" d="M284.9,123.4c0,0-7.5,8-4,18.1c0,0-8.3,10.7,5.7,22.2c0,0-11.5,3.3-34.4,3.3s-37.8-3.1-48.7-7.6v-41.6
		c0,0,1.4-5.2,3.3-9.9c1.9-4.6,17.5-37.1,6.2-72.2c-0.2-0.5,0.3-0.9,0.7-0.8c-0.5-0.1-0.8-0.2-1.1-0.3c-0.5-0.2-1-0.6-1.1-1.1
		c-1.1-3.7-4-7.6-5.6-9.5c-0.6-0.7-0.5-1.8,0.2-2.4c3.3-2.9,14.3-9.9,43.8-9.9c35.8,0,50.9,7.3,49.9,13.8
		c-1,6.3-13.8,13.4-42.6,13.8c0.1,0,0.1,0,0.2,0c27.6,0,38.4-6.5,41.6-10.4c0.3-0.4,0.9-0.1,0.9,0.3v77.2L284.9,123.4z"/>
	<path class="st1" d="M205.1,160.5c0,0,16.1,6.5,43.7,6.5s37.8-3.3,37.8-3.3c4.7,4.2,10.4,5.2,10.4,5.2l10.3,4.7c0,0-9,4.9-26,14.4
		s-14.9,19-14.9,19c-4.5,2.9-11.9,9.4-5.9,23.1c6,13.7,22.1,10.7,22.1,10.7c4.1,4.3,14.3,4.5,14.3,4.5s-3.5,0.9-14.5,7.2
		s-10.3,12.1-10.3,12.1l-5.3,3.8c-4.1,3-8.7,9.5-3.2,22s21.8,10.7,21.8,10.7l-12.2,5.1c-6.9,3-7.5,8.2-6.3,15.4
		c1.2,7.1,9.8,10.2,9.8,10.2l1.9,2.3c8.5,9,20.7,7.9,20.7,7.9c14.1,0.6,31.1-2,31.1-2v13c0,0,0.5,7.4-20,18.7
		c-20.4,11.3-44.1,11.1-44.1,11.1s-11,2.2-43.2-1.6c-32.2-3.9-47.5-23.4-47.5-23.4c12.7-39.7-2.4-116.8-2.4-116.8v-52.4
		c0-13.7,30.2-27.4,30.2-27.4L205.1,160.5z"/>
	<path class="st2" d="M282.9,160.1c-6-6.5-5.6-16.3,0.9-22.3c14.3-13.3,35.2-27.5,47.8-15.5c10.7,10.3-2,26.1-7,30.8
		s-21.8,24.6-38.1,10.5C285.1,162.4,283.9,161.3,282.9,160.1z M325.8,265.5c6.4,20.3-9.5,25.4-9.5,25.4s-11.9,5.6-24,8.8
		c-3.1,0.8-6,1.3-8.5,1.4c1.1,0.1,1.7,0,1.7,0l-9.1,3.8c1.4-0.5,3.1-0.9,5-1.3l4.1-0.5c0,0,3.4,2.3,7.3,2.9
		c10.2,1.7,23.8-0.7,23.8-0.7s3.8,2.7,2.6,11.5c-1.7,13.6-27,15.2-31.6,15.8c-1.8,0.2-3.7,0.3-5.5,0.2v0.1c0,0-0.5,0-1.3-0.2
		c-1.5-0.2-2.9-0.5-4.3-0.9c0.2,0.1,0.3,0.1,0.3,0.1c8.3,10.9,25.2,10.4,25.2,10.4c-13,9.2-46.3,9.7-46.3,9.7
		c-62.1,0-74.6-22.8-74.6-22.8V189.5c9-16.1,27.4-20.2,27.4-20.2s11.9,7.4,44,7.4s41.8-7.8,41.8-7.8l11.6,5.5l-31.6,18.5
		c-9.7,7-8,14-8,14.1c0.3-0.2,0.5-0.4,0.5-0.4l0,0c9.4-6.6,24.3-10.5,33.8-12.3c15.3-2.9,20.4,11.8,20.4,11.8
		c7.3,21-19.5,30.2-31.1,33.3c-3.3,0.9-6.3,1.4-9.1,1.6c0.1,0,0.1,0.1,0.1,0.1c4.7,4.3,15.9,4.4,15.9,4.4s-8,3.6-16.5,8.5
		c-8.5,4.8-6.9,10.1-6.9,10.1l0,0c9-4.8,21.1-7.1,29.3-8.9C322,250.7,325.8,265.5,325.8,265.5z M263,234.1c-0.9-1.1-1.7-2.3-2.3-3.6
		c0.7,1.4,1.5,2.6,2.4,3.7C263,234.2,263,234.1,263,234.1z M266.1,207.1c-0.2,0.1-0.4,0.3-0.5,0.4
		C265.7,207.4,265.9,207.3,266.1,207.1C266,207.2,266.1,207.2,266.1,207.1z M261.8,211c1-1.1,2.1-2.2,3.4-3.2
		C263.9,208.9,262.8,209.9,261.8,211z M260.4,230.1C260.5,230.1,260.5,230.1,260.4,230.1c-1.2-2.5-2-5.3-2.3-8
		c-0.1-0.8-0.1-1.6-0.1-2.3C257.5,225.5,260.4,230.1,260.4,230.1z M261.3,282.1c-0.5-5.7,1.7-10.1,5.5-13.6
		C263.5,271.1,260.6,275.5,261.3,282.1z M261.4,283.5c0,0.1,0,0.1,0,0.2C261.4,283.6,261.4,283.6,261.4,283.5z M273.8,306
		c-4.1,1.4-6.3,4-7,7.6C267.5,310.8,269.4,308.1,273.8,306z M164.7,7.3c-3.7,14.9-13.2,55-13.2,55c15.2-1.8,25.6-28.1,25.6-40.7
		c0-9.7-1.8-13.6-4.6-16.3C170,2.8,165.5,3.9,164.7,7.3z"/>
	<path class="st3" d="M177.3,188.6c0,0,30.8,2.6,44.7,8.7c0.3,0.1,0.2,0.6-0.1,0.6c-5.5,0.1-28.7,0.2-44.6-8.6
		C176.9,189,177.3,188.6,177.3,188.6z M258.7,199.4c3.3-1.2,2.4-1.7-0.7-3.6c-3.1-1.8-15.7,1.9-15.6,2.1
		C244.2,200.6,255.5,200.6,258.7,199.4z"/>
	<path class="st4" d="M2.9,492.4c0,0,42-119.7,48.4-176.1c7.6-67,28-93.4,55.9-155.6c18.5-41.2,34.8-72.9,44.6-99.2
		c0,0,16.4-0.9,21.9-23.7c4.2-17.4,2.4-25.6,1.4-28.6c-0.3-0.7,0.2-1.5,0.9-1.6c4.8-0.8,11,0.6,19,6c28,18.9,27.4,76.2,8.4,99.8
		c0,0-1.8,33.3-16,56c0,0-14.3,9.2-14.3,19.3c0,10,0,54.3,0,54.3s12.3,52.7,7.9,86.2s-5.5,28.7-5.5,28.7s14.7,25.6,83.5,25.6
		c0,0,60.3-1.2,71.4-30.4v-13c0,0-42.3,8.5-51.8-5.9c0,0,19.6-0.1,28.4-5.5c8.9-5.4,13.4-9.4,10.6-21.9l-1.2-1.4
		c0,0-26,3.4-31.1-2.2v-2c0,0,47-5.4,41.7-29.4c0,0-3.3-18.5-20.1-17.5c-16.7,1-36.3,10.5-36.3,10.5s8.4-14.1,26.1-19.5
		c0,0-10.4-0.4-12.4-2.4l1.2-2.6c0,0,43.9-7.6,35.3-32.5c0,0-3.6-18.5-22.5-13.1L264,208.5c0,0,0.7-12.8,19.2-21
		c18.6-8.1,41.8-23.8,41.8-23.8s-15.3,5.8-15.6,2.4c0,0,22.1-14.9,23.6-27.1c0,0,5.8-7.6-0.2-15.1c0,0-10.5-10.7-23.4-3.7
		c-13,7-27.6,20.3-27.6,20.3s-4.9-7.5,2.8-17.2c7.7-9.8,16.6-18.9,16.6-18.9l-1.8-11c0,0,30.2-19.5,51.9-6.3
		c32.3,20.7,10.4,52.8,10.4,52.8s38-16,55.9,22.6c0,0,13,27.3-12,47.2c0,0,22.6-3.3,28.7,19.8c9.4,35.5-35.2,48.2-35.2,48.2
		s18.5,15.9,16.5,40.5c-2,24.5-45.9,57.5-85.9,79.2s-110.9,33.1-128.8,51s-31,93.4-31,93.4"/>
	<path class="st5" d="M437,228.9c-4.4-16.7-16.9-20.7-24.7-21.6c19.6-20.3,8-45.5,7.8-45.8c-14.3-30.8-41-28.6-53-25.8
		c2.8-5.9,6.1-15.8,4-26.4c-2-9.7-8.1-17.9-18.1-24.3c-13.3-8.5-29.9-7.2-50.7,4.1V29.2c0-0.6-0.2-1.2-0.5-1.7
		c0.2-0.5,0.4-1.1,0.4-1.6c0.2-1.4,0.1-3.6-1.9-5.9c-5.9-6.8-24.2-10.8-50.4-10.8c-28.7,0-40.6,6.6-44.8,10c-2.5-3-5.4-5.6-8.5-7.7
		c-1.4-1-2.9-1.8-4.2-2.6l0,0c-2.9-1.7-5.6-2.8-8.2-3.3c-3-0.7-5.8-0.9-8.4-0.5c-0.4-0.5-0.9-1-1.3-1.5c-1.8-1.8-4.6-2.5-7.1-1.8
		s-4.3,2.6-4.9,5c-3.5,14.3-12.6,52.6-13.2,54.9c-6.2,16.3-14.8,34.9-25.1,56.7c-5.8,12.3-12.4,26.3-19.1,41.3
		C98.4,174,92.2,186.8,86.8,198c-18.6,38.4-32.1,66.1-38,117.9C42.8,368.2,5.7,476.6,1,490.2c-0.3,0.8,0.1,1.6,0.9,1.9l1.9,0.7
		c0.8,0.3,1.6-0.1,1.9-0.9c4.7-13.7,42-122.5,48-175.3c5.8-51,19.1-78.4,37.5-116.3c5.5-11.3,11.7-24.1,18.2-38.5
		c6.7-14.9,13.3-28.9,19-41.2c10-21.4,18.6-39.7,24.8-55.9c16.1-3.4,26.3-29.7,26.3-42.9c0-4.8-0.4-8.6-1.4-11.6
		c1.4-0.1,2.8-0.1,4.5,0.3c2.2,0.5,4.5,1.5,7,2.8l0,0c4.8,2.9,9.9,7,14.2,12.9c4.7,7,8.1,16.1,9.7,26.7c0.5,3.2,0.8,6.5,1.1,9.8
		c0,11.2-2,24.3-7.8,39.1c-0.3,0.8-0.7,1.6-1,2.4c-0.4,1-0.8,2-1.2,2.9c0,0.1,0,0.1-0.1,0.2c-0.2,0.5-0.4,1-0.6,1.6
		c-1.1,2.7-2,5.4-2.8,8.4c0,0.1-0.1,0.2-0.1,0.2l-0.1,0.3v0.1c-0.2,0.9-0.4,1.9-0.6,2.9c-2.8,15.9-8.5,36.6-14.3,46.6
		c-0.2,0.3-0.4,0.7-0.6,1l-0.8,1.2c-7.3,5.3-13.9,12.2-13.9,19.4v36c-0.5-0.3-1.2-0.4-1.9-0.3c-1.3,0.3-2.1,1.7-1.8,3
		c0.1,0.5,7.2,28.8,10,61.9c0.9,11.3,1.4,23.5,0.9,35.1c-0.5,11.5-2,22.6-4.9,32.4l-0.3,1.1l0,0c-1.5,4.8-3.3,9.3-5.5,13.4
		c-0.7,1.2-0.2,2.7,1,3.4c0.4,0.2,0.8,0.3,1.2,0.3c0.9,0,1.7-0.5,2.2-1.3c2-3.5,3.6-7.4,5-11.5c6,6,21.1,18,46.1,21
		c15,1.8,25.5,2.3,32.5,2.3c6.9,0,10.3-0.5,11.3-0.6c2.7,0,25.2-0.5,45.1-11.4c20.3-11.2,21.3-19.2,21.3-20.9v-10.7
		c26.8-3.7,41.6-9.6,43.2-11.1c1-0.9,1-2.5,0.1-3.5s-2.4-1-3.4-0.2c-1.5,1-14.7,6.3-39.9,9.8v-0.1l-2.9,0.4l0,0
		c-5,0.6-10.4,1.2-16.2,1.6c-1.4,0.1-2.9,0.2-4.3,0.3c-3,0.1-6.1,0.2-9,0.1c-6.1-0.3-11.8-1.4-16.3-4.3c1.3,0,2.5-0.1,3.8-0.2
		c0.3,0,0.8-0.1,1.4-0.2c7.6-0.8,30.5-3.3,32.4-17.8c0.6-5-0.1-8.4-1.2-10.5c6.5-1.6,12.7-3.7,18.1-5.5c1.6-0.5,3.3-1.1,5.1-1.7
		c1.2-0.4,2.4-0.8,3.5-1.1c7.9-2.3,18.1-5.7,27.5-9c0.7-0.2,1.4-0.5,2.2-0.8l0,0c10-3.5,18.6-6.8,21.9-8
		c3.7,3.7,16.2,17.8,14.6,37.4c-1.8,22.6-43.8,55.1-84.6,77.2c-18.3,10-43,17.6-66.8,25c-28.2,8.8-52.5,16.3-62.6,26.4
		c-18.3,18.3-31.1,91.6-31.7,94.7l4.9,0.8c0.1-0.7,13.1-74.9,30.3-92c9.2-9.2,34.1-16.9,60.5-25.1c24.1-7.5,49-15.2,67.7-25.4
		c38.9-21.1,85.1-55.1,87.2-81.2c1.6-19.6-9-33.8-14.4-39.6C415,274.5,445.2,259.7,437,228.9z M415.6,163.6c0.5,1,11.7,25.6-11,43.9
		c-2.2,0.8-13.1,4.6-26.4,9.4l0,0c0,0-0.1,0-0.3,0.1c-21,7.5-48.2,17.3-57.6,21.1c-0.2,0.1-0.5,0.2-0.7,0.3c-0.1,0-0.2,0.1-0.3,0.1
		c-10.9,4.2-19.8,4.4-19.9,4.4h-0.3l-0.2,0.1h-2c-1.4,0-4.1-0.3-6.8-1c0.1,0,0.3-0.1,0.4-0.1c11.5-3.1,26.3-9.1,31.9-19.7
		c2.7-5.1,3-10.8,0.9-16.9c-2-5.8-9.5-16-23.3-13.4c-7.6,1.4-20.4,4.5-30.3,10c0.5-1,1.2-2.2,2.2-3.5c2.8-3,6.3-5.6,10-7.9
		c0.1-0.1,0.2-0.1,0.4-0.2c14.3-7.9,22.8-12.6,25.2-14c9.4-5.2,18.6-10.2,23.9-13.1c14.3-7.3,28.4-18.4,31.6-21
		C366.9,140.6,399.5,129,415.6,163.6z M255.7,350.4c-46.7-0.9-64.9-13.2-71.1-19.4c-0.8-0.9-1.4-1.5-1.7-2
		c0.8-11.5,0.5-23.3-0.3-34.7V189.9c7.8-13.5,22.6-18.2,25.7-19c2.8,1.5,15.5,7.3,44.2,7.3c27,0,38.5-5.5,41.7-7.4
		c0.5,0.2,0.9,0.3,1.3,0.4l6,2.8c-3,1.6-5.9,3.3-8.7,4.8c-1.2,0.7-2.5,1.3-3.8,2.1c-2.6,1.4-5.6,3-8.6,4.8c-0.1,0.1-0.2,0.1-0.4,0.2
		c-6.9,3.8-10.9,7.7-13.2,11.2c-2.3,3-4.1,6.3-4.9,10.2c-2.3,2-4,4.3-5,6.8c-1.2,2.5-1.6,5.3-1.3,8.4c0.4,3.2,1.2,6.1,2.5,8.7l0,0
		c4.6,10.6,15.1,12.8,21.9,12.5c2.5,1.4,5.2,2.4,7.9,3.1c-1,0.5-2.1,1.1-3.3,1.7c-0.7,0.4-1.4,0.8-2.2,1.2c-0.4,0-0.8,0-1.2,0
		c-1.1,0-2.1,0-3,0c-1,0-1.7,0-2.2-0.1v1.8c0.8,0,1.4,0,1.8,0.1s0.8,0.2,1,0.4c-0.9,0.6-1.8,1.2-2.5,1.8c-1.9,1.4-3.7,3.1-5.3,4.8
		v-4c0-0.7,0-1.3,0.1-1.7s0.2-0.7,0.4-0.9c0.2-0.2,0.6-0.3,1-0.4s1.1-0.1,1.8-0.1v-1.7c-0.4,0-0.8,0-1.4,0s-1.2,0-1.9,0
		c-0.7,0-1.4,0-2.1,0s-1.4,0-2.1,0s-1.3,0-1.9,0s-1,0-1.4-0.1v1.8c0.8,0,1.4,0,1.9,0.1s0.8,0.2,1,0.4s0.4,0.5,0.4,0.9
		c0.1,0.4,0.1,1,0.1,1.7v9.8c0,0.1-0.1,0.2-0.1,0.2c-0.1,0.3-0.3,0.6-0.4,0.9c-0.6,0.5-1.2,1-1.7,1.5c-1.8,1.5-3.8,3.7-5.1,6.9
		c-0.2-0.2-0.4-0.5-0.5-0.7c-0.2-0.4-0.5-1-0.7-1.7l-7.7-22.9h-2l-7.9,22.8c-0.3,0.7-0.5,1.3-0.7,1.7c-0.2,0.4-0.4,0.7-0.7,1
		c-0.2,0.3-0.6,0.5-1,0.6s-0.9,0.2-1.6,0.2v1.8c0.7,0,1.4,0,2.2,0s1.6,0,2.5,0c0.8,0,1.6,0,2.4,0c0.8,0,1.5,0,2.2,0v-1.7
		c-0.8,0-1.4-0.1-1.8-0.2c-0.4-0.2-0.7-0.4-0.9-0.6c-0.1-0.3-0.2-0.6-0.1-1c0-0.4,0.2-0.9,0.4-1.5l1.7-5h7.8l1.6,4.9
		c0.2,0.8,0.4,1.3,0.5,1.8s0,0.8-0.1,1s-0.4,0.3-0.8,0.4c-0.4,0.1-1,0.1-1.8,0.1v1.7c0.6,0,1.4,0,2.3,0s1.8,0,2.7,0
		c0.4,0,0.8,0,1.2,0c-0.3,1.7-0.4,3.7-0.2,5.9c0.1,0.8,0.2,1.6,0.3,2.4c0.4,2.2,1.1,4.2,2,6.1c0.1,0.2,0.2,0.4,0.2,0.6
		c1.8,4.2,4.6,6.9,7.7,8.8c0,0,0.1,0,0.1,0.1c1.8,1.1,3.8,2,5.9,2.5c-0.8,0.3-1.6,0.6-2.4,1l-0.5,0.2c-5.2,2.3-7.3,5.7-8,9.6
		c-0.7,3.3-0.2,6.3,0.2,8c0,0.2,0.1,0.4,0.1,0.6v0.1c0.2,1,0.5,1.9,0.9,2.8c1.8,4.4,5.4,7.3,9.8,8.8c1.6,2.1,3.4,3.9,5.5,5.3
		c4.7,3.4,9.8,4.7,13.5,5.2c-5.3,2-12.9,3.5-19.8,4.6C264.6,350.2,256.3,350.4,255.7,350.4z M257.2,41.7c23.3,0,34.6-4.5,40-8.1
		v71.8c-2.9,3.2-7.2,8.1-13.1,14.9c-0.4,0.5-0.8,0.9-1.1,1.4c-0.9,1-7.7,9-4.8,19.3c-1.5,2.7-4.3,9.5,0.5,17.4c0.6,1,1.2,1.9,2,2.8
		l0.1,0.1c0.1,0.1,0.2,0.3,0.3,0.4c0.1,0.1,0.1,0.1,0.2,0.2c0.1,0.1,0.1,0.2,0.2,0.2c-1.4,0.3-3.2,0.5-5.3,0.8
		c-5.9,0.7-14.7,1.4-27.2,1.4c-17.6-0.2-31.7-2.4-43-6.7V118c0.3-1,1.2-4,2.3-7.1c7.5-11.6,11.6-28.6,11.3-46
		c0.1-4.9-0.1-9.5-0.6-13.7c-0.6-4.9-1.5-9.3-2.6-13.2c6.5,1.5,19,3.6,38.6,3.6c0.7,0,1.4,0,2.1,0C257.1,41.7,257.1,41.7,257.2,41.7
		z M283.5,238.1L283.5,238.1l-1.3,0.2c-5.7,0.6-10.4-0.3-14-2.7c-2.7-1.8-4.4-4.2-5.6-6.7c-2-4.8-2.5-8.8-1.4-12.3
		c1.1-2.8,3.5-5.4,6.6-7.7l1.3-0.7v-0.1c7.9-5.2,20.1-9.1,32-11.4c1.2-0.2,2.3-0.3,3.4-0.3c10.3,0,14,10,14.2,10.5
		c1.7,4.8,1.5,9-0.6,12.9c-4.8,9-18.3,14.4-28.8,17.2C287.3,237.5,285.4,237.9,283.5,238.1z M307.1,170.8l-1.7-0.8
		c0.8-0.3,1.6-0.6,2.4-0.9c0.6,0.1,1.2,0.2,1.9,0.3C308.8,169.9,308,170.3,307.1,170.8z M288.2,161.8L288.2,161.8l-1.1-1l0,0
		c-0.8-0.7-1.5-1.4-2.2-2.2c-0.8-0.9-1.5-1.8-2-2.7c-2.4-4.1-2.4-9.1,0-13.2l0.7-0.9v-0.1c0.5-0.8,1.2-1.5,1.9-2.2
		c8.7-8.1,23-19.4,34.5-19.4c3.6,0,7,1.1,9.8,3.8c2.3,2.2,3.4,4.8,3.4,7.8c0,7.6-6.8,16-10.4,19.3c-0.5,0.4-1,1-1.7,1.6
		C311.3,162.8,299.7,171.6,288.2,161.8z M200.9,159.6c-1.6,0.8-4.2,2.1-7.3,3.8c3.2-6.5,5.5-13.4,7.3-19.9V159.6z M248.8,169.5
		c0.1,0,0.1,0,0.2,0c1,0,2.1,0,3.1,0c11.7,0,20.5-0.9,26.3-1.7c3.7-0.5,6.1-1,7.5-1.4c1.5,1.2,3.1,2.1,4.5,2.8
		c-4.8,2.2-16.1,5.9-38.1,5.9c-25.5,0-38.1-4.7-41.9-6.5l1.2-3.6C219.1,167,231.8,169.5,248.8,169.5z M252.7,264.8h-6.5l3.3-9.5
		L252.7,264.8z M291.6,297.3c-3.3,0.9-6.3,1.3-9.1,1.4l0,0l0,0c-0.6,0-1.2,0-1.8,0c-2.9-0.3-6.8-1.1-10.1-3.4
		c-2.1-1.6-3.5-3.6-4.6-5.6c0-0.1-0.1-0.1-0.1-0.2c-1.3-3-2-5.7-2.2-8.2c-0.2-4.3,1.5-7.8,4.5-10.7l0.1-0.1l5.3-3.8l1.4-0.6V266
		c6.9-3.5,16.3-5.9,25.8-8l2.6-0.6c2.2-0.5,4.2-0.7,5.9-0.7c11.4,0,14,9,14.1,9.5v0.1c5.6,17.6-7.4,22-7.9,22.2l-0.3,0.1
		C315,288.7,303.3,294.2,291.6,297.3z M350.2,89.2c8.9,5.7,14.2,12.8,15.9,21.1c2.7,13.3-4.8,25.9-6.1,27.9
		c-5.5,4.4-15.8,12-26.1,17.9c0,0,0,0-0.1,0s-1.5,0.8-4,2.2c-4.6,2.4-9.1,4.4-13.1,5.4c3.4-2.6,6.1-5.4,8-7.2
		c0.6-0.6,1.1-1.1,1.6-1.5c4.4-4.2,11.9-13.7,11.9-23c0-4.5-1.6-8.3-4.9-11.5c-10.8-10.4-28.8-5-50.6,15c0.2-3.6,1.6-7.1,4.1-10.5
		l14.7-16.9c2.9-3.1,3.7-3.9,3.8-4c1-0.8,1.3-2.4,0.5-3.4c-0.8-1.1-2.4-1.3-3.5-0.5l-0.1,0.1V95C319.4,85.1,336.6,80.5,350.2,89.2z
		 M249.8,14.2c28.7,0,43.1,4.9,46.6,9c0.6,0.7,0.8,1.3,0.8,1.9c-0.7,4.6-12,11.3-40.1,11.6c-25.4,0-39-3.2-42.6-4.2c0,0,0,0-0.1,0
		c-0.2-0.1-0.5-0.1-0.6-0.2c-1.2-3.6-3.8-7.2-5.5-9.3C211.5,20.4,222.3,14.2,249.8,14.2z M154.9,58.8c2.5-10.6,9.3-39,12.2-50.9
		c0.2-1,1.1-1.3,1.4-1.4c0.8-0.2,1.7,0,2.2,0.6c1.9,1.9,3.9,4.7,3.9,14.5C174.6,32.4,166.3,53.7,154.9,58.8z M175.8,188.6
		c0-9.9,20.7-21.5,28.7-25.1l0.7-0.3c0.8,0.3,2,0.7,3.6,1.2l-1.2,3.7c-3.2,0.8-19.3,5.7-27.8,20.8l-0.2,0.3v75.9
		c-1.7-13.1-3.5-22.5-3.9-24.4L175.8,188.6L175.8,188.6z M327.9,353.1L327.9,353.1L327.9,353.1c-0.1,0.8-1.7,7.1-18.7,16.5
		c-19.6,10.8-42.7,10.8-42.9,10.8h-0.5c-0.1,0-11.3,2.1-42.4-1.7c-26.7-3.2-41.5-17.6-45-21.5c2.1-7.1,3.4-15.2,4.1-23.8
		c0.1,0.1,0.2,0.2,0.3,0.3c6.6,6.7,25.6,19.7,72.8,19.7l0,0c1.8,0,3.6,0.1,5.4,0.1h0.1h0.1c0.5,0,5.7-0.5,12.2-1.4
		c9.3-1.2,20.2-3.3,27.3-7.4c0.9,0,1.7,0,2.6,0c2.5,0,5-0.1,7.2-0.3c7.2-0.3,13.8-1.1,17.4-1.5L327.9,353.1L327.9,353.1z
		 M315.5,308.1c0.7,1.1,1.7,3.6,1.1,8.5c-0.9,7-10.3,11.5-28,13.4c-0.6,0.1-1.1,0.1-1.5,0.2c-3.1,0.4-6.6,0.3-9.7-0.7
		c-0.3-0.1-5.5-2.1-7.5-6.2c-0.1-0.2-0.2-0.4-0.3-0.7c0,0,0,0,0-0.1c-0.2-0.4-0.3-0.9-0.4-1.4c-0.5-2.7-0.6-4.8-0.3-6.5
		c0.5-2.2,1.9-4.3,5-6c0,0,0.1,0,0.1-0.1l3.1-1.3c1.3-0.4,2.7-0.8,4.3-1.1l2.2-0.3c1.7,0.9,4.1,1.8,7.1,2.4c0.4,0.1,0.8,0.2,1.3,0.3
		c0.2,0,0.4,0.1,0.6,0.1c1.5,0.2,3.2,0.4,5.1,0.5c1.1,0.1,2.2,0.1,3.3,0.1c2.1,0,4.2-0.1,6.3-0.3C311,308.7,313.9,308.3,315.5,308.1
		z M398.6,275.3l-4.4,1.3l0.3,0.3c-4.6,1.7-12.6,4.7-21.5,7.8c-3.4,1.2-6.7,2.2-10.7,3.5c-5,1.6-11.3,3.6-20.1,6.6h-0.1
		c-1.5,0.5-3.2,1-4.9,1.6c-0.1,0-0.1,0-0.2,0.1c-14.2,4.6-22.8,6.3-22.9,6.4c-3.9,0.8-7.3,1.2-10.3,1.4c-2,0.1-4,0.1-6,0
		c-2.5-0.2-5-0.7-7.4-1.4c0.8-0.2,1.7-0.4,2.6-0.6c11.6-3.1,22.9-8.2,24.3-8.9c1.1-0.4,7.1-2.8,10.4-9.1c2.8-5.3,2.9-11.8,0.6-19.3
		c-0.5-1.6-5.6-16.8-25.9-12.2l-2.5,0.6c-6.5,1.4-14.8,3.2-22.2,6.2c0.5-0.5,1.1-1,1.7-1.6c1.5-1.1,3-2.1,4.5-3.1
		c0.9-0.5,1.7-1,2.5-1.4c6.3-3.4,12.3-5.1,13.5-5.4h0.1c0.2,0,0.5,0,0.9,0c8-0.5,15.5-2.8,20.5-4.8c11.2-4.3,54-19.8,58.2-21.3
		c13.8-4.9,25.1-8.9,26.9-9.5c2.3-0.3,20.5-1.7,25.7,18C440.8,262.8,400.4,274.8,398.6,275.3z M252.1,371.6c0,0-19,3.7-31.3-1.2
		c-12.3-4.9-20.1-4.8-30.2-13.3c-10.2-8.6-6.9-6.5-6.9-6.5s21.3,14.9,43.2,16.1C248.8,367.9,252.1,371.6,252.1,371.6z M323.5,348.9
		c0.5,0.9-4,8.6-9.5,10.9c-5.4,2.3-15.9,6.9-23.3,6c-0.1,0-0.1-0.2,0-0.2c2.5-0.7,14-4.2,19.4-8.9
		C316.2,351.4,323.1,348,323.5,348.9z M234.1,249.6c0.9-0.1,1.6-0.1,2.1-0.1v1.7c-0.8,0-1.4,0-1.9,0.1c-0.4,0-0.8,0.2-1,0.4
		s-0.4,0.6-0.4,1c-0.1,0.4-0.1,1-0.1,1.8v22.4h-2.3l-17.2-21.3v16c0,0.8,0,1.4,0.1,1.8c0.1,0.5,0.3,0.8,0.5,1s0.5,0.4,1,0.4
		c0.4,0.1,1,0.1,1.8,0.1v1.7c-0.6,0-1.4,0-2.3,0c-0.9,0-1.8,0-2.7,0s-1.8,0-2.7,0c-0.9,0.1-1.6,0.1-2.3,0.1V275c0.8,0,1.5,0,2-0.1
		c0.5,0,0.9-0.2,1.2-0.4c0.3-0.2,0.5-0.5,0.6-1s0.1-1.1,0.1-1.9v-17c0-0.6,0-1.2-0.2-1.6c-0.2-0.4-0.4-0.7-0.8-1
		c-0.3-0.3-0.8-0.5-1.4-0.6c-0.6-0.1-1.3-0.1-2.2-0.1v-1.7c0.4,0.1,0.9,0.1,1.5,0.1s1.3,0,1.9,0c0.6,0,1.2,0,1.8,0
		c0.5-0.1,1-0.1,1.3-0.1l17.4,21.1v-16.5c0-0.7,0-1.2-0.1-1.6c-0.1-0.4-0.3-0.7-0.5-0.9c-0.3-0.2-0.6-0.3-1.1-0.4
		c-0.5-0.1-1.1-0.1-1.9-0.1v-1.7c0.6,0.1,1.3,0.1,2.2,0.1s1.8,0,2.8,0S233.2,249.6,234.1,249.6z"/>
</g>
</svg>
