<?xml version="1.0" encoding="utf-8"?>
<!-- Generator: Adobe Illustrator 27.7.0, SVG Export Plug-In . SVG Version: 6.00 Build 0)  -->
<svg version="1.1" id="레이어_1" xmlns="http://www.w3.org/2000/svg" xmlns:xlink="http://www.w3.org/1999/xlink" x="0px"
	 y="0px" width="728.6px" height="1020.1px" viewBox="0 0 728.6 1020.1" style="enable-background:new 0 0 728.6 1020.1;"
	 xml:space="preserve">
<style type="text/css">
	.st0{fill:#435E1D;}
	.st1{fill:#FFC973;}
	.st2{fill:#231815;}
</style>
<g>
	<path class="st0" d="M711.6,954.2c-7.8,24.6-32.3,78.9-63.4,28.3c-10.5-17-44.6-79-85.3-153.6c0.2,0.6-0.6,1.1-1,0.5l-4.7-5.7
		L629,949.3c1.3,2.2-1.7,4.5-3.5,2.6L270.2,587.2c1.7-8.4,54.5-48.4,54.5-48.4L280,479.2c-0.4-0.6,0.3-1.3,0.9-0.8
		c38.1,32.7,90.8,10.6,96.5,8c0.3-0.1,0.6,0,0.8,0.3c-0.2-0.3-0.3-0.5-0.3-0.5s63.6,0.9,85.1-38.4L660.9,818L466.1,450.2l10.3-21.7
		c0,0,16.4-11.5,27.3-37.3l18,52.3L660.9,818l4.1,7.6l-5.1-10.4L521.6,443.5c0,0,44.7-3.6,74.3-24.5l108.4,481.3
		c0.2,0.7-0.3,1.2-0.8,1.4C709.7,918.2,716,940.3,711.6,954.2z"/>
	<path class="st1" d="M655.1,314.7c-7.1-62.7-42.5-134.2-77.7-143.1c0,0-37.5-6.5-41,32.7c-7-9.7-14.9-20.8-23.8-33.6
		c0,0-0.1,6-1.8,15.2c3.2-21.8,0-42.7-4.3-57.8c-10.9-38.8-55-112-86.4-114.7c-31.4-2.7-39.3,30.4-39.3,30.4
		c-12-14.5-56.2-60.9-73.5,19.6c0,0-37.5-16-51.3,2.5c-13.8,18.6-14.5,66.8-8.3,110.2c8.3,58.1,29.2,101.3,29.2,101.3l6.6,1.4
		c-6.2-1.3-28.5-4.9-43.2,3.7c3-1.8,14.1-7.8,24.4-6.6c0,0-21.8-32.3-62.1-63.5c44.2,32.9,62.1,63.5,62.1,63.5l12.2,1.4
		c-15.3-27.7-30.2-97.9-30.2-97.9s-70.2-61.4-100.8-53.6s-27.9,40-27.9,40c-13.3-5.6-35.9-12.9-48.8-4.5c-10.6,7-9,29.6-4.4,51.9
		c-0.1-0.3-0.4-0.6-0.8-0.6c-5-0.7-35.1-4.1-45.3,17c-11.1,23-2.6,61.7,28.7,117.3c17.1,30.4,45.2,54.9,77.3,63.2h-0.1
		c0,0,0.2,1.2,0.7,3.3c-0.5-2.1-0.7-3.3-0.7-3.3c-12.7-1.9-28.9-12.4-28.9-12.4c-60.7,33.1-10.4,142.9,61,186.2
		c57.4,34.7,103,6.3,118.7-6.2c0.9-0.7,0.4-1.9-0.4-2.1c0.6-0.3,1.2-0.5,1.8-0.8c0,0,27.8-15.4,47.9-35.9l-96.4-122
		c0.4,0.1,0.9,0.1,1.3,0.1c5.5,0,10.2-4.9,11.2-11.5c14.2,46.4,39.4,89.4,78,90.2c0,0,42.7,3.9,58.9-9.3c0,0-44.4,2.5-62.5-46.2
		c-6.1-16.5-11.9-38.8-16.7-61.6c3.5,15.1,7.6,30.9,12.2,46.9c28.6,98.1,123.5,48.2,123.5,48.2c23.2-10.2,36.1-32.6,40.4-41.4l0,0
		c0,0,34.5-27.5,33.6-68.2c0.8,9.9-0.4,19.2-4.6,27.3l18,52.3c0,0,69.7-11.9,91.4-52.4c-1.1,3.1-2.4,6.2-4,9.2
		c-0.8,1.5,1,3.1,2.5,2.1C627.3,391.6,660.5,362.9,655.1,314.7z M73.3,246.6c1.3,4.4,2.4,8.2,3.3,11.2c0.5,1.8,1.3,4.5,2.2,8.1
		C77,259.7,75.2,253.3,73.3,246.6z M239.4,283c0,0,0.2-0.1,0.6-0.4c-4,2.4-7.4,5.7-9.8,10.2C232.2,287.7,235.2,284.2,239.4,283z
		 M228.1,341.6c-0.1-1.2-0.2-2.5-0.4-3.7C227.8,339.1,227.9,340.3,228.1,341.6z M227.6,336.9c-0.1-1.7-0.3-3.3-0.4-5
		C227.3,333.5,227.5,335.2,227.6,336.9z M227.2,331.6c-0.1-1.2-0.2-2.4-0.2-3.7C227,329.1,227.1,330.3,227.2,331.6z M118,165.7
		c8,3.2,15.7,6.5,23,10c-4.1-1.8-8.2-3.5-12.5-5.1C128.5,170.7,124.3,168.4,118,165.7z M130,370.4L130,370.4
		c12.5,12.9,27.7,22.3,45.9,24.5C161.1,393.5,143.8,387.5,130,370.4z M166.2,523.2c10.7,18.5,23.7,35.2,39,46.1
		C185.6,556.2,172.7,535.6,166.2,523.2z M229.7,388c-6.3,0-11.5,6.4-11.5,14.4c0,0.5,0,1,0.1,1.5l-6.4-8.1c-1.9-2.4-5.3-2.9-7.8-1.3
		c-0.1,0.1-0.2,0.1-0.3,0.2c0.7-0.7,0.1-2-0.9-1.8c7.8-1.9,16.1-5,24.8-9.5c3.8-2,5.9-6.2,5.1-10.5c-0.8-4.1-1.8-9.8-2.8-16.4
		c1.7,11.1,4,22.8,7,34.5C235,389.2,232.5,388,229.7,388z M470.4,190.2L470.4,190.2c-1.6-6.9-4-14.5-7.3-22.7
		c-27.6-68.7-79.3-119.9-79.3-119.9s-1.1-1.5-3.1-3.9C391.8,50.6,459.7,135.2,470.4,190.2z M286.6,306.9c-1.6-14-2.2-24.2-1.5-27.7
		c0,0-2.5-34.6,10.5-49.5C285.8,242.3,283.1,270.2,286.6,306.9z M299.1,136.7c-0.3,15.5,0.5,32,3.2,47.6
		C299.5,170.7,297.7,154.4,299.1,136.7z M356.9,245.4c0,0,19.5,14.8,44.5,39.4c-38.1-36.4-79.5-62.3-96.2-61.1
		c2.9-0.7,6.3-0.8,10.2,0c0,0,31.5,12.8,37.2,18.3c0,0,3.6-24.5,19.8-34c0,0,22.3-14.5,54.4,19.2l2.4,2.7
		c-19.3-18.6-38.6-28.9-53.9-21.9C375.3,208,352.1,217.2,356.9,245.4z M432.3,317.8c8.2,9.6,15.2,19.1,20.9,28.3
		C447,336.5,439.9,327,432.3,317.8z M469.5,236.7c-5.4,16.4-15.6,21.1-15.6,21.1S463.9,252,469.5,236.7z M453.9,257.8l3.9,4.5
		c14.9-8.8,26-19,34.1-30c-7.9,11.4-18.9,22.2-34.1,30c0,0,26.5,32.1,41.2,67.2C487.5,306.7,471.4,280.3,453.9,257.8z M552.5,226.3
		c8.7,10.6,19.8,24.9,30.3,41.3C575.2,256.2,565.8,244.1,552.5,226.3z M591.9,282.5c11.3,19.7,20.7,41.5,24.3,63
		C606.7,315,600,297.6,591.9,282.5z"/>
	<path class="st2" d="M714.2,901.8c0.1-1.2,0.1-2.4-0.2-3.7L605.5,416.3c1.3-1.2,2.6-2.4,3.8-3.7c0.4,0,0.8,0.1,1.2,0.1
		c2.3,0,4.6-0.7,6.6-2c16.4-11.2,53.9-43.1,47.8-97c-3.6-32-14.3-66.7-29.4-95.3c-16.6-31.5-36.4-51.5-55.8-56.4l-0.7-0.2
		c-0.9-0.1-21.4-3.6-36.9,8.9c-4.5,3.6-7.4,7.3-9.4,11.6c-3.4-4.9-7-10-10.9-15.5c-0.1-17.5-3.4-32.4-5.9-41.4
		c-6-21.1-20.5-50.1-36.9-73.9c-14.5-20.9-36.4-46.2-58.2-48.1c-21.8-1.9-35.6,10-43.2,22.4C366.5,15.3,350.2,4.3,333.5,8
		c-15.3,3.4-26.3,17.3-33.4,42.4c-14.5-4.2-39.3-7.8-52.3,9.6c-14.1,19-15.9,59.8-12.5,97.4c-6.3-4.9-13.9-10.5-22-15.9
		c-31.3-21-54.1-29.3-69.9-25.3c-22,5.6-31.2,21.8-34.3,35.7c-14.6-4.5-32.7-7.2-45.4,1.1c-12.6,8.3-14.3,26.8-11.1,49
		c-13.7,0.3-33.8,4.3-42.9,23.2c-13.1,27.2-3.7,68.6,29,126.6c10.3,18.3,24,34,39.7,46c-12.5,11.4-19.3,27.5-19.7,47.1
		c-0.5,24.4,8.9,53.1,26.6,81c17.5,27.6,41.1,51.2,66.4,66.5c19.9,12.1,40.2,18.1,60.6,18.1c7.2,0,14.4-0.8,21.6-2.3
		c12.4-2.6,23-7.2,31.4-11.9l353.2,362.6c1.9,1.9,4.2,3.1,6.7,3.5c6.6,11.6,11.6,20.4,14.7,25.3c10.5,17,22,25.6,34.2,25.6
		c1.1,0,2.2-0.1,3.3-0.2c24.6-3,38.9-40.1,43.9-55.9C726.1,941.6,720.5,919.3,714.2,901.8z M272.4,565.7c-0.6,0.1-1.2,0.3-1.8,0.6
		l0,0c-17.4,7-33.9,7.2-49,0.7c-3.8-1.7-7.5-3.7-10.9-6c-13.4-9.6-24.9-24.1-34.6-40.5c-3.7-6.7-5.5-11.4-5.6-11.6l-0.2-0.6
		l-0.3-0.5c-16.9-31.5-27.3-66.2-32.2-85.3c3.5,0.4,6.9,0.5,10.3,0.5c20.1,0,39.9-6,58.3-17.9L310.6,537c-5,3.9-11.9,9.3-18.8,15.1
		c-2.6,2.2-5,4.2-7.2,6.1C278.3,562.2,273.7,564.9,272.4,565.7z M518.8,197c14.5,20.4,25.9,35.5,34.8,47.3
		c28.5,37.9,35.3,46.9,53.1,104.3c0.7,2.2,1.2,4.3,1.6,6.3c0.6,12.6-1.3,23.1-4.3,31.7c-0.4,0.7-0.8,1.3-1.2,2
		c-16.1,26.3-57,38.8-74.6,43.1l-8.3-24.1l-5.5-15.9c3.5-8.5,4.8-18.2,3.8-29.1c-0.4-12.1-3.6-24.2-9.5-36c-0.2-0.4-0.4-0.8-0.6-1.2
		c-2.7-6.5-6-13.2-9.8-20.3c-9.1-16.7-19.1-31.2-25.7-40c12-8,21.1-17.7,28-27.9C509.3,225.4,515.4,212,518.8,197z M430.3,464.4
		l-0.6,0.3c-0.2,0.1-15.2,7.8-34.1,10.6l-16.5,0.9c-7.2-0.3-14.5-1.7-21.4-4.7c-17.4-7.4-29.9-23.9-37.2-48.9
		c-14-47.9-22.8-93.5-24.9-128.6c0-0.8-0.1-1.5-0.1-2.3l0.5,0.1l-0.9-12.8c0-23.3,3.7-36.8,8.2-42.8c0.3-0.3,0.6-0.7,1-1
		c0.7-0.6,1.5-1.2,2.6-1.6c3.7,0.2,13.5,2.8,31.4,13.9c6.6,4.1,13.5,8.9,20.6,14.1l0.8,0.8v-0.2c11.4,8.6,23.1,18.6,34.3,29.2
		c9.7,9.5,20.2,20.5,30.7,32.8c0.7,0.8,1.3,1.5,1.9,2.3c6.7,8.2,12.7,16.4,17.8,24.4c23,36.9,22.7,65.1,20.7,77.9l-0.3,0.7
		C460.3,438.2,449.1,456.1,430.3,464.4z M239.7,354.3c-0.1-0.7-0.2-1.3-0.3-1.9c-0.1-0.8-0.2-1.7-0.3-2.5c0-0.1,0-0.3-0.1-0.4
		c-0.1-0.5-0.1-1-0.2-1.5c-0.1-0.7-0.2-1.4-0.3-2c0-0.2,0-0.3-0.1-0.5c-1.1-8.9-1.6-16.8-1.8-23.5c-0.3-13.2,1.1-20.7,2.6-24.9
		c4.7-8.1,15.7-10.1,25.5-10.1c3.7,0,7.2,0.3,10.2,0.6c0.1,3.9,0.5,8.5,1,13.7c2,25.6,7,54.6,13.9,83.6
		c4.8,22.1,10.4,43.3,16.2,58.7c8.3,22.3,21.7,35,33.9,42.2c-1.7,0.2-3.4,0.3-5.1,0.3c-3.3,0-6.4,0-9.3-0.2
		c-12.8-0.9-26.3-5-38-15.1c-0.5-0.4-1-0.7-1.5-1.1c-4.9-4.9-9.6-10.9-14.1-18.1c-18.9-30.2-27.6-70-31.1-91c-0.3-2.1-0.7-4.1-1-6.1
		C239.8,354.5,239.8,354.4,239.7,354.3z M332.6,532.6L311.9,505c2.1,0.3,4.3,0.4,6.5,0.5c2,0.2,7.6,0.6,14.8,0.6
		c11.8,0,28-1.1,40.6-6.2C391,531.8,448.7,639,506.2,745.3L332.6,532.6z M446.3,264.3c15.8,20.4,31.5,45.3,43.9,69.9
		c4.1,9.9,7.1,19.7,8.1,28.8c0.4,8.6-1.1,16.6-3.5,23.7l-0.1,0.2l-1.8,3.4l0.1,0.4c-2,4.2-4.1,7.9-6.2,11.2
		c-3-20.6-12.7-41.9-26.1-62.5c-6-9.5-12.9-18.9-20.8-28.1c-0.1-0.1-0.2-0.3-0.4-0.4c-9.3-11.1-19.3-21.8-29.5-31.7
		c-20-19.9-36.7-33.7-43.7-39.2c-1-16.2,10.9-21.9,12.7-22.7l0.5-0.2c9.6-4.4,24.8,2.8,42.5,19.8L446.3,264.3z M597.5,676.2
		l-120-226.7l5.2-11.1c3.5-3.1,11.5-10.7,19-21.9l6.2,18h-0.3l4.6,12.3l2.7,7.9h0.2L596,672.4L597.5,676.2z M229.6,402.1l-4.8-6
		c0.9-0.4,1.9-0.8,2.8-1.3C228.2,397.2,228.9,399.6,229.6,402.1z M670.2,813.6l-1.1-2.3l-10.6-28.6L535.4,451.8
		c13.3-2.2,34.7-7,53.8-17l88.5,392.9L670.2,813.6z M554.6,186.3c7.6-6.2,18.7-5.1,20.8-4.9c13.3,3.7,29.2,20.9,42.5,46.2
		c13.9,26.5,23.9,58.6,27.2,88.2c2.7,24.3-5.4,43-16.1,56.7c1-9.1,0-18.8-3-28.8c-3-18.1-10.2-37.7-21.4-58.8
		c-1.4-2.7-2.9-5.3-4.4-8c-2.9-5.3-6-10.3-9.4-15.4c-10.6-16.4-21.7-30.8-30.4-41.4c-4.2-5.6-8.7-11.8-13.7-18.6
		C547.9,194.8,550.5,189.6,554.6,186.3z M397,33c5.7-7.4,12.9-10.5,22.2-9.7c23,2,65.9,65.8,77.7,107.5c3.2,11.4,7,30.5,4.4,51.4
		c-1.9,11.2-6.6,28.8-17.8,44.9c-0.4,0.6-0.9,1.2-1.4,1.8c2-10.9,2-24.5-2-41.2c-6.3-31.3-28.5-68.5-46.1-94.3
		c-14.7-21.5-31.3-42.4-41.5-52.6C393.4,38.4,394.9,35.7,397,33z M337.8,27.5c12.3-2.7,30.8,16.4,37.8,26l0.5,0.7l0.6,0.6
		c0.5,0.5,50.6,50.6,77,116.5c3.1,7.6,5.2,14.5,6.8,20.8l0,0c3.7,19.3,2.5,32.3-0.3,41c-1.5,4.3-3.5,7.6-5.3,10
		c-2.3-2.8-4.7-5.5-7-8.1c-3.9-4.4-7.8-8.4-11.5-12l-2-2.3l-0.2-0.3C414.8,200,397.8,195,385.7,195c-9.9,0-16.5,3.4-18.2,4.4l0,0
		c-11.3,6.6-17.6,18-21,27.2c-7.8-4-17.2-8-23.7-10.7c-2.5-5.6-7.7-18.4-11-35.4c-2.2-14.1-2.9-29-2.6-43.2c3.6-45,7.5-69.4,7.9-72
		C321.8,43,329.3,29.3,337.8,27.5z M263.9,71.8c2.7-3.6,7.8-4.9,13.7-4.9c5.9,0,12.5,1.3,18.1,3c-1.9,10.4-6.2,36.9-6.6,67.1
		c-1.4,18.9,0.6,36.2,3.6,50.5c1.7,9.4,4.1,18.6,7.4,27c-1.7,0.5-3.3,1.2-4.8,2.1c-2.6,1.7-4.8,3.8-6.9,6.3
		c-6.5,7.3-9.9,17.7-11.7,27.7c-6.5-17.8-14.7-44.7-19.2-75.9C250.9,128.2,253.5,85.9,263.9,71.8z M148.3,135.5
		c17.1-4.3,61.5,25.6,89.3,49.3c2,9.2,8,35.6,15.8,60.1c-10.2-11.4-24.7-25.5-44.1-40c-17.8-13.8-39.2-27.5-64-38.3
		c-5.5-2.6-11.2-5.1-17.2-7.6C129,151.7,132.9,139.4,148.3,135.5z M74.7,169.6c2.4-1.6,5.7-2.2,9.6-2.2c7.1,0,15.9,2.2,24.3,5.3v0.1
		l5.7,2.3c0.8,0.3,1.5,0.6,2.2,0.9c2.6,1.1,5,2.3,7.2,3.5l0.6,0.3l0.7,0.2c4,1.5,7.8,3,11.6,4.7c23.4,11.1,42.8,23.1,58.3,34.6
		c24,18.3,41.4,37.2,51.5,49.3c-4.3,1.5-7.8,3.3-10.1,4.6c-0.4,0.2-0.8,0.5-1.3,0.7c-6.8,2.5-11.2,8-13.9,14.5
		c-0.2,0.5-0.5,0.9-0.7,1.4c-2.9,6.2-4,16.5-3.9,28.3c0,0.6,0,1.2,0,1.7c0,0.1,0,0.2,0,0.3c0,0.9,0,1.7,0.1,2.4
		c0.5,19.7,4.1,41.1,6.2,52.3c-7.5,3.8-14.7,6.6-21.6,8.4c-0.2,0-0.4,0.1-0.7,0.1c-5.4,1.2-14.5,2.7-24.8,1.5
		c-5.2-0.8-10.2-2.2-15.2-4.4c-8.1-3.6-15.8-9.1-23.1-16.5c-20.7-25.8-35.2-54.7-49.1-100.6c-0.3-1.1-0.6-2.2-0.8-3.1
		c-0.6-2.2-1.1-3.9-1.4-5.2c-0.4-1.3-0.8-2.8-1.3-4.4c-0.6-2-1.2-4.2-1.9-6.5c-2.8-10.2-5.6-21.2-8.4-33.1l0,0c0-0.1,0-0.2-0.1-0.3
		c-0.7-3.3-1.3-6.5-1.7-9.7C68.6,174,74.5,169.8,74.7,169.6z M56.1,341.9c-35.9-63.6-35.2-93.9-28.4-108c4.9-10.2,17.9-12,26.7-12
		c0.7,0,1.4,0,2.1,0c2,8.7,4.4,17.7,7,26.6c1.9,7,3.8,13.7,5.8,20.3c6.4,23.4,21.7,75.9,53.5,108.6c11,13.4,23.9,20.7,36.4,24.5
		c-8.1,1.2-16.9,1.4-26.1-0.2l-0.1-0.5l-6.4-1l0,0h-0.2c-9-2.4-17.7-6.3-26.1-11.4l-3.6-2.3C80.7,375.7,66.5,360.3,56.1,341.9z
		 M161.9,575.2c-22.7-13.8-44-35.1-59.8-60.1c-15.4-24.2-23.9-49.7-23.5-69.8c0.4-16,6.1-28.1,17.2-36c5,2.8,12.6,6.6,20.3,8.9
		c4,17.5,16.8,67.2,40.9,109c7,13.5,21.3,36.3,43.4,50.8c3.5,2.4,7,4.6,10.7,6.4c4.2,2.1,8.5,3.8,12.8,5.1
		C206.4,592,185.2,589.4,161.9,575.2z M283.3,586.3c3.1-3.1,7.7-7.3,13.2-12c7.9-5.2,17.9-12.4,27.4-20.9l9.2,11.2L549,829.4
		l40.9,71.6L283.3,586.3z M702.1,951.2c-7.4,23.4-18.9,41.1-27.3,42.1c-4.8,0.6-11.4-5.2-18-16c-10.4-16.8-44.3-78.5-84.9-153
		c0-0.1-0.1-0.2-0.1-0.3L394.3,495.6c8.7-1,16.8-2.8,23.6-4.9c11-3,22.7-7.7,32.9-15c4-2.8,7.6-5.8,10.9-8.9L656,830.3l37,75.3
		c0.6,1.2,1.4,2.3,2.3,3.2C701.1,924.5,705.1,941.7,702.1,951.2z"/>
</g>
</svg>
