<?xml version="1.0" encoding="utf-8"?>
<!-- Generator: Adobe Illustrator 27.7.0, SVG Export Plug-In . SVG Version: 6.00 Build 0)  -->
<svg version="1.1" id="레이어_1" xmlns="http://www.w3.org/2000/svg" xmlns:xlink="http://www.w3.org/1999/xlink" x="0px"
	 y="0px" width="606.3px" height="650.2px" viewBox="0 0 606.3 650.2" style="enable-background:new 0 0 606.3 650.2;"
	 xml:space="preserve">
<style type="text/css">
	.st0{fill:#FFCAC5;}
	.st1{fill:#E24444;}
	.st2{fill:#FFFFFF;}
	.st3{fill:#2B7A11;}
	.st4{fill:#231815;}
</style>
<g>
	<path class="st0" d="M269.4,245.4l26.4-102c0,0,30.6-146.3,165.3-111.5C560,57.5,573.5,123,569.3,169.6
		c-2.6,29.2-25.6,41.6-47.5,35.9l0,0c-15.2-3.9-26.2-17-27.3-32.6c-1.5-21.6-10.3-50.5-44.7-59.4c-66-17.1-80.3,45.3-80.3,45.3
		l-22.3,87.6L269.4,245.4z"/>
	<path class="st1" d="M569.5,144.6L496.1,175c-0.9,0.4-1.6-1.1-1.7-2.1c-0.5-6.3-1.8-25.3-12.9-38.7c-0.7-0.9-1.6-2.5-0.6-3
		l75.5-33.7C556.5,97.5,569.6,122.4,569.5,144.6z M461.1,31.8l-155.1,81c-6.5,13.7-19.3,65.6-19.3,65.6l95-49.1l6.8-3.6
		c13.6-12.4,27.4-14.1,27.4-14.1l6.7-3.3l97.9-50.5C500.2,41.8,461.1,31.8,461.1,31.8z M272.4,245.4l74.8,1l12.6-49.4L272,244
		C271.3,244.3,271.6,245.4,272.4,245.4z M389.5,334.4H206.9v108.4c0,0-169.8-10.7-169.8,101.8c0,90.2,124.4,78.7,239.1,78.7
		c120.9,0,113.3-68,113.3-68V334.4z"/>
	<path class="st2" d="M381.3,334.4H215.1c-13.6,0-24.7-11-24.7-24.7V271c0-13.6,11-24.7,24.7-24.7h166.2c13.6,0,24.7,11,24.7,24.7
		v38.7C406,323.3,394.9,334.4,381.3,334.4z"/>
	<path class="st3" d="M85.7,466.2c0,0,37.7,57.3,10.2,147.7c0,0-44.8-11.8-55.1-43.3c-7.1-21.8-8.5-57.1,18.7-83.9
		C76,470.5,85.7,466.2,85.7,466.2z M389.5,529.6c0,0-78.3,13.5-67.2,89.5c0,0,43.5-4.9,60.6-36.8
		C382.9,582.3,392.7,569.2,389.5,529.6z"/>
	<path class="st4" d="M579.5,144.1c-0.1-9.6-2.2-19.5-4.9-28.1c-2.2-7.5-5-14.7-8.6-21.6c-0.4-0.9-0.7-1.5-0.8-1.6L563,89l-2.5-4.4
		c-5.9-9.3-13.2-17.7-21.7-25.2l0,0l-0.1-0.1c-3.9-3.4-8-6.7-12.4-9.7c-8.5-6.6-19.6-12.2-30.2-16.5c-9.2-3.9-19.2-7.4-29.9-10.2
		c-1.5-0.4-2.5-0.7-2.8-0.7l-3.7-0.9l0,0c-39.3-9.4-74-4.9-103.2,13.2C302.8,67.9,287.2,135.6,286,141l-2.7,10.4
		c-3.2,11.9-5.7,22.1-6.4,24.6l-15.6,60.4H215c-19.1,0-34.7,15.5-34.7,34.7v38.7c0,12.4,6.6,23.4,16.4,29.5v93.3
		c-27.2-0.2-99.3,3.1-140.4,41.7c-8.2,7.7-14.6,16.3-19.4,25.8c-13.6,24.9-12.6,53-5.8,73.8c3.4,10.5,9.9,19,17.4,25.8
		c8.3,8.1,18.7,14.3,30.7,19c7.7,3.2,13.3,4.8,14,5l9.3,2.5l0.1-0.3c29.4,6.7,65,8,102.8,8c11.6,0,23.5-0.1,35.4-0.2
		c11.6-0.1,23.6-0.2,35.3-0.2c17.8,0,33.8-1.4,47.9-4.3c6-0.8,48.9-7.6,67.3-41.5c1-1.5,2.6-4.4,4.2-9.3c3.2-8.7,3.9-16.2,3.9-20.4
		c0.7-7.7-0.1-16.7-0.1-28.5V339.2c9.9-6.1,16.4-17,16.4-29.5V271c0-19.1-15.5-34.7-34.7-34.7h-21.2l15-59l0,0l4.1-16.2v-0.2
		c0-0.2,4.6-18.7,19.2-30.5c4.6-3.6,9-5.7,12.3-7.1c2.2-0.8,4.6-1.5,7-2l1.1-0.1l0.2-0.1c8.4-1.4,17.9-0.8,28.3,1.9
		c10.7,2.8,19.1,8,25.3,15.6c0.5,0.8,1,1.5,1.4,2c0.2,0.2,0.4,0.5,0.6,0.7c5.7,8.3,9,19,9.9,32.1l0,0l0,0
		c1.4,19.9,15.4,36.6,34.8,41.6c14,3.6,28.4,1.2,39.6-6.7c11.7-8.2,18.9-21.7,20.3-38C580,161.3,580.1,152.5,579.5,144.1z
		 M503.2,161.2c-1.2-7.3-3.5-16.5-8.4-25.2l56.6-25.3c3.8,9.1,6.1,18.3,7.3,27.5L503.2,161.2z M418,99.3l-5.3,2.6
		c-2.1,0.4-5.6,1.3-9.9,3c-3.4,1.3-6.8,3-9.9,4.9c-2.6,1.6-5,3.3-7.2,5.1c-1,0.8-2,1.6-3,2.5l-5.7,3l-75,38.9l0.4-1.5
		c3.5-13.2,7.7-27.8,10.8-36.2c0.2-0.5,0.4-1.1,0.6-1.6l148.4-77.4c4.8,1.4,13.9,4.1,23.6,8c5,2.1,9.7,4.3,14.1,6.6L418,99.3z
		 M367.2,51.5c18.2-11.3,39.3-16.2,62.8-14.7L330,89C339.1,75.1,351.2,61.4,367.2,51.5z M308.3,235.9l36.2-19.4l-5,19.8L308.3,235.9
		z M89.1,600.9c-1.1-0.4-2.2-0.8-3.2-1.2c-6.9-3-15.4-7.5-22.6-13.7c-0.4-0.4-0.8-0.8-1.2-1.2c-10.1-10-15-23.2-15-40.3
		c0-13.8,2.7-25.9,8.3-36.5c2.8-4.8,6.5-9.6,11.1-14.1c6.4-6.3,11.6-10.6,15.5-13.5C90,498,104.5,541,89.1,600.9z M240.7,613.5
		c-47.4,0.5-95.9,1-132.4-7.1c17.7-68.2,0.3-116.9-9.2-136.4c34.5-15.5,77-17.5,96.4-17.5c6.5,0,10.5,0.2,10.6,0.2l0,0
		c5.8,0.4,10.6-4.2,10.6-10v-98.4h162.7v177.4c-8.1,2.4-21.1,7.1-33.6,15.9c-17.4,12.4-36.8,34.8-34.5,73.1
		c-10.7,1.6-22.4,2.4-35.3,2.4C264.4,613.3,252.4,613.4,240.7,613.5z M376.3,573c-1.8,4.1-4.5,8.7-8.5,13.1
		c-8.3,9.1-20.6,15.9-36.4,20.5c-0.8-40.9,30.5-57.7,48.2-63.9v12.5v0.5l-0.1,1.5c0,0.1,0,0.2,0,0.3
		C378.7,565.5,377.4,569.9,376.3,573z M381.3,256.4c8.1,0,14.7,6.6,14.7,14.7v38.7c0,8.1-6.6,14.7-14.7,14.7H215.1
		c-8.1,0-14.7-6.6-14.7-14.7V271c0-8.1,6.6-14.7,14.7-14.7h166.2V256.4z M284.8,225.8l10.5-40.5l66.1-34.1c-0.9,2.8-1.4,4.7-1.6,5.2
		l-8.6,33.9L284.8,225.8z M452.9,103.9l66.5-34.4c9.3,7.2,16.7,15.2,22.5,23.5l-59.7,26.7C474.3,112.3,464.5,107,452.9,103.9z
		 M547.4,192.1c-6.3,4.5-14.8,5.8-23.1,3.7c-7.9-2-14.2-7.5-17.4-14.5l53-21.9c-0.1,3.1-0.3,6.2-0.5,9.3
		C558.4,179.2,554.2,187.3,547.4,192.1z"/>
</g>
</svg>
