<?xml version="1.0" encoding="utf-8"?>
<!-- Generator: Adobe Illustrator 27.7.0, SVG Export Plug-In . SVG Version: 6.00 Build 0)  -->
<svg version="1.1" id="레이어_1" xmlns="http://www.w3.org/2000/svg" xmlns:xlink="http://www.w3.org/1999/xlink" x="0px"
	 y="0px" width="315.9px" height="534.5px" viewBox="0 0 315.9 534.5" style="enable-background:new 0 0 315.9 534.5;"
	 xml:space="preserve">
<style type="text/css">
	.st0{fill:#E5AF28;}
	.st1{fill:#FFD55F;}
	.st2{opacity:0.2;fill:#F4EAD4;enable-background:new    ;}
	.st3{opacity:0.2;fill:#FFFFFF;enable-background:new    ;}
	.st4{fill:#231815;}
</style>
<g>
	<path class="st0" d="M288.6,431.8L278,414l8.6-18.9l-20.2,4.6l-15.3-14l-1.9,20.7l-8,4.5l-5.5-9.2l8.6-18.9l-20.2,4.6l-15.3-14
		l-1.9,20.7l-11.8,6.6l-2.9-2.7l-0.4,4.6l-3,1.7l2.7,1.2l-0.8,8.5l-2,0.1l-7.3-9.1l-0.1,0.5l-4.6-7.7l8.6-18.9l-20.2,4.6l-15.3-14
		l-1.9,20.7l-18.1,10.2l19.1,8.1l2.1,10.3l-10,2.3l-7.5-6.9l2.1-3.2l-5.2,0.4L126,407l-0.2,1.7l-7.4-12.4l8.6-18.9l-20.2,4.6
		l-15.3-14l-1.9,20.7l-18.1,10.2l6.9,3L76,412.1l-3.2,1.2L73,413l0,0l0,0l0.5-0.7l-0.9,0.1l-10.2-17.1l8.6-18.9L50.8,381l-15.3-14
		l-1.9,20.7l-18.1,10.2l14.3,6.1l-1.3,5.3l-10.9,4.1l9.9,6.2l0.5,11.6l8.9-7.5l1.3,0.4l0.5,2.3l0.1-0.1l-1.6,6.3l-10.9,4.1l9.9,6.2
		l0.5,11.6l0.9-0.7l9.7,6l0.5,11.6l8.9-7.5l11.2,3.1l-4.4-10.8l2.8-4.3l3.7,1.6l1.7,8.4l-1.7,7L59.1,473l9.9,6.2l0.5,11.6l8.9-7.5
		l11.2,3.1l-4.4-10.8l6.4-9.7l-11.3,0.8l7.4-8.5l15.6,1.8v0.4l0.4-0.4l4.6,0.5l-1.7-2.9l5.7-4.8l11.2,3.1l-4.4-10.8l0.8-1.3l4.9,2.1
		l4.1,20.3l13.6-15.6l15.1,1.8l0.2,4.8l1.5-1.3l-1.1,11.8l-15.2,8.5l6.2-13.5l-20.2,4.6l-15.3-14l-1.9,20.7l-5,2.8l-2.5-3.2L103,479
		l-9.2,5.2l4.5,1.9l-7.7,2.9l9.9,6.2l0.5,11.6l8.9-7.5l4.5,1.3l2.4,12.1l10.3-11.7l2.4,1.5l0.5,11.6l8.9-7.5l10.9,3l0.3,6.9l8.9-7.5
		l11.2,3.1l-3.9-9.5l0.2-0.2l4.4,2.7l0.5,11.6l8.9-7.5l11.2,3.1l-4.4-10.8l5.9-8.9l3.7,0.4l2.8,1.7l0.5,11.6l8.9-7.5l11.2,3.1
		l-1.8-4.5l12.3-14.1l20.6,2.4l-8.8-14.7l4-4.5l0.8,0.5l0.5,11.6l8.9-7.5l11.2,3.1l-4.4-10.8l4.3-6.5l8.8,1l-6.5-11l0.1-0.1
		l11.2,3.1l-4.4-10.8l5.4-8.2L288.6,431.8z M122.8,428.4l-0.6,0.3l0.4-0.4L122.8,428.4z M108.5,411.8l6.1,0.7l-0.4,1.5l-10.9,4.1
		l9.9,6.2l0.4,9.3l-1.1,0.6l-5.6-7.1l-2.8,11.3l-5.1,1.9l7.6-16.5l-10.8,2.5L108.5,411.8z M91.3,418.7l1.4-2l2,9.8h-0.2L91.3,418.7z
		 M90.7,407l0.5,2.5l-5.1,0.4l-5.8-7.3L90.7,407z M55.1,443l-1.9-2.4l-0.6-1.4l4.5-6.9l3.1-2.6l9.3,2.6l-0.3,2.8L55.1,443z
		 M46.8,423.1l4,2.5L51,430l-3.6,0.3l-3.9-4.9l4.7,1.3L46.8,423.1z M67,422l2.2-3.3l1.4,0.9l-0.8,9.2L67,422z M69.1,412.6l-7.3,0.5
		l-1.2-1.5L69.1,412.6z M52.4,410.6l0.5,0.1l-1.1,4.6l-5.1,1.9L52.4,410.6z M38.1,453.3l7.6-6.4l3.1,0.8l-0.4,1.7L38.1,453.3z
		 M86.3,428.4l-2-1.9l0.1-0.1l4.8,1.3L86.3,428.4z M100.6,447.1l2.5,1.5l0.1,2.8L100.6,447.1z M226.8,439l-7.6-12.7l1.6-3.5l5-5.7
		l9.3,1.1l4.1,1.8l-1.1,12.7L226.8,439z M203.8,474.6l-1.6,6.5l-1.9-4.8l1.7-2.6L203.8,474.6z M174,442.1l4.2-6.4l0.1,2.5l5.3-4.5
		l7.8,3.3l1.4,7l-5.8,2.2l7.1,4.4l1.2,6.1l-7.6,1.7l0,0l0,0l-12,2.7l-10.6-9.8l1.9-1.6l11.2,3.1L174,442.1z M213.3,448.8l0.5-0.8
		l-0.1,1.7L213.3,448.8z M198.8,485.6l-4.4,1.6l-1.6-2.7l0.6-0.5L198.8,485.6z M201,467.1l-5.9,0.4l-2.6-3.2l3.3-7.1l1.4-1.6
		l0.4,8.4l8.9-7.5l6.4,1.8l-0.2,2.2L201,467.1z M166.9,413.1l12.3,1.4l-0.4,1.7l-10.9,4.1l9.3,5.8l-4.8,2.7l5.6,2.4l0.1,1.3
		l-9.3,0.7l-7.3-9.1l-2.8,11.3l-4.8,1.8l-1.1-1.9l5.7-12.5L166.9,413.1z M154.1,483.7l-1.4,5.5l-6.8,0.5l-4.8-8l1.3-2.9L154.1,483.7
		z M149.3,495.4L149,495l3.6-5.4l-1.3,5.1L149.3,495.4z M148.4,503.7l1.9,1.2l0.2,4L148.4,503.7z M154.6,483.9l5.1,2.2l1.1,5.6
		L154.6,483.9z M182.7,492.7l-1.1-1.4l8.1,0.9L182.7,492.7z M205.8,475.4l7.9,3.4l0.7,3.4l-3,0.2L205.8,475.4z M229.8,453.9
		l-12.1-11.2l2.7,0.3l18.7,8l0.1,0.7L229.8,453.9z M241.4,468.1l0.8-1.7l0.9,4.6L241.4,468.1z M272.6,430.5l-0.5-0.6l3.6,0.4
		L272.6,430.5z"/>
	<path class="st1" d="M253.1,393.6l-10,11.3l-15-1.8l7.7,13l-2.9,6.2l-2.4-0.9l-3.9-14.6l-9.2,12l-5.5-0.3l-1.8-9.3l3.6-1l-4.5-3.4
		l-0.2-1l-0.5,0.5l-6.9-5.2l0.7-15.1l-12.4,8.6l-14.1-5.4l2.7,9.1l-5.6-2.4l-2.9-14.8l-10,11.3l-15-1.8l7.7,13l-1.3,2.9l-6.7-3
		l-2.7-14.8l-10,11.4l-15-2l1.5,2.6l-13.4-5.8l-2.9-14.8l-10,11.3l-15-1.8l3.1,5.2l-6,0.4L65,381.5l-3.6,14.6l-14.1,5.3l12.8,8
		l0.7,14.7l-3.8,0.3l-9.4-11.8L44,427.2l-14.1,5.3l12.8,8l0.7,15.1l11.5-9.7l8.1,2.2l-1.3,5.3l-14.1,5.3l12.8,8l0.7,15.1l11.5-9.7
		l3.6,1l4.8,8.1l-6.3,13.7l14.7-3.3l11.1,10.2l1.4-15l4.6-2.6l5.3,8.9l-6.3,13.7l14.7-3.3l11.1,10.2l1.4-15l3.3-1.9l6.3,2.4
		l3.5,14.7l9.5-11.7l15,1.2l-8.2-12.7l1.7-4.2l1.2-0.3l5.5,5.1l-4.4,2.7l14.1,5.4l3.5,14.7l9.5-11.7l15,1.2l-8.2-12.7l5.8-13.9
		l-4.2,1.1l4.1-5.1l15,1.2l-5.5-8.6l12.9-2.9l11.1,10.2l1.4-15l13.2-7.4l-13.9-6l-2.7-13.4l7.4-4.8l10.9,10l1.4-15l13.2-7.4l-13.9-6
		L253.1,393.6z M220,440.3l0.3,0.3l-0.9-0.1L220,440.3z M202.4,411.4l-3.4,3.8l-0.9-0.1l1-2.8L202.4,411.4z M153.1,480.8l-6.5-5.5
		l6.2-5.2l3.6,6l-2,4.4L153.1,480.8z M114.8,479.4l-10.2-4.4l2.6-2.2l9.4,2.6L114.8,479.4z M94.2,426.8l-2.8-1.2l-1.8-8.9l5.1,8.9
		L94.2,426.8z M85.1,414.6l-0.6-1.5l2.4-0.5L85.1,414.6z M90.6,453.9l1.4-15l1.4-0.8l9.6-2l10.9,10.4l0.8-7.2l2.1,3.5l-3.8,8.3
		l-3.5,0.3l-9.4-11.8l-3.6,14.6l-13.1,4.9l4.9-7.5L90.6,453.9z M123,421.7l7.6-1.6l1.4,2.4l-8,9.1l-7.2-0.9l11.9-6.5L123,421.7z
		 M154.8,413.7l2.6,8.6l-1-0.4L154.8,413.7L154.8,413.7z M190,430.1l-0.6-3.1l-1.7,2l-7.9-6l0.4-9.2l4,0.1l7.5,12.6L190,430.1z
		 M120.1,467.8l-1.1,2.3l-2.9-7.3l0.6-0.9L120.1,467.8z M122.1,453.9l3.1-0.7l2.9,2.7l-0.7,0.8l-6.7-0.8L122.1,453.9z M135.9,430.1
		l-0.3-1.4l0.5,0.9L135.9,430.1z M159.8,444.6l-3.2-4l0.3-3l7.2,0.2l4.1,6.3L159.8,444.6z M171.3,448.8l0.7,1.1l-4.3,9.2l-1.2-3.1
		L171.3,448.8z M147.8,442.9l-1.1,4.5l-8.3,3.1l-0.5-2.3l9.7-5.4L147.8,442.9z M145.4,460.7l0.1,1.6l-5.2-2.2l-0.6-3L145.4,460.7z
		 M131.8,485.4l-1-5.2l7.8,7.2l-0.8,0.5L131.8,485.4z M139.8,486.7l1.2-13.2l0.6-0.3l-0.7,12.9L139.8,486.7z M145.9,470.7l0.2,4
		l-2.9-2.5L145.9,470.7z M177.2,436.1l5.5-1.5l-3.3,3.7l-2.9-0.3L177.2,436.1z M177.3,405.4l-3.9,4.8l0.3-2.8L177.3,405.4z
		 M161.3,412.2l3.1,2.9l-5.9-2.2L161.3,412.2z M147.2,414.1L147.2,414.1l-2,2.2l0.1-1.3L147.2,414.1z M118.8,399l5.8,10.1l-5.2,11
		l-4.4-2l-2.7-14.8l-6.8,7.5l0.4-4.6L118.8,399z M93.4,411l3,2.7l-7.6-1l-0.1-0.7L93.4,411z M85,400.6l-3,6.5l-0.9-2.3l3.4-5.1
		L85,400.6z M82.4,417.6l-4,4.5l-13.1-1.6l6.9-5.8L82.4,417.6z M64.2,421.5l1.3,2.2l-4.3,0.3L64.2,421.5z M63.6,435.9l4.8-7.3
		l2.8,4.7l-3.8,8.3l-2.2-2.8l-0.1,0.6L63.6,435.9z M70.6,445.7l8.9-2l6.6,6.1l-11.6,0.8L70.6,445.7z M88.1,470l-3.8-0.5l-3-7.4
		l1.5-2.2l9.2,5.7L88.1,470z M114.8,479.5l-0.9,1.9l-2.1-0.2L114.8,479.5z M118.9,482l-4.5-0.5l6.2-1.4L118.9,482z M176.8,487.5
		l0.5-5.9l1.8-1l-0.3,5.7L176.8,487.5z M191.1,481.1l-5-4.3l4.5-2.5l-13.9-6l-1.4-7.2l5.4-1.2l2.4,2.2l-4.5,2.7l12.8,4.9l0.4,0.4
		v-0.2l0.9,0.3l2.3,9.8L191.1,481.1z M203.6,451.7l-1.8-1.5l4.4-2.4l-13.9-6l-0.6-3.1l8.4-1.9l6.2,5.8l-0.8,2.1l2.3-0.7l3.4,3.1
		l0.4-4.2l1.9-0.6l3.5,5.9L203.6,451.7z M214.1,464.4l-1.7-2.6l5.2-12.5l1.9,3.3L214.1,464.4z M232.1,435.4v-0.7l1.3-0.9
		L232.1,435.4z"/>
	<path class="st2" d="M299.4,376c0,78.2-63.4,141.6-141.6,141.6S16.2,454.2,16.2,376s63.4-141.6,141.6-141.6
		C236,234.3,299.4,297.7,299.4,376z M191.1,238.1L191.1,238.1v-27.9c0-18.4-14.9-20-33.3-20l0,0c-18.4,0-33.3,1.6-33.3,20v27.9l0,0
		C146.4,232.9,169.2,232.9,191.1,238.1z"/>
	<path class="st3" d="M197.5,280c0,10.9-17.8,6.8-39.7,6.8s-39.7,4.2-39.7-6.8c0-10.9,17.8-19.8,39.7-19.8S197.5,269,197.5,280z
		 M100.4,466.1c0-10.9,25.7-3.2,57.4-3.2s57.4-7.8,57.4,3.2c0,10.9-25.7,23.5-57.4,23.5S100.4,477.1,100.4,466.1z"/>
	<path class="st4" d="M201.1,230.6v-20.5c0-24-18.7-28.8-33.3-29.8V7.1h-20v173.3c-14.7,1-33.3,5.8-33.3,29.8v20.5
		C51.9,249.3,6.2,307.4,6.2,376c0,83.6,68,151.6,151.6,151.6s151.6-68,151.6-151.6C309.4,307.4,263.7,249.3,201.1,230.6z
		 M134.5,210.2c0-6,0-10,23.3-10s23.3,4,23.3,10V226c-7.7-1.2-15.5-1.8-23.3-1.8s-15.6,0.6-23.3,1.8V210.2z M157.8,507.6
		c-72.6,0-131.6-59-131.6-131.6s59-131.6,131.6-131.6s131.6,59,131.6,131.6C289.4,448.5,230.4,507.6,157.8,507.6z"/>
</g>
</svg>
