<?xml version="1.0" encoding="utf-8"?>
<!-- Generator: Adobe Illustrator 27.7.0, SVG Export Plug-In . SVG Version: 6.00 Build 0)  -->
<svg version="1.1" id="레이어_1" xmlns="http://www.w3.org/2000/svg" xmlns:xlink="http://www.w3.org/1999/xlink" x="0px"
	 y="0px" width="1892.1px" height="345.4px" viewBox="0 0 1892.1 345.4" style="enable-background:new 0 0 1892.1 345.4;"
	 xml:space="preserve">
<style type="text/css">
	.st0{fill:#FFFFFF;}
	.st1{fill:#231815;}
</style>
<g>
	<path class="st0" d="M251.3,174.8c0,61.9-50.1,112.1-112.1,112.1s-112-50.2-112-112.1S77.4,62.7,139.4,62.7
		S251.3,112.9,251.3,174.8z M1831,26.2H415.8c-19,0-34.5,15.4-34.5,34.5v68.9l-54.5,23.1c-13,5.2-13.6,18.4-0.1,24.4l54.6,23.6v82.6
		c0,19,15.4,34.5,34.5,34.5H1831c19,0,34.5-15.4,34.5-34.5V60.7C1865.5,41.7,1850,26.2,1831,26.2z"/>
	<path class="st1" d="M1831,325.2H415.8c-23.2,0-42-18.8-42-42v-77.7l-50.1-21.6c-9.2-4.1-14.6-11.4-14.4-19.5s5.6-15,14.6-18.7
		l49.8-21.1V60.7c0-23.2,18.8-42,42-42H1831c23.2,0,42,18.8,42,42v222.5C1873,306.4,1854.1,325.2,1831,325.2z M415.8,33.7
		c-14.9,0-27,12.1-27,27v73.8l-59.2,25.1c-3.2,1.3-5.2,3.2-5.3,5c0,1.9,2.1,4,5.4,5.5l59,25.5v87.5c0,14.9,12.1,27,27,27H1831
		c14.9,0,27-12.1,27-27V60.7c0-14.9-12.1-27-27-27H415.8z M139.4,53C72,53,17.6,107.6,17.6,174.8S72,296.6,139.3,296.6
		S261,242,261,174.8C261,107.5,206.7,53,139.4,53z M139.4,105.5c17.5,0,31.8,14.3,31.8,31.8s-14.3,31.8-31.8,31.8
		s-31.8-14.3-31.8-31.8C107.6,119.7,121.8,105.5,139.4,105.5z M185.9,232L185.9,232H92.8v-3.2c0-25.7,20.8-38,46.5-38
		s46.5,12.2,46.5,38L185.9,232L185.9,232z"/>
</g>
</svg>
