<?xml version="1.0" encoding="utf-8"?>
<!-- Generator: Adobe Illustrator 27.7.0, SVG Export Plug-In . SVG Version: 6.00 Build 0)  -->
<svg version="1.1" id="레이어_1" xmlns="http://www.w3.org/2000/svg" xmlns:xlink="http://www.w3.org/1999/xlink" x="0px"
	 y="0px" width="1892.1px" height="375.7px" viewBox="0 0 1892.1 375.7" style="enable-background:new 0 0 1892.1 375.7;"
	 xml:space="preserve">
<style type="text/css">
	.st0{fill:#FFFFFF;}
	.st1{fill:#231815;}
</style>
<g>
	<path class="st0" d="M1817.5,31.5l8,8.5l12.9,8.7l8.9,15.7l26.9,22.4l-4.1,205.6L1843,320l-11.3,11.9l-12.9,11.7v1.1H445.5
		L426,326.6l-17.9-20L391,291.3l-4-67.3l-12.2-8l-27.6-10.7l-15.3-12.7V186l9.6-9.8l17.6-10.9l30-10.2V88.7l56.4-57.3h1372V31.5z
		 M104.1,72.6L87.6,88.7l-26.8,6.6l-8.9,9.3l-11.7,10.7l-9.8,13.4v124.1l10.4,8.6l13.4,14.2l9.1,8.3l30.2,12l10.9,7.6h87.3l11.1-9.1
		l32.4-13.6l8.1-7.2l12.7-13.5l5.6-5.4l3.1-130.3l-14.6-11.6l-21.3-24.1l-28.7-7.3l-8.2-8.2L104.1,72.6z"/>
	<path class="st1" d="M419,78.7h-20v-20h20V78.7z M399,298.7v20h20v-20H399z M419,318.7v20h20v-20H419z M439,38.7h-20v20h20V38.7z
		 M399,78.7h-20v80h20V78.7z M379,218.7v80h20v-80L379,218.7L379,218.7z M1864.1,78.7v-20h-20v20H1864.1z M1824.1,338.7H439v20
		h1385.1V338.7h20v-20h-20V338.7z M1824.1,58.7h20v-20h-19.9v-20H439v20h1385.1V58.7z M1864.1,78.7v220h-20v20h20v-20h20v-220
		L1864.1,78.7L1864.1,78.7z M379,178.7v-20h-20h-20v20h20H379z M359,198.7h-20v20h20h20v-20H359z M319,178.7v20h20v-20H319z
		 M97.6,98.7V79.2h20h20h20h20h20v19.5h20h20v-20h-20h-20V59.2h-20h-20h-20h-20h-20v19.5h-20h-20v20h20H97.6z M57.6,98.7h-20v20h20
		V98.7z M127.6,193.4h40v-20h20v-40h-20v-20h-40v20h-20v40h20C127.6,173.4,127.6,193.4,127.6,193.4z M187.6,226.1h-20v-20h-20h-20
		v20h-20v20H91v20h113.1v-20h-16.6v-20H187.6z M37.6,218.7v-20v-20v-20v-20v-20h-20v20v20v20v20v20v20v20h20v-20V218.7z M37.6,258.7
		v20h20v-20H37.6z M77.6,278.7h-20v20h20h20v-20H77.6z M257.6,118.7v-20h-20v20H257.6z M257.6,138.7v20v20v20v20v20v20h20v-20v-20
		v-20v-20v-20v-20v-20h-20V138.7z M237.6,278.7h20v-20h-20V278.7z M197.6,278.7v20h20h20v-20h-20H197.6z M157.6,298.7h-20h-20h-20
		v20h20h20h20h20h20v-20h-20H157.6z"/>
</g>
</svg>
