<?xml version="1.0" encoding="utf-8"?>
<!-- Generator: Adobe Illustrator 27.7.0, SVG Export Plug-In . SVG Version: 6.00 Build 0)  -->
<svg version="1.1" id="레이어_1" xmlns="http://www.w3.org/2000/svg" xmlns:xlink="http://www.w3.org/1999/xlink" x="0px"
	 y="0px" width="935.7px" height="1276.7px" viewBox="0 0 935.7 1276.7" style="enable-background:new 0 0 935.7 1276.7;"
	 xml:space="preserve">
<style type="text/css">
	.st0{fill:#FFDDD4;}
	.st1{fill:#FF8585;}
	.st2{fill:#F21414;}
	.st3{fill:#F7F7F7;}
	.st4{fill:#231815;}
</style>
<g>
	<path class="st0" d="M388.4,362.3c134-25.2,286,17.2,346.8,46.6s29.8,260,26.9,273.7s-131.8,56.9-179.3,54.3
		c-47.6-2.7-225.8,24-355.6-54.3s-18.3-279.1-18.3-279.1S254.3,387.6,388.4,362.3z M138.5,489.7c0.1-2.6-2-4.6-4.6-4.4
		c-13.7,1.2-51.8,10.6-51.8,79.2c0,67.7,24.9,83.6,34.4,87.2c1.8,0.7,3.8-0.4,4.2-2.3c1.8-9.8,8.5-39.1,27-61
		c1.9-2.3,2.5-5.5,1.4-8.3C145,569.3,136.2,539.7,138.5,489.7z M789.1,580.1c-1.1,2.8-0.5,6,1.4,8.3c18.5,21.9,25.2,51.2,27,61
		c0.4,1.9,2.3,3,4.2,2.3c9.5-3.6,34.4-19.6,34.4-87.2c0-68.6-38.1-78-51.8-79.2c-2.5-0.2-4.7,1.9-4.6,4.4
		C801.9,539.7,793.1,569.4,789.1,580.1z M377.9,1161.2c32.1-16.5,25.6-54.6,21.7-69c-0.7-2.8-4-4-6.4-2.4
		c-6,4.1-17.8,12.2-37.2,24.9c-23.1,15.3-45.6,24.2-54.5,27.5c-1.8,0.7-2.3,3.1-0.9,4.4C340.4,1182.9,377.9,1161.2,377.9,1161.2z
		 M633.5,1146.6c1.4-1.3,1-3.7-0.9-4.4c-8.9-3.3-31.4-12.2-54.5-27.5c-19.3-12.8-31.2-20.8-37.2-24.9c-2.4-1.6-5.7-0.4-6.4,2.4
		c-3.8,14.4-10.4,52.5,21.7,69C556.2,1161.2,593.7,1182.9,633.5,1146.6z M120,1090.2c0,0-69.8,29.8-60.4,98.7c0,0-2.7,51.2,81,64.4
		C140.6,1253.3,122.9,1159,120,1090.2z M796.6,1255.7c79.4-2.4,81-65.3,81-65.3c9.4-69.8-60.4-100-60.4-100
		C814.2,1160.1,796.6,1255.7,796.6,1255.7z"/>
	<path class="st1" d="M349,557.6c0,30.7-25,55.6-55.8,55.6s-55.8-24.9-55.8-55.6s25-55.6,55.8-55.6S349,526.8,349,557.6z M646.5,502
		c-30.8,0-55.8,24.9-55.8,55.6s25,55.6,55.8,55.6s55.8-24.9,55.8-55.6S677.3,502,646.5,502z"/>
	<path class="st2" d="M772.7,1074.8c0,0-11.3-82.5-72.8-228.9L236.3,846c0,0-62.9,135.9-73.1,229c0,0-23.5,3.3-48.1,16.4l20.5,160.9
		c28.7,5.7,68.6,7.4,124,0.8c185.4-22.1,260.1-18,477.4,6.9c0,0,31.4,3.6,64.6-2.1l19.1-165.9
		C798.8,1079.6,777.9,1075.2,772.7,1074.8z M377.9,1161.2c-40.4,23.7-76.1-16.3-76.1-16.3l93.7-53.4
		C395.5,1091.5,418.3,1137.5,377.9,1161.2z M568.8,1165.8c-35.8-11.1-42-44.9-30-74.7l96,55C634.8,1146.1,604.6,1177,568.8,1165.8z
		 M168.9,281.9c-1.9,1.4-4.6,0.2-5-2.1c-4.4-28.4-15.9-166.4,167.7-207c205-45.3,339.6-102.2,475.8,13.4
		c110.7,93.9,87.6,469,75.1,606.5c-1.4,15.1-21.6,19-28.5,5.6l-25.6-49.7c0,0,26.7-17.8,28.3-79.9c2.2-83.3-56.8-83.3-56.8-83.3
		s-4.6-65.6-18.7-101.9c-0.5-1.3-0.3-2.9,0.6-4c2.2-3,5.9-12.1,4-39c-2.7-37.8,0.2-50.7-27.7-64.6c-28-13.9-93.9-50.3-284.4-50.3
		C289.5,225.5,209.9,252.5,168.9,281.9z"/>
	<path class="st3" d="M783.7,586.1C783.7,586.2,783.7,586.2,783.7,586.1c2.4-1.3,4.4-3.4,5.5-6c19.2-46.9,7.5-159.4-3.7-183
		c0,0-15-8.6-25.6-12.9C679.7,350.4,578.5,335,578.5,335c-47.9-5.1-80.3-6.5-97-6.9c141.2,2,236.2,36.6,278.7,56.1
		c12,5.5,25.6-3.2,25.6-16.4v-50.1c0-13.7-6.4-26.7-17.4-35c-29.8-22.3-107.1-57.1-299.9-57.1c-199.3,0-275.8,37.3-303.6,59.4
		c-9.4,7.5-14.7,18.9-14.4,30.9l1.3,46.8c0.4,12.9,11.5,22.1,23.4,21.3c-8.6,1.3-13.6-0.5-13.6-0.5
		c-19.8,19.2-32.5,149.8-13.3,196.6c1,2.5,2.8,4.5,5.1,5.8c-2.9-0.4-5.7,0.8-7.4,3.2c-12.5,17.9-49.8,79.6-8.5,125.5
		c0,0-27.2,150,122.1,167.6c0,0,78.9,77.9,152.8,39.2c0,0,60.1,37.3,113.7,0c73.9,38.7,152.8-39.2,152.8-39.2
		C828,864.6,800.8,714.6,800.8,714.6c41.3-45.9,3.9-107.6-8.5-125.5C790.4,586.4,786.9,585.2,783.7,586.1z M463.4,328
		c-42.4,0.3-86.1,4.8-97.7,6C395.3,330.5,427.9,328.2,463.4,328z M182.5,382.1c3.7-1.6,7.7-3.4,12.1-5.2c-4.8,2.7-9.2,4.4-13.1,5.6
		C181.9,382.4,182.2,382.3,182.5,382.1z M520.3,634.8c2.3,0.9,4.7,1.8,7.2,2.7c3.6,1.3,7.2,2.5,10.7,3.7
		C531.9,639.3,525.9,637.2,520.3,634.8z M710.4,602.2c-21,31.1-50,45-81.9,48.8c43.5-6.5,68.1-30.3,77.4-43.3
		c2.3-3.2,0.9-7.7-2.8-9.1c-14.7-5.4-39.9-33.2-94.1-49.9c-49.6-15.3-57.8-8-66.3-7.7c-2.1,0.1-3.8,1.8-3.8,3.9
		c0,7.1-2.1,22.9-12.9,38.7c-12.3,18.1-26.5,24-36.1,26.6c-2.2,0.6-3.3,2.8-2.9,4.7c-1.3-1.1-2.6-2.2-3.7-3.3
		c-14.7,3.2-32.9-0.3-32.9-0.3c-0.3,0.3-0.6,0.5-0.9,0.8c-0.5-0.9-1.3-1.6-2.5-1.9c-9.6-2.6-22.8-9.5-35.1-27.6
		c-10.7-15.8-12.3-30.6-12.3-37.7c0-2.1-1.7-3.9-3.8-3.9c-8.5-0.3-18.2-7.5-67.8,7.7c-54.1,16.6-79.4,44.5-94.1,49.9
		c-3.7,1.4-5.2,5.9-2.8,9.1c11.3,15.8,45,47.3,107.5,44.9c-74.9,5.4-104.3-37.5-111.1-49.8c-1.1-2.1-3.2-3.5-5.5-3.8
		c-2.5-0.4-6-0.9-10.1-1.6c2.9-0.8,4.7-4.2,3.3-7.3C182,516,242.8,417,242.8,417c46.8,32,95.2-14.2,95.2-14.2
		c38.3,17.8,83.3-16.8,83.3-16.8s42.7,41.9,94.7,0c0,0,45,34.6,83.3,16.8c0,0,48.5,46.2,95.2,14.2c0,0,60.8,98.9,27.6,173.1
		c-1.4,3.2,0.5,6.7,3.6,7.4c-4.2,0.7-7.8,1.3-10.1,1.6C713.5,599.3,711.6,600.5,710.4,602.2z M747.6,593.6l24.5-4.7
		C764.9,590.5,756.2,592.1,747.6,593.6z M920.9,739.6c0,0-5.6,30.5-36.1,23.1c0,0-25.9,10.4-34.9-9.5c0,0-14-8.6-6.9-28.1
		c0,0-8.1-15.7,1.9-30.7c1.7-2.5,5.5-2.4,6.9,0.2c3.2,6,9.5,14.2,19.8,11.3c0,0,10.6-0.4,12-18c0.3-3.6,3.7-6,7.2-5.1
		c7.3,2,18,7.6,21.4,23.6C912,706.5,931.2,721.2,920.9,739.6z M817.1,1090.4c0,0-4.1,95.1-20.6,168.3c0,0-31.1,3.7-61.3,0.1
		c0,0,24.5-143.1,22.1-186.1C757.3,1072.6,784.6,1071.9,817.1,1090.4z M397.1,1087.2c0.5,1.6-0.1,3.4-1.6,4.2
		c-12.8,7.9-73.8,45.1-93.7,53.4c-1.3,0.5-2.7,0.3-3.8-0.6c-4-3.5-15-14.1-31-36.7c-1.3-1.8-0.6-4.4,1.4-5.4
		c14.8-7,68.3-32.8,105.5-57.6c1.8-1.2,4.3-0.5,5.3,1.5C383.4,1054.6,393.4,1075.8,397.1,1087.2z M668.9,1106.5
		c-13.9,24.9-27.5,36.2-31.6,39.2c-0.8,0.6-1.7,0.7-2.6,0.3c-19.5-7.8-84.5-47.8-96-55c-1.1-0.7-1.5-1.9-1.2-3.1
		c3.6-11.7,14.6-34.9,18.5-43c0.7-1.5,2.6-2,4-1.1c38.5,25.8,95,52.8,107.7,58.8C669.2,1103.4,669.7,1105.1,668.9,1106.5z
		 M201.9,1257.3c-30.7,1.3-61.3-4-61.3-4c-16.4-72.3-20.6-163.1-20.6-163.1c32.6-18.3,59.8-17.5,59.8-17.5
		C177.4,1115.1,201.9,1257.3,201.9,1257.3z"/>
	<path class="st4" d="M386.9,469.2c0,8.8-6.3,16-14.1,16s-14.1-7.2-14.1-16s6.3-16,14.1-16S386.9,460.3,386.9,469.2z M566.2,453.2
		c-7.8,0-14.1,7.2-14.1,16s6.3,16,14.1,16s14.1-7.2,14.1-16S574,453.2,566.2,453.2z M930.8,743.1c-1.2,4.8-5.4,17.6-17.1,25.2
		c-7.9,5.1-17.2,6.7-27.8,4.8c-4.3,1.3-9.6,2.4-15.1,2.4c-10.5,0-21.8-3.6-28.3-15.6c-6.6-5.5-14.3-17.3-9.7-34.4
		c-2.4-7.1-5.6-22,4.1-36.6c0.3-0.4,0.6-0.8,0.9-1.2l-7.8-15.3c-1.2,15.3-6.4,30.8-18.1,45.3c2.2,17,6.4,74.6-27.1,119.9
		c-14.7,19.8-34.5,34.5-59.2,43.9c39,99.6,52.5,163.1,56.3,184.2c8.1,1.9,17.8,4.9,28.3,9.6c8.1,3.5,16.9,8,25.6,13.9
		c34.4,23.1,52.4,56.8,52.1,97.5c-0.1,22.7-8.3,41.4-24.2,55.4c-15.9,14.1-37.4,21.5-58.3,25.3l-0.1,0.3l-6.5,0.8
		c-13.5,2-26.5,2.6-37,2.6c-14.3,0-24.2-1.1-25.3-1.2c-216.9-24.8-291.8-28.7-475.1-6.9c-21.4,2.6-41.3,4-59.7,4.3
		c-3.2,0.1-6.3,0.2-9.4,0.2c-7.9,0-15.6-0.4-22.5-0.9c-12.7-0.8-24.4-2.3-35.2-4.4l-1.7-0.3l0,0c-17.9-3.6-33.2-9.1-45.9-16.4
		c-28.9-16.6-33.5-36.7-34.1-39.7c-6.6-34-1.2-63.4,15.8-87.3c18.1-25.5,45.7-39.2,66.3-46.3c7.2-2.8,13.9-4.8,19.9-6.3
		c8.5-62.6,37.5-140,56.3-185.5c-23.5-9.4-42.5-23.8-56.7-42.9c-33.5-45.3-29.3-102.9-27.1-119.9C112.1,699,107.8,678.5,109,659
		c-13.6-7.2-36.5-29.1-36.5-94.6c0-72.7,40.7-86.3,57.7-88.8c0.1-1.7,0.2-3.4,0.4-5.1c1.3-16.1,6.2-65.6,19.3-87.7
		c-4.7-5.5-7.5-12.5-7.7-20l-1.3-46.8c-0.4-13,4.7-25.6,13.6-34.8c-2.5-16.5-6.2-59.5,14.2-104.5c11.7-25.9,29.6-48.2,53.1-66.4
		C249.9,88.6,286.3,72.6,330,63c28.9-6.4,56.3-13,82.9-19.4C492,24.6,560.6,8.1,624.4,8.1c1.2,0,2.4,0,3.5,0
		c71.5,0.7,130.8,23.1,186.6,70.4c49.8,42.2,79.2,141.1,87.3,294c6,112.7-1,230.4-6.9,300.9c8.3,2.5,21.4,9.3,26.6,27.5
		C929.9,709,939.9,725.2,930.8,743.1z M160.9,315.6l1.3,46.8c0.1,4.1,2.1,7.6,5.6,9.8c2.1,1.3,4.5,1.9,6.8,1.8
		c1.2-0.2,2.5-0.5,3.9-0.9c0.1-0.1,0.3-0.1,0.4-0.1c3.6-1.6,7.5-3.3,11.8-5.1c0,0,0.1,0,0.1-0.1c22.9-13.1,81.4-32.3,171-43.4
		c0.1,0,1.5-0.2,4-0.4c29.8-3.6,62.5-5.8,98-6c1.6,0,3.1,0,4.7,0c0.9,0,5.6-0.1,14.2,0.1c141.4,2.1,237,36.4,282.2,57
		c3.6,1.7,6.6,0.2,7.7-0.5c0.5-0.3,1.3-1,2.1-1.9c0.4-1,1.1-3.3,1.6-7.5v-24.4c-0.3-4.4-0.5-8.5-0.8-12.2c-0.7-12.8-1.2-21-3.4-27.2
		c-2.3-4.1-5.4-7.8-9.2-10.7c-2.6-1.9-5.6-4-9.1-6.1c-0.8-0.4-1.7-0.8-2.6-1.3c-17.8-8.9-50.4-25.3-116.5-36.4
		c-42.1-6.8-96.2-11.3-165.7-11.3c-86.7,0-158.6,7.1-213.6,21.1c-34.7,8.8-57.3,19-71.7,27.8c-2.9,1.8-5.7,3.7-8.4,5.6l0,0
		c-0.2,0.1-0.3,0.2-0.5,0.3c-1.1,0.8-2.2,1.6-3.2,2.4C164.6,298.2,160.6,306.8,160.9,315.6z M149.9,533.5c2.2,22.4,6.5,36.6,8.9,43
		c0,0.1,0.1,0.3,0.1,0.4c9.4,2.5,28.6,6,44.3,8.7c-11.1-31.3-9.6-70.1,4.3-113.1c11.3-34.7,26.6-59.8,27.2-60.9l5.5-8.9l8.7,5.9
		c16.3,11.1,34.8,12.5,55.1,4.1c16.2-6.7,27.5-17.2,27.6-17.3l4.9-4.7l6.2,2.8c32.3,15,72.6-15.3,73-15.7l6.9-5.3l6.2,6.1
		c1.5,1.4,37.2,34.9,81.4-0.6l6.1-4.9l6.2,4.8c0.4,0.3,40.7,30.6,73,15.6l6.2-2.9l4.9,4.7c0.1,0.1,11.4,10.7,27.6,17.3
		c20.3,8.4,38.8,7,55.1-4.1l8.7-5.9l5.5,8.9c0.6,1.1,16,26.1,27.2,60.9c14,43,15.4,81.9,4.3,113.2c3.8-0.6,7.5-1.3,11.2-1.9
		l24.3-4.6c3.8-0.8,7-1.5,9.5-2.2l0.1-0.1c0-0.1,0.1-0.2,0.1-0.3c1.9-5,4.9-14.7,7.2-29.3c2.5-18.3,3.2-41.3,1.8-66.8
		c-0.4-7.8-1-15.4-1.7-22.6c-2-16-5.2-36.4-9.8-53.8c-4.8-2.7-14.1-7.6-21.1-10.5h-0.1C680,361.3,582.8,345.8,577.6,345
		c-48.3-5.1-80.8-6.5-96.9-6.8c-3.9-0.1-7.8-0.1-11.8-0.1c-1.7,0-3.3,0-4.9,0c-41.4,0.3-84.7,4.7-96.5,6
		c-76.9,9.3-133.4,27.7-168.1,42c-5.1,2.8-9.8,4.7-14.1,6c-2.7,1-5.5,1.6-8.4,1.9c-4.2,0.6-7.8,0.7-10.6,0.5
		c-5.8,10.8-12.6,38.9-15.7,77.9C148.8,494.5,148.6,515.5,149.9,533.5z M468.7,602.9c0.5,0,1,0,1.5,0c20.3-0.2,38.1-10.5,48.8-26.1
		c6.6-10.1,9-19.7,9.9-25.9c0.3-2.5,0.5-5.1,0.5-7.7c0-32.9-26.9-59.7-59.9-59.7c-32.4,0-58.8,25.8-59.9,57.8
		c0.3,1.1,0.5,2.3,0.5,3.5c0,6.2,1.4,18.7,10.6,32.1c2.6,3.9,5.3,7.1,7.9,9.9C439.1,596.6,453.2,602.7,468.7,602.9z M414.4,600.9
		c-13.7-13-22.8-30.8-24.5-50.7c-0.2,0-0.3-0.1-0.5-0.1c-7.5-1.3-19.9-3.6-58,8.1c-35.1,10.8-57,26.1-73,37.3
		c-6,4.2-11,7.7-15.6,10.1c6.5,7.7,21,21.8,46,30.2c15.4,5.2,32.1,7.4,50.1,6.7c21.2-1.6,44.6-7.2,70-16.8c1.3-0.6,11.3-5,21.9-11.9
		C425.6,610.9,420,606.7,414.4,600.9z M505.2,615.4c5.7,3.6,12.4,7.2,19.9,10.4c2,0.8,4.1,1.6,6.3,2.4c3.4,1.3,6.8,2.4,10.2,3.5
		c1.1,0.3,2.3,0.7,3.5,1c23.9,6.3,45.4,9.5,64.6,9.5c7.1,0,14-0.5,20.5-1.3c6.6-1.1,13-2.7,19.2-4.8c25-8.4,39.5-22.5,46-30.2
		c-4.6-2.4-9.7-6-15.6-10.1c-16-11.2-37.9-26.5-73-37.3c-37.9-11.7-49.5-9.5-56.5-8.2c-0.3,0.1-0.6,0.1-1,0.2
		c-0.1,1.1-0.3,2.3-0.4,3.6c-1.7,12.6-6.3,24.2-13.2,34.2c-0.2,0.4-0.4,0.7-0.7,1.1C526.7,601,516.8,609.8,505.2,615.4z M707,589.2
		c1,0.4,1.9,0.8,2.8,1.4c0.8-0.4,1.7-0.7,2.5-1c0.2-1.3,0.6-2.5,1.1-3.7c25.2-56.3-9-130.3-22.2-155.2c-19.9,9.9-42.2,10-65.3,0.3
		c-12.6-5.3-22.5-12.3-28.1-16.8c-32.9,11.3-67.2-7.1-81.2-16c-27.9,19.6-53.2,18.1-70,12.9c-11.2-3.4-19.9-8.8-25.4-12.8
		c-10.9,7-33.9,19.4-58.9,19.4c-7.3,0-14.7-1-22-3.6c-5.6,4.5-15.5,11.5-28.1,16.8c-23.1,9.7-45.4,9.5-65.3-0.3
		c-13.2,24.9-47.4,98.9-22.2,155.2c0.5,1.2,0.9,2.3,1.1,3.6c0.9,0.2,1.8,0.6,2.6,0.9c0.8-0.5,1.6-0.9,2.5-1.2
		c3.5-1.3,9.3-5.3,15.9-10c16.1-11.3,40.5-28.3,78.6-40.1c39.4-12.1,55.6-10.7,65.2-9.1c6.3-37.7,39.2-66.5,78.8-66.5
		s72.5,28.8,78.8,66.5c9-1.6,24.4-3.1,64.1,9.1c38.1,11.7,62.5,28.8,78.6,40.1C697.7,583.9,703.5,587.9,707,589.2z M138.1,583.4
		c0.2-0.3,0.5-0.6,0.7-0.9c-4.5-11.6-7.5-28-8.9-47.5c-1.1-11.1-1.6-24-1.2-38.6c-14.3,3.7-36.2,17.5-36.2,68.1
		c0,39.9,9.4,62.7,20.1,72.8C119,613,131.6,592.7,138.1,583.4z M128,1240.3c-10.3-51.8-15-108.3-16.7-134.7
		c-9.8,6.3-19.2,14.4-26.5,24.7c-13.7,19.3-17.9,43.5-12.4,71.8l0,0c0.2,0.9,3.7,15,26.8,27.3C106.3,1233.4,115.7,1237.2,128,1240.3
		z M190.5,1247.4c-5.3-31.8-19.3-119.6-20.4-163.1l-5.1,0.7c-0.2,0-10.6,1.6-24.4,6.5c-3.2,1.3-6.5,2.8-9.9,4.5
		c1.2,20.9,6,90,18.5,148.5c3.3,0.5,7.7,1,12.8,1.5C170.7,1246.8,180.1,1247.3,190.5,1247.4z M809.9,1246.1
		c15.1-3.5,29.7-9.4,40.5-19c11.6-10.3,17.3-23.6,17.4-40.6c0.2-33.2-13.6-59.9-41.1-79.3C824.9,1135.2,820.2,1193.7,809.9,1246.1z
		 M767.9,1084.5c-1.1,44.4-15.4,134.3-20.5,165.3c16.7,1.1,32.7,0.3,41.5-0.4c12.5-59.6,17.3-131.8,18.5-153.2c-2-1-3.9-2-5.9-2.8
		c-14.6-6.2-26.4-8.4-29-8.6L767.9,1084.5z M706.4,887.4c-7.3,1.8-14.9,3.3-22.8,4.3c-6.4,5.9-24.4,21.2-48.7,33.5
		c-38.7,19.6-75.9,22.2-107.9,7.7c-16.3,10-34.6,15.1-54.1,15.1c-8.3,0-16.9-0.9-25.6-2.8c-15.8-3.4-28.4-9.1-34.9-12.5
		c-32.1,14.7-69.4,12.2-108.3-7.5c-24.3-12.3-42.2-27.7-48.7-33.5c-8.9-1.2-17.3-2.8-25.3-5c-17.8,43.1-45.5,116.6-54.7,176
		c3-0.2,4.9-0.2,5.2-0.1l3,0.1c9.7-0.3,16.4,0.4,16.9,0.5c5.5,0.6,9.4,5.6,8.8,11.1c-0.6,5.5-5.6,9.4-11.1,8.8c-0.1,0-3.1-0.3-8-0.4
		c0.7,41.9,15.9,135.7,20.6,164.5c14.5-0.5,30.4-1.8,48.1-3.9c182.1-21.7,258.3-18.3,468.3,5.6c4.7-28.5,19.8-122.8,20.7-165.6
		c-4.8-0.1-7.2,0-8.3,0.1c-1.6,0.7-3.4,1-5.2,0.7c-5.5-0.7-9.4-5.7-8.7-11.2c1.1-9,11-9.5,14.2-9.6c2-0.1,4.4-0.1,7.2-0.1v-0.3
		l10.3-0.3c0.2,0,1.4,0,3.4,0.1C755.7,1037.3,741.4,976.7,706.4,887.4z M809.5,655c-0.6-1.2-1.1-2.5-1.4-3.8
		c-1.4-7.8-7.3-34.4-23.3-54.5c-0.7,0.2-1.5,0.4-2.2,0.6l-8,1.5c-7.4,1.6-16.4,3.3-25.2,4.8l-19.1,3.7c-1.3,0.2-2.6,0.3-3.9,0.2
		c-2.9,0.5-5.6,0.9-7.8,1.3c-19.5,28.5-47.1,45.8-82.1,51.4c-1.7,0.3-3.4,0.5-5.1,0.7c-8.3,1.3-16.9,2-25.8,2
		c-21.8,0-45-4-69.7-11.9c-6.3-1.8-12.5-4.1-18.5-6.6c-16.4-6.4-26.9-12.4-35.3-19.8c-0.7-0.7-1.4-1.4-2-2.1
		c-2.2,0.3-4.3,0.4-6.5,0.5c-0.1,0-0.2,0-0.3,0c-0.8,0-1.6,0.1-2.5,0.1c-0.5,0-1,0-1.5,0c-0.6,0-1.2,0-1.9,0c-0.2,0-0.4,0-0.7,0
		c-0.6,0-1.2,0-1.8-0.1c-2.7-0.1-5.1-0.3-7.3-0.5c-0.6,0.8-1.2,1.5-2,2.2c-9.5,8.4-21.7,14.9-42.4,22.5
		c-26.1,9.5-50.7,14.7-73.7,15.7c-25.7,1.9-48.7-1.5-69-10.1c-30.4-13-45.5-34.3-51-43.9c-2.2-0.3-4.7-0.7-7.5-1.2
		c-0.5,0-1,0.1-1.4,0.1c-1,0-1.9-0.1-2.9-0.3l-52.3-10c-0.6-0.1-1.1-0.2-1.7-0.4c-15.8,20.1-21.7,46.5-23.1,54.3
		c-0.2,1.4-0.7,2.6-1.3,3.8c-2.2,17.8,1,36.7,15.6,53l3.3,3.6l-0.9,4.8c-0.1,0.6-10.9,63.8,22.9,109.3
		c11.9,16.1,28.1,28.2,48.3,36.2l19.2,6.1c7.3,1.8,15,3.2,23.1,4.2l3.4,0.4l2.4,2.4c0.2,0.2,19.3,18.8,46.6,32.5
		c35.2,17.7,67,19.3,94.5,4.9l5.1-2.6l4.9,3c0.1,0.1,14.3,8.7,34.2,12.8c25.8,5.4,48.8,1.2,68.5-12.6l5-3.5l5.4,2.8
		c27.5,14.4,59.3,12.7,94.5-4.9c27.3-13.7,46.5-32.3,46.6-32.5l2.4-2.4l3.4-0.4c7.3-0.9,14.3-2.1,21-3.6l19.2-5.8
		c21.2-8,38.1-20.4,50.4-37.1c33.8-45.5,23-108.7,22.9-109.4l-0.9-4.8l3.3-3.6C808.5,691.7,811.6,672.8,809.5,655z M842.6,603.9
		c2.4-10.7,3.9-23.7,3.9-39.4c0-18.6-2.9-32.2-7.4-42.2c-2.5-5-5.5-9.3-9-13c-6.6-6.9-14-10.4-19.8-12.2c0.5,20.6-0.9,37.7-2.9,51.3
		c-1.6,12.6-4.1,24.1-7.7,33.5c0.4,0.5,0.8,1,1.2,1.5c6.5,9.3,19.1,29.6,25.5,53.8c0.1-0.1,0.2-0.1,0.2-0.2
		C830.8,632.3,837.9,622.2,842.6,603.9z M863.3,693.5c1.9,2.4,3.6,3,4.7,3c0.4,0,0.7-0.1,1-0.1c0.1,0,0.3-0.1,0.4-0.1h0.1
		c0.8-0.2,2-0.8,2.7-1.9c0.3-0.5,0.5-1.1,0.8-1.8c0.1-0.2,0.1-0.5,0.1-0.8c6-66,15.1-195.2,8.6-318.2
		c-3.6-67.3-11.4-124.5-23.3-169.8c-13.7-52.5-32.9-89.5-57-109.9C688.3-2,574.7,25.3,417.4,63.2c-26.6,6.4-54.1,13-83.2,19.5
		c-74.5,16.4-124,50.8-147.4,102.3c-14.7,32.5-15.4,63.9-13.9,82.4c23.9-14.9,54.4-26.2,93-34.6c53.2-11.5,123.2-17.4,208.2-17.4
		c70.4,0,124.2,5,165.4,12c15.2,2.5,29.4,5.4,42.8,8.6c33.6,8.2,60.9,18.6,81.3,31.1c15.6,7.9,23.1,16.2,27,26.6
		c3.6,7.3,5.6,15.5,5.6,23.9V340c0.7,10.2,0.7,18.9,0,25.9v1.8c0,5.3-1.5,10.4-4.2,14.7c1.5,4.1,2.9,8.5,4.1,13
		c4.3,11.1,8.5,32.9,11.1,58.6c1.1,8.7,1.9,16.3,2.4,21.7c12.4,2,35.8,9.8,48.3,39.7c6.6,14.5,9.7,32.3,9.2,53.3
		c-0.4,15-2.2,27.7-4.8,38.4c-4.8,21.9-13,35.2-21,43.2c-0.1,0.1-0.1,0.2-0.2,0.2L863.3,693.5z M906.3,714.4l-2.9-2.2l-0.7-3.6
		c-1.4-6.7-4.6-11.4-9.5-14.2c-0.3,1.7-0.8,3.3-1.3,4.8c-0.2,0.5-0.4,1-0.6,1.5c0,0.1-0.1,0.1-0.1,0.2c-0.1,0.3-0.2,0.6-0.4,0.9
		c-4.2,9.7-11.8,13.3-17.2,14c-0.3,0.1-0.5,0.1-0.8,0.2h-0.1h-0.1c-2.2,0.4-4.4,0.6-6.5,0.4l0,0c-0.3,0-0.7-0.1-1-0.1
		c-5.6-0.6-10.8-3.1-14.8-7c-0.5,5.9,1.7,10.6,1.9,11.2l2.1,3.9l-1.6,4c-3.8,10.4,1.1,15,2.8,16.2l2.9,1.6l1,2.8
		c4.9,10.8,21.4,4.6,22.1,4.3l3-1.2l3.1,0.8c6.4,1.5,11.4,1.1,15.3-1.5c6.7-4.3,8.7-13.7,8.7-13.8l0.3-1.6l0.8-1.5
		C918.4,724.4,907.6,715.4,906.3,714.4z M706.8,1026.9c5.2,1.8,8,7.5,6.2,12.7c-0.9,2.5-12.8,36.2-34,69.8c-0.2,0.7-0.5,1.3-0.9,1.9
		c-14.5,26-28.8,38.3-34.3,42.4c-1,0.7-2,1.3-3.1,1.7c-8.3,7.1-17.3,12.9-26.9,16.9c-9.3,3.9-18.7,5.8-28.1,5.8
		c-11,0-22.1-2.7-33.1-8c-15.1-7.3-24.7-19-28.6-34.8c-13.9-55.9,52.1-146.8,54.9-150.6c3.3-4.5,9.5-5.4,14-2.2s5.4,9.5,2.2,14
		c-6.4,8.8-16.3,23.7-25.8,41.1c33.5,22,79.7,44.7,97.5,53.3c17.2-29.4,27.1-57.4,27.3-57.9C695.9,1027.9,701.6,1025.1,706.8,1026.9
		z M616.9,1148.3c-21.7-11.4-54.9-31.5-73.7-43c-1.5,9.2-1.6,17.8,0.3,25.3c2.5,9.9,8.3,17,17.9,21.6c15.2,7.4,29.9,7.9,44.8,1.7
		C609.8,1152.4,613.4,1150.5,616.9,1148.3z M656,1108c-18.9-9.1-61.2-30.1-94.1-51.2c-3.8,8.2-9.2,20.1-12.5,28.8
		c30.4,18.8,67.5,40.7,84.6,48.9C642.1,1126.8,649.4,1117.6,656,1108z M356.7,984.8c2.8,3.8,68.6,94.7,54.7,150.6
		c-4,15.8-13.6,27.6-28.7,34.8c-11,5.3-22.1,8-33.1,8c-9.4,0-18.8-1.9-28.1-5.8c-61.3-25.5-97.4-128.4-98.9-132.7
		c-1.8-5.2,1-10.9,6.2-12.7c5.2-1.8,10.9,1,12.7,6.2c0.2,0.5,10,28.6,27.3,58c18.5-8.9,64-31.2,97.6-53.2
		c-9.5-17.4-19.4-32.5-25.8-41.3c-3.3-4.5-2.3-10.7,2.2-14S353.4,980.4,356.7,984.8z M392.3,1105.5c-18.8,11.5-52.6,31.7-73.9,42.7
		c3.5,2.2,7.1,4.2,10.9,5.7c14.9,6.2,29.5,5.6,44.8-1.7c9.6-4.6,15.5-11.7,17.9-21.6C393.8,1123.2,393.7,1114.6,392.3,1105.5z
		 M373.9,1056.9c-32.5,20.9-74.1,41.6-93.8,51c10.1,13.7,17.6,21.8,22,26.1c16.8-7.9,54.1-29.9,84.2-48.3
		C383.1,1076.9,377.6,1064.8,373.9,1056.9z"/>
</g>
</svg>
