<?xml version="1.0" encoding="utf-8"?>
<!-- Generator: Adobe Illustrator 27.7.0, SVG Export Plug-In . SVG Version: 6.00 Build 0)  -->
<svg version="1.1" id="레이어_1" xmlns="http://www.w3.org/2000/svg" xmlns:xlink="http://www.w3.org/1999/xlink" x="0px"
	 y="0px" width="2638.2px" height="1706.7px" viewBox="0 0 2638.2 1706.7" style="enable-background:new 0 0 2638.2 1706.7;"
	 xml:space="preserve">
<style type="text/css">
	.st0{fill:#FFFFFF;}
	.st1{fill:#141414;}
	.st2{fill:#E5E3E3;}
	.st3{fill:#FFDDD4;}
</style>
<path class="st0" d="M2027.5,1433.7H114.1c-8.7,0-15.8-7-15.8-15.7V94c0-8.6,7.1-15.7,15.8-15.7h1913.4c8.7,0,15.8,7,15.8,15.7v1324
	C2043.2,1426.7,2036.2,1433.7,2027.5,1433.7z"/>
<path class="st1" d="M2024.6,19H121.1c-56,0-101.4,45.4-101.4,101.4v1292.9c0,56,45.4,101.4,101.4,101.4h1903.5
	c56,0,101.4-45.4,101.4-101.4V120.4C2126,64.4,2080.6,19,2024.6,19z M2043.2,1395.8c0,21.8-17.9,39.5-40,39.5H142.5
	c-22.1,0-40-17.7-40-39.5v-1258c0-21.8,17.9-39.5,40-39.5h1860.8c22.1,0,40,17.7,40,39.5v1258H2043.2z"/>
<path class="st2" d="M1516.2,991.6h-49.9c-6,0-8.8,7.5-4.2,11.4l35.3,30.1c8.3,7.1,17.9,12.5,28.2,15.9l1033.1,332.8
	c0,0,54.8,22.1,65.5-24.2c11-47.7-17.6-53.9-45.7-61.5c-17.8-4.8-927.8-269.8-1039.4-301.4C1531.6,992.6,1523.9,991.6,1516.2,991.6z
	"/>
<path class="st3" d="M1737.1,1051.9c1.2-2.8,3.6-6.7,6.6-11.1C1741.2,1044.6,1738.9,1048.4,1737.1,1051.9l43.5,12.6l48.8,14.2
	l17.4-14.6v-0.1c0.4,0.4,0.9,0.8,1.3,1.2c10.9,10.4,13,20.9,13,20.9l466.8,137.7c-99.6-59.1-141.5-173.2-186.9-232.2
	c-45.4-59-94.9-33-152.1-76.3s-94.7-33.7-94.7-33.7c-70.7-49.5-77-67.2-147.7-90.8s-103.7,46-114,83.1s-21.3,60.1-49.1,113.2
	c-3.1,5.9-5.2,11.3-6.6,16.2v1.5l97.5,28.7L1737.1,1051.9z M1815.2,1030.6L1815.2,1030.6L1815.2,1030.6
	C1815.1,1030.6,1815.2,1030.6,1815.2,1030.6z M1783.8,991.6L1783.8,991.6L1783.8,991.6L1783.8,991.6z M1758.5,956.4
	c-8.4-11.5-15.9-21.8-17.1-23.3C1745.7,938.4,1751.5,946.5,1758.5,956.4z M1739,931.7c-2.3-0.2-4.4,2.3-4.4,2.3
	C1735.4,932.1,1737.3,931.3,1739,931.7z M2580,1517.3l-212.3,167.2c-70.1-58.7-119.6-112.9-153.1-140.9
	c-25.8-21.5-66.7-26.1-100-30.7c-142.5-19.4-140.1-62.3-291.3-134.1c-164.9-78.3-178.7-115.4-186.9-149.8c-8.2-34.4-26.1-66-26.1-66
	c-9.8-11.9-17-22.6-22.1-32.2c-1.5-2.2-2.9-4.5-4.3-7c0-0.1-0.1-0.2-0.1-0.2c-0.3-0.5-0.6-1-0.8-1.5c-0.1-0.1-0.1-0.2-0.2-0.3
	c-0.3-0.5-0.5-1-0.8-1.5c-0.1-0.1-0.1-0.2-0.2-0.3c-0.3-0.6-0.6-1.2-0.9-1.8v-0.1c-0.6-1.3-1.2-2.6-1.7-3.9c0-0.1-0.1-0.2-0.1-0.3
	c-0.2-0.5-0.4-1.1-0.6-1.6c-0.1-0.2-0.1-0.4-0.2-0.5c-0.2-0.5-0.4-0.9-0.5-1.4c-0.1-0.2-0.1-0.4-0.2-0.6c-0.2-0.5-0.3-0.9-0.5-1.4
	c-0.1-0.2-0.1-0.4-0.2-0.6c-0.2-0.5-0.3-1-0.5-1.6c0-0.1-0.1-0.3-0.1-0.4c-0.4-1.3-0.7-2.7-1-4.1c0-0.2-0.1-0.4-0.1-0.6
	c-0.1-0.5-0.2-1-0.3-1.5c0-0.2-0.1-0.5-0.1-0.7c-0.1-0.4-0.1-0.9-0.2-1.3c0-0.3-0.1-0.5-0.1-0.8c0-0.4-0.1-0.9-0.1-1.3
	c0-0.2,0-0.5-0.1-0.7c0-0.5-0.1-1-0.1-1.5c0-0.2,0-0.4,0-0.6c0-0.7,0-1.4,0-2.1l0,0c0-0.7,0-1.3,0.1-2c0-0.2,0-0.4,0.1-0.7
	c0-0.5,0.1-0.9,0.1-1.4c0-0.3,0.1-0.5,0.1-0.8c0.1-0.4,0.1-0.9,0.2-1.3c0-0.3,0.1-0.5,0.1-0.8c0.1-0.4,0.2-0.9,0.3-1.3
	c0.1-0.3,0.1-0.5,0.2-0.8c0.1-0.5,0.2-0.9,0.4-1.4c0.1-0.2,0.1-0.4,0.2-0.7c0.2-0.7,0.4-1.4,0.7-2.1c0,0,0,0,0-0.1
	c0.2-0.7,0.5-1.3,0.8-2c0.1-0.2,0.2-0.4,0.3-0.7c0.2-0.5,0.4-0.9,0.6-1.4c0.1-0.3,0.3-0.5,0.4-0.8c0.2-0.4,0.4-0.9,0.7-1.3
	c0.1-0.3,0.3-0.5,0.4-0.8c0.2-0.4,0.5-0.9,0.8-1.3c0.2-0.3,0.3-0.5,0.5-0.8c0.3-0.5,0.6-0.9,0.9-1.4c0.2-0.2,0.3-0.4,0.4-0.7
	c0.5-0.7,1-1.3,1.5-2l0,0c0,0,1.4-1.8,4.3-4.2c0.2-0.1,0.4-0.3,0.6-0.5c0.1-0.1,0.2-0.2,0.3-0.3c1.3-1,2.8-2.1,4.6-3.1
	c0.2-0.1,0.5-0.3,0.7-0.4c0.1-0.1,0.2-0.1,0.4-0.2c2.9-1.6,6.5-3.2,10.8-4.5c0,0,21.4-10.7,49.7,0c57.2,20.9,100.2,111.5,131,128.5
	c13.9,7.7,36.7,11.1,60.6,12.4c11.6-7,18.8-33.5,18.8-33.5l92.3,29.7l474,152.7C2431.9,1340.9,2548.9,1477.1,2580,1517.3z
	 M1730.5,1115l32.8,10.6l-17.7,10.6L1730.5,1115z"/>
<path d="M2582.7,1289.5l-2.3-0.6c-5.8-1.6-112.2-32.5-250.4-72.6c-68.5-41.4-109.9-111-143.2-167.1c-13.7-23.1-26.7-45-39.9-62.2
	c-27-35.2-56.5-42.2-85-49c-21.9-5.2-44.6-10.6-68.5-28.7c-49.9-37.8-86.1-37-97.4-35.6c-19.1-13.5-33.2-24.4-45.6-34
	c-31.2-24.2-50.1-38.8-101.5-55.9c-23.8-7.9-45.8-6.7-65.2,3.6c-37,19.7-53.1,65.7-58.4,84.6c-10.3,37.1-21.5,60.1-48.5,111.8
	c-2.2,4.2-4,8.4-5.5,12.4c-12.9-3.7-23.1-6.6-30.2-8.6c-8.1-2.3-16.4-3.4-24.8-3.4h-49.9c-5.9,0-11.1,3.6-13.1,9.1s-0.5,11.6,4,15.5
	l35.3,30.1c9.1,7.7,19.4,13.6,30.8,17.3l47.5,15.3c-7.1,16.2-5.1,34.9,5.9,55c1.6,2.9,3.3,5.6,5,8.2c5.5,10.4,13,21.3,22.4,32.7
	c2.4,4.3,17.7,33,25,63.5c4.5,18.9,10.8,37.8,36.9,62.1c28.7,26.7,79.1,57.1,154.1,92.7c56.5,26.8,92,50,120.5,68.6
	c49.6,32.4,82.4,53.8,173,66.1l4.8,0.6c32.1,4.3,68.5,9.2,91.5,28.4c13.6,11.3,30.3,27.4,49.5,46.1c26.4,25.5,59,57,97.8,89.9
	c3.2,2.7,7.9,2.3,10.6-0.9c2.6-3.2,2.3-7.9-0.9-10.5c-38.5-32.6-70.8-63.9-97.1-89.3c-19.5-18.8-36.3-35.1-50.4-46.8
	c-26.3-21.9-66.6-27.3-99.1-31.7l-4.8-0.6c-87.2-11.8-118.8-32.5-166.8-63.8c-28.9-18.9-64.9-42.4-122.3-69.6
	c-167.1-79.4-175.8-115.6-182.8-144.8c-8.4-35-26.1-66.6-26.9-67.9l-0.3-0.6l-0.4-0.5c-1-1.2-2-2.4-3-3.7
	c9.7-21.6,21.3-27.9,30.6-32.9c5.8-3.1,11.3-6.1,15-11.8c10.3-15.8,0.5-31.7,0.1-32.4l-0.1-0.1c-6.2-9.3-12.5-16.8-18.8-22.4
	c37.9,5.5,70.5,47.7,97.9,83.2c0.6,0.8,1.2,1.6,1.8,2.3l2.5,3.3l1.7,2.1c14.3,18.3,26.9,33.6,38.8,40.2
	c24.4,13.5,78.1,14.5,112.5,13.6c4.2-0.1,7.4-3.6,7.3-7.8c-0.2-4.1-3.6-7.3-7.7-7.2c-11.2,0.3-21.9,0.3-31.8,0.1
	c3.4-5.8,5.9-12.1,7.6-16.9l66.9,21.6l490.2,157.9c12.6,14.7,108,125.9,141.9,168.6c2.6,3.2,7.2,3.8,10.5,1.3
	c3.3-2.6,3.9-7.3,1.3-10.6c-27.5-34.6-94.5-113.3-126.3-150.5l101.3,32.6c2.2,0.8,15.3,5.7,30.2,5.7c7.8,0,16.1-1.3,23.5-5.2
	c11-5.8,18.3-15.8,21.6-30C2643.9,1305.8,2610,1296.8,2582.7,1289.5z M1590,990.7c27.5-52.7,39-76.2,49.7-114.7
	c3.7-13.3,18.3-58,51-75.4c15.7-8.3,33.6-9.2,53.4-2.6c49,16.3,66.1,29.5,97.1,53.6c13,10.1,27.8,21.6,48.2,35.9
	c31.9,31.5,53.7,48.5,69.6,60.9c18.8,14.6,28.4,22.1,37.3,39.8c1.8,3.6,6,5.1,9.7,3.5c3.9-1.7,5.6-6.4,3.7-10.2
	c-10.4-20.8-22-29.8-41.5-45c-13.5-10.5-31.2-24.3-55.9-47.7c15.3,1.7,40.4,8.6,72,32.5c26.4,20,51.7,26,74.1,31.3
	c28.3,6.7,52.8,12.6,76.6,43.5c12.7,16.5,25.4,38,38.9,60.7c28.1,47.3,61.8,104.1,112.9,146.9c-16.9-4.9-34.2-9.9-51.6-15
	c-119.1-34.6-250.6-72.8-367.5-106.8c-1.4-4.4-5.2-13.4-14.5-22.2c-0.4-0.4-0.8-0.7-1.2-1.1l-31.2-33l-31-38.7
	c-2.5-3.5-14.6-20.3-25.3-35.1c-7.1-10.1-12.8-18.1-17.3-23.6l0,0l0,0c-0.3-0.4-0.6-0.7-1-1.1c0,0,0,0-0.1-0.1s-0.2-0.2-0.3-0.3l0,0
	c-20.7-26.2-23.5-46-23.5-46.2l-14.9,1.8c0.1,0.9,2.6,20.3,21.3,46.6c-0.2,0.3-0.3,0.5-0.5,0.8l-57.4,95
	c-33.5-9.7-62.4-18-85.1-24.6C1586.9,997.2,1588.3,994,1590,990.7z M1847.9,1076.2c-1-0.3-1.9-0.6-2.9-0.8l1.3-1.1
	C1846.9,1074.9,1847.4,1075.6,1847.9,1076.2z M1750.1,1044.8c8-11.5,21.9-28.2,33.3-41.4c6.7,8.7,13.8,17.7,21.5,26.8l-26.5,25.9
	c-10.2-3-20.2-5.9-30-8.7C1748.9,1046.5,1749.5,1045.6,1750.1,1044.8z M1737,1037.3c-1.4,2-2.6,3.9-3.7,5.7
	c-16.2-4.7-31.8-9.2-46.5-13.5c2.7-3.8,5.3-7.9,7.8-12.3c13.7-23.7,23.8-40.6,31.2-53c6.1-10.2,10.2-17.1,13-22.1
	c3.1,4.2,7.9,10.9,13.5,18.6c0.2,0.3,0.4,0.6,0.6,0.9c6.1,8.7,13.2,18.7,21.2,29.5C1766.1,999.9,1748.6,1019.7,1737,1037.3z
	 M1814.7,1041.5c6.6,7.5,13.6,14.9,20.9,22.1l-8,6.7c-11.1-3.2-22-6.4-32.7-9.5L1814.7,1041.5z M1644.4,1083c0,0,0.7,0.8,1.5,2.2
	c0.1,0.1,0.1,0.2,0.2,0.3c0.2,0.3,0.8,1.4,1.3,3c0.8,2.2,1.3,4.8,0.8,7.7l0,0c-0.1,0.3-0.1,0.7-0.2,1c-0.3,1.5-0.9,3-1.9,4.5
	c-0.2,0.3-0.4,0.5-0.6,0.8l0,0c-7,9.4-26,9.4-39.7,38.5c-0.4,0.9-1.7,1.2-2.4,0.4c-7.7-7.7-40.1-43.3-17-72.4
	c0,0,8.7-11.2,25.3-11.2C1614.2,1057.9,1626.7,1056.9,1644.4,1083z M1844.9,1184c-25.6-1.7-45-5.4-55.1-11
	c-9.1-5-20.6-18.9-33.1-34.8l7.5-4.5l91.9,29.6C1853.4,1171.1,1849.2,1179.9,1844.9,1184z M2616.9,1355.9
	c-2.3,9.8-6.8,16.4-13.9,20.1c-16.5,8.6-41.3-1.1-41.5-1.2l-0.2-0.1l-438.9-141.4l-198-63.8l0,0l-143-46.1l0,0l-28-9l-20.3-6.5
	c-33.2-41.1-75.4-83-126.7-64c-15.1,2.3-24.4,11.1-27.3,14.4l-51-16.4c-9.5-3.1-18.1-8-25.7-14.4l-33.2-28.3h47.1c7,0,14,1,20.8,2.9
	c20.7,5.8,68.5,19.6,132.9,38.3l64.8,18.8l45.2,13.1l49.2,14.3c125,36.3,271,78.7,401.9,116.8c189,54.9,338.3,98.3,345.5,100.3
	l2.4,0.6C2606.2,1311.3,2626,1316.6,2616.9,1355.9z"/>
</svg>
