<?xml version="1.0" encoding="utf-8"?>
<!-- Generator: Adobe Illustrator 27.7.0, SVG Export Plug-In . SVG Version: 6.00 Build 0)  -->
<svg version="1.1" id="레이어_1" xmlns="http://www.w3.org/2000/svg" xmlns:xlink="http://www.w3.org/1999/xlink" x="0px"
	 y="0px" width="3000px" height="3000px" viewBox="0 0 3000 3000" style="enable-background:new 0 0 3000 3000;"
	 xml:space="preserve">
<style type="text/css">
	.st0{fill:#FFFFFF;}
	.st1{fill:#FF9FB4;}
	.st2{opacity:0.1;enable-background:new    ;}
	.st3{fill:#231815;}
</style>
<path class="st0" d="M2855.5,2922.9c-49.9,26.1-681.3,26.1-805.3,32.8s-816-32.8-1122.8-6.7s-689.9-15.1-689.9-15.1s0-12.2,0-32.6
	c-28.9-2.6-45.4-4.4-45.4-4.4s0-11.6,0-31.3c-30.9-2.7-48.6-4.6-48.6-4.6s0-254.2,4.5-389.6c3.9-119.1,2.9-757.2,2.9-757.2
	c9.8-61.2,12.2-565.5,9-653.6c-3.3-88.1-9-308.4-9-381.9s9-366.6,9-366.6l0.7-32.5c0.1-3.8,3.2-6.7,7-6.6
	c47.2,1.2,327.5,8.3,486.3,6.1c173.8-2.4,641.4-9.2,685.4-1.9s351.2-2.7,775.2-4.4c403-1.7,637.7-1.1,643,8.5
	c0.9,1.6,1.5,12.5,1.8,30.3c29.5,1.4,45.5,3.2,46.8,5.6c0.9,1.7,1.5,13,1.8,31.5c27.4,1.4,42.2,3.2,43.5,5.5
	c5.9,10.7-2.9,423.7,2.3,568.7c5.4,151-4.4,609.5-0.8,726.1c0,0,8.8,360-1.9,614.6S2855.5,2922.9,2855.5,2922.9z"/>
<path class="st1" d="M1659,213.9l-9.4,207c-0.1,1.6-1.4,2.9-3,2.9h-3.3h-87.8h-9.6c-2.5,0-4.8-2.1-5.9-5.3l-2-6.2
	c-1-3.1-1-6.3,0-9.4l0.2-0.6c-1-0.2-2.1-0.3-3.1-0.3c-9.6,0-17.4,8.4-17.4,18.7l0,0c0,1.7-1.3,3.1-3,3.1h-123.1c-1.7,0-3-1.4-3-3.1
	l0,0c0-10.3-7.8-18.7-17.4-18.7c-0.9,0-1.7,0.1-2.6,0.2c1.1,3.6,1.1,7.4-0.1,11l-1.7,5.3c-1,3.2-3.4,5.3-5.9,5.3h-10.1l0,0h-91.1
	c-1.6,0-3-1.3-3-2.9l-9.4-207c-0.5-11.8,8.9-21.6,20.7-21.6h370.5C1650.1,192.2,1659.5,202.1,1659,213.9z"/>
<path class="st2" d="M1360.8,423.7h-92.7c-6.3,0-11.4-3.7-11.6-8.4L1256,400c-0.2-4.9,5.1-8.9,11.6-8.9h93.3c2.6,0,4.9,2.1,5.9,5.3
	l1.7,5.3c1.2,3.7,1.2,7.6,0,11.3l-1.7,5.3C1365.7,421.6,1363.4,423.7,1360.8,423.7z"/>
<path class="st2" d="M1545.8,423.7h97.4c3.4,0,6.2-2,6.3-4.6l0.8-23.2c0.1-2.6-2.7-4.8-6.3-4.8h-98.2c-2.5,0-4.8,2.1-5.9,5.3l-2,6.2
	c-1,3.1-1,6.3,0,9.4l2,6.2C1541,421.6,1543.3,423.7,1545.8,423.7z"/>
<path class="st2" d="M1391.7,415.2l6.4-15.2c1-2.3,3.2-3.8,5.7-3.8h99c2.5,0,4.8,1.5,5.7,3.8l6.1,15.2c1.6,4-1.3,8.4-5.7,8.4h-111.5
	C1393,423.7,1390,419.3,1391.7,415.2z"/>
<path class="st3" d="M2861.1,2264c10.6-252,2-611.6,1.9-615.2v-0.1c-1.6-52.5-0.5-176.3,0.7-307.3c1.4-157.5,3.1-335.9,0.1-418.9
	c-2.6-72.8-1.7-213-0.9-336.7c0.4-60.4,0.8-117.5,0.7-159.5c-0.2-71.2-1.6-73.7-3.4-77c-2.9-5.3-8.9-6.9-20.2-8.3
	c-5.7-0.7-13.1-1.3-22.3-1.9c-0.6-22.8-1.6-24.7-2.9-26.9c-2.9-5.3-8.9-6.9-20.2-8.3c-6.4-0.8-14.8-1.4-25.6-2
	c-0.6-21.6-1.6-23.4-2.8-25.6c-2.9-5.3-8.9-6.9-20.2-8.3c-7.9-1-19.1-1.8-34.1-2.5c-28.4-1.3-69.8-2.3-126.7-2.9
	c-119.8-1.2-297-0.8-470.8,0c-171.8,0.7-324.1,2.8-448,4.5l2.4-53c0.4-8.5-2.6-16.5-8.5-22.6s-13.7-9.5-22.2-9.5h-137
	c1.6-6.2,4.2-12.2,7.6-17.6l27.1-42.4c12.8-20,7.4-46.3-12.3-59.7c-19.6-13.4-43-20.2-69.3-20.2c-27,0-51.2,7.1-71.9,21.1
	c-19.3,13-24.7,39.8-12.1,59.5l26.6,41.7c3.5,5.4,6,11.4,7.6,17.6h-137c-8.5,0-16.3,3.4-22.2,9.5c-5.8,6.1-8.9,14.1-8.5,22.6
	l2.3,49.8c-125.7-0.9-345.9,1.7-560.3,4.7l-25.3,0.3c-157.5,2.2-432.4-4.7-485.9-6.1c-4.5-0.1-8.8,1.5-12,4.6
	c-3.3,3.1-5.1,7.3-5.2,11.8l-0.7,32.4c-0.1,2.9-9,294.1-9,366.9c0,72,5.6,291,9,382.2c3.1,84.5,1,589.7-8.9,651.6l-0.1,0.8v0.8
	c0,6.4,1,639.4-2.9,756.9c-4.4,134.1-4.5,387.4-4.5,390v9l8.9,1c0.4,0,14.7,1.6,39.7,3.8c0,13.7,0,21.7,0,22.1v9l8.9,1
	c0.4,0,13.5,1.4,36.4,3.5c0,14.5,0,23.1,0,23.5v9l8.9,1c1,0.1,97.6,10.4,230.4,17.4c65.2,3.4,146.4,6.4,232.2,6.4
	c75.6,0,154.7-2.3,229.2-8.7c198.3-16.9,558.5-6.3,821.5,1.5c143.6,4.2,256.9,7.6,301,5.2c36.8-2,120.5-3.4,217.4-5.1
	c113.1-1.9,253.9-4.3,367.6-8.5c176.7-6.5,212.7-14.3,224.3-20.4l5.6-2.9l-0.2-6.3C2865.3,2918.5,2850.5,2515.3,2861.1,2264z
	 M1638.3,202.2c2.9,0,5.7,1.2,7.7,3.3s3.1,4.9,3,7.9l-7.6,167.7h-92l-49.8-178.8c0-0.1,0-0.1,0-0.2h138.7V202.2z M1640.1,401.1
	l-0.4,12.6H1549l-1.5-4.6c-0.4-1.1-0.4-2.2,0-3.4l1.5-4.6H1640.1z M1502.8,386.3h-99c-6.5,0-12.4,3.9-14.9,9.9l-0.8,1.9
	c-3.5-2.9-7.7-5-12.2-5.8c-0.3-0.8-0.6-1.5-1-2.2l51.3-183.2l0.2-0.9l0.1-0.9c0.1-0.9,0.1-1.9,0.2-2.8h52.9c0.1,0.9,0.1,1.9,0.2,2.8
	l0.1,0.9l51.6,185.1c-0.2,0.4-0.3,0.8-0.5,1.1c-4.7,0.8-9,2.7-12.5,5.6l-0.6-1.4C1515.3,390.3,1509.4,386.3,1502.8,386.3z
	 M1503.2,413.7h-100l3.1-7.4h93.9L1503.2,413.7z M1387.3,112.2c-6.9-10.7-4-25.2,6.4-32.2c17.4-11.7,37.8-17.7,60.7-17.7
	c22.3,0,41.8,5.6,58,16.7c10.7,7.3,13.7,21.6,6.7,32.4l-27.1,42.4c-5.5,8.6-9.3,18.3-11.3,28.4h-55.6c-1.9-10.1-5.7-19.7-11.3-28.4
	L1387.3,112.2z M1257.1,213.4c-0.1-2.9,0.9-5.7,3-7.9c2-2.1,4.8-3.3,7.7-3.3h138.8c0,0.1,0,0.1,0,0.2l-50,178.8h-89
	c-0.9,0-1.9,0.1-2.8,0.2L1257.1,213.4L1257.1,213.4z M1358.9,410l-1.2,3.7h-89.6c-0.7,0-1.3-0.1-1.6-0.3l-0.4-12.1
	c0.4-0.1,0.9-0.2,1.5-0.2h90.2l1.2,3.7C1359.4,406.6,1359.4,408.3,1358.9,410z M158.1,2471.7c3.8-116,2.9-731.1,2.9-756.8
	c9.9-66.1,12.1-570.2,9-654.7c-3.4-91.1-9-309.6-9-381.5c0-72.4,8.9-363.3,9-366.3l0.7-29.3c60.5,1.6,328.5,8.2,483.5,6.1l25.3-0.3
	c137.5-1.9,412.5-5.7,560.9-4.7l6.2,137.2c0.3,7,6,12.4,13,12.4h91.1l0,0h10.1c7,0,13-4.8,15.4-12.3l1.5-4.6
	c0.5,1.1,0.7,2.4,0.7,3.8c0,3.5,1.4,6.8,3.8,9.3c2.5,2.5,5.7,3.8,9.2,3.8h123.1c3.5,0,6.7-1.4,9.2-3.8c2.5-2.5,3.8-5.8,3.8-9.3
	c0-1.7,0.4-3.2,1.1-4.5l1.7,5.4c2.4,7.5,8.4,12.3,15.4,12.3h9.6h87.8h3.3c7,0,12.7-5.5,13-12.4l6.1-134c124.1-1.7,276.8-3.8,449-4.5
	c228.4-0.9,361-1,457.6-0.1c120.9,1.1,163.5,3.7,176.4,5.9c1.7,23.7,1.1,125.5,0.4,224.2c-0.8,123.9-1.7,264.3,0.9,337.5
	c3,82.5,1.3,260.7-0.1,417.9c-1.2,131.2-2.3,255.1-0.7,308.1c0.1,4,8.7,362.7-1.9,613.9c-9.8,233.4,2.2,596.9,4.1,652.8
	c-8,2.1-25.7,5.3-64.6,8.4c-35.9,2.9-83.6,5.5-145.6,7.7c-113.5,4.1-254.2,6.5-367.2,8.5c-97.1,1.7-181,3.1-218.2,5.1
	c-43.2,2.3-156.2-1-299.3-5.2c-263.5-7.8-624.3-18.4-823.8-1.4c-276.5,23.5-619.6-8.3-679-14.2
	C153.7,2805.5,154.1,2591.1,158.1,2471.7z M202.2,2876.5c41.2,3.5,101,8.1,170.8,11.8c65.2,3.4,146.4,6.4,232.2,6.4
	c75.6,0,154.7-2.3,229.2-8.7c198.3-16.9,558.5-6.3,821.5,1.5c143.6,4.2,256.9,7.6,301,5.2c36.8-2,120.5-3.4,217.4-5.1
	c113.1-1.9,253.9-4.3,367.6-8.5c176.7-6.5,212.7-14.3,224.3-20.4l5.6-2.9l-0.2-6.3c-0.2-4-14.9-407.2-4.4-658.5
	c10.6-252,2-611.6,1.9-615.2v-0.1c-1.6-52.5-0.5-176.3,0.7-307.3c1.4-157.4,3.1-335.9,0.1-418.8c-2.6-72.8-1.7-213-0.9-336.7
	c0.4-60.4,0.8-117.5,0.7-159.5c0-12.4-0.1-22.8-0.2-31.4c14.6,0.8,23.1,1.7,27.7,2.5c1.7,23.7,1.1,125.5,0.4,224.2
	c-0.8,123.9-1.7,264.3,0.9,337.5c3,82.5,1.3,260.7-0.1,418c-1.2,131.2-2.3,255.1-0.7,308.1c0.1,4,8.7,362.7-1.9,613.9
	c-9.8,233.4,2.2,596.9,4.1,652.8c-8,2.1-25.7,5.3-64.6,8.4c-35.9,2.9-83.6,5.5-145.6,7.7c-113.5,4.1-254.2,6.5-367.2,8.5
	c-97.1,1.7-181,3.1-218.2,5.1c-43.2,2.3-156.2-1-299.3-5.2c-263.5-7.8-624.3-18.4-823.8-1.4c-276.5,23.5-619.6-8.3-679-14.2
	C202.2,2884.8,202.2,2881,202.2,2876.5z M2845.2,2916c-8,2.1-25.7,5.3-64.6,8.4c-35.9,2.9-83.6,5.5-145.6,7.7
	c-113.5,4.1-254.2,6.5-367.2,8.5c-97.1,1.7-181,3.1-218.2,5.1c-43.2,2.3-156.2-1-299.3-5.2c-263.5-7.8-624.3-18.4-823.8-1.4
	c-276.5,23.5-619.6-8.3-679-14.2c0-3.4,0-7.7,0-12.7c41.3,3.6,102.4,8.3,174,12.1c65.2,3.4,146.4,6.4,232.2,6.4
	c75.6,0,154.7-2.3,229.2-8.7c198.3-16.9,558.5-6.3,821.5,1.5c143.6,4.2,256.9,7.6,301,5.2c36.8-2,120.5-3.4,217.4-5.1
	c113.1-1.9,253.9-4.3,367.6-8.5c176.7-6.5,212.7-14.3,224.3-20.4l5.6-2.9l-0.2-6.3c-0.2-4-14.9-407.2-4.4-658.5
	c10.6-252,2-611.6,1.9-615.2v-0.1c-1.6-52.5-0.5-176.3,0.7-307.3c1.4-157.4,3.1-335.9,0.1-418.8c-2.6-72.8-1.7-213-0.9-336.7
	c0.4-60.4,0.8-117.5,0.7-159.6c0-11.8-0.1-21.7-0.2-30.1c12.6,0.8,20.2,1.5,24.4,2.3c1.7,23.7,1.1,125.5,0.4,224.2
	c-0.8,123.9-1.7,264.3,0.9,337.5c3,82.5,1.3,260.7-0.1,418c-1.2,131.2-2.3,255.1-0.7,308c0.1,4,8.7,362.7-1.9,613.9
	C2831.3,2496.5,2843.3,2860.1,2845.2,2916z"/>
</svg>
