<?xml version="1.0" encoding="utf-8"?>
<!-- Generator: Adobe Illustrator 27.7.0, SVG Export Plug-In . SVG Version: 6.00 Build 0)  -->
<svg version="1.1" id="레이어_1" xmlns="http://www.w3.org/2000/svg" xmlns:xlink="http://www.w3.org/1999/xlink" x="0px"
	 y="0px" width="1080px" height="1080px" viewBox="0 0 1080 1080" style="enable-background:new 0 0 1080 1080;"
	 xml:space="preserve">
<style type="text/css">
	.st0{fill:#87B8C4;}
	.st1{fill:#F4F4F4;}
	.st2{fill:#248DAA;}
	.st3{fill:#FFFFFF;}
	.st4{fill:#707070;}
</style>
<g>
	<path class="st0" d="M1080,14.3v1051.4c0,7.9-6.4,14.3-14.3,14.3H517.5c-4.6,0-8.6-2.1-11.2-5.5c-1.1-1.4-3.2-1.4-4.2,0
		c-2.6,3.3-6.7,5.5-11.2,5.5H14.3c-7.9,0-14.3-6.4-14.3-14.3V14.3C0,6.4,6.4,0,14.3,0h476.5c5.3,0,9.9,2.9,12.4,7.2
		c0.4,0.8,1.5,0.8,1.9,0c2.5-4.3,7.1-7.2,12.4-7.2h548.3C1073.6,0,1080,6.4,1080,14.3z"/>
	<path class="st1" d="M952.6,56.4H517.5c-5.3,0-9.9,2.9-12.4,7.2c-0.4,0.8-1.5,0.8-1.9,0c-2.5-4.3-7.1-7.2-12.4-7.2H61.3
		c-7.9,0-14.3,6.4-14.3,14.3v955.4c0,7.9,6.4,14.3,14.3,14.3h429.4c4.6,0,8.6-2.1,11.2-5.5c1.1-1.4,3.2-1.4,4.2,0
		c2.6,3.3,6.7,5.5,11.2,5.5h435.1c7.9,0,14.3-6.4,14.3-14.3V70.7C966.9,62.8,960.5,56.4,952.6,56.4z M497.3,278.9h-7.9
		c-3.6,0-6.4,2.9-6.4,6.4s2.9,6.4,6.4,6.4h7.9v45.9h-7.9c-3.6,0-6.4,2.9-6.4,6.4s2.9,6.4,6.4,6.4h7.9v497.9h-7.9
		c-3.6,0-6.4,2.9-6.4,6.4l0,0c0,3.6,2.9,6.4,6.4,6.4h7.9V907h-7.9c-3.6,0-6.4,2.9-6.4,6.4l0,0c0,3.6,2.9,6.4,6.4,6.4h7.9v82.6
		c0,9.6-7.8,17.3-17.3,17.3H88.1c-9.6,0-17.3-7.8-17.3-17.3V164.8c0-9.6,7.8-17.3,17.3-17.3H480c9.6,0,17.3,7.8,17.3,17.3V278.9z
		 M937.6,1002.7c0,9.6-7.8,17.3-17.3,17.3H528.4c-9.6,0-17.3-7.8-17.3-17.3v-82.6h7.7c3.6,0,6.4-2.9,6.4-6.4l0,0
		c0-3.6-2.9-6.4-6.4-6.4h-7.7v-45.9h7.7c3.6,0,6.4-2.9,6.4-6.4l0,0c0-3.6-2.9-6.4-6.4-6.4h-7.7v-498h7.7c3.6,0,6.4-2.9,6.4-6.4
		s-2.9-6.4-6.4-6.4h-7.7v-45.9h7.7c3.6,0,6.4-2.9,6.4-6.4s-2.9-6.4-6.4-6.4h-7.7v-114c0-9.6,7.8-17.3,17.3-17.3h391.9
		c9.6,0,17.3,7.8,17.3,17.3L937.6,1002.7L937.6,1002.7z"/>
	<path class="st2" d="M1037.2,338.8H924.3v-59h112.8c7.2,0,13.1,5.9,13.1,13.1v32.8C1050.3,333,1044.4,338.8,1037.2,338.8z
		 M1050.3,394.7v-32.8c0-7.2-5.9-13.1-13.1-13.1H924.3v59h112.8C1044.4,407.8,1050.3,401.9,1050.3,394.7z M1050.3,463.6v-32.8
		c0-7.2-5.9-13.1-13.1-13.1H924.3v59h112.8C1044.4,476.7,1050.3,470.9,1050.3,463.6z"/>
	<path class="st3" d="M1050.3,224.6v32.8c0,7.2-5.9,13.1-13.1,13.1h-99.5v732.2c0,9.6-7.8,17.3-17.3,17.3h-392
		c-9.6,0-17.3-7.8-17.3-17.3v-82.6h7.7c3.6,0,6.4-2.9,6.4-6.4l0,0c0-3.6-2.9-6.4-6.4-6.4h-7.7v-45.9h7.7c3.6,0,6.4-2.9,6.4-6.4l0,0
		c0-3.6-2.9-6.4-6.4-6.4h-7.7v-498h7.7c3.6,0,6.4-2.9,6.4-6.4s-2.9-6.4-6.4-6.4h-7.7v-45.9h7.7c3.6,0,6.4-2.9,6.4-6.4
		s-2.9-6.4-6.4-6.4h-7.7v-114c0-9.6,7.8-17.3,17.3-17.3h391.9c9.6,0,17.3,7.8,17.3,17.3v46.7h99.5
		C1044.4,211.5,1050.3,217.4,1050.3,224.6z M480,147.5H88.1c-9.6,0-17.3,7.8-17.3,17.3v837.9c0,9.6,7.8,17.3,17.3,17.3H480
		c9.6,0,17.3-7.8,17.3-17.3v-82.6h-7.9c-3.6,0-6.4-2.9-6.4-6.4l0,0c0-3.6,2.9-6.4,6.4-6.4h7.9v-45.9h-7.9c-3.6,0-6.4-2.9-6.4-6.4
		l0,0c0-3.6,2.9-6.4,6.4-6.4h7.9v-498h-7.9c-3.6,0-6.4-2.9-6.4-6.4s2.9-6.4,6.4-6.4h7.9v-45.9h-7.9c-3.6,0-6.4-2.9-6.4-6.4
		s2.9-6.4,6.4-6.4h7.9v-114C497.3,155.2,489.6,147.5,480,147.5z"/>
	<path class="st4" d="M1051.3,293.6v32.8c0,7.8-6.3,14.1-14.1,14.1h-98.5v-2h98.5c6.7,0,12.1-5.4,12.1-12.1v-32.8
		c0-6.7-5.4-12.1-12.1-12.1h-98.5v-2h98.5C1044.9,279.5,1051.3,285.8,1051.3,293.6z M1037.2,348.4h-98.5v2h98.5
		c6.7,0,12.1,5.4,12.1,12.1v32.8c0,6.7-5.4,12.1-12.1,12.1h-98.5v2h98.5c7.8,0,14.1-6.3,14.1-14.1v-32.8
		C1051.3,354.8,1044.9,348.4,1037.2,348.4z M1037.2,417.4h-98.5v2h98.5c6.7,0,12.1,5.4,12.1,12.1v32.8c0,6.7-5.4,12.1-12.1,12.1
		h-98.5v2h98.5c7.8,0,14.1-6.3,14.1-14.1v-32.8C1051.3,423.7,1044.9,417.4,1037.2,417.4z M1051.3,224.6v32.8
		c0,7.8-6.3,14.1-14.1,14.1h-98.5v731.2c0,10.1-8.2,18.3-18.3,18.3h-392c-10.1,0-18.3-8.2-18.3-18.3v-81.6h-11.7v81.6
		c0,10.1-8.2,18.3-18.3,18.3h-392c-10.1,0-18.3-8.2-18.3-18.3V164.8c0-10.1,8.2-18.3,18.3-18.3H480c10.1,0,18.3,8.2,18.3,18.3v113
		H510v-113c0-10.1,8.2-18.3,18.3-18.3h391.9c10.1,0,18.3,8.2,18.3,18.3v45.7h98.5C1044.9,210.5,1051.3,216.9,1051.3,224.6z
		 M489.5,279.9c-3,0-5.4,2.4-5.4,5.4s2.4,5.4,5.4,5.4h29.3c3,0,5.4-2.4,5.4-5.4s-2.4-5.4-5.4-5.4H489.5z M526.2,285.3
		c0,3.1-1.9,5.7-4.6,6.9c0.4,0.1,0.7,0.1,1.1,0.1c3.8,0,7-3.1,7-7c0-3.8-3.1-7-7-7c-0.4,0-0.7,0-1.1,0.1
		C524.3,279.6,526.2,282.2,526.2,285.3z M526.2,344.1c0,3.1-1.9,5.7-4.6,6.9c0.4,0.1,0.7,0.1,1.1,0.1c3.8,0,7-3.1,7-7
		c0-3.8-3.1-7-7-7c-0.4,0-0.7,0-1.1,0.1C524.3,338.4,526.2,341,526.2,344.1z M518.8,338.7h-29.3c-3,0-5.4,2.4-5.4,5.4
		s2.4,5.4,5.4,5.4h29.3c3,0,5.4-2.4,5.4-5.4S521.8,338.7,518.8,338.7z M526.2,854.9c0,3.1-1.9,5.7-4.6,6.9c0.4,0.1,0.7,0.1,1.1,0.1
		c3.8,0,7-3.1,7-7c0-3.8-3.1-7-7-7c-0.4,0-0.7,0-1.1,0.1C524.3,849.1,526.2,851.8,526.2,854.9z M518.8,849.4h-29.3
		c-3,0-5.4,2.4-5.4,5.4s2.4,5.4,5.4,5.4h29.3c3,0,5.4-2.4,5.4-5.4C524.2,851.9,521.8,849.4,518.8,849.4z M498.3,862.3v43.9H510
		v-43.9H498.3z M482,854.9c0-3.1,1.9-5.7,4.6-6.9c-0.4-0.1-0.7-0.1-1.1-0.1c-3.8,0-7,3.1-7,7c0,3.8,3.1,7,7,7c0.4,0,0.7,0,1.1-0.1
		C483.9,860.6,482,858,482,854.9z M510.1,351.6h-11.7v495.9h11.7V351.6z M482,344.1c0-3.1,1.9-5.7,4.6-6.9c-0.4-0.1-0.7-0.1-1.1-0.1
		c-3.8,0-7,3.1-7,7c0,3.8,3.1,7,7,7c0.4,0,0.7,0,1.1-0.1C483.9,349.9,482,347.2,482,344.1z M510.1,292.7h-11.7v43.9h11.7V292.7z
		 M482,285.3c0-3.1,1.9-5.7,4.6-6.9c-0.4-0.1-0.7-0.1-1.1-0.1c-3.8,0-7,3.1-7,7c0,3.8,3.1,7,7,7c0.4,0,0.7,0,1.1-0.1
		C483.9,291,482,288.4,482,285.3z M496.3,921.1h-5.9c-1.4,1-3.1,1.5-5,1.5c-4.9,0-9-4-9-9s4-9,9-9c1.8,0,3.6,0.6,5,1.5h5.9v-43.9
		h-5.9c-1.4,1-3.1,1.5-5,1.5c-4.9,0-9-4-9-9s4-9,9-9c1.8,0,3.6,0.6,5,1.5h5.9V351.6h-5.9c-1.4,1-3.1,1.5-5,1.5c-4.9,0-9-4-9-9
		s4-9,9-9c1.8,0,3.6,0.6,5,1.5h5.9v-43.9h-5.9c-1.4,1-3.1,1.5-5,1.5c-4.9,0-9-4-9-9s4-9,9-9c1.8,0,3.6,0.6,5,1.5h5.9v-113
		c0-9-7.3-16.3-16.3-16.3H88.1c-9,0-16.3,7.3-16.3,16.3v837.9c0,9,7.3,16.3,16.3,16.3H480c9,0,16.3-7.3,16.3-16.3V921.1z M482,913.7
		c0-3.1,1.9-5.7,4.6-6.9c-0.4-0.1-0.7-0.1-1.1-0.1c-3.8,0-7,3.1-7,7c0,3.8,3.1,7,7,7c0.4,0,0.7,0,1.1-0.1
		C483.9,919.4,482,916.8,482,913.7z M518.8,919.1c3,0,5.4-2.4,5.4-5.4s-2.4-5.4-5.4-5.4h-29.3c-3,0-5.4,2.4-5.4,5.4s2.4,5.4,5.4,5.4
		H518.8z M526.2,913.7c0,3.1-1.9,5.7-4.6,6.9c0.4,0.1,0.7,0.1,1.1,0.1c3.8,0,7-3.1,7-7c0-3.8-3.1-7-7-7c-0.4,0-0.7,0-1.1,0.1
		C524.3,907.9,526.2,910.6,526.2,913.7z M1049.3,224.6c0-6.7-5.4-12.1-12.1-12.1h-98.5h-2l0,0v-2v-45.7c0-9-7.3-16.3-16.3-16.3h-392
		c-9,0-16.3,7.3-16.3,16.3v113h5.7c1.4-1,3.1-1.5,5-1.5c4.9,0,9,4,9,9s-4,9-9,9c-1.8,0-3.6-0.6-5-1.5h-5.7v43.9h5.7
		c1.4-1,3.1-1.5,5-1.5c4.9,0,9,4,9,9s-4,9-9,9c-1.8,0-3.6-0.6-5-1.5h-5.7v495.9h5.7c1.4-1,3.1-1.5,5-1.5c4.9,0,9,4,9,9s-4,9-9,9
		c-1.8,0-3.6-0.6-5-1.5h-5.7v43.9h5.7c1.4-1,3.1-1.5,5-1.5c4.9,0,9,4,9,9s-4,9-9,9c-1.8,0-3.6-0.6-5-1.5h-5.7v81.6
		c0,9,7.3,16.3,16.3,16.3h391.9c9,0,16.3-7.3,16.3-16.3V271.6v-2h2h98.5c6.7,0,12.1-5.4,12.1-12.1L1049.3,224.6L1049.3,224.6z"/>
</g>
</svg>
