<?xml version="1.0" encoding="utf-8"?>
<!-- Generator: Adobe Illustrator 27.7.0, SVG Export Plug-In . SVG Version: 6.00 Build 0)  -->
<svg version="1.1" id="레이어_1" xmlns="http://www.w3.org/2000/svg" xmlns:xlink="http://www.w3.org/1999/xlink" x="0px"
	 y="0px" width="1425px" height="1641.9px" viewBox="0 0 1425 1641.9" style="enable-background:new 0 0 1425 1641.9;"
	 xml:space="preserve">
<style type="text/css">
	.st0{fill:#FFFFFF;}
	.st1{fill:#FFDDD4;}
	.st2{opacity:0.4;fill:#FAFAFA;enable-background:new    ;}
	.st3{fill:#231815;}
	.st4{opacity:5.000000e-02;fill:#FAFAFA;enable-background:new    ;}
</style>
<g>
	<path class="st0" d="M1135.6,1465.4H671.9c-63.2,0-114.4-51.2-114.4-114.4V125c0-63.2,51.2-114.4,114.4-114.4h463.7
		c63.2,0,114.4,51.2,114.4,114.4v1226.1C1249.9,1414.2,1198.7,1465.4,1135.6,1465.4z"/>
	<path class="st1" d="M1248.7,656V494.3c0,0,148.4-10.7,153.8,79.1C1407.7,660.1,1248.7,656,1248.7,656z M1362.8,1043.7
		c3.2,2.4,49.8,39.6-0.2,118.1c-39.5,62.1-88.6,22.2-105-4c-17.5-27.8-9.7-47.9-0.8-73.3c0,0,38.9,32,71.3,2.4
		c-15.2,12.5-33.8,17.7-59.8,4.7c-46.2-23.1-72.6-96.9-41.6-140.6c0,0,11.1-19.3,45.5-54.3c0,0,0.4,0,1.1-0.1
		c-11.4-0.5-23.5-5.4-36-17.2c-45.7-43-46.3-84.5-11.9-128.3c12.5-15.9,20.9-28.4,20.9-28.4L1246,670c0,0,83.6-10.1,114.4,58.1
		s8.3,97.2-15.6,122.7c-4.2,4.5-9.8,11-16.5,17.7c1.6-0.2,34.8-3.4,59.4,54C1408.6,971.3,1380.9,1017.2,1362.8,1043.7z M1327.7,869
		c-9.5,9.4-21.1,19.1-34.2,24.1C1302.8,889.9,1314.9,883.2,1327.7,869z M1361.6,1045.5c-1.4,2.1-2.8,4-4,5.8
		c-1.6,2.4-3.3,4.7-4.9,7.1C1357.6,1051.9,1360.3,1047.7,1361.6,1045.5z M567.8,1641.8l102.8-176.4c-39.6,0-71.1-24-71.1-24
		c-45.8-38.2-41.6-85.9-41.6-85.9V797.7c26.7-100,25.3-216,25.3-246.7s22.3-58.5-17.7-178.5s-107.8-122.7-145-97.5
		c-19.6,13.3,12,138.7,12,138.7s6.7,95.9-13.9,161.3s-5.5,149-70.9,294.4s-33.3,233.3-88,341.3C205,1318.7,2.3,1641.9,2.3,1641.9"/>
	<g>
		<path class="st2" d="M1257.1,800.6c-3.7-3.9-2.6-10.2,2.2-12.7c12.7-6.7,41.4-19.6,62.6,3c29.8,31.6,8.5,60.4-1.4,74
			c-3.5,4.7-13.9,11-16,5.5c-4.4-11.9-12.3-27.9-18.8-37.7C1274.2,815.2,1265,809,1257.1,800.6z"/>
		<path class="st2" d="M1273.9,990.8c25,24.4,42.5,43.9,51.3,82.4c0.8,3.6,4.7,5.2,6.8,2.1c12.7-19.5,33.8-39.7,22.3-73.2
			c-7.7-22.4-37.7-53-78.2-24.7C1271.4,980.6,1269.8,986.8,1273.9,990.8z"/>
		<path class="st2" d="M421.6,272.5c0,0,23.7-22,33.9,46.7c1.6,10.7,3.8,20.2,5.2,28.8c5.5,32.5-2.8,64.8-27.2,72.7l0,0
			C433.5,420.6,395.6,296.3,421.6,272.5z"/>
		<path class="st2" d="M1337.6,1170c-4.3-14.1-6-29.7-28.3-55.1c-2.4-2.7-3.7-6.1-1.5-8.8c3.4-4.2,5.6-6.5,12.9-9.3
			c24-9.1,40.8,9.5,44.3,28.4c0.3,1.7,0.6,5,0.7,7.7c0.2,6.1-1.1,13.2-4,18.6c-3.9,7.2-8.4,14.3-15.9,21.8
			C1342.8,1176.1,1338.8,1174,1337.6,1170z"/>
	</g>
	<path class="st3" d="M1394.6,919.5c-16.4-38.2-36.9-51.7-51-56.3c0.7-0.8,1.5-1.6,2.2-2.4c1.6-1.8,3.1-3.5,4.5-4.9
		c12.4-13.2,24.9-27.8,30.2-48.6c5.8-23,1.5-49.9-13.1-82.3c-13.6-30-39.1-50.4-73.8-58.8c-6.8-1.7-13.4-2.7-19.3-3.3
		c32.9-2.2,88.9-10.3,117.7-40.1c13.2-13.7,19.4-30.5,18.2-49.8c-1.3-21.2-9.9-39-25.8-52.9c-36.2-31.8-100.2-34.1-125.5-33.7V122.1
		c0-65.1-52.8-117.9-117.9-117.9H668.5c-65.1,0-117.9,52.8-117.9,117.9v199.1c-21.8-39.6-46.4-55.8-65.3-62.2
		c-18.8-6.4-39-5.3-57.1,2.7c-5.7,0.3-10.4,3.1-12.8,5.3c-13,11.9-15,41.3-6.1,89.9c5.2,28.2,12.4,53.9,15,62.7
		c1,20.9,3.3,98.5-13.9,153.1c-7.3,23-10.2,47.8-13.6,76.4c-6.4,54.5-14.4,122.4-57,217.1c-34.2,76.1-42.2,137.8-49.3,192.1
		c-6.5,50.3-12.7,97.8-38.6,148.9C198.2,1313.7,0.9,1640.5,0,1641.9h15.9c0.9-1.4,195.3-320.7,249.5-427.8
		c27-53.3,33.3-102.1,40-153.7c7.3-56,14.8-113.8,48.1-187.9c43.5-96.8,51.7-165.9,58.2-221.5c3.3-27.9,6.1-52,13-73.7
		c16.6-52.6,16-122.9,14.9-151.4c26.2-12.1,32.8-47.7,27.4-79.1c-0.6-3.5-1.3-7-2-10.7c-1.1-5.7-2.3-11.5-3.2-17.9
		c-3.3-22.2-8.3-37.6-15.3-46.7c11.2-2.5,22.8-1.9,33.9,1.8c22.1,7.5,53.4,31.2,76.9,101.7c30.4,91.1,24.3,127.1,19.9,153.4
		c-1.3,7.8-2.5,15.2-2.5,22.7v4.2c0.1,36,0.2,145.6-25.1,240.5l-0.3,0.9v558.5c-0.4,5.1-2.3,53,44.3,91.9l0.3,0.2
		c1.2,0.9,27,20.3,61.9,24.7l-98.2,169.8h17.2l99.4-170h466.7c65.1,0,117.9-52.8,117.9-117.9V1172c11.9,14.1,31.8,30.2,55.4,30.3
		c0.1,0,0.1,0,0.2,0c20.8,0,39.2-12.3,54.6-36.4c28.3-44.4,26.6-76.7,20.2-96c-4.4-13.2-11.5-22.3-16.5-27.4
		C1390.9,1014.7,1415.6,968.5,1394.6,919.5z M447.1,320.3c1,6.7,2.2,12.7,3.3,18.6c0.7,3.7,1.4,7.1,1.9,10.4
		c3.8,22.5-1.3,50.2-16,61.4c-6.2-17.8-7.2-23.3-12.4-49.8c-11-55.9-5.4-75.7-2.1-79.6c0.8-0.9,1.7-1.8,2.7-2.4
		c0.9-0.5,1.8-0.9,3.5-1.3c2.2-0.5,4.5,0.3,6,2C437.6,283.7,443.2,294.1,447.1,320.3z M1290.4,680.9c30.2,7.5,51.5,24.4,63.2,50.3
		c29.2,64.6,7.2,91.4-12.2,112.2c0.8-2.4,1.6-4.8,2.1-7.3c3.9-17.9-1.5-34.9-16.1-50.4c-12.1-12.9-34.4-24.1-71.6-4.4
		c-4.4,2.3-7.4,6.4-8.2,11.3c-0.8,4.8,0.7,9.6,4,13.2l0,0c2.3,2.5,4.7,4.7,7.1,7c6.3,5.9,12.8,12.1,20.7,24
		c5.9,8.9,13.7,24.5,18,36.2c1.1,3,3.4,5.3,6.3,6.3c-4.2,2.8-8.7,5.2-13.2,7c-5.7,1.9-10.1,2.4-12.8,2.7l-0.7,0.1
		c-0.4,0-2.1,0.1-3.9,0.2c-10.5-0.6-20.7-5.5-30.9-15.1c-41.3-38.9-44.8-75.3-11.2-118.2c12.5-16,20.9-28.4,21.2-28.9l6.2-8.8
		l-0.1-41.1C1266.3,676.8,1275.2,677.1,1290.4,680.9z M1314.6,860.2L1314.6,860.2c-1,1.3-2.8,2.7-4.4,3.7
		c-4.9-12.1-12.2-26.5-18.1-35.5c-8.9-13.3-16.3-20.4-22.9-26.6c-2.3-2.2-4.5-4.2-6.5-6.4c-0.1-0.2-0.2-0.3-0.2-0.5s0.2-0.4,0.4-0.5
		c23.5-12.4,41-11.9,53.6,1.5C1339.9,820.8,1327.8,842.2,1314.6,860.2z M1374.4,531.4c12.9,11.3,19.6,25.2,20.7,42.5
		c0.9,15.2-3.7,27.8-14,38.5c-30.8,31.9-99.5,35.8-122.5,36.2V501.5C1279.6,501,1341,502.1,1374.4,531.4z M1138.5,1454.5H670.9
		c-56.6,0-102.5-45.8-102.5-102.4V782.7c21.6-92.5,21.4-193.1,21.4-227.5V551c0-6.3,1.1-12.8,2.3-20.3c4.7-27.9,11.1-66-20.4-160.7
		c-1.1-3.2-2.2-6.3-3.3-9.4v-239c0-56.5,45.9-102.4,102.5-102.4h467.7c56.6,0,102.5,45.8,102.5,102.4V718
		c-3.2,4.5-12.6,16.8-21.7,28.4c-18.9,24.2-27.3,46.9-25.6,69.7c1.7,23.6,14.3,46.1,38.3,68.7c3,2.8,6,5.2,9,7.4v27.1
		c-13.7,16.1-19.6,25.5-20.7,27.4c-14.2,20.3-18.3,48.3-11.1,77c5.5,22.1,17,42.2,31.8,57v30c-1.6,8.6-2,17.4,0,26.8V1352
		C1241.1,1408.7,1195.2,1454.5,1138.5,1454.5z M1314.4,1187.3L1314.4,1187.3c-20.3-0.1-40.3-17.4-50.4-33.5
		c-13.5-21.5-10.1-37.5-3.3-57.6c4.9,2.9,11.7,6.2,19.5,8.4c6.6,1.8,13,2.6,19.2,2.3c-0.7,3.7,0.2,8.3,4.3,12.9
		c17.9,20.3,21.6,33.9,24.9,45.8c0.6,2.2,1.2,4.4,1.9,6.6c1,3.3,3.1,6.1,5.8,7.9C1329.3,1184.9,1322,1187.3,1314.4,1187.3z
		 M1355.1,1147.9c-2.8,5.2-6.2,10.8-11.4,16.6c-0.3-0.9-0.5-1.9-0.8-2.9c-3.5-12.8-7.9-28.8-28.1-51.7c-0.1-0.1-0.2-0.2-0.3-0.3
		c2.2-2.6,3.7-3.9,8.8-5.8c7.3-2.8,14-2.5,19.9,0.8c7.1,4,12.6,12.4,14.4,21.9c0.2,1.3,0.5,4.2,0.6,6.6
		C1358.4,1138.3,1357.2,1144,1355.1,1147.9z M1279.1,985.5C1279,985.4,1279,985.4,1279.1,985.5c-0.1-0.4,0.2-1.3,1.2-2
		c13.5-9.4,26.4-12.2,38.4-8.3c14.3,4.7,24.6,18.1,28.4,29.4c8.4,24.5-2.9,40.3-14.8,57c-0.6,0.8-1.2,1.6-1.8,2.5
		C1320.8,1028.3,1302.9,1008.7,1279.1,985.5z M1372.6,1125.1c-0.1-0.5-0.1-0.9-0.2-1.3c-2.5-14-10.7-26-21.7-32.3
		c-3.8-2.1-7.7-3.5-11.8-4.2c7.4-7.3,13.9-15.9,19.9-24.4c2.2-2.9,4.1-5.5,5.5-7.5C1372.6,1065.2,1385.7,1087.7,1372.6,1125.1z
		 M1364.7,1027c0.9-8.2,0.1-17.3-3.4-27.4c-4.7-13.7-17.4-32.1-38-38.8c-11.5-3.7-29.7-5-51.6,10.3c-4.4,3.1-7.3,7.9-7.7,12.9
		c-0.4,4.6,1.2,8.9,4.6,12.1c24.3,23.7,40.8,42,49.2,78.7c0.7,2.9,2.2,5.4,4.4,7.1c-13.8,11-29.1,13.7-50.6,2.9
		c-3.5-1.7-6.9-3.8-10.1-6.2l-7.6-6.2c-14-13-25-31.6-30.1-52.3c-6.1-24.5-2.9-48.2,9-64.9l0.4-0.6c0.1-0.2,10.6-18,42.2-50.5
		c0.7,0,1.4,0,2.1,0c6.9-0.3,13.4-1.9,19.6-4.3c9.7-3.5,21.9-10.4,34.6-24c7.5,0.5,30.4,5.7,49.2,49.6
		C1397.3,964,1380.9,1001,1364.7,1027z M886.2,65.7c0-10.1,8.2-18.3,18.3-18.3s18.3,8.2,18.3,18.3S914.5,84,904.5,84
		S886.2,75.8,886.2,65.7z"/>
	<ellipse class="st4" cx="904.5" cy="70.6" rx="7.2" ry="6.4"/>
	<ellipse class="st4" cx="904.5" cy="57.9" rx="5.2" ry="3.4"/>
</g>
</svg>
