<?xml version="1.0" encoding="utf-8"?>
<!-- Generator: Adobe Illustrator 27.7.0, SVG Export Plug-In . SVG Version: 6.00 Build 0)  -->
<svg version="1.1" id="레이어_1" xmlns="http://www.w3.org/2000/svg" xmlns:xlink="http://www.w3.org/1999/xlink" x="0px"
	 y="0px" width="3000px" height="3000px" viewBox="0 0 3000 3000" style="enable-background:new 0 0 3000 3000;"
	 xml:space="preserve">
<style type="text/css">
	.st0{fill:#FFFFFF;}
	.st1{fill:#F28C8C;}
	.st2{fill:#FF2400;}
	.st3{fill:#8C1F11;}
	.st4{fill:#FF9100;}
	.st5{fill:#AF681B;}
	.st6{fill:#FFC200;}
	.st7{fill:#C19D44;}
	.st8{fill:#8EE04F;}
	.st9{fill:#109913;}
	.st10{fill:#0695FF;}
	.st11{fill:#2B377A;}
</style>
<g>
	<path class="st0" d="M2112.6,2753.1c220,9,664.6-4.5,673.8-22.5s-4.8-952-0.3-1342.2C2790.4,1014,2741,142.7,2737,72.7
		c-0.1-2.6-2.2-4.6-4.8-4.8c-121.7-8.2-972.3-9-1145.1,4.3c-175.1,13.5-918.3,9-1115.9,0C291.8,64.1,112.3,70.7,80.9,72
		c-2.7,0.1-4.9,2.3-4.9,5c-0.9,57.7-9.1,614.3-13.2,767.5c-4.3,161.7,17.8,691.5,4.3,1172c-12.5,445.2,5.9,678.4,8.6,710.2
		c0.2,2.3,1.9,4.1,4.1,4.6c0,0,136.4,19,317,11.9s809.5,1.5,809.5,1.5s376.1,6.5,425.7,6.6S2112.6,2753.1,2112.6,2753.1z"/>
	<path class="st1" d="M1665.7,2751.3c246.1,3.2,377.4,0.5,665.9,4.6c288.5,4,462.3-25.2,462.3-25.2l-0.4-872l-0.8-229.4
		c11.7-292.7-11.2-791.1-11.2-791.1l-37.1-766.8c-0.1-1.2,1.3-1.8,2.2-1c48.6,46.6,159.1,177.9,159.1,177.9s53.9,929.9,49.4,1320.2
		s9.5,1324.3,0.3,1342.2s-453.8,31.4-673.8,22.5c-220-9-609,10.6-826.3,2.9c-213-7.5-1065.8,1.6-1187.1-25.3L86.3,2733.5
		c-0.7-0.7,0-1.9,0.9-1.6c64.9,17.5,317,10.8,483.8,10.2c0,0,633.8,1.6,783.2,6.2S1665.7,2751.3,1665.7,2751.3z"/>
	<path class="st2" d="M474,818.5c-53.8,0-117.4-8.7-120.7-9.2l-5.9-0.8l-0.6-5.9c-0.1-0.7-1.5-16.9,0-68c1.5-50.9,4.4-77.8,4.6-78.9
		l0.7-6.7h165.3l-0.4,8c0,0.2-1.3,23.7,0,75.4c1.3,51.1-1.4,76.8-1.5,77.8l-0.7,6l-6,0.6C498.3,818,486.4,818.5,474,818.5z
		 M361.5,795.3c21.2,2.7,92.9,11,139.5,7.3c0.7-10.3,1.9-33.7,1-69.7c-0.9-35.8-0.6-57.9-0.3-68.8h-136c-1,10.9-2.8,35.1-3.8,71
		C360.8,768.6,361.2,786.9,361.5,795.3z"/>
	<path class="st3" d="M429.1,778.6c-3.6,0-7-1.6-9.2-4.4c-10.4-12.9-31.1-41.9-31.9-43.2l16.3-11.6c0.2,0.2,13.2,18.6,23.7,32.5
		c10.8-19.9,29.3-53.9,36-65.7l17.4,9.9c-8.2,14.4-34,62-41.7,76.3c-1.9,3.5-5.4,5.8-9.4,6.2C429.8,778.6,429.5,778.6,429.1,778.6z"
		/>
	<path class="st4" d="M474,1197.3c-53.8,0-117.4-8.7-120.7-9.2l-5.9-0.8l-0.6-5.9c-0.1-0.7-1.5-16.9,0-68
		c1.5-50.9,4.4-77.8,4.6-78.9l0.7-6.7h165.3l-0.5,7.9c0,0.2-1.3,23.7,0,75.4c1.3,51.1-1.4,76.8-1.5,77.8l-0.7,6l-6,0.6
		C498.3,1196.8,486.4,1197.3,474,1197.3z M361.5,1174c21.2,2.7,92.9,11,139.5,7.3c0.7-10.3,1.9-33.7,1-69.7
		c-0.9-35.8-0.6-57.9-0.3-68.8h-136c-1,10.9-2.8,35.1-3.8,71C360.8,1147.3,361.2,1165.6,361.5,1174z"/>
	<path class="st5" d="M429.1,1157.4c-3.6,0-7-1.6-9.2-4.4c-10.4-12.9-31.1-41.9-31.9-43.2l16.3-11.6c0.2,0.2,13.2,18.6,23.7,32.5
		c10.8-19.9,29.3-53.9,36-65.7l17.4,9.9c-8.2,14.4-34,62-41.7,76.3c-1.9,3.5-5.4,5.8-9.4,6.2
		C429.8,1157.4,429.5,1157.4,429.1,1157.4z"/>
	<path class="st6" d="M474,1576c-53.8,0-117.4-8.7-120.7-9.2l-5.9-0.8l-0.6-5.9c-0.1-0.7-1.5-16.9,0-68c1.5-50.9,4.4-77.8,4.6-78.9
		l0.7-6.7h165.3l-0.5,7.9c0,0.2-1.3,23.7,0,75.4c1.3,51.1-1.4,76.8-1.5,77.8l-0.7,6l-6,0.6C498.3,1575.6,486.4,1576,474,1576z
		 M361.5,1552.8c21.2,2.7,92.9,11,139.5,7.3c0.7-10.3,1.9-33.7,1-69.7c-0.9-35.8-0.6-57.9-0.3-68.8h-136c-1,10.9-2.8,35.1-3.8,71
		C360.8,1526.1,361.2,1544.4,361.5,1552.8z"/>
	<path class="st7" d="M429.1,1536.2c-3.6,0-7-1.6-9.2-4.4c-10.4-12.9-31.1-41.9-31.9-43.2l16.3-11.6c0.2,0.2,13.2,18.6,23.7,32.5
		c10.8-19.9,29.3-53.9,36-65.7l17.4,9.9c-8.2,14.4-34,62-41.7,76.3c-1.9,3.5-5.4,5.8-9.4,6.2
		C429.8,1536.1,429.5,1536.2,429.1,1536.2z"/>
	<path class="st8" d="M474,1954.8c-53.8,0-117.4-8.7-120.7-9.2l-5.9-0.8l-0.6-5.9c-0.1-0.7-1.5-16.9,0-68
		c1.5-50.9,4.4-77.8,4.6-78.9l0.7-6.7h165.3l-0.5,7.9c0,0.2-1.3,23.7,0,75.4c1.3,51.1-1.4,76.8-1.5,77.8l-0.7,6l-6,0.6
		C498.3,1954.3,486.4,1954.8,474,1954.8z M361.5,1931.6c21.2,2.7,92.9,11,139.5,7.3c0.7-10.3,1.9-33.7,1-69.7
		c-0.9-35.8-0.6-57.9-0.3-68.8h-136c-1,10.9-2.8,35.1-3.8,71C360.8,1904.9,361.2,1923.1,361.5,1931.6z"/>
	<path class="st9" d="M429.1,1914.9c-3.6,0-7-1.6-9.2-4.4c-10.4-12.9-31.1-41.9-31.9-43.2l16.3-11.6c0.2,0.2,13.2,18.6,23.7,32.5
		c10.8-19.9,29.3-53.9,36-65.7l17.4,9.9c-8.2,14.4-34,62-41.7,76.3c-1.9,3.5-5.4,5.8-9.4,6.2
		C429.8,1914.9,429.5,1914.9,429.1,1914.9z"/>
	<path class="st10" d="M474,2333.5c-53.8,0-117.4-8.7-120.7-9.2l-5.9-0.8l-0.6-5.9c-0.1-0.7-1.5-16.9,0-68
		c1.5-50.9,4.4-77.8,4.6-78.9l0.7-6.7h165.3l-0.5,7.9c0,0.2-1.3,23.7,0,75.4c1.3,51.1-1.4,76.8-1.5,77.8l-0.7,6l-6,0.6
		C498.3,2333.1,486.4,2333.5,474,2333.5z M361.5,2310.3c21.2,2.7,92.9,11,139.5,7.3c0.7-10.3,1.9-33.7,1-69.7
		c-0.9-35.8-0.6-57.9-0.3-68.8h-136c-1,10.9-2.8,35.1-3.8,71C360.8,2283.6,361.2,2301.9,361.5,2310.3z"/>
	<path class="st11" d="M429.1,2293.7c-3.6,0-7-1.6-9.2-4.4c-10.4-12.9-31.1-41.9-31.9-43.2l16.3-11.6c0.2,0.2,13.2,18.6,23.7,32.5
		c10.8-19.9,29.3-53.9,36-65.7l17.4,9.9c-8.2,14.4-34,62-41.7,76.3c-1.9,3.5-5.4,5.8-9.4,6.2
		C429.8,2293.7,429.5,2293.7,429.1,2293.7z"/>
	<path d="M2970.2,2726.6c-0.1-108.6-1-255.5-2-410.9c-1.7-265.4-3.6-566.3-1.5-746.9c4.4-386.2-48.9-1311.7-49.4-1321l-0.2-3.9
		l-2.5-3c-4.5-5.4-111.4-132.4-159.9-178.8c-1.9-1.8-4.2-2.9-6.6-3.4c-2.2-1.3-4.8-2.2-7.5-2.4c-122.2-8.2-972.4-9.1-1146.7,4.3
		c-179.2,13.8-926.9,8.5-1114.5,0C300.1,52.5,121.8,59,87.9,60.4c-8.9,0.4-16,7.6-16.1,16.5c-0.4,23.7-1.8,118.2-3.6,234.6
		c-20.5,4.8-32.1,18.9-36.3,31.7c-5.2,16-0.6,32.7,11.5,42.7c6.3,5.2,14.7,9.2,23.4,11.3C65,510.7,62.9,633,61.1,726.5
		c-16.2,6.1-25.6,18.3-29.2,29.6c-5.2,16-0.6,32.7,11.5,42.7c4.5,3.7,10,6.8,16,9c-0.3,13.8-0.6,26.1-0.9,36.5
		c-1.5,57.9,0.3,162.5,2.7,295c-16.2,6.1-25.6,18.3-29.3,29.6c-5.2,16-0.6,32.7,11.5,42.7c5.3,4.3,12,7.9,19.3,10.1
		c1.7,99.9,3.5,211.6,4.2,328.6c-19.7,5.1-30.9,18.8-34.9,31.4c-5.2,16-0.6,32.7,11.5,42.7c6.5,5.3,15,9.3,23.8,11.4
		c0.2,107.9-0.6,218.9-3.1,328.1c-18,5.6-28.4,18.7-32.3,30.6c-5.2,16-0.6,32.7,11.5,42.7c5.2,4.3,11.7,7.7,18.6,10
		c-3.3,128.7-3.9,239.2-3.2,331.5c-14.8,6.3-23.5,17.9-27,28.7c-5.2,16-0.6,32.7,11.5,42.7c4.6,3.8,10.3,7,16.5,9.2
		c3,164,10.3,253.4,11.6,268.5c0.3,3.3,1.5,6.3,3.5,8.8c0.6,1.9,1.7,3.6,3.2,5.1l184.2,179.7l3.2,0.7c82.1,18.3,488.5,20.1,815,21.7
		c162.9,0.8,303.5,1.4,374.2,3.9c37.1,1.3,79.6,1.8,125.4,1.8c84.9,0,181-1.8,275-3.5c153.9-2.8,313.1-5.8,425.8-1.2
		c102.2,4.2,265.8,3.7,416.8-1.1c72.5-2.3,134.8-5.4,180.2-9c24.1-1.9,43.1-3.9,56.5-6c20.5-3.2,27.8-6.1,31.2-12.7
		C2967.9,2911.8,2970.3,2907.2,2970.2,2726.6z M2894.2,253c3.8,66,53.4,942.9,49.2,1315.5c-2.1,180.8-0.2,481.8,1.5,747.3
		c1.5,242.3,3.1,491.7,0.8,568.6l-24.6-25c-36.7-37.4-99.7-113.6-114.9-131.9c1.5-14.2,2.6-54.2,2.5-180.9
		c-0.1-108.6-1-255.5-2-410.9c-0.6-90.7-1.2-185.5-1.6-278.2l-0.8-226.2c0-0.5,0-1.1,0-1.6c10.7-267.7-7.8-711.8-10.8-782.2
		c-12.2-317.7-30-643.8-36-749C2805.3,148.2,2879.7,235.8,2894.2,253z M478.1,84c188,8.5,937.5,13.8,1117.4,0
		c94-7.2,384.7-10.3,651.4-10.3c219.4,0,422.5,2.1,486.1,5.6l36.8,759.6c0,0.4,0.2,3.8,0.4,9.9c7.8,203.6,13.2,403.6,11.7,539.6
		c-0.8,66.5-1,149.4-0.9,240.7v0.1v2.4c0.1,71.4,0.4,147.9,0.8,225.9v1.3l0.4,861.9c-22,3.2-80.8,10.9-169.5,16.7
		c-26.8,1.2-56.6,2.3-89.6,3.3c-64.1,1.9-129.2,3.1-190.5,3.5c-0.3,0-0.5,0-0.8,0c-71.7-1-133.7-1.6-190.2-2
		c-7.3-0.2-14.3-0.5-21.1-0.8h-0.4c-3.6,0-299.1-1.1-427.1-1.5c-8.9-0.1-17.9-0.2-27.1-0.3h-0.1h-0.1c-0.4,0-10.2,0.1-26.8,0.2
		c-51.6-0.2-421-6.5-424.8-6.6c-4.5-0.1-318.4-4.3-565.1-4.3c-102,0-192.5,0.7-244.8,2.8c-59.1,0.5-118.3,0.7-169.8-0.3
		c-72.2-3-123.5-8.8-139.8-10.8c-2.3-28.3-10-135.8-12-323.2h27.8c1.3,23.7,21,42.6,45,42.6c24.9,0,45.1-20.2,45.1-45.1
		c0-24.9-20.2-45.1-45.1-45.1c-17.4,0-32.4,9.9-40,24.3h-33c-0.7-98.4,0.1-217.4,4-357.1c0.3-10.8,0.6-21.6,0.9-32.4h23.1
		c1.3,23.7,21,42.6,45,42.6c24.9,0,45.1-20.2,45.1-45.1s-20.2-45.1-45.1-45.1c-17.4,0-32.4,9.9-40,24.3H87.6
		c2.9-130.1,3.4-262.7,2.7-389.5h19.8c1.3,23.7,21,42.6,45,42.6c24.9,0,45.1-20.2,45.1-45.1s-20.2-45.1-45.1-45.1
		c-17.4,0-32.4,9.9-40,24.3h-25c-0.9-141.5-3.3-275.2-5.3-389.5h25.3c1.3,23.7,21,42.6,45,42.6c24.9,0,45.1-20.2,45.1-45.1
		s-20.2-45.1-45.1-45.1c-17.4,0-32.4,9.9-40,24.3H84.5C82.2,1005,80.4,901.9,81.9,845c0.6-24.2,1.4-58.3,2.2-98.8h26.1
		c1.3,23.7,21,42.6,45,42.6c24.9,0,45.1-20.2,45.1-45.1c0-24.9-20.2-45.1-45.1-45.1c-17.4,0-32.4,9.9-40,24.3H84.5
		c2.1-111.2,4.6-261.3,6.6-389.5h19c1.3,23.7,21,42.6,45,42.6c24.9,0,45.1-20.2,45.1-45.1s-20.2-45.1-45.1-45.1
		c-17.4,0-32.4,9.9-40,24.3H91.6c1.7-107.1,3-195.4,3.5-226.4C140.5,81.8,309,76.3,478.1,84z M146.9,2408.3c1.1,2.5,1.5,5.1,1.2,7.2
		c-7.6-2.6-13.3-9.4-14.4-17.6C142.3,2399.7,145.9,2406.1,146.9,2408.3z M171.3,2409.6c-0.5-3.6-1.5-7.3-3.1-10.8
		c-4.8-10.7-13.6-18.5-24.5-22.2c3.3-2.1,7.3-3.3,11.5-3.3c12,0,21.8,9.8,21.8,21.8C177,2400.6,174.8,2405.7,171.3,2409.6z
		 M146.9,1995.5c1.1,2.5,1.5,5.1,1.2,7.2c-7.6-2.6-13.3-9.4-14.4-17.6C142.3,1986.9,145.9,1993.3,146.9,1995.5z M171.3,1996.8
		c-0.5-3.6-1.5-7.3-3.1-10.8c-4.8-10.7-13.6-18.5-24.5-22.2c3.3-2.1,7.3-3.3,11.5-3.3c12,0,21.8,9.8,21.8,21.8
		C177,1987.8,174.8,1992.9,171.3,1996.8z M146.9,1582.6c1.1,2.5,1.5,5.1,1.2,7.2c-7.6-2.6-13.3-9.4-14.4-17.6
		C142.3,1574.1,145.9,1580.5,146.9,1582.6z M171.3,1583.9c-0.5-3.6-1.5-7.3-3.1-10.8c-4.8-10.7-13.6-18.5-24.5-22.2
		c3.3-2.1,7.3-3.3,11.5-3.3c12,0,21.8,9.8,21.8,21.8C177,1574.9,174.8,1580.1,171.3,1583.9z M146.9,1169.8c1.1,2.5,1.5,5.1,1.2,7.2
		c-7.6-2.6-13.3-9.4-14.4-17.6C142.3,1161.2,145.9,1167.6,146.9,1169.8z M171.3,1171.1c-0.5-3.6-1.5-7.3-3.1-10.8
		c-4.8-10.7-13.6-18.5-24.5-22.2c3.3-2.1,7.3-3.3,11.5-3.3c12,0,21.8,9.8,21.8,21.8C177,1162.1,174.8,1167.2,171.3,1171.1z
		 M146.9,757c1.1,2.5,1.5,5.1,1.2,7.2c-7.6-2.6-13.3-9.4-14.4-17.6C142.3,748.4,145.9,754.8,146.9,757z M171.3,758.3
		c-0.5-3.6-1.5-7.3-3.1-10.8c-4.8-10.7-13.6-18.5-24.5-22.2c3.3-2.1,7.3-3.3,11.5-3.3c12,0,21.8,9.8,21.8,21.8
		C177,749.3,174.8,754.4,171.3,758.3z M146.9,344.1c1.1,2.5,1.5,5.1,1.2,7.2c-7.6-2.6-13.3-9.4-14.4-17.6
		C142.3,335.6,145.9,342,146.9,344.1z M171.3,345.4c-0.5-3.6-1.5-7.3-3.1-10.8c-4.8-10.7-13.6-18.5-24.5-22.2
		c3.3-2.1,7.3-3.3,11.5-3.3c12,0,21.8,9.8,21.8,21.8C177,336.4,174.8,341.6,171.3,345.4z M58.2,368c-4.7-3.8-6.3-10.7-4.1-17.5
		c2.1-6.4,6.9-11.3,13.6-14.2c-0.2,12.1-0.4,24.4-0.6,36.8C63.8,371.7,60.7,370,58.2,368z M58.2,780.8c-4.7-3.8-6.3-10.7-4.1-17.5
		c1.2-3.8,3.4-7.1,6.4-9.7c-0.2,9.9-0.4,19.5-0.6,28.5C59.4,781.7,58.8,781.3,58.2,780.8z M58.2,1193.6c-4.7-3.8-6.3-10.7-4.1-17.5
		c1.4-4.2,4-7.8,7.5-10.6c0.2,10.1,0.4,20.4,0.5,30.8C60.8,1195.5,59.4,1194.6,58.2,1193.6z M58.2,1606.5
		c-4.7-3.8-6.3-10.7-4.1-17.5c2-6.1,6.5-10.9,12.9-13.9c0.1,12.1,0.1,24.2,0.2,36.4C63.8,1610.2,60.7,1608.5,58.2,1606.5z
		 M58.2,2019.3c-4.7-3.8-6.3-10.7-4.1-17.5c1.6-5,4.9-9,9.4-12c-0.2,8.9-0.5,17.7-0.7,26.5c-0.1,2-0.1,3.9-0.2,5.9
		C61.1,2021.4,59.5,2020.4,58.2,2019.3z M58.2,2432.1c-4.7-3.8-6.3-10.7-4.1-17.5c1-3.2,2.7-6,5-8.3c0.1,9.1,0.2,18,0.4,26.8
		C59.1,2432.8,58.6,2432.5,58.2,2432.1z M2684.5,2920.9c-148.8,4.5-303.1,4.8-402.6,0.7c-113.3-4.6-272.9-1.7-427.2,1.2
		c-144.4,2.7-293.8,5.4-399.2,1.7c-71.1-2.5-211.9-3.2-374.9-3.9c-321.3-1.5-720.1-3.4-806.8-20.4l-155-151.2
		c28.8,3.2,67.9,4.9,112.4,5.8c49.4,2.1,108.6,2.9,173.2,0.4c21.3-0.2,42.6-0.4,63.5-0.6c36.7-0.4,71.3-0.7,103.1-0.8
		c6.3,0,635.3,1.6,782.9,6.2c112,3.5,232.2,3.5,284.7,3.3c0.2,0,0.5,0,0.7,0c8.3,0,27.4,0.1,53.4,0.2c102.5,1.2,184.7,1.4,271.4,1.6
		c56,0.1,113,0.3,177.1,0.7c42.9,1.4,94.2,2.1,149.8,2.1c13,0,26.3,0,39.7-0.1c0.2,0,0.5,0,0.7,0c18.4,0.3,36.4,0.4,53.8,0.4
		c88.9,0,165.6-3.1,227.8-7.2c40-1.8,75.1-3.9,103.5-6.1c24.1-1.9,43.1-3.9,56.5-6c7.5-1.1,13.2-2.3,17.6-3.6
		c18.7,22.8,77.7,93.7,113.8,130.5l29.2,29.8C2901.4,2910.6,2818.7,2916.8,2684.5,2920.9z M316.1,2818.5
		c-6.4,0.1-11.7-5.1-11.8-11.5c-0.1-6.4,5.1-11.7,11.5-11.8c7.7-0.1,775-10,996.1-0.6c140.3,6,339.9,6.3,500.3,6.5
		c77.4,0.1,144.3,0.2,195.2,0.9c159.3,2.1,674.9,0.2,680.1,0.2l0,0c6.4,0,11.7,5.2,11.7,11.6c0,6.4-5.2,11.7-11.6,11.7
		c-3.3,0-217,0.8-411.8,0.8c-108.7,0-211.6-0.2-268.7-1c-50.7-0.7-117.6-0.8-194.9-0.9c-160.6-0.2-360.5-0.5-501.3-6.6
		C1090.5,2808.5,323.8,2818.4,316.1,2818.5z M2798.7,2864.4c0.3,6.4-4.6,11.9-11.1,12.3c-1.9,0.1-192.2,9.8-377.2,9.8h-195.8
		c-116.3,0-220,0-280.6,0c-6.4,0-12.7,0-19.1,0c-824.6,0-1493.9-11.2-1500.6-11.4c-6.4-0.1-11.6-5.4-11.5-11.9
		c0.1-6.4,5.4-11.5,11.9-11.5c6.7,0.1,675.9,11.4,1500.2,11.4c6.4,0,12.7,0,19.1,0c60.5,0,164.2,0,280.6,0h195.8
		c184.3,0,374.1-9.7,376-9.8C2792.8,2852.9,2798.3,2857.9,2798.7,2864.4z M2814.6,313.2c6.5-0.4,11.9,4.6,12.3,11
		c0.3,5.8,31.2,578.1,35.3,828.6c3.5,211.8,1.2,1030.6,0.3,1338.9c-0.2,59.7-0.3,99.2-0.3,110.1c0,6.4-5.2,11.7-11.7,11.7
		s-11.7-5.2-11.7-11.7c0-10.9,0.1-50.4,0.3-110.1c0.9-308.2,3.2-1126.9-0.3-1338.4c-4.1-250.1-35-822-35.3-827.7
		C2803.2,319.1,2808.1,313.6,2814.6,313.2z M2840.7,275.4c-0.5-6.4,4.4-12,10.8-12.5c6.4-0.5,12,4.4,12.5,10.8
		c0.5,7.4,52.1,742.9,52.1,1049.5c0,53.8,0.4,197.7,0.8,364.4c0.5,220,1.2,469.3,1.2,592c0,213.6-8.1,449.1-8.2,451.5
		c-0.2,6.3-5.4,11.3-11.7,11.3c-0.1,0-0.3,0-0.4,0c-6.4-0.2-11.5-5.6-11.3-12.1c0.1-2.4,8.1-237.5,8.1-450.7
		c0-122.7-0.6-372-1.2-592c-0.4-166.7-0.8-310.6-0.8-364.4C2892.8,1017.5,2841.2,282.8,2840.7,275.4z M963.8,293.3
		c0,0-55.2-13.4-69.5,34.3c-14.4,47.7,69.5,49.3,69.5,49.3l-6.2,24.8c-60.7,7.8-119.9-20.9-99.9-90.1s106.2-45.7,106.2-45.7
		L963.8,293.3L963.8,293.3z M1380.6,265.9c0,0-86.2-23.5-106.2,45.7c-19.9,69.2,39.2,98,99.9,90.1l6.2-24.8c0,0-83.9-1.6-69.5-49.3
		c14.3-47.7,69.5-34.3,69.5-34.3L1380.6,265.9L1380.6,265.9z M1007.7,268.5c-5.6,3.9-8.7,57.5-7.1,82.3c1.6,24.8-0.4,52.2-0.4,52.2
		s17.7,1.3,31.9,0c0,0,0.8-39.1,0-53.6c0,0,43.7,0.3,57.4,0.3c0,0,0.8,47.7,0,53.8c0,0,26.8,0.8,30.3-0.6c0,0,0.6-57.1-0.1-81.5
		s-2.8-53-2.8-53h-27.4c0,0,0.8,40.6,0,52.2c0,0-48.5,0.9-57.4,0l2.3-52.2h-26.7V268.5z M1712.8,374.1c-11.8,2.8-73.3-0.2-73.3-0.2
		l1.3-53.3l2.3-52.2h-26.7c-5.6,3.9-8.7,57.5-7.1,82.3c1.6,24.8-0.4,52.2-0.4,52.2s89.7,4.9,104,3.7v-32.5H1712.8z M1250.6,264
		c0,0-70.1,1.2-86.4,1c-18.3-0.2-21.4-0.2-21.4-0.2s1.1,49.9,0.8,79.8c-0.3,27.7,0.4,59,0.4,59s96.9,0.7,108.5-1.2
		c0,0,0.8-20.1,0-31c0,0-62.6,0.6-75.4,0.5l-0.4-26.8c0,0,67.2-1.3,75.9-2.7v-26.7l-75.6,0.6l-0.6-22.7l74.8,0.2
		C1251.2,294,1251.4,274.9,1250.6,264z M1407.6,262c0,0,0.7,44.6,0,74.1s0,71.8,0,71.8s23.9,0.5,31.9,0.6c0,0,0.3-35.8,0.2-48.4
		c4.8,3.5,51.7,42.1,64.6,50.6c0,0,13.8-21,18-28c0,0-59.7-42.6-61.2-44.8c0,0,53.1-44.9,56.2-47.7l-22.5-25.2
		c0,0-49.1,42.9-54.6,47c0,0,2.1-42.2,0-50L1407.6,262L1407.6,262z M1730.9,268.5c0,0-1,24.5-0.3,29.3h13.4V376c0,0-6.4,0.3-11.8,0
		c0,0-0.7,23,0,30.9c0,0,24.9,1.1,54,0v-31.4l-11.1-0.2c0,0-1.5-68.7-1.5-77.7c0,0,7-1.2,12.5-1.2v-28
		C1786.3,268.5,1737.1,269.6,1730.9,268.5z M1988.4,410.3c0,0-8.5-103.7-8.5-112.7c0,0,24.3-1.2,29.8-1.2v-28c0,0-87.2,1.1-93.4,0
		c0,0-0.7,24.5,0,29.3h33.9V411L1988.4,410.3z M1852.3,380.4c-21,1.2-45.4-1.5-45.4-1.5l0.7,27.3c0,0-6.9,2.3,28.8,4s67,0.4,67.3-37
		c0.3-32.8-36.1-32.2-58.5-49.5c-11.6-8.9-5.9-34.2,17-34.2c18.4,0,21.8,18.7,21.8,18.7c11.9-2.2,25.6-6.6,25.6-6.6
		c-5.9-22.1-19.7-42.6-55-41.2c-27.6,1.1-51.5,19.1-49.8,53.6c1.4,29,32.9,41.3,32.9,41.3s4.8,2.8,20.9,9.5c0,0,3.8,1.3,3.3,8.3
		C1861.3,380.2,1852.3,380.4,1852.3,380.4z"/>
</g>
</svg>
