<?xml version="1.0" encoding="utf-8"?>
<!-- Generator: Adobe Illustrator 27.7.0, SVG Export Plug-In . SVG Version: 6.00 Build 0)  -->
<svg version="1.1" id="레이어_1" xmlns="http://www.w3.org/2000/svg" xmlns:xlink="http://www.w3.org/1999/xlink" x="0px"
	 y="0px" width="1320.6px" height="929.1px" viewBox="0 0 1320.6 929.1" style="enable-background:new 0 0 1320.6 929.1;"
	 xml:space="preserve">
<style type="text/css">
	.st0{opacity:0.4;fill:#FFFFFF;enable-background:new    ;}
	.st1{fill:#FFE8BB;}
	.st2{fill:#231815;}
</style>
<g>
	<path class="st0" d="M1306.2,153.6c0,0,30-141.7-625.6-141.7c-696.2,0-666.2,141.7-666.2,141.7s-0.5,3,1.3,8c-0.6,0.5-1,1.2-1,2
		c3.4,86.1,49,699.9,651.8,701.7c-2.1,0-4.1,0-6.2,0c-102.1,0-161.8-18.3-161.8-18.3v3.8c0,29.1,20.5,53.6,47.8,57.3
		c32.9,4.4,77.2,9.2,114,9.2c36.9,0,81.2-4.9,114.1-9.4c27.3-3.7,47.7-28.2,47.7-57.3c0,0-20.2,5-57.2,9.1
		c504.8-60.4,539.1-597.7,541.2-692l-2.5-0.7C1307.5,158.8,1306.2,153.6,1306.2,153.6z M89.8,212.6c80.7,29.4,247.2,58.8,590.8,58.8
		c1.8,0,3.5,0,5.3,0c-11.7,0.1-23.7,0.1-35.9,0.1C323.8,271.5,166.2,242,89.8,212.6z M1295.2,181.1c-10.5,12.7-43,36.7-145.6,56.7
		c98.5-20.2,135.4-45.4,149-63C1297,178,1295.7,180.6,1295.2,181.1z"/>
	<path class="st1" d="M397.4,417.7c167.9,21.3,159.7,28.6,334.2,12.1c168.9-16,121.1-10.5,202.2-30.2
		c121.3-29.5,190.9-26.8,209.3-24.9c23.4,2.4,87.7,1.5,77.7,34.3c-36.3,118.6-162.9,398.6-549.7,398.6
		c-377.6,0-516.3-266.9-560.2-389.9c-11.2-31.4,53.3-32,86.5-29.7C308.9,395.9,305.4,406,397.4,417.7z"/>
	<path class="st2" d="M4.7,164c0.8,20.7,4.3,76.6,18.8,147.6c18,88.2,46.2,168.9,83.9,239.9C158,646.8,225,722.4,306.5,776.1
		c54.3,35.8,115.2,62,182.2,78.5c1.7,32.3,25.4,59.2,56.3,63.4c31.6,4.2,77.3,9.3,115.3,9.3s83.8-5.1,115.5-9.4
		c29.6-4,52.4-28.8,55.9-59.2c71.9-15.7,136.7-42.4,193.8-79.9c79.9-52.6,145.1-126.6,193.9-220.1c85.4-163.7,95.7-340.4,96.8-390.7
		l0.2-14.5c0.5-5.5,0-20.1-14.5-37.9c-24.6-30.4-76.5-55.3-154.3-74C1038.7,15.3,881.6,2,680.7,2C464.1,2,295.4,15.7,179.3,42.8
		c-82.2,19-136.4,44.3-161.3,75c-13.9,17.1-14.2,31-13.7,36L4.7,164z M120.6,408.2c5.3-6.9,26.2-11,53.8-11c7.1,0,14.5,0.3,22.3,0.8
		c64.9,4.6,89.9,9.8,118.8,15.9c19.8,4.2,42.3,8.9,80.6,13.7c29,3.7,52.3,6.9,73,9.7c97.6,13.4,117.9,16.2,263.4,2.4
		c12.8-1.2,24.4-2.3,34.9-3.3c100.8-9.5,100.8-9.5,133.1-18.1c8.7-2.3,19.6-5.2,35.7-9.1c125.8-30.6,193.6-25.9,206-24.7
		c3.3,0.3,7.2,0.6,11.7,0.9c16.2,1.1,50,3.4,57,13.5c0.5,0.7,1.5,2.2,0.8,5.6c-0.2,0.8-0.3,1.3-0.4,1.6
		c-36.1,117.8-160.9,391.4-540.1,391.4c-373.7,0-509.7-268-550.8-383.2C118.9,410.3,120,408.9,120.6,408.2z M1218,379
		c-16-10.2-42.5-12-62.8-13.4c-4.3-0.3-8-0.5-11-0.8c-12.9-1.3-83.7-6.2-212.7,25.1c-16.3,4-27.3,6.9-36.1,9.2
		c-30.7,8.1-30.7,8.1-129.8,17.5c-10.5,1-22.1,2.1-34.9,3.3c-143.3,13.6-160.9,11.1-258.8-2.3c-20.7-2.8-44.1-6.1-73.2-9.8
		c-37.5-4.8-58.6-9.2-79-13.5c-28.4-6-55.3-11.6-121.5-16.3c-10.3-0.7-30.5-1.6-49.6,0.4c-16.9,1.8-29.2,5.5-37.3,11.3
		c-10.4-31-27.1-90.8-34.3-171.3c4.3,1.7,8.9,3.4,13.6,5.1c11.8,4.4,25.1,8.7,40.3,12.8c109.6,30,284.2,45.1,519.1,45.1
		c12.1,0,24.1,0,35.9-0.1c201.2-0.2,357.7-11.5,465.7-33.7c4.1-0.8,8-1.6,12-2.4c34-7.1,60.2-14.7,80.4-22.3
		C1240.8,276.1,1226.7,342.4,1218,379z M1288.9,170.9c-13.5,15.4-48.6,37.8-138.9,56.6c-0.9,0.2-1.8,0.4-2.8,0.6
		c-107.1,20.9-262.2,32-461.5,33.2c-1.7,0-3.5,0-5.2,0c-215.7,0-383.4-11.6-498.3-34.4c-36.1-7.2-64-14.9-85.6-22.5
		C45,185.1,32,165.7,27.3,158.1c0,0-1-1.3-2.8-4.7l-0.4-1.9c0-0.1-0.8-8.6,9.4-21.1C48.7,111.7,87,84.7,183.7,62.2
		c114.6-26.7,281.7-40.3,496.9-40.3c196.5,0,350.4,12.8,457.6,37.9c92.3,21.7,130.6,48.1,146.5,66.4c12,13.8,11.8,23.5,11.7,25.3
		C1295.4,164.8,1288.9,170.9,1288.9,170.9z M810.5,863.2c-4.7,18.2-19.2,32.3-37.4,34.8c-31.1,4.2-75.8,9.3-112.8,9.3
		c-36.9,0-81.7-5-112.7-9.1c-19.3-2.6-34.5-18.3-38.2-38.1c23.4,5.5,75.7,15.2,150.9,15.2c2.1,0,4.1,0,6.1,0c0.9,0,1.8,0,2.6,0
		c31.3,0,61.7-1.7,91.1-5C782.6,867.9,799.6,865.2,810.5,863.2z M832.1,838.2v-0.3l-10.9,2.6c-16.1,3.3-32.8,6.1-50,8.3
		c-25.9,3.2-61.5,6.1-105.1,6.4c-58.9-0.2-114-6.2-165.3-18.1l-12.3-3.8v0.8C328.8,794,206.9,696.2,125,542
		C51.6,403.9,31.7,259.3,26.3,190.6c7.9,6.5,17.9,12.8,29.8,18.7C66,336.9,98.9,415,101.7,421.4C125.4,487.9,172,584.3,259.1,666
		c107,100.5,245.7,151.5,412.1,151.5c91.3,0,174.6-15.6,247.8-46.4c62.3-26.2,118-63.7,165.5-111.4c38.2-38.3,71.3-83.3,98.3-133.8
		c19.5-36.4,35.5-74.8,47.6-114.1c0-0.1,0.1-0.2,0.1-0.3l0,0c0-0.1,0.1-0.3,0.2-0.6c0.1-0.5,0.3-0.9,0.4-1.4
		c4.2-16,30.8-119.8,33.2-195.2c14-6.6,23.8-13,30.7-18.9C1286.7,337.2,1228.3,749.2,832.1,838.2z M881.8,683l-0.9-2.9
		c33.8-16.1,65.2-37.1,94-60.9l5.6-4.8c11.2-9.5,20.5-20.9,30.9-31.2c10.5-10.2,21.8-19.6,33-29.1c7.8-6.3,15.4-12.9,24.6-19
		l2.5,1.6c-0.7,4.1-1.7,8-2.8,11.9c-4.8,15.3-12.7,29.5-22.4,42.2c-8.6,11.7-19.7,21.5-31.7,29.7c-15.1,10.2-30.4,20.6-46.4,29.3
		c-18.1,9.8-37.3,18.2-56.8,24.8C901.7,677.9,891.9,680.9,881.8,683z M799.2,716.3c-5.2-0.1-10.7-1.1-15.5-3.5
		c2.7-4.7,6.7-8.6,10.9-11.6c12.2-8.3,28.4-10.9,42-4.6C828.8,709.5,813.9,716.4,799.2,716.3z"/>
</g>
</svg>
