<?xml version="1.0" encoding="utf-8"?>
<!-- Generator: Adobe Illustrator 27.7.0, SVG Export Plug-In . SVG Version: 6.00 Build 0)  -->
<svg version="1.1" id="레이어_1" xmlns="http://www.w3.org/2000/svg" xmlns:xlink="http://www.w3.org/1999/xlink" x="0px"
	 y="0px" width="3000px" height="3000px" viewBox="0 0 3000 3000" style="enable-background:new 0 0 3000 3000;"
	 xml:space="preserve">
<style type="text/css">
	.st0{fill:#FFFFFF;}
	.st1{fill:#E2E2E2;}
	.st2{fill:#FF0000;}
	.st3{fill:#222222;}
</style>
<g>
	<path class="st0" d="M5,2995V5h2990v2990H5z M88,1909.1h2836.7V380.9H88V1909.1z"/>
	<path d="M2990,10v2980H10V10H2990 M83,1914.1h10h2826.7h10v-10V385.9v-10h-10H93H83v10v1518.2V1914.1 M3000,0H0v3000h3000V0L3000,0
		z M93,1904.1V385.9h2826.7v1518.2H93L93,1904.1z"/>
</g>
<path class="st1" d="M322.3,207.7c0,63.3-51.3,114.7-114.7,114.7S93,271,93,207.7S144.3,93,207.7,93S322.3,144.3,322.3,207.7z"/>
<path class="st2" d="M251.3,2026.6L251.3,2026.6c0,23-9.3,44.4-24.5,56.5l-47.5,37.8l-47.5-37.8c-15.2-12.1-24.5-33.5-24.5-56.5l0,0
	c0-0.6,0-1.1,0-1.7c1-42.4,42.7-60.3,63.8-27.6l8.1,12.6l8.1-12.6c21.1-32.7,62.9-14.8,63.8,27.6
	C251.3,2025.5,251.3,2026,251.3,2026.6z"/>
<path class="st3" d="M2896.9,158.9c-4.7,0-8.6-3.8-8.6-8.6s3.8-8.6,8.6-8.6s8.6,3.8,8.6,8.6S2901.6,158.9,2896.9,158.9z M2905.4,186
	c0-4.7-3.8-8.6-8.6-8.6s-8.6,3.8-8.6,8.6c0,4.7,3.8,8.6,8.6,8.6S2905.4,190.8,2905.4,186z M2905.4,221.8c0-4.7-3.8-8.6-8.6-8.6
	s-8.6,3.8-8.6,8.6s3.8,8.6,8.6,8.6S2905.4,226.6,2905.4,221.8z M703.9,2001.9c2.1-2.1,2.5-5.2,1-7.7c-1.5-2.6-4.3-3.8-7.2-3.1
	l-108,27.4c-2.8,0.7-4.7,3.1-4.8,5.9c-0.1,2.9,1.6,5.4,4.3,6.3l63.8,22.1L703.9,2001.9z M687.7,2004l-37.3,37.3l-46.5-16.1
	L687.7,2004z M674.3,2114.6c2.7-0.1,5-2,5.6-4.6l27.8-109.7c0.7-2.8-0.5-5.6-3-7s-5.5-1-7.5,1l-51.3,51.3l22.4,64.9
	c0.9,2.5,3.1,4.1,5.7,4.1C674.2,2114.7,674.2,2114.7,674.3,2114.6z M694.7,2011l-21.2,83.8l-16.1-46.5L694.7,2011z M466.8,2101.7
	l15.3,9c2.3,1.4,5.3,1.2,7.5-0.4c2.2-1.6,3.2-4.4,2.6-7l-6.1-26.4c4.8-10,7.2-21,7.2-32.1c-0.1-19.5-7.9-37.9-21.9-51.7
	c-14-13.8-32.5-21.4-52-21.2c-19.8,0.1-38.2,8-52,22.1s-21.2,32.8-20.8,52.6c0.4,19.1,8.1,37,21.7,50.6
	c13.6,13.5,31.7,21.1,50.7,21.4c0.3,0,0.6,0,0.9,0C437.1,2118.7,453.6,2112.7,466.8,2101.7z M464.3,2000.3
	c12.1,11.9,18.8,27.8,18.9,44.6c0.1,10.3-2.3,20.1-6.9,29.2l-0.8,1.6l5.2,22.7l-15.2-9l-2.7,2.5c-11.9,11-27.4,17-43.7,16.8
	c-33.9-0.4-61.9-28.3-62.6-62.1c-0.3-17.1,6.1-33.2,18-45.4c11.9-12.2,27.9-19,44.9-19.1c0.1,0,0.3,0,0.4,0
	C436.6,1982,452.3,1988.5,464.3,2000.3z M2918.7,2110.4c3.7-1.9,6-5.6,6-9.8v-109.2c0-6.1-4.9-11-11-11h-87.8c-6.1,0-11,4.9-11,11
	v109.2c0,4.1,2.3,7.9,6,9.8c3.7,1.9,8.1,1.6,11.4-0.9l36.9-26.6l0,0c0.3-0.2,0.8-0.2,1.2,0l36.9,26.6c1.9,1.4,4.2,2.1,6.4,2.1
	C2915.4,2111.6,2917.1,2111.2,2918.7,2110.4z M2863.4,2074.8l-36.9,26.6c-0.3,0.2-0.7,0.3-1,0.1s-0.5-0.5-0.5-0.9v-109.2
	c0-0.5,0.4-1,1-1h87.8c0.5,0,1,0.4,1,1v109.2c0,0.4-0.2,0.7-0.5,0.9s-0.7,0.2-1-0.1l-36.9-26.6c-1.9-1.4-4.2-2.1-6.4-2.1
	C2867.5,2072.8,2865.3,2073.5,2863.4,2074.8z"/>
<path class="st0" d="M207.7,139.5c18.8,0,34.1,15.3,34.1,34.1s-15.3,34.1-34.1,34.1s-34.1-15.3-34.1-34.1S188.9,139.5,207.7,139.5z
	 M257.5,264.4h-99.7V261c0-27.5,22.3-40.7,49.9-40.7l0,0c27.5,0,49.9,13.1,49.9,40.7v3.4H257.5z"/>
</svg>
