<?xml version="1.0" encoding="utf-8"?>
<!-- Generator: Adobe Illustrator 27.7.0, SVG Export Plug-In . SVG Version: 6.00 Build 0)  -->
<svg version="1.1" id="레이어_1" xmlns="http://www.w3.org/2000/svg" xmlns:xlink="http://www.w3.org/1999/xlink" x="0px"
	 y="0px" width="334.3px" height="225.7px" viewBox="0 0 334.3 225.7" style="enable-background:new 0 0 334.3 225.7;"
	 xml:space="preserve">
<style type="text/css">
	.st0{fill:#FFFFFF;}
	.st1{fill:#444444;}
	.st2{fill:#AD6B3E;}
	.st3{fill:#A51919;}
	.st4{fill:#E55174;}
	.st5{fill:#E23030;}
	.st6{fill:#231815;}
</style>
<g>
	<path class="st0" d="M303.3,16.9c7.9,0,14.2,6.4,14.2,14.2v163.5c0,7.9-6.4,14.2-14.2,14.2H31.1c-7.9,0-14.2-6.4-14.2-14.2V31.1
		c0-7.9,6.4-14.2,14.2-14.2L303.3,16.9 M303.3,1.9H31.1C14.9,1.9,1.8,15,1.8,31.1v163.5c0,16.1,13.1,29.2,29.2,29.2h272.2
		c16.1,0,29.2-13.1,29.2-29.2V31.1C332.5,15,319.4,1.9,303.3,1.9L303.3,1.9z"/>
	<path class="st1" d="M303.3,208.8H31.1c-7.9,0-14.2-6.4-14.2-14.2V31.1c0-7.9,6.4-14.2,14.2-14.2h272.2c7.9,0,14.2,6.4,14.2,14.2
		v163.5C317.5,202.5,311.1,208.8,303.3,208.8z"/>
	<path class="st0" d="M96.3,186.1h53c0.9,0,1.6,0.7,1.6,1.6v5.7c0,0.9-0.7,1.6-1.6,1.6h-53V186.1z"/>
	<path class="st0" d="M213,186.1h53c0.9,0,1.6,0.7,1.6,1.6v5.7c0,0.9-0.7,1.6-1.6,1.6h-53V186.1z"/>
	<path class="st2" d="M96.3,190.5c0,4.3-5.5,7.9-12.2,7.9s-17.3-3.5-17.3-7.9c0-4.3,10.6-7.9,17.3-7.9
		C90.8,182.7,96.3,186.2,96.3,190.5z"/>
	<path class="st2" d="M213,190.5c0,4.3-5.5,7.9-12.2,7.9s-17.3-3.5-17.3-7.9c0-4.3,10.6-7.9,17.3-7.9
		C207.5,182.7,213,186.2,213,190.5z"/>
	<path class="st3" d="M279.5,147.5H233c-6.4,0-11.6-5.2-11.6-11.6v-82c0-6.4,5.2-11.6,11.6-11.6h46.6c6.4,0,11.6,5.2,11.6,11.6v82
		C291.1,142.3,285.9,147.5,279.5,147.5z"/>
	<path class="st4" d="M101.4,147.5H54.8c-6.4,0-11.6-5.2-11.6-11.6v-82c0-6.4,5.2-11.6,11.6-11.6h46.6c6.4,0,11.6,5.2,11.6,11.6v82
		C112.9,142.3,107.7,147.5,101.4,147.5z M66.8,190.5c0,5.6,14,7.6,14,7.6c4-4.2,0-15.2,0-15.2S66.8,184.9,66.8,190.5z"/>
	<path class="st5" d="M189.9,147.5h-46.6c-6.4,0-11.6-5.2-11.6-11.6v-82c0-6.4,5.2-11.6,11.6-11.6h46.6c6.4,0,11.6,5.2,11.6,11.6v82
		C201.5,142.3,196.3,147.5,189.9,147.5z M183.4,190.5c0,5.6,14,7.6,14,7.6c4-4.2,0-15.2,0-15.2S183.4,184.9,183.4,190.5z"/>
	<path class="st6" d="M303.3,0.9H31.1C14.4,0.9,0.8,14.4,0.8,31.1v163.5c0,16.7,13.6,30.2,30.2,30.2h272.2
		c16.7,0,30.2-13.6,30.2-30.2V31.1C333.5,14.4,319.9,0.9,303.3,0.9z M331.5,194.6c0,15.6-12.7,28.2-28.2,28.2H31.1
		c-15.6,0-28.2-12.7-28.2-28.2V31.1c0-15.6,12.7-28.2,28.2-28.2h272.2c15.6,0,28.2,12.7,28.2,28.2L331.5,194.6L331.5,194.6z
		 M303.3,14.4H31.1c-9.2,0-16.7,7.5-16.7,16.7v137.5v23.1v3c0,9.2,7.5,16.7,16.7,16.7h3h266.3h3c9.2,0,16.7-7.5,16.7-16.7v-3v-23.1
		V31.1C320,21.9,312.5,14.4,303.3,14.4z M300.3,206.3H34c-8.1,0-14.7-6.6-14.7-14.7v-18.1H315v18.1
		C315,199.7,308.4,206.3,300.3,206.3z M315,168.6H19.3V31.1c0-6.5,5.3-11.7,11.7-11.7h272.2c6.5,0,11.7,5.3,11.7,11.7L315,168.6
		L315,168.6z M101.4,39.8H54.8c-7.8,0-14.1,6.3-14.1,14.1v82c0,7.8,6.3,14.1,14.1,14.1h46.6c7.8,0,14.1-6.3,14.1-14.1v-82
		C115.4,46.1,109.1,39.8,101.4,39.8z M101.4,44.8c5,0,9.1,4.1,9.1,9.1v82c0,2.3-0.9,4.4-2.3,6H55.5c-2.9,0-5.3-2.4-5.3-5.3V46.4V46
		c1.3-0.8,2.9-1.3,4.6-1.3L101.4,44.8L101.4,44.8z M189.9,39.8h-46.6c-7.8,0-14.1,6.3-14.1,14.1v82c0,7.8,6.3,14.1,14.1,14.1h46.6
		c7.8,0,14.1-6.3,14.1-14.1v-82C204,46.1,197.7,39.8,189.9,39.8z M189.9,44.8c5,0,9.1,4.1,9.1,9.1v82c0,2.3-0.9,4.4-2.3,6H144
		c-2.9,0-5.3-2.4-5.3-5.3V46.4V46c1.3-0.8,2.9-1.3,4.6-1.3L189.9,44.8L189.9,44.8z M279.5,39.8H233c-7.8,0-14.1,6.3-14.1,14.1v82
		c0,7.8,6.3,14.1,14.1,14.1h46.6c7.8,0,14.1-6.3,14.1-14.1v-82C293.6,46.1,287.3,39.8,279.5,39.8z M279.5,44.8c5,0,9.1,4.1,9.1,9.1
		v82c0,2.3-0.9,4.4-2.3,6h-51.5c-2.9,0-5.3-2.4-5.3-5.3V46.4v-0.9c1.1-0.4,2.2-0.7,3.4-0.7H279.5z M149.3,183.6H95.1
		c-2.7-2.1-6.6-3.4-11-3.4c-6.9,0-19.8,3.6-19.8,10.4c0,6.8,12.9,10.4,19.8,10.4c4.4,0,8.3-1.3,11-3.4h54.2c2.3,0,4.1-1.8,4.1-4.1
		v-5.7C153.4,185.4,151.6,183.6,149.3,183.6z M84.1,195.9c-7.2,0-14.8-3.7-14.8-5.4s7.6-5.4,14.8-5.4c5.7,0,9.7,2.8,9.7,5.4
		S89.8,195.9,84.1,195.9z M148.4,192.4H98.8v-3.9h49.6V192.4z M266,183.6h-54.2c-2.7-2.1-6.6-3.4-11-3.4c-6.9,0-19.8,3.6-19.8,10.4
		c0,6.8,12.9,10.4,19.8,10.4c4.4,0,8.3-1.3,11-3.4H266c2.3,0,4.1-1.8,4.1-4.1v-5.7C270.1,185.4,268.2,183.6,266,183.6z M200.8,195.9
		c-7.2,0-14.8-3.7-14.8-5.4s7.6-5.4,14.8-5.4c5.7,0,9.7,2.8,9.7,5.4S206.5,195.9,200.8,195.9z M265.1,192.4h-49.6v-3.9h49.6V192.4z"
		/>
</g>
</svg>
