<?xml version="1.0" encoding="utf-8"?>
<!-- Generator: Adobe Illustrator 27.7.0, SVG Export Plug-In . SVG Version: 6.00 Build 0)  -->
<svg version="1.1" id="레이어_1" xmlns="http://www.w3.org/2000/svg" xmlns:xlink="http://www.w3.org/1999/xlink" x="0px"
	 y="0px" width="3000px" height="3000px" viewBox="0 0 3000 3000" style="enable-background:new 0 0 3000 3000;"
	 xml:space="preserve">
<style type="text/css">
	.st0{fill:#EAE6DA;}
	.st1{fill:#FFC866;}
	.st2{fill:#EF4C48;}
	.st3{fill:#FFB31A;}
	.st4{fill:#379B29;}
</style>
<g>
	<path class="st0" d="M2936.4,305.3v2545.8c0,47.1-38.2,85.3-85.3,85.3H148.9c-47.1,0-85.3-38.2-85.3-85.3V305.3H2936.4z"/>
	<path class="st1" d="M63.6,335.3V148.9c0-47.1,38.2-85.3,85.3-85.3h2702.2c47.1,0,85.3,38.2,85.3,85.3v186.4H63.6z M2755.8,477.8
		l29.2,42.3c5.5,7.9,0.1,19-9.2,19h-57.4c-9.2,0-14.6-11-9.3-18.9l28.2-42.3C2741.8,471.2,2751.2,471.1,2755.8,477.8z
		 M2756.9,2767.6l28.2-42.3c5.3-7.9-0.1-18.9-9.3-18.9h-57.4c-9.3,0-14.7,11.1-9.2,19l29.2,42.3
		C2742.9,2774.3,2752.4,2774.3,2756.9,2767.6z M2787.2,1128.1V664.9c0-22.2-18-40.1-40.1-40.1l0,0c-22.2,0-40.1,18-40.1,40.1v463.2
		c0,22.2,18,40.1,40.1,40.1l0,0C2769.2,1168.3,2787.2,1150.3,2787.2,1128.1z"/>
	<path class="st2" d="M2568.5,199.4c0,20.3-16.4,36.7-36.7,36.7s-36.7-16.4-36.7-36.7s16.4-36.7,36.7-36.7
		S2568.5,179.1,2568.5,199.4z"/>
	<path class="st3" d="M2689.3,199.4c0,20.3-16.4,36.7-36.7,36.7s-36.7-16.4-36.7-36.7s16.4-36.7,36.7-36.7
		C2672.9,162.7,2689.3,179.1,2689.3,199.4z"/>
	<path class="st4" d="M2810.2,199.4c0,20.3-16.4,36.7-36.7,36.7s-36.7-16.4-36.7-36.7s16.4-36.7,36.7-36.7
		S2810.2,179.1,2810.2,199.4z"/>
	<path d="M2851.1,53.6H148.9c-52.6,0-95.3,42.8-95.3,95.3v146.4v20v2535.8c0,52.6,42.8,95.3,95.3,95.3h2702.2
		c52.6,0,95.3-42.8,95.3-95.3V315.3v-20V148.9C2946.4,96.3,2903.7,53.6,2851.1,53.6z M73.6,148.9c0-41.5,33.8-75.3,75.3-75.3h2702.2
		c41.5,0,75.3,33.8,75.3,75.3v176.4H73.6V148.9z M2926.5,2851.1h-0.1c0,41.5-33.8,75.3-75.3,75.3H148.9c-41.5,0-75.3-33.8-75.3-75.3
		V345.3h2852.9V2851.1z M2531.5,152.7c-25.7,0-46.7,20.9-46.7,46.7s20.9,46.7,46.7,46.7s46.7-20.9,46.7-46.7
		S2557.2,152.7,2531.5,152.7z M2531.5,226.1c-14.7,0-26.7-12-26.7-26.7s12-26.7,26.7-26.7s26.7,12,26.7,26.7
		S2546.2,226.1,2531.5,226.1z M2652.4,152.7c-25.7,0-46.7,20.9-46.7,46.7s20.9,46.7,46.7,46.7s46.7-20.9,46.7-46.7
		S2678.1,152.7,2652.4,152.7z M2652.4,226.1c-14.7,0-26.7-12-26.7-26.7s12-26.7,26.7-26.7s26.7,12,26.7,26.7
		S2667.1,226.1,2652.4,226.1z M2773.2,152.7c-25.7,0-46.7,20.9-46.7,46.7s20.9,46.7,46.7,46.7s46.7-20.9,46.7-46.7
		S2799,152.7,2773.2,152.7z M2773.2,226.1c-14.7,0-26.7-12-26.7-26.7s12-26.7,26.7-26.7s26.7,12,26.7,26.7
		S2787.9,226.1,2773.2,226.1z M2718.4,549.1h57.4c7.9,0,15.1-4.4,18.8-11.5c3.9-7.4,3.4-16.3-1.4-23.2l-29.2-42.3
		c-4-5.8-10.5-9.3-17.4-9.3c-0.1,0-0.1,0-0.2,0c-7,0.1-13.5,3.6-17.5,9.5l-28.2,42.3c-4.6,6.9-5,15.7-1.1,23.1
		C2703.4,544.8,2710.6,549.1,2718.4,549.1z M2717.4,525.8l28.2-42.3c0.3-0.4,0.6-0.6,1-0.6c0.3,0,0.7,0.2,1,0.6l29.2,42.3
		c0.8,1.1,0.3,2.1,0.1,2.5c-0.4,0.8-0.9,0.8-1.1,0.8h-57.4c-0.2,0-0.7,0-1.1-0.8C2717.1,527.9,2716.6,526.9,2717.4,525.8z
		 M2730.1,2773.4c4,5.8,10.5,9.3,17.4,9.3c0.1,0,0.1,0,0.2,0c7-0.1,13.5-3.6,17.5-9.5l28.2-42.3c4.6-6.9,5-15.7,1.1-23.1
		c-3.8-7-10.9-11.4-18.7-11.4h-57.4c-7.9,0-15.1,4.4-18.8,11.5c-3.9,7.4-3.4,16.3,1.4,23.2L2730.1,2773.4z M2717.3,2717.2
		c0.4-0.8,0.9-0.8,1.1-0.8h57.4c0.2,0,0.7,0,1.1,0.8c0.2,0.4,0.6,1.4-0.1,2.5l-28.2,42.3c-0.3,0.4-0.6,0.6-1,0.6l0,0
		c-0.4,0-0.7-0.2-1-0.6l-29.2-42.3C2716.6,2718.7,2717.1,2717.6,2717.3,2717.2z M2747.1,2630.7c27.6,0,50.1-22.5,50.1-50.1V1128.1
		V664.9c0-27.6-22.5-50.1-50.1-50.1c-25,0-45.9,18.5-49.5,42.5c-0.4,2.5-0.6,5-0.6,7.6v463.2v1452.4
		C2697,2608.2,2719.5,2630.7,2747.1,2630.7z M2747.1,2610.7c-16.6,0-30.1-13.5-30.1-30.1V1168.2c8.4,6.3,18.8,10.1,30.1,10.1
		s21.7-3.8,30.1-10.1v1412.4C2777.2,2597.2,2763.7,2610.7,2747.1,2610.7z M2777.2,664.9v463.2c0,16.6-13.5,30.1-30.1,30.1
		s-30.1-13.5-30.1-30.1V664.9c0-16.6,13.5-30.1,30.1-30.1S2777.2,648.3,2777.2,664.9z"/>
</g>
</svg>
