<?xml version="1.0" encoding="utf-8"?>
<!-- Generator: Adobe Illustrator 27.7.0, SVG Export Plug-In . SVG Version: 6.00 Build 0)  -->
<svg version="1.1" id="레이어_1" xmlns="http://www.w3.org/2000/svg" xmlns:xlink="http://www.w3.org/1999/xlink" x="0px"
	 y="0px" width="1701.8px" height="966.2px" viewBox="0 0 1701.8 966.2" style="enable-background:new 0 0 1701.8 966.2;"
	 xml:space="preserve">
<style type="text/css">
	.st0{fill:#9595FC;}
	.st1{fill:#FFFFFF;}
	.st2{fill:#FF617C;}
	.st3{fill:#FFC5C9;}
</style>
<path class="st0" d="M1682.2,951.9H19.6V14.3h1662.7L1682.2,951.9L1682.2,951.9z"/>
<path class="st1" d="M1081.3,692.6h-447c-13.1,0-23.6-10.6-23.6-23.6V309.2c0-13.1,10.6-23.6,23.6-23.6h447
	c13.1,0,23.6,10.6,23.6,23.6V669C1105,682,1094.4,692.6,1081.3,692.6z"/>
<path class="st2" d="M114,103.3v89H19.6v-178h1662.7v178.1h-94.5v-89H114V103.3z M509,285.5H205.4c-20.6,0-38.3,14.8-41.8,35.1l0,0
	C144,432.1,144,546,163.6,657.4l0,0c3.6,20.3,21.2,35.1,41.8,35.1H509V285.5z M1200.4,692.6H1504c20.6,0,38.3-14.8,41.8-35.1l0,0
	c19.6-111.4,19.6-225.4,0-336.8l0,0c-3.6-20.3-21.2-35.1-41.8-35.1h-303.5L1200.4,692.6L1200.4,692.6z"/>
<path class="st3" d="M509,327.3c0,0-179,1.6-179,174.5c0,0,3.1,139,179,139v51.8H339.6c0,0-116.3-45.9-107.3-208.1
	s97.3-198.9,97.3-198.9H509V327.3z M1201.2,327.3c0,0,179,1.6,179,174.5c0,0-3.1,139-179,139v51.8h169.3c0,0,116.3-45.9,107.3-208.1
	s-97.3-198.9-97.3-198.9h-179.3V327.3z"/>
<path d="M9.6,4.3v198.1V962h1682.7V202.4V4.3H9.6z M29.6,24.3h1642.7v158.1h-74.5v-89H104v89H29.6V24.3z M29.6,941.9v-74.5h1642.7
	v74.5H29.6z M1672.2,847.4H29.6v-645H124v-89h1453.7v89h94.5V847.4z M205.4,275.5c-25.5,0-47.3,18.3-51.7,43.4
	c-19.8,112.9-19.8,227.4,0,340.2c4.4,25.1,26.2,43.4,51.7,43.4h143.9H519v-52.1v-69.9V386.8v-69.9v-41.4H347.2H205.4z M173.5,655.7
	C154,545.1,154,433,173.5,322.4c2.7-15.6,16.2-26.9,32-26.9h100.3c-7.5,5.1-15.4,11.5-23.4,19.3c-18.1,17.9-32.5,39.8-42.8,65.2
	c-12.7,31.3-19.2,68-19.2,109c0,42.6,6.6,80.3,19.5,112c10.5,25.7,25.2,47.6,43.6,65c7,6.6,14.1,12.1,20.8,16.6h-98.8
	C189.6,682.6,176.2,671.3,173.5,655.7z M499,388.2c-10.2,1.4-27,4.7-44,12.8c-36.2,17.2-55.4,47.2-55.4,86.6
	c0,26.2,8.4,47.6,24.9,63.6c23.6,22.9,57.6,28.2,74.5,29.3v50c-23.4-1.1-84-7.6-123.1-45.5c-24.1-23.4-36.3-55.2-36.3-94.6
	c0-60.3,28.1-104.3,83.4-130.8c30-14.4,60.4-19.6,75.9-21.4v50H499z M499,295.5v22.6c-16,1.7-49.8,7.1-84,23.3
	c-62.4,29.6-95.4,81.2-95.4,149.1c0,45.1,14.3,81.8,42.4,109.1c44.8,43.4,111.4,50.2,136.9,51.1v31.9H351.3
	c-4.7-1.1-29.3-7.7-54.2-31.1c-37.2-35-56.8-91.2-56.8-162.4c0-67.9,19.1-123,55.3-159.1c24.3-24.3,49-32.8,54.2-34.4H499V295.5z
	 M1081.3,275.5h-447c-18.5,0-33.6,15.1-33.6,33.6v359.8c0,18.5,15.1,33.6,33.6,33.6h447c18.5,0,33.6-15.1,33.6-33.6V309.2
	C1115,290.6,1099.9,275.5,1081.3,275.5z M1095,668.9c0,7.5-6.1,13.6-13.6,13.6h-447c-7.5,0-13.6-6.1-13.6-13.6V309.2
	c0-7.5,6.1-13.6,13.6-13.6h447c7.5,0,13.6,6.1,13.6,13.6V668.9z M1041.7,374.4L1041.7,374.4c0,6.7-5.4,12.1-12.1,12.1H686.1
	c-6.7,0-12.1-5.4-12.1-12.1l0,0c0-6.7,5.4-12.1,12.1-12.1h343.4C1036.3,362.3,1041.7,367.7,1041.7,374.4z M1041.7,451.5
	c0,6.7-5.4,12.1-12.1,12.1H686.1c-6.7,0-12.1-5.4-12.1-12.1s5.4-12.1,12.1-12.1h343.4C1036.3,439.4,1041.7,444.9,1041.7,451.5z
	 M1041.7,528.7c0,6.7-5.4,12.1-12.1,12.1H686.1c-6.7,0-12.1-5.4-12.1-12.1c0-6.7,5.4-12.1,12.1-12.1h343.4
	C1036.3,516.6,1041.7,522,1041.7,528.7z M1041.7,605.8L1041.7,605.8c0,6.7-5.4,12.1-12.1,12.1H686.1c-6.7,0-12.1-5.4-12.1-12.1l0,0
	c0-6.7,5.4-12.1,12.1-12.1h343.4C1036.3,593.7,1041.7,599.1,1041.7,605.8z M1504,275.5h-141.8h-171.7v41.4v69.9v193.7v69.9v52.1
	h169.6H1504c25.5,0,47.3-18.3,51.7-43.4c19.8-112.9,19.8-227.4,0-340.2C1551.2,293.8,1529.5,275.5,1504,275.5z M1210.4,580.6
	c16.9-1.2,50.8-6.4,74.5-29.3c16.5-16,24.9-37.4,24.9-63.6c0-39.5-19.1-69.4-55.4-86.6c-17-8.1-33.8-11.4-44-12.8v-49.9
	c15.3,1.8,45.4,7,75.4,21.2c55.7,26.5,84,70.5,84,131c0,39.4-12.2,71.3-36.3,94.6c-39.1,37.9-99.6,44.4-123.1,45.5V580.6z
	 M1210.4,682.6v-31.9c25.5-0.9,92.1-7.7,136.9-51.1c28.2-27.3,42.4-64,42.4-109.1c0-67.9-33-119.5-95.4-149.1
	c-34.1-16.2-67.9-21.6-84-23.3v-22.6h149.1c5.3,1.6,30,10.1,54.2,34.4c36.2,36.2,55.3,91.2,55.3,159.1c0,70.6-19.4,126.5-56,161.6
	c-25,23.9-50.4,30.8-55,31.9L1210.4,682.6L1210.4,682.6z M1536,655.7c-2.7,15.6-16.2,26.9-32,26.9h-98.8c6.7-4.5,13.7-9.9,20.8-16.6
	c18.5-17.4,33.1-39.2,43.6-65c12.9-31.7,19.5-69.4,19.5-112c0-41-6.5-77.7-19.2-109c-10.3-25.4-24.7-47.3-42.8-65.2
	c-8-7.8-15.9-14.2-23.4-19.3H1504c15.8,0,29.3,11.3,32,26.9C1555.4,433,1555.4,545.1,1536,655.7z"/>
</svg>
