<?xml version="1.0" encoding="utf-8"?>
<!-- Generator: Adobe Illustrator 27.7.0, SVG Export Plug-In . SVG Version: 6.00 Build 0)  -->
<svg version="1.1" id="레이어_1" xmlns="http://www.w3.org/2000/svg" xmlns:xlink="http://www.w3.org/1999/xlink" x="0px"
	 y="0px" width="2026.6px" height="1418.1px" viewBox="0 0 2026.6 1418.1" style="enable-background:new 0 0 2026.6 1418.1;"
	 xml:space="preserve">
<style type="text/css">
	.st0{fill:#FFCCCC;}
	.st1{fill:#BC8B8B;}
	.st2{fill:#DB2121;}
	.st3{fill:#FFFFFF;}
	.st4{fill:#231815;}
</style>
<g>
	<path class="st0" d="M237.9,480.9L832.1,62.4c0.8-0.6,1.8-0.8,2.8-0.6l822.7,231c2.3,0.7,2.9,3.6,1.1,5.2l-539.2,446.2
		c-0.8,0.6-1.8,0.8-2.8,0.6L239,486C236.7,485.3,236.1,482.4,237.9,480.9z M1908.6,658.7L1663,302.2v-1.5c0-2.5-3-3.9-4.9-2.3
		l-4.4,3.7c0,0,0,0-0.1,0l-527.1,436.7c-0.9,0.8-1.6,1.7-2,2.7l-5.2,4.3c-0.7,0.6-1.1,1.4-1.1,2.3v0.8c0-1.3-0.9-2.5-2.1-2.9
		L237.4,486.3c-1.9-0.6-3.8,0.9-3.8,2.9l0.1,4.3c-0.1-1.3-1.8-1.8-2.5-0.7L61.6,741.1c-0.5,0.8,0.4,1.8,1.2,1.3l173.7-93.7
		l8.5,447.1c0,1.3,0.9,2.5,2.1,2.9l867.1,256.9c1.9,0.6,3.8-0.9,3.8-2.9v-2.4c0,2.5,3,3.9,4.9,2.3l275.7-229l9.1,12.4
		c3,2.3,7.1,2,9.7-0.7l235.7-223.2l8.5-7.1c0.6-0.5,1-1.2,1-2l246.5-233.4C1912.6,666.7,1912.2,661.4,1908.6,658.7z"/>
	<path class="st1" d="M1176.9,697.7l-55.4,48.9l-345.8-105l59.8-48.4L1176.9,697.7z"/>
	<path class="st2" d="M1629.6,931.9c4.9,1.3,78.5,19.2,137.2,93.9s193.1,79.8,193.1,79.8l-32,108.4c0,0-148.2-11.2-220.4-98
		c-74.7-89.6-176.8-100.7-176.8-100.7L1629.6,931.9z M236.8,872.1c0,0-97.1,17.5-75.4,140c24.3,137.5,72.3,113.1,179,223.3
		c122,126.1,140.4,120.9,140.4,120.9l101.3-89.8c0,0-104.1-73-141.4-110.5L245,1095.8L236.8,872.1z"/>
	<path class="st3" d="M1607,951c0,0,83.7,28.4,138.3,99.5c54.6,71.1,206,84.5,206,84.5l-12.6,42.6c0,0-152.1-19.6-213.4-97.8
		s-152.4-100.1-152.4-100.1L1607,951z M236.8,931.9c0,0-55.6,14.3-30.7,94.6c8.5,27.5,28,54.9,35.7,65.1c1,1.3,3,0.5,2.9-1.1
		L236.8,931.9z M260,1102.9c4.5,2.9,39.2,26.1,89.5,74.8c43.6,42.3,164,149.8,164,149.8l37.5-33.2
		c-40.6-33.6-195.4-159.7-195.4-159.7l-95.4-31.8C259.9,1102.7,259.9,1102.8,260,1102.9z"/>
	<path class="st4" d="M1671.4,908.9l244.8-231.8l0.2-0.2c3.5-3.6,5.4-8.5,5-13.5c-0.3-4.4-2.3-8.4-5.4-11.4l-243.2-353
		c-0.4-2.9-1.8-5.6-3.8-7.6c-1.4-3.9-4.5-7-8.6-8.2h-0.1l-822.7-231c-4-1.1-8.2-0.3-11.5,2.1l-594,418.4l-0.6,0.5
		c-2.2,1.9-3.7,4.3-4.4,7.1c-1.4,1.5-2.5,3.4-3.1,5.4c-0.4,0.5-0.9,1-1.2,1.5L53.4,735.4c-2.9,4.2-2.5,9.7,0.9,13.5
		c2.1,2.4,5.1,3.6,8.1,3.6c1.8,0,3.6-0.4,5.2-1.3l159.3-85.9l3.7,198c-8.6,2.3-28.3,9-46.4,25.5c-21.5,19.7-44.7,57.3-32.7,125.1
		c16.8,95.2,45.8,116.9,93.9,152.9c23.4,17.5,52.5,39.2,87.7,75.7c51,52.7,90.5,89.3,117.3,108.9c16.9,12.3,25.2,15.1,30,15.1
		c1.2,0,2.2-0.2,3-0.4l2.2-0.6l27.7-24.6l0,0l52.8-46.8l32-28.4l-10.4-7.3c-0.8-0.6-61.9-43.5-106.5-79.9l630.1,186.7
		c1.2,0.4,2.4,0.5,3.7,0.5c2.7,0,5.4-0.8,7.6-2.4c2.4-0.3,4.7-1.3,6.7-2.9l267.5-222.2l3.7,5l1.1,0.9c3.1,2.4,6.8,3.6,10.6,3.6
		c4.4,0,8.9-1.7,12.2-5l120.8-114.4c10.5,2.4,25.4,6.5,42.6,13.5c30.6,12.3,74.8,36.4,111.8,80.8c38.9,46.7,98.8,71.9,142.2,84.7
		c46.6,13.8,83.6,16.7,85.2,16.8l8.1,0.6l10.6-36l0,0l1.6-5.3l27.8-86.3l-14.9-1.4c-1.3,0-127.2-8.8-182.4-79
		c-43.5-55.3-94.4-80.7-123.6-91.4L1671.4,908.9z M90.9,715.9l133.3-195.3l2.3,122.1L90.9,715.9z M842.1,74.2l799.8,224.6
		l-470.6,389.4L842.1,587.4V74.2z M822.1,81.6V590l-52,42.1L255.7,480.5L822.1,81.6z M233.3,1061.2c-6.7-11.2-13.5-24.4-17.6-37.6
		c-8.1-26.1-8-47,0.3-62.2c3.4-6.2,7.7-10.5,11.6-13.6L233.3,1061.2z M478.3,1345.3c-9.2-4.4-41.6-24.7-130.7-116.8
		c-36.4-37.6-66.2-59.9-90.1-77.8c-47.1-35.2-70.7-52.9-86.2-140.3c-15.4-87.3,33-116.3,56-125l1.4,38.9c-7.5,3.2-21,10.9-30.1,27.1
		c-11.2,20.2-11.9,46.5-2.1,78.2c9,28.8,29,57.3,37.3,68.2c0.4,0.5,0.8,1,1.3,1.4l0.2,4.1l2.8,0.9c1.6,1.9,3.7,3.4,6.2,4.1l10.3,3
		c4.2,2.8,38.5,25.7,87.8,73.5c36.6,35.5,127.8,117.4,155.9,142.5L478.3,1345.3z M529.7,1299.7l-16.2,14.4
		c-25.8-23.1-120-107.6-157.1-143.5c-16.3-15.8-31-28.9-43.6-39.7l37.8,12.6c14.6,11.9,137.6,112.1,184.9,151L529.7,1299.7z
		 M566.1,1267.4l-15.4,13.7c-33.9-28-113.2-92.6-157.5-128.7l42.3,12.5C467.4,1196.2,539.2,1248.2,566.1,1267.4z M1108.1,1343.3
		l-664.5-196.8l-188.8-58.1l-8.2-433.8l0.2-0.1l-3.2-155.9l690.8,204.3l173.6,52.7L1108.1,1343.3L1108.1,1343.3z M1115.8,734
		l-322.5-95l40.8-33.1l318.6,97.5L1115.8,734z M1128.1,1335.4v-566l257,352.5L1128.1,1335.4z M1412.9,1126.1L1135.8,746l33.7-29.7
		l488-404.3l242.9,352.5l0.1,0.2L1412.9,1126.1z M1920.7,1203.3c-31.2-3.8-146.1-22.3-205.5-93.6c-39.9-47.9-87.5-73.7-120.4-86.8
		c-12-4.8-23-8.4-32.2-10.9l19.9-18.8c26.1,8.8,89.4,34.8,135,92.9c26.7,34,72,61.5,134.5,81.6c31.4,10.1,59.1,15.6,73.9,18.2
		L1920.7,1203.3z M1931.5,1166.5c-32.2-5.4-148.4-29-198.4-92.8c-32.8-41.9-73.9-67.8-102.6-82.1c-12-6-22.9-10.6-31.8-13.9
		l14.3-13.5c22.8,9.5,82.7,38.4,124.3,92.5c48,62.5,163.1,82.1,200.9,87L1931.5,1166.5z M1944,1124.2c-31.5-4-146.5-22.1-190.8-79.7
		c-40.5-52.8-95.8-82.5-124.3-95.3l10-9.4c21.8,6.9,77.1,30.5,123.3,89.3c25.7,32.7,67.4,56.8,123.9,71.4c26.7,6.9,50.2,10,64,11.3
		L1944,1124.2z"/>
</g>
</svg>
