<?xml version="1.0" encoding="utf-8"?>
<!-- Generator: Adobe Illustrator 27.7.0, SVG Export Plug-In . SVG Version: 6.00 Build 0)  -->
<svg version="1.1" id="레이어_1" xmlns="http://www.w3.org/2000/svg" xmlns:xlink="http://www.w3.org/1999/xlink" x="0px"
	 y="0px" width="399.7px" height="349.9px" viewBox="0 0 399.7 349.9" style="enable-background:new 0 0 399.7 349.9;"
	 xml:space="preserve">
<style type="text/css">
	.st0{fill:#FFFFFF;}
	.st1{fill:#895810;}
	.st2{fill:#FF5A5A;}
	.st3{fill:#FFC5C5;}
	.st4{fill:#49A30F;}
	.st5{fill:#231815;}
</style>
<g>
	<path class="st0" d="M316.1,74.7c-5.9,8.1-13.8,17.3-23.4,25c-12,9.6-24.6,14.9-37.1,15.9c5.2,12.3,11.9,25,26.2,46.4
		c6.7-1.5,13.6-2.3,20.6-2.3c51.2,0,92.8,41.6,92.8,92.8s-41.6,92.8-92.8,92.8s-92.8-41.6-92.8-92.8c0-22.5,8.1-43.9,22.6-60.7
		c-8.5-10.2-20.6-26.9-30.1-48.4c-9.1,15.1-21.2,32.9-35.2,48.1c14.7,16.8,22.9,38.3,22.9,61.1c0,51.2-41.6,92.8-92.8,92.8
		S4.2,303.8,4.2,252.6s41.6-92.8,92.8-92.8c6.8,0,13.5,0.7,20.1,2.2c8-8.5,24.2-28,39.8-60.1c-14.4-3.6-27.3-13.3-37.4-28.4
		c-11.3-16.8-16.9-36.5-19.3-46.8c-1.4-5.9,0.3-12.1,4.5-16.4c4.2-4.4,10.3-6.3,16.2-5.2C125.7,6,137.5,8,163,11
		c23,2.8,39.7,11.4,49.9,25.6c0.1,0.2,0.2,0.3,0.3,0.5c0.3-0.2,0.6-0.4,0.9-0.7c14-10.5,32.7-13.5,55.4-9.1
		c25.3,4.9,37.1,6.6,41.9,7.2c6,0.8,11.2,4.5,13.9,9.9c2.7,5.4,2.4,11.8-0.7,17c-1.8,3-4.2,6.8-7.2,11L316.1,74.7z M254,191.5
		l8.7,12.5c-14.6,12-22.9,29.7-22.9,48.5c0,34.6,28.2,62.8,62.8,62.8s62.8-28.2,62.8-62.8s-28.2-62.8-62.8-62.8
		c-7.5,0-14.8,1.3-21.7,3.9l-6.2-13.4l-11.4,7.8c-0.8-1.2-1.7-2.4-2.5-3.6L254,191.5z M97.2,189.7c-34.6,0-62.8,28.2-62.8,62.8
		s28.2,62.8,62.8,62.8s62.8-28.2,62.8-62.8c0-19.2-8.7-37.2-23.8-49.2l8.5-12.7l-6.5-7.2c-3.8,3.9-6.1,6-6.5,6.3l-7.1-8.4l-5.7,12.2
		C111.9,191,104.6,189.7,97.2,189.7z M226.7,124.1c2.2,5.8,4.8,11.2,7.4,16.3C231.2,134.7,228.8,129.4,226.7,124.1z M190.5,100.5
		c-2,4.6-4,9-6,13.2c3.5-6.5,5.7-11.2,6.3-12.9c0.1-0.2,0.1-0.3,0.2-0.4L190.5,100.5z M134.8,37.5c6.5,17.3,18.7,38.4,39.6,35.7
		l1.1-0.7h5.6L141,38.3C138.8,38,136.7,37.7,134.8,37.5z M223.9,72.5h54.5c3.8-3.5,7.2-7.5,10.2-11.2c-6.5-1.1-14.6-2.6-24.6-4.5
		c-14.1-2.7-24.8-1.5-31.8,3.8C227.5,64,225.1,69.1,223.9,72.5z M159.9,40.7l30.6,16.2c-0.5-1.1-1.2-2.1-1.9-3.2
		C183.5,46.8,173.8,42.4,159.9,40.7z"/>
	<path class="st1" d="M231.9,95.8c10.4,27.2,13.6,39.8,43.7,83.7l-22.5,12.9c0,0-36.1-34.5-47.6-86.6c-0.1-0.2-0.4-0.3-0.5,0
		c-2.9,8.3-28.3,57.7-59.4,85.8L122,178.3c0,0,32.3-27.6,57.8-90.8c0,0,22.3-9.6,27.7-12.5c0,0,2.2,2,3.4,3.2L231.9,95.8z"/>
	<path class="st2" d="M174.9,252.5c0,42.9-34.8,77.8-77.8,77.8s-77.8-34.8-77.8-77.8s34.8-77.8,77.8-77.8S174.9,209.5,174.9,252.5z
		 M302.5,174.7c-42.9,0-77.8,34.8-77.8,77.8s34.8,77.8,77.8,77.8s77.8-34.8,77.8-77.8S345.5,174.7,302.5,174.7z"/>
	<path class="st3" d="M144.1,259.5c-3.9,0-7-3.1-7-7c0-27.9-23.8-37.9-24.8-38.3c-3.6-1.4-5.3-5.5-3.9-9.1s5.5-5.3,9-3.9
		c1.4,0.5,33.7,13.7,33.7,51.3C151.1,256.3,147.9,259.5,144.1,259.5z M144.4,282.2l1.4-2.5c1.9-3.4,0.6-7.6-2.8-9.5
		c-3.4-1.9-7.6-0.6-9.5,2.8l-1.4,2.5c-1.9,3.4-0.6,7.6,2.8,9.5c1.1,0.6,2.2,0.9,3.4,0.9C140.7,285.8,143.1,284.5,144.4,282.2z
		 M356.4,252.5c0-37.6-32.3-50.8-33.7-51.3c-3.6-1.4-7.6,0.3-9,3.9c-1.4,3.6,0.3,7.6,3.9,9.1c1,0.4,24.8,10.4,24.8,38.3
		c0,3.9,3.1,7,7,7S356.4,256.3,356.4,252.5z M349.7,282.2l1.4-2.5c1.9-3.4,0.6-7.6-2.8-9.5s-7.6-0.6-9.5,2.8l-1.4,2.5
		c-1.9,3.4-0.6,7.6,2.8,9.5c1.1,0.6,2.2,0.9,3.4,0.9C346,285.8,348.4,284.5,349.7,282.2z"/>
	<path class="st4" d="M311.9,53.8c-10.3,17.4-54.7,83-103.9,20.9c0,0,4.4-43.2,58.9-32.7c24.9,4.8,37.2,6.7,42.9,7.4
		C311.9,49.6,313,51.9,311.9,53.8z M161.4,25.8c-25.2-3-37.5-5-43.1-6.1c-2.1-0.4-3.9,1.5-3.4,3.5c4.5,19.7,26.7,95.8,92.6,51.7
		C207.5,74.9,216.5,32.4,161.4,25.8z"/>
	<path class="st5" d="M302.5,172.2c-9.1,0-17.8,1.5-25.9,4.3c-26-38-31.4-52.3-39.4-73.8c-0.3-0.7-0.6-1.5-0.8-2.2
		c4.9,1.9,10,2.8,15,2.8c0.9,0,1.9,0,2.8-0.1c29.4-2,51.7-34.4,59.9-48.2c0.9-1.6,1-3.5,0.2-5.2s-2.4-2.8-4.2-3
		c-6.1-0.8-18.4-2.7-42.7-7.4c-19.1-3.7-34.4-1.4-45.5,6.9c-5.7,4.3-9.5,9.5-11.9,14.3c-0.9-5.2-2.8-11.2-6.9-16.9
		c-8.1-11.3-21.9-18.2-41.3-20.5c-24.6-3-36.9-4.9-42.9-6.1c-1.8-0.3-3.7,0.3-4.9,1.6c-1.3,1.3-1.8,3.2-1.4,5
		c3.6,15.7,14.9,53.4,42.3,64.2c4.9,1.9,10.1,2.9,15.4,2.9c1.8,0,3.6-0.1,5.5-0.3c-22.7,54.3-50.3,81.1-54.7,85.2
		c-7.5-2.3-15.5-3.6-23.8-3.6c-44.3,0-80.3,36-80.3,80.3s36,80.3,80.3,80.3s80.3-36,80.3-80.3c0-24.4-10.9-46.2-28.1-60.9
		c26.1-24.5,47.6-62.7,55.3-78.6c11.2,41.9,37.6,71.8,44.8,79.4c-16.7,14.7-27.2,36.2-27.2,60.2c0,44.3,36,80.3,80.3,80.3
		s80.3-36,80.3-80.3S346.8,172.2,302.5,172.2z M224.8,50.4c9.9-7.4,23.9-9.4,41.6-6c24.5,4.7,36.9,6.6,43.1,7.4
		c0.2,0,0.3,0.1,0.3,0.2c0.1,0.1,0.1,0.3,0,0.4c-6.1,10.3-28.1,43.9-56,45.8c-7,0.5-13.9-1.1-20.7-4.7l-4.4-3.2
		c-4.8-3.5-9.4-7.4-13.7-11.6l-2.3-2.3c-0.7-0.8-1.4-1.6-2.1-2.5C211.2,70.5,214,58.4,224.8,50.4z M156.6,83.4
		c-25.9-10.3-36.6-49.1-39.3-60.7c0-0.2,0-0.3,0.1-0.4s0.2-0.1,0.3-0.1h0.1c6.1,1.1,18.5,3.1,43.3,6.1c17.8,2.2,30.5,8.3,37.7,18.4
		c7.7,10.7,6.8,23,6.3,26.7c-2.6,1.3-3.1,2.9-12,7.1c-9.1,4.2-12.7,4-14.1,4.7C171,86.7,163.5,86.1,156.6,83.4z M172.4,252.5
		c0,42.9-36,77.5-79.4,75.2c-38.2-2-69-32.9-71.1-71.1c-2.3-43.4,32.3-79.4,75.2-79.4c9.1,0,17.9,1.6,26,4.6l0,0
		c6.9,3,13.5,6.7,19.7,11l1,0.7C161.3,207.3,172.4,228.6,172.4,252.5z M207.9,105.3c-0.3-1.2-1.3-2.1-2.5-2.1c-0.1,0-0.1,0-0.2,0
		c-1.2,0-2.2,0.7-2.6,1.8c-2.7,7.7-26.8,55.1-57.3,83.4c-5.8-4.4-12.2-8-19.1-10.7c8.3-8,33.9-35.6,55.3-88.1
		c8.1-1.9,16.7-5.7,25.7-11.5c0.6,0.6,1.4,1.3,1.9,1.8l0,0c6.7,7.8,13.6,13.7,20.7,17.6c0.9,2.4,1.8,4.8,2.6,7
		c8.1,21.6,13.5,36.1,39.3,73.8c-6.6,2.8-12.8,6.4-18.4,10.8C246.5,182,217.8,150,207.9,105.3z M299,327.7
		c-39-1.8-70.4-33.7-71.7-72.7c-0.8-24.4,10.1-46.3,27.4-60.6l3.8-2.6c4.7-3.2,9.7-6.1,14.9-8.5l3.1-1.5c8.6-3.2,18-4.8,27.7-4.6
		c39.3,0.9,71.6,32.5,73.4,71.8C379.7,293.3,343.2,329.7,299,327.7z M302.5,158.7c-6.8,0-13.6,0.7-20.2,2.2
		c-14.1-21.1-20.4-33.2-25.2-44.4c12.4-1.3,24.6-6.7,36.3-16c8.2-6.6,16.1-15.1,23.5-25.2l1.6-2.2c2.6-3.6,5-7.4,7.2-11.1
		c3.3-5.5,3.5-12.2,0.7-18s-8.3-9.7-14.6-10.5c-4.8-0.6-16.6-2.4-41.9-7.2c-23-4.4-41.9-1.3-56.2,9.3l0,0
		c-10.4-14.3-27.3-22.9-50.4-25.7c-25.5-3.1-37.3-5-42.1-5.9c-6.3-1.2-12.7,0.9-17.1,5.5s-6.2,11.1-4.8,17.3
		c2.4,10.3,8,30.2,19.4,47.1c9.9,14.7,22.6,24.6,36.8,28.5c-15,30.6-30.5,49.5-38.7,58.3c-6.4-1.4-13.1-2.1-19.7-2.1
		c-51.7,0-93.8,42.1-93.8,93.8s42.1,93.8,93.8,93.8s93.8-42.1,93.8-93.8c0-22.5-8-44.1-22.6-61c14.2-15.5,26-33.2,33.7-45.9
		c9.3,20.4,20.7,36.3,28.9,46.3c-14.4,16.9-22.3,38.4-22.3,60.7c0,51.7,42.1,93.8,93.8,93.8s93.8-42.1,93.8-93.8
		S354.2,158.7,302.5,158.7z M302.5,344.2c-50.6,0-91.8-41.2-91.8-91.8c0-22.1,7.9-43.4,22.3-60l0.6-0.6l-0.5-0.7
		c-8.4-10.2-20.5-26.8-30-48.2l-0.8-1.8l-1,1.6c-7.7,12.9-20.1,31.7-35.1,47.9l-0.6,0.7l0.6,0.7c14.6,16.7,22.7,38.1,22.7,60.4
		c0,50.6-41.2,91.8-91.8,91.8S5.4,303.1,5.4,252.5s41.2-91.8,91.8-91.8c6.7,0,13.4,0.7,19.9,2.2l0.6,0.1l0.4-0.4
		c8.3-8.8,24.5-28.3,39.9-60.3l0.5-1.1l-1.2-0.3c-14.2-3.6-27-13.3-36.9-28c-11.2-16.7-16.8-36.3-19.1-46.5
		c-1.3-5.6,0.3-11.4,4.3-15.5s9.7-6,15.3-4.9c4.8,0.9,16.6,2.9,42.2,5.9c22.7,2.7,39.2,11.2,49.2,25.2l0.9,1.3l0.8-0.6
		c0.3-0.2,0.6-0.4,0.8-0.6c13.8-10.3,32.2-13.3,54.6-9c25.3,4.9,37.2,6.6,42,7.2c5.7,0.7,10.6,4.2,13.1,9.4
		c2.5,5.1,2.3,11.2-0.7,16.1c-2.2,3.7-4.6,7.4-7.1,11l-1.6,2.2c-7.3,10-15.1,18.3-23.2,24.8c-11.8,9.4-24.1,14.7-36.5,15.7l-1.4,0.1
		l0.5,1.3c5,11.8,11.4,24.2,26.3,46.6l0.4,0.6l0.7-0.2c6.7-1.5,13.5-2.3,20.4-2.3c50.6,0,91.8,41.2,91.8,91.8
		S353.1,344.2,302.5,344.2z"/>
</g>
</svg>
