<?xml version="1.0" encoding="utf-8"?>
<!-- Generator: Adobe Illustrator 27.7.0, SVG Export Plug-In . SVG Version: 6.00 Build 0)  -->
<svg version="1.1" id="레이어_1" xmlns="http://www.w3.org/2000/svg" xmlns:xlink="http://www.w3.org/1999/xlink" x="0px"
	 y="0px" width="2526.4px" height="2124.4px" viewBox="0 0 2526.4 2124.4" style="enable-background:new 0 0 2526.4 2124.4;"
	 xml:space="preserve">
<style type="text/css">
	.st0{fill:#E8CCB1;}
	.st1{fill:#C6A78D;}
	.st2{fill:#FCE5CA;}
	.st3{fill:#EAB05C;}
	.st4{fill:#FFDE52;}
</style>
<g>
	<path class="st0" d="M2294.9,1479c27.1,65.7-65.2,281.4-65.2,281.4L241,1820.8c0,0-129.5-386.3-111.8-407.5s1096-940.6,1096-940.6
		S2267.7,1413.3,2294.9,1479z"/>
	<path class="st1" d="M2299.8,2060.5H193.2v-719h2106.7L2299.8,2060.5L2299.8,2060.5z"/>
	<path class="st2" d="M2453.9,1494.9V2092c-94,2.7-372.9-7.8-372.9-7.8c5.3-204.5,174.4-553.5,174.4-553.5
		c-643.5-201.4-989.4-991-989.4-991h-3.6c0,0-345.9,789.6-989.4,990.9c0,0,169.1,349.1,174.4,553.5c0,0-279,10.5-372.9,7.8v-597.1
		L1266,141.4L2453.9,1494.9z"/>
	<path class="st3" d="M2508.9,1500.7L1681,552h0.1l-49.2-57.2h-0.8l-328.3-376.1l53.6-61.5L1312.6,19l-48.4,55.5L1215.8,19
		l-43.9,38.3l53.6,61.5L897.2,494.9h-0.8L847.2,552h0.1L19.4,1500.7l15.6,13.7v539.2v56h48h2362.2h42.5h5.5v-595.2L2508.9,1500.7z
		 M1264.2,163.1l289.6,331.8H974.6L1264.2,163.1z M83.1,2053.5v-537.1L924.7,552h678.9l841.7,964.4v537.1H83.1z"/>
	<path d="M2523,1501.7l-833.6-955.2l-53-61.6h-0.8l-4.3-5l-1.8,5h-81.9l6.8-4.4l-266.8-305.8l-22.1,5.1l266.2,305H996.6l311.9-357.4
		l-0.2,12.6L1578,449l24.8-2l-286.6-328.4l54.5-62.4l-59-51.5l-47.4,54.4l-40.9-46.8l-6.6-7.5l-59,51.5l54.5,62.4L925.7,447
		l24.1,2.8L1313.5,33l28.9,25.2L970.1,484.9h-75l-1.1-1.5l-1.3,1.5h-1L825.3,562l0,0L11.9,1494.1l-6.6,7.5l19.8,17.2v600.7h59.6v0.1
		l2360.7-0.1h58v-600.7L2523,1501.7z M1185.9,58.3l28.9-25.2l36.1,41.4l-25.4,29.1L1185.9,58.3z M2466,1524.9L1625.6,562h50.8
		l818.3,937.7L2466,1524.9z M1250.4,542h-381l32.4-37.2h724.8L1659,542h-381H1250.4z M2264.4,1535l3.6-7.5
		c15.1-1.3,42.7-0.7,92.9,7.6h0.1c1.6,0.2,35.9,5.4,74.3,5.5v0.3c-0.1,0.7-0.4,1.6-1.3,2.6c-2.7,2.9-15.7,11.5-69.5,2.1
		c-39.6-6.9-67-10.3-87.1-10.3c-4.9,0-9.4,0.2-13.5,0.6C2264.3,1535.4,2264.4,1535.1,2264.4,1535z M2234.4,1552.1
		c-15.7,34.2-44.6,99.2-73.5,175.2c-48.9,128.5-78.1,234.6-87,316.3H454.6c-8.9-81.8-38.1-187.9-87-316.4
		c-29-76.3-58.1-141.5-73.7-175.6c2.9-4.5,4.9-10.7,4-18.5c140.4-47.3,277.5-126.1,407.7-234.5c109.4-91,214.2-203,311.6-332.9
		c86.6-115.4,151.1-223.9,190-294.6c27.2-49.5,46.1-87.9,56.1-109.1h2.1c10,21.2,28.9,59.6,56.1,109.1
		c38.9,70.7,103.5,179.2,190,294.6c97.4,129.8,202.2,241.8,311.6,332.9c130.1,108.3,266.9,187,407.2,234.4
		C2229.2,1541.1,2231.3,1547.5,2234.4,1552.1z M260.3,1527.6l3.6,7.5c0,0,0.2,0.4,0.4,0.9c-20.9-2.1-51.4,1-101.1,9.7
		c-53.8,9.4-66.8,0.8-69.5-2.1c-0.3-0.4-0.6-0.7-0.8-1v-1.8c38.2-0.1,72.2-5.3,73.8-5.5h0.1C217.7,1526.8,245.4,1526.2,260.3,1527.6
		z M1240.9,562c-29.4,60.9-110.9,219.7-240.2,392.1c-148.6,198-391.8,454.2-712.5,561.1c-9.7-6.7-25.6-8-38.1-8.2
		c-21.3-0.4-50.4,2.4-86.3,8.3c-1.4,0.2-34.6,5.1-70.7,5.3v-0.5L929.3,562H1240.9z M122,1569.9c12.5,0,27.4-1.5,44.7-4.6
		c60.1-10.5,91.2-12.6,108.1-6.9c15.3,33.3,44.6,99,74,176.1c47.2,123.9,76.3,229.6,85.5,309.1H93v-477.8
		C100.7,1568.5,110.3,1569.9,122,1569.9z M93.1,2063.5h2342.2v36H93.1V2063.5z M2435.3,2043.5H2094c9.2-79.5,38.3-185.2,85.5-309.1
		c29.4-77.3,58.8-143.1,74.1-176.3c17.1-5.4,48.1-3.3,107.5,7.1c17.3,3,32.2,4.6,44.7,4.6c12,0,21.8-1.4,29.5-4.2V2043.5z
		 M2364.1,1515.4c-35.9-5.9-64.9-8.7-86.3-8.3c-12.5,0.2-28.2,1.5-38,8.1c-320.6-107-563.7-363.1-712.2-561
		C1398.4,781.8,1316.8,623,1287.4,562H1599l836.2,958.2v0.5C2399,1520.6,2365.5,1515.6,2364.1,1515.4z M851.9,562h50.8L62.4,1524.9
		l-28.9-25.2L851.9,562z M45.1,2099.5v-563.2l19.2,16.8l8.4-9.7c0.1,0.6,0.2,1.3,0.3,2v554.1H45.1z M2483.3,2099.5h-28v-556.4
		l8.8,10l19.2-16.8V2099.5z"/>
	<path class="st4" d="M1469,277.9c0,20.5-16.6,37.2-37.2,37.2c-20.5,0-37.2-16.6-37.2-37.2s16.6-37.2,37.2-37.2
		S1469,257.3,1469,277.9z M1140.9,481.5c-20.5,0-37.2,16.6-37.2,37.2c0,20.6,16.6,37.2,37.2,37.2c20.5,0,37.2-16.6,37.2-37.2
		S1161.4,481.5,1140.9,481.5z M1365.2,469.1c-20.5,0-37.2,16.6-37.2,37.2c0,20.5,16.6,37.2,37.2,37.2c20.5,0,37.2-16.6,37.2-37.2
		C1402.4,485.7,1385.7,469.1,1365.2,469.1z M1267.8,102.9c-20.5,0-37.2,16.6-37.2,37.2c0,20.5,16.6,37.2,37.2,37.2
		c20.5,0,37.2-16.6,37.2-37.2C1305,119.6,1288.3,102.9,1267.8,102.9z M1591.6,449.1c-20.5,0-37.2,16.6-37.2,37.2
		s16.6,37.2,37.2,37.2c20.5,0,37.2-16.6,37.2-37.2S1612.2,449.1,1591.6,449.1z M1805.7,694.4c-20.5,0-37.2,16.6-37.2,37.2
		s16.6,37.2,37.2,37.2c20.5,0,37.2-16.6,37.2-37.2S1826.2,694.4,1805.7,694.4z M1987.2,913.7c-20.5,0-37.2,16.6-37.2,37.2
		s16.6,37.2,37.2,37.2c20.5,0,37.2-16.6,37.2-37.2S2007.8,913.7,1987.2,913.7z M2201.6,1116.7c-20.5,0-37.2,16.6-37.2,37.2
		c0,20.5,16.6,37.2,37.2,37.2s37.2-16.6,37.2-37.2C2238.8,1133.4,2222.2,1116.7,2201.6,1116.7z M2477.3,1608.1
		c-20.5,0-37.2,16.6-37.2,37.2c0,20.5,16.6,37.2,37.2,37.2c20.5,0,37.2-16.6,37.2-37.2C2514.5,1624.8,2497.8,1608.1,2477.3,1608.1z
		 M2382.7,1347.1c-20.5,0-37.2,16.6-37.2,37.2c0,20.5,16.6,37.2,37.2,37.2c20.5,0,37.2-16.6,37.2-37.2
		C2419.8,1363.8,2403.2,1347.1,2382.7,1347.1z M1057.3,277.9c0,20.5,16.6,37.2,37.2,37.2c20.5,0,37.2-16.6,37.2-37.2
		s-16.6-37.2-37.2-37.2C1074,240.7,1057.3,257.3,1057.3,277.9z M897.6,486.3c0,20.5,16.6,37.2,37.2,37.2s37.2-16.6,37.2-37.2
		s-16.6-37.2-37.2-37.2S897.6,465.8,897.6,486.3z M683.5,731.5c0,20.5,16.6,37.2,37.2,37.2s37.2-16.6,37.2-37.2
		s-16.6-37.2-37.2-37.2S683.5,711,683.5,731.5z M502,950.9c0,20.5,16.6,37.2,37.2,37.2s37.2-16.6,37.2-37.2s-16.6-37.2-37.2-37.2
		S502,930.4,502,950.9z M287.6,1153.9c0,20.5,16.6,37.2,37.2,37.2s37.2-16.6,37.2-37.2c0-20.5-16.6-37.2-37.2-37.2
		S287.6,1133.4,287.6,1153.9z M11.9,1645.3c0,20.5,16.6,37.2,37.2,37.2s37.2-16.6,37.2-37.2c0-20.5-16.6-37.2-37.2-37.2
		S11.9,1624.8,11.9,1645.3z M106.5,1384.3c0,20.5,16.6,37.2,37.2,37.2s37.2-16.6,37.2-37.2c0-20.5-16.6-37.2-37.2-37.2
		S106.5,1363.8,106.5,1384.3z"/>
	<path d="M1431.8,325c-26,0-47.2-21.2-47.2-47.2s21.2-47.2,47.2-47.2s47.2,21.2,47.2,47.2C1479,303.9,1457.9,325,1431.8,325z
		 M1431.8,250.7c-15,0-27.2,12.2-27.2,27.2s12.2,27.2,27.2,27.2s27.2-12.2,27.2-27.2S1446.8,250.7,1431.8,250.7z M1140.9,565.9
		c-26,0-47.2-21.2-47.2-47.2s21.2-47.2,47.2-47.2s47.2,21.2,47.2,47.2S1166.9,565.9,1140.9,565.9z M1140.9,491.5
		c-15,0-27.2,12.2-27.2,27.2s12.2,27.2,27.2,27.2s27.2-12.2,27.2-27.2S1155.9,491.5,1140.9,491.5z M1365.2,553.5
		c-26,0-47.2-21.2-47.2-47.2s21.2-47.2,47.2-47.2s47.2,21.2,47.2,47.2C1412.4,532.3,1391.2,553.5,1365.2,553.5z M1365.2,479.1
		c-15,0-27.2,12.2-27.2,27.2c0,15,12.2,27.2,27.2,27.2s27.2-12.2,27.2-27.2C1392.4,491.3,1380.2,479.1,1365.2,479.1z M1267.8,187.3
		c-26,0-47.2-21.2-47.2-47.2s21.2-47.2,47.2-47.2s47.2,21.2,47.2,47.2S1293.8,187.3,1267.8,187.3z M1267.8,112.9
		c-15,0-27.2,12.2-27.2,27.2s12.2,27.2,27.2,27.2s27.2-12.2,27.2-27.2S1282.8,112.9,1267.8,112.9z M1591.6,533.5
		c-26,0-47.2-21.2-47.2-47.2s21.2-47.2,47.2-47.2s47.2,21.2,47.2,47.2C1638.8,512.3,1617.7,533.5,1591.6,533.5z M1591.6,459.1
		c-15,0-27.2,12.2-27.2,27.2s12.2,27.2,27.2,27.2s27.2-12.2,27.2-27.2S1606.6,459.1,1591.6,459.1z M1805.7,778.7
		c-26,0-47.2-21.2-47.2-47.2s21.2-47.2,47.2-47.2s47.2,21.2,47.2,47.2C1852.9,757.6,1831.7,778.7,1805.7,778.7z M1805.7,704.4
		c-15,0-27.2,12.2-27.2,27.2s12.2,27.2,27.2,27.2s27.2-12.2,27.2-27.2C1832.9,716.6,1820.7,704.4,1805.7,704.4z M1987.2,998.1
		c-26,0-47.2-21.2-47.2-47.2s21.2-47.2,47.2-47.2s47.2,21.2,47.2,47.2C2034.4,976.9,2013.2,998.1,1987.2,998.1z M1987.2,923.7
		c-15,0-27.2,12.2-27.2,27.2s12.2,27.2,27.2,27.2s27.2-12.2,27.2-27.2C2014.4,935.9,2002.2,923.7,1987.2,923.7z M2201.6,1201.1
		c-26,0-47.2-21.2-47.2-47.2s21.2-47.2,47.2-47.2s47.2,21.2,47.2,47.2S2227.6,1201.1,2201.6,1201.1z M2201.6,1126.7
		c-15,0-27.2,12.2-27.2,27.2s12.2,27.2,27.2,27.2s27.2-12.2,27.2-27.2C2228.8,1138.9,2216.6,1126.7,2201.6,1126.7z M2477.3,1692.5
		c-26,0-47.2-21.2-47.2-47.2s21.2-47.2,47.2-47.2s47.2,21.2,47.2,47.2S2503.3,1692.5,2477.3,1692.5z M2477.3,1618.1
		c-15,0-27.2,12.2-27.2,27.2s12.2,27.2,27.2,27.2s27.2-12.2,27.2-27.2S2492.3,1618.1,2477.3,1618.1z M2382.7,1431.5
		c-26,0-47.2-21.2-47.2-47.2s21.2-47.2,47.2-47.2s47.2,21.2,47.2,47.2S2408.7,1431.5,2382.7,1431.5z M2382.7,1357.1
		c-15,0-27.2,12.2-27.2,27.2s12.2,27.2,27.2,27.2s27.2-12.2,27.2-27.2S2397.6,1357.1,2382.7,1357.1z M1094.5,325
		c-26,0-47.2-21.2-47.2-47.2s21.2-47.2,47.2-47.2s47.2,21.2,47.2,47.2C1141.7,303.9,1120.5,325,1094.5,325z M1094.5,250.7
		c-15,0-27.2,12.2-27.2,27.2s12.2,27.2,27.2,27.2s27.2-12.2,27.2-27.2S1109.5,250.7,1094.5,250.7z M934.7,533.5
		c-26,0-47.2-21.2-47.2-47.2s21.2-47.2,47.2-47.2s47.2,21.2,47.2,47.2S960.7,533.5,934.7,533.5z M934.7,459.1
		c-15,0-27.2,12.2-27.2,27.2s12.2,27.2,27.2,27.2s27.2-12.2,27.2-27.2S949.7,459.1,934.7,459.1z M720.7,778.7
		c-26,0-47.2-21.2-47.2-47.2s21.2-47.2,47.2-47.2s47.2,21.2,47.2,47.2C767.9,757.6,746.7,778.7,720.7,778.7z M720.7,704.4
		c-15,0-27.2,12.2-27.2,27.2s12.2,27.2,27.2,27.2s27.2-12.2,27.2-27.2C747.9,716.6,735.7,704.4,720.7,704.4z M539.1,998.1
		c-26,0-47.2-21.2-47.2-47.2s21.2-47.2,47.2-47.2s47.2,21.2,47.2,47.2C586.3,976.9,565.1,998.1,539.1,998.1z M539.1,923.7
		c-15,0-27.2,12.2-27.2,27.2s12.2,27.2,27.2,27.2s27.2-12.2,27.2-27.2S554.1,923.7,539.1,923.7z M324.7,1201.1
		c-26,0-47.2-21.2-47.2-47.2s21.2-47.2,47.2-47.2s47.2,21.2,47.2,47.2C371.9,1179.9,350.8,1201.1,324.7,1201.1z M324.7,1126.7
		c-15,0-27.2,12.2-27.2,27.2s12.2,27.2,27.2,27.2s27.2-12.2,27.2-27.2C351.9,1138.9,339.7,1126.7,324.7,1126.7z M49.1,1692.5
		c-26,0-47.2-21.2-47.2-47.2s21.2-47.2,47.2-47.2s47.2,21.2,47.2,47.2S75.1,1692.5,49.1,1692.5z M49.1,1618.1
		c-15,0-27.2,12.2-27.2,27.2s12.2,27.2,27.2,27.2s27.2-12.2,27.2-27.2S64,1618.1,49.1,1618.1z M143.7,1431.5
		c-26,0-47.2-21.2-47.2-47.2s21.2-47.2,47.2-47.2s47.2,21.2,47.2,47.2S169.7,1431.5,143.7,1431.5z M143.7,1357.1
		c-15,0-27.2,12.2-27.2,27.2s12.2,27.2,27.2,27.2s27.2-12.2,27.2-27.2S158.7,1357.1,143.7,1357.1z"/>
</g>
</svg>
