<?xml version="1.0" encoding="utf-8"?>
<!-- Generator: Adobe Illustrator 27.7.0, SVG Export Plug-In . SVG Version: 6.00 Build 0)  -->
<svg version="1.1" id="레이어_1" xmlns="http://www.w3.org/2000/svg" xmlns:xlink="http://www.w3.org/1999/xlink" x="0px"
	 y="0px" width="3000px" height="3000px" viewBox="0 0 3000 3000" style="enable-background:new 0 0 3000 3000;"
	 xml:space="preserve">
<path d="M2993.9,81.1c5-11.6-1.2-16-2.4-17.8c5.3-14.8,0.6-21.9,0.9-24.6c0.3-2.7,6.8-9.5,5.3-22.8c-0.8-7.4-3.2-10.1-6.1-10.6
	c-1.1-0.2-2.3,0.1-3.5,0.3c-3-1.1-8.5-2.2-16-0.5c0,0-8.7,1.2-12-0.1s-8.6-3.1-12.9-1.5c-4.3,1.6-10.4-1.2-16.1,2.5
	c-5.8,3.7-10.6-3.8-21.1,1.1c0,0-4.2-3.8-13.8-3.2c0,0-8.6-3.1-13.5,0.3c0,0-10.1-1.5-15.1,2.1c0,0-7.4-4-16.4,0.6
	c0,0-10.7-2.8-16.1-0.6c0,0-6.7-3.9-19.1-0.7c-12.4,3.1-20.9,5.8-26.2,1.8s-9.3-5.3-16.9-2.2c-7.6,3.1-6.2,2.7-16.9,2.7
	s-16.9-6.2-22.7-2.7c-5.8,3.6-8-2.2-16.4-0.4s-10.7,1.3-17.8,3.1s-7.1-2.2-15.1,0c0,0-7.1,0.9-16.9-1.3c-9.8-2.2-19.6-3.1-24.9-1.8
	c-5.3,1.3-14.2-3.6-20.9,0.4s-14.2-5.9-23.1-2.5c-8.9,3.4-10.2-0.6-14.7,1.6s-11.6-1.3-17.3,1.3c-5.8,2.7-14.2-3.6-20.4,0
	s-14.2-4-20.9-0.9c0,0-6.5,0.9-11.9,0.4c0,0-7.4-1.4-13.2-0.1c-3.4,0.8-7.4-3.2-11.7-1.6s-10.4-1.2-16.1,2.5
	c-5.8,3.7-10.6-3.8-21.1,1.1c0,0-4.2-3.8-13.8-3.2c0,0-8.6-3.1-13.5,0.3c0,0-10.1-1.5-15.1,2.1c0,0-7.4-4-16.4,0.6
	c0,0-10.7-2.8-16.1-0.6c0,0-6.7-3.9-19.1-0.7c-12.4,3.1-20.9,5.8-26.2,1.8s-9.3-5.3-16.9-2.2c-7.6,3.1-6.2,2.7-16.9,2.7
	s-16.9-6.2-22.7-2.7c-5.8,3.6-8-2.2-16.4-0.4S2247.1,6,2240,7.8s-7.1-2.2-15.1,0c0,0-7.1,0.9-16.9-1.3c-9.8-2.2-19.6-3.1-24.9-1.8
	c-5.3,1.3-14.2-3.6-20.9,0.4s-14.2-5.9-23.1-2.5c-8.9,3.4-10.2-0.6-14.7,1.6s-11.6-1.3-17.3,1.3c-5.8,2.7-14.2-3.6-20.4,0
	s-14.2-4-20.9-0.9c0,0-12.7,3.1-19,1c-6.2-2.1-6.5,0.7-12.4,0S2018,5.2,2018,5.2s-8.7,1.2-12-0.1s-8.6-3.1-12.9-1.5
	s-10.4-1.2-16.1,2.5c-5.8,3.7-10.6-3.8-21.1,1.1c0,0-4.2-3.8-13.8-3.2c0,0-8.6-3.1-13.5,0.3c0,0-10.1-1.5-15.1,2.1
	c0,0-7.4-4-16.4,0.6c0,0-10.7-2.8-16.1-0.6c0,0-6.7-3.9-19.1-0.7c-12.4,3.1-20.9,5.8-26.2,1.8c-5.3-4-9.3-5.3-16.9-2.2
	s-6.2,2.7-16.9,2.7c-10.7,0-16.9-6.2-22.7-2.7c-5.8,3.6-8-2.2-16.4-0.4S1752.1,6.2,1745,8s-7.1-2.2-15.1,0c0,0-7.1,0.9-16.9-1.3
	s-19.6-3.1-24.9-1.8s-14.2-3.6-20.9,0.4s-14.2-5.9-23.1-2.5s-10.2-0.6-14.7,1.6c-4.4,2.2-11.6-1.3-17.3,1.3
	c-5.8,2.7-14.2-3.6-20.4,0c-6.2,3.6-14.2-4-20.9-0.9c0,0-6.5,0.9-11.9,0.4c0,0-7.4-1.4-13.2-0.1c-3.4,0.8-7.4-3.2-11.7-1.6
	c-4.3,1.6-10.4-1.2-16.1,2.5c-5.8,3.7-10.6-3.8-21.1,1.1c0,0-4.2-3.8-13.8-3.2c0,0-8.6-3.1-13.5,0.3c0,0-10.1-1.5-15.1,2.1
	c0,0-7.4-4-16.4,0.6c0,0-10.7-2.8-16.1-0.6c0,0-6.7-3.9-19.1-0.7c-12.4,3.1-20.9,5.8-26.2,1.8c-5.3-4-9.3-5.3-16.9-2.2
	s-6.2,2.7-16.9,2.7c-10.7,0-16.9-6.2-22.7-2.7c-5.8,3.6-8-2.2-16.4-0.4s-10.7,1.3-17.8,3.1c-7.1,1.8-7.1-2.2-15.1,0
	c0,0-7.1,0.9-16.9-1.3s-19.6-3.1-24.9-1.8s-14.2-3.6-20.9,0.4s-14.2-5.9-23.1-2.5s-10.2-0.6-14.7,1.6c-4.4,2.2-11.6-1.3-17.3,1.3
	c-5.8,2.7-14.2-3.6-20.4,0c-6.2,3.6-14.2-4-20.9-0.9c-4-1.3-10.9-1.7-15.4-1.3c-7.7,0.6-14.1,1.8-14.1,1.8
	c-9.8-2.2-19.4-1.8-24.7-0.4c-5.3,1.3-14.2-3.6-20.9,0.4c-6.7,4-14.2-5.9-23.1-2.5c-8.9,3.4-10.2-0.6-14.7,1.6
	C994,6.5,986.9,3,981.1,5.6c-5.8,2.7-14.2-3.6-20.4,0s-14.2-4-20.9-0.9c0,0-12.7,3.1-19,1c-6.2-2.1-6.5,0.7-12.4,0
	s-16.1-0.5-16.1-0.5s-8.7,1.2-12-0.1s-8.6-3.1-12.9-1.5c-4.3,1.6-10.4-1.2-16.1,2.5c-5.8,3.7-10.6-3.8-21.1,1.1
	c0,0-4.2-3.8-13.8-3.2c0,0-8.6-3.1-13.5,0.3c0,0-10.1-1.5-15.1,2.1c0,0-7.4-4-16.4,0.6c0,0-10.7-2.8-16.1-0.6c0,0-6.7-3.9-19.1-0.7
	c-12.4,3.1-20.9,5.8-26.2,1.8s-9.3-5.3-16.9-2.2c-7.6,3.1-6.2,2.7-16.9,2.7s-16.9-6.2-22.7-2.7c-5.8,3.6-8-2.2-16.4-0.4
	s-11,1.2-18.1,3s-7.1-2.2-15.1,0c0,0-7.1,0.9-16.9-1.3s-19.6-3.1-24.9-1.8s-14.2-3.6-20.9,0.4S527-0.7,518.1,2.7
	c-8.9,3.4-10.2-0.6-14.7,1.6C499,6.5,491.9,3,486.1,5.6c-5.8,2.7-14.2-3.6-20.4,0c-6.2,3.6-14.2-4-20.9-0.9c0,0-6.5,0.9-11.9,0.4
	c0,0-7.4-1.4-13.2-0.1c-3.4,0.8-7.4-3.2-11.7-1.6c-4.3,1.6-10.4-1.2-16.1,2.5c-5.8,3.7-10.6-3.8-21.1,1.1c0,0-4.2-3.8-13.8-3.2
	c0,0-8.6-3.1-13.5,0.3c0,0-10.1-1.5-15.1,2.1c0,0-7.4-4-16.4,0.6c0,0-10.7-2.8-16.1-0.6c0,0-6.7-3.9-19.1-0.7
	c-12.4,3.1-20.9,5.8-26.2,1.8s-9.3-5.3-16.9-2.2c-7.6,3.1-6.2,2.7-16.9,2.7s-16.9-6.2-22.7-2.7c-5.8,3.6-8-2.2-16.4-0.4
	S167,6,159.9,7.8s-7.1-2.2-15.1,0c0,0-7.1,0.9-16.9-1.3S108.3,3.4,103,4.7c-5.5,1.4-14.4-3.5-21,0.5S67.7-0.7,58.9,2.7
	C50,6.1,48.6,2.1,44.2,4.3c-4.3,2.1-11-1.1-16.7,1.1c-2.2-0.2-4.8,1-6.9,0.8c-3.1-0.4-5.9-1.8-7.9-1.3c-2,0.4-3.5,1.5-4.4,2.5
	c-1.9,1.5-3.3,4-3.5,8C4.2,18.5,4,22.7,5.2,27.8c0,0,1.2,8.7-0.1,12S2,48.4,3.6,52.7C5.2,57,2.4,63.1,6.1,68.8
	C9.8,74.6,2.3,79.5,7.2,90c0,0-3.8,4.2-3.2,13.8c0,0-3.1,8.6,0.3,13.5c0,0-1.5,10.1,2.1,15.1c0,0-4,7.4,0.6,16.4
	c0,0-2.8,10.7-0.6,16.1c0,0-3.9,6.7-0.7,19.1c3.1,12.4,5.8,20.9,1.8,26.2s-5.3,9.3-2.2,16.9C8.4,234.7,8,233.3,8,244
	s-6.2,16.9-2.7,22.7s-2.2,8-0.4,16.4s1.3,10.7,3.1,17.8C9.8,308,5.8,308,8,316c0,0,0.9,7.1-1.3,16.9s-3.1,19.6-1.8,24.9
	S1.3,372,5.3,378.7s-5.9,14.2-2.5,23.1S2.2,412,4.4,416.5S3,428.1,5.6,433.9c2.7,5.8-3.6,14.2,0,20.4c3.6,6.2-4,14.2-0.9,20.9
	c0,0,0.9,6.5,0.4,11.9c0,0-1.4,7.4-0.1,13.2c0.8,3.4-3.2,7.4-1.6,11.7c1.6,4.3-1.2,10.4,2.5,16.1c3.7,5.8-3.8,10.6,1.1,21.1
	c0,0-3.8,4.2-3.2,13.8c0,0-3.1,8.6,0.3,13.5c0,0-1.5,10.1,2.1,15.1c0,0-4,7.4,0.6,16.4c0,0-2.8,10.7-0.6,16.1c0,0-3.9,6.7-0.7,19.1
	c3.1,12.4,5.8,20.9,1.8,26.2s-5.3,9.3-2.2,16.9c3.1,7.6,2.7,6.2,2.7,16.9s-6.2,16.9-2.7,22.7s-2.2,8-0.4,16.4S6,753,7.8,760.1
	s-2.2,7.1,0,15.1c0,0,0.9,7.1-1.3,16.9S3.4,811.7,4.7,817c1.3,5.3-3.6,14.2,0.4,20.9s-5.9,14.2-2.5,23.1c3.4,8.9-0.6,10.2,1.6,14.7
	S3,887.4,5.6,893.1c2.7,5.8-3.6,14.2,0,20.4s-4,14.2-0.9,20.9c0,0,3.1,12.7,1,19s0.7,6.5,0,12.4c-0.6,6-0.5,16.2-0.5,16.2
	s1.2,8.7-0.1,12s-3.1,8.6-1.5,12.9c1.6,4.3-1.2,10.4,2.5,16.1c3.7,5.8-3.8,10.6,1.1,21.1c0,0-3.8,4.2-3.2,13.8c0,0-3.1,8.6,0.3,13.5
	c0,0-1.5,10.1,2.1,15.1c0,0-4,7.4,0.6,16.4c0,0-2.8,10.7-0.6,16.1c0,0-3.9,6.7-0.7,19.1c3.1,12.4,5.8,20.9,1.8,26.2
	c-4,5.3-5.3,9.3-2.2,16.9s2.7,6.2,2.7,16.9c0,10.7-6.2,16.9-2.7,22.7s-2.2,8-0.4,16.4s1.3,10.7,3.1,17.8c1.8,7.1-2.2,7.1,0,15.1
	c0,0,0.9,7.1-1.3,16.9s-3.1,19.6-1.8,24.9s-3.6,14.2,0.4,20.9s-5.9,14.2-2.5,23.1s-0.6,10.2,1.6,14.7c2.2,4.4-1.3,11.6,1.3,17.3
	c2.7,5.8-3.6,14.2,0,20.4c3.6,6.2-4,14.2-0.9,20.9c0,0,0.9,6.5,0.4,11.9c0,0-0.3,1.8-0.2,4.4c-0.2,1.5-0.3,3.3-0.1,5.3
	c1.3,14.1,14.4,10.1,14.4,10.1c7.4,3.6,13.8,0.7,18.2,0s7.4-1.5,17.2,1.8s13.9-1.3,13.9-1.3c8.9,3.6,15.3,0.1,15.3,0.1
	c6.7,3,12.6-0.1,15.1,0.4c2.5,0.6,16.7,0.7,16.7,0.7c12,2.2,20.9-0.4,24.4,0.4c3.6,0.9,12.9-2.2,18.7-0.4c5.8,1.8,17.3-0.4,22.7-3.6
	c5.3-3.1,12,0.4,17.3,1.8c5.3,1.3,8,1.3,16.9,2.2c8.9,0.9,12-6.2,20.4-1.8c8.4,4.4,16.9-4.4,23.1-1.8s11.1,5.8,18.2,3.6
	c7.1-2.2,17.3-2.2,17.3-2.2c7.4,3.9,11.6-2.1,24.3,1.2s13.6-5,23.4-1.2c9.8,3.9,16.3,0.3,16.3,0.3c10.4,6.2,20.7,0.6,20.7,0.6
	c11.6,5,16-1.2,17.8-2.4c14.8,5.3,21.9,0.6,24.6,0.9c0,0,3.9-0.5,11,0.7s9.6,1.5,11.9,1.4c3.3-0.2,6.7-0.6,9.3-0.6s5.8-0.1,12.6,0.9
	c6.8,1,11.9-1.8,11.9-1.8c7.4,3.6,13.8,0.7,18.2,0c4.4-0.7,7.4-1.5,17.2,1.8c9.8,3.3,13.9-1.3,13.9-1.3c8.9,3.6,15.3,0.1,15.3,0.1
	c6.7,3,12.6-0.1,15.1,0.4c2.5,0.6,16.7,0.7,16.7,0.7c12,2.2,20.9-0.4,24.4,0.4c3.6,0.9,12.9-2.2,18.7-0.4s17.3-0.4,22.7-3.6
	c5.3-3.1,12,0.4,17.3,1.8c5.3,1.3,8,1.3,16.9,2.2c8.9,0.9,12-6.2,20.4-1.8c8.4,4.4,16.9-4.4,23.1-1.8s11.1,5.8,18.2,3.6
	c7.1-2.2,17.3-2.2,17.3-2.2c7.4,3.9,11.6-2.1,24.3,1.2c12.7,3.3,13.6-5,23.4-1.2c9.8,3.9,16.3,0.3,16.3,0.3
	c10.4,6.2,20.7,0.6,20.7,0.6c11.6,5,16-1.2,17.8-2.4c14.8,5.3,21.9,0.6,24.6,0.9c2.7,0.3,12,4.7,25.3,3.3c0,0,9.8,0,16.6-1.7
	s16.6,0.5,16.6,0.5c2.7,1.9,6.7-0.6,9.3-0.6c2.7,0,5.8-0.1,12.6,0.9s11.9-1.8,11.9-1.8c7.4,3.6,13.8,0.7,18.2,0s7.4-1.5,17.2,1.8
	s13.9-1.3,13.9-1.3c8.9,3.6,15.3,0.1,15.3,0.1c6.7,3,12.6-0.2,15.1,0.4c6.8,1.6,16.7,0.7,16.7,0.7c11.1,3.9,21.6-2.5,25.6-0.3
	s15.7,0,15.7,0c2.7,1.9,6.7-0.6,9.3-0.6s5.8-0.1,12.6,0.9c6.8,1,11.9-1.8,11.9-1.8c7.4,3.6,13.8,0.7,18.2,0
	c4.4-0.7,7.4-1.5,17.2,1.8s13.9-1.3,13.9-1.3c8.9,3.6,15.3,0.1,15.3,0.1c6.7,3,12.6-0.1,15.1,0.4s16.7,0.7,16.7,0.7
	c12,2.2,20.9-0.4,24.4,0.4c3.6,0.9,12.9-2.2,18.7-0.4c5.8,1.8,17.3-0.4,22.7-3.6c5.3-3.1,12,0.4,17.3,1.8c5.3,1.3,8,1.3,16.9,2.2
	c8.9,0.9,12-6.2,20.4-1.8c8.4,4.4,16.9-4.4,23.1-1.8c6.2,2.7,11.1,5.8,18.2,3.6s17.3-2.2,17.3-2.2c7.4,3.9,11.6-2.1,24.3,1.2
	s13.6-5,23.4-1.2c9.8,3.9,16.3,0.3,16.3,0.3c10.4,6.2,20.7,0.6,20.7,0.6c11.6,5,16-1.2,17.8-2.4c14.8,5.3,21.9,0.6,24.6,0.9
	c0,0,3.9-0.5,11,0.7s9.6,1.5,11.9,1.4c3.3-0.2,6.7-0.6,9.3-0.6c2.7,0,5.8-0.1,12.6,0.9c6.8,1,11.9-1.8,11.9-1.8
	c7.4,3.6,13.8,0.7,18.2,0c4.4-0.7,7.4-1.5,17.2,1.8s13.9-1.3,13.9-1.3c8.9,3.6,15.3,0.1,15.3,0.1c6.7,3,12.6-0.1,15.1,0.4
	s16.7,0.7,16.7,0.7c12,2.2,20.9-0.4,24.4,0.4c3.6,0.9,12.9-2.2,18.7-0.4c5.8,1.8,17.3-0.4,22.7-3.6c5.3-3.1,12,0.4,17.3,1.8
	c5.3,1.3,8,1.3,16.9,2.2c8.9,0.9,12-6.2,20.4-1.8c8.4,4.4,16.9-4.4,23.1-1.8c6.2,2.7,11.1,5.8,18.2,3.6s17.3-2.2,17.3-2.2
	c7.4,3.9,11.6-2.1,24.3,1.2s13.6-5,23.4-1.2c9.8,3.9,16.3,0.3,16.3,0.3c10.4,6.2,20.7,0.6,20.7,0.6c11.6,5,16-1.2,17.8-2.4
	c14.8,5.3,21.9,0.6,24.6,0.9s12,4.7,25.3,3.3c0,0,9.8,0,16.6-1.7s16.6,0.5,16.6,0.5c2.7,1.9,6.7-0.6,9.3-0.6c2.7,0,5.8-0.1,12.6,0.9
	s11.9-1.8,11.9-1.8c7.4,3.6,13.8,0.7,18.2,0s7.4-1.5,17.2,1.8s13.9-1.3,13.9-1.3c8.9,3.6,15.3,0.1,15.3,0.1c6.7,3,12.6-0.1,15.1,0.4
	c2.5,0.6,16.7,0.7,16.7,0.7c12,2.2,20.9-0.4,24.4,0.4c3.6,0.9,12.9-2.2,18.7-0.4c5.8,1.8,17.3-0.4,22.7-3.6c5.3-3.1,12,0.4,17.3,1.8
	c5.3,1.3,8,1.3,16.9,2.2c8.9,0.9,12-6.2,20.4-1.8c8.4,4.4,16.9-4.4,23.1-1.8s11.1,5.8,18.2,3.6s17.3-2.2,17.3-2.2
	c7.4,3.9,11.6-2.1,24.3,1.2s13.6-5,23.4-1.2c9.8,3.9,16.3,0.3,16.3,0.3c10.4,6.2,20.7,0.6,20.7,0.6c11.6,5,16-1.2,17.8-2.4
	c14.8,5.3,21.9,0.6,24.6,0.9c0,0,3.9-0.5,11,0.7s9.6,1.5,11.9,1.4c3.3-0.2,6.7-0.6,9.3-0.6c2.7,0,5.8-0.1,12.6,0.9
	s11.9-1.8,11.9-1.8c7.4,3.6,13.8,0.7,18.2,0s7.4-1.5,17.2,1.8s13.9-1.3,13.9-1.3c8.9,3.6,15.3,0.1,15.3,0.1c6.7,3,12.6-0.1,15.1,0.4
	c2.5,0.6,16.7,0.7,16.7,0.7c12,2.2,20.9-0.4,24.4,0.4c3.6,0.9,12.9-2.2,18.7-0.4c5.8,1.8,17.3-0.4,22.7-3.6c5.3-3.1,12,0.4,17.3,1.8
	c5.3,1.3,8,1.3,16.9,2.2c8.9,0.9,12-6.2,20.4-1.8c8.4,4.4,16.9-4.4,23.1-1.8s11.1,5.8,18.2,3.6s17.3-2.2,17.3-2.2
	c7.4,3.9,11.6-2.1,24.3,1.2s13.6-5,23.4-1.2c9.8,3.9,16.3,0.3,16.3,0.3c10.4,6.2,20.7,0.6,20.7,0.6c11.6,5,16-1.2,17.8-2.4
	c14.8,5.3,21.9,0.6,24.6,0.9c2.7,0.3,9.5,6.8,22.8,5.3c7.4-0.8,10.1-3.2,10.6-6.1c0.3-2.3-1-5-0.8-7.2c0.4-3.1,1.8-5.9,1.3-7.9
	c-0.4-1.6-1.1-2.9-1.9-3.8c1.2-6.8,1.4-9.2,1.3-11.4c-0.2-3.3-0.6-6.7-0.6-9.3s-0.1-5.8,0.9-12.6c1-6.8-1.8-11.9-1.8-11.9
	c3.6-7.4,0.7-13.8,0-18.2s-1.5-7.4,1.8-17.2s-1.3-13.9-1.3-13.9c3.6-8.9,0.1-15.3,0.1-15.3c3-6.7-0.1-12.6,0.4-15.1
	c0.6-2.5,0.7-16.7,0.7-16.7c2.2-12-0.4-20.9,0.4-24.4c0.9-3.6-2.2-12.9-0.4-18.7c1.8-5.8-0.4-17.3-3.6-22.7
	c-3.1-5.3,0.4-12,1.8-17.3s1.3-8,2.2-16.9s-6.2-12-1.8-20.4s-4.4-16.9-1.8-23.1c2.7-6.2,5.8-11.1,3.6-18.2s-2.2-17.3-2.2-17.3
	c3.9-7.4-2.1-11.6,1.2-24.3s-5-13.6-1.2-23.4c3.9-9.8,0.3-16.3,0.3-16.3c6.2-10.4,0.6-20.7,0.6-20.7c5-11.6-1.2-16-2.4-17.8
	c5.3-14.8,0.6-21.9,0.9-24.6c0.3-2.7,4.7-12,3.3-25.3c0,0,0-9.8-1.7-16.6s0.5-16.6,0.5-16.6c1.9-2.7-0.6-6.7-0.6-9.3
	c0-2.7-0.1-5.8,0.9-12.6s-1.8-11.9-1.8-11.9c3.6-7.4,0.7-13.8,0-18.2s-1.5-7.4,1.8-17.2s-1.3-13.9-1.3-13.9
	c3.6-8.9,0.1-15.3,0.1-15.3c3-6.7-0.1-12.6,0.4-15.1c0.6-2.5,0.7-16.7,0.7-16.7c2.2-12-0.4-20.9,0.4-24.4s-2.2-12.9-0.4-18.7
	s-0.4-17.3-3.6-22.7c-3.1-5.3,0.4-12,1.8-17.3c1.3-5.3,1.3-8,2.2-16.9s-6.2-12-1.8-20.4s-4.4-16.9-1.8-23.1
	c2.7-6.2,5.8-11.1,3.6-18.2c-2.2-7.1-2.2-17.3-2.2-17.3c3.9-7.4-2.1-11.6,1.2-24.3s-5-13.6-1.2-23.4s0.3-16.3,0.3-16.3
	c6.2-10.4,0.6-20.7,0.6-20.7c5-11.6-1.2-16-2.4-17.8c5.3-14.8,0.6-21.9,0.9-24.6c0,0-0.5-3.9,0.7-11s1.5-9.6,1.4-11.9
	c-0.2-3.3-0.6-6.7-0.6-9.3c0-2.7-0.1-5.8,0.9-12.6c1-6.8-1.8-11.9-1.8-11.9c3.6-7.4,0.7-13.8,0-18.2s-1.5-7.4,1.8-17.2
	s-1.3-13.9-1.3-13.9c3.6-8.9,0.1-15.3,0.1-15.3c3-6.7-0.1-12.6,0.4-15.1c0.6-2.5,0.7-16.7,0.7-16.7c2.2-12-0.4-20.9,0.4-24.4
	s-2.2-12.9-0.4-18.7c1.8-5.8-0.4-17.3-3.6-22.7s0.4-12,1.8-17.3c1.3-5.3,1.3-8,2.2-16.9s-6.2-12-1.8-20.4s-4.4-16.9-1.8-23.1
	c2.7-6.2,5.8-11.1,3.6-18.2c-2.2-7.1-2.2-17.3-2.2-17.3c3.9-7.4-2.1-11.6,1.2-24.3s-5-13.6-1.2-23.4s0.3-16.3,0.3-16.3
	C2999.6,91.5,2993.9,81.1,2993.9,81.1z M2960.2,1437c-3.3-1.3-8.6-3.1-12.9-1.5c-4.3,1.6-10.4-1.2-16.1,2.5
	c-5.8,3.7-10.6-3.8-21.1,1.1c0,0-4.2-3.8-13.8-3.2c0,0-8.6-3.1-13.5,0.3c0,0-10.1-1.5-15.1,2.1c0,0-7.4-4-16.4,0.6
	c0,0-10.7-2.8-16.1-0.6c0,0-6.7-3.9-19.1-0.7c-12.4,3.1-20.9,5.8-26.2,1.8s-9.3-5.3-16.9-2.2c-7.6,3.1-6.2,2.7-16.9,2.7
	s-16.9-6.2-22.7-2.7c-5.8,3.6-8-2.2-16.4-0.4c-8.4,1.8-10.7,1.3-17.8,3.1c-7.1,1.8-7.1-2.2-15.1,0c0,0-7.1,0.9-16.9-1.3
	c-9.8-2.2-19.6-3.1-24.9-1.8c-5.3,1.3-14.2-3.6-20.9,0.4s-14.2-5.9-23.1-2.5c-8.9,3.4-10.2-0.6-14.7,1.6s-11.6-1.3-17.3,1.3
	c-5.8,2.7-14.2-3.6-20.4,0s-14.2-4-20.9-0.9c0,0-6.5,0.9-11.9,0.4c0,0-7.4-1.4-13.2-0.1c-3.4,0.8-7.4-3.2-11.7-1.6
	s-10.4-1.2-16.1,2.5c-5.8,3.7-10.6-3.8-21.1,1.1c0,0-4.2-3.8-13.8-3.2c0,0-8.6-3.1-13.5,0.3c0,0-10.1-1.5-15.1,2.1
	c0,0-7.4-4-16.4,0.6c0,0-10.7-2.8-16.1-0.6c0,0-6.7-3.9-19.1-0.7c-12.4,3.1-20.9,5.8-26.2,1.8s-9.3-5.3-16.9-2.2
	c-7.6,3.1-6.2,2.7-16.9,2.7s-16.9-6.2-22.7-2.7c-5.8,3.6-8-2.2-16.4-0.4c-8.4,1.8-10.7,1.3-17.8,3.1c-7.1,1.8-7.1-2.2-15.1,0
	c0,0-7.1,0.9-16.9-1.3c-9.8-2.2-19.6-3.1-24.9-1.8c-5.3,1.3-14.2-3.6-20.9,0.4s-14.2-5.9-23.1-2.5c-8.9,3.4-10.2-0.6-14.7,1.6
	s-11.6-1.3-17.3,1.3c-5.8,2.7-14.2-3.6-20.4,0s-14.2-4-20.9-0.9c0,0-12.7,3.1-19,1s-6.5,0.7-12.4,0s-16.1-0.5-16.1-0.5
	s-8.7,1.2-12-0.1s-8.6-3.1-12.9-1.5s-10.4-1.2-16.1,2.5c-5.8,3.7-10.6-3.8-21.1,1.1c0,0-4.2-3.8-13.8-3.2c0,0-8.6-3.1-13.5,0.3
	c0,0-10.1-1.5-15.1,2.1c0,0-7.4-4-16.4,0.6c0,0-10.7-2.8-16.1-0.6c0,0-6.7-3.9-19.1-0.7c-12.4,3.1-20.9,5.8-26.2,1.8
	c-5.3-4-9.3-5.3-16.9-2.2c-7.6,3.1-6.2,2.7-16.9,2.7c-10.7,0-16.9-6.2-22.7-2.7c-5.8,3.6-8-2.2-16.4-0.4s-10.7,1.3-17.8,3.1
	s-7.1-2.2-15.1,0c0,0-7.1,0.9-16.9-1.3c-9.8-2.2-19.6-3.1-24.9-1.8c-5.3,1.3-14.2-3.6-20.9,0.4s-14.2-5.9-23.1-2.5
	s-10.2-0.6-14.7,1.6c-4.4,2.2-11.6-1.3-17.3,1.3c-5.8,2.7-14.2-3.6-20.4,0c-6.2,3.6-14.2-4-20.9-0.9c0,0-6.5,0.9-11.9,0.4
	c0,0-7.4-1.4-13.2-0.1c-3.4,0.8-7.4-3.2-11.7-1.6c-4.3,1.6-10.4-1.2-16.1,2.5c-5.8,3.7-10.6-3.8-21.1,1.1c0,0-4.2-3.8-13.8-3.2
	c0,0-8.6-3.1-13.5,0.3c0,0-10.1-1.5-15.1,2.1c0,0-7.4-4-16.4,0.6c0,0-10.7-2.8-16.1-0.6c0,0-6.7-3.9-19.1-0.7
	c-12.4,3.1-20.9,5.8-26.2,1.8c-5.3-4-9.3-5.3-16.9-2.2c-7.6,3.1-6.2,2.7-16.9,2.7c-10.7,0-16.9-6.2-22.7-2.7
	c-5.8,3.6-8-2.2-16.4-0.4s-10.7,1.3-17.8,3.1c-7.1,1.8-7.1-2.2-15.1,0c0,0-7.1,0.9-16.9-1.3c-9.8-2.2-19.6-3.1-24.9-1.8
	c-5.3,1.3-14.2-3.6-20.9,0.4s-14.2-5.9-23.1-2.5s-10.2-0.6-14.7,1.6c-4.4,2.2-11.6-1.3-17.3,1.3c-5.8,2.7-14.2-3.6-20.4,0
	c-6.2,3.6-14.2-4-20.9-0.9c-4-1.3-10.9-1.7-15.4-1.3c-7.7,0.6-14.1,1.8-14.1,1.8c-9.8-2.2-19.4-1.8-24.7-0.4
	c-5.3,1.3-14.2-3.6-20.9,0.4c-6.7,4-14.2-5.9-23.1-2.5c-8.9,3.4-10.2-0.6-14.7,1.6c-4.4,2.2-11.6-1.3-17.3,1.3
	c-5.8,2.7-14.2-3.6-20.4,0s-14.2-4-20.9-0.9c0,0-12.7,3.1-19,1s-6.5,0.7-12.4,0s-16.1-0.5-16.1-0.5s-8.7,1.2-12-0.1
	c-3.3-1.3-8.6-3.1-12.9-1.5c-4.3,1.6-10.4-1.2-16.1,2.5c-5.8,3.7-10.6-3.8-21.1,1.1c0,0-4.2-3.8-13.8-3.2c0,0-8.6-3.1-13.5,0.3
	c0,0-10.1-1.5-15.1,2.1c0,0-7.4-4-16.4,0.6c0,0-10.7-2.8-16.1-0.6c0,0-6.7-3.9-19.1-0.7s-20.9,5.8-26.2,1.8s-9.3-5.3-16.9-2.2
	c-7.6,3.1-6.2,2.7-16.9,2.7s-16.9-6.2-22.7-2.7c-5.8,3.6-8-2.2-16.4-0.4s-10.7,1.3-17.8,3.1c-7.1,1.8-7.1-2.2-15.1,0
	c0,0-7.1,0.9-16.9-1.3c-9.8-2.2-19.6-3.1-24.9-1.8c-5.3,1.3-14.2-3.6-20.9,0.4s-14.2-5.9-23.1-2.5c-8.9,3.4-10.2-0.6-14.7,1.6
	c-4.4,2.2-11.6-1.3-17.3,1.3c-5.8,2.7-14.2-3.6-20.4,0c-6.2,3.6-14.2-4-20.9-0.9c0,0-6.5,0.9-11.9,0.4c0,0-7.4-1.4-13.2-0.1
	c-3.4,0.8-7.4-3.2-11.7-1.6c-4.3,1.6-10.4-1.2-16.1,2.5c-5.8,3.7-10.6-3.8-21.1,1.1c0,0-4.2-3.8-13.8-3.2c0,0-8.6-3.1-13.5,0.3
	c0,0-10.1-1.5-15.1,2.1c0,0-7.4-4-16.4,0.6c0,0-10.7-2.8-16.1-0.6c0,0-6.7-3.9-19.1-0.7c-12.4,3.1-20.9,5.8-26.2,1.8
	s-9.3-5.3-16.9-2.2c-7.6,3.1-6.2,2.7-16.9,2.7s-16.9-6.2-22.7-2.7c-5.8,3.6-8-2.2-16.4-0.4s-10.7,1.3-17.8,3.1s-7.1-2.2-15.1,0
	c0,0-7.1,0.9-16.9-1.3c-9.8-2.2-19.6-3.1-24.9-1.8c-5.3,1.3-14.2-3.6-20.9,0.4s-14.2-5.9-23.1-2.5s-10.2-0.6-14.7,1.6
	c-3.6,1.8-9.1-0.2-14.1,0.4c0.6-3.8,0.7-5.6,0.6-7.2c-0.2-3.3-0.6-6.7-0.6-9.3s-0.1-5.8,0.9-12.6c1-6.8-1.8-11.9-1.8-11.9
	c3.6-7.4,0.7-13.8,0-18.2s-1.5-7.4,1.8-17.2s-1.3-13.9-1.3-13.9c3.6-8.9,0.1-15.3,0.1-15.3c3-6.7-0.1-12.6,0.4-15.1
	s0.7-16.7,0.7-16.7c2.2-12-0.4-20.9,0.4-24.4c0.9-3.6-2.2-12.9-0.4-18.7c1.8-5.8-0.4-17.3-3.6-22.7c-3.1-5.3,0.4-12,1.8-17.3
	s1.3-8,2.2-16.9c0.9-8.9-6.2-12-1.8-20.4s-4.4-16.9-1.8-23.1c2.7-6.2,5.8-11.1,3.6-18.2s-2.2-17.3-2.2-17.3
	c3.9-7.4-2.1-11.6,1.2-24.3s-5-13.6-1.2-23.4c3.9-9.8,0.3-16.3,0.3-16.3c6.2-10.4,0.6-20.7,0.6-20.7c5-11.6-1.2-16-2.4-17.8
	c5.3-14.8,0.6-21.9,0.9-24.6c0.3-2.7,4.7-12,3.3-25.3c0,0,0-9.8-1.7-16.6s0.5-16.6,0.5-16.6c1.9-2.7-0.6-6.7-0.6-9.3
	c0-2.7-0.1-5.8,0.9-12.6s-1.8-11.9-1.8-11.9c3.6-7.4,0.7-13.8,0-18.2s-1.5-7.4,1.8-17.2s-1.3-13.9-1.3-13.9
	c3.6-8.9,0.1-15.3,0.1-15.3c3-6.7-0.1-12.6,0.4-15.1s0.7-16.7,0.7-16.7c2.2-12-0.4-20.9,0.4-24.4c0.9-3.6-2.2-12.9-0.4-18.7
	s-0.4-17.3-3.6-22.7c-3.1-5.3,0.4-12,1.8-17.3c1.3-5.3,1.3-8,2.2-16.9c0.9-8.9-6.2-12-1.8-20.4s-4.4-16.9-1.8-23.1
	c2.7-6.2,5.8-11.1,3.6-18.2c-2.2-7.1-2.2-17.3-2.2-17.3c3.9-7.4-2.1-11.6,1.2-24.3s-5-13.6-1.2-23.4s0.3-16.3,0.3-16.3
	c6.2-10.4,0.6-20.7,0.6-20.7c5-11.6-1.2-16-2.4-17.8c5.3-14.8,0.6-21.9,0.9-24.6c0,0-0.5-3.9,0.7-11s1.5-9.6,1.4-11.9
	c-0.2-3.3-0.6-6.7-0.6-9.3c0-2.7-0.1-5.8,0.9-12.6c1-6.8-1.8-11.9-1.8-11.9c3.6-7.4,0.7-13.8,0-18.2s-1.5-7.4,1.8-17.2
	s-1.3-13.9-1.3-13.9c3.6-8.9,0.1-15.3,0.1-15.3c3-6.7-0.1-12.6,0.4-15.1C30.8,359.2,31,345,31,345c2.2-12-0.4-20.9,0.4-24.4
	c0.9-3.6-2.2-12.9-0.4-18.7c1.8-5.8-0.4-17.3-3.6-22.7c-3.1-5.3,0.4-12,1.8-17.3c1.3-5.3,1.3-8,2.2-16.9c0.9-8.9-6.2-12-1.8-20.4
	s-4.4-16.9-1.8-23.1c2.7-6.2,5.8-11.1,3.6-18.2c-2.2-7.1-2.2-17.3-2.2-17.3c3.9-7.4-2.1-11.6,1.2-24.3s-5-13.6-1.2-23.4
	s0.3-16.3,0.3-16.3c6.2-10.4,0.6-20.7,0.6-20.7c5-11.6-1.2-16-2.4-17.8c5.3-14.8,0.6-21.9,0.9-24.6c0.2-1.5,2.2-4.1,3.7-8.4
	c1.9-0.4,3.7-0.9,5.2-1.1c4.4-0.7,7.4-1.5,17.2,1.8s13.9-1.3,13.9-1.3c8.9,3.6,15.3,0.1,15.3,0.1c6.7,3,12.6-0.1,15.1,0.4
	c2.5,0.6,16.7,0.7,16.7,0.7c12,2.2,20.9-0.4,24.4,0.4c3.6,0.9,12.9-2.2,18.7-0.4c5.8,1.8,17.3-0.4,22.7-3.6c5.3-3.1,12,0.4,17.3,1.8
	c5.3,1.3,8,1.3,16.9,2.2c8.9,0.9,12-6.2,20.4-1.8s16.9-4.4,23.1-1.8c6.2,2.7,11.1,5.8,18.2,3.6s17.3-2.2,17.3-2.2
	c7.4,3.9,11.6-2.1,24.3,1.2c12.7,3.3,13.6-5,23.4-1.2c9.8,3.9,16.3,0.3,16.3,0.3c10.4,6.2,20.7,0.6,20.7,0.6c11.6,5,16-1.2,17.8-2.4
	c14.8,5.3,21.9,0.6,24.6,0.9c0,0,3.9-0.5,11,0.7s9.6,1.5,11.9,1.4c3.3-0.2,6.7-0.6,9.3-0.6s5.8-0.1,12.6,0.9s11.9-1.8,11.9-1.8
	c7.4,3.6,13.8,0.7,18.2,0c4.4-0.7,7.4-1.5,17.2,1.8c9.8,3.3,13.9-1.3,13.9-1.3c8.9,3.6,15.3,0.1,15.3,0.1c6.7,3,12.6-0.1,15.1,0.4
	C560.8,30.8,575,31,575,31c12,2.2,20.9-0.4,24.4,0.4c3.6,0.9,12.9-2.2,18.7-0.4c5.8,1.8,17.3-0.4,22.7-3.6c5.3-3.1,12,0.4,17.3,1.8
	c5.3,1.3,8,1.3,16.9,2.2c8.9,0.9,12-6.2,20.4-1.8s16.9-4.4,23.1-1.8c6.2,2.7,11.1,5.8,18.2,3.6c7.1-2.2,17.3-2.2,17.3-2.2
	c7.4,3.9,11.6-2.1,24.3,1.2s13.6-5,23.4-1.2c9.8,3.9,16.3,0.3,16.3,0.3c10.4,6.2,20.7,0.6,20.7,0.6c11.6,5,16-1.2,17.8-2.4
	c14.8,5.3,21.9,0.6,24.6,0.9c2.7,0.3,12,4.7,25.3,3.3c0,0,9.8,0,16.6-1.7s16.6,0.5,16.6,0.5c2.7,1.9,6.7-0.6,9.3-0.6
	c2.7,0,5.8-0.1,12.6,0.9s11.9-1.8,11.9-1.8c7.4,3.6,13.8,0.7,18.2,0s7.4-1.5,17.2,1.8s13.9-1.3,13.9-1.3c8.9,3.6,15.3,0.1,15.3,0.1
	c6.7,3,12.6-0.2,15.1,0.4c6.8,1.6,16.7,0.7,16.7,0.7c11.1,3.9,21.6-2.5,25.6-0.3s15.7,0,15.7,0c2.7,1.9,6.7-0.6,9.3-0.6
	s5.8-0.1,12.6,0.9c6.8,1,11.9-1.8,11.9-1.8c7.4,3.6,13.8,0.7,18.2,0c4.4-0.7,7.4-1.5,17.2,1.8c9.8,3.3,13.9-1.3,13.9-1.3
	c8.9,3.6,15.3,0.1,15.3,0.1c6.7,3,12.6-0.1,15.1,0.4c2.5,0.6,16.7,0.7,16.7,0.7c12,2.2,20.9-0.4,24.4,0.4c3.6,0.9,12.9-2.2,18.7-0.4
	c5.8,1.8,17.3-0.4,22.7-3.6c5.3-3.1,12,0.4,17.3,1.8c5.3,1.3,8,1.3,16.9,2.2s12-6.2,20.4-1.8s16.9-4.4,23.1-1.8
	c6.2,2.7,11.1,5.8,18.2,3.6s17.3-2.2,17.3-2.2c7.4,3.9,11.6-2.1,24.3,1.2c12.7,3.3,13.6-5,23.4-1.2c9.8,3.9,16.3,0.3,16.3,0.3
	c10.4,6.2,20.7,0.6,20.7,0.6c11.6,5,16-1.2,17.8-2.4c14.8,5.3,21.9,0.6,24.6,0.9c0,0,3.9-0.5,11,0.7s9.6,1.5,11.9,1.4
	c3.3-0.2,6.7-0.6,9.3-0.6c2.7,0,5.8-0.1,12.6,0.9s11.9-1.8,11.9-1.8c7.4,3.6,13.8,0.7,18.2,0c4.4-0.7,7.4-1.5,17.2,1.8
	c9.8,3.3,13.9-1.3,13.9-1.3c8.9,3.6,15.3,0.1,15.3,0.1c6.7,3,12.6-0.1,15.1,0.4c2.5,0.6,16.7,0.7,16.7,0.7c12,2.2,20.9-0.4,24.4,0.4
	c3.6,0.9,12.9-2.2,18.7-0.4c5.8,1.8,17.3-0.4,22.7-3.6c5.3-3.1,12,0.4,17.3,1.8c5.3,1.3,8,1.3,16.9,2.2s12-6.2,20.4-1.8
	s16.9-4.4,23.1-1.8c6.2,2.7,11.1,5.8,18.2,3.6s17.3-2.2,17.3-2.2c7.4,3.9,11.6-2.1,24.3,1.2c12.7,3.3,13.6-5,23.4-1.2
	c9.8,3.9,16.3,0.3,16.3,0.3c10.4,6.2,20.7,0.6,20.7,0.6c11.6,5,16-1.2,17.8-2.4c14.8,5.3,21.9,0.6,24.6,0.9s12,4.7,25.3,3.3
	c0,0,9.8,0,16.6-1.7c6.8-1.7,16.6,0.5,16.6,0.5c2.7,1.9,6.7-0.6,9.3-0.6c2.7,0,5.8-0.1,12.6,0.9s11.9-1.8,11.9-1.8
	c7.4,3.6,13.8,0.7,18.2,0s7.4-1.5,17.2,1.8s13.9-1.3,13.9-1.3c8.9,3.6,15.3,0.1,15.3,0.1c6.7,3,12.6-0.1,15.1,0.4
	c2.5,0.6,16.7,0.7,16.7,0.7c12,2.2,20.9-0.4,24.4,0.4c3.6,0.9,12.9-2.2,18.7-0.4c5.8,1.8,17.3-0.4,22.7-3.6c5.3-3.1,12,0.4,17.3,1.8
	c5.3,1.3,8,1.3,16.9,2.2c8.9,0.9,12-6.2,20.4-1.8s16.9-4.4,23.1-1.8c6.2,2.7,11.1,5.8,18.2,3.6c7.1-2.2,17.3-2.2,17.3-2.2
	c7.4,3.9,11.6-2.1,24.3,1.2s13.6-5,23.4-1.2c9.8,3.9,16.3,0.3,16.3,0.3c10.4,6.2,20.7,0.6,20.7,0.6c11.6,5,16-1.2,17.8-2.4
	c14.8,5.3,21.9,0.6,24.6,0.9c0,0,3.9-0.5,11,0.7s9.6,1.5,11.9,1.4c3.3-0.2,6.7-0.6,9.3-0.6c2.7,0,5.8-0.1,12.6,0.9
	s11.9-1.8,11.9-1.8c7.4,3.6,13.8,0.7,18.2,0s7.4-1.5,17.2,1.8s13.9-1.3,13.9-1.3c8.9,3.6,15.3,0.1,15.3,0.1c6.7,3,12.6-0.1,15.1,0.4
	c2.5,0.6,16.7,0.7,16.7,0.7c12,2.2,20.9-0.4,24.4,0.4c3.6,0.9,12.9-2.2,18.7-0.4c5.8,1.8,17.3-0.4,22.7-3.6c5.3-3.1,12,0.4,17.3,1.8
	c5.3,1.3,8,1.3,16.9,2.2c8.9,0.9,12-6.2,20.4-1.8s16.9-4.4,23.1-1.8c6.2,2.7,11.1,5.8,18.2,3.6c7.1-2.2,17.3-2.2,17.3-2.2
	c7.4,3.9,11.6-2.1,24.3,1.2s13.6-5,23.4-1.2c9.8,3.9,16.3,0.3,16.3,0.3c10.4,6.2,20.7,0.6,20.7,0.6c11.6,5,16-1.2,17.8-2.4
	c14.8,5.3,21.9,0.6,24.6,0.9c1.4,0.2,4.1,2.1,8.2,3.6c0.2,2.7,0.1,5.9-0.6,7.6c-1.3,3.3-3.1,8.6-1.5,12.9s-1.2,10.4,2.5,16.1
	c3.7,5.8-3.8,10.6,1.1,21.1c0,0-3.8,4.2-3.2,13.8c0,0-3.1,8.6,0.3,13.5c0,0-1.5,10.1,2.1,15.1c0,0-4,7.4,0.6,16.4
	c0,0-2.8,10.7-0.6,16.1c0,0-3.9,6.7-0.7,19.1c3.1,12.4,5.8,20.9,1.8,26.2s-5.3,9.3-2.2,16.9s2.7,6.2,2.7,16.9s-6.2,16.9-2.7,22.7
	s-2.2,8-0.4,16.4s1.3,10.7,3.1,17.8c1.8,7.1-2.2,7.1,0,15.1c0,0,0.9,7.1-1.3,16.9s-3.1,19.6-1.8,24.9s-3.6,14.2,0.4,20.9
	s-5.9,14.2-2.5,23.1s-0.6,10.2,1.6,14.7s-1.3,11.6,1.3,17.3c2.7,5.8-3.6,14.2,0,20.4c3.6,6.2-4,14.2-0.9,20.9c0,0,0.9,6.5,0.4,11.9
	c0,0-1.4,7.4-0.1,13.2c0.8,3.4-3.2,7.4-1.6,11.7c1.6,4.3-1.2,10.4,2.5,16.1c3.7,5.8-3.8,10.6,1.1,21.1c0,0-3.8,4.2-3.2,13.8
	c0,0-3.1,8.6,0.3,13.5c0,0-1.5,10.1,2.1,15.1c0,0-4,7.4,0.6,16.4c0,0-2.8,10.7-0.6,16.1c0,0-3.9,6.7-0.7,19.1
	c3.1,12.4,5.8,20.9,1.8,26.2s-5.3,9.3-2.2,16.9c3.1,7.6,2.7,6.2,2.7,16.9s-6.2,16.9-2.7,22.7s-2.2,8-0.4,16.4s1.3,10.7,3.1,17.8
	s-2.2,7.1,0,15.1c0,0,0.9,7.1-1.3,16.9c-2.2,9.8-3.1,19.6-1.8,24.9c1.3,5.3-3.6,14.2,0.4,20.9s-5.9,14.2-2.5,23.1
	c3.4,8.9-0.6,10.2,1.6,14.7s-1.3,11.6,1.3,17.3c2.7,5.8-3.6,14.2,0,20.4s-4,14.2-0.9,20.9c0,0,3.1,12.7,1,19
	c-2.1,6.2,0.7,6.5,0,12.4s-0.5,16.1-0.5,16.1s1.2,8.7-0.1,12s-3.1,8.6-1.5,12.9c1.6,4.3-1.2,10.4,2.5,16.1
	c3.7,5.8-3.8,10.6,1.1,21.1c0,0-3.8,4.2-3.2,13.8c0,0-3.1,8.6,0.3,13.5c0,0-1.5,10.1,2.1,15.1c0,0-4,7.4,0.6,16.4
	c0,0-2.8,10.7-0.6,16.1c0,0-3.9,6.7-0.7,19.1c3.1,12.4,5.8,20.9,1.8,26.2c-4,5.3-5.3,9.3-2.2,16.9s2.7,6.2,2.7,16.9
	c0,10.7-6.2,16.9-2.7,22.7s-2.2,8-0.4,16.4s1.3,10.7,3.1,17.8c1.8,7.1-2.2,7.1,0,15.1c0,0,0.9,7.1-1.3,16.9s-3.1,19.6-1.8,24.9
	s-3.6,14.2,0.4,20.9s-5.9,14.2-2.5,23.1s-0.6,10.2,1.6,14.7c2.2,4.4-1.3,11.6,1.3,17.3c2.7,5.8-3.6,14.2,0,20.4
	c3.6,6.2-4,14.2-0.9,20.9c0,0,0.5,3.8,0.6,8C2966.3,1437.7,2962.2,1437.8,2960.2,1437z M1723.6,2979.2c0.2-0.5,0.3-1.1,0.2-1.7
	c-0.9-5.3,1.5-12.5-3.1-17.8c-6.3-7.2-3-9.8-6.6-13.2s-2.8-11.3-7.3-15.8s-1.6-14.6-7.1-19.2c-5.5-4.6-1.2-14.7-6.4-19.9
	c0,0-3.1-5.8-4.5-11c0,0-1.3-7.4-4.5-12.4c-1.9-2.9,0.4-8.1-2.6-11.5c-3-3.5-2.5-10.1-8-14.3s-0.1-11.3-8.4-19.4
	c0,0,2.1-5.3-1.8-14.1c0,0-0.1-9.1-5-12.5c0,0-2.1-10-7.2-13.4c0,0,1.2-8.3-6.3-15.2c0,0-1.1-11-5.1-15.3c0,0,1.3-7.6-5.9-18.2
	c-7.2-10.6-12.7-17.6-10.8-24c1.9-6.4,1.8-10.6-3.8-16.6c-5.5-6-4.7-4.9-8.4-14.9c-3.7-10,0-18-5.4-22.2c-5.3-4.2-0.7-8.3-5.3-15.6
	c-4.6-7.3-5-9.5-9.1-15.6s-0.4-7.4-5.2-14.2c0,0-3.3-6.4-4.6-16.3c-1.3-9.9-3.9-19.4-7-24c-3.1-4.5-1.6-14.6-7.7-19.4
	c-6.1-4.9,0.6-15.4-5.7-22.5c-6.3-7.2-3-9.8-6.6-13.2s-2.8-11.3-7.3-15.8s-1.6-14.6-7.1-19.2c-5.5-4.6-1.2-14.7-6.4-19.9
	c0,0-7.3-10.9-7.5-17.4c-0.1-6.6-2.9-5.9-4.3-11.7s-5.1-15.3-5.1-15.3s-4.1-7.8-4-11.3s-0.1-9.1-3.1-12.6s-2.5-10.1-8-14.3
	s-0.1-11.3-8.4-19.4c0,0,2.1-5.3-1.8-14.1c0,0-0.1-9.1-5-12.5c0,0-2.1-10-7.2-13.4c0,0,1.2-8.3-6.3-15.2c0,0-1.1-11-5.1-15.3
	c0,0,1.3-7.6-5.9-18.2c-7.2-10.6-12.7-17.6-10.8-24c1.9-6.4,1.8-10.6-3.8-16.6c-5.5-6-4.7-4.9-8.4-14.9c-3.7-10,0-18-5.4-22.2
	s-0.7-8.3-5.3-15.6s-5-9.5-9.1-15.6s-0.4-7.4-5.2-14.2c0,0-3.3-6.4-4.6-16.3c-1.3-9.9-3.9-19.4-7-24c-3.1-4.5-1.6-14.6-7.7-19.4
	c-6.1-4.9,0.6-15.4-5.7-22.5c-6.3-7.2-3-9.8-6.6-13.2s-2.8-11.3-7.3-15.8s-1.6-14.6-7.1-19.2s-1.2-14.7-6.4-19.9c0,0-3.1-5.8-4.5-11
	c0,0-1.3-7.4-4.5-12.4c-1.9-2.9,0.4-8.1-2.6-11.5c-3-3.5-2.5-10.1-8-14.3c-5.5-4.1-0.1-11.3-8.4-19.4c0,0,2.1-5.3-1.8-14.1
	c0,0-0.1-9.1-5-12.5c0,0-2.1-10-7.2-13.4c0,0,1.2-8.3-6.3-15.2c0,0-1.1-11-5.1-15.3c0,0,1.3-7.6-5.9-18.2s-12.7-17.6-10.8-24
	c1.9-6.4,1.8-10.6-3.8-16.6c-5.5-6-4.7-4.9-8.4-14.9c-3.7-10,0-18-5.4-22.2c-5.3-4.2-0.7-8.3-5.3-15.6s-5-9.5-9.1-15.6
	s-0.4-7.4-5.2-14.2c0,0-3.3-6.4-4.6-16.3c-1.3-9.9-3.9-19.4-7-24c-3.1-4.5-1.6-14.6-7.7-19.4c-6.1-4.9,0.6-15.4-5.7-22.5
	c-6.3-7.2-3-9.8-6.6-13.2c-3.6-3.4-2.8-11.3-7.3-15.8s-1.6-14.6-7.1-19.2c-4.8-4-5.6-24.1-9.2-32.8l-2-9c-1.3-6-6.8-10.1-12.9-9.6
	c-8.9,3.4-10.2-0.6-14.7,1.6c-4.4,2.2-11.6-1.3-17.3,1.3c-5.8,2.7-14.2-3.6-20.4,0c-6.2,3.6-14.2-4-20.9-0.9
	c-4-1.3-10.9-1.7-15.4-1.3c-7.7,0.6-14.1,1.8-14.1,1.8c-9.8-2.2-19.4-1.8-24.7-0.4c-5.3,1.3-14.2-3.6-20.9,0.4
	c-6.7,4-14.2-5.9-23.1-2.5c-8.9,3.4-10.2-0.6-14.7,1.6c-4.4,2.2-11.6-1.3-17.3,1.3c-5.8,2.7-14.2-3.6-20.4,0s-14.2-4-20.9-0.9
	c0,0-12.7,3.1-19,1s-6.5,0.7-12.4,0s-16.1-0.5-16.1-0.5s-8.7,1.2-12-0.1c-3.3-1.3-8.6-3.1-12.9-1.5c-4.3,1.6-10.4-1.2-16.1,2.5
	c-5.8,3.7-10.6-3.8-21.1,1.1c0,0-4.2-3.8-13.8-3.2c0,0-8.6-3.1-13.5,0.3c0,0-10.1-1.5-15.1,2.1c0,0-7.4-4-16.4,0.6
	c0,0-10.7-2.8-16.1-0.6c0,0-6.7-3.9-19.1-0.7s-20.9,5.8-26.2,1.8s-9.3-5.3-16.9-2.2c-7.6,3.1-6.2,2.7-16.9,2.7s-16.9-6.2-22.7-2.7
	c-5.8,3.6-8-2.2-16.4-0.4s-10.7,1.3-17.8,3.1c-7.1,1.8-7.1-2.2-15.1,0c0,0-7.1,0.9-16.9-1.3c-9.8-2.2-19.6-3.1-24.9-1.8
	c-5.3,1.3-14.2-3.6-20.9,0.4s-14.2-5.9-23.1-2.5c-8.9,3.4-10.2-0.6-14.7,1.6c-4.4,2.2-11.6-1.3-17.3,1.3c-5.8,2.7-14.2-3.6-20.4,0
	c-6.2,3.6-14.2-4-20.9-0.9c0,0-6.5,0.9-11.9,0.4c0,0-7.4-1.4-13.2-0.1c-3.4,0.8-7.4-3.2-11.7-1.6c-4.3,1.6-10.4-1.2-16.1,2.5
	c-5.8,3.7-10.6-3.8-21.1,1.1c0,0-4.2-3.8-13.8-3.2c0,0-8.6-3.1-13.5,0.3c0,0-10.1-1.5-15.1,2.1c0,0-7.4-4-16.4,0.6
	c0,0-10.7-2.8-16.1-0.6c0,0-6.7-3.9-19.1-0.7c-12.4,3.1-20.9,5.8-26.2,1.8s-9.3-5.3-16.9-2.2c-7.6,3.1-6.2,2.7-16.9,2.7
	s-16.9-6.2-22.7-2.7c-5.8,3.6-8-2.2-16.4-0.4s-10.7,1.3-17.8,3.1s-7.1-2.2-15.1,0c0,0-7.1,0.9-16.9-1.3c-9.8-2.2-19.6-3.1-24.9-1.8
	c-5.3,1.3-14.2-3.6-20.9,0.4s-14.2-5.9-23.1-2.5s-10.2-0.6-14.7,1.6s-11.6-1.3-17.3,1.3c0,0-4.3,1.6-9,0.3c-4.7-1.2-14.3-1-13,13.1
	c0,0.1,0,0.1,0,0.2c-0.4,2.9-0.1,6.9,2.1,11.2c0,0-2.8,10.7-0.6,16.1c0,0-3.9,6.7-0.7,19.1c3.1,12.4,5.8,20.9,1.8,26.2
	s-5.3,9.3-2.2,16.9s2.7,6.2,2.7,16.9c0,10.7-6.2,16.9-2.7,22.7s-2.2,8-0.4,16.4s1.3,10.7,3.1,17.8c1.8,7.1-2.2,7.1,0,15.1
	c0,0,0.9,7.1-1.3,16.9s-3.1,19.6-1.8,24.9s-3.6,14.2,0.4,20.9s-5.9,14.2-2.5,23.1s-0.6,10.2,1.6,14.7c2.2,4.4-1.3,11.6,1.3,17.3
	c2.7,5.8-3.6,14.2,0,20.4c3.6,6.2-4,14.2-0.9,20.9c-1.3,4-1.7,10.9-1.3,15.4c0.6,7.7,1.8,14.1,1.8,14.1c-2.2,9.8-1.8,19.4-0.4,24.7
	c1.3,5.3-3.6,14.2,0.4,20.9s-5.9,14.2-2.5,23.1s-0.6,10.2,1.6,14.7c2.2,4.4-1.3,11.6,1.3,17.3c2.7,5.8-3.6,14.2,0,20.4
	c3.6,6.2-4,14.2-0.9,20.9c0,0,3.1,12.7,1,19c-2.1,6.2,0.7,6.5,0,12.4s-0.5,16.1-0.5,16.1s1.2,8.7-0.1,12s-3.1,8.6-1.5,12.9
	c1.6,4.3-1.2,10.4,2.5,16.1c3.7,5.8-3.8,10.6,1.1,21.1c0,0-3.8,4.2-3.2,13.8c0,0-3.1,8.6,0.3,13.5c0,0-1.5,10.1,2.1,15.1
	c0,0-4,7.4,0.6,16.4c0,0-2.8,10.7-0.6,16.1c0,0-3.9,6.7-0.7,19.1c3.1,12.4,5.8,20.9,1.8,26.2s-5.3,9.3-2.2,16.9
	c3.1,7.6,2.7,6.2,2.7,16.9s-6.2,16.9-2.7,22.7s-2.2,8-0.4,16.4s1.3,10.7,3.1,17.8s-2.2,7.1,0,15.1c0,0,0.9,7.1-1.3,16.9
	c-2.2,9.8-3.1,19.6-1.8,24.9c1.3,5.3-3.6,14.2,0.4,20.9s-5.9,14.2-2.5,23.1c3.4,8.9-0.6,10.2,1.6,14.7s-1.3,11.6,1.3,17.3
	c2.7,5.8-3.6,14.2,0,20.4s-4,14.2-0.9,20.9c0,0,0.9,6.5,0.4,11.9c0,0-1.4,7.4-0.1,13.2c0.8,3.4-3.2,7.4-1.6,11.7S2.3,2602,6,2607.7
	c3.7,5.8-3.8,10.6,1.1,21.1c0,0-3.8,4.2-3.2,13.8c0,0-3.1,8.6,0.3,13.5c0,0-1.5,10.1,2.1,15.1c0,0-4,7.4,0.6,16.4
	c0,0-2.8,10.7-0.6,16.1c0,0-3.9,6.7-0.7,19.1c3.1,12.4,5.8,20.9,1.8,26.2s-5.3,9.3-2.2,16.9c3.1,7.6,2.7,6.2,2.7,16.9
	s-6.2,16.9-2.7,22.7s-2.2,8-0.4,16.4s1.3,10.7,3.1,17.8s-2.2,7.1,0,15.1c0,0,0.9,7.1-1.3,16.9c-2.2,9.8-3.1,19.6-1.8,24.9
	c1.3,5.3-3.6,14.2,0.4,20.9s-5.9,14.2-2.5,23.1s-0.6,10.2,1.6,14.7s-1.3,11.6,1.3,17.3c0,0,0.1,0.4,0.3,1.1c-1,2-1.4,4.9-1.1,8.7
	c0.1,1.3,0.3,2.4,0.6,3.4c0.2,4.6,3,9.8,13.6,8.8c1.5-0.1,2.8-0.4,3.9-0.8c5.8,1.4,10.9-0.7,14.6-1.3c4.4-0.7,7.4-1.5,17.2,1.8
	s13.9-1.3,13.9-1.3c8.9,3.6,15.3,0.1,15.3,0.1c6.7,3,12.6-0.1,15.1,0.4c2.5,0.6,16.7,0.7,16.7,0.7c12,2.2,20.9-0.4,24.4,0.4
	s12.9-2.2,18.7-0.4s17.3-0.4,22.7-3.6s12,0.4,17.3,1.8c5.3,1.3,8,1.3,16.9,2.2s12-6.2,20.4-1.8s16.9-4.4,23.1-1.8
	c6.2,2.7,11.1,5.8,18.2,3.6s17.3-2.2,17.3-2.2c7.4,3.9,11.6-2.1,24.3,1.2s13.6-5,23.4-1.2s16.3,0.3,16.3,0.3
	c10.4,6.2,20.7,0.6,20.7,0.6c11.6,5,16-1.2,17.8-2.4c14.8,5.3,21.9,0.6,24.6,0.9c0,0,3.9-0.5,11,0.7s9.6,1.5,11.9,1.4
	c3.3-0.2,6.7-0.6,9.3-0.6s5.8-0.1,12.6,0.9s11.9-1.8,11.9-1.8c7.4,3.6,13.8,0.7,18.2,0s7.4-1.5,17.2,1.8s13.9-1.3,13.9-1.3
	c8.9,3.6,15.3,0.1,15.3,0.1c6.7,3,12.6-0.1,15.1,0.4c2.5,0.6,16.7,0.7,16.7,0.7c12,2.2,20.9-0.4,24.4,0.4c3.6,0.9,12.9-2.2,18.7-0.4
	s17.3-0.4,22.7-3.6c5.3-3.1,12,0.4,17.3,1.8c5.3,1.3,8,1.3,16.9,2.2s12-6.2,20.4-1.8s16.9-4.4,23.1-1.8c6.2,2.7,11.1,5.8,18.2,3.6
	c7.1-2.2,17.3-2.2,17.3-2.2c7.4,3.9,11.6-2.1,24.3,1.2s13.6-5,23.4-1.2s16.3,0.3,16.3,0.3c10.4,6.2,20.7,0.6,20.7,0.6
	c11.6,5,16-1.2,17.8-2.4c14.8,5.3,21.9,0.6,24.6,0.9c2.7,0.3,12,4.7,25.3,3.3c0,0,9.8,0,16.6-1.7s16.6,0.5,16.6,0.5
	c2.7,1.9,6.7-0.6,9.3-0.6c2.7,0,5.8-0.1,12.6,0.9s11.9-1.8,11.9-1.8c7.4,3.6,13.8,0.7,18.2,0s7.4-1.5,17.2,1.8s13.9-1.3,13.9-1.3
	c8.9,3.6,15.3,0.1,15.3,0.1c6.7,3,12.6-0.2,15.1,0.4c6.8,1.6,16.7,0.7,16.7,0.7c11.1,3.9,21.6-2.5,25.6-0.3s15.7,0,15.7,0
	c2.7,1.9,6.7-0.6,9.3-0.6s5.8-0.1,12.6,0.9c6.8,1,11.9-1.8,11.9-1.8c7.4,3.6,13.8,0.7,18.2,0s7.4-1.5,17.2,1.8s13.9-1.3,13.9-1.3
	c8.9,3.6,15.3,0.1,15.3,0.1c6.7,3,12.6-0.1,15.1,0.4c2.5,0.6,16.7,0.7,16.7,0.7c12,2.2,20.9-0.4,24.4,0.4c3.6,0.9,12.9-2.2,18.7-0.4
	c5.8,1.8,17.3-0.4,22.7-3.6c5.3-3.1,12,0.4,17.3,1.8c5.3,1.3,8,1.3,16.9,2.2s12-6.2,20.4-1.8s16.9-4.4,23.1-1.8
	c6.2,2.7,11.1,5.8,18.2,3.6s17.3-2.2,17.3-2.2c7.4,3.9,11.6-2.1,24.3,1.2s13.6-5,23.4-1.2c9.8,3.9,16.3,0.3,16.3,0.3
	c10.4,6.2,20.7,0.6,20.7,0.6c11.6,5,16-1.2,17.8-2.4c14.8,5.3,21.9,0.6,24.6,0.9c0,0,3.9-0.5,11,0.7s9.6,1.5,11.9,1.4
	c3.3-0.2,6.7-0.6,9.3-0.6c2.7,0,5.8-0.1,12.6,0.9s11.9-1.8,11.9-1.8c7.4,3.6,13.8,0.7,18.2,0s7.4-1.5,17.2,1.8s13.9-1.3,13.9-1.3
	c8.9,3.6,15.3,0.1,15.3,0.1c6.7,3,12.6-0.1,15.1,0.4c2.5,0.6,16.7,0.7,16.7,0.7c12,2.2,20.9-0.4,24.4,0.4c0,0,4.7-2.4,0-11.9
	C1724.5,2981.9,1724,2980.5,1723.6,2979.2z M1687.9,2968.6c-5.3,1.3-14.2-3.6-20.9,0.4s-14.2-5.9-23.1-2.5s-10.2-0.6-14.7,1.6
	c-4.4,2.2-11.6-1.3-17.3,1.3c-5.8,2.7-14.2-3.6-20.4,0c-6.2,3.6-14.2-4-20.9-0.9c0,0-6.5,0.9-11.9,0.4c0,0-7.4-1.4-13.2-0.1
	c-3.4,0.8-7.4-3.2-11.7-1.6c-4.3,1.6-10.4-1.2-16.1,2.5c-5.8,3.7-10.6-3.8-21.1,1.1c0,0-4.2-3.8-13.8-3.2c0,0-8.6-3.1-13.5,0.3
	c0,0-10.1-1.5-15.1,2.1c0,0-7.4-4-16.4,0.6c0,0-10.7-2.8-16.1-0.6c0,0-6.7-3.9-19.1-0.7c-12.4,3.1-20.9,5.8-26.2,1.8
	c-5.3-4-9.3-5.3-16.9-2.2s-6.2,2.7-16.9,2.7c-10.7,0-16.9-6.2-22.7-2.7s-8-2.2-16.4-0.4s-10.7,1.3-17.8,3.1c-7.1,1.8-7.1-2.2-15.1,0
	c0,0-7.1,0.9-16.9-1.3s-19.6-3.1-24.9-1.8s-14.2-3.6-20.9,0.4s-14.2-5.9-23.1-2.5s-10.2-0.6-14.7,1.6c-4.4,2.2-11.6-1.3-17.3,1.3
	c-5.8,2.7-14.2-3.6-20.4,0c-6.2,3.6-14.2-4-20.9-0.9c-4-1.3-10.9-1.7-15.4-1.3c-7.7,0.6-14.1,1.8-14.1,1.8
	c-9.8-2.2-19.4-1.8-24.7-0.4c-5.3,1.3-14.2-3.6-20.9,0.4c-6.7,4-14.2-5.9-23.1-2.5c-8.9,3.4-10.2-0.6-14.7,1.6
	c-4.4,2.2-11.6-1.3-17.3,1.3c-5.8,2.7-14.2-3.6-20.4,0s-14.2-4-20.9-0.9c0,0-12.7,3.1-19,1s-6.5,0.7-12.4,0s-16.1-0.5-16.1-0.5
	s-8.7,1.2-12-0.1s-8.6-3.1-12.9-1.5c-4.3,1.6-10.4-1.2-16.1,2.5c-5.8,3.7-10.6-3.8-21.1,1.1c0,0-4.2-3.8-13.8-3.2
	c0,0-8.6-3.1-13.5,0.3c0,0-10.1-1.5-15.1,2.1c0,0-7.4-4-16.4,0.6c0,0-10.7-2.8-16.1-0.6c0,0-6.7-3.9-19.1-0.7
	c-12.4,3.1-20.9,5.8-26.2,1.8s-9.3-5.3-16.9-2.2s-6.2,2.7-16.9,2.7s-16.9-6.2-22.7-2.7c-5.8,3.6-8-2.2-16.4-0.4s-10.7,1.3-17.8,3.1
	s-7.1-2.2-15.1,0c0,0-7.1,0.9-16.9-1.3c-9.8-2.2-19.6-3.1-24.9-1.8c-5.3,1.3-14.2-3.6-20.9,0.4s-14.2-5.9-23.1-2.5
	c-8.9,3.4-10.2-0.6-14.7,1.6c-4.4,2.2-11.6-1.3-17.3,1.3c-5.8,2.7-14.2-3.6-20.4,0c-6.2,3.6-14.2-4-20.9-0.9c0,0-6.5,0.9-11.9,0.4
	c0,0-7.4-1.4-13.2-0.1c-3.4,0.8-7.4-3.2-11.7-1.6c-4.3,1.6-10.4-1.2-16.1,2.5c-5.8,3.7-10.6-3.8-21.1,1.1c0,0-4.2-3.8-13.8-3.2
	c0,0-8.6-3.1-13.5,0.3c0,0-10.1-1.5-15.1,2.1c0,0-7.4-4-16.4,0.6c0,0-10.7-2.8-16.1-0.6c0,0-6.7-3.9-19.1-0.7
	c-12.4,3.1-20.9,5.8-26.2,1.8s-9.3-5.3-16.9-2.2s-6.2,2.7-16.9,2.7s-16.9-6.2-22.7-2.7s-8-2.2-16.4-0.4s-10.7,1.3-17.8,3.1
	s-7.1-2.2-15.1,0c0,0-7.1,0.9-16.9-1.3c-9.8-2.2-19.6-3.1-24.9-1.8s-14.2-3.6-20.9,0.4s-14.2-5.9-23.1-2.5s-10.2-0.6-14.7,1.6
	c-3.5,1.8-8.8-0.1-13.7,0.4c-0.4-2.3-1-4.3-1.3-6.1c-0.7-4.4-1.5-7.4,1.8-17.2s-1.3-13.9-1.3-13.9c3.6-8.9,0.1-15.3,0.1-15.3
	c3-6.7-0.1-12.6,0.4-15.1c0.6-2.5,0.7-16.7,0.7-16.7c2.2-12-0.4-20.9,0.4-24.4c0.9-3.6-2.2-12.9-0.4-18.7c1.8-5.8-0.4-17.3-3.6-22.7
	c-3.1-5.3,0.4-12,1.8-17.3c1.3-5.3,1.3-8,2.2-16.9c0.9-8.9-6.2-12-1.8-20.4s-4.4-16.9-1.8-23.1c2.7-6.2,5.8-11.1,3.6-18.2
	s-2.2-17.3-2.2-17.3c3.9-7.4-2.1-11.6,1.2-24.3s-5-13.6-1.2-23.4s0.3-16.3,0.3-16.3c6.2-10.4,0.6-20.7,0.6-20.7
	c5-11.6-1.2-16-2.4-17.8c5.3-14.8,0.6-21.9,0.9-24.6c0,0-0.5-3.9,0.7-11s1.5-9.6,1.4-11.9c-0.2-3.3-0.6-6.7-0.6-9.3
	c0-2.7-0.1-5.8,0.9-12.6s-1.8-11.9-1.8-11.9c3.6-7.4,0.7-13.8,0-18.2s-1.5-7.4,1.8-17.2s-1.3-13.9-1.3-13.9
	c3.6-8.9,0.1-15.3,0.1-15.3c3-6.7-0.1-12.6,0.4-15.1c0.6-2.5,0.7-16.7,0.7-16.7c2.2-12-0.4-20.9,0.4-24.4c0.9-3.6-2.2-12.9-0.4-18.7
	c1.8-5.8-0.4-17.3-3.6-22.7c-3.1-5.3,0.4-12,1.8-17.3c1.3-5.3,1.3-8,2.2-16.9c0.9-8.9-6.2-12-1.8-20.4s-4.4-16.9-1.8-23.1
	c2.7-6.2,5.8-11.1,3.6-18.2s-2.2-17.3-2.2-17.3c3.9-7.4-2.1-11.6,1.2-24.3s-5-13.6-1.2-23.4s0.3-16.3,0.3-16.3
	c6.2-10.4,0.6-20.7,0.6-20.7c5-11.6-1.2-16-2.4-17.8c5.3-14.8,0.6-21.9,0.9-24.6c0.3-2.7,4.7-12,3.3-25.3c0,0,0-9.8-1.7-16.6
	s0.5-16.6,0.5-16.6c1.9-2.7-0.6-6.7-0.6-9.3s-0.1-5.8,0.9-12.6c1-6.8-1.8-11.9-1.8-11.9c3.6-7.4,0.7-13.8,0-18.2s-1.5-7.4,1.8-17.2
	s-1.3-13.9-1.3-13.9c3.6-8.9,0.1-15.3,0.1-15.3c3-6.7-0.2-12.6,0.4-15.1c1.6-6.8,0.7-16.7,0.7-16.7c3.9-11.1-2.5-21.6-0.3-25.6
	s0-15.7,0-15.7c1.9-2.7-0.6-6.7-0.6-9.3s-0.1-5.8,0.9-12.6c1-6.8-1.8-11.9-1.8-11.9c3.6-7.4,0.7-13.8,0-18.2
	c-0.7-4.4-1.5-7.4,1.8-17.2c3.3-9.8-1.3-13.9-1.3-13.9c3.6-8.9,0.1-15.3,0.1-15.3c3-6.7-0.1-12.6,0.4-15.1
	c0.6-2.5,0.7-16.7,0.7-16.7c2.2-12-0.4-20.9,0.4-24.4c0.9-3.6-2.2-12.9-0.4-18.7c1.8-5.8-0.4-17.3-3.6-22.7
	c-3.1-5.3,0.4-12,1.8-17.3s1.3-8,2.2-16.9c0.9-8.9-6.2-12-1.8-20.4s-4.4-16.9-1.8-23.1c2.7-6.2,5.8-11.1,3.6-18.2
	s-2.2-17.3-2.2-17.3c3-5.7,0.2-9.4,0.2-16.6c3.1-0.3,5.9-1.2,8.2-1.6c4.4-0.7,7.4-1.5,17.2,1.8s13.9-1.3,13.9-1.3
	c8.9,3.6,15.3,0.1,15.3,0.1c6.7,3,12.6-0.1,15.1,0.4c2.5,0.6,16.7,0.7,16.7,0.7c12,2.2,20.9-0.4,24.4,0.4c3.6,0.9,12.9-2.2,18.7-0.4
	c5.8,1.8,17.3-0.4,22.7-3.6c5.3-3.1,12,0.4,17.3,1.8c5.3,1.3,8,1.3,16.9,2.2c8.9,0.9,12-6.2,20.4-1.8c8.4,4.4,16.9-4.4,23.1-1.8
	s11.1,5.8,18.2,3.6c7.1-2.2,17.3-2.2,17.3-2.2c7.4,3.9,11.6-2.1,24.3,1.2s13.6-5,23.4-1.2c9.8,3.9,16.3,0.3,16.3,0.3
	c10.4,6.2,20.7,0.6,20.7,0.6c11.6,5,16-1.2,17.8-2.4c14.8,5.3,21.9,0.6,24.6,0.9c0,0,3.9-0.5,11,0.7s9.6,1.5,11.9,1.4
	c3.3-0.2,6.7-0.6,9.3-0.6s5.8-0.1,12.6,0.9c6.8,1,11.9-1.8,11.9-1.8c7.4,3.6,13.8,0.7,18.2,0c4.4-0.7,7.4-1.5,17.2,1.8
	c9.8,3.3,13.9-1.3,13.9-1.3c8.9,3.6,15.3,0.1,15.3,0.1c6.7,3,12.6-0.1,15.1,0.4c2.5,0.6,16.7,0.7,16.7,0.7c12,2.2,20.9-0.4,24.4,0.4
	c3.6,0.9,12.9-2.2,18.7-0.4s17.3-0.4,22.7-3.6c5.3-3.1,12,0.4,17.3,1.8c5.3,1.3,8,1.3,16.9,2.2c8.9,0.9,12-6.2,20.4-1.8
	c8.4,4.4,16.9-4.4,23.1-1.8s11.1,5.8,18.2,3.6c7.1-2.2,17.3-2.2,17.3-2.2c7.4,3.9,11.6-2.1,24.3,1.2c12.7,3.3,13.6-5,23.4-1.2
	c9.8,3.9,16.3,0.3,16.3,0.3c10.4,6.2,20.7,0.6,20.7,0.6c11.6,5,16-1.2,17.8-2.4c14.8,5.3,21.9,0.6,24.6,0.9c2.7,0.3,12,4.7,25.3,3.3
	c0,0,9.8,0,16.6-1.7s16.6,0.5,16.6,0.5c2.7,1.9,6.7-0.6,9.3-0.6c2.7,0,5.8-0.1,12.6,0.9s11.9-1.8,11.9-1.8c7.4,3.6,13.8,0.7,18.2,0
	s7.4-1.5,17.2,1.8s13.9-1.3,13.9-1.3c8.9,3.6,15.3,0.1,15.3,0.1c6.7,3,12.6-0.2,15.1,0.4c6.8,1.6,16.7,0.7,16.7,0.7
	c11.1,3.9,21.6-2.5,25.6-0.3s15.7,0,15.7,0c2.7,1.9,6.7-0.6,9.3-0.6s5.8-0.1,12.6,0.9c6.8,1,11.9-1.8,11.9-1.8
	c7.4,3.6,13.8,0.7,18.2,0c2.8-0.5,5.1-0.9,8.9-0.4c1.9,6.2,5.8,14.4,5.8,14.4c-0.9,3.2,2.9,6,3.8,8.5s2.1,5.4,3.5,12.1
	c1.4,6.8,5.8,10.5,5.8,10.5c-0.8,8.2,4.1,13.2,6.3,17.1c2.2,3.9,4,6.4,4.3,16.7c0.3,10.3,6.1,12.6,6.1,12.6
	c-0.2,9.6,5.2,14.4,5.2,14.4c-0.5,7.3,4.5,11.8,4.8,14.3c0.3,2.6,5.1,16,5.1,16c2.1,12,7.7,19.4,8.1,23.1c0.4,3.6,6.6,11.3,6.9,17.3
	s6.4,16.1,11.2,20c4.8,3.9,3.8,11.4,4.4,16.9s1.5,8,3.8,16.6s10,9.1,8.8,18.6s10,14.3,9.7,21.1s-1.6,12.4,3,18.3s8.1,15.5,8.1,15.5
	c-1,8.3,6,10.1,7.3,23.2s9.5,11,9.2,21.5c-0.2,10.5,5.4,15.4,5.4,15.4c-2.2,11.9,6.6,19.7,6.6,19.7c-0.7,12.6,6.7,14.6,8.4,15.8
	c0.1,15.7,7.1,20.8,7.7,23.4c0,0,1.8,3.4,3.2,10.5c1.3,7.1,1.9,9.6,2.8,11.6c1.3,3,2.9,6,3.8,8.5s2.1,5.4,3.5,12.1
	c1.4,6.8,5.8,10.5,5.8,10.5c-0.8,8.2,4.1,13.2,6.3,17.1c2.2,3.9,4,6.4,4.3,16.7s6.1,12.6,6.1,12.6c-0.2,9.6,5.2,14.4,5.2,14.4
	c-0.5,7.3,4.5,11.8,4.8,14.3c0.3,2.6,5.1,16,5.1,16c2.1,12,7.7,19.4,8.1,23.1s6.6,11.3,6.9,17.3s6.4,16.1,11.2,20
	c4.8,3.9,3.8,11.4,4.4,16.9s1.5,8,3.8,16.6s10,9.1,8.8,18.6s10,14.3,9.7,21.1s-1.6,12.4,3,18.3c4.6,5.9,8.1,15.5,8.1,15.5
	c-1,8.3,6,10.1,7.3,23.2c1.4,13.1,9.5,11,9.2,21.5c-0.2,10.5,5.4,15.4,5.4,15.4c-2.2,11.9,6.6,19.7,6.6,19.7
	c-0.7,12.6,6.7,14.6,8.4,15.8c0.1,15.7,7.1,20.8,7.7,23.4c0.6,2.6-0.3,12.9,5.7,24.9c0,0,3.4,9.2,7.4,15s5.3,15.7,5.3,15.7
	c-0.9,3.2,2.9,6,3.8,8.5s2.1,5.4,3.5,12.1c1.4,6.8,5.8,10.5,5.8,10.5c-0.8,8.2,4.1,13.2,6.3,17.1c2.2,3.9,4,6.4,4.3,16.7
	s6.1,12.6,6.1,12.6c-0.2,9.6,5.2,14.4,5.2,14.4c-0.5,7.3,4.5,11.8,4.8,14.3c0.3,2.6,5.1,16,5.1,16c2.1,12,7.7,19.4,8.1,23.1
	c0.4,3.6,6.6,11.3,6.9,17.3s6.4,16.1,11.2,20s3.8,11.4,4.4,16.9s1.5,8,3.8,16.6s10,9.1,8.8,18.6s10,14.3,9.7,21.1s-1.6,12.4,3,18.3
	s8.1,15.5,8.1,15.5c-1,8.3,6,10.1,7.3,23.2c1.4,13.1,9.5,11,9.2,21.5c-0.2,10.5,5.4,15.4,5.4,15.4c-2.2,11.9,6.6,19.7,6.6,19.7
	c-0.7,12.6,6.7,14.6,8.4,15.8c0.1,15.7,7.1,20.8,7.7,23.4c0,0,1.8,3.4,3.2,10.5s1.9,9.6,2.8,11.6c1.3,3,2.9,6,3.8,8.5
	s2.1,5.4,3.5,12.1c1.4,6.8,5.8,10.5,5.8,10.5c-0.8,8.2,4.1,13.2,6.3,17.1c2.2,3.9,4,6.4,4.3,16.7c0,1.2,0.2,2.3,0.3,3.3
	C1691.1,2968.5,1689.3,2968.2,1687.9,2968.6z M2993.9,2620.4c5-11.6-1.2-16-2.4-17.8c5.3-14.8,0.6-21.9,0.9-24.6c0,0-0.5-3.9,0.7-11
	s1.5-9.6,1.4-11.9c-0.2-3.3-0.6-6.7-0.6-9.3c0-2.7-0.1-5.8,0.9-12.6s-1.8-11.9-1.8-11.9c3.6-7.4,0.7-13.8,0-18.2s-1.5-7.4,1.8-17.2
	s-1.3-13.9-1.3-13.9c3.6-8.9,0.1-15.3,0.1-15.3c3-6.7-0.1-12.6,0.4-15.1c0.6-2.5,0.7-16.7,0.7-16.7c2.2-12-0.4-20.9,0.4-24.4
	s-2.2-12.9-0.4-18.7s-0.4-17.3-3.6-22.7s0.4-12,1.8-17.3c1.3-5.3,1.3-8,2.2-16.9s-6.2-12-1.8-20.4s-4.4-16.9-1.8-23.1
	c2.7-6.2,5.8-11.1,3.6-18.2s-2.2-17.3-2.2-17.3c3.9-7.4-2.1-11.6,1.2-24.3s-5-13.6-1.2-23.4s0.3-16.3,0.3-16.3
	c6.2-10.4,0.6-20.7,0.6-20.7c5-11.6-1.2-16-2.4-17.8c5.3-14.8,0.6-21.9,0.9-24.6c0.3-2.7,4.7-12,3.3-25.3c0,0,0-9.8-1.7-16.6
	s0.5-16.6,0.5-16.6c1.9-2.7-0.6-6.7-0.6-9.3s-0.1-5.8,0.9-12.6c1-6.8-1.8-11.9-1.8-11.9c3.6-7.4,0.7-13.8,0-18.2s-1.5-7.4,1.8-17.2
	s-1.3-13.9-1.3-13.9c3.6-8.9,0.1-15.3,0.1-15.3c3-6.7-0.2-12.6,0.4-15.1c1.6-6.8,0.7-16.7,0.7-16.7c3.9-11.1-2.5-21.6-0.3-25.6
	s0-15.7,0-15.7c1.9-2.7-0.6-6.7-0.6-9.3s-0.1-5.8,0.9-12.6c1-6.8-1.8-11.9-1.8-11.9c3.6-7.4,0.7-13.8,0-18.2
	c-0.7-4.4-1.5-7.4,1.8-17.2c3.3-9.8-1.3-13.9-1.3-13.9c3.6-8.9,0.1-15.3,0.1-15.3c3-6.7-0.1-12.6,0.4-15.1
	c0.6-2.5,0.7-16.7,0.7-16.7c2.2-12-0.4-20.9,0.4-24.4c0.9-3.6-2.2-12.9-0.4-18.7s-0.4-17.3-3.6-22.7c-3.1-5.3,0.4-12,1.8-17.3
	s1.3-8,2.2-16.9s-6.2-12-1.8-20.4s-4.4-16.9-1.8-23.1c2.7-6.2,5.8-11.1,3.6-18.2s-2.2-17.3-2.2-17.3c3-5.7,0.1-9.5,0.2-16.8
	c0.8-0.8,1.2-1.8,1.4-2.8c0.2-1.3-0.2-2.8-0.5-4.2c0-0.2,0.1-0.3,0.1-0.5c0.3-1.9,0.3-3.5,0-4.9c0.5-2.1,1.2-4,0.9-5.5
	c-0.9-4-4.3-5.7-4.3-5.7s-6.8-4.4-18.7-1.8c0,0-8.7,1.2-12-0.1s-8.6-3.1-12.9-1.5c-4.3,1.6-10.4-1.2-16.1,2.5
	c-5.8,3.7-10.6-3.8-21.1,1.1c0,0-4.2-3.8-13.8-3.2c0,0-8.6-3.1-13.5,0.3c0,0-10.1-1.5-15.1,2.1c0,0-7.4-4-16.4,0.6
	c0,0-10.7-2.8-16.1-0.6c0,0-6.7-3.9-19.1-0.7c-12.4,3.1-20.9,5.8-26.2,1.8s-9.3-5.3-16.9-2.2c-7.6,3.1-6.2,2.7-16.9,2.7
	s-16.9-6.2-22.7-2.7c-5.8,3.6-8-2.2-16.4-0.4c-8.4,1.8-10.7,1.3-17.8,3.1c-7.1,1.8-7.1-2.2-15.1,0c0,0-7.1,0.9-16.9-1.3
	c-9.8-2.2-19.6-3.1-24.9-1.8c-5.3,1.3-14.2-3.6-20.9,0.4s-14.2-5.9-23.1-2.5c-8.9,3.4-10.2-0.6-14.7,1.6s-11.6-1.3-17.3,1.3
	c-5.8,2.7-14.2-3.6-20.4,0s-14.2-4-20.9-0.9c0,0-6.5,0.9-11.9,0.4c0,0-7.4-1.4-13.2-0.1c-3.4,0.8-7.4-3.2-11.7-1.6
	s-10.4-1.2-16.1,2.5c-5.8,3.7-10.6-3.8-21.1,1.1c0,0-4.2-3.8-13.8-3.2c0,0-8.6-3.1-13.5,0.3c0,0-10.1-1.5-15.1,2.1
	c0,0-7.4-4-16.4,0.6c0,0-10.7-2.8-16.1-0.6c0,0-6.7-3.9-19.1-0.7c-12.4,3.1-20.9,5.8-26.2,1.8s-9.3-5.3-16.9-2.2
	c-7.6,3.1-6.2,2.7-16.9,2.7s-16.9-6.2-22.7-2.7c-5.8,3.6-8-2.2-16.4-0.4c-8.4,1.8-10.7,1.3-17.8,3.1c-7.1,1.8-7.1-2.2-15.1,0
	c0,0-7.1,0.9-16.9-1.3c-9.8-2.2-19.6-3.1-24.9-1.8c-5.3,1.3-14.2-3.6-20.9,0.4s-14.2-5.9-23.1-2.5c-8.9,3.4-10.2-0.6-14.7,1.6
	s-11.6-1.3-17.3,1.3c-5.8,2.7-14.2-3.6-20.4,0s-14.2-4-20.9-0.9c0,0-12.7,3.1-19,1s-6.5,0.7-12.4,0s-16.1-0.5-16.1-0.5
	s-8.7,1.2-12-0.1s-8.6-3.1-12.9-1.5s-10.4-1.2-16.1,2.5c-5.8,3.7-10.6-3.8-21.1,1.1c0,0-4.2-3.8-13.8-3.2c0,0-8.6-3.1-13.5,0.3
	c0,0-10.1-1.5-15.1,2.1c0,0-7.4-4-16.4,0.6c0,0-10.7-2.8-16.1-0.6c0,0-6.7-3.9-19.1-0.7c-12.4,3.1-20.9,5.8-26.2,1.8
	c-5.3-4-9.3-5.3-16.9-2.2c-7.6,3.1-6.2,2.7-16.9,2.7c-10.7,0-16.9-6.2-22.7-2.7c-5.8,3.6-8-2.2-16.4-0.4s-10.7,1.3-17.8,3.1
	s-7.1-2.2-15.1,0c0,0-7.1,0.9-16.9-1.3c-9.8-2.2-19.6-3.1-24.9-1.8c-5.3,1.3-14.2-3.6-20.9,0.4s-14.2-5.9-23.1-2.5
	s-10.2-0.6-14.7,1.6c-4.4,2.2-11.6-1.3-17.3,1.3c-5.8,2.7-14.2-3.6-20.4,0c-6.2,3.6-14.2-4-20.9-0.9c0,0-6.5,0.9-11.9,0.4
	c0,0-7.4-1.4-13.2-0.1c-3.4,0.8-7.4-3.2-11.7-1.6c-4.3,1.6-10.4-1.2-16.1,2.5c-5.8,3.7-10.6-3.8-21.1,1.1c0,0-4.2-3.8-13.8-3.2
	c0,0-8.6-3.1-13.5,0.3c0,0-10.1-1.5-15.1,2.1c0,0-7.4-4-16.4,0.6c0,0-10.7-2.8-16.1-0.6c0,0-6.7-3.9-19.1-0.7
	c-12.4,3.1-20.9,5.8-26.2,1.8c-5.3-4-9.3-5.3-16.9-2.2c-7.6,3.1-6.2,2.7-16.9,2.7c-10.7,0-16.9-6.2-22.7-2.7
	c-5.8,3.6-8-2.2-16.4-0.4s-10.7,1.3-17.8,3.1c-6.2,0.4-10.7,6.1-9.7,12.3l0.5,3.1h-0.2c-0.2,1.5,0.4,4.2,1.4,7.1l0,0l0,0
	c2,5.9,5.3,12.9,5.3,12.9c-0.9,3.2,2.9,6,3.8,8.5s2.1,5.4,3.5,12.1s5.8,10.5,5.8,10.5c-0.8,8.2,4.1,13.2,6.3,17.1
	c2.2,3.9,4,6.4,4.3,16.7c0.3,10.3,6.1,12.6,6.1,12.6c-0.2,9.6,5.2,14.4,5.2,14.4c-0.5,7.3,4.5,11.8,4.8,14.3c0.3,2.6,5.1,16,5.1,16
	c2.1,12,7.7,19.4,8.1,23.1c0.4,3.6,6.6,11.3,6.9,17.3s6.4,16.1,11.2,20c4.8,3.9,3.8,11.4,4.4,16.9s1.5,8,3.8,16.6s10,9.1,8.8,18.6
	s10,14.3,9.7,21.1s-1.6,12.4,3,18.3s8.1,15.5,8.1,15.5c-1,8.3,6,10.1,7.3,23.2c1.4,13.1,9.5,11,9.2,21.5
	c-0.2,10.5,5.4,15.4,5.4,15.4c-2.2,11.9,6.6,19.7,6.6,19.7c-0.7,12.6,6.7,14.6,8.4,15.8c0.1,15.7,7.1,20.8,7.7,23.4
	c0,0,1.8,3.4,3.2,10.5c1.3,7.1,1.9,9.6,2.8,11.6c1.3,3,2.9,6,3.8,8.5s2.1,5.4,3.5,12.1c1.4,6.8,5.8,10.5,5.8,10.5
	c-0.8,8.2,4.1,13.2,6.3,17.1c2.2,3.9,4,6.4,4.3,16.7s6.1,12.6,6.1,12.6c-0.2,9.6,5.2,14.4,5.2,14.4c-0.5,7.3,4.5,11.8,4.8,14.3
	c0.3,2.6,5.1,16,5.1,16c2.1,12,7.7,19.4,8.1,23.1c0.4,3.6,6.6,11.3,6.9,17.3s6.4,16.1,11.2,20c4.8,3.9,3.8,11.4,4.4,16.9
	s1.5,8,3.8,16.6s10,9.1,8.8,18.6s10,14.3,9.7,21.1s-1.6,12.4,3,18.3c4.6,5.9,8.1,15.5,8.1,15.5c-1,8.3,6,10.1,7.3,23.2
	c1.4,13.1,9.5,11,9.2,21.5c-0.2,10.5,5.4,15.4,5.4,15.4c-2.2,11.9,6.6,19.7,6.6,19.7c-0.7,12.6,6.7,14.6,8.4,15.8
	c0.1,15.7,7.1,20.8,7.7,23.4s-0.3,12.9,5.7,24.9c0,0,3.4,9.2,7.4,15s5.3,15.7,5.3,15.7c-0.9,3.2,2.9,6,3.8,8.5s2.1,5.4,3.5,12.1
	c1.4,6.8,5.8,10.5,5.8,10.5c-0.8,8.2,4.1,13.2,6.3,17.1c2.2,3.9,4,6.4,4.3,16.7s6.1,12.6,6.1,12.6c-0.2,9.6,5.2,14.4,5.2,14.4
	c-0.5,7.3,4.5,11.8,4.8,14.3c0.3,2.6,5.1,16,5.1,16c2.1,12,7.7,19.4,8.1,23.1c0.4,3.6,6.6,11.3,6.9,17.3s6.4,16.1,11.2,20
	c4.8,3.9,3.8,11.4,4.4,16.9s1.5,8,3.8,16.6s10,9.1,8.8,18.6s10,14.3,9.7,21.1s-1.6,12.4,3,18.3s8.1,15.5,8.1,15.5
	c-1,8.3,6,10.1,7.3,23.2c1.4,13.1,9.5,11,9.2,21.5c-0.2,10.5,5.4,15.4,5.4,15.4c-2.2,11.9,6.6,19.7,6.6,19.7
	c-0.7,12.6,6.7,14.6,8.4,15.8c0.1,15.7,7.1,20.8,7.7,23.4c0,0,1.8,3.4,3.2,10.5s1.9,9.6,2.8,11.6c1.3,3,2.9,6,3.8,8.5
	s2.1,5.4,3.5,12.1c1.4,6.8,5.8,10.5,5.8,10.5c-0.8,8.2,4.1,13.2,6.3,17.1c2.2,3.9,4,6.4,4.3,16.7c0.2,6.6,2.7,9.9,4.4,11.5
	c0.2,0.1,0.3,0.2,0.5,0.4c1,1.7,2.2,4.1,3,8.3c1.8,9.8,15.6,7.7,15.6,7.7c8.4,4.4,16.9-4.4,23.1-1.8c6.2,2.7,11.1,5.8,18.2,3.6
	s17.3-2.2,17.3-2.2c7.4,3.9,11.6-2.1,24.3,1.2s13.6-5,23.4-1.2c9.8,3.9,16.3,0.3,16.3,0.3c10.4,6.2,20.7,0.6,20.7,0.6
	c11.6,5,16-1.2,17.8-2.4c14.8,5.3,21.9,0.6,24.6,0.9c2.7,0.3,12,4.7,25.3,3.3c0,0,9.8,0,16.6-1.7c6.8-1.7,16.6,0.5,16.6,0.5
	c2.7,1.9,6.7-0.6,9.3-0.6c2.7,0,5.8-0.1,12.6,0.9s11.9-1.8,11.9-1.8c7.4,3.6,13.8,0.7,18.2,0s7.4-1.5,17.2,1.8s13.9-1.3,13.9-1.3
	c8.9,3.6,15.3,0.1,15.3,0.1c6.7,3,12.6-0.1,15.1,0.4c2.5,0.6,16.7,0.7,16.7,0.7c12,2.2,20.9-0.4,24.4,0.4s12.9-2.2,18.7-0.4
	s17.3-0.4,22.7-3.6s12,0.4,17.3,1.8c5.3,1.3,8,1.3,16.9,2.2s12-6.2,20.4-1.8s16.9-4.4,23.1-1.8c6.2,2.7,11.1,5.8,18.2,3.6
	s17.3-2.2,17.3-2.2c7.4,3.9,11.6-2.1,24.3,1.2s13.6-5,23.4-1.2s16.3,0.3,16.3,0.3c10.4,6.2,20.7,0.6,20.7,0.6
	c11.6,5,16-1.2,17.8-2.4c14.8,5.3,21.9,0.6,24.6,0.9c0,0,3.9-0.5,11,0.7s9.6,1.5,11.9,1.4c3.3-0.2,6.7-0.6,9.3-0.6
	c2.7,0,5.8-0.1,12.6,0.9s11.9-1.8,11.9-1.8c7.4,3.6,13.8,0.7,18.2,0s7.4-1.5,17.2,1.8s13.9-1.3,13.9-1.3c8.9,3.6,15.3,0.1,15.3,0.1
	c6.7,3,12.6-0.1,15.1,0.4c2.5,0.6,16.7,0.7,16.7,0.7c12,2.2,20.9-0.4,24.4,0.4s12.9-2.2,18.7-0.4s17.3-0.4,22.7-3.6s12,0.4,17.3,1.8
	c5.3,1.3,8,1.3,16.9,2.2s12-6.2,20.4-1.8s16.9-4.4,23.1-1.8c6.2,2.7,11.1,5.8,18.2,3.6s17.3-2.2,17.3-2.2c7.4,3.9,11.6-2.1,24.3,1.2
	s13.6-5,23.4-1.2s16.3,0.3,16.3,0.3c10.4,6.2,20.7,0.6,20.7,0.6c11.6,5,16-1.2,17.8-2.4c14.8,5.3,21.9,0.6,24.6,0.9
	c2.7,0.3,9.5,6.8,22.8,5.3c7.4-0.8,10.1-3.2,10.6-6.1c0.3-2.3-1-5-0.8-7.2c0.4-3.1,1.8-5.9,1.3-7.9c-0.1-0.5-0.3-1-0.5-1.5
	c0.6-5-1.1-9.3-1.6-12.6c-0.7-4.4-1.5-7.4,1.8-17.2s-1.3-13.9-1.3-13.9c3.6-8.9,0.1-15.3,0.1-15.3c3-6.7-0.1-12.6,0.4-15.1
	c0.6-2.5,0.7-16.7,0.7-16.7c2.2-12-0.4-20.9,0.4-24.4s-2.2-12.9-0.4-18.7s-0.4-17.3-3.6-22.7c-3.1-5.3,0.4-12,1.8-17.3
	c1.3-5.3,1.3-8,2.2-16.9s-6.2-12-1.8-20.4s-4.4-16.9-1.8-23.1c2.7-6.2,5.8-11.1,3.6-18.2s-2.2-17.3-2.2-17.3
	c3.9-7.4-2.1-11.6,1.2-24.3s-5-13.6-1.2-23.4s0.3-16.3,0.3-16.3C2999.6,2630.8,2993.9,2620.4,2993.9,2620.4z M2969,1640.7
	c3.1,7.6,2.7,6.2,2.7,16.9c0,10.7-6.2,16.9-2.7,22.7s-2.2,8-0.4,16.4s1.3,10.7,3.1,17.8c1.8,7.1-2.2,7.1,0,15.1
	c0,0,0.9,7.1-1.3,16.9s-3.1,19.6-1.8,24.9s-3.6,14.2,0.4,20.9s-5.9,14.2-2.5,23.1s-0.6,10.2,1.6,14.7c2.2,4.4-1.3,11.6,1.3,17.3
	c2.7,5.8-3.6,14.2,0,20.4c3.6,6.2-4,14.2-0.9,20.9c-1.3,4-1.7,10.9-1.3,15.4c0.6,7.7,1.8,14.1,1.8,14.1c-2.2,9.8-1.8,19.4-0.4,24.7
	c1.3,5.3-3.6,14.2,0.4,20.9s-5.9,14.2-2.5,23.1s-0.6,10.2,1.6,14.7c2.2,4.4-1.3,11.6,1.3,17.3c2.7,5.8-3.6,14.2,0,20.4
	c3.6,6.2-4,14.2-0.9,20.9c0,0,3.1,12.7,1,19c-2.1,6.2,0.7,6.5,0,12.4s-0.5,16.1-0.5,16.1s1.2,8.7-0.1,12s-3.1,8.6-1.5,12.9
	c1.6,4.3-1.2,10.4,2.5,16.1c3.7,5.8-3.8,10.6,1.1,21.1c0,0-3.8,4.2-3.2,13.8c0,0-3.1,8.6,0.3,13.5c0,0-1.5,10.1,2.1,15.1
	c0,0-4,7.4,0.6,16.4c0,0-2.8,10.7-0.6,16.1c0,0-3.9,6.7-0.7,19.1c3.1,12.4,5.8,20.9,1.8,26.2s-5.3,9.3-2.2,16.9
	c3.1,7.6,2.7,6.2,2.7,16.9s-6.2,16.9-2.7,22.7s-2.2,8-0.4,16.4s1.3,10.7,3.1,17.8s-2.2,7.1,0,15.1c0,0,0.9,7.1-1.3,16.9
	c-2.2,9.8-3.1,19.6-1.8,24.9c1.3,5.3-3.6,14.2,0.4,20.9s-5.9,14.2-2.5,23.1c3.4,8.9-0.6,10.2,1.6,14.7s-1.3,11.6,1.3,17.3
	c2.7,5.8-3.6,14.2,0,20.4s-4,14.2-0.9,20.9c0,0,0.9,6.5,0.4,11.9c0,0-1.4,7.4-0.1,13.2c0.8,3.4-3.2,7.4-1.6,11.7
	c1.6,4.3-1.2,10.4,2.5,16.1c3.7,5.8-3.8,10.6,1.1,21.1c0,0-3.8,4.2-3.2,13.8c0,0-3.1,8.6,0.3,13.5c0,0-1.5,10.1,2.1,15.1
	c0,0-4,7.4,0.6,16.4c0,0-2.8,10.7-0.6,16.1c0,0-3.9,6.7-0.7,19.1c3.1,12.4,5.8,20.9,1.8,26.2s-5.3,9.3-2.2,16.9
	c3.1,7.6,2.7,6.2,2.7,16.9s-6.2,16.9-2.7,22.7s-2.2,8-0.4,16.4s1.3,10.7,3.1,17.8s-2.2,7.1,0,15.1c0,0,0.9,7.1-1.3,16.9
	c-2.2,9.8-3.1,19.6-1.8,24.9c1.3,5.3-3.6,14.2,0.4,20.9s-5.9,14.2-2.5,23.1s-0.6,10.2,1.6,14.7c1.8,3.5-0.1,8.7,0.4,13.6
	c-2.8,0.2-6.5,0.3-8.3-0.5c-3.3-1.3-8.6-3.1-12.9-1.5c-4.3,1.6-10.4-1.2-16.1,2.5c-5.8,3.7-10.6-3.8-21.1,1.1c0,0-4.2-3.8-13.8-3.2
	c0,0-8.6-3.1-13.5,0.3c0,0-10.1-1.5-15.1,2.1c0,0-7.4-4-16.4,0.6c0,0-10.7-2.8-16.1-0.6c0,0-6.7-3.9-19.1-0.7
	c-12.4,3.1-20.9,5.8-26.2,1.8s-9.3-5.3-16.9-2.2c-7.6,3.1-6.2,2.7-16.9,2.7s-16.9-6.2-22.7-2.7s-8-2.2-16.4-0.4s-10.7,1.3-17.8,3.1
	s-7.1-2.2-15.1,0c0,0-7.1,0.9-16.9-1.3c-9.8-2.2-19.6-3.1-24.9-1.8c-5.3,1.3-14.2-3.6-20.9,0.4s-14.2-5.9-23.1-2.5
	c-8.9,3.4-10.2-0.6-14.7,1.6s-11.6-1.3-17.3,1.3c-5.8,2.7-14.2-3.6-20.4,0s-14.2-4-20.9-0.9c0,0-6.5,0.9-11.9,0.4
	c0,0-7.4-1.4-13.2-0.1c-3.4,0.8-7.4-3.2-11.7-1.6c-4.3,1.6-10.4-1.2-16.1,2.5c-5.8,3.7-10.6-3.8-21.1,1.1c0,0-4.2-3.8-13.8-3.2
	c0,0-8.6-3.1-13.5,0.3c0,0-10.1-1.5-15.1,2.1c0,0-7.4-4-16.4,0.6c0,0-10.7-2.8-16.1-0.6c0,0-6.7-3.9-19.1-0.7
	c-12.4,3.1-20.9,5.8-26.2,1.8s-9.3-5.3-16.9-2.2c-7.6,3.1-6.2,2.7-16.9,2.7s-16.9-6.2-22.7-2.7s-8-2.2-16.4-0.4s-10.7,1.3-17.8,3.1
	s-7.1-2.2-15.1,0c0,0-7.1,0.9-16.9-1.3c-9.8-2.2-19.6-3.1-24.9-1.8c-5.3,1.3-14.2-3.6-20.9,0.4s-14.2-5.9-23.1-2.5
	c-8.9,3.4-10.2-0.6-14.7,1.6s-11.6-1.3-17.3,1.3c-5.8,2.7-14.2-3.6-20.4,0s-14.2-4-20.9-0.9c0,0-12.7,3.1-19,1s-6.5,0.7-12.4,0
	s-16.1-0.5-16.1-0.5s-8.7,1.2-12-0.1s-8.6-3.1-12.9-1.5s-10.4-1.2-16.1,2.5c-5.8,3.7-10.6-3.8-21.1,1.1c0,0-4.2-3.8-13.8-3.2
	c0,0-8.6-3.1-13.5,0.3c0,0-10.1-1.5-15.1,2.1c0,0-7.4-4-16.4,0.6c0,0-10.7-2.8-16.1-0.6c0,0-6.7-3.9-19.1-0.7
	c-12.4,3.1-20.9,5.8-26.2,1.8c-2.4-1.8-4.6-3.1-6.9-3.6c-0.2-2.8-0.8-5.6-2.9-8c-6.3-7.2-3-9.8-6.6-13.2s-2.8-11.3-7.3-15.8
	s-1.6-14.6-7.1-19.2c-5.5-4.6-1.2-14.7-6.4-19.9c0,0-3.1-5.8-4.5-11c0,0-1.3-7.4-4.5-12.4c-1.9-2.9,0.4-8.1-2.6-11.5
	s-2.5-10.1-8-14.3s-0.1-11.3-8.4-19.4c0,0,2.1-5.3-1.8-14.1c0,0-0.1-9.1-5-12.5c0,0-2.1-10-7.2-13.4c0,0,1.2-8.3-6.3-15.2
	c0,0-1.1-11-5.1-15.3c0,0,1.3-7.6-5.9-18.2c-7.2-10.6-12.7-17.6-10.8-24c1.9-6.4,1.8-10.6-3.8-16.6c-5.5-6-4.7-4.9-8.4-14.9
	c-3.7-10,0-18-5.4-22.2c-5.3-4.2-0.7-8.3-5.3-15.6s-5-9.5-9.1-15.6s-0.4-7.4-5.2-14.2c0,0-3.3-6.4-4.6-16.3c-1.3-9.9-3.9-19.4-7-24
	c-3.1-4.5-1.6-14.6-7.7-19.4c-6.1-4.9,0.6-15.4-5.7-22.5c-6.3-7.2-3-9.8-6.6-13.2s-2.8-11.3-7.3-15.8s-1.6-14.6-7.1-19.2
	s-1.2-14.7-6.4-19.9c0,0-7.3-10.9-7.5-17.4c-0.1-6.6-2.9-5.9-4.3-11.7s-5.1-15.3-5.1-15.3s-4.1-7.8-4-11.3s-0.1-9.1-3.1-12.6
	s-2.5-10.1-8-14.3c-5.5-4.1-0.1-11.3-8.4-19.4c0,0,2.1-5.3-1.8-14.1c0,0-0.1-9.1-5-12.5c0,0-2.1-10-7.2-13.4c0,0,1.2-8.3-6.3-15.2
	c0,0-1.1-11-5.1-15.3c0,0,1.3-7.6-5.9-18.2c-7.2-10.6-12.7-17.6-10.8-24c1.9-6.4,1.8-10.6-3.8-16.6c-5.5-6-4.7-4.9-8.4-14.9
	c-3.7-10,0-18-5.4-22.2s-0.7-8.3-5.3-15.6s-5-9.5-9.1-15.6s-0.4-7.4-5.2-14.2c0,0-3.3-6.4-4.6-16.3c-1.3-9.9-3.9-19.4-7-24
	c-3.1-4.5-1.6-14.6-7.7-19.4c-6.1-4.9,0.6-15.4-5.7-22.5c-6.3-7.2-3-9.8-6.6-13.2c-3.6-3.4-2.8-11.3-7.3-15.8s-1.6-14.6-7.1-19.2
	s-1.2-14.7-6.4-19.9c0,0-3.1-5.8-4.5-11c0,0-1.3-7.4-4.5-12.4c-1.9-2.9,0.4-8.1-2.6-11.5c-3-3.5-2.5-10.1-8-14.3
	c-5.5-4.1-0.1-11.3-8.4-19.4c0,0,2.1-5.3-1.8-14.1c0,0-0.1-9.1-5-12.5c0,0-2.1-10-7.2-13.4c0,0,1.2-8.3-6.3-15.2
	c0,0-1.1-11-5.1-15.3c0,0,1.3-7.6-5.9-18.2s-12.7-17.6-10.8-24c1.9-6.4,1.8-10.6-3.8-16.6c-5.5-6-4.7-4.9-8.4-14.9
	c-3.7-10,0-18-5.4-22.2c-5.3-4.2-0.7-8.3-5.3-15.6c-4.6-7.3-5-9.5-9.1-15.6s-0.4-7.4-5.2-14.2c0,0-3.3-6.4-4.6-16.3
	c-1.3-9.9-3.9-19.4-7-24c-3.1-4.5-1.6-14.6-7.7-19.4c-6.1-4.9,0.6-15.4-5.7-22.5s-3-9.8-6.6-13.2c-3.6-3.4-2.8-11.3-7.3-15.8
	s-1.6-14.6-7.1-19.2c-3.8-3.2-5.1-16.5-7.2-26.2c0.3-0.2,0.6-0.3,0.9-0.5c5.3-3.1,12,0.4,17.3,1.8c5.3,1.3,8,1.3,16.9,2.2
	c8.9,0.9,12-6.2,20.4-1.8c8.4,4.4,16.9-4.4,23.1-1.8c6.2,2.7,11.1,5.8,18.2,3.6s17.3-2.2,17.3-2.2c7.4,3.9,11.6-2.1,24.3,1.2
	s13.6-5,23.4-1.2c9.8,3.9,16.3,0.3,16.3,0.3c10.4,6.2,20.7,0.6,20.7,0.6c11.6,5,16-1.2,17.8-2.4c14.8,5.3,21.9,0.6,24.6,0.9
	c0,0,3.9-0.5,11,0.7s9.6,1.5,11.9,1.4c3.3-0.2,6.7-0.6,9.3-0.6c2.7,0,5.8-0.1,12.6,0.9c6.8,1,11.9-1.8,11.9-1.8
	c7.4,3.6,13.8,0.7,18.2,0c4.4-0.7,7.4-1.5,17.2,1.8s13.9-1.3,13.9-1.3c8.9,3.6,15.3,0.1,15.3,0.1c6.7,3,12.6-0.1,15.1,0.4
	s16.7,0.7,16.7,0.7c12,2.2,20.9-0.4,24.4,0.4c3.6,0.9,12.9-2.2,18.7-0.4c5.8,1.8,17.3-0.4,22.7-3.6c5.3-3.1,12,0.4,17.3,1.8
	c5.3,1.3,8,1.3,16.9,2.2c8.9,0.9,12-6.2,20.4-1.8c8.4,4.4,16.9-4.4,23.1-1.8c6.2,2.7,11.1,5.8,18.2,3.6s17.3-2.2,17.3-2.2
	c7.4,3.9,11.6-2.1,24.3,1.2s13.6-5,23.4-1.2c9.8,3.9,16.3,0.3,16.3,0.3c10.4,6.2,20.7,0.6,20.7,0.6c11.6,5,16-1.2,17.8-2.4
	c14.8,5.3,21.9,0.6,24.6,0.9s12,4.7,25.3,3.3c0,0,9.8,0,16.6-1.7s16.6,0.5,16.6,0.5c2.7,1.9,6.7-0.6,9.3-0.6c2.7,0,5.8-0.1,12.6,0.9
	s11.9-1.8,11.9-1.8c7.4,3.6,13.8,0.7,18.2,0s7.4-1.5,17.2,1.8s13.9-1.3,13.9-1.3c8.9,3.6,15.3,0.1,15.3,0.1c6.7,3,12.6-0.1,15.1,0.4
	c2.5,0.6,16.7,0.7,16.7,0.7c12,2.2,20.9-0.4,24.4,0.4c3.6,0.9,12.9-2.2,18.7-0.4c5.8,1.8,17.3-0.4,22.7-3.6c5.3-3.1,12,0.4,17.3,1.8
	c5.3,1.3,8,1.3,16.9,2.2c8.9,0.9,12-6.2,20.4-1.8c8.4,4.4,16.9-4.4,23.1-1.8s11.1,5.8,18.2,3.6s17.3-2.2,17.3-2.2
	c7.4,3.9,11.6-2.1,24.3,1.2s13.6-5,23.4-1.2c9.8,3.9,16.3,0.3,16.3,0.3c10.4,6.2,20.7,0.6,20.7,0.6c11.6,5,16-1.2,17.8-2.4
	c14.8,5.3,21.9,0.6,24.6,0.9c0,0,3.9-0.5,11,0.7s9.6,1.5,11.9,1.4c3.3-0.2,6.7-0.6,9.3-0.6c2.7,0,5.8-0.1,12.6,0.9
	s11.9-1.8,11.9-1.8c7.4,3.6,13.8,0.7,18.2,0s7.4-1.5,17.2,1.8s13.9-1.3,13.9-1.3c8.9,3.6,15.3,0.1,15.3,0.1c6.7,3,12.6-0.1,15.1,0.4
	c2.5,0.6,16.7,0.7,16.7,0.7c12,2.2,20.9-0.4,24.4,0.4c3.6,0.9,12.9-2.2,18.7-0.4c5.8,1.8,17.3-0.4,22.7-3.6c5.3-3.1,12,0.4,17.3,1.8
	c5.3,1.3,8,1.3,16.9,2.2c8.9,0.9,12-6.2,20.4-1.8c8.4,4.4,16.9-4.4,23.1-1.8s11.1,5.8,18.2,3.6s17.3-2.2,17.3-2.2
	c7.4,3.9,11.6-2.1,24.3,1.2s13.6-5,23.4-1.2c9.8,3.9,16.3,0.3,16.3,0.3c10.4,6.2,20.7,0.6,20.7,0.6c11.6,5,16-1.2,17.8-2.4
	c14.8,5.3,21.9,0.6,24.6,0.9c1.5,0.2,4.4,2.4,9.1,4c-0.7,3.4-1.7,10-0.1,14c0,0-3.9,6.7-0.7,19.1c3.1,12.4,5.8,20.9,1.8,26.2
	S2965.9,1633.1,2969,1640.7z"/>
</svg>
