<?xml version="1.0" encoding="utf-8"?>
<!-- Generator: Adobe Illustrator 27.7.0, SVG Export Plug-In . SVG Version: 6.00 Build 0)  -->
<svg version="1.1" id="레이어_1" xmlns="http://www.w3.org/2000/svg" xmlns:xlink="http://www.w3.org/1999/xlink" x="0px"
	 y="0px" width="2219.6px" height="2219.6px" viewBox="0 0 2219.6 2219.6" enable-background="new 0 0 2219.6 2219.6"
	 xml:space="preserve">
<g>
	<rect x="5" y="5" fill="#FFFFFF" width="2209.6" height="2209.6"/>
	<path fill="#DB2121" d="M671.2,297c-29.1-51.6-92.8-103.2-110.6-106.8c-22.2-4.4-32.7,9.7-85.5,50.2V5H293.8v235.7
		c-53-40.7-63.4-54.9-85.7-50.4c-17.8,3.6-81.4,55.2-110.5,106.7c0,0,0,0,0,0H6v181.3h107c18.3,24.1,43.6,51.7,78.1,75l-0.8,2.6
		c0,0-23.7,74-27.8,114.2c-0.2,1.6,0.6,3.2,2,4c6.3,4.1,26.6,14.7,64.5,14c30.4-0.5,52.9,8.3,64.8,14.6v1511.8h181.3V702.8
		c-0.5,0.3-1.1,0.6-1.6,0.9c11.4-6.3,34.5-16.1,66.4-15.5c37.9,0.7,58.2-9.9,64.5-14c1.4-0.9,2.1-2.4,2-4
		c-4-40.2-27.8-114.2-27.8-114.2l-0.8-2.6c-13.2,9.1-21.6,13.7-26.6,16c48.4-25.8,82-61.1,104.7-91c0,0,0,0,0,0.1h1559.6V297H671.2z
		 M84.7,337.6c-0.6,0.2-0.9,0.8-0.9,1.4l-0.4-2c0.2,0.4,0.6,0.7,1.1,0.7C84.6,337.6,84.6,337.6,84.7,337.6z M84.4,330
		c0.1-0.6,0.2-1.1,0.4-1.7C84.6,328.9,84.5,329.4,84.4,330z M89,315c0.2-0.4,0.3-0.9,0.5-1.3C89.3,314.2,89.1,314.6,89,315z
		 M85,327.2c0.1-0.6,0.3-1.2,0.5-1.8C85.3,326,85.2,326.6,85,327.2z M85.8,324.5c0.2-0.9,0.5-1.7,0.8-2.6
		C86.3,322.8,86,323.6,85.8,324.5z M86.9,320.9c0.2-0.6,0.4-1.1,0.6-1.7C87.2,319.7,87,320.3,86.9,320.9z M87.9,317.9
		c0.2-0.5,0.3-0.9,0.5-1.4C88.2,316.9,88.1,317.4,87.9,317.9z M83.7,333.7c-0.1,0.9-0.3,1.8-0.4,2.6
		C83.4,335.4,83.6,334.6,83.7,333.7z M96.5,299.1c-0.1,0.2-0.3,0.5-0.4,0.7C96.2,299.6,96.4,299.3,96.5,299.1z M95.1,301.7
		c-0.1,0.3-0.3,0.6-0.4,0.8C94.8,302.2,95,302,95.1,301.7z M93.7,304.4c-0.1,0.3-0.3,0.5-0.4,0.8C93.5,304.9,93.6,304.6,93.7,304.4z
		 M90.6,311.1c-0.2,0.4-0.3,0.7-0.5,1.1C90.2,311.9,90.4,311.5,90.6,311.1z M84.2,331c-0.1,0.6-0.2,1.2-0.3,1.8
		C84,332.2,84.1,331.6,84.2,331z M103.8,372.6c1.4-0.5,2.8-1,4.3-1.6C106.6,371.6,105.2,372.1,103.8,372.6
		c-15.2,5.6-24,10.2-29.3,13.3C79.8,382.7,88.6,378.2,103.8,372.6z M67.4,408.7c0.5,1.2,1,2.5,1.7,3.7
		C68.4,411.2,67.9,409.9,67.4,408.7z M70.5,414.9c1.3,2.1,2.8,4.2,4.5,6.2c0,0,0,0.1,0.1,0.1c0,0,0-0.1-0.1-0.1
		C73.3,419.1,71.8,417,70.5,414.9z M95.9,454C95.9,454,95.9,454,95.9,454C95.9,454,95.9,454,95.9,454z M75.6,421.8
		c0.1,0.1,0.1,0.2,0.2,0.3C75.7,422,75.6,421.9,75.6,421.8z M76.1,422.5c0.1,0.1,0.2,0.2,0.3,0.4C76.3,422.7,76.2,422.6,76.1,422.5z
		 M76.7,423.4c0.1,0.1,0.2,0.3,0.3,0.4C76.9,423.6,76.8,423.5,76.7,423.4z M77.4,424.3c0.1,0.1,0.2,0.3,0.3,0.5
		C77.6,424.6,77.5,424.4,77.4,424.3z M78,425.3c0.1,0.2,0.2,0.3,0.3,0.5C78.2,425.7,78.1,425.5,78,425.3z M78.8,426.5
		c0.1,0.2,0.2,0.3,0.3,0.5C79,426.8,78.9,426.6,78.8,426.5z M79.6,427.7c0.1,0.1,0.2,0.3,0.3,0.5C79.7,428,79.6,427.9,79.6,427.7z
		 M80.4,429.1c0.1,0.1,0.2,0.2,0.2,0.4C80.5,429.3,80.5,429.2,80.4,429.1z M81.3,430.5c0,0.1,0.1,0.1,0.1,0.2
		C81.4,430.6,81.3,430.6,81.3,430.5z M89.3,443.5C89.3,443.5,89.3,443.5,89.3,443.5C89.3,443.5,89.3,443.5,89.3,443.5z M90.5,445.5
		C90.5,445.5,90.5,445.5,90.5,445.5C90.5,445.5,90.5,445.5,90.5,445.5z M91.8,447.5c0,0,0.1,0.1,0.1,0.1
		C91.8,447.6,91.8,447.6,91.8,447.5z M93.1,449.6c0,0,0.1,0.1,0.1,0.1C93.1,449.7,93.1,449.7,93.1,449.6z M94.5,451.8
		C94.5,451.8,94.5,451.8,94.5,451.8C94.5,451.8,94.5,451.8,94.5,451.8z M125.7,365.2c-9.7-2.6-17.2-5.6-23-8.7
		C108.5,359.6,116,362.6,125.7,365.2C125.7,365.2,125.7,365.2,125.7,365.2z M470.8,243.8c-7.5,5.9-14.4,12.1-20.7,18.3
		C456.4,255.8,463.3,249.7,470.8,243.8z M375.1,383.8c-3.9,6.5-14.1,24.6-24.7,53.9c-2.8,7.8-5.4,15.2-8,22.5
		C352.7,431,360.5,403.4,375.1,383.8z M369.3,371.5c-0.1,3.4,1.8,6.4,4.5,8.1c-2-1.1-4.3-2.8-4.5-5.1V371.5z M371.9,339.4
		C372,339.4,372,339.4,371.9,339.4C372,339.4,372,339.4,371.9,339.4z M371.5,339.5c-0.2,0.2-0.3,0.4-0.5,0.7
		C371.2,340,371.3,339.7,371.5,339.5z M369.1,343.2c0,0,0.2-0.4,0.6-1.1C369.4,342.8,369.1,343.2,369.1,343.2v3c0,0,0,0,0,0V343.2z
		 M376.1,380.6c0.9,0.2,1.8,0.4,2.7,0.4H377c0-0.1-0.1-0.1-0.2-0.1C376.6,380.8,376.4,380.7,376.1,380.6z M392.8,380.7
		c-0.3,0.1-0.5,0.2-0.7,0.3c-0.1,0-0.1,0.1-0.2,0.1h-1.8C391,381,391.9,380.9,392.8,380.7z M426.5,460.2c-2.6-7.3-5.3-14.8-8.1-22.5
		c-10.6-29.3-20.7-47.3-24.6-53.9C408.4,403.3,416.2,431,426.5,460.2z M395,379.5c2.7-1.7,4.6-4.7,4.6-8.1v3
		C399.3,376.7,397.1,378.4,395,379.5z M450.3,429c-7.7-9.2-15-17.3-21.4-24.4C436.4,412.8,443.6,420.9,450.3,429z M431.1,283.1
		c-24.1,29.7-34.6,55.6-34.6,55.6l0,0C396.5,338.7,407,312.8,431.1,283.1z M448,264.2c-1.3,1.3-2.6,2.7-3.9,4
		C445.4,266.9,446.7,265.5,448,264.2z M443.9,268.4c-1.2,1.3-2.4,2.6-3.5,3.8C441.5,271,442.7,269.7,443.9,268.4z M438.2,274.8
		c-2.2,2.5-4.4,5.1-6.4,7.6C433.8,279.9,435.9,277.3,438.2,274.8z M399.1,342.1c-0.1-0.1-0.1-0.2-0.2-0.3
		C399,341.9,399,342,399.1,342.1z M399.6,346.2L399.6,346.2c0-3.3-1.7-6.2-4.2-8C397.9,340,399.6,342.9,399.6,346.2z M370.9,335.7
		c-0.2-0.4-0.4-0.9-0.7-1.5C370.4,334.8,370.7,335.3,370.9,335.7z M295.4,241.9c24.6,18.9,42.7,40.5,55.1,58.6
		c4.7,6.8,8.6,13.2,11.7,18.6c0.6,1,1.1,2,1.6,2.9c-0.5-0.9-1.1-1.9-1.6-2.9c-3.1-5.5-7-11.8-11.7-18.6
		C338.2,282.4,320.1,260.8,295.4,241.9c-0.5-0.4-0.9-0.7-1.4-1.1C294.5,241.2,295,241.6,295.4,241.9z M338.6,406.1
		c-5,5.5-10.4,11.5-16.1,18.2C327.7,418.2,333.1,412.2,338.6,406.1z M301.5,538.5c-4,4.7-8.2,8.9-12.5,12.7
		C293.2,547.6,297.4,543.3,301.5,538.5z M192,553.9c8.1,5.4,16.6,10.6,25.7,15.4C212.8,567.1,204.7,562.6,192,553.9z M224,570.3
		c-0.2,0.4-0.2,0.9,0,1.2h-0.1c-0.1,0.1-1.2-0.1-3.7-1.2c1.6,0.3,3.3-0.2,4.4-1.4C224.4,569.4,224.2,569.9,224,570.3z M204.7,345.7
		c-0.1,0-0.2,0-0.2,0c6.6-1.4,13-2.7,19.1-3.7c0,0-35.8-2.9-73.4-4.4c24.9,0.5,52.2,1.7,73.4,4.4c0,0,3.6-0.5,9.5-1.1
		C223.8,342.1,214.3,343.7,204.7,345.7z M295.5,703.6c-0.5-0.3-1.1-0.6-1.6-0.9C294.4,703,294.9,703.3,295.5,703.6z M298.4,705.1
		c-0.4-0.1-0.8-0.3-1.2-0.5c-0.5-0.3-0.9-0.5-1.4-0.8c0.5,0.3,1,0.6,1.4,0.8C297.6,704.8,298,705,298.4,705.1
		c0.4,0.1,0.8,0.2,1.2,0.2C299.2,705.3,298.8,705.2,298.4,705.1z M397.8,418.8c1.2,3.8,2.4,7.6,3.6,11.4
		C400.2,426.4,399,422.6,397.8,418.8z M448.8,621.9c-1-5-2.1-10.2-3.2-15.5c-2.6-12.4-5.5-25.4-8.5-38.9
		c-8.7-38.5-19-80.4-30.5-119.7c-1.1-3.9-2.3-7.8-3.5-11.7c1.2,3.9,2.3,7.8,3.5,11.7C418,487,428.3,529,437,567.5
		c3,13.5,5.9,26.5,8.5,38.9C446.7,611.7,447.8,616.9,448.8,621.9c3.1,15.1,5.9,28.9,8.2,40.8C454.7,650.8,451.9,637,448.8,621.9z
		 M471.8,704.6c-1.6,0.9-3.3,0.9-4.8,0.2c-0.5-0.2-0.9-0.5-1.3-0.8c0.4,0.3,0.8,0.6,1.3,0.8C468.5,705.5,470.3,705.5,471.8,704.6
		c0.4-0.3,0.9-0.5,1.4-0.8C472.7,704.1,472.3,704.4,471.8,704.6z M467.4,538.5c5.6,6.5,11.2,11.9,16.8,16.2
		C478.3,550.2,472.7,544.8,467.4,538.5z M545.1,571.6H545c0.2-0.4,0.2-0.8,0-1.2c-0.2-0.4-0.4-0.9-0.6-1.4c1.1,1.2,2.8,1.7,4.4,1.4
		C546.1,571.4,545.1,571.6,545.1,571.6z M564.4,345.7c-0.1,0-0.1,0-0.2,0c-9.6-2-19.1-3.6-28.4-4.8c5.9,0.6,9.5,1.1,9.5,1.1
		c21.2-2.7,48.5-3.9,73.4-4.4c-37.6,1.5-73.4,4.4-73.4,4.4C551.3,343,557.8,344.3,564.4,345.7z M702.3,394.8
		c0.1,0.4,0.3,0.8,0.4,1.3C702.6,395.6,702.5,395.2,702.3,394.8c-1.1-3.4-3.5-6.4-7.2-8.6c-5.2-3.1-14.2-7.8-30.1-13.7
		c-2.1-0.8-4.2-1.6-6.6-2.4c-2.6-0.9-5.3-1.8-8.1-2.7c2.9,0.9,5.6,1.8,8.1,2.7c2.3,0.8,4.5,1.6,6.6,2.4
		c15.8,5.9,24.8,10.6,30.1,13.7C698.8,388.4,701.2,391.4,702.3,394.8z M685.1,338.7c-0.1-0.5-0.4-1-0.9-1.2c0.1,0,0.1,0,0.2,0
		c0.5,0,0.9-0.3,1.1-0.8L685.1,338.7z M685.2,333.6c0.1,0.9,0.3,1.8,0.4,2.6C685.4,335.3,685.3,334.5,685.2,333.6z M684.1,328.2
		c0.1,0.6,0.3,1.1,0.4,1.7C684.3,329.3,684.2,328.8,684.1,328.2z M684.7,330.9c0.1,0.6,0.2,1.2,0.3,1.8
		C684.9,332.1,684.8,331.5,684.7,330.9z M683.3,325.3c0.2,0.6,0.3,1.2,0.5,1.8C683.7,326.5,683.5,325.9,683.3,325.3z M682.3,321.8
		c0.3,0.9,0.5,1.8,0.8,2.6C682.8,323.6,682.6,322.7,682.3,321.8z M681.4,319.1c0.2,0.6,0.4,1.1,0.6,1.7
		C681.8,320.2,681.6,319.7,681.4,319.1z M679.3,313.6c0.2,0.5,0.4,0.9,0.5,1.4C679.7,314.5,679.5,314.1,679.3,313.6z M680.4,316.4
		c0.2,0.5,0.4,1,0.5,1.4C680.8,317.3,680.6,316.8,680.4,316.4z M672.8,299.8c-0.2-0.3-0.3-0.6-0.5-0.8
		C672.5,299.2,672.6,299.5,672.8,299.8z M678.8,312.2c-0.2-0.4-0.4-0.8-0.5-1.3C678.4,311.4,678.6,311.8,678.8,312.2z M676.7,307.7
		c-0.1-0.2-0.2-0.4-0.3-0.7C676.5,307.2,676.6,307.5,676.7,307.7z M675.6,305.3c-0.2-0.3-0.3-0.7-0.5-1
		C675.3,304.6,675.4,304.9,675.6,305.3z M674.2,302.5c-0.2-0.3-0.3-0.6-0.5-1C673.9,301.9,674,302.2,674.2,302.5z M662.5,358.3
		c-1.3,0.6-2.7,1.2-4.1,1.8C659.8,359.5,661.2,358.9,662.5,358.3z M656.1,360.9c-3.8,1.5-8.1,2.9-13,4.2l0,0
		C648,363.8,652.3,362.4,656.1,360.9z M646.8,366.3c-0.6-0.2-1.1-0.4-1.7-0.5C645.6,365.9,646.2,366.1,646.8,366.3z M668.5,460.9
		c0,0-0.1,0.1-0.1,0.1C668.5,460.9,668.5,460.9,668.5,460.9z M693.5,421.8c-0.1,0.1-0.1,0.2-0.2,0.3
		C693.4,421.9,693.4,421.8,693.5,421.8z M692.9,422.5c-0.1,0.1-0.2,0.2-0.2,0.3C692.8,422.7,692.9,422.6,692.9,422.5z M692.3,423.4
		c-0.1,0.1-0.2,0.3-0.3,0.4C692.2,423.6,692.3,423.5,692.3,423.4z M691.7,424.3c-0.1,0.1-0.2,0.3-0.3,0.4
		C691.5,424.6,691.6,424.4,691.7,424.3z M691,425.3c-0.1,0.1-0.2,0.3-0.3,0.4C690.8,425.6,690.9,425.5,691,425.3z M690.3,426.5
		c-0.1,0.2-0.2,0.3-0.3,0.5C690.1,426.8,690.2,426.6,690.3,426.5z M689.5,427.7c-0.1,0.2-0.2,0.3-0.3,0.5
		C689.3,428,689.4,427.8,689.5,427.7z M688.7,429c-0.1,0.1-0.2,0.3-0.3,0.4C688.5,429.3,688.6,429.1,688.7,429z M687.8,430.5
		c-0.1,0.1-0.1,0.2-0.2,0.3C687.7,430.6,687.7,430.6,687.8,430.5z M682.1,439.7C682.1,439.7,682.1,439.8,682.1,439.7
		C682.1,439.8,682.1,439.7,682.1,439.7z M681,441.5c0,0.1-0.1,0.1-0.1,0.2C680.9,441.6,681,441.6,681,441.5z M679.8,443.4
		c-0.1,0.1-0.1,0.2-0.2,0.3C679.7,443.6,679.8,443.5,679.8,443.4z M678.6,445.4c-0.1,0.1-0.1,0.2-0.2,0.3
		C678.5,445.6,678.6,445.5,678.6,445.4z M677.3,447.4c-0.1,0.1-0.2,0.3-0.2,0.4C677.2,447.6,677.3,447.5,677.3,447.4z M676,449.5
		c-0.1,0.1-0.1,0.2-0.2,0.4C675.8,449.7,675.9,449.6,676,449.5z M674.6,451.7c-0.1,0.1-0.2,0.3-0.2,0.4
		C674.4,451.9,674.5,451.8,674.6,451.7z M673.2,453.9c-0.1,0.1-0.2,0.2-0.2,0.3C673,454.1,673.1,454,673.2,453.9z M671.7,456.2
		c-0.1,0.1-0.1,0.2-0.2,0.3C671.5,456.4,671.6,456.3,671.7,456.2z M670.1,458.5c-0.1,0.1-0.1,0.2-0.2,0.3
		C670,458.7,670.1,458.6,670.1,458.5z M703.2,400.2c0-0.4,0-0.8,0-1.2C703.2,399.4,703.2,399.8,703.2,400.2z"/>
	<g opacity="0.4">
		<path d="M84,339.6c2.2,4.8,10.9,17.4,42.6,25.8c0,0,57.1-16.6,96.9-23.4c0,0-95.6-7.7-138.3-4.6C84.2,337.5,83.6,338.6,84,339.6z"
			/>
		<path d="M223.9,570.4c-0.4,0.9,0.2,2,1.2,2.1c8.9,1.4,47.5,4.6,81.5-40.4c38.6-51.1,41.9-115.5,70.3-150.7
			c0.1-0.2,0.1-0.4-0.1-0.5c-1.6-0.5-7.2-2.6-7.6-6.4c0,0-45.2,41.9-90.5,105.9C240,535.1,226.9,563.3,223.9,570.4z"/>
		<path d="M684.8,339.6c-2.2,4.8-10.9,17.4-42.6,25.8c0,0-57.1-16.6-96.9-23.4c0,0,95.6-7.7,138.3-4.6
			C684.6,337.5,685.3,338.6,684.8,339.6z"/>
		<path d="M544.9,570.4c0.4,0.9-0.2,2-1.2,2.1c-8.9,1.4-47.5,4.6-81.5-40.4c-38.6-51.1-41.9-115.5-70.3-150.7
			c-0.1-0.2-0.1-0.4,0.1-0.5c1.6-0.5,7.2-2.6,7.6-6.4c0,0,45.2,41.9,90.5,105.9C528.9,535.1,542,563.3,544.9,570.4z"/>
	</g>
	<path fill="#FFCACA" d="M2215.6,327.5v27.2H669.2c10.5-6.2,14.3-12.2,15.7-15.2l0.6-3.3c-0.3-2.9-0.9-5.8-1.6-8.7H2215.6z
		 M83.9,339.6l-0.6-3.3c0.3-2.9,0.9-5.8,1.6-8.8H6v27.2h93.5C89.2,348.6,85.3,342.6,83.9,339.6z M694,421.1
		c-3.1,3.7-8.5,13.3-16.7,26.3h1538.3v-27.2H694.7C694.5,420.5,694.3,420.8,694,421.1z M74.3,420.2H6v27.2h85.7
		c-8.2-13-13.6-22.7-16.7-26.3C74.8,420.8,74.5,420.5,74.3,420.2z M351.5,5h-27.2v263c11.1,11.7,20.1,23.5,27.2,33.9V5z
		 M324.3,2214.6h27.2V487.1c-10.5,39.7-19.7,80-27.2,115.2V2214.6z M444.2,5H417v297.1c7.1-10.5,16.1-22.2,27.2-34V5z M417,2214.6
		h27.2V600.3c-7.5-35.2-16.8-75.4-27.2-114.9V2214.6z M476.3,548c0,0-20.3-19.4-31.7-44.3c-0.1-0.2-0.5-0.1-0.4,0.1
		c4.2,17.3,33.5,159.8,41.5,193.3c0.1,0.4,0.5,0.6,0.8,0.5c2.6-0.9,10.2-4.2,22.2-6.8c0.3-0.1,0.5-0.4,0.4-0.8L476.3,548z
		 M96.6,301.2c11,2.9,102.7,27.3,114.8,29.5c37.7,7,40.4,7.6,40.5,7.7l58.2-1.1c0,0-10.2-8.1-81.8-26.4
		c-67.8-17.3-110.9-34.8-115.2-36.6c-0.2-0.1-0.4,0-0.6,0.2l-7.3,10.5c-1.2,1.7-2.3,3.4-3.4,5.2L96,300
		C95.8,300.5,96,301.1,96.6,301.2z M558.5,565.5l-19.9,9.1c7.5,20.1,21.9,96,24.8,110c0.3,1.2,1.5,2,2.7,1.7l20-4.5
		c0.9-0.2,1.5-1,1.3-1.9C578.7,622.1,558.5,565.5,558.5,565.5z M458.9,337.3l58.2,1.1c0.1,0,2.7-0.6,40.5-7.7
		c12.1-2.2,103.8-26.6,114.8-29.5c0.5-0.1,0.8-0.8,0.5-1.2l-5.8-9.8c-1.1-1.8-2.2-3.5-3.4-5.2l-7.3-10.5c-0.1-0.2-0.4-0.3-0.6-0.2
		c-4.3,1.8-47.3,19.3-115.2,36.6C469.1,329.1,458.9,337.3,458.9,337.3z M688.2,427.3c-11.2-8.1-124.1-86.9-288.6-81v12.6v2.3v13.4
		c93.4,53.5,167.6,166.5,175.6,179c0.4,0.6,1.2,0.8,1.8,0.3l23.6-18.2c0.5-0.4,0.6-1.2,0.2-1.7c-86.3-117.8-172.9-162.5-195.5-172.7
		c28.5,1.1,159.1,10.8,266.6,91.8c0.6,0.4,1.4,0.3,1.8-0.3l14.9-23.9C688.8,428.4,688.7,427.7,688.2,427.3z M181.5,680
		c-0.1,0.9,0.4,1.7,1.3,1.9l20,4.5c1.2,0.3,2.5-0.5,2.7-1.7c2.9-14.1,17.3-89.9,24.8-110l-19.9-9.1
		C210.4,565.5,190.2,622.1,181.5,680z M280.4,260.2c-49.3-35.1-86.3-63.8-92.8-59.1l-19.1,15.1c-0.4,0.4-0.4,1,0.1,1.2
		c5.8,2.9,11,2.6,63.1,36.4c64.8,42,72.8,47.2,119.6,86.6l17.9,2.8l3.1-4.4C372.3,338.8,337.3,300.7,280.4,260.2z M324.3,503.6
		c-11.4,24.9-31.7,44.3-31.7,44.3l-32.8,142c-0.1,0.3,0.1,0.7,0.4,0.8c12,2.6,19.5,5.9,22.2,6.8c0.4,0.1,0.7-0.1,0.8-0.5
		c8-33.4,37.3-175.9,41.5-193.3C324.7,503.5,324.4,503.4,324.3,503.6z M80.7,427.3c-0.5,0.4-0.7,1.1-0.3,1.6l14.9,23.9
		c0.4,0.6,1.2,0.8,1.8,0.3c107.5-81.1,238.1-90.7,266.6-91.8c-22.6,10.2-109.2,54.9-195.5,172.7c-0.4,0.5-0.3,1.3,0.2,1.7l23.6,18.1
		c0.6,0.4,1.4,0.3,1.8-0.3c8-12.5,82.2-125.5,175.6-179v-13.4v-2.3v-12.6C204.8,340.4,91.8,419.2,80.7,427.3z M417.5,340.4
		c46.8-39.4,54.8-44.6,119.6-86.6c52.1-33.8,57.3-33.5,63.1-36.4c0.5-0.2,0.5-0.8,0.1-1.2L581.2,201c-6.5-4.7-43.5,24-92.8,59.1
		c-56.9,40.4-91.9,78.5-91.9,78.5l3.1,4.4L417.5,340.4z"/>
	<path fill="#231815" d="M2219.6,292V0H480.2h-30.9H412h-55.5h-37.2h-30.5H0v2219.6h288.8h30.5h37.2H412h37.2h30.9h1739.4V483.4V292
		z M479.4,694.9c-4,2-7.5,3.8-10.1,5.3c0,0-0.1,0.1-0.2,0c0,0,0-0.1,0-0.1c-3.4-19-10.3-56-19.8-100.3v-0.1l-0.1-0.5
		c-8.9-41.8-18.1-80.5-27.3-115.1L412,447v1.6c-5-17.2-10.1-33.8-15.5-49.5c4.7,9.3,10.8,22.7,17.2,40.2c1.4,4,2.8,7.9,4.2,11.7
		c1.3,3.7,2.6,7.3,3.9,10.9c4.9,13.8,10.3,28.1,17.4,42.1c0,0.3,0.1,0.5,0.1,0.8c1.8,7.4,8.2,37.8,15.6,73
		c9.4,44.8,20.1,95.2,25,116.8L479.4,694.9z M442.7,427.8c0.1,0.1,0.2,0.3,0.3,0.4c0.2,0.2,0.4,0.4,0.5,0.6
		c52.9,62.4,85,121,94.2,138.8c-13.7,1.2-31.5-3.2-48.3-15.2c-4-2.9-8-6.3-12.1-10.4c-2.5-2.6-6.7-7.2-11.4-13.2c-3-4-5.8-8-8.3-12
		c0-0.1-0.1-0.1-0.1-0.2c-0.9-1.5-1.8-2.9-2.7-4.4c-0.5-0.8-1-1.6-1.4-2.4c-0.5-0.9-1-1.7-1.4-2.6c-0.5-0.9-1-1.9-1.5-2.8
		c-0.5-1-1-1.9-1.5-2.9c-0.2-0.3-0.3-0.6-0.5-0.9c-6.7-13.2-12-27-17.3-41.7c-1.8-5.1-3.5-10.1-5.2-14.9
		c-7.8-22.8-15.1-44.4-26.9-61.1c0.3-0.2,0.7-0.5,1-0.7c5.8,5.7,11.5,11.5,17,17.3C424.5,407.1,433.2,416.7,442.7,427.8z
		 M436.6,405.6c68.2,53.1,120.1,128.8,132.4,147.5c-5,3.1-10.1,6.2-15.4,9.1l-5.7,2.6c-5.1-11.1-19.5-39-53.7-87.3
		c-15.5-21.9-31.1-41.3-44.9-57.4C445.2,415.3,440.9,410.4,436.6,405.6z M464.7,575.9c-3.5-16.6-6.8-32.2-9.5-44.8
		c0.8,1,1.5,2,2.3,3c0.2,0.3,0.5,0.6,0.7,1c1.3,1.7,2.7,3.4,4,5c0.1,0.2,0.3,0.3,0.4,0.5c2.9,3.6,6,6.9,9.1,9.9l31.5,136.3
		c-3.6,0.9-6.7,1.9-9.3,2.7c-1.5,0.5-3,1-4.5,1.5C484.3,668.8,474,619.7,464.7,575.9z M484.5,561.2c8.3,6,17.2,10.4,26.5,13.3
		c9.2,2.9,17.4,3.7,23.6,3.7c6.3,18.5,17,72.6,21.7,96.1c0.6,3.2,1.2,6,1.6,8.2c-5.5,0.4-11.4,0.7-17.9,0.6
		c-9.8-0.2-18.8,0.6-26.9,1.9L484.5,561.2z M544.8,577.3c1.1-0.2,2-0.7,2.9-1.3c0.7-0.2,1.5-0.5,2.5-0.9c0.7-0.2,1.4-0.5,2.1-0.8
		c0.3-0.1,0.5-0.3,0.8-0.4c0.8-0.4,1.6-0.8,2.5-1.2c5.1,15.2,19.2,59.6,26.4,105l-14.3,3.2c-0.5-2.2-1-5.1-1.7-8.6
		C561.1,647.6,551.3,598.2,544.8,577.3z M564.6,567.8c3-1.8,6.5-4,10.5-6.6c4.8,15.5,22.8,74.8,26.3,108.9c-1.9,1.1-5,2.9-9.7,4.8
		C584,627.4,569.1,581.3,564.6,567.8z M404.6,371.7v-5.1c9.9,4.6,29.8,14.8,55.4,32.9c33.6,23.7,84,66.2,134.6,134.5l-17.4,13.4
		C562.2,524.6,492.1,422.9,404.6,371.7z M491.4,264.4c9-6.4,17.4-12.5,25.6-18.3c27-19.5,55-39.6,62-40.3l12.6,9.9
		c-7,3.2-20.9,10.3-57.2,33.9c-63.7,41.3-72.3,46.9-119,86.1l-3.5,0.6c-2.7,0.4-5,0.7-6.9,1C416.3,325.8,447.4,295.6,491.4,264.4z
		 M416.7,312.1c12-19.1,31.5-44.7,59.7-66.2c11.9-9.1,21.5-16.7,29.9-23.5c24.9-19.9,35-27.9,47-27.9c2,0,4.1,0.2,6.4,0.7
		c2,0.4,5.1,1.7,9,3.9c-11.1,5.5-28.5,17.9-57.6,38.8c-8.1,5.9-16.6,11.9-25.5,18.3C456.4,277,432.8,297.3,416.7,312.1z
		 M513.5,343.9c8.4,0.6,15.8,1.3,21.3,1.9c9.2,1.2,18.6,2.7,28.1,4.7c36.3,7.7,64,15.3,64.5,15.5l1.3,0.4l14.1,4
		c21.6,6.7,38.3,13.5,49.6,20.1c3.1,1.8,4.9,4.3,5.4,7.4c1.1,5.5-1.9,12.9-7.8,19.9c-0.7,0.8-1.4,1.8-2.3,3
		c-19.8-13.7-103.3-66.6-224.9-77.8c4.4-0.1,8.9-0.2,13.8-0.3c1.1,0,2.2,0,3.3,0l19.1,0.4c4.8,0.2,9.4,0.5,13.8,0.8v0.1L513.5,343.9
		z M582.7,344.4c11-0.7,23.5-1.3,36.2-1.9c24.5-0.5,46.6-0.3,58-0.2c-1,1.1-2.3,2.4-3.8,3.7c-0.2,0.2-0.4,0.3-0.6,0.5
		c-0.1,0.1-0.2,0.2-0.3,0.3c-0.3,0.2-0.6,0.4-0.9,0.7c-0.1,0.1-0.2,0.1-0.3,0.2c-0.8,0.6-1.7,1.2-2.7,1.8c-0.1,0.1-0.2,0.1-0.3,0.2
		c-0.4,0.2-0.8,0.5-1.2,0.7c-5.5,3.3-13.1,6.6-23.7,9.6C625.9,354.6,605.7,349.5,582.7,344.4z M616.9,332.7
		c-19.1,0.4-39.6,1.3-57.5,2.8c14.3-2.9,89.7-22.9,111.3-28.7c4.2,8.4,7.4,17,9,25.4C662.7,331.3,639.4,331.7,616.9,332.7z
		 M556.7,325.9c-16.3,3-27.9,5.2-34.7,6.5c-2.7,0.5-4.2,0.8-5,1c-0.1,0-0.3,0.1-0.4,0.1l-6.3-0.1c-8.9-0.6-17.6-1-25.8-1.2
		c12.1-4,30.2-9.5,57.4-16.4c59.7-15.2,100.3-30.6,112.4-35.4l5.3,7.5c1.1,1.6,2.2,3.2,3.2,4.9l3,5.1
		C643.3,303.9,567.4,323.9,556.7,325.9z M539.4,306.1c-59.7,15.2-77.4,23.6-82.2,26.3c-8.9,0.3-17,0.9-24.1,1.5
		c36.8-30.6,49-38.5,106.7-75.9c43.1-27.9,53.6-32.3,59.2-34.6c0.6-0.3,1.2-0.5,1.8-0.7c7.7,6.6,15.9,14.3,24.3,22.9
		c6.6,6.9,15,16,23.1,26.4C633.9,277.6,595.2,291.9,539.4,306.1z M682.4,429.3l-10.9,17.4c-62.6-46.2-132.4-68.3-180.2-78.8
		c-40.4-8.8-71.6-11-84.8-11.6c-0.7-0.3-1.3-0.6-1.8-0.8v-4.4C555.5,347.2,661.1,414.5,682.4,429.3z M465.4,391
		c-13.9-9.8-26-17.3-35.9-22.9c15.5,1.6,36.2,4.5,59.9,9.6c47,10.3,115.5,32.1,176.7,77.4c-14,21-34.6,47.9-63.6,72.9
		C551,458.5,499.6,415.2,465.4,391z M680,452.5h1529.5v20.9H665.9C671.3,465.9,676,458.8,680,452.5z M686.3,442.5
		c0.5-0.8,1-1.6,1.5-2.4c0.2-0.3,0.4-0.6,0.5-0.9c0.2-0.3,0.3-0.5,0.5-0.8c0.2-0.4,0.5-0.8,0.7-1.2c1.2-2,2.3-3.8,3.4-5.5
		c0,0,0,0,0,0c0.7-1.1,1.3-2,1.9-2.9c0,0,0.1-0.1,0.1-0.1c0.3-0.4,0.5-0.8,0.8-1.2c0-0.1,0.1-0.1,0.1-0.2c0.2-0.4,0.5-0.7,0.7-1
		c0,0,0.1-0.1,0.1-0.1c0.2-0.3,0.4-0.6,0.6-0.9c0,0,0,0,0,0h1512.4v17.2H686.3z M704,415.2c3.5-6.6,4.8-13.1,3.8-19
		c-1-6-4.6-11-10.2-14.3c-9.7-5.7-22.4-11.3-38.4-16.8c4.4-1.7,8.2-3.5,11.4-5.4h1538.9v55.5H704z M683.8,349.7
		c0.1-0.1,0.2-0.2,0.3-0.3c2.4-2.6,4-5,5-7c0,0,0,0,0-0.1c0.1-0.2,0.2-0.5,0.3-0.7c0,0,0,0,0-0.1l0.3-0.6l0.8-4.7v0v0l0-0.1
		l-0.1-0.6c-0.1-1-0.3-2.1-0.4-3.1h1519.5v17.2H683.8z M687.7,322.5c-1.9-6.5-4.6-13.4-8.2-20.5h1530v20.5H687.7z M2209.6,10v282
		H674.1c-12.6-21.6-29.8-41-41.8-53.4c-15.9-16.3-33.4-31.3-47.7-41.2l-0.2-0.2l-0.2-0.1c-0.2-0.2-0.5-0.3-0.7-0.4
		c-9.1-6.2-16.8-10.3-21.8-11.3c-19.9-4-31.2,5.1-61.5,29.2c-6,4.8-12.5,10-20.1,15.8V10H2209.6z M470.2,10v227.9
		c-7.6,5.8-14.5,11.9-20.9,18V10H470.2z M439.2,10v256.1c-6.5,6.9-12.2,13.8-17.2,20.4V10H439.2z M412,10v290.5
		c-9.3,14-15.2,25.5-18.1,31.7c-1.3-0.4-2.6-0.5-3.9-0.5h-11.3c-1.3,0-2.6,0.2-3.9,0.5c-2.9-6.2-8.9-17.9-18.3-32V10H412z
		 M394.7,346.3v25.2c0,1.6-0.8,3-2,3.8c-0.4,0.2-0.8,0.4-1.3,0.6c-0.4,0.1-0.8,0.2-1.3,0.2h-11.3c-0.4,0-0.9-0.1-1.3-0.2
		c-0.5-0.2-0.9-0.4-1.3-0.6c-1.2-0.8-2-2.2-2-3.8v-5.4v-14.5v-5.4c0-2.5,2-4.6,4.6-4.6h0l11.3,0.1c1.2,0,2.3,0.5,3.2,1.3
		c0.8,0.8,1.3,2,1.3,3.2h0.1C394.7,346.3,394.7,346.3,394.7,346.3z M348.1,480.6c-0.3,1-0.5,1.9-0.8,2.9c-0.2,0.7-0.4,1.4-0.6,2.2
		c-0.2,0.9-0.5,1.7-0.7,2.6C321.7,581,304.3,676,300,700.2c0,0,0,0,0,0c0,0,0,0,0,0.1c0,0,0,0,0,0c0,0-0.1,0-0.1,0c0,0,0,0,0,0
		c0,0,0,0-0.1,0c-1.1-0.7-2.3-1.3-3.6-2l-7.2-3.8c5-21.7,15.6-71.9,24.9-116.5c7.4-35.2,13.8-65.6,15.6-73c0.1-0.3,0.1-0.5,0.1-0.8
		c7-14,12.5-28.3,17.4-42.1c1.3-3.6,2.6-7.2,3.9-10.9c1.4-3.8,2.8-7.8,4.2-11.7c6.4-17.6,12.6-31.1,17.3-40.4
		c-5.5,16.1-10.8,33.3-15.9,51v-1.5L348.1,480.6z M292.4,245.9L292.4,245.9c0.1,0,0.1,0.1,0.2,0.1c1.6,1.2,3.2,2.5,4.7,3.7
		c0.4,0.3,0.7,0.6,1.1,0.9c1.3,1,2.5,2.1,3.7,3.1c0.3,0.3,0.7,0.6,1,0.9c1.3,1.1,2.6,2.2,3.8,3.4c0.2,0.2,0.4,0.4,0.7,0.6
		c4.5,4.1,8.8,8.3,12.8,12.5c0.2,0.2,0.3,0.3,0.5,0.5c1.2,1.3,2.3,2.5,3.5,3.7c0.1,0.2,0.3,0.3,0.4,0.5c3.8,4.2,7.3,8.4,10.6,12.5
		c0.1,0.1,0.2,0.2,0.3,0.4c1,1.2,1.9,2.5,2.9,3.7c0.1,0.2,0.3,0.3,0.4,0.5c1,1.3,1.9,2.5,2.8,3.8c0,0,0,0.1,0.1,0.1
		c2.9,4,5.6,7.9,8,11.6c0,0.1,0.1,0.1,0.1,0.2c0.8,1.2,1.6,2.4,2.3,3.6c-16.1-14.9-39.7-35.2-68.9-55.9
		c-8.9-6.4-17.4-12.4-25.5-18.3c-29.1-20.9-46.5-33.3-57.6-38.8c3.9-2.3,7-3.6,9-4c15.3-3.1,24.1,4,53.3,27.2
		c7.6,6,16.1,12.8,26.3,20.7v0L292.4,245.9z M252,246.1c8.2,5.9,16.6,11.9,25.6,18.3c44,31.3,75,61.4,86.4,72.9
		c-1.9-0.3-4.2-0.7-7-1l-3.5-0.6c-46.7-39.2-55.3-44.8-119-86.1c-36.3-23.6-50.2-30.7-57.2-33.9l12.7-10
		C197,206.5,225,226.6,252,246.1z M325.2,429c0.2-0.2,0.4-0.5,0.6-0.7c0.1-0.1,0.2-0.2,0.3-0.3c9.5-11.2,18.2-20.7,25.5-28.4
		c5.5-5.8,11.2-11.6,17-17.3c0.3,0.3,0.7,0.5,1,0.7c-11.7,16.6-19.1,38.3-26.9,61.1c-1.7,4.8-3.4,9.8-5.2,14.8
		c-5.3,14.7-10.6,28.5-17.3,41.7c-0.1,0.3-0.3,0.6-0.4,0.9c-0.5,1-1,1.9-1.5,2.9c-0.5,0.9-1,1.8-1.5,2.8c-0.5,0.9-1,1.7-1.5,2.6
		c-0.5,0.8-0.9,1.6-1.4,2.4c-0.9,1.5-1.8,3-2.7,4.5c0,0.1-0.1,0.1-0.1,0.2c-2.6,4.1-5.3,8.1-8.3,12.1c-4.7,6-8.9,10.6-11.4,13.2
		c-4,4-8.1,7.5-12.1,10.4c-16.8,12-34.6,16.4-48.3,15.2C240.2,550,272.3,491.4,325.2,429z M221,564.8l-5.7-2.6
		c-5.3-2.9-10.4-6-15.3-9.2c12.2-18.6,64.1-94.3,132.3-147.4c-4.4,4.9-8.6,9.7-12.7,14.5c-13.8,16.1-29.4,35.5-44.9,57.4
		C240.5,525.8,226.1,553.8,221,564.8z M364.2,355.5c-0.5,0.2-1.2,0.5-1.8,0.8c-13.2,0.6-44.5,2.8-84.8,11.6
		c-47.9,10.5-117.7,32.6-180.2,78.8l-10.9-17.4c21.3-14.8,126.9-82.1,277.7-78.2V355.5z M125.9,370.4l7.8-2.1l1.3-0.4
		c0.5-0.1,34.5-9.7,70.7-17.4c9.5-2,19-3.5,28.2-4.7c5.5-0.6,12.9-1.3,21.3-1.9l0.7,0.1v-0.1c4.4-0.3,9.1-0.6,13.8-0.8l19.1-0.4
		c1.1,0,2.2,0,3.3,0c4.8,0.1,9.4,0.2,13.8,0.3C184.3,354.2,100.7,407.1,81,420.8c-0.1-0.2-0.3-0.4-0.4-0.6c0-0.1-0.1-0.1-0.1-0.1
		c0,0,0,0,0,0c-0.1-0.1-0.2-0.2-0.2-0.3c-0.2-0.3-0.4-0.5-0.6-0.8c0,0,0,0,0-0.1c-0.3-0.4-0.6-0.7-0.8-1l0,0c0,0,0,0,0,0
		c-0.3-0.4-0.6-0.7-0.9-1.1l-0.2-0.2c-0.2-0.3-0.5-0.6-0.7-0.9c-4.6-6.3-7-12.8-6.1-17.7c0.2-1.1,0.5-2.2,1-3.1
		c0.9-1.6,2.4-3,4.3-4.2c9.7-5.8,24-11.9,42.5-18C121.1,371.9,123.5,371.2,125.9,370.4z M92,342.4c11.4-0.2,33.5-0.3,58,0.2
		c12.7,0.5,25.2,1.2,36.2,1.9c-23,5.1-43.2,10.2-60.5,15.5C105.9,354.4,96.5,347.4,92,342.4z M229.1,258
		c57.7,37.4,69.9,45.3,106.7,75.9c-7.2-0.6-15.3-1.2-24.1-1.5c-4.8-2.8-22.5-11.1-82.2-26.3c-55.8-14.2-94.5-28.5-108.8-34.1
		c8.1-10.4,16.4-19.5,23.1-26.4c8.4-8.6,16.6-16.3,24.3-22.9c0.6,0.2,1.1,0.5,1.8,0.7C175.5,225.7,186,230.1,229.1,258z
		 M226.9,315.7c27.2,6.9,45.3,12.3,57.4,16.4c-8.2,0.2-16.8,0.5-25.7,1.2l-6.3,0.1c-0.1,0-0.3-0.1-0.4-0.1c-0.8-0.2-2.3-0.5-5-1
		c-6.7-1.3-18.4-3.5-34.7-6.5c-10.7-2-86.5-22-109.1-28l3-5.1c1-1.7,2-3.3,3.2-4.9l5.2-7.5C126.7,285.1,167.2,300.5,226.9,315.7z
		 M209.5,335.6c-17.9-1.6-38.4-2.4-57.5-2.8c-22.5-1.1-45.8-1.5-62.8-0.6c1.6-8.4,4.8-16.9,9-25.3
		C119.8,312.7,195.2,332.6,209.5,335.6z M81.1,322.5H11V302h78.3C85.8,309.1,83,316,81.1,322.5z M78.8,332.5c0,0.1,0,0.2,0,0.3
		c-0.2,1-0.3,1.9-0.4,2.9l-0.1,0.7l0.8,4.7l0.3,0.6c0.1,0.2,0.2,0.5,0.4,0.7c0,0,0,0,0,0c1,2.1,2.7,4.6,5.2,7.3H11v-17.2H78.8z
		 M98.1,359.7c3.3,1.9,7.1,3.7,11.5,5.4c-11.1,3.8-20.7,7.7-28.7,11.6c-0.1,0-0.1,0.1-0.2,0.1c-0.6,0.3-1.1,0.6-1.7,0.8
		c-1.9,1-3.7,1.9-5.4,2.9c-0.2,0.1-0.4,0.2-0.6,0.3c-0.1,0.1-0.2,0.1-0.3,0.2c-0.5,0.3-1,0.5-1.4,0.8c-0.4,0.2-0.8,0.5-1.1,0.7
		c-5.1,3.3-8.3,8.1-9.2,13.8c-1,5.8,0.4,12.3,3.9,18.8H11v-55.5H98.1z M71.9,425.2C71.9,425.2,71.9,425.3,71.9,425.2
		c0.2,0.3,0.4,0.6,0.6,0.9c0,0.1,0.1,0.1,0.1,0.2c0.2,0.3,0.4,0.6,0.7,1c0,0.1,0.1,0.1,0.1,0.2c0.2,0.4,0.5,0.7,0.7,1.1
		c0,0.1,0.1,0.2,0.1,0.2c0.3,0.4,0.5,0.8,0.8,1.2c0,0,0.1,0.1,0.1,0.1c0.3,0.4,0.5,0.9,0.8,1.3c0.1,0.1,0.1,0.2,0.2,0.3
		c0.3,0.5,0.6,0.9,0.9,1.4c0.1,0.2,0.2,0.3,0.3,0.5c0.3,0.4,0.5,0.9,0.8,1.3c0.4,0.7,0.9,1.4,1.3,2.1c0.5,0.8,1,1.7,1.6,2.6
		c0,0,0,0,0,0c0.5,0.8,1,1.6,1.5,2.5c0.1,0.1,0.1,0.2,0.2,0.3H11v-17.2H71.9z M89,452.5c4,6.3,8.7,13.4,14.2,20.9H11v-20.9H89z
		 M102.8,455.1c61.2-45.3,129.7-67.1,176.7-77.4c23.7-5.2,44.3-8,59.9-9.6c-9.9,5.6-22.1,13.1-35.9,22.9
		c-34.2,24.2-85.6,67.5-137.1,137C137.4,503,116.8,476.1,102.8,455.1z M308.8,399.4c25.6-18.1,45.6-28.4,55.4-32.9v5v0.2
		C276.8,423,206.7,524.6,191.6,547.4L174.2,534C224.8,465.7,275.2,423.2,308.8,399.4z M193.8,561.2c4,2.6,7.4,4.8,10.5,6.6
		c-4.6,13.5-19.5,59.6-27.1,107.1c-4.7-1.9-7.9-3.7-9.6-4.8C171.1,635.9,189,576.7,193.8,561.2z M213.3,572.7
		c0.9,0.5,1.7,0.9,2.5,1.2c0.3,0.1,0.5,0.3,0.8,0.5c0.7,0.4,1.4,0.6,2.1,0.8c1,0.4,1.9,0.7,2.5,0.9c0.8,0.7,1.8,1.1,2.9,1.3
		c-6.5,20.9-16.3,70.2-21.2,94.9c-0.7,3.4-1.3,6.4-1.7,8.6l-14.3-3.2C194.1,632.3,208.2,587.9,213.3,572.7z M212.6,674.2
		c4.7-23.6,15.4-77.7,21.7-96.1c6.2,0,14.3-0.8,23.6-3.7c9.3-2.9,18.1-7.3,26.5-13.3l-28.6,123.8c-7.3-1.1-15.4-1.9-24.1-1.9
		c-0.9,0-1.9,0-2.8,0c-6.5,0.1-12.4-0.1-17.9-0.6C211.4,680.2,212,677.4,212.6,674.2z M297.1,550.5c2.6-2.6,5.2-5.3,7.7-8.3
		c0.1-0.1,0.1-0.1,0.2-0.2c0.4-0.5,0.8-1,1.2-1.4c0.1-0.2,0.3-0.3,0.4-0.5c1.4-1.6,2.7-3.3,4-5c0.2-0.3,0.5-0.7,0.7-1
		c0.8-0.9,1.5-1.9,2.3-3c-2.7,12.6-6,28.2-9.5,44.8c-9.2,43.8-19.6,92.9-24.7,115.1c-1.4-0.5-2.8-0.9-4.2-1.4
		c-2.7-0.9-5.9-1.8-9.6-2.8L297.1,550.5z M346.5,10v276.2c-5.1-6.6-10.8-13.4-17.2-20.3V10H346.5z M319.3,10v245.8
		c-6.2-6-13.1-11.9-20.5-17.6V10H319.3z M288.8,10v220.5c-7.5-5.8-14.1-11.1-20.1-15.9c-30.3-24.2-41.6-33.2-61.5-29.2
		c-5.1,1-12.8,5.1-21.8,11.3c-0.2,0.1-0.5,0.3-0.7,0.4l-0.4,0.3c-14.3,9.9-31.9,24.9-47.7,41.3c-12,12.3-29.1,31.7-41.8,53.3H10V10
		H288.8z M10,2209.6V483.4h100.8c17.8,23.1,42.1,49.3,74.5,71.8c-2.9,9.1-23.8,76-27.7,114.3c-0.4,3.5,1.3,6.8,4.2,8.7
		c7.3,4.7,28.5,15.5,67.3,14.8c16.9-0.3,31.3,2.4,42.6,5.9c3,1,5.3,1.9,7,2.5c0.9,0.3,1.6,0.6,2.1,0.8c0.1,0,0.2,0,0.3,0.1
		c2.8,1.1,5.4,2.3,7.7,3.4v1503.8H10z M298.8,2209.6V710.3c0.3,0,0.5,0,0.8,0c0.1,0,0.2,0,0.3,0c0,0,0.1,0,0.1,0c0.1,0,0.2,0,0.4,0
		c1.3-0.1,2.6-0.3,3.8-0.9c3-1.4,5.2-4.2,5.7-7.5c1.5-8.6,4.8-26.3,9.4-49.6v1557.3H298.8z M329.3,2209.6V603.5
		c5-23.5,10.8-49.4,17.2-75.8v1681.9H329.3z M356.5,2209.6V488.2c8.6-32.5,18-64.7,28-93.1c9.8,27.8,19,59.2,27.5,91.1v1723.3H356.5
		z M422,2209.6v-1684c6.4,26.3,12.2,52,17.2,75.5v1608.5H422z M449.2,2209.6V649.7c4.9,24.6,8.3,43.3,9.9,52.2
		c0.6,3.3,2.7,6.1,5.7,7.5c1.4,0.6,2.8,1,4.3,1c0.3,0,0.7,0,1-0.1v1499.2H449.2z M2209.6,2209.6H480.2V705.9
		c2.3-1.1,4.8-2.3,7.7-3.5c0.1,0,0.2,0,0.3-0.1c0.5-0.2,1.2-0.4,2.1-0.8c1.7-0.6,4.1-1.5,7.2-2.5c11.3-3.5,25.6-6.2,42.4-5.9
		c38.8,0.7,60-10.1,67.3-14.8c3-1.9,4.6-5.3,4.2-8.7c-3.9-38.3-24.8-105.2-27.7-114.3c32.4-22.5,56.8-48.8,74.6-71.9h1551.3V2209.6z
		"/>
</g>
</svg>
