<?xml version="1.0" encoding="utf-8"?>
<!-- Generator: Adobe Illustrator 27.7.0, SVG Export Plug-In . SVG Version: 6.00 Build 0)  -->
<svg version="1.1" id="레이어_1" xmlns="http://www.w3.org/2000/svg" xmlns:xlink="http://www.w3.org/1999/xlink" x="0px"
	 y="0px" width="1843.8px" height="2786.4px" viewBox="0 0 1843.8 2786.4" style="enable-background:new 0 0 1843.8 2786.4;"
	 xml:space="preserve">
<style type="text/css">
	.st0{fill:#9B6429;}
	.st1{fill:#2BAF4D;}
	.st2{fill:#FFD400;}
	.st3{opacity:5.000000e-02;enable-background:new    ;}
	.st4{fill:#DFEAE2;}
	.st5{fill:#FF0606;}
	.st6{fill:#FFFFFF;}
</style>
<g>
	<path class="st0" d="M1112.1,2769.4H738.8c-41.8,0-75.7-33.9-75.7-75.7v-651.2c0-41.8,33.9-75.7,75.7-75.7h373.3
		c41.8,0,75.7,33.9,75.7,75.7v651.2C1187.8,2735.5,1153.9,2769.4,1112.1,2769.4z"/>
	<path class="st1" d="M1683.4,2212.7H167.5c-93.8,0-147.9-106.5-92.6-182.2l266.7-365.6h-76.5c-81.7,0-128.9-92.8-80.7-158.8
		l276.4-379h-72c-66.4,0-104.7-75.4-65.6-129l521.1-714.3c31.9-43.7,96.7-44.6,129.8-1.8l552.1,714.3
		c41.2,53.4,3.2,130.8-64.2,130.8h-88.4l291.2,376.7c50.7,65.7,4,161-79,161h-92.3l280.6,363.1
		C1832.3,2103.3,1778.6,2212.7,1683.4,2212.7z"/>
	<path class="st2" d="M925.8,23.7l55.9,126.4c1.6,3.7,4.9,6.5,8.8,7.5l135.4,36.8c11.3,3.1,13.5,18.1,3.6,24.4l-97.4,60.9
		c-5.5,3.4-7.8,10.3-5.4,16.4l41,103.1c4.6,11.5-7.5,22.5-18.5,17l-128.5-64.3c-3.9-1.9-8.4-1.9-12.3,0.1l-137.2,72.5
		c-11.1,5.9-23.5-5.4-18.7-17l44.6-107.9c2.5-6.1,0.2-13.2-5.5-16.6L676,213.4c-10.4-6.3-7.8-22.1,4.1-24.6l146.7-31.4
		c3.9-0.8,7.3-3.4,9.1-7L901.6,23C906.8,13,921.3,13.4,925.8,23.7z"/>
	<path class="st3" d="M913,20.4l-12.9,198.5l-67.3-64.8l70.9-136.3C906.1,13.1,913.3,15.1,913,20.4z M1131.1,195.3l-146.3-38.7
		L900,218.9l230.3-15.8C1134.9,202.8,1135.5,196.4,1131.1,195.3z M1071.2,407.9l-43.9-125.2l-127.2-63.8l163.2,193.6
		C1066.6,416.4,1072.9,412.8,1071.2,407.9z M764,427.5l148-76.4l-11.9-132.2L755.4,417.4C751.1,423.2,757.6,430.8,764,427.5z
		 M668.6,208.3l130.5,77.9l101-67.3l-228.6-19.4C666.4,199,664.2,205.7,668.6,208.3z"/>
	<path class="st4" d="M395.6,963.2c32-14.2,59.8,0.5,129.9-6.6c79.1-8,82.5,25.2,152.1,5.7s115.3,20.4,166.1,0.9
		c50.8-19.6,111.1,21.3,175.1,1.8c64-19.6,126.2,3.6,184.6-6.2c58.4-9.7,81,16.8,152.5,6.2c71.6-10.7,55.6-9.5,125.1-2.3
		c51.8,5.3,70.9,26.3,77.3,72.5c6.5,47.5-7.5,89.4-49.9,96.9c-41.6,7.4-129.9-5-171.4,3.6c-41.4,8.5-103.6,7.1-188.3,8.6
		c-84.7,1.5-111.1-17.1-169.5-5s-107.3-1.8-165.7-0.1c-58.4,1.7-118.6-15.9-209-3.9c-90.4,12.1-65-8.5-160.1-1.4
		s-68.8-10.1-111.2-13.7s-49.9-36.1-61.2-66.3c-11.3-30.2,25.8-69.3,25.8-69.3C328.8,952.5,363.6,977.4,395.6,963.2z M217.5,1505.5
		c-31.1-1.6-60.5,15-74.8,42.7c-8.4,16.2-15.1,36.1-8.5,51.2c13.3,30.2,3.5,56,67.8,59.6c49.8,2.8,47.5,25.8,159.2,18.7
		s81.8,13.5,188,1.4c106.1-12.1,176.9,5.6,245.5,3.9s126.1,12.2,194.6,0.1c68.6-12.1,99.5,6.5,199,5s172.5-0.1,221.1-8.6
		c48.7-8.5,152.3,3.8,201.2-3.6c49.8-7.5,114-22.8,101.7-96.9c-12.2-73.9-47.5-64.9-108.4-70.2c-81.6-7.2-88.5-10.7-172.5,0
		s-110.6-15.9-179.1-6.2c-68.6,9.7-141.5-13.4-216.7,6.2s-146-21.3-205.7-1.8c-59.7,19.6-113.3-20.4-195.1-0.9s-85.8-13.7-178.6-5.7
		c-82.3,7.1-115-7.7-152.6,6.6C281.5,1515.3,248.4,1507,217.5,1505.5z M111.8,2047.5c-29.4-0.4-56.8,14.7-72.1,39.9
		c-10.5,17.2-19.9,39.5-11.8,55.6c15.1,30.2,20.5,56,77,59.6s54,25.8,180.7,18.7s92.9,13.5,213.3,1.4
		c120.5-12.1,200.8,5.6,278.6,3.9c77.8-1.7,143.1,12.2,220.9,0.1s112.9,6.5,225.9,5c112.9-1.5,195.8-0.1,251-8.6
		s172.9,3.8,228.4-3.6c56.5-7.5,115.6-36.2,115.5-96.9c-0.1-37.2-12-60.8-45.8-71.4c-17.6-5.5-53.6,3-77.2,1.2
		c-92.6-7.2-100.4-10.7-195.8,0s-125.5-15.9-203.3-6.2c-77.8,9.7-160.6-13.4-246,6.2c-85.3,19.6-165.6-21.3-233.4-1.8
		c-67.8,19.6-128.5-20.4-221.4-0.9c-92.9,19.6-97.3-13.7-202.8-5.7c-93.5,7.1-130.5-7.7-173.2,6.6
		C192.4,2059.9,149.6,2048,111.8,2047.5z M659,1307.1h-44.1l31.2-31.2c3.5-3.5,3.5-9.3,0-12.8s-9.3-3.5-12.8,0l-31.2,31.2v-44.1
		c0-5-4.1-9.1-9.1-9.1s-9.1,4.1-9.1,9.1v44.1l-31.2-31.2c-3.5-3.5-9.3-3.5-12.8,0s-3.5,9.3,0,12.8l31.2,31.2H527
		c-5,0-9.1,4.1-9.1,9.1s4.1,9.1,9.1,9.1h44l-31.2,31.2c-3.5,3.5-3.5,9.3,0,12.8c1.8,1.8,4.1,2.7,6.4,2.7c2.3,0,4.7-0.9,6.4-2.7
		l31.2-31.2v44.1c0,5,4.1,9.1,9.1,9.1s9.1-4.1,9.1-9.1v-44.1l31.2,31.2c1.8,1.8,4.1,2.7,6.4,2.7c2.3,0,4.7-0.9,6.4-2.7
		c3.5-3.5,3.5-9.3,0-12.8l-31.2-31.2H659c5,0,9.1-4.1,9.1-9.1S664,1307.1,659,1307.1z M1320.6,1373.5H1303l12.4-12.4
		c1.4-1.4,1.4-3.7,0-5.1s-3.7-1.4-5.1,0l-12.4,12.4v-17.6c0-2-1.6-3.6-3.6-3.6s-3.6,1.6-3.6,3.6v17.6l-12.4-12.4
		c-1.4-1.4-3.7-1.4-5.1,0s-1.4,3.7,0,5.1l12.4,12.4H1268c-2,0-3.6,1.6-3.6,3.6s1.6,3.6,3.6,3.6h17.6l-12.4,12.4
		c-1.4,1.4-1.4,3.7,0,5.1c0.7,0.7,1.6,1.1,2.6,1.1c0.9,0,1.8-0.4,2.6-1.1l12.4-12.4v17.6c0,2,1.6,3.6,3.6,3.6s3.6-1.6,3.6-3.6v-17.6
		l12.4,12.4c0.7,0.7,1.6,1.1,2.6,1.1s1.8-0.4,2.6-1.1c1.4-1.4,1.4-3.7,0-5.1l-12.4-12.4h17.6c2,0,3.6-1.6,3.6-3.6
		C1324.3,1375.2,1322.6,1373.5,1320.6,1373.5z M1026.7,1303.5h-17.6l12.4-12.4c1.4-1.4,1.4-3.7,0-5.1s-3.7-1.4-5.1,0l-12.4,12.4
		v-17.6c0-2-1.6-3.6-3.6-3.6s-3.6,1.6-3.6,3.6v17.6l-12.4-12.4c-1.4-1.4-3.7-1.4-5.1,0c-1.4,1.4-1.4,3.7,0,5.1l12.4,12.4h-17.6
		c-2,0-3.6,1.6-3.6,3.6s1.6,3.6,3.6,3.6h17.6l-12.4,12.4c-1.4,1.4-1.4,3.7,0,5.1c0.7,0.7,1.6,1.1,2.6,1.1c0.9,0,1.8-0.4,2.6-1.1
		l12.4-12.4v17.6c0,2,1.6,3.6,3.6,3.6s3.6-1.6,3.6-3.6v-17.6l12.4,12.4c0.7,0.7,1.6,1.1,2.6,1.1c0.9,0,1.8-0.4,2.6-1.1
		c1.4-1.4,1.4-3.7,0-5.1l-12.4-12.4h17.6c2,0,3.6-1.6,3.6-3.6C1030.3,1305.1,1028.7,1303.5,1026.7,1303.5z M1154.3,1798.2h-17.6
		l12.4-12.4c1.4-1.4,1.4-3.7,0-5.1s-3.7-1.4-5.1,0l-12.4,12.4v-17.6c0-2-1.6-3.6-3.6-3.6s-3.6,1.6-3.6,3.6v17.6l-12.4-12.4
		c-1.4-1.4-3.7-1.4-5.1,0s-1.4,3.7,0,5.1l12.4,12.4h-17.6c-2,0-3.6,1.6-3.6,3.6s1.6,3.6,3.6,3.6h17.6l-12.4,12.4
		c-1.4,1.4-1.4,3.7,0,5.1c0.7,0.7,1.6,1.1,2.6,1.1s1.8-0.4,2.6-1.1l12.4-12.4v17.6c0,2,1.6,3.6,3.6,3.6s3.6-1.6,3.6-3.6v-17.6
		l12.4,12.4c0.7,0.7,1.6,1.1,2.6,1.1c0.9,0,1.8-0.4,2.6-1.1c1.4-1.4,1.4-3.7,0-5.1l-12.4-12.4h17.6c2,0,3.6-1.6,3.6-3.6
		C1157.9,1799.8,1156.3,1798.2,1154.3,1798.2z M699.1,821.3H676l16.3-16.3c1.9-1.9,1.9-4.9,0-6.7c-1.9-1.9-4.9-1.9-6.7,0l-16.3,16.3
		v-23.1c0-2.6-2.1-4.7-4.7-4.7s-4.7,2.1-4.7,4.7v23.1l-16.3-16.3c-1.9-1.9-4.9-1.9-6.7,0c-1.9,1.9-1.9,4.9,0,6.7l16.3,16.3h-23.1
		c-2.6,0-4.7,2.1-4.7,4.7s2.1,4.7,4.7,4.7h23.1L636.9,847c-1.9,1.9-1.9,4.9,0,6.7c0.9,0.9,2.1,1.4,3.4,1.4c1.2,0,2.4-0.5,3.4-1.4
		l16.3-16.3v23.1c0,2.6,2.1,4.7,4.7,4.7s4.7-2.1,4.7-4.7v-23.1l16.3,16.3c0.9,0.9,2.1,1.4,3.4,1.4c1.2,0,2.4-0.5,3.4-1.4
		c1.9-1.9,1.9-4.9,0-6.7l-16.3-16.3h23.1c2.6,0,4.7-2.1,4.7-4.7S701.8,821.3,699.1,821.3z M1237.9,870.5h-11.2l7.9-7.9
		c0.9-0.9,0.9-2.4,0-3.2c-0.9-0.9-2.4-0.9-3.2,0l-7.9,7.9v-11.2c0-1.3-1-2.3-2.3-2.3s-2.3,1-2.3,2.3v11.2l-7.9-7.9
		c-0.9-0.9-2.4-0.9-3.2,0c-0.9,0.9-0.9,2.4,0,3.2l7.9,7.9h-11.2c-1.3,0-2.3,1-2.3,2.3s1,2.3,2.3,2.3h11.2l-7.9,7.9
		c-0.9,0.9-0.9,2.4,0,3.2c0.4,0.4,1,0.7,1.6,0.7s1.2-0.2,1.6-0.7l7.9-7.9v11.2c0,1.3,1,2.3,2.3,2.3s2.3-1,2.3-2.3v-11.2l7.9,7.9
		c0.4,0.4,1,0.7,1.6,0.7s1.2-0.2,1.6-0.7c0.9-0.9,0.9-2.4,0-3.2l-7.9-7.9h11.2c1.3,0,2.3-1,2.3-2.3
		C1240.2,871.6,1239.2,870.5,1237.9,870.5z M863.6,731.1h-11.2l7.9-7.9c0.9-0.9,0.9-2.4,0-3.2c-0.9-0.9-2.4-0.9-3.2,0l-7.9,7.9
		v-11.2c0-1.3-1-2.3-2.3-2.3s-2.3,1-2.3,2.3v11.2l-7.9-7.9c-0.9-0.9-2.4-0.9-3.2,0c-0.9,0.9-0.9,2.4,0,3.2l7.9,7.9h-11.2
		c-1.3,0-2.3,1-2.3,2.3s1,2.3,2.3,2.3h11.2l-7.9,7.9c-0.9,0.9-0.9,2.4,0,3.2c0.4,0.4,1,0.7,1.6,0.7s1.2-0.2,1.6-0.7l7.9-7.9v11.2
		c0,1.3,1,2.3,2.3,2.3s2.3-1,2.3-2.3V739l7.9,7.9c0.4,0.4,1,0.7,1.6,0.7s1.2-0.2,1.6-0.7c0.9-0.9,0.9-2.4,0-3.2l-7.9-7.9h11.2
		c1.3,0,2.3-1,2.3-2.3C865.9,732.2,864.8,731.1,863.6,731.1z M900,1422.3h-11.2l7.9-7.9c0.9-0.9,0.9-2.4,0-3.2
		c-0.9-0.9-2.4-0.9-3.2,0l-7.9,7.9v-11.2c0-1.3-1-2.3-2.3-2.3s-2.3,1-2.3,2.3v11.2l-7.9-7.9c-0.9-0.9-2.4-0.9-3.2,0s-0.9,2.4,0,3.2
		l7.9,7.9h-11.2c-1.3,0-2.3,1-2.3,2.3s1,2.3,2.3,2.3h11.2l-7.9,7.9c-0.9,0.9-0.9,2.4,0,3.2c0.4,0.4,1,0.7,1.6,0.7s1.2-0.2,1.6-0.7
		l7.9-7.9v11.2c0,1.3,1,2.3,2.3,2.3s2.3-1,2.3-2.3v-11.2l7.9,7.9c0.4,0.4,1,0.7,1.6,0.7s1.2-0.2,1.6-0.7c0.9-0.9,0.9-2.4,0-3.2
		l-7.9-7.9H900c1.3,0,2.3-1,2.3-2.3C902.3,1423.4,901.2,1422.3,900,1422.3z M817.4,1743.7h-11.2l7.9-7.9c0.9-0.9,0.9-2.4,0-3.2
		c-0.9-0.9-2.4-0.9-3.2,0l-7.9,7.9v-11.2c0-1.3-1-2.3-2.3-2.3s-2.3,1-2.3,2.3v11.2l-7.9-7.9c-0.9-0.9-2.4-0.9-3.2,0
		c-0.9,0.9-0.9,2.4,0,3.2l7.9,7.9H784c-1.3,0-2.3,1-2.3,2.3s1,2.3,2.3,2.3h11.2l-7.9,7.9c-0.9,0.9-0.9,2.4,0,3.2
		c0.4,0.4,1,0.7,1.6,0.7s1.2-0.2,1.6-0.7l7.9-7.9v11.2c0,1.3,1,2.3,2.3,2.3s2.3-1,2.3-2.3v-11.2l7.9,7.9c0.4,0.4,1,0.7,1.6,0.7
		s1.2-0.2,1.6-0.7c0.9-0.9,0.9-2.4,0-3.2l-7.9-7.9h11.2c1.3,0,2.3-1,2.3-2.3C819.7,1744.7,818.6,1743.7,817.4,1743.7z M435.5,1927.9
		h-30.6l21.7-21.7c2.5-2.5,2.5-6.5,0-8.9c-2.5-2.5-6.5-2.5-8.9,0L396,1919v-30.6c0-3.5-2.8-6.3-6.3-6.3s-6.3,2.8-6.3,6.3v30.6
		l-21.7-21.7c-2.5-2.5-6.5-2.5-8.9,0c-2.5,2.5-2.5,6.5,0,8.9l21.7,21.7h-30.6c-3.5,0-6.3,2.8-6.3,6.3s2.8,6.3,6.3,6.3h30.6
		l-21.7,21.7c-2.5,2.5-2.5,6.5,0,8.9c1.2,1.2,2.8,1.8,4.5,1.8c1.6,0,3.2-0.6,4.5-1.8l21.7-21.7v30.6c0,3.5,2.8,6.3,6.3,6.3
		s6.3-2.8,6.3-6.3v-30.6l21.7,21.7c1.2,1.2,2.8,1.8,4.5,1.8c1.6,0,3.2-0.6,4.5-1.8c2.5-2.5,2.5-6.5,0-8.9l-21.7-21.7h30.6
		c3.5,0,6.3-2.8,6.3-6.3C441.8,1930.8,439,1927.9,435.5,1927.9z M1017.4,467.2h-17.6l12.4-12.4c1.4-1.4,1.4-3.7,0-5.1
		s-3.7-1.4-5.1,0l-12.4,12.4v-17.6c0-2-1.6-3.6-3.6-3.6s-3.6,1.6-3.6,3.6v17.6l-12.4-12.4c-1.4-1.4-3.7-1.4-5.1,0
		c-1.4,1.4-1.4,3.7,0,5.1l12.4,12.4h-17.6c-2,0-3.6,1.6-3.6,3.6s1.6,3.6,3.6,3.6h17.6L970,486.8c-1.4,1.4-1.4,3.7,0,5.1
		c0.7,0.7,1.6,1.1,2.6,1.1c0.9,0,1.8-0.4,2.6-1.1l12.4-12.4v17.6c0,2,1.6,3.6,3.6,3.6s3.6-1.6,3.6-3.6v-17.6l12.4,12.4
		c0.7,0.7,1.6,1.1,2.6,1.1c0.9,0,1.8-0.4,2.6-1.1c1.4-1.4,1.4-3.7,0-5.1l-12.4-12.4h17.6c2,0,3.6-1.6,3.6-3.6
		C1021,468.8,1019.4,467.2,1017.4,467.2z M1429,1803.1h-35.1l24.8-24.8c2.8-2.8,2.8-7.4,0-10.2c-2.8-2.8-7.4-2.8-10.2,0l-24.8,24.8
		v-35.1c0-4-3.2-7.2-7.2-7.2s-7.2,3.2-7.2,7.2v35.1l-24.8-24.8c-2.8-2.8-7.4-2.8-10.2,0c-2.8,2.8-2.8,7.4,0,10.2l24.8,24.8H1324
		c-4,0-7.2,3.2-7.2,7.2s3.2,7.2,7.2,7.2h35.1l-24.8,24.8c-2.8,2.8-2.8,7.4,0,10.2c1.4,1.4,3.3,2.1,5.1,2.1c1.9,0,3.7-0.7,5.1-2.1
		l24.8-24.8v35.1c0,4,3.2,7.2,7.2,7.2s7.2-3.2,7.2-7.2v-35.1l24.8,24.8c1.4,1.4,3.3,2.1,5.1,2.1c1.9,0,3.7-0.7,5.1-2.1
		c2.8-2.8,2.8-7.4,0-10.2l-24.8-24.8h35.1c4,0,7.2-3.2,7.2-7.2S1433,1803.1,1429,1803.1z M1168.6,800.5h-35.1l24.8-24.8
		c2.8-2.8,2.8-7.4,0-10.2s-7.4-2.8-10.2,0l-24.8,24.8v-35.1c0-4-3.2-7.2-7.2-7.2s-7.2,3.2-7.2,7.2v35.1l-24.8-24.8
		c-2.8-2.8-7.4-2.8-10.2,0c-2.8,2.8-2.8,7.4,0,10.2l24.8,24.8h-35.1c-4,0-7.2,3.2-7.2,7.2s3.2,7.2,7.2,7.2h35.1l-24.8,24.8
		c-2.8,2.8-2.8,7.4,0,10.2c1.4,1.4,3.3,2.1,5.1,2.1c1.8,0,3.7-0.7,5.1-2.1l24.8-24.8v35.1c0,4,3.2,7.2,7.2,7.2s7.2-3.2,7.2-7.2
		v-35.1l24.8,24.8c1.4,1.4,3.3,2.1,5.1,2.1c1.8,0,3.7-0.7,5.1-2.1c2.8-2.8,2.8-7.4,0-10.2l-24.8-24.8h35.1c4,0,7.2-3.2,7.2-7.2
		C1175.8,803.8,1172.6,800.5,1168.6,800.5z"/>
	<path d="M1799.7,2053c-4.3-11-10.2-21.5-17.7-31.2l-0.7-0.9c4-4,5.9-8.1,6.8-11.5c3.7-13.8-5.7-27.5-23.4-34
		c-6.3-2.3-14.3-4.6-23.8-6.7l-217.3-281.1c34.3,1,66.2,1.5,88.6-1.9c36.7-5.5,77-15.1,97.9-43.8c12.3-17,16.4-38.7,12.2-64.6
		c-5.5-33.4-15.9-53.2-33.7-64.2c-2.7-1.6-5.4-3-8.3-4.2c-2.3-3.8-4.8-7.5-7.5-11.1l-100.4-129.9c10-16.5,8-30.2,4.3-39.2
		c-8.2-19.7-32.6-36.7-74.3-51.4l-104-134.6c8.9,0.2,18.1,0.5,27.1,0.8c32.7,1.1,63.7,2.2,84.9-1.6c43.9-7.8,66.1-49.2,58-108.1
		c-5.9-43.2-23.3-66.3-59.4-76.3l-146.5-189.6c2.5-1.8,4.3-3.9,5.5-5.7c5.7-8.4,4.2-17.7,3.5-20.8c-3.7-25.7-30.9-43.4-74.5-58.2
		l-218.5-282.7c-0.3-1.7-0.7-3.4-1.4-5l-41-103.2c-0.6-1.5,0-3.3,1.4-4.2l97.4-60.9c8-5,12.1-13.9,10.8-23.3s-7.9-16.7-17-19.2
		L993.1,148c-1-0.3-1.8-1-2.2-1.9L935,19.7c-3.7-8.3-11.6-13.7-20.7-13.9c-9.1-0.3-17.3,4.6-21.5,12.7l-65.7,127.3
		c-0.5,0.9-1.3,1.6-2.3,1.8L678,179c-9.5,2-16.6,9.5-18.2,19s2.7,18.9,11,23.9l115.6,69.6c1.5,0.9,2,2.7,1.4,4.2l-44.6,107.9
		c-0.4,1-0.8,2.1-1,3.1l-20.3,27.8c-5.2,0.2-12,0.6-19.1,1.6c-22.7,3.1-36,10.1-40.4,21.3c-6.3,15.8,8.2,30.8,15.5,37.5l-265,363.3
		c-36.1,6.1-55.9,17.4-60.5,34.4c-3.8,14,4.2,26.5,10.7,33.8l-22.3,30.5c-16.4,0.2-33.7,3.6-50,20.5v0.1
		c-1.7,1.8-41.2,44.1-27.9,79.7c1,2.8,2,5.6,3,8.4c10.2,28.4,21.8,60.7,66.6,64.4c13.4,1.1,18.6,3.6,24.5,6.4
		c12.1,5.8,23.6,11.4,78.8,7.9L176.3,1500c-1.1,1.6-2.2,3.2-3.3,4.8c-16.5,8.3-30.4,21.6-39.2,38.6c-12.6,24.3-15.5,44.4-8.7,59.8
		c2.6,5.8,4.2,11.6,5.8,17.3c3.3,11.4,6.6,23.2,17.2,32.4c11,9.5,27.5,14.4,53.4,15.9c16.5,0.9,26.7,4.2,38.5,7.9
		c7.9,2.5,16.1,5.2,26.7,7.3c-2.7,2.5-4.6,5.3-5.6,8.6c-3.6,11.2,2.8,23.1,20.6,37.4L66.8,2024.6c-8.4,11.5-14.7,24.1-18.7,37.2
		c-6.5,5.9-12.2,12.7-16.9,20.4C14.8,2109,10.7,2131,19,2147.5c1.6,3.2,3.1,6.4,4.6,9.5c12.6,26.8,24.5,52,80.7,55.6
		c18.7,1.2,30.2,4.4,43.5,8.2c25.4,7.1,54.2,15.2,138.4,10.5c59.8-3.4,83.5-0.4,104.4,2.1c23.4,2.9,45.5,5.6,109.4-0.8
		c59.3-5.9,109-4.6,153.3-1.9v463c0,47.2,38.4,85.7,85.7,85.7h373.3c47.2,0,85.7-38.4,85.7-85.7v-452.1c4.3,0.1,8.7,0.1,13.3,0.1
		c4.3,0,8.7,0,13.2-0.1c23.3-0.3,45.1-0.5,66.2-0.7c79.2-0.7,141.7-1.2,186.2-8.1c27.6-4.2,72.6-3.1,116.2-2
		c43.3,1.1,84.2,2.1,111.9-1.5c23.1-3.1,56.4-10.8,83.5-30.3c26.7-19.2,40.7-45.6,40.7-76.5C1829,2100.4,1825.4,2071.3,1799.7,2053z
		 M1768.8,2004.2c0,0.1-0.1,0.2-0.1,0.3l-6.5-8.4C1767,1998.9,1769.3,2002.1,1768.8,2004.2z M336.5,1688.7
		c7.8-0.2,16.2-0.6,25.3-1.2c52.5-3.3,73.2-0.4,91.5,2.1c20.8,2.9,40.4,5.7,96.9-0.8c65.8-7.5,118.3-3.3,164.6,0.3
		c27.8,2.2,54,4.3,80,3.6c25.6-0.6,50,1,73.6,2.5c40.5,2.7,78.8,5.2,122.5-2.5c36.9-6.5,62.7-3.8,95.4-0.3c24.5,2.6,52,5.5,90.3,5.5
		c3.8,0,7.7,0,11.7-0.1c20.6-0.3,39.7-0.5,58.3-0.7c69.8-0.7,125-1.2,164.4-8.1c20.8-3.6,53.4-3.3,86.6-2.4l213.4,276.1
		c-68.7-11.6-182.2-21.3-316.7-32.9c-180.7-15.5-405.5-34.9-606.8-66.2c-234.9-36.5-391-81.6-477.5-137.9c-0.2-0.1-0.3-0.2-0.5-0.3
		L336.5,1688.7z M1558.1,1336.4c1.3,3.2,2.5,7.7,0.5,13.8l-31.3-40.5C1548.2,1320.6,1555.6,1330.3,1558.1,1336.4z M1372.9,1142.6
		l96.2,124.5c-47.6-13-100.5-21.1-136.5-25.7c-33.2-4.2-66-9.1-97.6-14.7c-130.5-23.1-241.4-48.1-335.3-73.3
		c26,1.6,52.9,1.7,81.8-4.3c31-6.4,52.8-3.7,80.4-0.3c21,2.6,44.5,5.6,77.2,5.6c3.2,0,6.6,0,10-0.1c17.5-0.3,33.8-0.5,49.6-0.7
		c59.6-0.7,106.7-1.2,140.5-8.1C1348.2,1143.6,1359.9,1142.8,1372.9,1142.6z M1548.5,1036.5c2.5,17.9,6.7,77.1-41.7,85.7
		c-19.2,3.4-50.5,2.3-80.7,1.3c-33.6-1.1-68.4-2.3-90.9,2.3c-31.9,6.6-78.2,7.1-136.7,7.7c-15.8,0.2-32.2,0.4-49.8,0.7
		c-36.7,0.6-62-2.5-84.4-5.3c-15.7-2-30.3-3.8-46-3.8c-12.5,0-25.8,1.2-41,4.3c-34.8,7.2-66.2,4.8-99.5,2.2
		c-20.2-1.6-41-3.2-63.2-2.6c-123.2-37.2-210.7-73.5-270.7-103.1c-45-22.2-78.5-42.4-102.8-59.1c3.3,0.1,6.7,0.3,10.3,0.5
		c19,1,42.6,2.3,75.1-0.9c35-3.5,53.8,1.3,72,5.9c21.6,5.5,42,10.7,81.8-0.5c33.6-9.4,61.2-4.1,87.8,1.1c26.6,5.2,51.8,10,79.2-0.5
		c22.3-8.6,48.1-3.9,75.5,1.1c30,5.4,64,11.6,99,0.9c34.6-10.6,69.5-8,103.3-5.5c26.3,2,53.6,4,80-0.4c26.3-4.4,44.4-1,65.3,2.9
		c22.6,4.2,48.2,9,87,3.3c4.6-0.7,8.8-1.3,12.7-1.9c47.5-7.1,47.5-7.1,85.7-3c6.9,0.8,14.7,1.6,24.2,2.6
		c23.7,2.4,39.5,8.2,49.7,18.2C1539.7,1000.3,1545.5,1014.5,1548.5,1036.5z M377.1,941.3c3.5,3.5,8.1,7.8,14.1,12.9
		c-8.2,3.5-17,4-26.3,3.8L377.1,941.3z M389.1,924.8l304-416.8c110.9,89.8,291.3,126.5,437.4,156.1c57.5,11.7,113.3,23,154.5,36.3
		l194.8,252c-8.4-0.9-15.4-1.6-21.7-2.3c-40.3-4.4-41.2-4.4-90.8,3.1c-3.9,0.6-8.1,1.2-12.7,1.9c-35.5,5.3-58.3,1-80.4-3.1
		c-20.9-3.9-42.5-8-72.3-3c-24,4-48.9,2.1-75.2,0.2c-35.6-2.6-72.5-5.4-110.6,6.3c-30.3,9.3-60.4,3.8-89.6-1.5
		c-30.2-5.5-58.7-10.7-86.2-0.1c-22,8.5-43.4,4.3-68.2-0.5c-27.6-5.3-58.9-11.4-97-0.7c-34.7,9.7-51,5.6-71.5,0.4
		c-18.9-4.8-40.4-10.3-78.9-6.4c-31,3.1-53.7,1.9-72,0.9c-13.9-0.8-26-1.4-37.8,0.1C402,937.5,393.7,929.6,389.1,924.8z
		 M1351.7,744.6v0.6l0.3,0.8c0.2,0.9,0.5,3.4-0.6,4.9c-0.3,0.4-0.7,0.8-1.2,1.1l-29-37.5C1339.1,723.5,1350.3,733.3,1351.7,744.6z
		 M1134.5,644.6c-144.3-29.3-322.6-65.5-429.6-152.7l44.8-61.5c4.4,3.7,9.7,5.7,15.1,5.7c3.7,0,7.5-0.9,11-2.8L913,360.8
		c1-0.5,2.1-0.5,3.1,0l128.6,64.3c8.3,4.2,18.1,3.1,25.2-2.8l194,251C1227.5,663.5,1183.5,654.6,1134.5,644.6z M761.7,411.3
		l44.6-107.9c4.5-10.8,0.4-23-9.6-29l-115.6-69.6c-1.7-1-1.8-2.6-1.6-3.5c0.1-0.9,0.7-2.4,2.7-2.8L829,167
		c6.9-1.5,12.7-5.9,15.9-12.2l65.7-127.3c0.8-1.6,2.2-1.9,3-1.9h0.1c0.8,0,2.3,0.3,3,2L972.6,154c2.9,6.5,8.4,11.3,15.3,13.1
		l135.4,36.8c1.9,0.5,2.4,2,2.5,2.8s0.1,2.4-1.6,3.4l-97.4,60.9c-9.6,6-13.5,18-9.4,28.5l41,103.2c0.8,1.9-0.2,3.2-0.9,3.8
		s-2,1.5-3.8,0.5l-128.6-64.3c-6.7-3.4-14.7-3.3-21.4,0.2l-137.2,72.5c-1.8,0.9-3.1,0.2-3.9-0.5C761.8,414.4,761,413.2,761.7,411.3z
		 M681,464.9c0.8-2,6.9-6.4,24.3-8.8c0.4,0,0.7-0.1,1.1-0.1l-16.6,22.8C681.5,470.5,680.5,466,681,464.9z M371.6,898
		c0.7-2.4,4.2-9.1,23.2-15l-19.6,26.8C372.6,905.9,370.7,901.5,371.6,898z M365.7,1118.6c-6.7-3.2-14.4-6.9-31.5-8.4
		c-30.5-2.6-38.7-21.1-49.5-51.3c-1-2.9-2.1-5.7-3.1-8.6c-7.4-19.9,14.5-49.3,23.7-58.9c15.1-15.6,31.2-14.8,49.8-13.8
		c14.5,0.7,29.4,1.5,44.6-5.2c3.3-1.5,6.6-2.6,9.9-3.4c25.4,19.3,64.6,44.8,122.8,73.7c57.8,28.7,125.3,56.1,201.1,81.7
		c-36.9-3.3-78.7-5.8-130.1,1c-45.6,6.1-60.4,3.7-77.5,0.9c-16.5-2.7-35.3-5.8-82-2.3C385.7,1128.2,375.5,1123.3,365.7,1118.6z
		 M461.8,1142.8c32.4-1.6,46.8,0.8,60.8,3.1c17.9,2.9,34.8,5.7,83.3-0.8c55.7-7.4,100.2-3.3,139.5,0.3c22.9,2.1,44.5,4.1,66,3.7
		c122.5,36.8,263.7,69.5,420,97.1c32,5.6,65.1,10.7,98.6,14.9c35.5,4.5,87.5,12.5,134.1,25.2c9.6,2.6,18.2,5.3,26,7.9l160.6,207.8
		c-7.4-0.8-15.1-1.3-23.3-1.8c-7.2-0.4-14.6-0.9-22.5-1.6c-10.9-1-20.6-1.9-29.2-2.7c-56.5-5.3-71.6-6.7-145.5,2.7
		c-42.2,5.4-69.3,1-95.5-3.1c-25.4-4-49.3-7.9-83.8-3c-28.6,4.1-58,2.2-89.1,0.2c-41.5-2.6-84.5-5.4-128.7,6.2
		c-36.3,9.5-72.1,3.9-106.7-1.4c-35-5.4-68.1-10.5-99.6-0.2c-26.7,8.7-52.2,4.5-81.8-0.4c-32.1-5.3-68.4-11.3-112.5-0.7
		c-41.6,9.9-61,5.7-85.6,0.4c-22-4.8-46.9-10.2-91.6-6.3c-36.6,3.1-63.4,1.9-85,0.9c-26.7-1.2-47.8-2.2-70.3,6.3
		c-13.4,5.1-33.2,2.9-54.1,0.5c-9.2-1-18.8-2.1-28.2-2.6l0,0c-4.6-0.2-9.2-0.1-13.8,0.4L461.8,1142.8z M202.6,1648.9
		c-43.5-2.4-46.7-13.6-52.5-33.8c-1.7-6-3.6-12.8-6.7-19.8c-4.1-9.4-1.2-24.5,8.2-42.6c12.5-24,38.2-38.7,65.4-37.3
		c8.8,0.4,18,1.5,26.9,2.5c23.4,2.6,45.4,5.1,63.4-1.7c18.6-7.1,36-6.2,62.3-5c22.2,1,49.7,2.3,87.6-0.9c41.7-3.6,64,1.3,85.6,5.9
		c24.9,5.4,48.5,10.5,94.5-0.5c40.1-9.6,72.9-4.2,104.6,1c30.8,5.1,60,9.9,91.3-0.4c27-8.8,57.7-4.1,90.3,1
		c36.6,5.7,74.4,11.5,114.7,1c41.2-10.7,82.5-8.1,122.4-5.6c30.7,1.9,62.5,4,93.2-0.4c31.5-4.5,54-0.9,77.8,2.9
		c26.3,4.2,56.1,9,101.2,3.2c71.6-9.1,86.4-7.7,141.1-2.6c8.6,0.8,18.3,1.7,29.3,2.7c8.2,0.7,15.8,1.2,23.1,1.6
		c22.2,1.3,39.7,2.4,51.7,9.8c8.4,5.2,18.8,15.6,24.5,50.5c3.4,20.7,0.6,36.9-8.6,49.6c-16.6,22.8-52.2,30.9-84.7,35.8
		c-22.8,3.4-59.8,2.4-95.5,1.3c-39.3-1.1-79.9-2.3-106,2.2c-37.8,6.6-92.2,7.1-161.2,7.8c-18.6,0.2-37.8,0.4-58.4,0.7
		c-43.3,0.7-73.2-2.5-99.6-5.3c-19-2-35.7-3.8-53.7-3.8c-14.5,0-29.7,1.2-47.4,4.3c-41.3,7.3-78.4,4.9-117.7,2.3
		c-24.1-1.6-48.9-3.2-75.4-2.6c-24.9,0.6-50.7-1.4-77.9-3.6c-47.2-3.7-100.7-8-168.4-0.3c-54.1,6.1-71.6,3.7-91.9,0.8
		c-19.3-2.7-41.1-5.8-95.6-2.3c-70,4.5-93.7-3.1-114.6-9.8C233.5,1653.8,221.6,1650,202.6,1648.9z M280.1,1698.9
		c0.9-0.9,5.4-4.3,21.8-5.9c2.4-0.2,4.8-0.4,7-0.5l-15.6,21.3C282.1,1704.7,280.4,1700.1,280.1,1698.9z M83,2036.4l214.9-294.6
		c0.5,0.3,0.9,0.6,1.4,0.9c88.9,57.9,247.6,103.9,485.3,140.9c202,31.4,427.2,50.8,608.2,66.3c150.5,12.9,274.4,23.6,336.7,36.6
		l36.7,47.5c1.6,2.1,3.1,4.2,4.5,6.3c-11.3-2-25.7-0.7-40.9,0.7c-11.7,1.1-23.8,2.1-33,1.4c-12.4-1-23.4-1.9-33.1-2.7
		c-63.9-5.2-81-6.6-164.5,2.7c-48.3,5.4-79.2,1-109.1-3.2c-28.6-4-55.6-7.8-94.3-3c-32.7,4.1-66.2,2.2-101.6,0.2
		c-46.9-2.6-95.5-5.3-145.3,6.1c-41.7,9.6-82.6,4-122.1-1.4c-39.4-5.4-76.7-10.4-111.9-0.3c-30.8,8.9-60.1,4.6-94-0.3
		c-36.2-5.3-77.2-11.2-126.7-0.8c-47.7,10.1-71.2,5.6-98.3,0.4c-24.8-4.7-52.9-10.1-103.2-6.3c-41.7,3.2-72.3,1.9-96.8,0.9
		c-31.2-1.3-53.7-2.2-78.8,6.2c-15.8,5.3-38.5,2.6-62.6-0.1c-14-1.6-28.5-3.3-42.5-3.5c-11.7-0.1-23.1,2-33.8,5.9
		C79.7,2041.1,81.3,2038.7,83,2036.4z M1177.8,2693.7c0,36.2-29.5,65.7-65.7,65.7H738.8c-36.2,0-65.7-29.5-65.7-65.7V2232
		c4.7,0.3,9.4,0.6,14,1c31.5,2.2,61.2,4.3,90.6,3.6c29.1-0.6,56.9,1,83.8,2.5c45.8,2.7,89.1,5.2,138.4-2.5
		c42.3-6.6,71.7-3.8,109-0.3c20.1,1.9,41.9,3.9,68.9,4.9L1177.8,2693.7L1177.8,2693.7z M1702.2,2209.6c-26.1,3.5-68.2,2.4-108.8,1.4
		c-44.5-1.1-90.5-2.3-119.8,2.2c-43.1,6.6-105,7.2-183.3,7.8c-21.1,0.2-42.9,0.4-66.3,0.7c-49.3,0.7-83.3-2.5-113.3-5.4
		c-21.4-2-40.4-3.8-60.6-3.8c-16.3,0-33.4,1.2-53.4,4.3c-47.2,7.4-89.5,4.9-134.2,2.3c-27.2-1.6-55.4-3.2-85.4-2.6
		c-28.4,0.6-57.7-1.4-88.7-3.6c-53.5-3.7-114.1-7.9-190.6-0.3c-61.7,6.2-81.7,3.7-104.9,0.8c-21.7-2.7-46.4-5.7-108-2.3
		c-80.8,4.5-107.9-3.1-131.8-9.8c-13.8-3.9-26.9-7.6-47.7-8.9c-44.4-2.8-52.2-19.2-63.9-44.1c-1.5-3.2-3.1-6.5-4.8-9.9
		c-4.8-9.7-0.8-26,11.4-46c13.2-21.7,37.1-35.1,62.5-35.1c0.3,0,0.6,0,0.9,0c13,0.2,27,1.8,40.5,3.3c26.3,3,51.2,5.9,71.2-0.8
		c21.6-7.2,41.5-6.4,71.6-5.1c25.1,1,56.3,2.3,99.1-0.9c47.7-3.6,74.4,1.5,97.9,6c28,5.3,54.5,10.4,106.1-0.5
		c46-9.7,83.5-4.3,119.7,1c34.7,5,67.5,9.8,102.4-0.3c31.2-9,66.4-4.2,103.7,0.9c41.3,5.6,83.9,11.4,129.2,1
		c47.1-10.8,94.2-8.2,139.8-5.6c36.4,2,70.7,3.9,105.2-0.4c36.1-4.5,61.8-0.9,89.1,2.9c31.1,4.4,63.3,8.9,114.1,3.2
		c81.6-9.1,98.3-7.7,160.7-2.6c9.7,0.8,20.7,1.7,33.2,2.7c10.9,0.8,23.8-0.3,36.3-1.5c15-1.4,30.5-2.8,38.7-0.2
		c27.5,8.6,38.7,26.6,38.8,61.9C1809.1,2190.2,1727.3,2206.3,1702.2,2209.6z"/>
	<path class="st5" d="M800.3,536.4c0,20.3-16.4,36.7-36.7,36.7s-36.7-16.4-36.7-36.7s16.4-36.7,36.7-36.7
		C783.9,499.7,800.3,516.1,800.3,536.4z M954.5,574c-20.3,0-36.7,16.4-36.7,36.7s16.4,36.7,36.7,36.7s36.7-16.4,36.7-36.7
		C991.1,590.4,974.7,574,954.5,574z M446.6,937.8c-20.3,0-36.7,16.4-36.7,36.7s16.4,36.7,36.7,36.7c20.3,0,36.7-16.4,36.7-36.7
		C483.3,954.2,466.8,937.8,446.6,937.8z M629.6,1032c-20.3,0-36.7,16.4-36.7,36.7c0,20.3,16.4,36.7,36.7,36.7s36.7-16.4,36.7-36.7
		C666.2,1048.4,649.8,1032,629.6,1032z M834.6,1107.7c-20.3,0-36.7,16.4-36.7,36.7c0,20.3,16.4,36.7,36.7,36.7s36.7-16.4,36.7-36.7
		S854.8,1107.7,834.6,1107.7z M1037.1,1162.1c-20.3,0-36.7,16.4-36.7,36.7c0,20.3,16.4,36.7,36.7,36.7c20.3,0,36.7-16.4,36.7-36.7
		C1073.8,1178.5,1057.4,1162.1,1037.1,1162.1z M361.4,1722.1c-20.3,0-36.7,16.4-36.7,36.7c0,20.3,16.4,36.7,36.7,36.7
		c20.3,0,36.7-16.4,36.7-36.7C398,1738.5,381.6,1722.1,361.4,1722.1z M553.4,1786.1c-20.3,0-36.7,16.4-36.7,36.7
		c0,20.3,16.4,36.7,36.7,36.7s36.7-16.4,36.7-36.7C590,1802.5,573.6,1786.1,553.4,1786.1z M764,1831.7c-20.3,0-36.7,16.4-36.7,36.7
		s16.4,36.7,36.7,36.7s36.7-16.4,36.7-36.7S784.3,1831.7,764,1831.7z M977.3,1862.5c-20.3,0-36.7,16.4-36.7,36.7
		c0,20.3,16.4,36.7,36.7,36.7s36.7-16.4,36.7-36.7S997.6,1862.5,977.3,1862.5z M1194.5,1886.4c-20.3,0-36.7,16.4-36.7,36.7
		c0,20.3,16.4,36.7,36.7,36.7c20.3,0,36.7-16.4,36.7-36.7S1214.8,1886.4,1194.5,1886.4z M1417.1,1905.1c-20.3,0-36.7,16.4-36.7,36.7
		c0,20.3,16.4,36.7,36.7,36.7s36.7-16.4,36.7-36.7C1453.8,1921.5,1437.4,1905.1,1417.1,1905.1z M1640.2,1923.1
		c-20.3,0-36.7,16.4-36.7,36.7c0,20.3,16.4,36.7,36.7,36.7c20.3,0,36.7-16.4,36.7-36.7C1676.9,1939.5,1660.5,1923.1,1640.2,1923.1z
		 M1240.2,1203c-20.3,0-36.7,16.4-36.7,36.7c0,20.3,16.4,36.7,36.7,36.7c20.3,0,36.7-16.4,36.7-36.7
		C1276.9,1219.4,1260.5,1203,1240.2,1203z M1439.3,1233.7c-20.3,0-36.7,16.4-36.7,36.7s16.4,36.7,36.7,36.7
		c20.3,0,36.7-16.4,36.7-36.7S1459.6,1233.7,1439.3,1233.7z M1165.5,620.7c-20.3,0-36.7,16.4-36.7,36.7s16.4,36.7,36.7,36.7
		c20.3,0,36.7-16.4,36.7-36.7C1202.2,637.2,1185.8,620.7,1165.5,620.7z"/>
	<path d="M763.7,583c-25.7,0-46.7-20.9-46.7-46.7c0-25.7,20.9-46.7,46.7-46.7c25.7,0,46.7,20.9,46.7,46.7
		C810.3,562.1,789.4,583,763.7,583z M763.7,509.7c-14.7,0-26.7,12-26.7,26.7s12,26.7,26.7,26.7s26.7-12,26.7-26.7
		S778.4,509.7,763.7,509.7z M954.5,657.3c-25.7,0-46.7-20.9-46.7-46.7c0-25.7,20.9-46.7,46.7-46.7s46.7,20.9,46.7,46.7
		C1001.1,636.4,980.2,657.3,954.5,657.3z M954.5,584c-14.7,0-26.7,12-26.7,26.7s12,26.7,26.7,26.7s26.7-12,26.7-26.7
		S969.2,584,954.5,584z M446.6,1021.1c-25.7,0-46.7-20.9-46.7-46.7c0-25.7,20.9-46.7,46.7-46.7s46.7,20.9,46.7,46.7
		C493.3,1000.2,472.3,1021.1,446.6,1021.1z M446.6,947.8c-14.7,0-26.7,12-26.7,26.7s12,26.7,26.7,26.7s26.7-12,26.7-26.7
		S461.3,947.8,446.6,947.8z M629.6,1115.3c-25.7,0-46.7-20.9-46.7-46.7s20.9-46.7,46.7-46.7c25.7,0,46.7,20.9,46.7,46.7
		S655.3,1115.3,629.6,1115.3z M629.6,1042c-14.7,0-26.7,12-26.7,26.7s12,26.7,26.7,26.7s26.7-12,26.7-26.7S644.3,1042,629.6,1042z
		 M834.6,1191c-25.7,0-46.7-20.9-46.7-46.7s20.9-46.7,46.7-46.7c25.7,0,46.7,20.9,46.7,46.7S860.3,1191,834.6,1191z M834.6,1117.7
		c-14.7,0-26.7,12-26.7,26.7s12,26.7,26.7,26.7s26.7-12,26.7-26.7S849.3,1117.7,834.6,1117.7z M1037.1,1245.4
		c-25.7,0-46.7-20.9-46.7-46.7c0-25.7,20.9-46.7,46.7-46.7c25.7,0,46.7,20.9,46.7,46.7C1083.8,1224.5,1062.8,1245.4,1037.1,1245.4z
		 M1037.1,1172.1c-14.7,0-26.7,12-26.7,26.7s12,26.7,26.7,26.7c14.7,0,26.7-12,26.7-26.7S1051.8,1172.1,1037.1,1172.1z
		 M361.4,1805.4c-25.7,0-46.7-20.9-46.7-46.7c0-25.7,20.9-46.7,46.7-46.7c25.7,0,46.7,20.9,46.7,46.7
		C408,1784.5,387.1,1805.4,361.4,1805.4z M361.4,1732.1c-14.7,0-26.7,12-26.7,26.7s12,26.7,26.7,26.7s26.7-12,26.7-26.7
		S376.1,1732.1,361.4,1732.1z M553.4,1869.4c-25.7,0-46.7-20.9-46.7-46.7c0-25.7,20.9-46.7,46.7-46.7c25.7,0,46.7,20.9,46.7,46.7
		C600,1848.5,579.1,1869.4,553.4,1869.4z M553.4,1796.1c-14.7,0-26.7,12-26.7,26.7s12,26.7,26.7,26.7s26.7-12,26.7-26.7
		S568.1,1796.1,553.4,1796.1z M764,1915.1c-25.7,0-46.7-20.9-46.7-46.7s20.9-46.7,46.7-46.7c25.7,0,46.7,20.9,46.7,46.7
		S789.7,1915.1,764,1915.1z M764,1841.7c-14.7,0-26.7,12-26.7,26.7s12,26.7,26.7,26.7s26.7-12,26.7-26.7S778.7,1841.7,764,1841.7z
		 M977.3,1945.8c-25.7,0-46.7-20.9-46.7-46.7c0-25.7,20.9-46.7,46.7-46.7c25.7,0,46.7,20.9,46.7,46.7S1003.1,1945.8,977.3,1945.8z
		 M977.3,1872.5c-14.7,0-26.7,12-26.7,26.7s12,26.7,26.7,26.7s26.7-12,26.7-26.7S992,1872.5,977.3,1872.5z M1194.5,1969.7
		c-25.7,0-46.7-20.9-46.7-46.7c0-25.7,20.9-46.7,46.7-46.7s46.7,20.9,46.7,46.7C1241.2,1948.8,1220.2,1969.7,1194.5,1969.7z
		 M1194.5,1896.4c-14.7,0-26.7,12-26.7,26.7s12,26.7,26.7,26.7s26.7-12,26.7-26.7S1209.2,1896.4,1194.5,1896.4z M1417.1,1988.4
		c-25.7,0-46.7-20.9-46.7-46.7c0-25.7,20.9-46.7,46.7-46.7c25.7,0,46.7,20.9,46.7,46.7C1463.8,1967.5,1442.8,1988.4,1417.1,1988.4z
		 M1417.1,1915.1c-14.7,0-26.7,12-26.7,26.7s12,26.7,26.7,26.7s26.7-12,26.7-26.7S1431.8,1915.1,1417.1,1915.1z M1640.2,2006.4
		c-25.7,0-46.7-20.9-46.7-46.7s20.9-46.7,46.7-46.7c25.7,0,46.7,20.9,46.7,46.7S1665.9,2006.4,1640.2,2006.4z M1640.2,1933.1
		c-14.7,0-26.7,12-26.7,26.7s12,26.7,26.7,26.7s26.7-12,26.7-26.7S1654.9,1933.1,1640.2,1933.1z M1240.2,1286.3
		c-25.7,0-46.7-20.9-46.7-46.7s20.9-46.7,46.7-46.7c25.7,0,46.7,20.9,46.7,46.7S1265.9,1286.3,1240.2,1286.3z M1240.2,1213
		c-14.7,0-26.7,12-26.7,26.7s12,26.7,26.7,26.7s26.7-12,26.7-26.7S1254.9,1213,1240.2,1213z M1439.3,1317.1
		c-25.7,0-46.7-20.9-46.7-46.7s20.9-46.7,46.7-46.7c25.7,0,46.7,20.9,46.7,46.7S1465.1,1317.1,1439.3,1317.1z M1439.3,1243.7
		c-14.7,0-26.7,12-26.7,26.7s12,26.7,26.7,26.7s26.7-12,26.7-26.7S1454,1243.7,1439.3,1243.7z M1165.5,704.1
		c-25.7,0-46.7-20.9-46.7-46.7s20.9-46.7,46.7-46.7c25.7,0,46.7,20.9,46.7,46.7S1191.3,704.1,1165.5,704.1z M1165.5,630.7
		c-14.7,0-26.7,12-26.7,26.7s12,26.7,26.7,26.7s26.7-12,26.7-26.7S1180.3,630.7,1165.5,630.7z"/>
	<path class="st6" d="M782.8,530.5c0,3.8-3.1,6.9-6.9,6.9s-6.9-3.1-6.9-6.9c0-3.8,3.1-6.9,6.9-6.9S782.8,526.7,782.8,530.5z
		 M966.8,597.9c-3.8,0-6.9,3.1-6.9,6.9c0,3.8,3.1,6.9,6.9,6.9s6.9-3.1,6.9-6.9C973.6,600.9,970.5,597.9,966.8,597.9z M458.9,961.7
		c-3.8,0-6.9,3.1-6.9,6.9c0,3.8,3.1,6.9,6.9,6.9s6.9-3.1,6.9-6.9C465.7,964.7,462.7,961.7,458.9,961.7z M641.9,1055.9
		c-3.8,0-6.9,3.1-6.9,6.9s3.1,6.9,6.9,6.9s6.9-3.1,6.9-6.9C648.7,1059,645.7,1055.9,641.9,1055.9z M846.9,1131.6
		c-3.8,0-6.9,3.1-6.9,6.9s3.1,6.9,6.9,6.9s6.9-3.1,6.9-6.9S850.7,1131.6,846.9,1131.6z M1049.4,1186c-3.8,0-6.9,3.1-6.9,6.9
		s3.1,6.9,6.9,6.9s6.9-3.1,6.9-6.9S1053.2,1186,1049.4,1186z M373.7,1746c-3.8,0-6.9,3.1-6.9,6.9s3.1,6.9,6.9,6.9s6.9-3.1,6.9-6.9
		S377.5,1746,373.7,1746z M565.7,1810c-3.8,0-6.9,3.1-6.9,6.9s3.1,6.9,6.9,6.9c3.8,0,6.9-3.1,6.9-6.9S569.5,1810,565.7,1810z
		 M776.3,1855.6c-3.8,0-6.9,3.1-6.9,6.9s3.1,6.9,6.9,6.9c3.8,0,6.9-3.1,6.9-6.9S780.1,1855.6,776.3,1855.6z M989.6,1886.4
		c-3.8,0-6.9,3.1-6.9,6.9s3.1,6.9,6.9,6.9c3.8,0,6.9-3.1,6.9-6.9S993.4,1886.4,989.6,1886.4z M1206.8,1910.3c-3.8,0-6.9,3.1-6.9,6.9
		s3.1,6.9,6.9,6.9s6.9-3.1,6.9-6.9S1210.6,1910.3,1206.8,1910.3z M1429.4,1929c-3.8,0-6.9,3.1-6.9,6.9s3.1,6.9,6.9,6.9
		s6.9-3.1,6.9-6.9S1433.2,1929,1429.4,1929z M1652.5,1947c-3.8,0-6.9,3.1-6.9,6.9s3.1,6.9,6.9,6.9s6.9-3.1,6.9-6.9
		S1656.3,1947,1652.5,1947z M1252.5,1226.9c-3.8,0-6.9,3.1-6.9,6.9s3.1,6.9,6.9,6.9s6.9-3.1,6.9-6.9S1256.3,1226.9,1252.5,1226.9z
		 M1451.6,1257.6c-3.8,0-6.9,3.1-6.9,6.9s3.1,6.9,6.9,6.9s6.9-3.1,6.9-6.9S1455.4,1257.6,1451.6,1257.6z M1177.8,644.6
		c-3.8,0-6.9,3.1-6.9,6.9c0,3.8,3.1,6.9,6.9,6.9s6.9-3.1,6.9-6.9C1184.7,647.7,1181.6,644.6,1177.8,644.6z"/>
</g>
</svg>
