<?xml version="1.0" encoding="utf-8"?>
<!-- Generator: Adobe Illustrator 27.7.0, SVG Export Plug-In . SVG Version: 6.00 Build 0)  -->
<svg version="1.1" id="레이어_1" xmlns="http://www.w3.org/2000/svg" xmlns:xlink="http://www.w3.org/1999/xlink" x="0px"
	 y="0px" width="283.6px" height="273.3px" viewBox="0 0 283.6 273.3" style="enable-background:new 0 0 283.6 273.3;"
	 xml:space="preserve">
<style type="text/css">
	.st0{fill:#FF488A;}
	.st1{fill:#FFAEBC;}
	.st2{fill:#231815;}
</style>
<g>
	<path class="st0" d="M261.6,108.6c-10.3-45.1-74.4-18.5-97.2-7.5c-0.8,0.4-1.6-0.3-1.4-1.1c5.7-24,18.4-93.9-28.4-93.9
		c-45.9,0-34.8,67.3-29.1,92.5c0.3,1.3-1.1,2.4-2.3,1.8c-24-11.4-85.8-36-95.9,8.2c-9.4,41.3,48,47.8,77.2,48.5
		c-24.3,16.2-69.3,52.4-39.3,82.4c36.1,36.1,81-36.7,89.3-51c8.3,14.3,53.2,87.1,89.3,51c30-30-15-66.2-39.3-82.4
		C213.6,156.4,271,149.9,261.6,108.6z"/>
	<path class="st1" d="M87.6,139.8c0-25.1,20.4-45.5,45.5-45.5s45.5,20.4,45.5,45.5s-20.4,45.5-45.5,45.5S87.6,164.9,87.6,139.8z"/>
	<path class="st2" d="M282.3,127.8c0.3-19.8-19.8-35.6-28.8-41.7c-1.8-1.4-3.8-2.6-5.9-3.6c-15.4-7.4-36.6-4-55.6,2.1
		c4.8-15.9-2.1-40.6-2.1-40.6c-7.6-28.7-31.2-37.1-37.8-38.9c-5.1-2.5-11-3.8-17.6-3.8c-12.2,0-21.8,4.3-28.6,12.8
		c-15.3,19-11.5,55.2-6.8,78.9c0,0,0,0.1-0.1,0.1c-21.8-9.7-55.9-21.2-77.9-10.6c-9.7,4.7-16,13.1-18.7,25
		c-2.7,11.7-0.7,21.9,5.8,30.3c0.7,0.9,1.4,1.7,2.1,2.5c2.8,3.4,21.7,25.2,49.8,28.9c-15.1,13-28.2,28.8-29.8,45.2
		c-0.9,8.7,1.6,16.8,7.2,24.2c4.3,7.1,24.7,37.5,52.4,33.3c28.8-4.3,56.4-44.4,60.8-50.9c0,0.1,0.1,0.1,0.1,0.2
		c1.1,2.4,4.9,7.8,13.3,17.8c18.3,21.9,56.4,50,86.4,16s-26.9-76.2-26.9-76.2s0,0,24.9-5.6S281.9,153,282.3,127.8z M133.1,101.8
		c21,0,38,17,38,38s-17,38-38,38s-38-17-38-38C95.1,118.8,112.1,101.8,133.1,101.8z M181.5,161.2L181.5,161.2
		c16.7,11.2,44.9,32.9,47,54.1c0.7,7.6-2,14.3-8.4,20.7c-6.6,6.6-13.6,9.3-21.4,8.3c-23.2-3-46.8-36.9-56.4-52.3
		C159.9,188.8,174.5,177.1,181.5,161.2z M243.3,91.4c7,3.4,11.4,9.3,13.4,18.3l0,0c2,8.8,0.7,16-3.9,21.9
		c-13,16.7-48.1,20-68.2,20.5c0.9-4,1.5-8.1,1.5-12.3c0-14.1-5.6-27-14.6-36.5C187.7,95.9,223.5,81.9,243.3,91.4z M113.8,20.1
		c4.8-6,11.6-9,20.8-9s16,3,20.8,9c13.8,17.5,7.7,56.1,3.9,73.6c-7.7-4.4-16.6-6.9-26.1-6.9c-8.6,0-16.7,2.1-23.9,5.7
		C105.3,73.3,100.2,37,113.8,20.1z M12.2,109.7c2-8.9,6.4-14.9,13.3-18.2c19-9.2,52.1,3,70,11c-9.5,9.6-15.4,22.8-15.4,37.4
		c0,4.2,0.5,8.3,1.4,12.2c-20.4-0.7-53-4.5-65.4-20.4C11.4,125.7,10.2,118.5,12.2,109.7z M40.3,215.3c2-20.4,28.2-41.3,45-52.7
		c7.6,15.9,22.9,27.4,41,29.7c-9.8,15.6-33.2,48.9-56.2,51.9c-7.8,1-14.8-1.7-21.4-8.3C42.3,229.6,39.6,222.9,40.3,215.3z"/>
</g>
</svg>
