<?xml version="1.0" encoding="utf-8"?>
<!-- Generator: Adobe Illustrator 27.7.0, SVG Export Plug-In . SVG Version: 6.00 Build 0)  -->
<svg version="1.1" id="레이어_1" xmlns="http://www.w3.org/2000/svg" xmlns:xlink="http://www.w3.org/1999/xlink" x="0px"
	 y="0px" width="315.9px" height="534.5px" viewBox="0 0 315.9 534.5" style="enable-background:new 0 0 315.9 534.5;"
	 xml:space="preserve">
<style type="text/css">
	.st0{opacity:0.2;fill:#F4EAD4;enable-background:new    ;}
	.st1{fill:#DBDBDB;}
	.st2{fill:#20930F;}
	.st3{fill:#E83131;}
	.st4{fill:#231815;}
	.st5{opacity:0.2;fill:#FFFFFF;enable-background:new    ;}
</style>
<g>
	<path class="st0" d="M299.4,376c0,78.2-63.4,141.6-141.6,141.6S16.2,454.2,16.2,376s63.4-141.6,141.6-141.6
		C236,234.3,299.4,297.7,299.4,376z M191.1,238.1L191.1,238.1v-27.9c0-18.4-14.9-20-33.3-20l0,0c-18.4,0-33.3,1.6-33.3,20v27.9l0,0
		C146.4,232.9,169.2,232.9,191.1,238.1z"/>
	<path class="st1" d="M108.3,452.4c29.5-3,34.7,11.1,61.5,2c27.6-9.4,40.5,0.7,59.8-6.5c27.8-10.2,50.1,2.1,50.1,2.1
		s-51,69.8-122.1,69.8s-120.4-67-120.4-67C57.7,441.3,81.9,455,108.3,452.4z"/>
	<path class="st2" d="M273.6,418.1c-0.4-1.9-2.3-3.1-4.2-2.7c-10.7,2.4-21.3,3.8-28.5,4c1.1-0.7,2.1-1.3,3-1.9
		c1.4-0.9,2.9-1.9,3.3-2.1c1.8-0.7,2.7-2.7,2-4.5c-0.2-0.4-0.4-0.8-0.7-1.1c4.7-2.5,8.9-5.2,11.9-7.2c1.4-0.9,2.9-1.9,3.3-2.1
		c1.8-0.7,2.7-2.7,2-4.5s-2.7-2.7-4.5-2c-0.9,0.4-2.1,1.1-4.6,2.7c-4.4,2.9-12.8,8.3-20.7,11c3.5-9,9.4-21.6,15.3-32.9
		c0.9-1.7,0.2-3.8-1.5-4.7c-1.7-0.9-3.8-0.2-4.7,1.5c-2.5,4.9-12.7,24.5-17.1,37.8c-1,0-1.9,0-2.8-0.1c2.9-6.3,6.2-13.1,9.6-19.5
		c0.9-1.7,0.2-3.8-1.5-4.7c-1.7-0.9-3.8-0.2-4.7,1.5c-1.3,2.5-4.6,8.9-8.1,16.4c-1.4-8.5,1.7-23.2,4.3-31.9c0.6-1.8-0.5-3.8-2.3-4.4
		s-3.8,0.5-4.4,2.3c-0.8,2.5-6.2,20.7-4.7,33.6c-0.1,0-0.1-0.1-0.1-0.1c-1.7-0.9-3.8-0.2-4.7,1.5s-2.7,5.2-4.9,9.7
		c-0.1-8.6,2.4-20.3,4.7-27.7c0.6-1.8-0.5-3.8-2.3-4.4s-3.8,0.5-4.4,2.3c-0.9,2.9-8.5,28.3-3,40.4c-2.7,6-5.4,12.3-7.2,17.6
		c-0.8,0-1.5,0-2.2-0.1c2-4.2,4.2-8.6,6.3-12.7c0.9-1.7,0.2-3.8-1.5-4.7c-1.7-0.9-3.8-0.2-4.7,1.5c-1.2,2.2-3.1,6.1-5.3,10.5
		c-1.8-8.3,1.4-23.8,4.2-32.8c0.6-1.8-0.5-3.8-2.3-4.4s-3.8,0.5-4.4,2.3c-0.9,3-9,30-2.4,41.6c0.3,0.6,0.7,1.1,1.1,1.6
		c-1.8,4-3.5,8.1-4.7,11.6c-0.8,0-1.6-0.1-2.4-0.3c-0.5-0.1-1.1-0.4-1.6-1.3c-0.5-0.8-0.8-2-1-3.2c1.7-1.4,2.7-3.4,3.1-5.8
		c0.5-3.2-0.3-7.1-1.8-11.1c0.7-3.2,1.5-6.2,2.2-8.7c0.6-1.8-0.5-3.8-2.3-4.4c-1.9-0.6-3.8,0.5-4.4,2.3c-0.1,0.2-0.2,0.6-0.3,1
		c-3.2-5.4-6.4-9.7-7.1-10.7c-1.2-1.5-3.3-1.8-4.9-0.6c-1.5,1.2-1.8,3.4-0.6,4.9c3.3,4.3,7.6,10.9,10.2,16.8
		c-0.7,3.7-1.3,7.9-1.3,11.9c-2.3-2.8-5.2-6-8.2-9c0.2-0.6,0.4-1.2,0.5-1.9c2.2-13.1-14.8-35.6-16.7-38.1c-1.2-1.5-3.4-1.8-4.9-0.6
		c-1.5,1.2-1.8,3.4-0.6,4.9c5.7,7.5,14.1,20.9,15.3,29.4c-3.5-3.4-6.7-6.3-8.6-8c-1.4-1.3-3.6-1.2-4.9,0.2c-1.3,1.4-1.2,3.6,0.2,4.9
		c3.4,3.1,7,6.5,10.3,9.8c-0.6,0.3-1.3,0.6-2.1,0.9c-3.5-4.4-8.2-9.3-12.8-14c0.9-13.3-15-34.4-16.8-36.8c-1.2-1.5-3.4-1.8-4.9-0.6
		c-1.5,1.2-1.8,3.4-0.6,4.9c4.7,6.1,11.1,16.3,14,24.4c-3.6-3.4-6.5-6.1-7.9-7.4s-3.6-1.2-4.9,0.2l-0.1,0.1
		c-3.1-12.7-14.5-27.9-16.1-29.9c-1.2-1.5-3.4-1.8-4.9-0.6c-1.5,1.2-1.8,3.4-0.6,4.9c5.5,7.2,13.4,20,15.1,28.4
		c-5.9-5.8-11.2-10.7-13.3-12.6c-1.4-1.3-3.6-1.2-4.9,0.2c-1.3,1.4-1.2,3.6,0.2,4.9c5.4,4.8,10.8,10.1,15.8,15
		c-0.8,0.4-1.7,0.8-2.6,1.1c-8.8-10.9-25.1-25.9-29.1-29.5c-1.4-1.3-3.6-1.2-4.9,0.2c-1.3,1.4-1.2,3.6,0.2,4.9
		C74,406,83.9,415.8,90.3,423c-8.4,0.2-18.1-2-23.3-3.1c-2.9-0.7-4.2-0.9-5.2-1c-1.9,0-3.5,1.5-3.6,3.4c0,1.9,1.5,3.5,3.4,3.6
		c0.5,0,2.3,0.4,3.9,0.8c3.5,0.8,8.3,1.9,13.7,2.6c-0.2,0.4-0.3,0.8-0.3,1.3c0,1.9,1.5,3.5,3.4,3.6c0.5,0,2.3,0.4,3.9,0.8
		c1,0.2,2.2,0.5,3.4,0.8c-6.8,2.3-17.3,4.7-28.1,6.1c-1.9,0.3-3.2,2-3,3.9c0.3,1.9,2,3.2,3.9,3c7.1-1,28.7-4.3,37.5-10.2
		c0.4-0.3,0.8-0.6,1.1-0.8c1.1,0.1,2.3,0.3,3.4,0.3c-0.4,0.6-0.7,1.2-0.7,2c0,1.9,1.5,3.5,3.4,3.6c0.4,0,1.4,0.3,2.6,0.5
		c-6.8,2.2-17.1,4.6-27.7,6c-1.9,0.3-3.2,2-3,3.9c0.3,1.9,2,3.2,3.9,3c7.1-1,28.7-4.3,37.5-10.2c0.2-0.1,0.3-0.2,0.5-0.4
		c3,0.5,6.2,0.9,9.4,1.1c-0.1,0.3-0.2,0.7-0.2,1c0,1.9,1.5,3.5,3.4,3.6c0.4,0,1.8,0.4,3,0.6c0,0,0,0,0.1,0
		c-6.7,2.5-18.1,5.1-29.8,6.7c-1.9,0.3-3.2,2-3,3.9c0.3,1.9,2,3.2,3.9,3c7.1-1,28.7-4.3,37.5-10.2c0.7-0.4,1.3-0.9,1.8-1.4
		c4.4,0.6,9.3,1,13.7,0.4c0.3,0.4,0.5,0.8,0.7,1.2c-2.6,2.3-15.3,5.7-28.2,7.5c-1.9,0.3-3.2,2-3,3.9c0.3,1.9,2,3.2,3.9,3
		c7.4-1,23.7-3.7,30.7-8.4c0.9-0.6,1.7-1.3,2.3-2c1.2,1.2,2.7,2,4.4,2.4c0.7,0.2,1.5,0.3,2.2,0.4c-0.1,0.9-0.1,1.6-0.1,2.3
		c0.1,1.1,0.7,2.7,2.4,4c0.8,0.6,2,1,3.3,1.4c8.3,2,24.4-1.1,31.7-2.8c1.9-0.4,3.1-2.3,2.7-4.2c-0.4-1.9-2.3-3.1-4.2-2.7
		c-12.7,2.8-25.7,4-29,2.8c0-0.4,0.1-0.8,0.2-1.3c4.4-1,8.8-3,12.8-5.1c0.6,0.3,1.4,0.5,2.2,0.7c10.3,2.5,31.7-1.8,38.7-3.4
		c1.9-0.4,3.1-2.3,2.7-4.2c-0.4-1.9-2.3-3.1-4.2-2.7c-11.6,2.6-23.1,4-30.3,4c0,0,0,0,0.1,0c1.1-0.7,2.3-1.5,2.6-1.6
		c1.8-0.7,2.6-2.7,1.9-4.5c-0.1-0.3-0.3-0.6-0.6-0.9c3-1.3,5.8-2.8,8.4-4.3c0.2,0.1,0.4,0.1,0.6,0.2c10.3,2.5,31.7-1.8,38.7-3.4
		c1.9-0.4,3.1-2.3,2.7-4.2c-0.4-1.9-2.3-3.1-4.2-2.7c-10.4,2.3-20.9,3.7-28.1,4c1-0.7,2-1.3,2.3-1.4c1.8-0.7,2.7-2.7,2-4.5
		c-0.3-0.7-0.7-1.2-1.3-1.6c1-0.5,2.1-1,3.1-1.5c0.4,0.1,0.9,0.3,1.4,0.4c10.3,2.5,31.7-1.8,38.7-3.4
		C272.8,421.8,274,419.9,273.6,418.1z M124.3,439.7c0-0.3-0.1-0.6-0.1-0.8c-0.2-0.9-0.7-2-1.4-3.1c1.1-0.5,2.1-1,3.1-1.7
		c0.7-0.5,1.4-1.1,2-1.7c2.8,2.9,5.4,5.7,7.6,8.1C131.8,440.6,127.9,440.3,124.3,439.7z M115.8,437.6c0.2,0.2,0.3,0.4,0.4,0.6
		c-0.7-0.2-1.4-0.3-2-0.4C114.8,437.8,115.3,437.7,115.8,437.6z M122.9,427.4c-0.2,0.3-0.5,0.6-0.9,0.9c-1,0.7-2.1,1.2-3.4,1.6
		c-2.5-3.2-5.7-6.7-9-10.1c0.1-0.4,0.2-0.9,0.3-1.4c0.2-1,0.2-2,0.2-3.1C114.4,419.2,118.8,423.4,122.9,427.4z M105.2,425.8
		c0.1-0.1,0.2-0.1,0.3-0.2c1.8,1.9,3.5,3.8,5,5.5c-2.3,0.1-4.7-0.1-7-0.3c0-0.1,0-0.1,0-0.2c-0.2-0.9-0.7-2-1.4-3.1
		C103.2,427,104.3,426.5,105.2,425.8z M95.4,429.6c-0.3-0.1-0.6-0.1-0.8-0.2c0.2,0,0.5-0.1,0.7-0.1
		C95.3,429.5,95.3,429.6,95.4,429.6z M148.9,447.9c-0.2-0.8-0.7-1.7-1.2-2.7c1.1-0.5,2.1-1,3-1.6c1.6,1.7,3.1,3.3,4.5,4.8
		C153.1,448.3,150.9,448.1,148.9,447.9z M233.8,415.6c-0.2,0.1-0.5,0.3-0.7,0.4c0-0.1,0-0.2,0.1-0.3
		C233.3,415.7,233.6,415.6,233.8,415.6z M222.5,415.9c1.1,0.3,2.3,0.4,3.5,0.5c-0.2,1.3-0.3,2.5-0.2,3.4c0,0.1,0,0.1,0,0.2
		c-2.1,1-4.3,2-6.5,2.7c0.8-2.1,1.8-4.4,2.8-6.9C222.2,415.8,222.3,415.8,222.5,415.9z M214.3,407.7c0.3,1,0.7,2,1.2,2.8
		c0.2,0.4,0.5,0.8,0.8,1.2c-1.9,4.4-3.7,8.8-4.9,12.6c-1.3,0-2.6-0.1-3.7-0.3c-0.4-0.1-0.8-0.3-1.1-0.5
		C208.9,418.2,211.6,412.8,214.3,407.7z M203.5,429.8c0.8,0.4,1.6,0.7,2.4,0.9c1.1,0.3,2.3,0.4,3.5,0.5c-0.2,1.3-0.3,2.5-0.2,3.4
		c0,0.3,0.1,0.5,0.2,0.8c-3.2,1.8-6.8,3.4-10.2,4.6C200.4,437,201.9,433.6,203.5,429.8z M186,448.2c1.1,0.3,2.2,0.4,3.4,0.5
		c-0.2,1.1-0.3,2.1-0.2,3c-1.9,1-3.8,1.9-5.7,2.6C184.2,452.4,185.1,450.4,186,448.2z M216.5,431.4c0.1-0.2,0.1-0.5,0.2-0.7
		c0.5-0.1,1.1-0.2,1.6-0.4C217.7,430.6,217.1,431,216.5,431.4z"/>
	<path class="st3" d="M95,424.1c-2-3-6-3.8-8.9-1.8c-3,2-3.8,6-1.8,8.9c2,3,6,3.8,8.9,1.8C96.2,431.1,97,427.1,95,424.1z
		 M107.4,428.4c3-2,3.8-6,1.8-8.9c-2-3-6-3.8-8.9-1.8c-3,2-3.8,6-1.8,8.9C100.4,429.6,104.4,430.4,107.4,428.4z M106.2,432.2
		c-2-3-6-3.8-8.9-1.8c-3,2-3.8,6-1.8,8.9c2,3,6,3.8,8.9,1.8S108.2,435.1,106.2,432.2z M163.2,444.6c2-1.3,2.5-4,1.2-6s-4-2.5-6-1.2
		s-2.5,4-1.2,6S161.2,446,163.2,444.6z M165.6,448.2c1.3,1.9,3.7,2.4,5.7,1.4c0.1,1.9,1.4,3.5,3.3,4c2.3,0.6,4.7-0.9,5.2-3.2
		s-0.9-4.7-3.2-5.2c-1.1-0.3-2.2-0.1-3.1,0.4c0-0.7-0.3-1.5-0.7-2.1c-1.3-2-4-2.5-6-1.2C164.8,443.5,164.3,446.2,165.6,448.2z
		 M118.7,423.8c2-1.3,2.5-4,1.2-6s-4-2.5-6-1.2s-2.5,4-1.2,6S116.7,425.2,118.7,423.8z M113.3,438c1.5,0.2,3.2-0.1,4.6-1
		c3-2,3.8-6,1.8-8.9c-2-3-6-3.8-8.9-1.8c-3,2-3.8,6-1.8,8.9c0.9,1.3,2.1,2.2,3.5,2.6c-1.5-0.2-3.2,0.1-4.6,1c-3,2-3.8,6-1.8,8.9
		c2,3,6,3.8,8.9,1.8s3.8-6,1.8-8.9C116,439.3,114.7,438.4,113.3,438z M130.1,437.2c-2-3-6-3.8-8.9-1.8c-3,2-3.8,6-1.8,8.9
		c2,3,6,3.8,8.9,1.8C131.3,444.2,132.1,440.2,130.1,437.2z M121.6,431c2,3,6,3.8,8.9,1.8c3-2,3.8-6,1.8-8.9c-2-3-6-3.8-8.9-1.8
		C120.4,424.1,119.6,428.1,121.6,431z M132.2,440c2,3,6,3.8,8.9,1.8c3-2,3.8-6,1.8-8.9c-2-3-6-3.8-8.9-1.8
		C131,433,130.2,437,132.2,440z M144.4,446.7c2,3,6,3.8,8.9,1.8s3.8-6,1.8-8.9c-2-3-6-3.8-8.9-1.8
		C143.3,439.7,142.5,443.7,144.4,446.7z M143.7,450.7c-0.7,0.5-1.3,1.1-1.8,1.8c1.2-2.1,1.2-4.7-0.2-6.8c-2-3-6-3.8-8.9-1.8
		c-3,2-3.8,6-1.8,8.9c2,3,6,3.8,8.9,1.8c0.7-0.5,1.3-1.1,1.8-1.8c-1.2,2.1-1.2,4.7,0.2,6.8c2,3,6,3.8,8.9,1.8c3-2,3.8-6,1.8-8.9
		C150.7,449.5,146.7,448.7,143.7,450.7z M239.2,405.9c-3.5-0.8-6.9,1.3-7.8,4.8c-0.8,3.5,1.3,6.9,4.8,7.8c3.5,0.8,6.9-1.3,7.8-4.8
		C244.8,410.2,242.7,406.8,239.2,405.9z M221.3,419.1c3.5,0.8,6.9-1.3,7.8-4.8c0.8-3.5-1.3-6.9-4.8-7.8c-3.5-0.8-6.9,1.3-7.8,4.8
		C215.7,414.8,217.9,418.2,221.3,419.1z M231.5,417.4c-3.5-0.8-6.9,1.3-7.8,4.8c-0.8,3.5,1.3,6.9,4.8,7.8c3.5,0.8,6.9-1.3,7.8-4.8
		C237.1,421.7,235,418.2,231.5,417.4z M170.4,452.6c-1.7-0.4-3.4,0.2-4.4,1.5c0.7-1.9,0.5-4-0.7-5.8c-2-3-6-3.8-8.9-1.8
		s-3.8,6-1.8,8.9s6,3.8,8.9,1.8c0.7-0.5,1.3-1,1.7-1.7c0,0.1-0.1,0.2-0.1,0.3c-0.6,2.3,0.9,4.7,3.2,5.2c2.3,0.6,4.7-0.9,5.2-3.2
		C174.2,455.5,172.7,453.1,170.4,452.6z M209.2,418.7c2.3,0.6,4.7-0.9,5.2-3.2s-0.9-4.7-3.2-5.2c-2.3-0.6-4.7,0.9-5.2,3.2
		S206.9,418.1,209.2,418.7z M224.5,428.9c-1.6-0.4-3.3-0.1-4.6,0.6c1.2-0.9,2-2.1,2.4-3.7c0.8-3.5-1.3-6.9-4.8-7.8
		c-3.5-0.8-6.9,1.3-7.8,4.8s1.3,6.9,4.8,7.8c1.6,0.4,3.3,0.1,4.6-0.6c-1.2,0.9-2,2.1-2.4,3.7c-0.8,3.5,1.3,6.9,4.8,7.8
		c3.5,0.8,6.9-1.3,7.8-4.8C230.1,433.2,227.9,429.7,224.5,428.9z M210.9,430.4c-3.5-0.8-6.9,1.3-7.8,4.8s1.3,6.9,4.8,7.8
		c3.5,0.8,6.9-1.3,7.8-4.8S214.3,431.2,210.9,430.4z M201.2,431.2c3.5,0.8,6.9-1.3,7.8-4.8c0.8-3.5-1.3-6.9-4.8-7.8
		c-3.5-0.8-6.9,1.3-7.8,4.8C195.6,426.9,197.7,430.4,201.2,431.2z M194.3,443.2c3.5,0.8,6.9-1.3,7.8-4.8c0.8-3.5-1.3-6.9-4.8-7.8
		c-3.5-0.8-6.9,1.3-7.8,4.8C188.7,438.9,190.8,442.4,194.3,443.2z M185.2,453.8c3.5,0.8,6.9-1.3,7.8-4.8c0.8-3.5-1.3-6.9-4.8-7.8
		s-6.9,1.3-7.8,4.8C179.6,449.5,181.7,453,185.2,453.8z M202.9,442.3c-3.5-0.8-6.9,1.3-7.8,4.8c-0.6,2.5,0.3,4.9,2.2,6.4
		c-0.7-0.5-1.4-0.8-2.3-1.1c-3.5-0.8-6.9,1.3-7.8,4.8c-0.8,3.5,1.3,6.9,4.8,7.8c3.5,0.8,6.9-1.3,7.8-4.8c0.6-2.5-0.3-4.9-2.2-6.4
		c0.7,0.5,1.4,0.8,2.3,1.1c3.5,0.8,6.9-1.3,7.8-4.8C208.5,446.6,206.4,443.2,202.9,442.3z M181.7,453c-3.5-0.8-6.9,1.3-7.8,4.8
		c-0.8,3.5,1.3,6.9,4.8,7.8c3.5,0.8,6.9-1.3,7.8-4.8C187.2,457.3,185.1,453.8,181.7,453z"/>
	<path class="st4" d="M201.1,230.6v-20.5c0-24-18.7-28.8-33.3-29.8V7.1h-20v173.3c-14.7,1-33.3,5.8-33.3,29.8v20.5
		C51.9,249.3,6.2,307.4,6.2,376c0,83.6,68,151.6,151.6,151.6s151.6-68,151.6-151.6C309.4,307.4,263.7,249.3,201.1,230.6z
		 M134.5,210.2c0-6,0-10,23.3-10s23.3,4,23.3,10V226c-7.7-1.2-15.5-1.8-23.3-1.8s-15.6,0.6-23.3,1.8V210.2z M157.8,244.3
		c72.6,0,131.6,59,131.6,131.6c0,25.2-7.1,48.7-19.4,68.7c-9.3-2.6-24-4.4-40.9,1.8c-1.7,0.6-3.2,1.1-4.6,1.4
		c-1.5,0.3-2.9,0.5-4.3,0.7c-3.5,0.4-6.7,0.3-10.9,0.5c0.1-1.3-0.1-2.6-0.7-3.8c0.4-0.2,0.9-0.4,1.3-0.6c2.1-0.2,4-1.2,5.4-2.7
		c1.3,0.3,2.8,0.5,4.4,0.6c0.4,0.2,0.8,0.3,1.2,0.4c1.6,0.4,3.3,0.3,4.7-0.3c10.4-0.3,22.9-2.8,28.9-4.2c1.3-0.3,2.4-1.1,3.1-2.2
		c0.7-1.1,1-2.5,0.7-3.8c-0.6-2.7-3.3-4.4-6-3.8c-8.4,1.9-16,3-22,3.6c-0.1-0.2-0.2-0.4-0.2-0.6c0,0,0-0.1,0.1-0.1
		c2.7-0.1,5.2-1.6,6.6-3.9c1,0.1,2.1,0.1,3.2,0.1c10.8,0,24.6-2.8,31.1-4.2c2.7-0.6,4.4-3.3,3.8-6s-3.3-4.4-6-3.8
		c-8.7,1.9-16.5,3.1-22.6,3.6c0.6-0.4,1.1-0.7,1.2-0.8c2.6-1,3.8-3.9,2.8-6.5l0,0c4.2-2.3,7.9-4.7,10.6-6.5c1-0.7,2.8-1.8,3-1.9
		c2.6-1,3.8-3.9,2.8-6.5s-3.9-3.8-6.5-2.8c-1.1,0.4-2.2,1.2-4.8,2.9c-3.5,2.3-9.5,6.2-15.7,9c-0.1,0-0.3-0.1-0.4-0.1
		c-0.3-0.1-0.5-0.1-0.8-0.1c3.3-8,8.2-18.4,13.6-28.7c1.3-2.4,0.3-5.5-2.1-6.7c-2.4-1.3-5.5-0.3-6.7,2.1c-1.6,3.1-4.5,8.7-7.5,15.1
		c-0.5-1-1.2-1.8-2.2-2.3c-1.2-0.6-2.5-0.7-3.8-0.3c-1.3,0.4-2.3,1.3-2.9,2.5c-1.3,2.5-3.3,6.5-5.6,11.2c0.2-7.9,2.4-18.3,4.6-25.5
		c0.8-2.6-0.7-5.4-3.3-6.2c-2.6-0.8-5.4,0.7-6.2,3.3c-1.2,3.8-5.8,19.5-5,32.1c-1.8,0-3.6,0.9-4.5,2.7c-0.5,0.9-1,2-1.7,3.3
		c0.7-6.9,2.5-14.5,4.2-20.2c0.8-2.6-0.7-5.4-3.3-6.2c-2.6-0.8-5.4,0.7-6.2,3.3c-1.4,4.4-7.2,24.5-4.3,37.4
		c-0.4,0.7-0.7,1.4-0.9,2.2l0,0c-0.1-0.1-0.2-0.1-0.3-0.2c-2.4-1.3-5.5-0.3-6.7,2.1c-0.8,1.6-1.9,3.6-3,5.8
		c-0.1-8.1,2.2-19.3,4.6-27c0.8-2.6-0.7-5.4-3.3-6.3c-2.6-0.8-5.4,0.7-6.2,3.3c-0.9,2.9-3.7,12.4-4.7,22.2c-0.1-0.2-0.2-0.5-0.3-0.7
		c-0.6-1.2-1.7-2-3-2.4c-2-0.6-4,0.1-5.3,1.5c-2.5-4-4.8-7.1-5.8-8.4c-1.7-2.2-4.8-2.6-7-0.9c-1.3,1-2,2.5-1.9,4.1
		c-4.4-8.9-10.3-16.8-12.1-19.2c-1.7-2.2-4.8-2.6-7-0.9s-2.6,4.8-0.9,7c4.9,6.4,11,16.1,13.7,23.7c-1.8-1.7-3.5-3.2-4.8-4.4
		c-2-1.8-5.2-1.7-7.1,0.4c-0.1,0.1-0.1,0.2-0.2,0.3l0,0c-0.5-0.7-1-1.3-1.6-1.8c-1.7-13.2-14.2-30-17-33.6c-1.7-2.2-4.8-2.6-7-0.9
		s-2.6,4.8-0.9,7c3.6,4.7,7.9,11.3,11,17.5c-1-1-2-1.8-2.7-2.5c-1.4-1.3-3.4-1.6-5.1-0.9c-3.6-12.1-13.4-25.2-15.8-28.4
		c-1.7-2.2-4.8-2.6-7-0.9s-2.6,4.8-0.9,7c4.6,6,10.2,15,13.2,22.3c-3.8-3.6-7.1-6.7-9.2-8.5c-1-0.9-2.3-1.4-3.6-1.3
		c-1.3,0.1-2.6,0.6-3.5,1.6c-0.8,0.8-1.2,1.9-1.3,3c-5.1-4.9-9.7-9.2-12.3-11.6c-1-0.9-2.3-1.3-3.6-1.3c-1.3,0.1-2.6,0.6-3.5,1.6
		c-1.8,2-1.7,5.2,0.4,7.1c8.6,7.8,16.8,15.8,22.7,22.2c-0.2,0.1-0.4,0.2-0.7,0.4c-0.1,0.1-0.2,0.2-0.3,0.2c-6.8-0.5-13.8-2.1-17.9-3
		c-3-0.7-4.4-1-5.5-1h-0.1c-2.7,0-5,2.2-5,4.9c0,2.8,2.1,5,4.8,5.1c0.4,0,2.4,0.5,3.6,0.8c3.2,0.7,7.5,1.7,12.2,2.4l0,0
		c0,2.8,2.1,5,4.8,5.1c0.2,0,0.8,0.1,1.5,0.3c-5.9,1.6-13.6,3.2-22.4,4.4c-2.7,0.4-4.6,2.9-4.3,5.6c0,0.3,0.1,0.6,0.2,0.8
		c-3.2,0-6.3,0.3-9.4,0.9c-13.2-20.7-21-45.3-21-71.6C26.2,303.4,85.2,244.3,157.8,244.3z M80.3,429.9c0.3-1,0.8-1.5,1.3-1.6
		c0.1,1.3,0.5,2.7,1.3,3.8c0.1,0.2,0.3,0.4,0.4,0.5c-0.7-0.1-1.1-0.2-1.4-0.2c-0.1,0-0.2,0-0.3,0C80.5,432.2,80,431,80.3,429.9z
		 M78,427.5c-4.9-0.7-9.3-1.7-12.6-2.4c-2.2-0.5-3.5-0.8-4.2-0.8c-1.1,0-2-0.9-1.9-2c0-1.1,0.9-2,2-2l0,0c0.8,0,2.2,0.3,4.9,0.9
		c3.7,0.8,9.8,2.2,16.2,2.8c-0.2,0.5-0.4,1-0.6,1.5C80.3,425.5,78.9,426.3,78,427.5z M108.6,416c0,0.2,0,0.4,0,0.6
		c-1.5-1.5-3-3-4.4-4.4c-2.1-9.7-11.3-23.3-15.3-28.5c-0.7-0.9-0.5-2.1,0.4-2.8c0.9-0.7,2.1-0.5,2.8,0.4c5.3,6.8,13,18.9,15.7,28.7
		C106.6,411.8,106.9,414.4,108.6,416z M166.7,456.2c0.1-0.5,0.2-0.7,0.7-1.3c0.6-0.7,1.6-1,2.6-0.8c1.5,0.3,2.4,1.8,2,3.3
		c-0.3,1.5-1.8,2.4-3.3,2C167.3,459.1,166.4,457.7,166.7,456.2z M167.7,443.6c1.2-0.8,2.9-0.5,3.8,0.8c0.1,0.2,0.2,0.3,0.3,0.5
		c0.3,1,0.2,2.1-0.3,2.7c-0.1,0.1-0.7,0.9-1.7,1c-1,0.2-2.1-0.2-2.7-1.2C166.1,446.1,166.5,444.4,167.7,443.6z M171.2,429.6
		c-0.8-1.8-1.8-3.5-2.7-5.2c0-0.1,0.1-0.2,0.1-0.3c0.3-0.9,1.1-1.4,1.9-1.4c0.2,0,0.4,0,0.6,0.1c0.5,0.2,0.9,0.5,1.2,1
		s0.3,1,0.1,1.5C172.1,426.4,171.7,427.9,171.2,429.6z M170.1,434.6c0.7,2.2,1.4,4,1.6,5.8c-1.2-0.6-2.7-0.7-4-0.4
		c-0.4-1.6-1-3.4-1.8-5.2l-2.1-4.5c-2.8-5.4-6.4-10.5-8.4-13.1c-0.7-0.9-0.5-2.1,0.4-2.8c0.9-0.7,2.1-0.5,2.8,0.4
		c2,2.6,4.4,6.1,6.7,10l2.1,3.8C168.4,430.6,169.3,432.6,170.1,434.6z M120.9,447.9c1.8,1,3.9,1.2,5.9,0.7c0.5,0,1,0.1,1.4,0.2
		c-0.1,0.9,0.1,1.9,0.3,2.8c-3.6-0.6-7.6-1.1-12.2-1.1c0.2-0.1,0.4-0.3,0.5-0.4C118.4,449.4,119.8,448.7,120.9,447.9z M122.1,436.8
		c2.2-1.5,5.2-0.9,6.7,1.3c1.5,2.2,0.9,5.2-1.3,6.7s-5.2,0.9-6.7-1.3C119.3,441.3,119.9,438.3,122.1,436.8z M131.6,455.8
		c2.2,1.6,5.1,2,7.7,1c0,0.2,0,0.3,0.1,0.5c-10.2,4.2-26.5,6.7-32,7.5c-1.1,0.1-2.1-0.6-2.2-1.7s0.6-2.1,1.7-2.2
		C115.3,459.7,124.5,457.8,131.6,455.8z M140.3,460.1c0.1,0.1,0.1,0.3,0.2,0.4c0.1,0.1,0.2,0.2,0.2,0.3c-1.5,0.3-3,0.5-4.5,0.8
		C137.7,461.2,139.1,460.7,140.3,460.1z M133.2,465.1c3.4-0.5,7-1.1,10.5-1.8c2.5,1.2,5.5,1.1,8-0.6c0.8-0.5,1.4-1.2,2-1.9
		c1.5-0.4,2.8-0.9,4-1.3c2,0.6,4.2,0.4,6.1-0.6c0.2,0.5,0.5,1,0.8,1.4c-0.2,0.2-0.4,0.3-0.7,0.5l0,0c-6.9,4.6-23.3,7.2-30.1,8.2
		c-0.5,0.1-1.1-0.1-1.5-0.4s-0.7-0.8-0.8-1.3C131.4,466.3,132.2,465.3,133.2,465.1z M151.3,453.4c1.5,2.2,0.9,5.2-1.3,6.7
		s-5.2,0.9-6.7-1.3c-1.1-1.7-1-3.7,0-5.3l0,0c0.3-0.5,0.8-1,1.3-1.4C146.8,450.6,149.8,451.2,151.3,453.4z M147.1,439.1
		c2.2-1.5,5.2-0.9,6.7,1.3c1.5,2.2,0.9,5.2-1.3,6.7s-5.2,0.9-6.7-1.3C144.3,443.6,144.9,440.6,147.1,439.1z M164.5,453.3
		c-0.2,0.5-0.3,0.8-0.8,1.4c-0.3,0.4-0.7,0.8-1.1,1.1c-2.2,1.5-5.2,0.9-6.7-1.3c-1.5-2.2-0.9-5.2,1.3-6.7s5.2-0.9,6.7,1.3
		C164.8,450.4,165,452,164.5,453.3z M159.3,438.7c1.2-0.8,2.9-0.5,3.8,0.8c0.8,1.2,0.5,2.9-0.8,3.8c-1.2,0.8-2.9,0.5-3.8-0.7
		C157.7,441.3,158,439.6,159.3,438.7z M162.8,435.2c0,0.1,0,0.1,0,0.2c-1.7-0.6-3.7-0.4-5.3,0.6c-0.2,0.1-0.4,0.3-0.6,0.5
		c0-0.1,0-0.1,0-0.2c0.8-4.7-0.7-10.4-3-16C157,424.5,160.6,430.2,162.8,435.2z M154.1,434.9c-1.4-1.4-2.8-2.8-4.2-4.1
		c-1.7-9.7-11.3-24.1-15.5-29.5c-0.7-0.9-0.5-2.1,0.4-2.8c0.9-0.7,2.1-0.5,2.8,0.4C144.2,407.5,155,424.6,154.1,434.9z M150.1,435.1
		c-1.5-0.1-3.1,0.3-4.5,1.2c0-1.5-0.5-3-1.3-4.3c-1.7-2.5-4.4-3.7-7.2-3.6c-0.3-0.3-0.6-0.5-0.8-0.8c-0.8-0.7-0.9-2-0.1-2.8
		c0.4-0.4,0.9-0.7,1.5-0.7c0.5,0,1,0.2,1.3,0.5c2.7,2.5,5.5,5,8.2,7.6C149.3,434.2,149.9,434.8,150.1,435.1z M141.6,433.7
		c1.5,2.2,0.9,5.2-1.3,6.7s-5.2,0.9-6.7-1.3c-1.5-2.2-0.9-5.2,1.3-6.7C137.1,430.9,140.1,431.5,141.6,433.7z M133.7,445.2
		c2.2-1.5,5.2-0.9,6.7,1.3c1.1,1.7,1,3.7,0,5.3l0,0c-0.3,0.5-0.8,1-1.3,1.3c-2.2,1.5-5.2,0.9-6.7-1.3
		C130.9,449.7,131.5,446.7,133.7,445.2z M129.6,431.5c-2.2,1.5-5.2,0.9-6.7-1.3c-1.5-2.2-0.9-5.2,1.3-6.7c2.2-1.5,5.2-0.9,6.7,1.3
		C132.4,427,131.8,430,129.6,431.5z M126.9,419.4c-1.1-1.1-2.2-2.1-3.3-3.1c-3.3-9.1-10.6-19.9-14.1-24.4c-0.7-0.9-0.5-2.1,0.4-2.8
		c0.9-0.7,2.1-0.5,2.8,0.4c5.5,7.2,13.8,20.1,16,30.2C128.1,419.5,127.5,419.4,126.9,419.4z M118.5,418.7c0.8,1.2,0.5,2.9-0.8,3.8
		c-1.2,0.8-2.9,0.5-3.8-0.8c-0.8-1.2-0.5-2.9,0.8-3.8C116,417.1,117.7,417.5,118.5,418.7z M112.9,415.3c-0.1,0.1-0.2,0.2-0.4,0.3
		c-0.3-0.3-0.7-0.6-1-0.9c-0.8-0.7-1.3-1.2-1.6-1.8c-0.3-0.8,0.3-1.7,1-2.1c0.3-0.2,0.7-0.3,1-0.3c0.5,0,1,0.2,1.3,0.5
		c1.2,1.1,2.5,2.3,3.8,3.5C115.7,414.1,114.2,414.4,112.9,415.3z M111.6,427.6c2.2-1.5,5.2-0.9,6.7,1.3c1.5,2.2,0.9,5.2-1.3,6.7
		c-1.1,0.7-2.3,0.9-3.5,0.7c-0.2,0-0.3-0.1-0.5-0.1c-1.1-0.3-2.1-0.9-2.7-1.9C108.8,432.1,109.4,429.1,111.6,427.6z M112.3,439.4
		c0.2,0,0.3,0.1,0.5,0.1c1.1,0.3,2.1,0.9,2.7,1.9c1.5,2.2,0.9,5.2-1.3,6.7c-2.2,1.5-5.2,0.9-6.7-1.3c-1.5-2.2-0.9-5.2,1.3-6.7
		C109.9,439.4,111.1,439.2,112.3,439.4z M106.5,427.1c-2.2,1.5-5.2,0.9-6.7-1.3c-1.5-2.2-0.9-5.2,1.3-6.7c2.2-1.5,5.2-0.9,6.7,1.3
		C109.3,422.6,108.7,425.6,106.5,427.1z M103.3,443.4l0.1,0.1c0,0.2,0,0.4,0,0.6c-5.8,1.6-13.4,3.1-21.9,4.3
		c-0.7,0.1-1.3,0.3-1.9,0.7c-0.5-0.1-1.1-0.2-1.9-0.3c-1.5-0.2-3-0.5-4.6-0.7c7.2-1.2,16-3.1,22.7-6.1
		C97.9,443.7,100.7,444.2,103.3,443.4z M98.2,431.7c2.2-1.5,5.2-0.9,6.7,1.3c1.5,2.2,0.9,5.2-1.3,6.7c-2.2,1.5-5.2,0.9-6.7-1.3
		C95.4,436.2,96,433.2,98.2,431.7z M81.9,451.4c7.5-1,15.4-2.6,22.1-4.3c0.2,0.5,0.5,1,0.8,1.5c0.5,0.8,1.1,1.4,1.8,1.9
		c-9.3,2.6-19.9,4.2-24.1,4.8c-1.1,0.2-2.1-0.6-2.2-1.7C80,452.6,80.8,451.6,81.9,451.4z M102.8,415.1c-1.2,0.2-2.4,0.6-3.5,1.3
		c-0.2,0.1-0.3,0.2-0.5,0.4c-4.5-4.4-9.1-8.8-13.1-12.3c-0.4-0.4-0.6-0.8-0.7-1.4c0-0.5,0.2-1,0.5-1.4c0.4-0.4,0.8-0.6,1.4-0.7H87
		c0.5,0,1,0.2,1.3,0.5c4.2,3.8,8.7,8,12.9,12.2C102,414.2,102.5,414.7,102.8,415.1z M95.4,420.8c-0.4,0.1-0.8,0.1-1.2,0.2
		c-1.5-1-3.3-1.5-5.1-1.3c-7-7.7-16.7-16.9-23.9-23.5c-0.8-0.7-0.9-2-0.1-2.8c0.4-0.4,0.8-0.6,1.4-0.7h0.1c0.5,0,1,0.2,1.3,0.5
		C77.5,401.9,88.5,412.6,95.4,420.8z M87,423.7c2.2-1.5,5.2-0.9,6.7,1.3c1.5,2.2,0.9,5.2-1.3,6.7c-2.2,1.5-5.2,0.9-6.7-1.3
		C84.2,428.2,84.8,425.2,87,423.7z M89.3,437.1c1.2,0.3,2.5,0.5,3.8,0.8c0.2,0.6,0.4,1.2,0.7,1.8c-10.2,4.2-26.5,6.7-32,7.5
		c-0.5,0.1-1.1-0.1-1.5-0.4s-0.7-0.8-0.8-1.3c-0.1-1.1,0.6-2.1,1.7-2.2C71.1,441.8,81.9,439.5,89.3,437.1z M77.2,451.8
		c0.1,0,0.2,0,0.2,0c-0.2,0.7-0.3,1.5-0.2,2.2c0.3,2.5,2.5,4.3,4.9,4.3c0.2,0,0.5,0,0.7,0c4.8-0.7,13.7-2,22-4.2
		c1.2-0.1,2.4-0.1,3.6-0.3c7.1-0.7,12.6-0.4,17.5,0.3c-5.5,1.4-12.2,2.7-19.6,3.7c-2.7,0.4-4.6,2.9-4.3,5.6c0.3,2.5,2.5,4.3,4.9,4.3
		c0.2,0,0.5,0,0.7,0c4.9-0.7,13.9-2.1,22.4-4.3c-1.1,1.1-1.8,2.7-1.5,4.3c0.2,1.3,0.9,2.5,1.9,3.3c0.9,0.7,1.9,1,3,1
		c0.2,0,0.5,0,0.7,0c5.6-0.8,14-2.2,21.2-4.3c-9.6,5.8-20.1,11.8-31.7,17.7c-1.7,0.9-2.4,3-1.5,4.7c0.5,0.9,1.3,1.6,2.3,1.8
		c0.8,0.2,1.6,0.1,2.4-0.3c17.3-8.8,32.3-17.7,45.2-26.2c0.2,1.4,0.9,3.4,3.1,4.9c1,0.7,2.2,1.2,3.8,1.6c2,0.5,4.4,0.7,7,0.7
		c8.3,0,18.9-2,25.4-3.4c1.8-0.4,3.1-1.7,3.7-3.4c7.1,1.2,14.4,2.3,21.9,3.2c0.9,0.1,1.7-0.1,2.4-0.6c0.8-0.5,1.4-1.4,1.5-2.5
		c0.2-1.9-1.1-3.7-3.1-3.9c-7-0.8-13.7-1.8-20.4-2.9c6.9-0.9,13.4-2.3,17.3-3.1c2.7-0.6,4.4-3.3,3.8-6c-0.3-1.1-0.9-2.1-1.8-2.8
		c12.7-3.2,23.9-1.9,31.6,0.1c-23.5,36.2-64.2,60.2-110.5,60.2c-45,0-84.8-22.7-108.6-57.3C58,448.8,67.4,450.3,77.2,451.8z
		 M177.6,443.6c0,0.1,0.1,0.1,0.1,0.2c-0.2-0.1-0.5-0.2-0.7-0.2c-0.6-0.2-1.3-0.2-1.9-0.1c0-2.9-0.7-6-1.9-9.1
		c0.5-2.4,1.1-4.7,1.7-6.8C174.6,433.6,175.3,439.4,177.6,443.6z M173.3,447.9c0.4-0.6,0.8-1,1.8-1.2c0.4-0.1,0.7-0.1,1.1,0
		c1.5,0.3,2.4,1.8,2,3.3c-0.3,1.5-1.8,2.4-3.3,2c-0.9-0.2-1.6-0.8-1.9-1.6C172.8,449.5,173,448.5,173.3,447.9z M182.3,436l0.1,0.4
		c0.4,1.2,0.9,2.4,1.6,3.5c-1.3,0.5-2.6,1.3-3.5,2.4c-1.2-2.1-2-4.5-2.4-6.9c-1.4-10.2,1.9-25.1,4.6-33.6c0.3-0.9,1.1-1.4,1.9-1.4
		c0.3,0,0.6,0.1,0.9,0.2c0.9,0.5,1.2,1.5,0.9,2.4C184.5,409.6,180.5,426.3,182.3,436z M198,423.8c0.6-2.6,3.2-4.2,5.8-3.6
		s4.2,3.2,3.6,5.8c-0.6,2.6-3.2,4.2-5.8,3.6C199,429,197.4,426.4,198,423.8z M202.9,384.3c0.3-0.9,1.1-1.4,1.9-1.4
		c0.2,0,0.4,0,0.6,0.1c1,0.3,1.6,1.4,1.3,2.5c-1.7,5.5-4.8,18.1-4.7,27.8c-0.6,1.3-1.3,2.7-2,4.1c-0.6,0.2-1.1,0.5-1.6,0.8
		C196.9,407.9,200.2,392.9,202.9,384.3z M245.5,410c1.5-0.1,2.2,0.9,2.4,1.8c0.2,0.7-0.3,1.8-1.3,2.2c-0.2,0.1-0.6,0.3-1.2,0.7
		c0.1-0.2,0.1-0.4,0.2-0.7C245.9,412.7,245.8,411.3,245.5,410z M244.2,407.5c-0.3-0.4-0.7-0.8-1.1-1.2c5.7-2.8,11-6.2,14.2-8.3
		c2.4-1.5,3.5-2.3,4.3-2.6c1-0.4,2.2,0.1,2.6,1.1s-0.1,2.2-1.2,2.6c-0.5,0.2-1.7,1-3.5,2.2c-2.8,1.8-6.6,4.3-10.9,6.6
		C247.3,407.2,245.7,406.9,244.2,407.5z M269.7,416.9c1.1-0.2,2.1,0.4,2.4,1.5c0.1,0.5,0,1.1-0.3,1.5s-0.7,0.8-1.3,0.9
		c-5.4,1.2-21.6,4.5-32.6,4.1c0.1-0.7,0.1-1.3,0.1-1.9c1.2-0.7,2.3-1.4,3.3-2C249.1,420.6,260,419,269.7,416.9z M242.4,413.3
		c-0.6,2.6-3.2,4.2-5.8,3.6s-4.2-3.2-3.6-5.8s3.2-4.2,5.8-3.6S243,410.7,242.4,413.3z M228.9,428.3c-2.6-0.6-4.2-3.2-3.6-5.8
		c0.6-2.6,3.2-4.2,5.8-3.6s4.2,3.2,3.6,5.8S231.5,428.9,228.9,428.3z M230.8,437.1c0.1-0.6,0.2-1.1,0.2-1.7c6.8-0.7,14.8-2,22.2-3.6
		c1.1-0.2,2.1,0.4,2.4,1.5c0.1,0.5,0,1.1-0.3,1.5s-0.7,0.8-1.2,0.9c-4.1,0.9-14.7,3.1-24.3,3.9C230.2,438.8,230.6,438,230.8,437.1z
		 M227.6,436.3c-0.6,2.6-3.2,4.2-5.8,3.6s-4.2-3.2-3.6-5.8c0.3-1.2,1-2.1,1.9-2.8c0.1-0.1,0.3-0.2,0.4-0.3c1-0.6,2.3-0.8,3.5-0.5
		C226.7,431.1,228.3,433.7,227.6,436.3z M235.5,404.5c-1.7,0.5-3.3,1.6-4.3,3c-0.4,0.1-0.8,0.1-1.2,0.2c3.6-10,10.2-23.9,16.2-35.4
		c0.2-0.5,0.7-0.8,1.2-1c0.2-0.1,0.4-0.1,0.6-0.1c0.3,0,0.6,0.1,0.9,0.2c1,0.5,1.4,1.7,0.8,2.7C245.2,382.8,239.4,394.8,235.5,404.5
		z M233.3,389c-2.4,4.7-5.3,10.4-8,16.1c-0.2-0.1-0.4-0.1-0.6-0.2c-0.8-0.2-1.7-0.3-2.5-0.2c-0.2-0.5-0.3-1.1-0.4-1.7
		c2.5-5.4,5.3-10.9,7.9-15.9c0.2-0.5,0.7-0.8,1.2-1c0.2-0.1,0.4-0.1,0.6-0.1c0.3,0,0.6,0.1,0.9,0.2c0.5,0.2,0.8,0.7,1,1.2
		C233.6,388,233.5,388.5,233.3,389z M224,408.1c2.6,0.6,4.2,3.2,3.6,5.8c-0.6,2.6-3.2,4.2-5.8,3.6s-4.2-3.2-3.6-5.8
		C218.8,409.1,221.4,407.5,224,408.1z M218.7,402.6l0.6,2.9c-1.2,0.6-2.3,1.5-3.1,2.6c-0.1-0.2-0.3-0.3-0.3-0.4
		c0.6-1.2,0.7-2.5,0.3-3.7c-0.3-0.9-0.8-1.7-1.6-2.3c-0.9-10.1,2.2-24.1,4.7-32.4c0.3-1,1.4-1.6,2.5-1.3c1,0.3,1.6,1.4,1.3,2.5
		C221.2,376.9,217.3,392.8,218.7,402.6z M217.1,419.7c2.6,0.6,4.2,3.2,3.6,5.8c-0.3,1.2-1,2.1-1.9,2.8c-0.1,0.1-0.3,0.2-0.4,0.3
		c-1,0.6-2.3,0.8-3.5,0.5c-2.6-0.6-4.2-3.2-3.6-5.8C211.9,420.7,214.5,419.1,217.1,419.7z M178.3,467.1c2.4,0.6,4.8,0,6.7-1.4
		c1.3,0,2.7-0.1,4.2-0.2c0.7,0.5,1.6,0.9,2.5,1.1c2.9,0.7,5.8-0.3,7.7-2.3c1.3-0.2,2.6-0.4,3.9-0.7c2.9,0.6,5.8,1.1,8.8,1.6v0.1
		c-0.3,0.4-0.7,0.8-1.3,0.9c-6.7,1.5-23,4.7-31.1,2.8c-1.2-0.3-2.1-0.7-2.8-1.1c-0.9-0.6-1.5-1.5-1.7-2.4
		C176,466.3,177.1,466.8,178.3,467.1z M175.5,458.1c0.6-2.6,3.2-4.2,5.8-3.6s4.2,3.2,3.6,5.8c-0.6,2.6-3.2,4.2-5.8,3.6
		S174.9,460.7,175.5,458.1z M198.2,459.9c-0.6,2.6-3.2,4.2-5.8,3.6s-4.2-3.2-3.6-5.8c0.6-2.6,3.2-4.2,5.8-3.6
		c0.6,0.2,1.2,0.4,1.7,0.8l0,0C197.9,456,198.7,458,198.2,459.9z M196.7,447.5c0.6-2.6,3.2-4.2,5.8-3.6s4.2,3.2,3.6,5.8
		c-0.6,2.6-3.2,4.2-5.8,3.6c-0.6-0.2-1.2-0.4-1.7-0.8l0,0C197,451.4,196.3,449.4,196.7,447.5z M201.4,457.2c0-0.2-0.1-0.3-0.1-0.5
		c2.8,0,5.3-1.4,6.8-3.6c7.4-0.5,16.6-2,25-3.8c1.1-0.2,2.1,0.4,2.4,1.5c0.1,0.5,0,1.1-0.3,1.5s-0.7,0.8-1.3,0.9
		C228.6,454.3,212.4,457.6,201.4,457.2z M204.7,435.5c0.6-2.6,3.2-4.2,5.8-3.6s4.2,3.2,3.6,5.8c-0.6,2.6-3.2,4.2-5.8,3.6
		C205.7,440.7,204.1,438.1,204.7,435.5z M207.6,413.8c0.3-1.5,1.8-2.4,3.3-2c1.5,0.3,2.4,1.8,2,3.3c-0.3,1.5-1.8,2.4-3.3,2
		C208.1,416.7,207.2,415.2,207.6,413.8z M212.6,407.5c-0.2,0.4-0.4,0.8-0.6,1.2c-0.1,0-0.3-0.1-0.4-0.1c-1.5-0.4-3-0.1-4.3,0.6
		c0.8-1.6,1.6-3.1,2.4-4.6c0.4-0.7,1.1-1.1,1.8-1.1c0.1,0,0.3,0,0.4,0c0.9,0.2,1.5,0.7,1.5,1.5C213.3,406,213.3,406.1,212.6,407.5z
		 M200.5,438.1c-0.6,2.6-3.2,4.2-5.8,3.6s-4.2-3.2-3.6-5.8s3.2-4.2,5.8-3.6C199.5,432.9,201.1,435.5,200.5,438.1z M194,428.2
		c-0.2,0.3-0.3,0.7-0.5,1c-2.7,0.8-4.9,3-5.5,5.9c-0.4,1.6-0.3,3.1,0.2,4.5c-0.4-0.1-0.9-0.1-1.3-0.2c-0.2-0.2-0.4-0.5-0.6-0.8
		c-0.4-0.6-0.6-1.4-0.9-2.3c1.6-3.4,3.3-6.7,5-10c0.4-0.7,1.1-1.1,1.8-1.1c0.3,0,0.6,0.1,0.9,0.2C194.1,426.1,194.5,427.3,194,428.2
		z M187.8,442.8c2.6,0.6,4.2,3.2,3.6,5.8c-0.6,2.6-3.2,4.2-5.8,3.6s-4.2-3.2-3.6-5.8C182.6,443.8,185.2,442.2,187.8,442.8z"/>
	<path class="st5" d="M197.5,280c0,10.9-17.8,6.8-39.7,6.8s-39.7,4.2-39.7-6.8c0-10.9,17.8-19.8,39.7-19.8S197.5,269,197.5,280z"/>
</g>
</svg>
