<?xml version="1.0" encoding="utf-8"?>
<!-- Generator: Adobe Illustrator 27.7.0, SVG Export Plug-In . SVG Version: 6.00 Build 0)  -->
<svg version="1.1" id="레이어_1" xmlns="http://www.w3.org/2000/svg" xmlns:xlink="http://www.w3.org/1999/xlink" x="0px"
	 y="0px" width="315.9px" height="534.5px" viewBox="0 0 315.9 534.5" style="enable-background:new 0 0 315.9 534.5;"
	 xml:space="preserve">
<style type="text/css">
	.st0{opacity:0.2;fill:#F4EAD4;enable-background:new    ;}
	.st1{fill:#DBDBDB;}
	.st2{opacity:0.2;fill:#FFFFFF;enable-background:new    ;}
	.st3{fill:#231815;}
</style>
<g>
	<path class="st0" d="M299.4,376c0,78.2-63.4,141.6-141.6,141.6S16.2,454.2,16.2,376s63.4-141.6,141.6-141.6
		C236,234.3,299.4,297.7,299.4,376z M191.1,238.1L191.1,238.1v-27.9c0-18.4-14.9-20-33.3-20l0,0c-18.4,0-33.3,1.6-33.3,20v27.9l0,0
		C146.4,232.9,169.2,232.9,191.1,238.1z"/>
	<path class="st1" d="M269,420.9c-0.6-1.6-2.5-2.4-4.1-1.8l-8.3,3.2l-12.3-5.4l6.4-2.5h0.1c1.6-0.6,2.4-2.5,1.8-4.1
		c-0.6-1.6-2.4-2.4-4-1.7l-12.3,4.8l-8.5-3.7l13.7-5.4l-22-9.6l16.9-6.7l12.4,5.4c0.8,0.3,1.7,0.4,2.4,0c0.8-0.3,1.4-0.9,1.8-1.6
		c0.7-1.5,0-3.4-1.6-4.1l-6.6-2.9l12.7-5l8.2,3.6c1.5,0.7,3.4,0,4.1-1.6c0.7-1.5,0-3.4-1.6-4.1l-6.6-2.9l2.9-6.6
		c0.7-1.5,0-3.4-1.6-4.1c-1.5-0.7-3.4,0-4.1,1.6l-3.6,8.3l-12.6,5l3-6.7c0.7-1.5,0-3.4-1.6-4.1c-0.8-0.3-1.7-0.4-2.4,0
		c-0.8,0.3-1.4,0.9-1.8,1.6l-5.4,12.5l-16.8,6.7l9.6-22l-13.8,5.4l3.6-8.3l12.6-4.9h0.1c1.6-0.6,2.4-2.5,1.8-4.1
		c-0.6-1.6-2.4-2.4-4-1.7L220,356l5.5-12.5l8.4-3.3c1.6-0.6,2.4-2.5,1.8-4.1c-0.6-1.6-2.4-2.4-4-1.7L225,337l-2.6-6.7
		c-0.6-1.6-2.5-2.4-4.1-1.8s-2.4,2.5-1.8,4.1l3.2,8.2l-5.4,12.4l-2.4-6.6c-0.6-1.6-2.4-2.4-4-1.7c0,0,0,0-0.1,0l0,0
		c-1.6,0.6-2.4,2.5-1.8,4.1l4.9,12.5l-3.6,8.4l-5.5-13.8l-9.6,22l-6.7-17l5.4-12.5c0.7-1.5,0-3.4-1.6-4.1c-0.8-0.3-1.7-0.4-2.4,0
		c-0.8,0.3-1.4,0.9-1.8,1.6l-2.9,6.6l-5-12.7l3.5-8c0.7-1.5,0-3.4-1.6-4.1c-1.5-0.7-3.4,0-4.1,1.6l-2.9,6.6l-6.6-2.9
		c-1.5-0.7-3.4,0-4.1,1.6c-0.3,0.8-0.4,1.6-0.1,2.4c0.3,0.7,0.9,1.4,1.7,1.7l8.3,3.7l5,12.3l-6.5-2.8c-0.8-0.3-1.7-0.4-2.4,0
		c-0.8,0.3-1.4,0.9-1.8,1.6c-0.3,0.8-0.4,1.6-0.1,2.4c0.3,0.7,0.9,1.4,1.7,1.7l12.3,5.4l6.7,17.1l-22.1-9.6l5.4,13.7l-8-3.5
		l-5.1-12.9c-0.6-1.6-2.4-2.4-4-1.7c0,0,0,0-0.1,0l0,0c-1.6,0.6-2.4,2.5-1.8,4.1l2.8,7l-12.6-5.5l-3.2-8.2c-0.6-1.6-2.4-2.4-4-1.7
		c-1.6,0.6-2.4,2.5-1.8,4.1l2.6,6.7l-6.7,2.6c-1.6,0.6-2.4,2.5-1.8,4.1s2.4,2.4,4,1.7l8.4-3.3l12.2,5.3l-6.4,2.5h-0.1
		c-1.6,0.6-2.4,2.5-1.8,4.1c0.6,1.6,2.4,2.4,4,1.7l12.3-4.8l8.6,3.7l-13.8,5.3l22,9.6l-16.8,6.7l-12.3-5.4c-0.8-0.3-1.7-0.4-2.4,0
		c-0.8,0.3-1.4,0.9-1.8,1.6c-0.7,1.5,0,3.4,1.6,4.1l6.6,2.9l-12.8,5l-8.2-3.6c-1.5-0.7-3.4,0-4.1,1.6c-0.7,1.5,0,3.4,1.6,4.1
		l6.6,2.9l-2.9,6.6c-0.3,0.8-0.4,1.6-0.1,2.4c0.3,0.7,0.9,1.4,1.7,1.7c1.5,0.7,3.4,0,4.1-1.6l3.6-8.2l12.9-5.1l-3,6.7
		c-0.3,0.8-0.4,1.6-0.1,2.4c0.3,0.7,0.9,1.4,1.7,1.7c0.8,0.3,1.7,0.4,2.4,0c0.8-0.3,1.4-0.9,1.8-1.6l5.4-12.5l16.8-6.6l-9.6,22.2
		l13.8-5.4l-3.6,8.1l-12.5,5h-0.1c-1.6,0.6-2.4,2.5-1.8,4.1c0.6,1.6,2.4,2.4,4,1.7l6.8-2.7l-5.5,12.7l-8.2,3.2
		c-1.6,0.6-2.4,2.5-1.8,4.1s2.4,2.4,4,1.7l6.7-2.6l2.6,6.7c0.6,1.6,2.4,2.4,4,1.7c1.6-0.6,2.4-2.5,1.8-4.1l-3.3-8.5l5.4-12.3
		l2.6,6.7c0.6,1.6,2.4,2.4,4,1.7c0,0,0,0,0.1,0l0,0c1.6-0.6,2.4-2.5,1.8-4.1l-4.9-12.5l3.5-8.1l5.4,13.8l9.6-22.2l6.7,17l-5.4,12.4
		c-0.3,0.8-0.4,1.6-0.1,2.4c0.3,0.7,0.9,1.4,1.7,1.7c0.8,0.3,1.7,0.4,2.4,0c0.8-0.3,1.4-0.9,1.8-1.6l2.9-6.6l5,12.7l-3.6,8.3
		c-0.3,0.8-0.4,1.6-0.1,2.4c0.3,0.7,0.9,1.4,1.7,1.7c1.5,0.7,3.4,0,4.1-1.6l2.8-6.6l6.6,2.9c1.5,0.7,3.4,0,4.1-1.6
		c0.7-1.5,0-3.4-1.6-4.1l-8.1-3.5l-5-12.8l6.5,2.8c0.8,0.3,1.7,0.4,2.4,0c0.8-0.3,1.4-0.9,1.8-1.6c0.7-1.5,0-3.4-1.6-4.1l-12.4-5.4
		l-6.7-16.9l21.9,9.5l-5.4-13.8l8.3,3.6l5,12.8c0.6,1.6,2.4,2.4,4,1.7c0,0,0,0,0.1,0l0,0c1.6-0.6,2.4-2.5,1.8-4.1l-2.7-7l12.7,5.5
		l3.2,8.3c0.6,1.6,2.4,2.4,4,1.7c1.6-0.6,2.4-2.5,1.8-4.1l-2.6-6.7l6.7-2.6C268.8,424.3,269.6,422.5,269,420.9z M189.5,388.8
		l2.2,5.5l-14-6.1l-2.2-5.5L189.5,388.8z M169.7,396.3l5.6-2.2l13.9,6.1l-5.6,2.2L169.7,396.3z M185.3,420l-5.5,2.2l6.2-14.1
		l5.5-2.2L185.3,420z M197.5,392l-2.2-5.6l6-13.9l2.2,5.6L197.5,392z M209.3,380.6l5.5-2.2l-6.1,13.9l-5.5,2.2L209.3,380.6z
		 M193.3,428.1l-2.2-5.5l6.2-14.1l2.2,5.5L193.3,428.1z M205.3,411.7l-2.2-5.6l13.9,6l2.2,5.6L205.3,411.7z M219.5,406.4l-14-6.1
		l5.5-2.2l14,6.1L219.5,406.4z M108.4,380.2c-0.7-0.3-1.5,0.1-1.8,0.9l-1.4,3.8l-5.5,2.6l1.1-2.9l0,0c0.3-0.7-0.1-1.5-0.9-1.8
		c-0.7-0.3-1.5,0.1-1.8,0.8l-2,5.6l-3.8,1.8l2.3-6.2l-9.8,4.6l2.8-7.7l5.5-2.6c0.3-0.2,0.6-0.5,0.7-0.8s0.1-0.7,0-1.1
		c-0.3-0.7-1.2-1-1.9-0.7l-2.9,1.4l2.1-5.8l3.7-1.7c0.7-0.3,1-1.2,0.7-1.9c-0.3-0.7-1.2-1-1.9-0.7l-2.9,1.4l-1.4-2.9
		c-0.3-0.7-1.2-1-1.9-0.7c-0.7,0.3-1,1.2-0.7,1.9l1.7,3.7l-2.1,5.7l-1.4-3c-0.3-0.7-1.2-1-1.9-0.7c-0.3,0.2-0.6,0.5-0.7,0.8
		s-0.1,0.7,0,1.1l2.6,5.5l-2.8,7.7l-4.6-9.8l-2.3,6.2l-1.7-3.7l2.1-5.7l0,0c0.3-0.7-0.1-1.5-0.9-1.8c-0.7-0.3-1.5,0.1-1.8,0.8
		l-1.1,3.1l-2.6-5.6l1.4-3.8c0.3-0.7-0.1-1.5-0.9-1.8c-0.7-0.3-1.5,0.1-1.8,0.8l-1.1,3l-3-1.1c-0.7-0.3-1.5,0.1-1.8,0.9
		c-0.3,0.7,0.1,1.5,0.9,1.8l3.7,1.4l2.6,5.5l-2.9-1.2c-0.7-0.3-1.5,0.1-1.8,0.8l0,0l0,0c-0.3,0.7,0.1,1.5,0.9,1.8l5.7,2.1l1.7,3.7
		l-6.3-2.3l4.6,9.8l-7.7-2.8l-2.6-5.5c-0.3-0.7-1.2-1-1.9-0.7c-0.3,0.2-0.6,0.5-0.7,0.8c-0.1,0.3-0.1,0.7,0,1.1l1.4,3l-5.8-2.1
		l-1.7-3.6c-0.3-0.7-1.2-1-1.9-0.7s-1,1.2-0.7,1.9l1.4,2.9l-2.9,1.4c-0.7,0.3-1,1.2-0.7,1.9c0.2,0.3,0.4,0.6,0.8,0.7s0.7,0.1,1.1,0
		L53,390l5.6,2l-2.9,1.3c-0.3,0.2-0.6,0.5-0.7,0.8c-0.1,0.3-0.1,0.7,0,1.1c0.2,0.3,0.4,0.6,0.8,0.7s0.7,0.1,1.1,0l5.5-2.5l7.8,2.8
		l-9.8,4.6l6.2,2.3l-3.5,1.6l-5.9-2.1c-0.7-0.3-1.5,0.1-1.8,0.8l0,0l0,0c-0.3,0.7,0.1,1.5,0.9,1.8l3.2,1.1l-5.6,2.6l-3.7-1.4
		c-0.7-0.3-1.5,0.1-1.8,0.8c-0.3,0.7,0.1,1.5,0.9,1.8l3,1.1l-1.1,3c-0.3,0.7,0.1,1.5,0.9,1.8c0.7,0.3,1.5-0.1,1.8-0.8l1.4-3.8
		l5.4-2.5l-1.1,2.9l0,0c-0.3,0.7,0.1,1.5,0.9,1.8c0.7,0.3,1.5-0.1,1.8-0.8l2-5.6l3.8-1.8l-2.3,6.2l9.8-4.6l-2.8,7.7l-5.5,2.5
		c-0.3,0.2-0.6,0.5-0.7,0.8s-0.1,0.7,0,1.1c0.3,0.7,1.2,1,1.9,0.7l3-1.4l-2.1,5.8l-3.7,1.7c-0.7,0.3-1,1.2-0.7,1.9
		c0.3,0.7,1.2,1,1.9,0.7l2.9-1.4l1.4,2.9c0.2,0.3,0.4,0.6,0.8,0.7c0.3,0.1,0.7,0.1,1.1,0c0.7-0.3,1-1.2,0.7-1.9l-1.7-3.7l2.1-5.9
		l1.4,3c0.2,0.3,0.4,0.6,0.8,0.7s0.7,0.1,1.1,0c0.3-0.2,0.6-0.5,0.7-0.8s0.1-0.7,0-1.1l-2.6-5.5l2.7-7.6l4.6,9.8l2.3-6.2l1.7,3.6
		l-2,5.7l0,0c-0.3,0.7,0.1,1.5,0.9,1.8s1.5-0.1,1.8-0.8l1.1-3.1l2.6,5.6l-1.4,3.7c-0.3,0.7,0.1,1.5,0.9,1.8c0.7,0.3,1.5-0.1,1.8-0.8
		l1.1-3l3,1.1c0.7,0.3,1.5-0.1,1.8-0.8c0.3-0.7-0.1-1.5-0.9-1.8l-3.9-1.4l-2.6-5.5l3,1.1c0.7,0.3,1.5-0.1,1.8-0.8l0,0l0,0
		c0.3-0.7-0.1-1.5-0.9-1.8l-5.7-2.1l-1.7-3.6l6.2,2.3l-4.6-9.8l7.7,2.8l2.6,5.5c0.2,0.3,0.4,0.6,0.8,0.7s0.7,0.1,1.1,0
		c0.3-0.2,0.6-0.5,0.7-0.8s0.1-0.7,0-1.1l-1.4-2.9l5.8,2.1l1.7,3.7c0.2,0.3,0.4,0.6,0.8,0.7s0.7,0.1,1.1,0c0.7-0.3,1-1.2,0.7-1.9
		l-1.4-2.9l2.9-1.4c0.7-0.3,1-1.2,0.7-1.9c-0.3-0.7-1.2-1-1.9-0.7l-3.6,1.7l-5.8-2.1l2.9-1.4c0.3-0.2,0.6-0.5,0.7-0.8s0.1-0.7,0-1.1
		c-0.3-0.7-1.2-1-1.9-0.7l-5.5,2.6l-7.7-2.8l9.7-4.6l-6.3-2.3l3.7-1.7l5.8,2.1c0.7,0.3,1.5-0.1,1.8-0.8l0,0l0,0
		c0.3-0.7-0.1-1.5-0.9-1.8l-3.2-1.2l5.6-2.6l3.8,1.4c0.7,0.3,1.5-0.1,1.8-0.8c0.3-0.7-0.1-1.5-0.9-1.8l-3-1.1l1.1-3
		C109.5,381.3,109.1,380.5,108.4,380.2z M73.9,397.5l2.5,0.9l-6.2,2.9l-2.5-0.9L73.9,397.5z M70.6,406.4l0.9-2.5l6.2-2.9l-0.9,2.5
		L70.6,406.4z M83.2,408.2l-0.9,2.5l-2.9-6.3l0.9-2.5L83.2,408.2z M77.4,395.7l-2.5-0.9l-2.9-6.2l2.5,0.9L77.4,395.7z M77.1,388.4
		l0.9-2.5l2.9,6.2l-0.9,2.5L77.1,388.4z M88.3,407.9l-2.5-0.9l-2.9-6.3l2.5,0.9L88.3,407.9z M86.4,399l-2.5-0.9l6.1-2.9l2.5,0.9
		L86.4,399z M88.8,392.6l-6.2,2.9l0.9-2.5l6.2-2.9L88.8,392.6z"/>
	<path class="st2" d="M197.5,280c0,10.9-17.8,6.8-39.7,6.8s-39.7,4.2-39.7-6.8c0-10.9,17.8-19.8,39.7-19.8S197.5,269,197.5,280z
		 M100.4,466.1c0-10.9,25.7-3.2,57.4-3.2s57.4-7.8,57.4,3.2c0,10.9-25.7,23.5-57.4,23.5S100.4,477.1,100.4,466.1z"/>
	<path class="st3" d="M201.1,230.6v-20.5c0-24-18.7-28.8-33.3-29.8V7.1h-20v173.3c-14.7,1-33.3,5.8-33.3,29.8v20.5
		C51.9,249.3,6.2,307.4,6.2,376c0,83.6,68,151.6,151.6,151.6s151.6-68,151.6-151.6C309.4,307.4,263.7,249.3,201.1,230.6z
		 M134.5,210.2c0-6,0-10,23.3-10s23.3,4,23.3,10V226c-7.7-1.2-15.5-1.8-23.3-1.8s-15.6,0.6-23.3,1.8V210.2z M157.8,507.6
		c-72.6,0-131.6-59-131.6-131.6s59-131.6,131.6-131.6s131.6,59,131.6,131.6C289.4,448.5,230.4,507.6,157.8,507.6z"/>
</g>
</svg>
