<?xml version="1.0" encoding="utf-8"?>
<!-- Generator: Adobe Illustrator 27.7.0, SVG Export Plug-In . SVG Version: 6.00 Build 0)  -->
<svg version="1.1" id="레이어_1" xmlns="http://www.w3.org/2000/svg" xmlns:xlink="http://www.w3.org/1999/xlink" x="0px"
	 y="0px" width="935.7px" height="1359.8px" viewBox="0 0 935.7 1359.8" style="enable-background:new 0 0 935.7 1359.8;"
	 xml:space="preserve">
<style type="text/css">
	.st0{fill:#F7F7F7;}
	.st1{fill:#FF8585;}
	.st2{fill:#333333;}
	.st3{fill:#30C42C;}
	.st4{fill:#FF1526;}
	.st5{fill:#231815;}
</style>
<g>
	<path class="st0" d="M877.3,1269.7c-0.6,89.4-140.3,73.4-140.3,73.4c-217.3-24.9-292-29-477.4-6.9s-197.5-49.1-197.5-49.1
		c-21.6-111.5,101.1-128.9,101.1-128.9c8.4-77,52.9-183.3,68-217.8C49,860.8,150.7,669.3,150.7,573.8
		c0-265.1,303.3-255.1,303.3-255.1h38.2c0,0,303.3-10,303.3,255.1c0,97,104.9,293.1-89.3,370.3c56.1,137,66.6,213.8,66.6,213.8
		C784.4,1158.8,877.9,1180.3,877.3,1269.7z"/>
	<path class="st1" d="M349,640.7c0,30.7-25,55.6-55.8,55.6s-55.8-24.9-55.8-55.6s25-55.6,55.8-55.6S349,610,349,640.7z M646.5,585.1
		c-30.8,0-55.8,24.9-55.8,55.6s25,55.6,55.8,55.6s55.8-24.9,55.8-55.6S677.3,585.1,646.5,585.1z"/>
	<path class="st2" d="M881,445.4c-10.6-83.1-141.7-168.1-407.9-168.7c186.5,0,266.2,38.8,266.2,38.8V120.9c0-24.2-14-46.2-36-56.3
		c-40.5-18.5-116-43.2-230.3-43.2h-2.4c-114.2,0-189.7,24.7-230.3,43.2c-22,10-36,32.1-36,56.3v194.7c0,0,77.8-36.7,253.5-38.7
		c-257.4,3.1-384.6,86.8-395,168.5c-8.9,69.7,58.7,104.5,81.1,114c3.4,1.4,7.2-0.5,8-4.1c5.3-23.2,109.8-97.5,320-97.8
		c210.2,0.3,314.8,74.5,320,97.8c0.8,3.6,4.6,5.6,8,4.1C822.3,549.9,889.9,515.2,881,445.4z M468.5,276.8c-3.1,0-6.3,0-9.4,0.1
		C462.2,276.8,465.3,276.8,468.5,276.8z"/>
	<path class="st3" d="M579.7,212c-16.4-10.7-14.1-47.6-14.1-47.6c41.5-2.7,51.1,10.7,51.1,10.7c21.9-0.4,16.1,21.4,16.1,21.4
		c-24.7,5-32.3,35.7-32.3,35.7C580,234.8,579.7,212,579.7,212z M585,227.1c0,0-12.8-12.1-33.3,2.7c0,0-19.9-6.5-34.1,15.4
		c0,0,7,22.5,33.7,22.5c0,0,6.3,9.5,14.5,8.6c0,0-0.8-32.5,22.3-41.9L585,227.1z M702.7,293.8c26.3-14.2,26.4-39.6,26.4-39.6
		c-24.9-16.5-47.2,0-47.2,0C701.7,266.7,702.7,293.8,702.7,293.8z"/>
	<path class="st4" d="M469.1,556.7c38.6,0,69.9,31.2,69.9,69.7s-31.3,69.7-69.9,69.7s-69.9-31.2-69.9-69.7S430.5,556.7,469.1,556.7z
		 M749.1,989.2L736.7,960c-17.1-40.8-2-49.3-124.1-35.7S370,929,370,929c-132.6-15.4-154.9,3.7-154.9,3.7s-22.6,12.1-28.8,37.8
		c-3.9,16-8.5,22.8-7.8,36.3c0.4,7.5,3.2,14.2,11.3,13.7c28.7-1.8,92.9-4.1,181.2,3c121.9,9.8,229.1,2.7,308.1,0
		C758.2,1020.9,749.1,989.2,749.1,989.2z M453.6,276.8c-165.3,0-249.2,38.8-249.2,38.8V259c80.6-39.1,252.1-38.5,252.1-38.5h120.6
		c0.5,0,0.6,0.7,0.1,0.9c-17.4,3.9-25.6,8.4-25.6,8.4c-23.1-3.9-34.1,15.4-34.1,15.4c7.7,21.6,33.7,22.5,33.7,22.5
		c5.8,6.1,13,8.2,14.3,8.6c-0.5-10.3,0.8-41.2,32.3-43.8c1.2-0.1,2.3-0.2,3.4-0.2c-0.5,0-0.8,0-0.8,0s12.5-50.5,61.8-33.6
		c36.3,12.4,19.6,55.5,19.6,55.5c24.3,12.7,20.6,48.6,20.6,48.6s-30.6-9.5-69.8-14.8c0,0,0.9-17.8,10.8-29c0,0-12.8,13-10.8,29
		c0,0-34.9-5.8-66.9-8.4C533.6,279,453.6,276.8,453.6,276.8z M643.6,259c0.5-0.6,1.1-1.2,1.6-1.7C644.1,258.2,643.6,259,643.6,259z
		 M601.8,232.2c0.1,0,0.2,0,0.2,0S601.9,232.2,601.8,232.2z M463.9,1059.8c-11.9,0-21.5,9.6-21.5,21.5s9.6,21.5,21.5,21.5
		s21.5-9.6,21.5-21.5C485.4,1069.5,475.8,1059.8,463.9,1059.8z M463.9,1141.3c-11.9,0-21.5,9.6-21.5,21.5s9.6,21.5,21.5,21.5
		s21.5-9.6,21.5-21.5S475.8,1141.3,463.9,1141.3z M711.3,1021c-30.5,8.3-108.2,7.6-108.2,7.6v178.1c28.2,13.3,122.4,0,122.4,0
		c6.2-65.7-3.4-155.4-6.4-181C718.6,1022.2,714.9,1020,711.3,1021z"/>
	<path class="st5" d="M835.2,1172.3c-20.8-14-42.1-20.5-53.8-23c-3-16.7-12.4-61.6-36.7-131.6c3.6-2.6,6.6-5.5,8.9-8.7
		c8-11,5.4-21.4,5-22.6l-0.2-0.6l-12.6-29.7c-2-4.9-3.6-9.3-5-13.3c-0.4-1.1-0.8-2.3-1.2-3.4c53.4-29.2,83.4-71.7,91.7-129.8
		c7.4-51.8-4-107-14-155.7c-6.2-30-12-58.3-12-80.1c0-2.6,0-4.4-0.1-5.8c24.5-10.7,95.2-48.4,85.6-123.8
		c-6.1-47.7-46.5-91.4-113.8-123.1c-8.8-4.2-18.1-8.1-27.8-11.8V120.9c0-28.1-16.4-53.8-41.9-65.4C663.4,35.4,587,11.4,473.1,11.4
		h-2.4c-113.9,0-190.3,24-234.4,44.1c-25.4,11.6-41.9,37.3-41.9,65.4v188.4c-9.7,3.7-18.9,7.6-27.8,11.8
		C99.4,352.8,58.9,396.5,52.9,444.2C43,521.1,117,558.9,140,568.6c0.3,0.1,0.5,0.2,0.8,0.3c0,1.3-0.1,2.9-0.1,4.9
		c0,21.8-5.8,50.2-12,80.1c-9.7,47.4-20.8,101.2-14.5,151.9c7,56.5,34.1,98.5,82.8,128.1c-7.7,7.3-16.6,18.5-20.4,34.2
		c-1.2,5-2.5,8.9-3.7,12.8c-2.7,8.4-5,15.6-4.4,26.4c0.4,8.2,3,14.4,7.6,18.5c1.9,1.7,4.9,3.6,9.1,4.4
		c-16.3,46.8-26.7,86.9-31.1,119.5c-17.6,3.9-60.9,16.6-86.1,51.9c-17,24-22.3,53.4-15.7,87.4c0.5,2.9,5.2,23.1,34.1,39.7
		c36.7,21.1,95.4,27,174.4,17.5c183.2-21.9,258.2-17.9,475.1,6.9c1.2,0.1,11.1,1.2,25.3,1.2c28.4,0,74.1-4.3,102-29
		c15.9-14.1,24-32.7,24.2-55.4C887.6,1229.2,869.6,1195.4,835.2,1172.3z M739.5,1146.4c-0.5,0-1.3,0.1-2.1,0.2
		c-0.6-42.7-4.4-84.9-7-109c18.1,54,26.7,91.4,30.2,109.4C751.3,1146.3,744.2,1146.2,739.5,1146.4z M598.8,1215.7
		c7.3,3.4,18,5.3,30.2,6.2c-22.6,20.1-45,24.5-68.1,13.3c-9.6-4.6-15.4-11.7-17.9-21.6c-9.4-37.8,31.6-106,50.1-131.8V1213
		L598.8,1215.7z M613.1,1199.6v-161c21.2-0.1,70.2-1,96.6-6.9c3.3,29.3,10.8,106.1,6.5,166.1
		C683.4,1201.9,634.7,1205.1,613.1,1199.6z M699.9,257.4c5.2-1,11.6-0.9,18.4,2.2c-1,4.3-3.4,10.6-8.9,16.6
		C707.5,270.2,704.6,263.5,699.9,257.4z M729.4,283.1v17.7c-3.5-1.3-7.7-2.7-12.6-4.2C722.2,292.3,726.3,287.7,729.4,283.1z
		 M553.3,241l3.7-2.7c1.3-0.7,5.8-2.7,13.7-5c-1.5,1.3-2.8,2.8-4.1,4.4c-5.1,6.4-7.9,13.8-9.4,20.7l-0.5-0.7h-5.1
		c-1.4-0.1-15.4-1.1-22.2-11.3c3.5-3.6,10.1-8.2,20-6.8L553.3,241z M623.4,276.4c-11-1.7-29-4.2-47.3-6c0.9-7.9,4.1-21.9,15.5-26.6
		c2-0.7,4.1-1.1,6.5-1.3h0.7c0.7,0,1.5-0.1,2.3-0.2c0.4,0,0.7,0,1.1,0c4.4,0,21.5,0.8,29.7,15.3
		C628.9,261.8,625.1,268.4,623.4,276.4z M643.2,279.5c0.8-3.4,2.4-6.4,3.8-8.7l4-5.3l1.9-1.9c3-2.4,10.7-6.5,24.1-0.7
		c10.3,6.9,13.9,19.8,15.1,26.6C678.7,286.2,662.4,282.7,643.2,279.5z M675,241.3c-11.3-2.6-20.6-0.7-27.5,2.5
		c-5.9-8.8-16.2-17.6-32.3-20.6c3-5.3,7.6-11.1,14.1-14.6c1.9-1,4-1.8,6.1-2.4l3.1-0.6c6.1-0.9,13-0.1,20.6,2.5
		c7,2.4,11.6,6.2,14.2,11.7C676.4,226.4,676.1,234.7,675,241.3z M593.6,221.5c-0.1,0-0.1-0.1-0.2-0.1l-0.1-0.1l-1.1-1
		c-1.9-2.5-2.6-6.6-2.7-8.4l-0.1-5.3l-4.5-2.9c-6.2-4-9.1-17.6-9.6-29.5c23.4-0.1,31.7,5.9,33.2,7.1l2.1,4l6.1-0.1
		c2.8-0.1,5,0.4,5.7,1.3c0.5,0.6,0.7,1.5,0.8,2.5C606.6,195.7,597.7,211.6,593.6,221.5z M511.3,236.7c-1.1,1.5-1.9,2.6-2.2,3.2
		l-2.5,3.8l0.1,0.3l-0.1,0.2l1.5,4.3c1.7,5.4,6.1,13,13.7,19.2c-12.3-0.5-25.2-0.8-38.7-0.9v-0.1h-10h-1.2h-1.3h-10v0.1
		c-1,0-2,0-3.1,0c-2.3-0.1-3.6-0.1-3.7-0.1h-0.3c-129,0-208.6,23.1-239.2,34.1v-35.5c79.8-35.1,240.5-34.9,242.1-34.9h60.2
		C514.9,232.3,513.1,234.4,511.3,236.7z M244.6,73.7c42.3-19.3,115.8-42.3,226.1-42.3h2.4c110.3,0,183.8,23,226.1,42.3
		c18.3,8.4,30.2,26.9,30.2,47.2v121.8c-12.7-6.7-24.6-6.8-33.9-4.8c0.6-8.1,0-17.6-4.1-26.4c-4.9-10.6-13.6-18.1-25.9-22.2
		c-7.9-2.7-15.5-4-22.6-4c-0.6-3.7-2-7.6-4.8-11.1c-2.9-3.7-8.2-7.9-17.5-8.8c-6.7-5.3-22.3-12.9-55.8-10.8l-8.8,0.6l-0.6,8.8
		c-0.2,3.5-1.5,29.7,9.1,46.7H456.6c-6.7,0-156.7-0.2-242.2,33.2v-123C214.4,100.6,226.3,82.1,244.6,73.7z M72.7,446.7
		c5.2-40.7,41.6-78.9,102.5-107.5c6.2-2.9,12.6-5.7,19.3-8.4v0.4l0,0v0.1l6.5-3c67.2-25.9,155-40.1,256.8-41.4
		c13.5,0.4,55.4,1.5,86.2,2.2c76.7,5,143.7,18.1,197.6,38.6l8,3.9v-0.7c6.6,2.7,13.1,5.5,19.3,8.4c60.9,28.7,97.3,66.8,102.5,107.5
		c7.5,59.2-48,91.1-71.1,101.7c-8.5-18.2-42.4-41.6-87.5-59.9c-46-18.6-125-40.9-240.7-41c-115.6,0.1-194.7,22.4-240.6,41
		c-45.1,18.3-79.1,41.7-87.5,59.9C120.7,537.8,65.1,505.9,72.7,446.7z M148.3,657.9c6.4-31,12.4-60.3,12.4-84.2
		c0-5.6,0.1-7.1,0.4-10.4c0.1-1.4,0.3-3,0.4-5.1h-0.1c0.1-0.2,0.1-0.5,0.2-0.7c1.2-5.4,22.6-28.4,77.2-50.5
		c44.3-18,120.7-39.4,233.1-39.5c112.4,0.1,188.8,21.6,233.1,39.5c54.5,22.1,76,45,77.2,50.5c0.5,2.2,1.5,4.2,2.8,6
		c0.1,0.7,0.1,1.4,0.2,2c0.2,2.6,0.3,3.6,0.3,8.3c0,23.9,6,53.1,12.4,84.2c9.7,47.1,20.6,100.5,13.8,148.9
		c-7.3,51.1-33.8,88.7-81,114.8c-4.3-5.2-10.5-9.2-20.1-11.4c-15.6-3.5-39.6-2.5-98.9,4.2c-117.4,13.1-235,5.1-240.5,4.7
		c-102.7-11.9-141.8-3.5-155.8,2.3C106.6,861.3,129.7,748.6,148.3,657.9z M192,987c1.3-4,2.7-8.5,4.1-14.1
		c4.9-20.3,22.8-30.7,23.8-31.3l0.6,0.1l1-1.1c3.3-1.7,32.9-14.9,147.5-1.6h0.4c1.2,0.1,122.8,8.8,244.4-4.8
		c47.5-5.3,77.9-7.8,92.4-4.5c9.4,2.1,10.8,5.2,15.9,19.8c1.5,4.2,3.2,9,5.4,14.4l11.9,28.1c0,0.9-0.2,3.2-2.4,5.8
		c-4.3,5.3-17.5,14.3-58.2,15.7c-12.6,0.4-25.8,1-39.8,1.5c-73.6,3-165.3,6.7-267.2-1.5c-46.2-3.7-85.8-4.9-117.5-4.9
		c-28.6,0-50.7,1-65.1,1.9c-0.3-0.7-0.7-2-0.8-4.3C188.1,999.1,189.7,994.3,192,987z M738.1,1333.2c-218.7-25-294.4-29-479.7-6.9
		c-54.4,6.5-92.8,4.7-119.8-0.5c-4.4-24.9-15-89.4-18.2-142.7c22.4-11.7,43.8-15,44.1-15l7.7-1.1v-0.3c13.7-1.9,25.2-0.6,25.3-0.6
		c5.5,0.6,10.5-3.3,11.1-8.8s-3.3-10.5-8.8-11.1c-0.6-0.1-11.3-1.3-25.1,0c4.9-31.8,15.5-71,31.7-116.6c33.8-1.5,90.2-2.1,163.6,3.8
		c46.8,3.8,91.4,5,133.1,5c31.7,0,61.7-0.7,89.8-1.7v29.4c-0.2-0.2-0.4-0.4-0.6-0.5c-4.5-3.3-10.7-2.3-14,2.2
		c-2.8,3.8-68.8,94.7-54.9,150.6c3.9,15.8,13.6,27.5,28.6,34.8c9.3,4.5,20.6,7.9,33.1,7.9c20.8,0,45.4-9.4,71.1-38.7
		c32-0.7,64.6-5.1,70.4-5.9l7.8-1.1l0.7-7.9c1.2-12.8,1.8-26.6,2-40.6c0.6-0.1,1.2-0.3,1.8-0.6c1.9-0.2,7.9-0.5,24.7,0.8v0.1
		l8.1,0.6c3.4,0.2,23.4,4.1,44.6,16.4c-3.4,56.5-14.8,125-18.7,147.2C767.5,1336.4,738.6,1333.2,738.1,1333.2z M356.2,1067.9
		c2.8,3.8,68.6,94.7,54.7,150.6c-4,15.8-13.6,27.6-28.7,34.8c-11,5.3-22.1,8-33.1,8c-9.4,0-18.8-1.9-28.1-5.8
		c-61.3-25.5-97.4-128.4-98.9-132.7c-1.8-5.2,1-10.9,6.2-12.7c5.2-1.8,10.9,1,12.7,6.2c0.3,1,34.7,98.8,87.7,120.8
		c14.9,6.2,29.5,5.6,44.8-1.7c9.6-4.6,15.5-11.7,17.9-21.6c9.7-38.8-33.8-109.8-51.4-133.9c-3.3-4.5-2.3-10.7,2.2-14
		S353,1063.5,356.2,1067.9z M469.1,706.1c44.1,0,79.9-35.7,79.9-79.7s-35.8-79.7-79.9-79.7s-79.9,35.7-79.9,79.7
		S425,706.1,469.1,706.1z M469.1,566.7c33,0,59.9,26.8,59.9,59.7s-26.9,59.7-59.9,59.7s-59.9-26.8-59.9-59.7S436,566.7,469.1,566.7z
		 M358.3,552.3c0-8.8,6.3-16,14.1-16s14.1,7.2,14.1,16s-6.3,16-14.1,16S358.3,561.1,358.3,552.3z M551.7,552.3c0-8.8,6.3-16,14.1-16
		s14.1,7.2,14.1,16s-6.3,16-14.1,16S551.7,561.1,551.7,552.3z M304.9,742.8c-0.4-5.5,3.8-10.3,9.3-10.6c9.9-0.6,12.1-14,12.2-14.6
		c0.8-5.5,5.8-9.2,11.3-8.5c5.5,0.8,9.3,5.9,8.5,11.3c-0.5,3.6-1.8,8.3-4.2,13c2.6,3.6,8.7,10.3,20.7,17.1
		c16.5,9.3,47.8,20.4,102.8,20.4c56.9,0,91.5-11.9,110.6-21.8c11.7-6.1,18.9-12.2,22.6-15.9c-2.3-4.6-3.6-9.2-4.1-12.8
		c-0.8-5.5,3-10.5,8.5-11.3c5.4-0.8,10.5,3,11.3,8.5c0.1,0.7,2.3,13.9,12.2,14.6c5.5,0.4,9.7,5.1,9.3,10.6c-0.3,5.3-4.7,9.4-10,9.4
		c-0.2,0-0.4,0-0.7,0c-5.2-0.3-9.6-1.8-13.4-4c-14.6,14.1-55.5,42.8-146.5,42.8c-49.1,0-87.8-8.2-115-24.4
		c-10.9-6.4-17.8-13-22.2-18.2c-3.6,2-7.9,3.4-12.9,3.7c-0.2,0-0.4,0-0.7,0C309.6,752.1,305.2,748.1,304.9,742.8z M463.9,1049.8
		c-17.4,0-31.5,14.1-31.5,31.5s14.1,31.5,31.5,31.5s31.5-14.1,31.5-31.5S481.3,1049.8,463.9,1049.8z M463.9,1092.8
		c-6.3,0-11.5-5.2-11.5-11.5s5.2-11.5,11.5-11.5s11.5,5.2,11.5,11.5S470.3,1092.8,463.9,1092.8z M463.9,1131.3
		c-17.4,0-31.5,14.1-31.5,31.5s14.1,31.5,31.5,31.5s31.5-14.1,31.5-31.5S481.3,1131.3,463.9,1131.3z M463.9,1174.3
		c-6.3,0-11.5-5.2-11.5-11.5s5.2-11.5,11.5-11.5s11.5,5.2,11.5,11.5S470.3,1174.3,463.9,1174.3z"/>
</g>
</svg>
