<?xml version="1.0" encoding="utf-8"?>
<!-- Generator: Adobe Illustrator 27.7.0, SVG Export Plug-In . SVG Version: 6.00 Build 0)  -->
<svg version="1.1" id="레이어_1" xmlns="http://www.w3.org/2000/svg" xmlns:xlink="http://www.w3.org/1999/xlink" x="0px"
	 y="0px" width="3000px" height="3000px" viewBox="0 0 3000 3000" style="enable-background:new 0 0 3000 3000;"
	 xml:space="preserve">
<style type="text/css">
	.st0{fill:#FFFFFF;}
	.st1{fill:#FF5F8D;}
	.st2{fill:#EF4C48;}
	.st3{fill:#FFB31A;}
	.st4{fill:#379B29;}
	.st5{fill:#231815;}
</style>
<g>
	<path class="st0" d="M2936.8,333.5V2877l-16.8,15l-23.7,25.1l-20.7,19.3H123.5l-20.7-21.1l-15.9-15.4L69,2881.6l-5.2-6.1V337.3
		L2936.8,333.5z"/>
	<path class="st1" d="M2936.3,121.9v215.4H63.7V123.7l56.9-57.2l2757.6-1.2l49.5,49.5L2936.3,121.9z M2774.4,2401.9h-52.7l-7.4,9.8
		l1.1,10.4l10.6,10.8l21.1,20.4l18.4-12.3l18.7-21.9l-0.6-9L2774.4,2401.9z M2724.2,532.1h50.4l8.6-14.2v-8.1l-10.8-8.9l-17.4-18.6
		l-9.1-5.1l-17.3,20.6l-20.9,17.3l9.3,8.4L2724.2,532.1z M2727.9,624.8l-15.3,16.5v506.1h74.5V641.3l-22.1-16.5H2727.9z"/>
	<polygon class="st2" points="2499.1,163.1 2480,179.7 2480,215.7 2491,227.6 2498.5,236.2 2540.7,236.2 2564.5,213 2564.3,181.4 
		2549.6,170.3 2533.1,157.7 	"/>
	<polygon class="st3" points="2635.2,159.2 2623.2,170.2 2614.2,177.7 2614.2,218.9 2623.2,227.6 2635.2,239.7 2668.6,239.7 
		2681.7,227.6 2694.9,215.2 2694.9,179.2 2681.7,170.2 2663.7,157.5 	"/>
	<polygon class="st4" points="2760.6,164.4 2750.5,176.6 2751.5,223 2758.3,230 2809.1,232.3 2818.9,223.6 2822.1,175.2 
		2814.4,170.2 2802.5,162.1 	"/>
	<path class="st5" d="M94.1,73.6h20v20h-20V73.6z M93.7,93.6h-20v20h20V93.6z M113.7,2926.4v-20h-20v20H113.7z M93.7,2906.4v-20h-20
		v20H93.7z M237,2814.8v-32.7h32.7v-20H237v-32.7h-20v32.7h-32.7v20H217v32.7H237z M2886.3,2946.4v-20H113.7v20H2886.3z
		 M2906.4,93.6v-20h-20v-20H114.1v20h2772.3v20H2906.4l-0.1,20h20v-20H2906.4z M2886.3,2926.4h20v-20h-20V2926.4z M2744,2773v-20
		h-20v20H2744z M2764.2,2773h20v-20h-20V2773z M2778.4,2425.5h-19.6v19.9h-19.9v-19.9h-20v-19.8h-20v20h20v19.8h20v19.9h20v-19.9
		h19.9v-19.8h19.6v-20h-20V2425.5z M2822.2,2808.8V2749h-20v59.7h20V2808.8z M2802.1,2729.1h-20v20h20V2729.1z M2718.9,2405.7h59.6
		v-20h-59.6V2405.7z M2718.9,506h19.6v-19.9h19.9V506h20v19.8h20v-20h-20V486h-20v-19.9h-20V486h-19.9v19.8h-19.6v20h20V506z
		 M2718.5,634.8h59.9v-20h-59.9V634.8z M2718.5,2317.8h59.9v-20h-59.9V2317.8z M2718.5,634.8h-20v1662.9h20V634.8z M2778.4,1140
		h-59.9v20h59.9v1137.7h20V634.8h-20V1140z M2718.8,525.8v20h59.6v-20H2718.8z M2782.3,2828.8h19.9v-20h-20v19.9h-59.8v20h60
		L2782.3,2828.8L2782.3,2828.8z M2722.3,2828.7v-20h-20V2749h20v-19.9h59.8v-20h-60v19.9h-19.9v20h-20v59.7h20v20H2722.3z
		 M2788.4,2784.8h-71.2v20h71.2V2784.8z M2946.3,2886.4h-20v20h-20v-20h20v-254.6H73.7v254.6h-20V113.6h20v211.7h2852.6V113.6h20
		V2886.4z M2926.3,2611.8V345.3H73.7v2266.5H2926.3z M2490.9,170.2H2469v57.3h21.9V170.2h58.5v-21.9h-58.5V170.2z M2490.9,249.4
		h58.5v-21.9h-58.5V249.4z M2571.3,227.5v-57.3h-21.9v57.3H2571.3z M2623,170.2h-21.9v57.3h21.9V170.2h58.5v-21.9H2623V170.2z
		 M2623,249.4h58.5v-21.9H2623V249.4z M2703.4,227.5v-57.3h-21.9v57.3H2703.4z M2755.7,170.2h-21.9v57.3h21.9V170.2h58.5v-21.9
		h-58.5V170.2z M2755.7,249.4h58.5v-21.9h-58.5V249.4z M2836.1,227.5v-57.3h-21.9v57.3H2836.1z"/>
</g>
</svg>
