<?xml version="1.0" encoding="utf-8"?>
<!-- Generator: Adobe Illustrator 27.7.0, SVG Export Plug-In . SVG Version: 6.00 Build 0)  -->
<svg version="1.1" id="레이어_1" xmlns="http://www.w3.org/2000/svg" xmlns:xlink="http://www.w3.org/1999/xlink" x="0px"
	 y="0px" width="935.7px" height="1508.1px" viewBox="0 0 935.7 1508.1" style="enable-background:new 0 0 935.7 1508.1;"
	 xml:space="preserve">
<style type="text/css">
	.st0{fill:#C1823E;}
	.st1{fill:#E2C1A3;}
	.st2{fill:#FF1526;}
	.st3{fill:#FF8585;}
	.st4{fill:#6D3F12;}
	.st5{fill:#231815;}
</style>
<g>
	<path class="st0" d="M786.9,572.2c0,0-13.4,155.8,2.7,193.4c12.7,29.5,73.3,227.9-89.7,311.8c9.4,22.3,65.1,157.6,73.2,229.8
		c0,0,92,15.3,103,87.6s-41.6,113.9-199.4,89.8c0,0-160.7-28.5-417.1,0c-158.6,17.6-210.3-17.5-199.4-89.8s103-87.6,103-87.6
		c8-72.1,63.6-207,73.1-229.7c-163.4-83.8-102.7-282.4-90-311.9c16.1-37.6,2.7-193.4,2.7-193.4C41.4,561.5-23.1,437.9,46.8,408.4
		c69.8-29.5,179.9,67.1,179.9,67.1s52.2-74.8,241.1-74.8c201.3,0,241.1,74.8,241.1,74.8s110.1-96.7,179.9-67.1
		C958.7,437.9,894.3,561.5,786.9,572.2z"/>
	<path class="st1" d="M401.7,1357.9c9.6-35.5-35.2-112.1-35.2-112.1c10.5-43.6,50.1-77.1,98.5-76.7c2.5,0,4.9,0,7.2,0
		c46.9,0,85.9,32.3,96.9,75.1c0,0-42.2,58.2-36.3,117.3c-15.1,11.4-35.5,18.3-62.8,18.3C439.9,1380,417.8,1371.6,401.7,1357.9"/>
	<path class="st2" d="M543.6,774.7c0,38.6-31.3,69.9-69.9,69.9s-69.9-31.3-69.9-69.9s31.3-69.9,69.9-69.9S543.6,736.1,543.6,774.7z"
		/>
	<path class="st3" d="M356.7,789c0,30.7-24.8,55.6-55.5,55.6s-55.5-24.9-55.5-55.6s24.8-55.6,55.5-55.6S356.7,758.3,356.7,789z
		 M654.5,733.4c-30.6,0-55.5,24.9-55.5,55.6s24.8,55.6,55.5,55.6c30.6,0,55.5-24.9,55.5-55.6S685.2,733.4,654.5,733.4z"/>
	<path class="st4" d="M120.2,1321.6c0,0,26.8,114.4,29.7,165.8c0,0-80.9-2.9-90.2-61.3C50.3,1367.3,91.7,1332.5,120.2,1321.6z
		 M814.1,1321.6c0,0-26.8,116.3-29.7,168.6c0,0,80.9-3,90.2-62.3C884.1,1368.1,842.7,1332.7,814.1,1321.6z M381,1391.1
		c36.8-24.9,14.8-80.8,14.8-80.8c-34.6,33.1-101.8,61-101.8,61C301.6,1379.4,344.2,1416,381,1391.1z M640.5,1371.3
		c0,0-67.2-27.9-101.8-61c0,0-22,55.9,14.8,80.8C590.2,1416,632.8,1379.4,640.5,1371.3z M359.7,410.5c0,0-29.6-71.7-39.9-110.9
		c0,0,95-51.6,76.4-82.6s-90.8,33-90.8,33s-28.5-71.1,0-121.8c27.9-49.7,41.3-76.4,15.1-87.4c-20.9-8.8-70.4,40.1-74.8,79.6
		c-0.1,1.3-1.9,1.6-2.4,0.4C233.4,100.1,190,13,160.9,16.7c-33,4.1-14.5,72.3,37.2,154.8s108,253.7,108,253.7L359.7,410.5z
		 M636.2,425.3c0,0,56.4-171.2,108-253.7s70.2-150.7,37.2-154.8c-29.1-3.6-72.5,83.4-82.4,104.1c-0.6,1.2-2.3,0.9-2.4-0.4
		c-4.5-39.6-53.9-88.4-74.8-79.6c-26.1,11-12.7,37.7,15.1,87.4c28.5,50.7,0,121.8,0,121.8s-72.3-64-90.8-33
		c-18.6,31,76.4,82.6,76.4,82.6c-10.3,39.2-39.9,110.9-39.9,110.9L636.2,425.3z M166.6,511.9c6.5-0.6,9.2-8.6,4.6-13.2
		c-17.4-17.6-61.1-56.9-83.6-35.4C63.8,486.1,135.9,514.7,166.6,511.9z M848,463.2c-22.4-21.5-66.1,17.8-83.6,35.4
		c-4.6,4.6-1.8,12.6,4.6,13.2C799.7,514.7,871.9,486.1,848,463.2z"/>
	<path class="st5" d="M892.8,399.2c-63.9-27-154.3,39.5-182.1,61.9c-8.9-10.2-27.4-26.7-62.1-41.2c12.1-35.5,60.3-172.9,104.2-243
		c20.7-33.1,36.6-64.6,45.9-91c10.1-28.8,12-50.2,5.6-63.7c-4.1-8.7-11.8-14.1-21.5-15.4c-16.9-2.1-35.4,12.9-58,47.4
		c-9.4,14.3-18,29.7-24.5,42.1c-10.6-24.9-31.9-48.3-50.7-59.4C634.3,28,624,29.1,618,31.6c-9.5,4-15.7,10.1-18.5,18.3
		c-6.5,18.8,6.8,43.9,28.8,83.2c18.8,33.5,10,78,3.8,99.9c-5.1-4-11.5-8.8-18.5-13.5c-24-16-42.5-22.8-56.6-20.6
		c-8.4,1.3-15,5.8-19.3,12.9c-3.9,6.5-4.9,14.2-2.7,22.1c7.8,28.5,56.8,59.3,75.9,70.4c-9.1,31.3-27.4,77.4-34.5,95
		c-29.8-5.3-65.6-8.7-108.4-8.7c-39.5,0-73.3,3.2-102,8.4c-7.2-17.9-25.3-63.6-34.4-94.7c19.1-11.1,68.1-42,75.9-70.4
		c2.2-7.9,1.2-15.6-2.7-22.1c-4.3-7.2-11-11.6-19.3-12.9c-14.1-2.2-32.6,4.6-56.6,20.6c-7.1,4.7-13.5,9.5-18.5,13.5
		c-6.2-21.9-15-66.4,3.8-99.9c22.1-39.4,35.3-64.4,28.8-83.2c-2.8-8.1-9-14.3-18.5-18.3c-6-2.5-16.3-3.7-31.6,5.3
		c-18.8,11-40.1,34.5-50.7,59.4c-6.5-12.4-15.1-27.8-24.5-42.1c-22.7-34.4-41.1-49.5-58-47.4c-9.8,1.2-17.4,6.7-21.5,15.4
		c-6.4,13.5-4.5,34.9,5.6,63.7c9.3,26.4,25.1,57.9,45.9,91c43.6,69.8,91.6,206.1,104,242.5c-37.2,15-58,32.3-67.9,42.2
		c-27-21.9-118.3-89.7-182.7-62.4C16.5,410.3,4,434,8.6,464.1c3.9,25.8,20,53.2,44.3,75.3c24.4,22.2,54.9,36.8,86.7,41.7
		c3.7,47.7,9.1,153.2-2.6,180.5c-6,13.9-18.1,52.4-21.4,98.8c-4.3,60.2,7.8,113.8,35,155.1c18,27.3,42.3,49.5,72.9,66.6
		c-15.1,36.6-59.6,148.3-69.4,216.8c-9.2,2.2-25.7,7-43,16.2c-34.8,18.4-55.8,45.5-60.8,78.3c-4.6,30.6,1.5,55,18.3,72.4
		c15,15.6,37.8,25.5,69.8,30.2c31.8,4.7,71.8,4.3,122.3-1.3c251.7-28,412.7-0.4,414.2-0.1h0.2c30.3,4.6,57.6,7,81.6,7
		c14,0,26.8-0.8,38.5-2.4c31.1-4.2,54.7-14.2,70.2-29.7c18.5-18.4,25.3-44,20.5-76.1c-5-32.8-26-59.9-60.8-78.3
		c-17.3-9.1-33.9-14-43-16.2c-9.8-68.5-54.4-180.5-69.4-216.9c30.4-17.1,54.7-39.3,72.6-66.5c27.2-41.3,39.3-94.9,35-155.1
		c-3.3-46.4-15.5-84.9-21.4-98.8c-11.7-27.3-6.3-132.8-2.6-180.5c31.8-4.9,62.3-19.5,86.7-41.7c24.2-22,40.4-49.5,44.3-75.3
		C931.6,434,919.1,410.3,892.8,399.2z M632.1,302.1l2-7.6l-6.9-3.7c-25.5-13.9-67.9-43-73.1-62.1c-0.9-3.5-0.2-5.3,0.5-6.6
		c1.2-2.1,2.8-3.1,5.2-3.4c15.6-2.4,50.5,21.3,70.4,38.8l10.6,9.4l5.3-13.2c1.2-3.1,29.9-76.1-0.6-130.4
		c-14.6-26.1-31.2-55.7-27.4-67c0.4-1,1.3-3.8,7.4-6.3c1.5-0.6,6-0.4,13.7,4.1c20.1,11.8,44.5,42.4,47.3,67.4c0.6,5,4.3,9,9.3,9.8
		s9.9-1.7,12-6.3c4.9-10.3,18-36.7,33.3-60c25.6-38.9,37.5-38.7,38.8-38.5c3.5,0.4,4.9,2,6,4.1c7.1,15-5.6,63.8-50.4,135.5
		c-45.3,72.5-93.3,209.5-105.9,246.6c-10.1-3.4-21.3-6.6-33.7-9.4C604.9,381.8,624,332.8,632.1,302.1z M206.5,166.3
		C161.7,94.6,149,45.8,156.1,30.7c1-2.1,2.4-3.7,6-4.1c0.1,0,0.2,0,0.4,0c2.5,0,14.5,2.2,38.4,38.5c15.4,23.3,28.4,49.7,33.3,60
		c2.2,4.6,7,7.1,12,6.3s8.8-4.8,9.3-9.9c2.8-25.1,27.2-55.7,47.3-67.4c7.8-4.5,12.3-4.7,13.7-4.1c6.1,2.6,7,5.3,7.4,6.3
		c3.9,11.3-12.7,40.9-27.4,67c-30.4,54.3-1.8,127.3-0.6,130.4l5.3,13.2l10.6-9.4c19.9-17.6,54.8-41.2,70.4-38.8
		c2.5,0.4,4,1.4,5.2,3.4c0.7,1.2,1.5,3.1,0.5,6.6c-5.2,19.1-47.6,48.2-73.1,62.1l-6.9,3.7l2,7.6c8,30.5,27.1,79.2,35.8,101
		c-12.3,2.8-23.5,6-33.7,9.3C299.4,374.8,251.6,238.6,206.5,166.3z M761.2,1295.4c-13.6-1.3-25.7-0.4-26.4-0.3
		c-5.5,0.4-9.6,5.3-9.2,10.8c0.4,5.5,5.3,9.6,10.8,9.2c0.2,0,20.4-1.6,35.3,2.5c0.9,0.2,1.8,0.3,2.6,0.3c0.1,0,0.3,0,0.4,0
		c7.1,1.6,24,6,41.4,15.2c29.1,15.5,45.9,36.8,49.9,63.3c3.9,25.5-1.1,45.3-14.8,59c-12.3,12.3-32.1,20.4-58.7,24
		c-29.7,4-68.2,2.5-114.3-4.5c-3-0.5-42.8-7.3-113.5-10.8c-66.3-3.3-173.2-4.1-306.3,10.7c-92,10.2-151.1,2.5-175.5-22.9
		c-12.4-12.9-16.6-31.1-12.9-55.5c4-26.5,20.8-47.8,49.9-63.3c22.7-12.1,44.6-15.9,44.8-15.9l7.5-1.2v-0.2
		c12.7-1.6,25.5-0.7,25.9-0.6c5.5,0.4,10.3-3.7,10.8-9.2c0.4-5.5-3.7-10.3-9.2-10.8c-0.7-0.1-11.9-0.9-24.8,0.2
		c11-65,51.6-167.8,66.5-204c48.2,22.3,109.7,33.5,184.1,33.5h84.8c74.5,0,136.1-11.3,184.4-33.6
		C709.4,1127.2,750.2,1230.3,761.2,1295.4z M907.3,461.1c-6.6,43.7-57,94.7-121.5,101.2l-8.3,0.8l-0.7,8.3
		c-1.4,16.2-13.2,159.4,3.5,198.2c4.4,10.3,16.6,47,19.9,92.3c4.1,56.5-6.6,104.5-31.7,142.6c-43.9,66.5-130.7,100.2-258.2,100.2
		h-84.8c-127.5,0-214.4-33.7-258.2-100.2c-25.1-38.1-35.8-86.1-31.7-142.6c3.3-45.3,15.4-82,19.9-92.3c16.6-38.8,4.9-182,3.5-198.2
		l-0.7-8.3l-8.3-0.8c-64.7-6.5-115-57.6-121.7-101.2c-2.2-14.6-0.1-34,22.3-43.5c8.1-3.4,16.8-4.9,26-4.9
		c62.4,0,142.5,69.5,143.5,70.3l8.4,7.4l6.4-9.2c0.1-0.2,13-17.7,47.8-35.1c7.5-3.8,16.5-7.7,26.9-11.5l51.4-14.2
		c28.9-5.8,64.2-9.8,106.8-9.8c48.5,0,87.1,4.5,117.5,10.9l42.5,11.7c11.7,4.1,21.3,8.4,29.2,12.5c32.3,16.7,42.5,33.4,43.1,34.5
		l5.7,11.3l9.7-8.5c1.1-0.9,106.1-92.2,169.4-65.4C907.4,427.1,909.5,446.5,907.3,461.1z M579,700.6c0,8.8-6.4,16-14.3,16
		s-14.3-7.2-14.3-16s6.4-16,14.3-16S579,691.8,579,700.6z M473.7,694.8c-44.1,0-79.9,35.9-79.9,79.9c0,40.7,30.6,74.4,69.9,79.3
		v46.4h-32c-5.5,0-10,4.5-10,10s4.5,10,10,10h85.6c5.5,0,10-4.5,10-10s-4.5-10-10-10h-33.6V854c39.4-4.9,69.9-38.6,69.9-79.3
		C553.6,730.7,517.8,694.8,473.7,694.8z M473.7,834.7c-33.1,0-59.9-26.9-59.9-59.9s26.9-59.9,59.9-59.9s59.9,26.9,59.9,59.9
		S506.7,834.7,473.7,834.7z M605.6,1384.1c-14.7,6.5-29.2,6.6-44.2,0.3c-1.2-0.6-12.3-6.6-16.7-23.7c-5.5-21.2-1.4-61.5,49.3-133.1
		c3.2-4.5,2.1-10.7-2.4-13.9c-4.5-3.2-10.7-2.1-13.9,2.4c-1.8,2.6-3.6,5.1-5.3,7.7c-17.6-38.6-56.4-64.3-100.1-64.4
		c-2.3,0-4.7,0-7.2,0c-25.7-0.2-49.8,8.1-69.7,24c-14,11.2-25.1,25.7-32.3,41.9c-2.1-3-4.2-6.1-6.4-9.2c-3.2-4.5-9.4-5.6-13.9-2.4
		s-5.6,9.4-2.4,13.9c50.7,71.6,54.8,111.9,49.3,133.1c-4.4,17.1-15.5,23.1-16.7,23.7c-15,6.3-29.4,6.2-44.2-0.3
		c-52.9-23.3-87.3-118.7-87.7-119.7c-1.8-5.2-7.6-7.9-12.8-6.1s-7.9,7.6-6.1,12.8c1.5,4.3,37.6,104.5,98.4,131.3
		c10.1,4.4,20.2,6.6,30.4,6.6c9.9,0,19.9-2.1,29.8-6.3l0.2-0.1c0.7-0.3,16.8-7.7,25.3-28.9c17.4,10.9,38.8,16.3,63.7,16.3
		c22.9,0,42.7-4.7,58.9-13.9c8.7,19.3,23.5,26.2,24.3,26.5l0.2,0.1c9.9,4.2,19.9,6.3,29.8,6.3c10.2,0,20.4-2.2,30.4-6.6
		c60.8-26.8,96.9-127,98.4-131.3c1.8-5.2-0.9-10.9-6.1-12.8c-5.2-1.8-10.9,0.9-12.8,6.1C692.9,1265.4,658.5,1360.8,605.6,1384.1z
		 M522.5,1356.8c-13.8,8.8-31.4,13.3-52.4,13.3c-23.2,0-42.5-5.5-57.4-16.2c4.1-35.9-26.3-93.1-35.4-109.3
		c11.2-39,46.7-65.6,87.7-65.3c2.5,0,4.9,0,7.3,0c39.7,0,74.4,25.9,86,63.3C548.8,1256.8,519.8,1305.2,522.5,1356.8z M385.6,700.6
		c0,8.8-6.4,16-14.3,16s-14.3-7.2-14.3-16s6.4-16,14.3-16S385.6,691.8,385.6,700.6z"/>
</g>
</svg>
