<?xml version="1.0" encoding="utf-8"?>
<!-- Generator: Adobe Illustrator 27.7.0, SVG Export Plug-In . SVG Version: 6.00 Build 0)  -->
<svg version="1.1" id="레이어_1" xmlns="http://www.w3.org/2000/svg" xmlns:xlink="http://www.w3.org/1999/xlink" x="0px"
	 y="0px" width="671.7px" height="561.3px" viewBox="0 0 671.7 561.3" style="enable-background:new 0 0 671.7 561.3;"
	 xml:space="preserve">
<style type="text/css">
	.st0{fill:#DB2121;}
	.st1{opacity:0.4;}
	.st2{fill:#FFCACA;}
	.st3{fill:#231815;}
</style>
<g>
	<path class="st0" d="M646.5,219.5c-7.3-4.3-21.8-11.8-52-21.1c31.1-8.4,39.6-20.8,41.8-25.6c0.4-0.8,0-1.7-0.8-2c0.1,0,0.1,0,0.2,0
		c0.7,0,1.2-0.6,1.2-1.3C629.5,108.7,534.4,28,512,23.5c-22.5-4.5-32.9,10-87.3,51.6S347.9,172,347.9,172c1.2,0.8,3.1,4.4,3.1,4.4
		v31.3c-0.3,2.3-2.5,4-4.6,5.1c2.7-1.7,4.6-4.7,4.6-8.1v-25.2c0-5.3-4.3-9.6-9.6-9.6h-11.3c-5.3,0-9.6,4.3-9.6,9.6v-3
		c0,0,1.9-3.6,3.1-4.4c0,0-22.4-55.3-76.8-96.9S182,19,159.5,23.6c-22.4,4.5-117.5,85.2-124.8,146c-0.1,0.7,0.5,1.3,1.2,1.3
		c0.1,0,0.1,0,0.2,0c-0.8,0.3-1.1,1.2-0.8,2c2.2,4.8,10.7,17.2,41.8,25.6c-30.2,9.3-44.7,16.7-52,21.1c-12,7.1-9.8,21.7,1.3,34.8
		c10.9,12.9,49.1,98.5,142.7,148.2c-5-2.3-13.4-6.9-26.6-16l-0.8,2.6c0,0-23.7,74-27.8,114.2c-0.2,1.6,0.6,3.2,2,4
		c6.3,4.1,26.6,14.7,64.5,14c33.6-0.6,57.5,10.3,68.2,16.5c3.1,1.8,7.1,0,7.7-3.6c6.8-38.4,38.8-211.2,79.3-319.9h0.6
		c40.4,108.7,72.4,281.6,79.3,319.9c0.6,3.6,4.6,5.4,7.7,3.6c10.7-6.2,34.5-17.1,68.2-16.5c37.9,0.7,58.2-9.9,64.5-14
		c1.4-0.9,2.1-2.4,2-4c-4-40.2-27.8-114.2-27.8-114.2l-0.8-2.6c-13.2,9.1-21.6,13.7-26.6,16c93.6-49.8,131.8-135.4,142.7-148.2
		C656.3,241.2,658.4,226.6,646.5,219.5z M325.2,212.9c-2-1.1-4.3-2.8-4.5-5.1v-3C320.6,208.2,322.5,211.2,325.2,212.9z M294.9,234
		c-7.3,7.9-15.8,17.4-25,28.3C277.8,252.9,286.1,243.5,294.9,234z M155.9,179c6.6-1.4,13-2.7,19.1-3.7c0,0-35.8-2.9-73.4-4.4
		c24.9,0.5,52.2,1.7,73.4,4.4c0,0,3.6-0.5,9.5-1.1c-9.3,1.2-18.8,2.8-28.4,4.8C156,179,155.9,179,155.9,179z M171.6,403.6
		c1.6,0.3,3.3-0.2,4.4-1.4c-0.2,0.5-0.4,1-0.6,1.4c-0.2,0.4-0.2,0.9,0,1.2h-0.1C175.2,404.9,174.1,404.7,171.6,403.6z M236.1,388
		c5.6-4.3,11.2-9.7,16.8-16.2C247.6,378.1,241.9,383.5,236.1,388z M253.7,370.9l0.1-0.1C253.8,370.8,253.7,370.8,253.7,370.9
		C253.7,370.8,253.7,370.8,253.7,370.9z M293.8,293.5c10.3-29.2,18.1-56.8,32.7-76.4c-3.9,6.5-14.1,24.6-24.7,53.9
		C299,278.8,296.4,286.2,293.8,293.5z M328.4,214.3c0-0.1-0.1-0.1-0.2-0.1c-0.2-0.1-0.4-0.2-0.7-0.3c0.9,0.2,1.8,0.4,2.7,0.4
		L328.4,214.3L328.4,214.3z M401.7,262.3c-9.2-10.9-17.7-20.4-25-28.3C385.5,243.5,393.9,252.9,401.7,262.3z M344.2,214
		c-0.3,0.1-0.5,0.2-0.7,0.3c-0.1,0-0.1,0.1-0.2,0.1h-1.8C342.4,214.3,343.3,214.2,344.2,214z M345.2,217.1
		c14.6,19.5,22.4,47.2,32.7,76.4c-2.6-7.3-5.3-14.8-8.1-22.5C359.2,241.7,349.1,223.7,345.2,217.1z M417.9,370.8l0.1,0.1
		C418,370.8,418,370.8,417.9,370.8L417.9,370.8z M418.8,371.8c5.6,6.5,11.2,11.9,16.8,16.2C429.7,383.5,424.1,378.1,418.8,371.8z
		 M496.5,404.9h-0.1c0.2-0.4,0.2-0.8,0-1.2c-0.2-0.4-0.4-0.9-0.6-1.4c1.1,1.2,2.8,1.7,4.4,1.4C497.5,404.7,496.5,404.9,496.5,404.9z
		 M487.2,174.2c5.9,0.6,9.5,1.1,9.5,1.1c21.2-2.7,48.5-3.9,73.4-4.4c-37.6,1.5-73.4,4.4-73.4,4.4c6,1,12.5,2.3,19.1,3.7
		c-0.1,0-0.1,0-0.2,0C506,177,496.5,175.4,487.2,174.2z"/>
	<g class="st1">
		<path d="M35.4,172.9c2.2,4.8,10.9,17.4,42.6,25.8c0,0,57.1-16.6,96.9-23.4c0,0-95.6-7.7-138.3-4.6C35.6,170.8,35,171.9,35.4,172.9
			z"/>
		<path d="M175.3,403.7c-0.4,0.9,0.2,2,1.2,2.1c8.9,1.4,47.5,4.6,81.5-40.4c38.6-51.1,41.9-115.5,70.3-150.7
			c0.1-0.2,0.1-0.4-0.1-0.5c-1.6-0.5-7.2-2.6-7.6-6.4c0,0-45.2,41.9-90.5,105.9C191.4,368.4,178.3,396.6,175.3,403.7z"/>
		<path d="M636.2,172.9c-2.2,4.8-10.9,17.4-42.6,25.8c0,0-57.1-16.6-96.9-23.4c0,0,95.6-7.7,138.3-4.6
			C636,170.8,636.7,171.9,636.2,172.9z"/>
		<path d="M496.3,403.7c0.4,0.9-0.2,2-1.2,2.1c-8.9,1.4-47.5,4.6-81.5-40.4c-38.6-51.1-41.9-115.5-70.3-150.7
			c-0.1-0.2-0.1-0.4,0.1-0.5c1.6-0.5,7.2-2.6,7.6-6.4c0,0,45.2,41.9,90.5,105.9C480.3,368.4,493.4,396.6,496.3,403.7z"/>
	</g>
	<path class="st2" d="M323.7,172.1l-3.1,4.4l-17.9-2.8c-46.8-39.4-54.8-44.6-119.6-86.6C131,53.3,125.8,53.6,120,50.7
		c-0.5-0.2-0.5-0.8-0.1-1.2L139,34.4c6.5-4.7,43.5,24,92.8,59.1C288.7,134,323.7,172.1,323.7,172.1z M48,134.5
		c11,2.9,102.7,27.3,114.8,29.5c37.7,7,40.4,7.6,40.5,7.7l58.2-1.1c0,0-10.2-8.1-81.8-26.4c-67.8-17.3-110.9-34.8-115.2-36.6
		c-0.2-0.1-0.4,0-0.6,0.2l-7.3,10.5c-1.2,1.7-2.3,3.4-3.4,5.2l-5.8,9.8C47.2,133.8,47.4,134.4,48,134.5z M203.2,171.7L203.2,171.7
		L203.2,171.7z M32.1,260.6c-0.5,0.4-0.7,1.1-0.3,1.6l14.9,23.9c0.4,0.6,1.2,0.8,1.8,0.3c107.5-81.1,238.1-90.7,266.6-91.8
		c-22.6,10.2-109.2,54.9-195.5,172.7c-0.4,0.5-0.3,1.3,0.2,1.7l23.6,18.1c0.6,0.4,1.4,0.3,1.8-0.3c8-12.5,82.2-125.5,175.6-179
		v-13.4v-2.3v-12.6C156.2,173.7,43.2,252.5,32.1,260.6z M132.9,513.3c-0.1,0.9,0.4,1.7,1.3,1.9l20,4.5c1.2,0.3,2.5-0.5,2.7-1.7
		c2.9-14.1,17.3-89.9,24.8-110l-19.9-9.1C161.8,398.8,141.6,455.4,132.9,513.3z M275.7,336.9c-11.4,24.9-31.7,44.3-31.7,44.3
		l-32.8,142c-0.1,0.3,0.1,0.7,0.4,0.8c12,2.6,19.5,5.9,22.2,6.8c0.4,0.1,0.7-0.1,0.8-0.5c8-33.4,37.3-175.9,41.5-193.3
		C276.1,336.8,275.8,336.7,275.7,336.9z M368.9,173.7c46.8-39.4,54.8-44.6,119.6-86.6c52.1-33.8,57.3-33.5,63.1-36.4
		c0.5-0.2,0.5-0.8,0.1-1.2l-19.1-15.2c-6.5-4.7-43.5,24-92.8,59.1c-56.9,40.4-91.9,78.5-91.9,78.5l3.1,4.4L368.9,173.7z
		 M468.5,171.7L468.5,171.7L468.5,171.7z M410.3,170.6l58.2,1.1c0.1,0,2.7-0.6,40.5-7.7c12.1-2.2,103.8-26.6,114.8-29.5
		c0.5-0.1,0.8-0.8,0.5-1.2l-5.8-9.8c-1.1-1.8-2.2-3.5-3.4-5.2l-7.3-10.5c-0.1-0.2-0.4-0.3-0.6-0.2c-4.3,1.8-47.3,19.3-115.2,36.6
		C420.5,162.4,410.3,170.6,410.3,170.6z M639.6,260.6c-11.2-8.1-124.1-86.9-288.6-81v12.6v2.3v13.4c93.4,53.5,167.6,166.5,175.6,179
		c0.4,0.6,1.2,0.8,1.8,0.3L552,369c0.5-0.4,0.6-1.2,0.2-1.7c-86.3-117.8-172.9-162.5-195.5-172.7c28.5,1.1,159.1,10.8,266.6,91.8
		c0.6,0.4,1.4,0.3,1.8-0.3l14.9-23.9C640.2,261.7,640.1,261,639.6,260.6z M509.9,398.8l-19.9,9.1c7.5,20.1,21.9,96,24.8,110
		c0.3,1.2,1.5,2,2.7,1.7l20-4.5c0.9-0.2,1.5-1,1.3-1.9C530.1,455.4,509.9,398.8,509.9,398.8z M427.7,381.3c0,0-20.3-19.4-31.7-44.3
		c-0.1-0.2-0.5-0.1-0.4,0.1c4.2,17.3,33.5,159.8,41.5,193.3c0.1,0.4,0.5,0.6,0.8,0.5c2.6-0.9,10.2-4.2,22.2-6.8
		c0.3-0.1,0.5-0.4,0.4-0.8L427.7,381.3z"/>
	<path class="st3" d="M659.2,229.6c-1-6.1-4.6-11-10.2-14.4c-9.6-5.7-22.4-11.3-38.4-16.8c20.3-8,27.6-17.8,30.2-23.5
		c0.4-0.9,0.6-1.9,0.6-2.9c0.4-0.9,0.5-2,0.4-3c-4.4-36.9-38.3-76.6-58.1-97.1c-15.9-16.3-33.4-31.3-47.7-41.2l-0.2-0.2l-0.2-0.1
		c-0.2-0.2-0.5-0.3-0.7-0.4c-9.1-6.2-16.8-10.3-21.8-11.3c-19.9-4-31.2,5.1-61.5,29.2c-8.4,6.7-18,14.3-29.8,23.4
		c-46.3,35.4-69.6,79.9-76.4,94.3c-1.2-0.3-2.5-0.5-3.9-0.5h-11.3c-1.4,0-2.7,0.2-3.9,0.5c-6.7-14.4-30.1-58.9-76.4-94.3
		c-11.8-9-21.3-16.6-29.8-23.4c-30.3-24.2-41.6-33.2-61.5-29.2c-5.1,1-12.8,5.1-21.8,11.3c-0.2,0.1-0.5,0.3-0.7,0.4l-0.4,0.3
		C121.4,40.6,103.8,55.6,88,72c-19.8,20.4-53.7,60.1-58.1,97c-0.1,1,0,2.1,0.4,3c0,1,0.2,2,0.6,2.9c2.6,5.7,9.9,15.4,30.2,23.5
		c-16,5.5-28.8,11.1-38.4,16.8c-5.6,3.3-9.2,8.3-10.2,14.4c-1.4,8.6,2.2,18.5,10.2,28c1.7,2,4.6,6.8,8.2,12.7
		c15,24.6,47.2,77.5,105.8,118.2c-2.9,9.1-23.8,76-27.7,114.3c-0.4,3.5,1.3,6.8,4.2,8.7c7.3,4.7,28.5,15.5,67.3,14.8
		c16.9-0.3,31.3,2.4,42.6,5.9c3,1,5.3,1.9,7,2.5c0.9,0.3,1.6,0.6,2.1,0.8c0.1,0,0.2,0,0.3,0.1c5.7,2.3,10.3,4.6,13.7,6.6
		c1.6,0.9,3.3,1.4,5.1,1.4c1.5,0,2.9-0.3,4.3-0.9c3-1.4,5.2-4.2,5.7-7.5c5.9-32.9,36.1-197.3,74.6-306.8
		c38.5,109.5,68.7,273.9,74.6,306.8c0.6,3.3,2.7,6.1,5.7,7.5c1.4,0.6,2.8,1,4.3,1c1.8,0,3.5-0.5,5.1-1.4c3.4-1.9,7.9-4.3,13.6-6.6
		c0.1,0,0.2,0,0.3-0.1c0.5-0.2,1.2-0.4,2.1-0.8c1.7-0.6,4.1-1.5,7.2-2.5c11.3-3.5,25.6-6.2,42.4-5.9c38.8,0.7,60-10.1,67.3-14.8
		c3-1.9,4.6-5.3,4.2-8.7c-3.9-38.3-24.8-105.2-27.7-114.3c58.6-40.7,90.8-93.6,105.8-118.2c3.6-6,6.5-10.7,8.2-12.7
		C657,248.1,660.7,238.1,659.2,229.6z M594.6,193.2c-17.3-5.3-37.5-10.4-60.5-15.5c11-0.7,23.5-1.3,36.2-1.9
		c24.5-0.5,46.6-0.3,58-0.2C623.8,180.7,614.3,187.7,594.6,193.2z M622.9,280c-62.6-46.2-132.4-68.3-180.2-78.8
		c-40.4-8.8-71.6-11-84.8-11.6c-0.7-0.3-1.3-0.6-1.8-0.8v-4.4c150.8-3.9,256.4,63.4,277.7,78.2L622.9,280z M519.1,514.2
		c-0.5-2.2-1-5.1-1.7-8.6c-4.9-24.7-14.7-74.1-21.2-95c1.1-0.2,2-0.7,2.9-1.3c0.7-0.2,1.5-0.5,2.5-0.9c0.7-0.2,1.4-0.5,2.1-0.8
		c0.3-0.1,0.5-0.3,0.8-0.4c0.8-0.4,1.6-0.8,2.5-1.2c5.1,15.2,19.2,59.6,26.4,105L519.1,514.2z M445.3,522.8c-1.5,0.5-3,1-4.5,1.5
		c-5.1-22.2-15.4-71.3-24.7-115.1c-3.5-16.6-6.8-32.2-9.5-44.8c0.8,1,1.5,2,2.3,3c0.2,0.3,0.5,0.6,0.7,1c1.3,1.7,2.7,3.4,4,5
		c0.1,0.2,0.3,0.3,0.4,0.5c2.9,3.6,6,6.9,9.1,9.9l31.5,136.3C451,521,447.9,522,445.3,522.8z M265,364.4c-2.7,12.6-6,28.2-9.5,44.8
		c-9.2,43.8-19.6,92.9-24.7,115.1c-1.4-0.5-2.8-0.9-4.2-1.4c-2.7-0.9-5.9-1.8-9.6-2.8l31.5-136.3c2.6-2.6,5.2-5.3,7.7-8.3
		c0.1-0.1,0.1-0.1,0.2-0.2c0.4-0.5,0.8-1,1.2-1.4c0.1-0.2,0.3-0.3,0.4-0.5c1.4-1.6,2.7-3.3,4-5c0.2-0.3,0.5-0.7,0.7-1
		C263.5,366.5,264.2,365.5,265,364.4z M154.3,505.6c-0.7,3.4-1.3,6.4-1.7,8.6l-14.3-3.2c7.2-45.4,21.3-89.8,26.4-105
		c0.9,0.5,1.7,0.9,2.5,1.2c0.3,0.1,0.5,0.3,0.8,0.5c0.7,0.4,1.4,0.6,2.1,0.8c1,0.4,1.9,0.7,2.5,0.9c0.8,0.7,1.8,1.1,2.9,1.3
		C169,431.6,159.2,480.9,154.3,505.6z M37.9,262.6c21.3-14.8,126.9-82.1,277.7-78.2v4.4c-0.5,0.2-1.2,0.5-1.8,0.8
		c-13.2,0.6-44.5,2.8-84.8,11.6c-47.9,10.5-117.7,32.6-180.2,78.8L37.9,262.6z M40.6,165.5c1.6-8.4,4.8-16.9,9-25.3
		c21.6,5.8,97,25.7,111.3,28.7c-17.9-1.6-38.4-2.4-57.5-2.8C80.9,165,57.6,164.6,40.6,165.5z M304.9,169
		c-46.7-39.2-55.3-44.8-119-86.1c-36.3-23.6-50.2-30.7-57.2-33.9l12.7-10c7,0.8,35,20.9,62,40.4c8.2,5.9,16.6,11.9,25.6,18.3
		c44,31.3,75,61.4,86.4,72.9c-1.9-0.3-4.2-0.7-7-1L304.9,169z M288.9,292.2c-5.3,14.7-10.6,28.5-17.3,41.7c-0.1,0.3-0.3,0.6-0.4,0.9
		c-0.5,1-1,1.9-1.5,2.9c-0.5,0.9-1,1.8-1.5,2.8c-0.5,0.9-1,1.7-1.5,2.6c-0.5,0.8-0.9,1.6-1.4,2.4c-0.9,1.5-1.8,3-2.7,4.5
		c0,0.1-0.1,0.1-0.1,0.2c-2.6,4.1-5.3,8.1-8.3,12.1c-4.7,6-8.9,10.6-11.4,13.2c-4,4-8.1,7.5-12.1,10.4c-16.8,12-34.6,16.4-48.3,15.2
		c9.2-17.8,41.3-76.4,94.2-138.8c0.2-0.2,0.4-0.5,0.6-0.7c0.1-0.1,0.2-0.2,0.3-0.3c9.5-11.2,18.2-20.7,25.5-28.4
		c5.5-5.8,11.2-11.6,17-17.3c0.3,0.3,0.7,0.5,1,0.7c-11.7,16.6-19.1,38.3-26.9,61.1C292.4,282.2,290.7,287.2,288.9,292.2z
		 M210,166.6l-6.3,0.1c-0.1,0-0.3-0.1-0.4-0.1c-0.8-0.2-2.3-0.5-5-1c-6.7-1.3-18.4-3.5-34.7-6.5c-10.7-2-86.5-22-109.1-28l3-5.1
		c1-1.7,2-3.3,3.2-4.9l5.2-7.5c12.2,4.8,52.7,20.2,112.4,35.4c27.2,6.9,45.3,12.3,57.4,16.4C227.5,165.6,218.9,165.9,210,166.6z
		 M315.6,204.8v0.2C228.2,256.3,158.1,357.9,143,380.7l-17.4-13.4c50.6-68.3,101-110.8,134.6-134.6c25.6-18.1,45.6-28.4,55.4-32.9
		V204.8z M283.7,238.9c-4.4,4.9-8.6,9.7-12.7,14.5c-13.8,16.1-29.4,35.5-44.9,57.4c-34.2,48.3-48.6,76.3-53.7,87.3l-5.7-2.6
		c-5.3-2.9-10.4-6-15.3-9.2C163.6,367.7,215.5,292,283.7,238.9z M543,49c-7,3.2-20.9,10.3-57.2,33.9c-63.7,41.3-72.3,46.9-119,86.1
		l-3.5,0.6c-2.7,0.4-5,0.7-6.9,1c11.3-11.5,42.4-41.7,86.4-72.9c9-6.4,17.4-12.5,25.6-18.3c27-19.5,55-39.6,62-40.3L543,49z
		 M631.1,165.5c-17-0.9-40.3-0.5-62.8,0.5c-19.1,0.4-39.6,1.3-57.5,2.8c14.3-2.9,89.7-22.9,111.3-28.7
		C626.3,148.5,629.5,157.1,631.1,165.5z M611,121.2c1.1,1.6,2.2,3.2,3.2,4.9l3,5.1c-22.5,6-98.4,26-109.1,28
		c-16.3,3-27.9,5.2-34.7,6.5c-2.7,0.5-4.2,0.8-5,1c-0.1,0-0.3,0.1-0.4,0.1l-6.3-0.1c-8.9-0.6-17.6-1-25.8-1.2
		c12.1-4,30.2-9.5,57.4-16.4c59.7-15.2,100.3-30.6,112.4-35.4L611,121.2z M394.1,261.1c0.1,0.1,0.2,0.3,0.3,0.4
		c0.2,0.2,0.4,0.4,0.5,0.6c52.9,62.4,85,121,94.2,138.8c-13.7,1.2-31.5-3.2-48.3-15.2c-4-2.9-8-6.3-12.1-10.4
		c-2.5-2.6-6.7-7.2-11.4-13.2c-3-4-5.8-8-8.3-12c0-0.1-0.1-0.1-0.1-0.2c-0.9-1.5-1.8-2.9-2.7-4.4c-0.5-0.8-1-1.6-1.4-2.4
		c-0.5-0.9-1-1.7-1.4-2.6c-0.5-0.9-1-1.9-1.5-2.8c-0.5-1-1-1.9-1.5-2.9c-0.2-0.3-0.3-0.6-0.5-0.9c-6.7-13.2-12-27-17.3-41.7
		c-1.8-5.1-3.5-10.1-5.2-14.9c-7.8-22.8-15.1-44.4-26.9-61.1c0.3-0.2,0.7-0.5,1-0.7c5.8,5.7,11.5,11.5,17,17.3
		C375.9,240.4,384.6,250,394.1,261.1z M505,395.5l-5.7,2.6c-5.1-11.1-19.5-39-53.7-87.3c-15.5-21.9-31.1-41.3-44.9-57.4
		c-4.1-4.8-8.4-9.7-12.7-14.5c68.2,53.1,120.1,128.8,132.4,147.5C515.4,389.5,510.3,392.6,505,395.5z M528.6,380.7
		c-15-22.8-85.1-124.5-172.6-175.7v-5.1c9.9,4.6,29.8,14.8,55.4,32.9c33.6,23.7,84,66.2,134.6,134.5L528.6,380.7z M576.5,78.9
		c6.6,6.9,15,16,23.1,26.4c-14.3,5.6-53,19.9-108.8,34.1c-59.7,15.2-77.4,23.6-82.2,26.3c-8.9,0.3-17,0.9-24.1,1.5
		c36.8-30.6,49-38.5,106.7-75.9c43.1-27.9,53.6-32.3,59.2-34.6c0.6-0.3,1.2-0.5,1.8-0.7C559.9,62.6,568.1,70.3,576.5,78.9z
		 M427.8,79.2c11.9-9.1,21.5-16.7,29.9-23.5c24.9-19.9,35-27.9,47-27.9c2,0,4.1,0.2,6.4,0.7c2,0.4,5.1,1.7,9,3.9
		c-11.1,5.5-28.5,17.9-57.6,38.8c-8.1,5.9-16.6,11.9-25.5,18.3c-29.2,20.8-52.8,41.1-68.9,55.9C380.1,126.3,399.6,100.7,427.8,79.2z
		 M341.5,175c2.5,0,4.6,2,4.6,4.6v25.2c0,1.6-0.8,3-2,3.8c-0.4,0.2-0.8,0.4-1.3,0.6c-0.4,0.1-0.8,0.2-1.3,0.2h-11.3
		c-0.4,0-0.9-0.1-1.3-0.2c-0.5-0.2-0.9-0.4-1.3-0.6c-1.2-0.8-2-2.2-2-3.8v-5.4v-14.5v-5.4c0-2.5,2-4.6,4.6-4.6L341.5,175L341.5,175z
		 M160.6,28.5c15.3-3.1,24.1,4,53.3,27.2c8.5,6.7,18,14.4,29.9,23.5c28.2,21.6,47.7,47.1,59.8,66.3c-16.1-14.9-39.7-35.2-68.9-55.9
		c-8.9-6.4-17.4-12.4-25.5-18.3c-29.1-20.9-46.5-33.3-57.6-38.8C155.5,30.2,158.6,28.9,160.6,28.5z M95.2,78.9
		c8.4-8.6,16.6-16.3,24.3-22.9c0.6,0.2,1.1,0.5,1.8,0.7c5.6,2.3,16.1,6.7,59.2,34.6c57.7,37.4,69.9,45.3,106.7,75.9
		c-7.2-0.6-15.3-1.2-24.1-1.5c-4.8-2.8-22.5-11.1-82.2-26.3c-55.8-14.2-94.5-28.5-108.8-34.1C80.2,94.9,88.5,85.8,95.2,78.9z
		 M43.4,175.7c11.4-0.2,33.5-0.3,58,0.2c12.7,0.5,25.2,1.2,36.2,1.9c-23,5.1-43.2,10.2-60.5,15.5C57.3,187.7,47.9,180.7,43.4,175.7z
		 M22.3,231.2c0.5-3.2,2.3-5.6,5.4-7.4c11.3-6.7,28-13.5,49.6-20.1l7.8-2.1l1.3-0.4c0.5-0.1,34.5-9.7,70.7-17.4
		c9.5-2,19-3.5,28.2-4.7c5.5-0.6,12.9-1.3,21.3-1.9l0.7,0.1v-0.1c4.4-0.3,9.1-0.6,13.8-0.8l19.1-0.4c1.1,0,2.2,0,3.3,0
		c4.8,0.1,9.4,0.2,13.8,0.3c-121.6,11.2-205.2,64.1-224.9,77.8c-0.8-1.2-1.6-2.2-2.3-3C24.4,244.1,21.4,236.7,22.3,231.2z
		 M54.2,288.4c61.2-45.3,129.7-67.1,176.7-77.4c23.7-5.2,44.3-8,59.9-9.6c-9.9,5.6-22.1,13.1-35.9,22.9
		c-34.2,24.2-85.6,67.5-137.1,137C88.8,336.3,68.2,309.4,54.2,288.4z M145.2,394.5c4,2.6,7.4,4.8,10.5,6.6
		c-4.6,13.5-19.5,59.6-27.1,107.1c-4.7-1.9-7.9-3.7-9.6-4.8C122.5,469.2,140.4,410,145.2,394.5z M183.1,516.3c-0.9,0-1.9,0-2.8,0
		c-6.5,0.1-12.4-0.1-17.9-0.6c0.4-2.2,1-5,1.6-8.2c4.7-23.6,15.4-77.7,21.7-96.1c6.2,0,14.3-0.8,23.6-3.7
		c9.3-2.9,18.1-7.3,26.5-13.3l-28.6,123.8C199.9,517.1,191.8,516.3,183.1,516.3z M251.4,533.4c0,0,0,0.1-0.1,0.2c-0.1,0-0.1,0-0.2,0
		c-2.8-1.6-6.5-3.5-10.8-5.5c5-21.5,15.6-72,25-116.8c7.4-35.2,13.8-65.6,15.6-73l0,0c0.1-0.3,0.1-0.5,0.1-0.8
		c7-14,12.5-28.3,17.4-42.1c1.3-3.6,2.6-7.2,3.9-10.9c1.4-3.8,2.8-7.8,4.2-11.7c6.4-17.6,12.6-31.1,17.3-40.4
		C286.3,342.5,257.1,501.1,251.4,533.4z M420.6,533.5c0,0-0.1,0.1-0.2,0c-0.1,0-0.1-0.1-0.1-0.2c-5.8-32.3-35-191-72.5-301.1
		c4.7,9.3,10.9,22.8,17.3,40.4c1.4,4,2.8,7.9,4.2,11.7c1.3,3.7,2.6,7.3,3.9,10.9c4.9,13.8,10.3,28.1,17.4,42.1
		c0,0.3,0.1,0.5,0.1,0.8l0,0c1.8,7.4,8.2,37.8,15.6,73c9.4,44.8,20.1,95.2,25,116.8C427,530,423.4,531.9,420.6,533.5z M491.4,516.4
		c-9.8-0.2-18.8,0.6-26.9,1.9l-28.6-123.8c8.3,6,17.2,10.4,26.5,13.3c9.2,2.9,17.4,3.7,23.6,3.7c6.3,18.5,17,72.6,21.7,96.1
		c0.6,3.2,1.2,6,1.6,8.2C503.8,516.2,497.9,516.5,491.4,516.4z M543.1,508.2c-7.7-47.5-22.6-93.6-27.1-107.1c3-1.8,6.5-4,10.5-6.6
		c4.8,15.5,22.8,74.8,26.3,108.9C550.9,504.5,547.8,506.3,543.1,508.2z M553.9,361.3c-51.5-69.5-102.9-112.8-137.1-137
		c-13.9-9.8-26-17.3-35.9-22.9c15.5,1.6,36.2,4.5,59.9,9.6c47,10.3,115.5,32.1,176.7,77.4C603.5,309.4,582.9,336.3,553.9,361.3z
		 M641.4,251.1c-0.7,0.8-1.4,1.8-2.3,3c-19.8-13.7-103.3-66.6-224.9-77.8c4.4-0.1,8.9-0.2,13.8-0.3c1.1,0,2.2,0,3.3,0l19.1,0.4
		c4.8,0.2,9.4,0.5,13.8,0.8v0.1l0.7-0.1c8.4,0.6,15.8,1.3,21.3,1.9c9.2,1.2,18.6,2.7,28.1,4.7c36.3,7.7,64,15.3,64.5,15.5l1.3,0.4
		l14.1,4c21.6,6.7,38.3,13.5,49.6,20.1c3.1,1.8,4.9,4.3,5.4,7.4C650.3,236.7,647.3,244.1,641.4,251.1z"/>
</g>
</svg>
