<?xml version="1.0" encoding="utf-8"?>
<!-- Generator: Adobe Illustrator 27.7.0, SVG Export Plug-In . SVG Version: 6.00 Build 0)  -->
<svg version="1.1" id="레이어_1" xmlns="http://www.w3.org/2000/svg" xmlns:xlink="http://www.w3.org/1999/xlink" x="0px"
	 y="0px" width="3059.3px" height="3059.3px" viewBox="0 0 3059.3 3059.3" style="enable-background:new 0 0 3059.3 3059.3;"
	 xml:space="preserve">
<style type="text/css">
	.st0{fill:#DD9F62;}
	.st1{fill:#82B749;}
	.st2{fill:#FFEAC5;}
	.st3{fill:#FFB000;}
	.st4{fill:#FF556E;}
	.st5{fill:#FFFFFF;}
	.st6{fill:#775D57;}
	.st7{fill:#231815;}
</style>
<g>
	<path class="st0" d="M3018.3,2865.7v102.7c0,16.2-13.1,29.3-29.3,29.3H70.3c-16.2,0-29.3-13.1-29.3-29.3v-102.7l78.2-138.3V151.1
		c0-37.7,30.6-68.3,68.3-68.3h2673.3c37.7,0,68.3,30.6,68.3,68.3v2576.2L3018.3,2865.7z"/>
	<path class="st1" d="M2830.9,2727.3H217.6v-2509c0-20.3,16.4-36.7,36.7-36.7h2540c20.3,0,36.7,16.4,36.7,36.7v2509H2830.9z"/>
	<path class="st2" d="M2451.6,2742.8l7.7-35c6.9-31.2,46-54.3,91.9-54.3h145.3c46.1,0,85.2,23.2,92,54.5l7.5,34.8H2451.6z"/>
	<path class="st3" d="M2448,2742.8h351.5c2.3,0,4.1,1.9,4.1,4.1v64.4c0,10.3-8.4,18.7-18.7,18.7h-322.3c-10.3,0-18.7-8.4-18.7-18.7
		v-64.4C2443.9,2744.6,2445.7,2742.8,2448,2742.8z"/>
	<path class="st4" d="M2300.6,2767.9l2.1,9.5c0.5,2.2-0.9,4.3-3.1,4.7l-97.2,18.1c-2.1,0.4-4.1-0.9-4.5-3l-2.2-9.5
		c-0.5-2.2,0.9-4.3,3.1-4.7l97.3-18.1C2298.1,2764.5,2300.1,2765.9,2300.6,2767.9z"/>
	<path class="st5" d="M2400.7,2799l0.2,9.7c0,2.2-1.7,4-4,4l-98.9-1.2c-2.1,0-3.8-1.7-3.9-3.8l-0.3-9.8c-0.1-2.2,1.7-4.1,4-4l99,1.3
		C2399,2795.2,2400.7,2796.9,2400.7,2799z"/>
	<path class="st6" d="M2590.8,2650.8c11.3-0.2,37.5-0.5,67.6,0c3.3,0.1,6,1.8,6,4v87.9h-79.5v-88
		C2584.9,2652.7,2587.5,2650.9,2590.8,2650.8z"/>
	<path class="st7" d="M2939.2,2724.4V151.1c0-43.2-35.1-78.3-78.3-78.3H187.6c-43.2,0-78.3,35.1-78.3,78.3v2573.6L31,2863v105.3
		c0,21.7,17.6,39.3,39.3,39.3H2989c21.7,0,39.3-17.6,39.3-39.3v-105.6L2939.2,2724.4z M2820.9,2717.3h-20.2l-2.5-11.5
		c-7.8-36.2-50.6-62.4-101.8-62.4h-28.8c-2.6-1.6-5.7-2.6-9.1-2.6c-29.7-0.5-55.3-0.2-67.9,0l0,0c-3.4,0.1-6.6,1-9.1,2.6h-30.3
		c-51,0-93.8,26.1-101.7,62.2l-2.6,11.7H227.6v-2499c0-14.7,12-26.7,26.7-26.7h2540c14.7,0,26.7,12,26.7,26.7v2499H2820.9z
		 M2696.5,2663.5c41.1,0,76.5,20,82.2,46.6l4.9,22.7h-109.2v-69.3H2696.5z M2654.4,2663.5v69.3h-59.5v-69.3H2654.4z M2574.9,2732.8
		H2464l5-22.8c5.8-26.5,41.2-46.5,82.2-46.5h23.7V2732.8z M2453.9,2752.8h121h99.5h119.3v58.6c0,4.8-3.9,8.7-8.7,8.7h-322.3
		c-4.8,0-8.7-3.9-8.7-8.7v-58.6H2453.9z M2437.7,2737.3c-2.3,2.5-3.8,5.9-3.8,9.6v64.4c0,15.8,12.9,28.7,28.7,28.7h322.3
		c15.8,0,28.7-12.9,28.7-28.7v-64.4c0-3.7-1.4-7.1-3.8-9.6h31h82.9l76.2,118.3H58.1l66.9-118.3h82.5H2437.7z M129.2,151.1
		c0-32.2,26.2-58.3,58.3-58.3h2673.3c32.2,0,58.3,26.2,58.3,58.3v2566.2h-78.3v-2499c0-25.7-20.9-46.7-46.7-46.7h-2540
		c-25.7,0-46.7,20.9-46.7,46.7v2499h-78.3L129.2,151.1L129.2,151.1z M2989,2987.7H70.3c-10.7,0-19.3-8.7-19.3-19.3v-92.7h2957.3
		v92.7C3008.3,2979,2999.7,2987.7,2989,2987.7z M2178.3,2801.8c2.5,10.9,12.1,18.5,23.3,18.5c1.5,0,2.9-0.1,4.4-0.4l68.2-12.7v1.1
		c0.4,12.8,10.8,23,23.6,23.1l98.9,1.2h0.1h0.2c6.4,0,12.6-2.6,17.1-7.2c4.5-4.6,7-10.9,6.8-17.3l-0.2-9.7
		c-0.3-13-10.7-23.2-23.6-23.4l-74.7-0.9c-0.1-0.4-0.1-0.7-0.2-1.1l-2.1-9.5c-2.5-11-12.1-18.7-23.3-18.7c-1.5,0-2.9,0.1-4.4,0.4
		l-97.3,18.1c-6.4,1.2-12.1,5-15.6,10.4s-4.7,12.2-3.3,18.5L2178.3,2801.8z M2400.7,2799l0.2,9.7c0,2.2-1.7,4-3.9,4l0,0l-98.9-1.2
		c-2.1,0-3.8-1.7-3.9-3.8l-0.1-4.2l0,0l-0.2-5.6c0-0.3,0-0.6,0.1-0.8c0-0.1,0-0.2,0.1-0.2c0-0.2,0.1-0.4,0.1-0.5s0.1-0.2,0.1-0.3
		c0.1-0.1,0.1-0.3,0.2-0.4c0.1-0.1,0.1-0.2,0.2-0.3c0.1-0.1,0.2-0.2,0.3-0.3s0.2-0.1,0.3-0.2c0.1-0.1,0.2-0.2,0.3-0.3
		s0.2-0.1,0.3-0.2c0.1-0.1,0.2-0.1,0.4-0.2c0.1,0,0.2-0.1,0.3-0.1s0.3-0.1,0.4-0.1c0.1,0,0.3,0,0.4,0c0.2,0,0.3,0,0.5,0l99,1.3
		C2399,2795.2,2400.7,2796.9,2400.7,2799z M2198.7,2783l97.3-18.1c0.2,0,0.5-0.1,0.7-0.1c1.8,0,3.4,1.2,3.8,3.1l1.3,6h-3.8h-0.3
		c-6.4,0-12.7,2.7-17.2,7.3c-1.5,1.6-2.8,3.3-3.8,5.2l-74.5,13.9c-0.2,0-0.5,0.1-0.7,0.1c-1.8,0-3.4-1.2-3.8-3l-2.2-9.5
		C2195.1,2785.6,2196.5,2783.4,2198.7,2783z"/>
</g>
</svg>
