<?xml version="1.0" encoding="utf-8"?>
<!-- Generator: Adobe Illustrator 27.7.0, SVG Export Plug-In . SVG Version: 6.00 Build 0)  -->
<svg version="1.1" id="레이어_1" xmlns="http://www.w3.org/2000/svg" xmlns:xlink="http://www.w3.org/1999/xlink" x="0px"
	 y="0px" width="697.8px" height="718.2px" viewBox="0 0 697.8 718.2" style="enable-background:new 0 0 697.8 718.2;"
	 xml:space="preserve">
<style type="text/css">
	.st0{fill:#7F512F;}
	.st1{fill:#2B1B0F;}
	.st2{fill:#662B2B;}
	.st3{fill:#C48D60;}
	.st4{fill:#755032;}
	.st5{fill:#EFB681;}
	.st6{fill:#FFE9D7;}
	.st7{fill:#C12D2D;}
	.st8{fill:#231815;}
</style>
<g>
	<path class="st0" d="M495.1,20.7c-0.8-0.2-1.7,0.3-1.9,1.1L472.1,101c-2.1,8,10,18.1,27.1,22.6c17.1,4.5,32.6,1.8,34.8-6.2l21-79.2
		c0.2-0.8-0.3-1.7-1.1-1.9L495.1,20.7z"/>
	
		<ellipse transform="matrix(0.2568 -0.9665 0.9665 0.2568 362.3012 528.0332)" class="st0" cx="524.5" cy="28.4" rx="14.9" ry="32"/>
	<path class="st1" d="M490.8,289.7l43.6-55.8c-1.7-3.2-3.6-6.3-5.7-9.2c-2.4-3.4-4.5-6.8-6.2-10.2c-9-17.6-10.9-38.1-5.8-57.3
		l8.4-31.7c0,0-11.3,2.1-26-1.8s-23.4-11.3-23.4-11.3l-8.4,31.7c-5.1,19.2-16.8,36-33.4,46.8c-3.2,2.1-6.7,4-10.5,5.8
		c-19.6,9.1-36.7,26.3-49,48.3c0,0,0.2,14.6,0.2,39.6"/>
	<path class="st2" d="M462.1,329.7l25-35c-74.7-15-112.6-31.5-112.6-31.5s0.1,64,0.3,69.1"/>
	<path class="st3" d="M460.9,331.5c13.4-19.4,35.5-50.6,49.2-65.5c20.5-22.2,63.8-93.7,108.6-65c34.1,21.9,29.4,68.4-8.9,128.5"/>
	<path class="st4" d="M547,227c7.2,8,28.3,31.9,37,43.9c0.4,0.6,0,1.3-0.7,1.3c-2.4-0.1-7.1-0.7-11.8-4c-5.5-3.8-29.5-19.9-38-25.6
		c-1.6-1.1-1.9-3.3-0.6-4.8l9.3-10.9C543.4,225.6,545.7,225.6,547,227z"/>
	<path class="st4" d="M507.8,268.6c1.2-1.5,3.2-1.9,4.8-0.9c10.4,6.4,47.8,29.9,47,37.7c-1,9.1-37.4-14-49.7-19.2l-7.5-3.2
		c-2.3-1-3-4.1-1.3-6.2L507.8,268.6z"/>
	<path class="st4" d="M484.7,302.2c7.8,5.6,36.2,25.7,45.2,30.9c1.2,0.7,1.8,2,1.5,3.3c-0.6,2.4-2.9,5.1-10.7,1.8
		c-10.1-4.3-37.3-17.2-46-21.4c-1.4-0.7-1.9-2.5-0.9-3.7l7.5-10.3C482,301.6,483.5,301.4,484.7,302.2z"/>
	<path class="st5" d="M687.7,346.6l-9.9,28.9c-1.8,5.2-6.6,8.7-12.1,8.7H373.1c-0.2,0.4-0.5,0.9-0.7,1.3h81.3h187.9h20.7l-78,302.9
		c-3,11.8-13.7,20-25.9,20H133.8c-12.4,0-23.2-8.6-26-20.7L38.2,385.4h290.7c-0.3-0.4-0.5-0.8-0.7-1.3H32.9
		c-5.7,0-10.6-3.7-12.3-9.1l-7.1-23.9c-2.4-8.2,3.6-16.4,12.2-16.4l301-2.3V120.7c0-8.1,6.6-14.7,14.7-14.7H360
		c8.1,0,14.7,6.6,14.7,14.7V332l300.8-2.3C684.3,329.6,690.6,338.2,687.7,346.6z"/>
	<path class="st6" d="M670.4,329.7c1.3,0,1.9,1.8,1.1,2.9L647.6,371c-24.1,37.8-30.2,81.8-43.7,81.8c-35.5,0-74-21.9-95.8-32
		c-30.9-14.3-112.7-83.4-120.1-87.9c-0.2-0.1-0.2-0.6,0.1-0.6L670.4,329.7z"/>
	<path class="st7" d="M150.2,332.7l132.6-0.7c0,0-13-36.1-66-34.3S150.2,332.7,150.2,332.7z"/>
	<path class="st7" d="M80.4,333.8h69.8c0,0,16.6-37.5,69.9-36.2c0,0-10.9-50.7-72.6-43.6c-21.8,2.5-41.7,13.8-54.2,31.7
		C85.2,297.3,79.1,313.1,80.4,333.8z"/>
	<path class="st7" d="M211.6,277.5c0,0,27.1-58.9,95-29.3l19.6,10.5v73.2h-43.4c0,0-15.2-33.1-56.4-34.4c-3.9-0.1-7.3-2.4-8.8-6
		L211.6,277.5z"/>
	<g>
		<path class="st8" d="M690,332c-3.4-4.7-8.8-7.4-14.6-7.4h-4.5c-0.2,0-0.4,0-0.6,0l-28.9,0.3l-23.1,0.2c16.9-28,26.4-52.7,28-73.7
			c1.9-24-6.8-42.8-25-54.5c-29.9-19.2-58.6,1.4-81,25.3c-0.8,0.5-1.5,1-2.1,1.7l-2.4,2.8c-1-1.7-2.1-3.3-3.2-4.8
			c-2.2-3.1-4.1-6.3-5.8-9.6c-8.3-16.3-10.3-35.3-5.4-53.7l8.1-30.3c4.7-2.1,8-5.2,9.1-9.4l21.1-79.3c0.1-0.3,0.1-0.5,0.2-0.8
			c0.1-0.3,0.2-0.5,0.3-0.8l0,0c2.9-11-10.3-23.3-30.6-28.7c-20.4-5.4-38-1.2-40.9,9.7c-0.1,0.3-0.1,0.6-0.2,0.8
			c-0.1,0.2-0.2,0.4-0.2,0.7l-21.1,79.3c-1.1,4.2,0.2,8.7,3.3,12.9l-8,30.2c-4.9,18.4-16,34-31.3,43.9c-3.1,2-6.4,3.9-9.8,5.4
			c-15.6,7.2-30,19.6-41.7,35.5v-107c0-10.8-8.8-19.7-19.7-19.7h-18.7c-10.8,0-19.7,8.8-19.7,19.7v129.9l-12.7-6.8l-0.4-0.2
			c-2.2-0.9-4.3-1.8-6.4-2.6c0.6-0.7,1-1,1-1.1c2-1.9,2.1-5,0.2-7.1c-1.9-2-5-2.1-7.1-0.2c-0.2,0.2-2.2,2-4.6,5.1
			c-28.3-7.4-48.5,0.8-61.1,9.9c-10.1,7.3-16.7,16.1-20.3,21.8C200,257.9,180.6,245.1,147,249c-6.7,0.8-13.2,2.3-19.4,4.6
			c0-0.6,0.1-0.9,0.1-1c0.4-2.7-1.5-5.2-4.3-5.6c-2.7-0.4-5.3,1.5-5.6,4.3c0,0.3-0.4,2.9-0.2,6.7c-11.3,5.9-21.1,14.4-28.4,24.9
			c-9.5,13.6-14.2,29.3-14,46.5l-49.6,0.4c-5.6,0-10.8,2.7-14.2,7.2S7,347.2,8.6,352.7l7.1,23.9c2.2,7.5,9.2,12.7,17.1,12.7H34
			l68.9,299.6c3.3,14.5,16,24.6,30.9,24.6h424.7c14.5,0,27.1-9.8,30.7-23.8l77.3-300.4c7.3-0.3,13.6-5.1,16-12l9.9-28.9
			C694.3,342.7,693.4,336.7,690,332z M643.4,368.2c-11.2,17.5-18.6,36.3-24.5,51.4c-3.5,8.9-6.5,16.5-9.4,21.8
			c-3.3,5.8-5.1,6.3-5.6,6.3c-28.9,0-59.8-15.1-82.4-26.1c-4-2-7.9-3.8-11.3-5.4c-22-10.1-72.2-50.2-99.2-71.7
			c-3.6-2.8-6.6-5.3-9.2-7.3l20.8-0.2c13.7,10.6,115.1,87.9,172.1,88.5h3.6l1.2-3.4c0.1-0.2,5.6-16.1,22.3-46.7
			c16.5-30.3,24.9-40.1,25-40.2l-0.4-0.3l17.8-0.1L643.4,368.2z M201.8,304.2c-0.2,3.1,0,7.2,1.2,12.5c-5.6-0.6-10.1-2.4-10.2-2.5
			c-2.5-1.1-5.5,0.1-6.5,2.6c-1.1,2.5,0.1,5.5,2.6,6.6c0.6,0.2,8.4,3.5,17.5,3.5c0.8,0,1.6,0,2.4-0.1c0.2,0,0.5,0.1,0.7,0.1
			c0.5,0,0.9-0.1,1.4-0.2c0.1,0,0.2-0.1,0.2-0.1c6.2-0.9,12.6-3.6,17.4-10.2c1.6-2.2,1.2-5.4-1.1-7c-2.2-1.6-5.4-1.2-7,1.1
			c-2,2.8-4.6,4.4-7.4,5.3c-2-8.4-1.3-11.8-0.9-12.9c1.6-0.1,3.2-0.2,4.9-0.3c1.1,0,2.2-0.1,3.3-0.1l5.9,0.1
			c9.4,0.5,17.2,2.4,23.7,5c12.1,5.3,19.8,13.4,24.1,19.3l-113.8,0.6c4.4-5.5,11.6-12.6,22.8-17.9
			C188.2,307.4,194.5,305.4,201.8,304.2z M189.5,390.4l33.1,312.9h-46.4l-55.8-312.9H189.5z M199.6,390.4h65.5l20.7,312.9h-53.1
			L199.6,390.4z M275.1,390.4h51.4c3.5,4,8.6,6.6,14.4,6.8v306.2h-45L275.1,390.4z M350.9,397.2h9.2c5.9,0,11.2-2.6,14.8-6.8h46.9
			l-20.8,313h-50.1V397.2z M544.8,232.1c5.4,6.1,16.3,18.4,25.2,29.2c-8.2-5.5-23.4-15.8-31.9-21.4
			C540.3,237.2,542.5,234.6,544.8,232.1z M551,301c-6.9-2.7-17.7-8.4-24.4-12c-6-3.2-11.2-6-14.8-7.5l-6.1-2.6l5.3-6.4
			C531.2,285,544.9,295.1,551,301z M634.5,335c-4.3,6.1-11.4,17.2-21.5,35.6c-12.7,23.4-19.1,38.3-21.6,44.7
			c-46.1-3.1-123.2-57-152.3-78.5L634.5,335z M385.4,337.1c1.3,0.8,6.3,4.7,12.8,9.8c-0.2,0.6-0.3,1.3-0.2,2
			c0.5,5.7,0.5,16.4-1.6,21c-1.1,2.5,0,5.5,2.5,6.6c0.7,0.3,1.4,0.5,2.1,0.5c1.9,0,3.7-1.1,4.6-2.9c2.4-5.3,2.9-13.3,2.8-19.1
			c9.1,7.2,19.7,15.7,30.7,24.2h-59.3c0-0.5,0.1-1.1,0.1-1.6V337h5.4C385.2,337,385.3,337,385.4,337.1z M470.7,326.2l3.1-4.3
			c2.9,1.4,5.8,2.8,8.8,4.2L470.7,326.2z M505.7,326c-9.5-4.4-20-9.4-26.1-12.3l4.2-5.9c5.8,4.2,16.3,11.6,25.9,18.2L505.7,326z
			 M471.9,307.1l-2.2,3.1c-0.1,0.2-0.2,0.4-0.4,0.6c-3.8,5.4-7.5,10.7-10.9,15.6l-78.6,0.6c0-0.8,0-1.7,0-2.6v-53.7
			c13.6,5.2,46.5,16.4,98.8,27.4C476.2,301,474.1,304,471.9,307.1z M431.8,390.4h21.9c14.7,11.1,29.1,21.4,40.6,28.4l-30.1,284.5
			H411L431.8,390.4z M503.8,424.2c0.8,0.4,1.5,0.7,2.2,1.1c3.3,1.5,7.1,3.4,11.1,5.3c13.1,6.4,30.3,14.8,48.5,20.5l-45,252.3h-46.4
			L503.8,424.2z M616,205.2c40.8,26.2,12.2,85.7-9.4,120l-81.3,0.6c-8.2-5.7-22.1-16.5-35.6-26.2l1.7-2.3c1.1-1.5,2.3-3,3.4-4.5l0,0
			l4.5-5.8c0.4,0.2,0.7,0.4,1.2,0.6l7.5,3.2c3.2,1.3,8.4,4.1,14,7.1c17.6,9.4,28.1,14.5,34.7,14.5c1.6,0,3-0.3,4.2-0.9
			c2.1-1.1,3.5-3.2,3.7-5.6c0.4-3.4,1.2-11.2-46.9-40.9c2.6-3.1,5.5-6.7,8.6-10.6c1.8-2.2,3.6-4.5,5.5-6.8
			c10.1,6.8,31.7,21.3,36.9,24.9c5.8,4,11.6,4.7,14.5,4.8c0.1,0,0.1,0,0.2,0c2.2,0,4.1-1.2,5.1-3.1c1-2,0.9-4.3-0.4-6.1
			c-8.4-11.6-27.6-33.4-36.4-43.3C570.9,205.2,593.6,190.8,616,205.2z M498.4,21.6c0.7-2.5,6-4.7,14.1-4.7c4.2,0,9.1,0.6,14.5,2
			c15.7,4.2,24.6,12.7,23.5,16.5c-1,3.8-13,6.8-28.6,2.6c-7.5-2-14.3-5.3-18.8-9C499.8,26.2,497.9,23.3,498.4,21.6z M476.9,102.3
			L494.8,35c0.6,0.6,1.2,1.1,1.9,1.7c5.7,4.7,13.7,8.6,22.7,11c6,1.6,11.8,2.4,17,2.4c3.9,0,7.5-0.4,10.6-1.2l-17.9,67.4
			c-0.9,3.4-10.8,6.2-24.2,3.7c-0.1,0-0.2,0-0.3-0.1c-0.3-0.1-0.6-0.1-0.9-0.2c-0.2,0-0.3-0.1-0.5-0.1c-0.3-0.1-0.6-0.1-0.9-0.2
			c-0.2,0-0.3-0.1-0.5-0.1c-0.4-0.1-0.9-0.2-1.4-0.3c-0.8-0.2-1.5-0.4-2.2-0.6c-0.1,0-0.2-0.1-0.3-0.1c-0.7-0.2-1.3-0.4-2-0.6
			c-0.2-0.1-0.4-0.1-0.6-0.2c-0.3-0.1-0.7-0.2-1-0.4C482.5,112.4,476,105.6,476.9,102.3z M425.6,201.3c3.8-1.8,7.6-3.8,11.1-6.1
			c17.4-11.3,30-29,35.5-49.7l6.6-24.9c2.9,1.7,6.7,3.7,11.3,5.5c0.5,0.2,1,0.4,1.6,0.6c0.2,0.1,0.3,0.1,0.5,0.2
			c0.8,0.3,1.7,0.6,2.5,0.8c0.2,0.1,0.3,0.1,0.5,0.2c0.9,0.3,1.8,0.5,2.7,0.8c0,0,0,0,0.1,0h0.1c0.9,0.2,1.8,0.5,2.7,0.7
			c0.2,0.1,0.5,0.1,0.7,0.2c0.7,0.1,1.3,0.3,2,0.4c0.3,0.1,0.5,0.1,0.8,0.2c0.4,0.1,0.9,0.1,1.3,0.2c5.1,0.8,9.6,1,13,0.9L512,156
			c-5.5,20.7-3.3,42.3,6.1,60.8c1.9,3.7,4.1,7.4,6.6,10.8c1.3,1.8,2.6,3.8,3.8,5.9l-30.2,38.6c-4.1,5.1-8.6,10.9-13.3,17
			c-59.4-12.1-94.9-25.1-105.3-29.2V246C391.6,225.4,407.8,209.5,425.6,201.3z M331.7,120.7c0-5.3,4.3-9.7,9.7-9.7H360
			c5.3,0,9.7,4.3,9.7,9.7v122.7l-0.2,0.4v1.3c0,0.1,0.1,3.8,0.1,10.5h-0.1v7.6c0,2.1,0.1,43,0.2,61.1v53.3c0,5.3-4.3,9.7-9.7,9.7
			h-18.7c-5.3,0-9.7-4.3-9.7-9.7V120.7H331.7z M236.6,255.8c14.2-10.2,30.7-13.3,49.3-9.2c-1.7,3.1-3.2,6.6-4.2,10.4
			c-4.2-2.9-6.8-6.3-7-6.7c-1.6-2.2-4.7-2.7-7-1.1c-2.2,1.6-2.8,4.7-1.1,7c4.3,6,14.5,14.9,27.4,14.9c3.6,0,7.4-0.7,11.4-2.4
			c2.5-1.1,3.7-4,2.7-6.5s-4-3.7-6.5-2.7c-3.7,1.6-7.2,1.8-10.4,1.4c0.8-4.2,2.7-8.2,4.7-11.5c2.8,1,5.7,2.1,8.6,3.3l16.8,9v65.2
			H286c-3.3-6.5-12.6-21-33.3-28.9c-7.3-3.1-16-5.2-26.2-5.5c-1.2,0-2.3-0.5-3.1-1.2c-1.1-3-2.8-6.9-5.3-11.3l-1-2.3
			C219.4,273.6,225.6,263.7,236.6,255.8z M85.2,328.8c-0.1-15,4-28.5,12.2-40.3c5.7-8.2,13.2-15,21.8-20c1.1,4.1,2.9,8.4,5.7,12.6
			c-5.8,1.7-11.2,1.3-11.6,1.3c-2.7-0.3-5.2,1.8-5.4,4.5c-0.3,2.8,1.8,5.2,4.5,5.4c0.2,0,1.2,0.1,2.8,0.1c6.9,0,24.9-1.7,32.1-18.1
			c1.1-2.5,0-5.5-2.6-6.6c-2.5-1.1-5.5,0-6.6,2.6c-1.1,2.5-2.6,4.5-4.3,6c-2.9-4-4.5-8.4-5.3-12.4c6.2-2.5,12.8-4.3,19.7-5
			c35.6-4.1,52.9,12.3,60.8,25.2l3.6,8.5c-15.7,0.7-28,4.6-37.6,9.7c-17.9,9-25.8,21.5-28.4,26.4h-1L85.2,328.8L85.2,328.8z
			 M25.4,373.6l-7.1-23.9c-0.7-2.4-0.3-4.9,1.2-6.9s3.7-3.1,6.2-3.2l119.9-0.9h7.8v-0.1l168.2-1.3v40.1c0,0.5,0,1.1,0.1,1.6H32.9
			C29.4,379.2,26.4,376.9,25.4,373.6z M112.6,686.5L44.5,390.4h65.8l55.8,312.9h-32.3C123.6,703.4,114.9,696.4,112.6,686.5z
			 M579.5,687.1c-2.5,9.6-11.1,16.3-21,16.3h-27.8l44.5-249.6c4.2,1.1,8.5,2,12.8,2.6c-0.1,0.1-0.2,0.2-0.3,0.3
			c-1.8,2.1-1.7,5.2,0.4,7.1c5,4.4,10.7,5.9,16,5.9c9.8,0,18.4-5,19-5.3c2.4-1.4,3.1-4.5,1.7-6.8c-1.4-2.4-4.5-3.2-6.8-1.8
			c-0.1,0.1-12.9,7.5-21.7,1.7c2.5,0.2,5.1,0.3,7.6,0.3c10.8,0,16.2-13.7,24.3-34.4c3.9-9.8,8.4-21.3,14.1-32.8h13.6L579.5,687.1z
			 M683,345l-9.9,28.9c-1.1,3.2-4,5.3-7.4,5.3h-17.3c1.1-1.9,2.2-3.8,3.4-5.6l23.8-38.3c0.1-0.2,0.3-0.4,0.4-0.6
			c2.4,0.1,4.5,1.3,5.9,3.2C683.4,340,683.8,342.5,683,345z"/>
		<path class="st8" d="M101.2,423c2.1-1.8,2.2-5,0.4-7.1c-1.8-2.1-5-2.2-7.1-0.4c-8.7,7.8-23-0.5-23.2-0.6c-2.4-1.4-5.4-0.6-6.8,1.7
			c-1.4,2.4-0.6,5.4,1.7,6.9c0.5,0.3,9.1,5.3,19,5.3C90.5,428.9,96.2,427.4,101.2,423z"/>
		<path class="st8" d="M109.4,463.7c2.1-1.8,2.2-5,0.4-7.1s-5-2.2-7.1-0.4c-8.7,7.7-22.9-0.4-23.2-0.6c-2.4-1.4-5.4-0.6-6.8,1.7
			c-1.4,2.4-0.6,5.4,1.7,6.9c0.5,0.3,9.1,5.3,19,5.3C98.8,469.6,104.5,468.2,109.4,463.7z"/>
		<path class="st8" d="M117.7,502c2.1-1.8,2.2-5,0.4-7.1s-5-2.2-7.1-0.4c-8.7,7.7-22.9-0.4-23.2-0.6c-2.4-1.4-5.4-0.6-6.8,1.7
			c-1.4,2.4-0.6,5.4,1.7,6.9c0.5,0.3,9.1,5.3,19,5.3C107,507.8,112.7,506.4,117.7,502z"/>
		<path class="st8" d="M126,540.2c2.1-1.8,2.2-5,0.4-7.1c-1.8-2.1-5-2.2-7.1-0.4c-8.7,7.8-23-0.5-23.2-0.6c-2.4-1.4-5.4-0.6-6.8,1.7
			c-1.4,2.4-0.6,5.4,1.7,6.9c0.5,0.3,9.1,5.3,19,5.3C115.3,546.1,121,544.6,126,540.2z"/>
		<path class="st8" d="M133.5,582c2.1-1.8,2.2-5,0.4-7.1s-5-2.2-7.1-0.4c-8.7,7.8-23-0.5-23.2-0.6c-2.4-1.4-5.4-0.6-6.8,1.7
			c-1.4,2.4-0.6,5.4,1.7,6.9c0.5,0.3,9.1,5.3,19,5.3C122.9,587.8,128.5,586.4,133.5,582z"/>
		<path class="st8" d="M141.9,623.2c2.1-1.8,2.2-5,0.4-7.1s-5-2.2-7.1-0.4c-8.7,7.7-22.9-0.4-23.2-0.6c-2.4-1.4-5.4-0.6-6.8,1.7
			c-1.4,2.4-0.6,5.4,1.7,6.9c0.5,0.3,9.1,5.3,19,5.3C131.2,629.1,136.9,627.6,141.9,623.2z"/>
		<path class="st8" d="M150.4,659c-1.8-2.1-5-2.2-7.1-0.4c-8.7,7.7-22.9-0.4-23.2-0.6c-2.4-1.4-5.4-0.6-6.8,1.7
			c-1.4,2.4-0.6,5.4,1.7,6.9c0.5,0.3,9.1,5.3,19,5.3c5.3,0,11-1.5,16-5.9C152.1,664.3,152.3,661.1,150.4,659z"/>
		<path class="st8" d="M177.9,425.3c2.1-1.8,2.2-5,0.4-7.1s-5-2.2-7.1-0.4c-8.7,7.8-23-0.5-23.2-0.6c-2.4-1.4-5.4-0.6-6.8,1.7
			c-1.4,2.4-0.6,5.4,1.7,6.9c0.5,0.3,9.1,5.3,19,5.3C167.3,431.2,173,429.8,177.9,425.3z"/>
		<path class="st8" d="M184.2,466c2.1-1.8,2.2-5,0.4-7.1s-5-2.2-7.1-0.4c-8.7,7.7-22.9-0.4-23.2-0.6c-2.4-1.4-5.4-0.6-6.8,1.7
			c-1.4,2.4-0.6,5.4,1.7,6.9c0.5,0.3,9.1,5.3,19,5.3C173.6,471.9,179.2,470.5,184.2,466z"/>
		<path class="st8" d="M189.5,504.3c2.1-1.8,2.2-5,0.4-7.1s-5-2.2-7.1-0.4c-8.7,7.8-23-0.5-23.2-0.6c-2.4-1.4-5.4-0.6-6.8,1.7
			c-1.4,2.4-0.6,5.4,1.7,6.9c0.5,0.3,9.1,5.3,19,5.3C178.8,510.2,184.5,508.7,189.5,504.3z"/>
		<path class="st8" d="M195.7,542.5c2.1-1.8,2.2-5,0.4-7.1s-5-2.2-7.1-0.4c-8.7,7.7-22.9-0.4-23.2-0.6c-2.4-1.4-5.4-0.6-6.8,1.7
			c-1.4,2.4-0.6,5.4,1.7,6.9c0.5,0.3,9.1,5.3,19,5.3C185.1,548.4,190.8,546.9,195.7,542.5z"/>
		<path class="st8" d="M201.3,584.3c2.1-1.8,2.2-5,0.4-7.1s-5-2.2-7.1-0.4c-8.7,7.8-23-0.5-23.2-0.6c-2.4-1.4-5.4-0.6-6.8,1.7
			c-1.4,2.4-0.6,5.4,1.7,6.9c0.5,0.3,9.1,5.3,19,5.3C190.6,590.2,196.3,588.7,201.3,584.3z"/>
		<path class="st8" d="M207.7,625.5c2.1-1.8,2.2-5,0.4-7.1s-5-2.2-7.1-0.4c-8.7,7.8-23-0.5-23.2-0.6c-2.4-1.4-5.4-0.6-6.8,1.7
			c-1.4,2.4-0.6,5.4,1.7,6.9c0.5,0.3,9.1,5.3,19,5.3C197,631.4,202.7,629.9,207.7,625.5z"/>
		<path class="st8" d="M183,660.4c-2.4-1.4-5.4-0.6-6.8,1.7c-1.4,2.4-0.6,5.4,1.7,6.9c0.5,0.3,9.1,5.3,19,5.3c5.3,0,11-1.5,16-5.9
			c2.1-1.8,2.2-5,0.4-7.1s-5-2.2-7.1-0.4C197.4,668.7,183.1,660.5,183,660.4z"/>
		<path class="st8" d="M252.2,425.3c2.1-1.8,2.2-5,0.4-7.1s-5-2.2-7.1-0.4c-8.7,7.8-23-0.5-23.2-0.6c-2.4-1.4-5.4-0.6-6.8,1.7
			c-1.4,2.4-0.6,5.4,1.7,6.9c0.5,0.3,9.1,5.3,19,5.3C241.5,431.2,247.2,429.8,252.2,425.3z"/>
		<path class="st8" d="M257.5,466c2.1-1.8,2.2-5,0.4-7.1s-5-2.2-7.1-0.4c-8.7,7.7-22.9-0.4-23.2-0.6c-2.4-1.4-5.4-0.6-6.8,1.7
			c-1.4,2.4-0.6,5.4,1.7,6.9c0.5,0.3,9.1,5.3,19,5.3C246.8,471.9,252.5,470.5,257.5,466z"/>
		<path class="st8" d="M261.7,504.3c2.1-1.8,2.2-5,0.4-7.1c-1.8-2.1-5-2.2-7.1-0.4c-8.7,7.8-23-0.5-23.2-0.6
			c-2.4-1.4-5.4-0.6-6.8,1.7c-1.4,2.4-0.6,5.4,1.7,6.9c0.5,0.3,9.1,5.3,19,5.3C251.1,510.2,256.7,508.7,261.7,504.3z"/>
		<path class="st8" d="M265,542.5c2.1-1.8,2.2-5,0.4-7.1c-1.8-2.1-5-2.2-7.1-0.4c-8.7,7.8-23-0.5-23.2-0.6c-2.4-1.4-5.4-0.6-6.8,1.7
			c-1.4,2.4-0.6,5.4,1.7,6.9c0.5,0.3,9.1,5.3,19,5.3C254.3,548.4,260,546.9,265,542.5z"/>
		<path class="st8" d="M267.5,584.3c2.1-1.8,2.2-5,0.4-7.1s-5-2.2-7.1-0.4c-8.7,7.8-23-0.5-23.2-0.6c-2.4-1.4-5.4-0.6-6.8,1.7
			c-1.4,2.4-0.6,5.4,1.7,6.9c0.5,0.3,9.1,5.3,19,5.3C256.9,590.2,262.6,588.7,267.5,584.3z"/>
		<path class="st8" d="M271.9,625.5c2.1-1.8,2.2-5,0.4-7.1s-5-2.2-7.1-0.4c-8.7,7.8-23-0.5-23.2-0.6c-2.4-1.4-5.4-0.6-6.8,1.7
			c-1.4,2.4-0.6,5.4,1.7,6.9c0.5,0.3,9.1,5.3,19,5.3C261.3,631.4,266.9,629.9,271.9,625.5z"/>
		<path class="st8" d="M275.4,661.4c-1.8-2.1-5-2.2-7.1-0.4c-8.7,7.7-22.9-0.4-23.2-0.6c-2.4-1.4-5.4-0.6-6.8,1.7
			c-1.4,2.4-0.6,5.4,1.7,6.9c0.5,0.3,9.1,5.3,19,5.3c5.3,0,11-1.5,16-5.9C277.1,666.6,277.3,663.4,275.4,661.4z"/>
		<path class="st8" d="M292.4,425.9c0.5,0.3,9.1,5.3,19,5.3c5.3,0,11-1.5,16-5.9c2.1-1.8,2.2-5,0.4-7.1c-1.8-2.1-5-2.2-7.1-0.4
			c-8.7,7.8-23-0.5-23.2-0.6c-2.4-1.4-5.4-0.6-6.8,1.7C289.3,421.4,290.1,424.5,292.4,425.9z"/>
		<path class="st8" d="M293.7,466.6c0.5,0.3,9.1,5.3,19,5.3c5.3,0,11-1.5,16-5.9c2.1-1.8,2.2-5,0.4-7.1c-1.8-2.1-5-2.2-7.1-0.4
			c-8.7,7.7-22.9-0.4-23.2-0.6c-2.4-1.4-5.4-0.6-6.8,1.7C290.6,462.1,291.3,465.2,293.7,466.6z"/>
		<path class="st8" d="M295,504.8c0.5,0.3,9.1,5.3,19,5.3c5.3,0,11-1.5,16-5.9c2.1-1.8,2.2-5,0.4-7.1s-5-2.2-7.1-0.4
			c-8.7,7.8-23-0.5-23.2-0.6c-2.4-1.4-5.4-0.6-6.8,1.7C291.8,500.3,292.6,503.4,295,504.8z"/>
		<path class="st8" d="M331.2,542.5c2.1-1.8,2.2-5,0.4-7.1s-5-2.2-7.1-0.4c-8.7,7.8-23-0.5-23.2-0.6c-2.4-1.4-5.4-0.6-6.8,1.7
			c-1.4,2.4-0.6,5.4,1.7,6.9c0.5,0.3,9.1,5.3,19,5.3C320.5,548.4,326.2,546.9,331.2,542.5z"/>
		<path class="st8" d="M298.8,584.8c0.5,0.3,9.1,5.3,19,5.3c5.3,0,11-1.5,16-5.9c2.1-1.8,2.2-5,0.4-7.1c-1.8-2.1-5-2.2-7.1-0.4
			c-8.7,7.8-23-0.5-23.2-0.6c-2.4-1.4-5.4-0.6-6.8,1.7C295.6,580.3,296.4,583.4,298.8,584.8z"/>
		<path class="st8" d="M300.2,626.1c0.5,0.3,9.1,5.3,19,5.3c5.3,0,11-1.5,16-5.9c2.1-1.8,2.2-5,0.4-7.1s-5-2.2-7.1-0.4
			c-8.7,7.8-23-0.5-23.2-0.6c-2.4-1.4-5.4-0.6-6.8,1.7C297,621.6,297.8,624.6,300.2,626.1z"/>
		<path class="st8" d="M335.6,661.4c-1.8-2.1-5-2.2-7.1-0.4c-8.7,7.7-22.9-0.4-23.2-0.6c-2.4-1.4-5.4-0.6-6.8,1.7
			c-1.4,2.4-0.6,5.4,1.7,6.9c0.5,0.3,9.1,5.3,19,5.3c5.3,0,11-1.5,16-5.9C337.3,666.6,337.4,663.4,335.6,661.4z"/>
		<path class="st8" d="M383.1,431.2c9.8,0,18.4-5,19-5.3c2.4-1.4,3.1-4.5,1.7-6.8c-1.4-2.4-4.5-3.2-6.8-1.8
			c-0.1,0.1-14.4,8.3-23.2,0.6c-2.1-1.8-5.2-1.7-7.1,0.4c-1.8,2.1-1.7,5.2,0.4,7.1C372.1,429.8,377.8,431.2,383.1,431.2z"/>
		<path class="st8" d="M381.8,471.9c9.8,0,18.4-5,19-5.3c2.4-1.4,3.1-4.5,1.7-6.8c-1.4-2.4-4.5-3.2-6.8-1.8
			c-0.1,0.1-14.4,8.3-23.2,0.6c-2.1-1.8-5.2-1.7-7.1,0.4c-1.8,2.1-1.7,5.2,0.4,7.1C370.9,470.5,376.5,471.9,381.8,471.9z"/>
		<path class="st8" d="M380.6,510.2c9.8,0,18.4-5,19-5.3c2.4-1.4,3.1-4.5,1.7-6.9s-4.5-3.1-6.9-1.7c-0.1,0.1-14.3,8.4-23.2,0.6
			c-2.1-1.8-5.2-1.7-7.1,0.4c-1.8,2.1-1.7,5.2,0.4,7.1C369.6,508.7,375.3,510.2,380.6,510.2z"/>
		<path class="st8" d="M400,536.2c-1.4-2.4-4.5-3.2-6.8-1.8c-0.1,0.1-14.4,8.3-23.2,0.6c-2.1-1.8-5.2-1.7-7.1,0.4
			c-1.8,2.1-1.7,5.2,0.4,7.1c5,4.4,10.7,5.9,16,5.9c9.8,0,18.4-5,19-5.3C400.6,541.6,401.4,538.6,400,536.2z"/>
		<path class="st8" d="M390.6,576.2c-0.1,0.1-14.4,8.3-23.2,0.6c-2.1-1.8-5.2-1.7-7.1,0.4c-1.8,2.1-1.7,5.2,0.4,7.1
			c5,4.4,10.7,5.9,16,5.9c9.8,0,18.4-5,19-5.3c2.4-1.4,3.1-4.5,1.7-6.8C396,575.6,393,574.8,390.6,576.2z"/>
		<path class="st8" d="M389.2,617.5c-0.1,0.1-14.3,8.4-23.2,0.6c-2.1-1.8-5.2-1.7-7.1,0.4c-1.8,2.1-1.7,5.2,0.4,7.1
			c5,4.4,10.7,5.9,16,5.9c9.8,0,18.4-5,19-5.3c2.4-1.4,3.1-4.5,1.7-6.9C394.6,616.8,391.6,616.1,389.2,617.5z"/>
		<path class="st8" d="M389.1,660.4c-0.1,0.1-14.4,8.3-23.2,0.6c-2.1-1.8-5.2-1.7-7.1,0.4c-1.8,2.1-1.7,5.2,0.4,7.1
			c5,4.4,10.7,5.9,16,5.9c9.8,0,18.4-5,19-5.3c2.4-1.4,3.1-4.5,1.7-6.8C394.6,659.8,391.5,659,389.1,660.4z"/>
		<path class="st8" d="M609.7,493.9c-0.1,0.1-14.4,8.3-23.2,0.6c-2.1-1.8-5.2-1.7-7.1,0.4c-1.8,2.1-1.7,5.2,0.4,7.1
			c5,4.4,10.7,5.9,16,5.9c9.8,0,18.4-5,19-5.3c2.4-1.4,3.1-4.5,1.7-6.8C615.2,493.3,612.1,492.5,609.7,493.9z"/>
		<path class="st8" d="M601.4,532.1c-0.1,0.1-14.4,8.3-23.2,0.6c-2.1-1.8-5.2-1.7-7.1,0.4c-1.8,2.1-1.7,5.2,0.4,7.1
			c5,4.4,10.7,5.9,16,5.9c9.8,0,18.4-5,19-5.3c2.4-1.4,3.1-4.5,1.7-6.8C606.9,531.5,603.8,530.7,601.4,532.1z"/>
		<path class="st8" d="M592.9,573.9c-0.1,0.1-14.4,8.3-23.2,0.6c-2.1-1.8-5.2-1.7-7.1,0.4c-1.8,2.1-1.7,5.2,0.4,7.1
			c5,4.4,10.7,5.9,16,5.9c9.8,0,18.4-5,19-5.3c2.4-1.4,3.1-4.5,1.7-6.8C598.3,573.3,595.3,572.5,592.9,573.9z"/>
		<path class="st8" d="M584.5,615.2c-0.1,0.1-14.4,8.3-23.2,0.6c-2.1-1.8-5.2-1.7-7.1,0.4c-1.8,2.1-1.7,5.2,0.4,7.1
			c5,4.4,10.7,5.9,16,5.9c9.8,0,18.4-5,19-5.3c2.4-1.4,3.1-4.5,1.7-6.8C589.9,614.5,586.9,613.8,584.5,615.2z"/>
		<path class="st8" d="M576.4,658.1c-0.1,0.1-14.4,8.3-23.2,0.6c-2.1-1.8-5.2-1.7-7.1,0.4c-1.8,2.1-1.7,5.2,0.4,7.1
			c5,4.4,10.7,5.9,16,5.9c9.8,0,18.4-5,19-5.3c2.4-1.4,3.1-4.5,1.7-6.8C581.8,657.5,578.8,656.7,576.4,658.1z"/>
		<path class="st8" d="M529.4,471.9c9.8,0,18.4-5,19-5.3c2.4-1.4,3.1-4.5,1.7-6.8c-1.4-2.4-4.5-3.2-6.8-1.8
			c-0.1,0.1-14.4,8.3-23.2,0.6c-2.1-1.8-5.2-1.7-7.1,0.4s-1.7,5.2,0.4,7.1C518.4,470.5,524.1,471.9,529.4,471.9z"/>
		<path class="st8" d="M524.1,510.2c9.8,0,18.4-5,19-5.3c2.4-1.4,3.1-4.5,1.7-6.9c-1.4-2.4-4.5-3.1-6.9-1.7
			c-0.1,0.1-14.3,8.4-23.2,0.6c-2.1-1.8-5.2-1.7-7.1,0.4c-1.8,2.1-1.7,5.2,0.4,7.1C513.1,508.7,518.8,510.2,524.1,510.2z"/>
		<path class="st8" d="M517.8,548.4c9.8,0,18.4-5,19-5.3c2.4-1.4,3.1-4.5,1.7-6.8c-1.4-2.4-4.5-3.2-6.8-1.8
			c-0.1,0.1-14.4,8.3-23.2,0.6c-2.1-1.8-5.2-1.7-7.1,0.4c-1.8,2.1-1.7,5.2,0.4,7.1C506.8,546.9,512.5,548.4,517.8,548.4z"/>
		<path class="st8" d="M512.3,590.2c9.8,0,18.4-5,19-5.3c2.4-1.4,3.1-4.5,1.7-6.8c-1.4-2.4-4.5-3.2-6.8-1.8
			c-0.1,0.1-14.4,8.3-23.2,0.6c-2.1-1.8-5.2-1.7-7.1,0.4c-1.8,2.1-1.7,5.2,0.4,7.1C501.3,588.7,507,590.2,512.3,590.2z"/>
		<path class="st8" d="M505.9,631.4c9.8,0,18.4-5,19-5.3c2.4-1.4,3.1-4.5,1.7-6.9c-1.4-2.4-4.5-3.1-6.9-1.7
			c-0.1,0.1-14.3,8.4-23.2,0.6c-2.1-1.8-5.2-1.7-7.1,0.4c-1.8,2.1-1.7,5.2,0.4,7.1C494.9,629.9,500.6,631.4,505.9,631.4z"/>
		<path class="st8" d="M521.5,662.1c-1.4-2.4-4.5-3.2-6.8-1.8c-0.1,0.1-14.4,8.3-23.2,0.6c-2.1-1.8-5.2-1.7-7.1,0.4
			c-1.8,2.1-1.7,5.2,0.4,7.1c5,4.4,10.7,5.9,16,5.9c9.8,0,18.4-5,19-5.3C522.1,667.6,522.9,664.5,521.5,662.1z"/>
		<path class="st8" d="M461.4,431.2c9.8,0,18.4-5,19-5.3c2.4-1.4,3.1-4.5,1.7-6.8c-1.4-2.4-4.5-3.2-6.8-1.8
			c-0.1,0.1-14.4,8.3-23.2,0.6c-2.1-1.8-5.2-1.7-7.1,0.4c-1.8,2.1-1.7,5.2,0.4,7.1C450.4,429.8,456.1,431.2,461.4,431.2z"/>
		<path class="st8" d="M456.1,471.9c9.8,0,18.4-5,19-5.3c2.4-1.4,3.1-4.5,1.7-6.8c-1.4-2.4-4.5-3.2-6.8-1.8
			c-0.1,0.1-14.4,8.3-23.2,0.6c-2.1-1.8-5.2-1.7-7.1,0.4s-1.7,5.2,0.4,7.1C445.1,470.5,450.8,471.9,456.1,471.9z"/>
		<path class="st8" d="M451.9,510.2c9.8,0,18.4-5,19-5.3c2.4-1.4,3.1-4.5,1.7-6.9s-4.5-3.1-6.9-1.7c-0.1,0.1-14.3,8.4-23.2,0.6
			c-2.1-1.8-5.2-1.7-7.1,0.4c-1.8,2.1-1.7,5.2,0.4,7.1C440.9,508.7,446.6,510.2,451.9,510.2z"/>
		<path class="st8" d="M448.6,548.4c9.8,0,18.4-5,19-5.3c2.4-1.4,3.1-4.5,1.7-6.8c-1.4-2.4-4.5-3.2-6.8-1.8
			c-0.1,0.1-14.4,8.3-23.2,0.6c-2.1-1.8-5.2-1.7-7.1,0.4c-1.8,2.1-1.7,5.2,0.4,7.1C437.6,546.9,443.3,548.4,448.6,548.4z"/>
		<path class="st8" d="M446,590.2c9.8,0,18.4-5,19-5.3c2.4-1.4,3.1-4.5,1.7-6.8c-1.4-2.4-4.5-3.2-6.8-1.8
			c-0.1,0.1-14.4,8.3-23.2,0.6c-2.1-1.8-5.2-1.7-7.1,0.4c-1.8,2.1-1.7,5.2,0.4,7.1C435.1,588.7,440.7,590.2,446,590.2z"/>
		<path class="st8" d="M462.3,619.2c-1.4-2.4-4.5-3.1-6.9-1.7c-0.1,0.1-14.3,8.4-23.2,0.6c-2.1-1.8-5.2-1.7-7.1,0.4
			c-1.8,2.1-1.7,5.2,0.4,7.1c5,4.4,10.7,5.9,16,5.9c9.8,0,18.4-5,19-5.3C463,624.6,463.8,621.6,462.3,619.2z"/>
		<path class="st8" d="M452.4,660.4c-0.1,0.1-14.4,8.3-23.2,0.6c-2.1-1.8-5.2-1.7-7.1,0.4c-1.8,2.1-1.7,5.2,0.4,7.1
			c5,4.4,10.7,5.9,16,5.9c9.8,0,18.4-5,19-5.3c2.4-1.4,3.1-4.5,1.7-6.8C457.8,659.8,454.8,659,452.4,660.4z"/>
		<path class="st8" d="M60.2,376.8c0.9,0,1.8-0.2,2.6-0.7c2.3-1.5,3.1-4.5,1.6-6.9c-2.7-4.3-4-14.9-4.2-20.6
			c-0.1-2.8-2.4-4.9-5.2-4.8s-4.9,2.4-4.8,5.2c0.1,1.8,0.8,17.5,5.7,25.5C56.9,375.9,58.6,376.8,60.2,376.8z"/>
		<path class="st8" d="M94.1,376.8c0.9,0,1.8-0.2,2.6-0.7c2.3-1.5,3.1-4.5,1.6-6.9c-2.7-4.3-4-14.9-4.2-20.6
			c-0.1-2.8-2.4-4.9-5.2-4.8c-2.8,0.1-4.9,2.4-4.8,5.2c0.1,1.8,0.8,17.5,5.7,25.5C90.8,375.9,92.4,376.8,94.1,376.8z"/>
		<path class="st8" d="M128.1,376.8c0.9,0,1.8-0.2,2.6-0.7c2.3-1.5,3.1-4.5,1.6-6.9c-2.7-4.3-4-14.9-4.2-20.6
			c-0.1-2.8-2.4-4.9-5.2-4.8c-2.8,0.1-4.9,2.4-4.8,5.2c0.1,1.8,0.8,17.5,5.7,25.5C124.8,375.9,126.5,376.8,128.1,376.8z"/>
		<path class="st8" d="M165.1,376.8c0.9,0,1.8-0.2,2.6-0.7c2.3-1.5,3.1-4.5,1.6-6.9c-2.7-4.3-4-14.9-4.2-20.6
			c-0.1-2.8-2.4-4.9-5.2-4.8s-4.9,2.4-4.8,5.2c0.1,1.8,0.8,17.5,5.7,25.5C161.8,375.9,163.4,376.8,165.1,376.8z"/>
		<path class="st8" d="M199.8,376.8c0.9,0,1.8-0.2,2.6-0.7c2.3-1.5,3.1-4.5,1.6-6.9c-2.7-4.3-4-14.9-4.2-20.6
			c-0.1-2.8-2.4-4.9-5.2-4.8s-4.9,2.4-4.8,5.2c0.1,1.8,0.8,17.5,5.7,25.5C196.5,375.9,198.1,376.8,199.8,376.8z"/>
		<path class="st8" d="M232.9,376.9c0.8,0,1.6-0.2,2.3-0.6c2.4-1.3,3.4-4.3,2.1-6.8c-2.4-4.5-3-15.2-2.9-20.8
			c0.1-2.8-2.1-5.1-4.9-5.1c-2.8-0.1-5.1,2.1-5.1,4.9c0,1.8-0.3,17.6,4.1,25.8C229.4,375.9,231.1,376.9,232.9,376.9z"/>
		<path class="st8" d="M266,377c0.7,0,1.4-0.1,2-0.4c2.5-1.1,3.7-4.1,2.6-6.6c-2-4.6-1.9-15.3-1.4-21c0.3-2.7-1.7-5.2-4.5-5.5
			s-5.2,1.7-5.5,4.5c-0.2,1.8-1.6,17.5,2.2,26C262.3,375.9,264.1,377,266,377z"/>
		<path class="st8" d="M303.2,377c0.7,0,1.4-0.1,2.1-0.5c2.5-1.1,3.6-4.1,2.5-6.6c-2.1-4.6-2.1-15.3-1.6-21c0.2-2.8-1.8-5.2-4.5-5.4
			c-2.8-0.2-5.2,1.8-5.4,4.5c-0.2,1.8-1.4,17.5,2.5,26C299.5,375.9,301.3,377,303.2,377z"/>
		<path class="st8" d="M350.7,379.1c7.8,0,14.1-6.3,14.1-14.1s-6.3-14.1-14.1-14.1s-14.1,6.3-14.1,14.1S342.9,379.1,350.7,379.1z
			 M350.7,360.9c2.3,0,4.1,1.8,4.1,4.1s-1.8,4.1-4.1,4.1s-4.1-1.8-4.1-4.1S348.4,360.9,350.7,360.9z"/>
	</g>
</g>
</svg>
