<?xml version="1.0" encoding="utf-8"?>
<!-- Generator: Adobe Illustrator 27.7.0, SVG Export Plug-In . SVG Version: 6.00 Build 0)  -->
<svg version="1.1" id="레이어_1" xmlns="http://www.w3.org/2000/svg" xmlns:xlink="http://www.w3.org/1999/xlink" x="0px"
	 y="0px" width="1035px" height="540px" viewBox="0 0 1035 540" enable-background="new 0 0 1035 540" xml:space="preserve">
<rect fill="#FFFFFF" width="1035" height="540"/>
<g>
	<path fill="#FFFEFF" d="M794.4,133.9c0.3,0.3,0.8,0.2,0.9-0.1c1.6-4.5,8.6-23.9,14.3-24.2c6.5-0.3,25.2,36.7,25.2,36.7
		s37.3,18.1,40.3,59s15.1,53,10.4,75.3c-4.7,22.2-20.1,30.2-20.1,30.2s18.5,27,17.2,52.7c-1.5,28.5-21.6,23.1-21.6,23.1
		s0,32.9-14.2,39.4c-14.2,6.5-30.8,4.7-36.7,2.7c-5.9-2.1-3-8.9-11-8.6s-34.1,0-34.1,0s-7.1-1.3-8.3,3.6c-1.2,5-7.1,7.3-25.5,6.9
		s-23.7-11.4-25.8-21.5c-2.1-10.1-2.1-24-2.1-24s-6.8,5.6-16.6-0.9s-9.2-27.4-4.9-42.4c4.9-17.2,15.2-32,15.2-32s-30-14.5-17.5-58.1
		c12.5-43.6,3.9-55.7,19-77.6c15.1-21.9,30.5-28.4,30.5-28.4s16-35.9,23.7-36.1c0,0,4.9-1,14.4,25.3c0.2,0.4,0.7,0.5,1,0.1
		c1.6-2.7,6.5-9.3,9.7,0c0.1,0.2,0.3,0.4,0.5,0.4h5.7c0.2,0,0.4-0.2,0.5-0.4C785.1,133.1,787.7,125.5,794.4,133.9z"/>
	<path fill="#FFFEFF" d="M598.2,386.2c0,8.8,0.6,15.5-0.9,22.7c-2.1,10.1-6,21.6-24.4,21.6c-14.4,0-16.1-1.9-17.3-6.9
		c-1.2-5-8.3-3.6-8.3-3.6s-21,0.3-29,0s-5,6.5-11,8.6c-5.9,2.1-38.8,3.9-53.1-2.7c-14.2-6.5-14.2-39.4-14.2-39.4s-19,5.3-21.6-23.1
		c-2.7-28.4,17.2-52.7,17.2-52.7s-15.4-8-20.1-30.2s7.4-34.4,10.4-75.3c3-40.9,43.3-59,43.3-59s15.7-37,22.2-36.7
		c5.8,0.3,15.8,19.6,17.3,24.2c0.1,0.4,0.7,0.5,0.9,0.1c6.6-8.4,9.3-0.8,9.8,1.1c0.1,0.2,0.3,0.4,0.5,0.4h5.7c0.2,0,0.4-0.2,0.5-0.4
		c3.2-9.3,8-2.7,9.7,0c0.2,0.4,0.8,0.3,1-0.1c9.5-26.3,14.4-25.3,14.4-25.3c7.7,0.3,20.7,36.1,20.7,36.1s15.4,6.5,30.5,28.4
		c15.1,21.9,3.5,34.1,16,77.6c12.5,43.6-20.3,63-20.3,63s7.8,15.2,10.1,26.5c5.1,24.9,2.1,35-7.1,43.3L598.2,386.2z"/>
	<path fill="#FFFEFF" d="M240,134.6c0,0-8.1-24.8-14.7-25.1c-6.5-0.3-25.2,36.7-25.2,36.7s-37.3,18.1-40.3,59
		c-3,40.9-15.1,53-10.4,75.3s20.1,30.2,20.1,30.2s-19.9,24.3-17.2,52.7c2.7,28.4,21.6,23.1,21.6,23.1s0,32.9,14.2,39.4
		c14.2,6.5,30.8,4.7,36.7,2.7c5.9-2.1,3-8.9,11-8.6s34.1,0,34.1,0s7.1-1.3,8.3,3.6c1.2,5,7.1,7.3,25.5,6.9
		c18.4-0.4,23.7-11.4,25.8-21.5c2.1-10.1,2.1-24,2.1-24s6.8,5.6,16.6-0.9s8.3-33.8,3-44.7c-5.3-11-13.3-29.6-13.3-29.6
		s30-14.5,17.5-58.1s-3.9-55.7-19-77.6S306,145.7,306,145.7s-16-35.9-23.7-36.1c0,0-5-1-14.8,26.4c0,0-6.5-12.6-10.4-0.6h-6.5
		C250.6,135.3,248,123.8,240,134.6z"/>
	<path fill="#5E5D5E" d="M253.5,136.1c0,0-4.1,25.6-35.2,42.2s-54.6,9.1-54.6,9.1s8.7-27.4,36.6-41.1c0,0,18.3-36.9,25.2-36.7
		c6.9,0.1,14.7,25.1,14.7,25.1s4.1-7.3,8.3-3.7c0,0,1.8,1.9,2.2,4.3h2.9V136.1z"/>
	<path fill="#FF9AA0" d="M218.9,136c-0.9-0.4-1.3-1.4-1-2.3c1-2.8,3.5-8.7,6.3-8.7c2.8,0,4,6.9,4.4,10.2c0.1,1-0.6,1.9-1.6,1.9
		C224.8,137.2,221.4,137.1,218.9,136z"/>
	<path fill="#FF9AA0" d="M288.9,136c0.9-0.4,1.3-1.4,1-2.3c-1-2.8-3.5-8.7-6.3-8.7c-2.8,0-4,6.9-4.4,10.2c-0.1,1,0.6,1.9,1.6,1.9
		C283,137.2,286.4,137.1,288.9,136z"/>
	<path fill="#231815" d="M276.9,214.8c-1.2,0-2.2-0.9-2.5-2.1c-0.2-1.4,0.7-2.7,2-2.9c0.1,0,6.6-1.2,10.2-3.1c1.2-0.7,2.7-0.2,3.4,1
		c0.7,1.2,0.2,2.7-1,3.4c-4.3,2.3-11.4,3.6-11.7,3.6C277.1,214.8,277,214.8,276.9,214.8z"/>
	<path fill="#231815" d="M277.4,223.5h11.6c0,0,3.2,9-5.8,9C274.4,232.5,277.4,223.5,277.4,223.5z"/>
	<path fill="#FF9AA0" d="M250.1,236.5l-1.6,1.6c-1,1.1-1,2.8,0,3.8l3.2,3.2c1.1,1.1,2.8,1.1,3.9,0l3.1-3.2c1.1-1.1,1.1-2.8,0-3.9
		l-1.7-1.7c-0.5-0.5-1.2-0.8-2-0.8h-3.1C251.4,235.7,250.6,236,250.1,236.5z"/>
	<path fill="#231815" d="M253.7,248.6L253.7,248.6c-1.4,0-2.7-0.6-3.7-1.6l-3.2-3.2c-2-2-2-5.2-0.1-7.3l1.6-1.6c1-1,2.4-1.6,3.8-1.6
		h3.1c1.4,0,2.8,0.6,3.7,1.6l1.7,1.7c2,2,2,5.3,0,7.4l-3.1,3.2C256.5,248,255.2,248.6,253.7,248.6z M252.1,238.2
		c-0.1,0-0.1,0-0.2,0.1l0,0l-1.6,1.6c-0.1,0.1-0.1,0.3,0,0.4l3.2,3.2c0,0.1,0.1,0.1,0.2,0.1l0,0c0.1,0,0.1,0,0.2-0.1l3.1-3.2
		c0.1-0.1,0.1-0.3,0-0.4l-1.7-1.7c0-0.1-0.1-0.1-0.2-0.1H252.1z"/>
	<path fill="#231815" d="M240.1,265.3c-1,0-2-0.6-2.4-1.7c-0.5-1.3,0.2-2.7,1.5-3.2l12-4.2v-9c0-1.4,1.1-2.5,2.5-2.5
		s2.5,1.1,2.5,2.5v12.6l-15.3,5.4C240.7,265.2,240.4,265.3,240.1,265.3z"/>
	<path fill="#231815" d="M267.5,265.3c-0.3,0-0.5,0-0.8-0.1l-13.8-4.8c-1.3-0.5-2-1.9-1.5-3.2c0.5-1.3,1.9-2,3.2-1.5l13.8,4.8
		c1.3,0.5,2,1.9,1.5,3.2C269.5,264.6,268.6,265.3,267.5,265.3z"/>
	<path fill="#FF9AA0" d="M323.7,258.2c4.9-4.7,3.4-12.6-2.6-15.6c-2.6-1.3-6.1-2-10.8-1.2c-13.8,2.2-12.6,10.5-12.4,13.9
		c0.2,4.3,5.3,9.2,17.8,6.7C319.4,261.4,322,259.9,323.7,258.2z"/>
	<path fill="#231815" d="M230.2,223.5h-11.6c0,0-3.2,9,5.8,9C233.2,232.5,230.2,223.5,230.2,223.5z"/>
	<path fill="#FF9AA0" d="M183.9,258.2c-4.9-4.7-3.4-12.6,2.6-15.6c2.6-1.3,6.1-2,10.8-1.2c13.8,2.2,12.6,10.5,12.4,13.9
		c-0.2,4.3-5.3,9.2-17.8,6.7C188.2,261.4,185.6,259.9,183.9,258.2z"/>
	<path fill="#FF9AA0" d="M244.2,340.3c-11,0-20.7,7.5-23.3,18.3c-0.6,2.6-1,5.6-1.2,9c-0.9,25.8,20.4,26.1,37,26.1s31.9-6.2,31-26.7
		s-15.5-26.7-23.6-26.7C261,340.3,251.5,340.3,244.2,340.3z"/>
	<path fill="#231815" d="M174.1,389.1c-1.4,0-2.5-1.1-2.5-2.5c0-1.3,1-2.4,2.3-2.5c1.3-0.3,5.1-4.1,7.2-17.5
		c3.2-20.2,11.2-27.8,11.6-28.1c1-0.9,2.6-0.9,3.5,0.1s0.9,2.6-0.1,3.5c-0.1,0.1-7.1,7-10,25.2C182.8,388,175.5,389.1,174.1,389.1z
		 M173.9,384.1L173.9,384.1L173.9,384.1z M174.1,384.1C174.1,384.1,174.1,384.1,174.1,384.1C174.1,384.1,174.1,384.1,174.1,384.1z
		 M174.1,384.1C174.1,384.1,174.1,384.1,174.1,384.1C174.1,384.1,174.1,384.1,174.1,384.1z"/>
	<path fill="#231815" d="M331.8,387.6c-0.3,0-0.6,0-0.8-0.1c-0.8-0.3-7.5-3-8.9-17.5c-1.3-12.6-10.9-28.1-11-28.3
		c-0.7-1.2-0.4-2.7,0.8-3.4c1.2-0.7,2.7-0.4,3.4,0.8c0.4,0.7,10.3,16.7,11.7,30.4c1.1,11.2,5.6,13.3,5.7,13.3
		c1.3,0.5,1.9,1.9,1.5,3.2C333.8,387,332.8,387.6,331.8,387.6z"/>
	<path fill="#231815" d="M299.7,433.1c-13.4,0-22-1.8-23.7-8.8c-0.6-2.5-5.4-1.8-5.4-1.8l-0.4,0c-1.1,0-26.2,0.3-34.2,0
		c-2.9-0.1-3.3,0.7-4.3,2.8c-0.9,1.9-2.2,4.5-5.7,5.7c-6,2.1-23.4,4.2-38.6-2.8c-13-6-15.2-30.4-15.6-38.8c-2.8,0.2-7.1-0.2-11.2-3
		c-5.9-4.1-9.4-11.7-10.5-22.7c-2.3-24.4,11.1-45.5,16-52.3c-4.8-3.4-15.1-12.5-19-30.4c-2.7-12.6-0.2-22.2,3-34.4
		c2.7-10.2,6-22.9,7.3-41.6c2.8-39.1,35.3-57.7,40.9-60.6c1.2-2.4,5.3-10.2,9.9-17.9c10.3-17.3,14.4-19.6,17.3-19.5
		c5.9,0.3,11.5,11.9,15.5,22.8c2.1-1.9,4.1-2.6,6.2-2.2c2.9,0.6,4.4,3.2,5.2,5.2h3c1.3-3.2,3.2-4.9,5.4-5.2c2.3-0.3,4.3,1.1,6,2.9
		c7.6-19.9,12.7-23.9,15.8-23.5c8.1,0.6,20.1,25.2,25.3,36.8c3.6,1.8,17.3,9.4,30.7,28.9c8.8,12.8,9.9,22.6,11.4,36.1
		c1.1,10.4,2.5,23.3,8,42.2c10.9,38-9.8,55.2-16.7,59.7c2.5,5.1,8.9,18.7,12.4,27.8c5.7,14.6,7.6,40.1-3.9,47.7
		c-6.6,4.4-12.1,4-15.6,2.8c-0.2,4.9-0.6,13.5-2.1,20.5c-3.2,15.4-12.4,23.1-28.2,23.4C302.5,433.1,301,433.1,299.7,433.1z
		 M272.1,417.4c3.4,0,7.7,1.2,8.7,5.7c0.6,2.7,3.9,5.4,23,4.9c17.3-0.4,21.6-10.6,23.4-19.5c2-9.7,2-23.4,2-23.5v-5.3l4.1,3.4
		c0.2,0.2,5.6,4.3,13.6-1c8-5.4,7.7-27.2,2-41.8c-4.3-11.1-13.2-29.3-13.3-29.4l-1.1-2.3l2.3-1.1c1.1-0.6,27.9-14.2,16.2-55.1
		c-5.5-19.3-7-32.5-8.1-43.1c-1.5-13.3-2.4-22.1-10.5-33.8C320,154.6,305.1,148,305,148l-0.9-0.4l-0.4-0.9
		c-8-17.9-17.8-33.8-21.3-34.6c-0.9,0.5-5.1,3.9-12.2,23.6c-0.4,1.1-1.4,1.9-2.6,2c-1.2,0.1-2.3-0.4-2.9-1.4
		c-1.7-2.8-3.1-3.6-3.4-3.6c0,0,0,0,0,0c0,0-0.8,0.4-1.8,3.1c-0.4,1.2-1.6,2.1-2.9,2.1H251c-1.3,0-2.5-0.9-2.9-2.2
		c-0.5-1.8-1.4-3-1.9-3.1c-0.4-0.1-1.6,0.4-3.6,2.9c-0.7,0.9-1.8,1.3-2.9,1.1c-1.1-0.2-2-0.9-2.4-2c-5.2-15-10.2-22.2-12-22.5
		c-3.5,0.9-14.7,19-22.9,35.4l-0.4,0.8l-0.8,0.4c-0.4,0.2-36.1,18-38.9,56.9c-1.4,19.1-4.8,32-7.5,42.5c-3.1,12-5.4,20.7-3,32.1
		c4.4,20.7,18.7,28.5,18.9,28.5l2.7,1.4l-1.9,2.4c-0.2,0.2-19.2,23.9-16.6,50.9c0.9,9.4,3.7,15.8,8.2,19c4.8,3.3,10,2,10.2,1.9
		l3.1-0.8l0,3.3c0,8.7,2.3,32.3,12.8,37.1c13.7,6.3,29.7,4.4,34.9,2.6c1.6-0.5,2.1-1.5,2.9-3.2c1.1-2.3,2.8-5.8,9-5.5
		c7.5,0.3,31.3,0,33.8,0C270.5,417.4,271.3,417.4,272.1,417.4z M225.4,112L225.4,112z"/>
	<path fill="#231815" d="M289.3,244.4c-1.3,0-2.4-1-2.5-2.3c-0.1-1.4,1-2.6,2.3-2.7l23.9-1.6c1.4-0.1,2.6,1,2.7,2.3
		c0.1,1.4-1,2.6-2.3,2.7l-23.9,1.6C289.4,244.4,289.3,244.4,289.3,244.4z"/>
	<path fill="#231815" d="M313.2,257.3c-0.1,0-0.2,0-0.3,0l-23.9-2.4c-1.4-0.1-2.4-1.4-2.2-2.7c0.1-1.4,1.4-2.4,2.7-2.2l23.9,2.4
		c1.4,0.1,2.4,1.4,2.2,2.7C315.5,256.3,314.4,257.3,313.2,257.3z"/>
	<path fill="#231815" d="M218.3,244.4c-0.1,0-0.1,0-0.2,0l-23.9-1.6c-1.4-0.1-2.4-1.3-2.3-2.7c0.1-1.4,1.3-2.4,2.7-2.3l23.9,1.6
		c1.4,0.1,2.4,1.3,2.3,2.7C220.7,243.4,219.6,244.4,218.3,244.4z"/>
	<path fill="#231815" d="M194.4,257.3c-1.3,0-2.4-1-2.5-2.2c-0.1-1.4,0.9-2.6,2.2-2.7l23.9-2.4c1.4-0.1,2.6,0.9,2.7,2.2
		c0.1,1.4-0.9,2.6-2.2,2.7l-23.9,2.4C194.6,257.3,194.5,257.3,194.4,257.3z"/>
	<path fill="#5E5D5E" d="M781.5,136.1c0,0,4.1,25.6,35.2,42.2s54.6,9.1,54.6,9.1s-8.7-27.4-36.6-41.1c0,0-18.3-36.9-25.2-36.7
		c-6.9,0.1-14.7,25.1-14.7,25.1s-4.1-7.3-8.3-3.7c0,0-1.8,1.9-2.2,4.3h-2.9V136.1z"/>
	<path fill="#231815" d="M735.3,433.1c-1.4,0-2.8,0-4.3-0.1c-15.8-0.4-25-8-28.2-23.4c-1.4-7-1.9-15.5-2.1-20.5
		c-3.5,1.1-9,1.6-15.6-2.8c-10.8-7.2-10.6-28.5-5.9-45.1c3.9-13.7,11-25.7,14.1-30.5c-7.2-4.8-27.2-22.1-16.4-59.6
		c5.4-18.9,6.8-31.8,8-42.2c1.5-13.5,2.5-23.3,11.4-36.1c13.4-19.5,27-27.1,30.7-28.9c5.2-11.5,17.2-36.1,25.3-36.8
		c3.1-0.4,8.2,3.6,15.8,23.5c1.6-1.8,3.7-3.2,6-2.9c2.3,0.3,4.1,2,5.4,5.2h3c0.8-2,2.4-4.6,5.2-5.2c2-0.4,4.1,0.3,6.2,2.2
		c4-10.9,9.6-22.5,15.5-22.8c2.9-0.1,7,2.1,17.3,19.5c4.6,7.7,8.6,15.5,9.9,17.9c5.6,2.9,38.1,21.6,40.9,60.6
		c1.3,18.6,4.7,31.3,7.3,41.6c3.2,12.2,5.7,21.8,3,34.4c-3.9,18.1-14.4,27.2-19.1,30.5c4.4,7,17.4,29.8,16.2,52.1
		c-0.6,10.8-3.8,18.3-9.5,22.5c-4.4,3.2-9.2,3.5-12.2,3.3c-0.4,8.5-2.6,32.8-15.6,38.8c-15.2,7-32.6,4.9-38.6,2.8
		c-3.6-1.2-4.8-3.8-5.7-5.7c-1-2.1-1.4-2.9-4.3-2.8c-8,0.3-33.1,0-34.2,0l-0.4,0c0,0-4.8-0.8-5.4,1.8
		C757.3,431.3,748.8,433.1,735.3,433.1z M705.7,379.8l0,5.3c0,0.1,0,13.8,2,23.5c1.8,8.9,6.1,19.1,23.4,19.5
		c19.1,0.4,22.4-2.3,23-4.9c1.3-5.6,7.6-6.1,11-5.5c2.5,0,26.3,0.3,33.8,0c6.2-0.3,7.8,3.2,9,5.5c0.8,1.7,1.4,2.6,2.9,3.2
		c5.2,1.8,21.2,3.7,34.9-2.6c10.5-4.8,12.8-28.4,12.8-37.1v-3.3l3.1,0.8c0,0,6.1,1.5,11.1-2.1c4.4-3.2,6.9-9.5,7.4-18.7
		c1.3-24.6-16.6-50.9-16.7-51.2l-1.6-2.3l2.5-1.3c0.1-0.1,14.4-7.8,18.9-28.5c2.4-11.4,0.2-20.1-3-32.1c-2.7-10.4-6.1-23.4-7.5-42.5
		c-2.8-38.9-38.5-56.7-38.9-56.9l-0.8-0.4l-0.4-0.8c-8.3-16.4-19.4-34.4-22.9-35.4c-1.8,0.3-6.8,7.5-12,22.5c-0.4,1-1.3,1.8-2.4,2
		c-1.1,0.2-2.2-0.2-2.9-1.1l0,0c-1.9-2.5-3.2-3-3.6-2.9c-0.5,0.1-1.4,1.3-1.9,3.1c-0.4,1.3-1.6,2.2-2.9,2.2h-5.7
		c-1.3,0-2.5-0.8-2.9-2.1c-0.9-2.8-1.8-3.1-1.8-3.1c-0.4,0-1.7,0.8-3.4,3.6c-0.6,1-1.7,1.5-2.9,1.4c-1.2-0.1-2.1-0.9-2.6-2
		c-7.1-19.7-11.3-23.1-12.2-23.6c-3.5,0.8-13.3,16.7-21.3,34.6l-0.4,0.9L730,148c-0.1,0.1-15,6.6-29.4,27.6
		c-8.1,11.8-9.1,20.6-10.5,33.9c-1.2,10.6-2.6,23.8-8.1,43.1c-11.7,40.9,15.1,54.6,16.2,55.1l2.6,1.3l-1.7,2.4
		c-0.1,0.1-10.2,14.7-14.9,31.3c-4.3,15.1-4.4,34.1,3.9,39.6c8.1,5.4,13.6,1.1,13.6,1L705.7,379.8z M796.3,132.3
		C796.3,132.3,796.3,132.3,796.3,132.3L796.3,132.3C796.3,132.3,796.3,132.3,796.3,132.3z M809.6,112L809.6,112
		C809.6,112,809.6,112,809.6,112z M752.4,112L752.4,112L752.4,112z"/>
	<path fill="#5E5D5E" d="M522.5,136.1c0,0-7.1,25.6-38.2,42.2s-54.6,9.1-54.6,9.1s11.7-27.4,39.6-41.1c0,0,15.3-36.9,22.2-36.7
		c6.9,0.1,17.7,25.1,17.7,25.1s4.1-7.3,8.3-3.7c0,0,1.8,1.9,2.2,4.3h2.9V136.1z"/>
	<path fill="#FF9AA0" d="M489.7,136.7c-0.9-0.2-1.5-1.1-1.4-2.1c0.5-3,1.9-9.2,4.7-9.7c2.7-0.5,5.1,6.1,6.1,9.3
		c0.3,1-0.3,1.9-1.3,2.1C495.8,136.8,492.4,137.3,489.7,136.7z"/>
	<path fill="#FF9AA0" d="M555.9,136.1c0.8-0.2,1.3-1,1.2-1.9c-0.5-2.7-1.9-8.2-4.4-8.6c-2.5-0.4-4.5,5.6-5.3,8.5
		c-0.2,0.9,0.3,1.7,1.2,1.9C550.5,136.2,553.5,136.6,555.9,136.1z"/>
	<path fill="#231815" d="M574.1,214.8c-1.2,0-2.2-0.9-2.5-2.1c-0.2-1.4,0.7-2.7,2-2.9c0.1,0,6.6-1.2,10.2-3.1c1.2-0.7,2.7-0.2,3.4,1
		c0.7,1.2,0.2,2.7-1,3.4c-4.3,2.3-11.4,3.6-11.7,3.6C574.4,214.8,574.3,214.8,574.1,214.8z"/>
	<path fill="#231815" d="M574.6,223.5h11.6c0,0,3.2,9-5.8,9C571.7,232.5,574.6,223.5,574.6,223.5z"/>
	<path fill="#FF9AA0" d="M557.4,236.5l-1.6,1.6c-1,1.1-1,2.8,0,3.8l3.2,3.2c1.1,1.1,2.8,1.1,3.9,0l3.1-3.2c1.1-1.1,1.1-2.8,0-3.9
		l-1.7-1.7c-0.5-0.5-1.2-0.8-2-0.8h-3.1C558.6,235.7,557.9,236,557.4,236.5z"/>
	<path fill="#231815" d="M561,248.6c-1.4,0-2.7-0.6-3.7-1.6l-3.2-3.2c-2-2-2-5.2-0.1-7.3l1.6-1.6c1-1,2.4-1.6,3.8-1.6h3.1
		c1.4,0,2.8,0.6,3.7,1.6l1.7,1.7c2,2,2,5.3,0,7.4l-3.1,3.2C563.7,248,562.4,248.6,561,248.6L561,248.6z M559.4,238.2
		c-0.1,0-0.1,0-0.2,0.1l0,0l-1.6,1.6c-0.1,0.1-0.1,0.3,0,0.4l3.2,3.2c0.1,0.1,0.3,0.1,0.4,0l3.1-3.2c0.1-0.1,0.1-0.3,0-0.4l-1.7-1.7
		c0,0-0.1-0.1-0.2-0.1H559.4z"/>
	<path fill="#231815" d="M547.4,265.3c-1,0-2-0.6-2.4-1.7c-0.5-1.3,0.2-2.7,1.5-3.2l12-4.2v-9c0-1.4,1.1-2.5,2.5-2.5
		s2.5,1.1,2.5,2.5v12.6l-15.3,5.4C547.9,265.2,547.6,265.3,547.4,265.3z"/>
	<path fill="#231815" d="M574.8,265.3c-0.3,0-0.5,0-0.8-0.1l-13.8-4.8c-1.3-0.5-2-1.9-1.5-3.2s1.9-2,3.2-1.5l13.8,4.8
		c1.3,0.5,2,1.9,1.5,3.2C576.8,264.6,575.8,265.3,574.8,265.3z"/>
	<path fill="#FF9AA0" d="M616.1,258.2c4-4.7,2.8-12.6-2.2-15.6c-2.1-1.3-4.9-2-8.8-1.2c-11.2,2.2-10.3,10.5-10.1,13.9
		c0.2,4.3,4.3,9.2,14.5,6.7C612.6,261.4,614.7,259.9,616.1,258.2z"/>
	<path fill="#231815" d="M535,223.5h-11.6c0,0-3.2,9,5.8,9C537.9,232.5,535,223.5,535,223.5z"/>
	<path fill="#FF9AA0" d="M488.6,258.2c-4.9-4.7-3.4-12.6,2.6-15.6c2.6-1.3,6.1-2,10.8-1.2c13.8,2.2,12.6,10.5,12.4,13.9
		c-0.2,4.3-5.3,9.2-17.8,6.7C493,261.4,490.4,259.9,488.6,258.2z"/>
	<path fill="#FF9AA0" d="M529.5,340.3c-11,0-20.7,7.5-23.3,18.3c-0.6,2.6-1,5.6-1.2,9c-0.9,25.8,20.4,26.1,37,26.1s31.9-6.2,31-26.7
		c-0.8-20.4-15.5-26.7-23.6-26.7C546.3,340.3,536.8,340.3,529.5,340.3z"/>
	<path fill="#231815" d="M440.1,389.1c-1.4,0-2.5-1.1-2.5-2.5c0-1.4,1.1-2.5,2.5-2.5c0.4,0,8.4-0.6,11.1-17.4
		c3.2-20.2,11.2-27.8,11.6-28.1c1-0.9,2.6-0.9,3.5,0.1c0.9,1,0.9,2.6-0.1,3.5c-0.1,0.1-7.1,7-10,25.2
		C452.7,388.8,440.6,389.1,440.1,389.1z"/>
	<path fill="#231815" d="M572.9,433c-14.1,0-18-1.7-19.7-8.8c-0.6-2.5-5.4-1.8-5.4-1.8l-0.4,0c-0.9,0-21.1,0.3-29.1,0
		c-2.9-0.1-3.3,0.7-4.3,2.8c-0.9,1.9-2.2,4.5-5.7,5.7c-6.6,2.3-40.3,4-54.9-2.8c-13-6-15.2-30.4-15.6-38.8c-2.8,0.2-7.1-0.2-11.2-3
		c-5.9-4.1-9.4-11.7-10.5-22.7c-2.3-24.4,11.1-45.5,16-52.3c-4.8-3.4-15.1-12.5-19-30.4c-2.7-12.6-0.2-22.2,3-34.4
		c2.7-10.2,6-22.9,7.3-41.6c2.8-39,37.6-57.6,43.9-60.6c1.1-2.5,4.5-10.2,8.3-17.8c9-17.5,12.9-19.7,15.9-19.6
		c6.8,0.3,15.1,16.1,18.3,22.9c2.2-2,4.2-2.8,6.3-2.4c2.9,0.6,4.4,3.2,5.2,5.2h3c1.3-3.2,3.2-4.9,5.4-5.2c2.3-0.3,4.3,1.1,6,2.9
		c7.6-19.8,12.7-23.9,15.8-23.5c3,0.2,7.4,2.7,15.3,19.6c3.4,7.3,6.2,14.6,7.2,17.2c3.8,1.9,17.3,9.5,30.6,28.9
		c8.5,12.4,9,21.7,9.5,34.5c0.5,10.7,1.1,23.9,6.8,43.8c11.1,38.6-12.4,59.3-19.5,64.5c2.2,4.5,7.5,16,9.4,25.2
		c4.9,24,2.9,35.9-7.9,45.6l-0.2,0.2l-2,1.1c0,1.4,0,2.8,0.1,4.2c0.1,6.3,0.2,11.7-1,17.6C597.3,421.1,592.3,433,572.9,433z
		 M442.6,383.3l0,3.3c0,8.7,2.3,32.3,12.8,37.1c14,6.4,46.1,4.4,51.2,2.6c1.6-0.5,2.1-1.5,2.9-3.2c1.1-2.3,2.9-5.8,9-5.5
		c7.4,0.3,26.5,0,28.6,0c3.3-0.6,9.6-0.1,11,5.5c0.8,3.3,1.2,4.9,14.8,4.9c16.5,0,19.9-9.7,22-19.6c1.1-5.3,1-10.5,0.9-16.5
		c0-1.8-0.1-3.7-0.1-5.7v-1.4l4-2.3c7.9-7.2,11.2-16,6.1-40.7c-2.2-10.9-9.8-25.7-9.9-25.9l-1.1-2.1l2-1.2
		c1.3-0.8,30.9-19,19.2-60.1c-5.9-20.4-6.5-34-7-45c-0.6-12.5-1-20.8-8.7-31.9C586,154.6,571.1,148,571,148l-1-0.4l-0.4-1
		c0-0.1-3.3-9-7.4-17.8c-6.7-14.2-10.1-16.4-10.9-16.7c-0.9,0.6-5.1,4.1-12.2,23.6c-0.4,1.1-1.4,1.9-2.6,2c-1.2,0.1-2.3-0.4-2.9-1.4
		c-1.7-2.8-3.1-3.6-3.4-3.6c0,0,0,0,0,0c0,0-0.8,0.4-1.8,3.1c-0.4,1.2-1.6,2.1-2.9,2.1H520c-1.3,0-2.5-0.9-2.9-2.2
		c-0.5-1.8-1.4-3-1.9-3.1c-0.4-0.1-1.6,0.4-3.6,2.9c-0.7,0.9-1.8,1.3-2.9,1.1c-1.1-0.2-2-0.9-2.4-2c-2.1-6.2-11.5-22.1-15-22.5
		c-3.4,1.1-13,19-19.9,35.2l-0.4,0.9l-0.9,0.4c-0.4,0.2-39,18-41.8,56.9c-1.4,19.1-4.8,32-7.5,42.5c-3.1,12-5.4,20.7-3,32.1
		c4.4,20.7,18.7,28.5,18.9,28.5l2.7,1.4l-1.9,2.4c-0.2,0.2-19.2,23.9-16.6,50.9c0.9,9.4,3.7,15.8,8.2,19c4.8,3.3,10,2,10.2,1.9
		L442.6,383.3z M491.4,112L491.4,112z M551.6,112L551.6,112L551.6,112z"/>
	<path fill="#231815" d="M586.5,244.4c-1.3,0-2.4-1-2.5-2.3c-0.1-1.4,0.9-2.6,2.3-2.7l20.4-1.6c1.4-0.1,2.6,0.9,2.7,2.3
		c0.1,1.4-0.9,2.6-2.3,2.7l-20.4,1.6C586.7,244.4,586.6,244.4,586.5,244.4z"/>
	<path fill="#231815" d="M607,257.3c-0.1,0-0.2,0-0.3,0l-20.4-2.4c-1.4-0.2-2.3-1.4-2.2-2.8c0.2-1.4,1.4-2.3,2.8-2.2l20.4,2.4
		c1.4,0.2,2.3,1.4,2.2,2.8C609.3,256.4,608.2,257.3,607,257.3z"/>
	<path fill="#231815" d="M523.1,244.4c-0.1,0-0.1,0-0.2,0l-23.9-1.6c-1.4-0.1-2.4-1.3-2.3-2.7c0.1-1.4,1.3-2.4,2.7-2.3l23.9,1.6
		c1.4,0.1,2.4,1.3,2.3,2.7C525.5,243.4,524.4,244.4,523.1,244.4z"/>
	<path fill="#231815" d="M499.2,257.3c-1.3,0-2.4-1-2.5-2.2c-0.1-1.4,0.9-2.6,2.2-2.7l23.9-2.4c1.4-0.1,2.6,0.9,2.7,2.2
		c0.1,1.4-0.9,2.6-2.2,2.7l-23.9,2.4C499.4,257.3,499.3,257.3,499.2,257.3z"/>
	<path fill="#231815" d="M598.2,388.7c-1.3,0-2.4-1-2.5-2.4c0-0.3-2-34.1-6.2-46.4c-0.4-1.3,0.3-2.7,1.6-3.2
		c1.3-0.4,2.7,0.3,3.2,1.6c4.4,13,6.4,46.3,6.5,47.7c0.1,1.4-1,2.6-2.4,2.6C598.3,388.7,598.3,388.7,598.2,388.7z"/>
	<path fill="#231815" d="M703.2,387.6c-1.4,0-2.5-1.1-2.5-2.4c0-1.1-0.7-28,2.3-43.8c0.3-1.4,1.6-2.2,2.9-2c1.4,0.3,2.2,1.6,2,2.9
		c-2.9,15.3-2.2,42.5-2.2,42.7C705.8,386.4,704.7,387.5,703.2,387.6C703.3,387.6,703.3,387.6,703.2,387.6z"/>
	<path fill="#231815" d="M860.8,389.9C860.8,389.9,860.8,389.9,860.8,389.9c-1.4,0-2.5-1.2-2.5-2.6c0-0.3,0.7-29-2.2-45.1
		c-0.2-1.4,0.7-2.7,2-2.9c1.3-0.2,2.7,0.7,2.9,2c3,16.6,2.3,44.9,2.3,46.1C863.3,388.8,862.2,389.9,860.8,389.9z"/>
	<path fill="#231815" d="M572.3,148.6c-21.7-10.5-35.4-11.3-35.5-11.3l0.2-5c0.6,0,14.8,0.8,37.5,11.8L572.3,148.6z"/>
</g>
</svg>
