<?xml version="1.0" encoding="utf-8"?>
<!-- Generator: Adobe Illustrator 27.7.0, SVG Export Plug-In . SVG Version: 6.00 Build 0)  -->
<svg version="1.1" id="레이어_1" xmlns="http://www.w3.org/2000/svg" xmlns:xlink="http://www.w3.org/1999/xlink" x="0px"
	 y="0px" width="1035px" height="540px" viewBox="0 0 1035 540" enable-background="new 0 0 1035 540" xml:space="preserve">
<rect fill="#FFFFFF" width="1035" height="540"/>
<g>
	<path fill="#FFFFFF" d="M380.8,187.5c-0.7-6.5-31.4-10.2-42.6-10.6c-0.6-0.9-1.2-1.9-1.9-2.8c-15.1-21.9-30.5-28.4-30.5-28.4
		s-19.6-10.9-38.1-10.9c-0.4,0-0.7,0.5-1,0.1c-1.6-2.7-6.5-9.3-9.7,0c-0.1,0.2-0.3,0.4-0.5,0.4h-5.7c-0.2,0-0.4-0.2-0.5-0.4
		c-0.5-1.8-3.8-9.2-10.4-0.9c-0.3,0.3-0.5-0.1-0.9-0.1c-17.6,0-37,11.2-37,11.2S181,155.4,168.5,177c-11.5,0.4-41.5,4.1-42.2,10.5
		c-0.7,6.3,22.5,22.2,32.3,29.4c-4.1,31.8-13.4,43.6-9.2,63.6c4.7,22.2,20.1,30.2,20.1,30.2s-19.9,24.3-17.2,52.7
		c2.7,28.4,21.6,23.1,21.6,23.1s0,32.9,14.2,39.4c14.2,6.5,30.8,4.7,36.7,2.7c5.9-2.1,3-8.9,11-8.6c8,0.3,34.1,0,34.1,0
		s7.1-1.3,8.3,3.6c1.2,5,7.1,7.3,25.5,6.9c18.4-0.4,23.7-11.4,25.8-21.5c2.1-10.1,2.1-24,2.1-24s6.8,5.6,16.6-0.9
		c9.8-6.5,8.6-30.2,3-44.7c-4.4-11.4-13.3-29.6-13.3-29.6s30-14.5,17.5-58.1c-4.2-14.5-6-25.5-7.1-34.6
		C357.8,210.1,381.6,193.9,380.8,187.5z"/>
	<path fill="#FFFFFF" d="M654.2,187.5c0.7-6.5,31.4-10.2,42.6-10.6c0.6-0.9,1.2-1.9,1.9-2.8c15.1-21.9,30.5-28.4,30.5-28.4
		s19.6-10.9,38.1-10.9c0.4,0,0.7,0.5,1,0.1c1.6-2.7,6.5-9.3,9.7,0c0.1,0.2,0.3,0.4,0.5,0.4h5.7c0.2,0,0.4-0.2,0.5-0.4
		c0.5-1.8,3.8-9.2,10.4-0.9c0.3,0.3,0.5-0.1,0.9-0.1c17.6,0,37,11.2,37,11.2s21.1,10.3,33.5,31.9c11.5,0.4,41.5,4.1,42.2,10.5
		c0.7,6.3-22.5,22.2-32.3,29.4c4.1,31.8,13.4,43.6,9.2,63.6c-4.7,22.2-20.1,30.2-20.1,30.2s19.9,24.3,17.2,52.7
		c-2.7,28.4-21.6,23.1-21.6,23.1s0,32.9-14.2,39.4c-14.2,6.5-30.8,4.7-36.7,2.7c-5.9-2.1-3-8.9-11-8.6c-8,0.3-34.1,0-34.1,0
		s-7.1-1.3-8.3,3.6c-1.2,5-7.1,7.3-25.5,6.9c-18.4-0.4-23.7-11.4-25.8-21.5c-2.1-10.1-2.1-24-2.1-24s-6.8,5.6-16.6-0.9
		c-9.8-6.5-9.5-23.6-3-44.7c4-12.8,13.3-29.6,13.3-29.6s-30-14.5-17.5-58.1c4.2-14.5,6-25.5,7.1-34.6
		C677.2,210.1,653.4,193.9,654.2,187.5z"/>
	<path fill="#FFFFFF" d="M636.4,189.5c-7.1-5.4-25.5-9.7-30.6-9.9c-0.9-1.8-2-3.6-3.4-5.5c-15.1-21.9-32.5-29.6-32.5-29.6
		c-14.6-8.1-31.2-9.7-31.2-9.7c-0.2,0.4-0.7,0.5-1,0.1c-1.6-2.7-6.5-9.3-9.7,0c-0.1,0.2-0.3,0.4-0.5,0.4h-5.7
		c-0.2,0-0.4-0.2-0.5-0.4c-0.5-1.8-3.2-9.4-9.8-1.1c-0.3,0.3-0.5-0.2-0.9-0.1c-24.1,2.6-41.1,11.4-41.1,11.4s-21.1,10-34,31
		c-11.5,0-37.3,1.2-45.9,10.9c0,0-1.1,7.4,22.2,22.2c5.3,3.4,9.6,6.3,12.9,8.6c-4.2,31.1-13.3,42.9-9.1,62.6
		c4.7,22.2,20.1,30.2,20.1,30.2s-19.9,24.3-17.2,52.7c2.7,28.4,21.6,23.1,21.6,23.1s0,32.9,14.2,39.4c14.2,6.5,47.1,4.7,53.1,2.7
		c5.9-2.1,3-8.9,11-8.6c8,0.3,29,0,29,0s7.1-1.3,8.3,3.6c1.2,5,2.9,6.9,17.3,6.9c18.4,0,22.3-11.6,24.4-21.6
		c1.5-7.2,0.9-13.9,0.9-22.7l3-1.7c9.2-8.3,12.2-18.4,7.1-43.3c-2.3-11.3-10.1-26.5-10.1-26.5s32.8-19.4,20.3-63
		c-4.3-15.1-5.8-26.5-6.4-35.8l10.5-6.5C622.4,209.5,644.5,195.7,636.4,189.5z"/>
	<path fill="#FFE1A0" d="M181.2,160.6c0,0,11.9,50.3-27.4,81l4.8-24.7c0,0-32-23-32.3-29.4c-0.3-6.4,25-8.9,25-8.9l17.2-1.7
		C168.5,177,179.7,162.1,181.2,160.6z"/>
	<path fill="#FFE1A0" d="M162.5,305.2c8-24.9-13.5-37.3-13.5-37.3S149,291.2,162.5,305.2z"/>
	<path fill="#FFE1A0" d="M853.9,160.6c0,0-11.9,50.3,27.4,81l-4.8-24.7c0,0,32-23,32.3-29.4c0.3-6.4-25-8.9-25-8.9l-17.2-1.7
		C866.6,177,855.4,162.1,853.9,160.6z"/>
	<path fill="#FFE1A0" d="M872.6,305.2c-8-24.9,13.5-37.3,13.5-37.3S886.2,291.2,872.6,305.2z"/>
	<path fill="#FFE1A0" d="M447.1,160.6c0,0,11.9,50.3-27.4,81l4.8-24.7c0,0-34.2-20.2-34.2-26.7c0-9.9,26.9-11.6,26.9-11.6l17.2-1.7
		C434.5,177,445.6,162.1,447.1,160.6z"/>
	<path fill="#FFE1A0" d="M428.5,305.2c8-24.9-13.5-37.3-13.5-37.3S414.9,291.2,428.5,305.2z"/>
	<path fill="#231815" d="M703.1,390c-1.4,0-2.5-1.1-2.5-2.4c0-1.1-0.7-28,2.3-43.8c0.3-1.4,1.6-2.2,2.9-2c1.4,0.3,2.2,1.6,2,2.9
		c-2.9,15.3-2.2,42.5-2.2,42.7C705.7,388.8,704.6,390,703.1,390C703.2,390,703.2,390,703.1,390z"/>
	<path fill="#231815" d="M860.7,392.3C860.7,392.3,860.7,392.3,860.7,392.3c-1.4,0-2.5-1.2-2.5-2.6c0-0.3,0.7-29-2.2-45.1
		c-0.2-1.4,0.7-2.7,2-2.9c1.4-0.2,2.7,0.7,2.9,2c3,16.6,2.3,44.9,2.3,46.1C863.2,391.2,862.1,392.3,860.7,392.3z"/>
	<path fill="#FF9AA0" d="M244,340.3c-11,0-20.7,7.5-23.3,18.3c-0.6,2.6-1,5.6-1.2,9c-0.9,25.8,20.4,26.1,37,26.1s31.9-6.2,31-26.7
		c-0.8-20.4-15.5-26.7-23.6-26.7C260.9,340.3,251.4,340.3,244,340.3z"/>
	<path fill="#231815" d="M174,389.1c-1.4,0-2.5-1.1-2.5-2.5c0-1.3,1-2.4,2.3-2.5c1.3-0.3,5.1-4.1,7.2-17.5
		c3.2-20.2,11.2-27.8,11.6-28.1c1-0.9,2.6-0.9,3.5,0.1c0.9,1,0.9,2.6-0.1,3.5c-0.1,0.1-7.1,7-10,25.2
		C182.7,388,175.4,389.1,174,389.1z M173.8,384.1C173.8,384.1,173.8,384.1,173.8,384.1L173.8,384.1z M174,384.1
		C174,384.1,174,384.1,174,384.1C174,384.1,174,384.1,174,384.1z M174,384.1C174,384.1,174,384.1,174,384.1
		C174,384.1,174,384.1,174,384.1z"/>
	<path fill="#231815" d="M331.7,387.6c-0.3,0-0.6,0-0.8-0.1c-0.8-0.3-7.5-3-8.9-17.5c-1.3-12.6-10.9-28.1-11-28.3
		c-0.7-1.2-0.4-2.7,0.8-3.4c1.2-0.7,2.7-0.4,3.4,0.8c0.4,0.7,10.3,16.7,11.7,30.4c1.1,11.2,5.6,13.3,5.7,13.3
		c1.3,0.5,1.9,1.9,1.5,3.2C333.7,387,332.7,387.6,331.7,387.6z"/>
	<path fill="#FF9AA0" d="M529.4,340.3c-11,0-20.7,7.5-23.3,18.3c-0.6,2.6-1,5.6-1.2,9c-0.9,25.8,20.4,26.1,37,26.1s31.9-6.2,31-26.7
		c-0.8-20.4-15.5-26.7-23.6-26.7C546.2,340.3,536.7,340.3,529.4,340.3z"/>
	<path fill="#231815" d="M440,389.1c-1.4,0-2.5-1.1-2.5-2.5c0-1.4,1.1-2.5,2.5-2.5c0.4,0,8.4-0.6,11.1-17.4
		c3.2-20.2,11.2-27.8,11.6-28.1c1-0.9,2.6-0.9,3.5,0.1c0.9,1,0.9,2.6-0.1,3.5c-0.1,0.1-7.1,7-10,25.2
		C452.6,388.8,440.5,389.1,440,389.1z"/>
	<path fill="#231815" d="M598.1,388.7c-1.3,0-2.4-1-2.5-2.4c0-0.3-2-34.1-6.2-46.4c-0.4-1.3,0.3-2.7,1.6-3.2
		c1.3-0.4,2.7,0.3,3.2,1.6c4.4,13,6.4,46.3,6.5,47.7c0.1,1.4-1,2.6-2.4,2.6C598.2,388.7,598.2,388.7,598.1,388.7z"/>
	<g>
		<path fill="#FF9AA0" d="M186.5,261.4c-6-3-7-11-2.1-15.7c2.1-2,5.2-3.7,9.9-4.4c13.8-2,15.2,6.3,16,9.6c1,4.2-2.4,10.3-15,11.7
			C191.5,263.1,188.6,262.5,186.5,261.4z"/>
		<g>
			<path fill="#231815" d="M197.3,265c-1,0-1.9-0.6-2.3-1.5c-0.6-1.3,0-2.7,1.3-3.3l21.9-9.6c1.3-0.6,2.7,0,3.3,1.3
				c0.6,1.3,0,2.7-1.3,3.3l-21.9,9.6C198,265,197.7,265,197.3,265z"/>
			<path fill="#231815" d="M192.4,251.5c-1.1,0-2.1-0.8-2.4-1.9c-0.3-1.3,0.5-2.7,1.8-3l23.3-5.8c1.3-0.3,2.7,0.5,3,1.8
				c0.3,1.3-0.5,2.7-1.8,3l-23.3,5.8C192.8,251.4,192.6,251.5,192.4,251.5z"/>
		</g>
		<path fill="#FF9AA0" d="M320.8,261.4c6-3,7-11,2.1-15.7c-2.1-2-5.2-3.7-9.9-4.4c-13.8-2-15.2,6.3-16,9.6c-1,4.2,2.4,10.3,15,11.7
			C315.8,263.1,318.7,262.5,320.8,261.4z"/>
		<g>
			<path fill="#231815" d="M310,265c-0.3,0-0.7-0.1-1-0.2l-21.9-9.6c-1.3-0.6-1.8-2-1.3-3.3c0.6-1.3,2-1.8,3.3-1.3l21.9,9.6
				c1.3,0.6,1.8,2,1.3,3.3C311.9,264.5,310.9,265,310,265z"/>
			<path fill="#231815" d="M314.9,251.5c-0.2,0-0.4,0-0.6-0.1l-23.3-5.8c-1.3-0.3-2.2-1.7-1.8-3c0.3-1.3,1.7-2.2,3-1.8l23.3,5.8
				c1.3,0.3,2.2,1.7,1.8,3C317,250.7,316,251.5,314.9,251.5z"/>
		</g>
	</g>
	<g>
		<g>
			<path fill="#FF9AA0" d="M250.6,236.5l-1.6,1.6c-1,1.1-1,2.8,0,3.8l3.2,3.2c1.1,1.1,2.8,1.1,3.9,0l3.1-3.2c1.1-1.1,1.1-2.8,0-3.9
				l-1.7-1.7c-0.5-0.5-1.2-0.8-2-0.8h-3.1C251.9,235.7,251.2,236,250.6,236.5z"/>
			<path fill="#231815" d="M254.3,248.6c-1.4,0-2.7-0.6-3.7-1.6l-3.2-3.2c-2-2-2-5.2-0.1-7.3l1.6-1.6c1-1,2.4-1.6,3.8-1.6h3.1
				c1.4,0,2.8,0.6,3.7,1.6l1.7,1.7c2,2,2,5.3,0,7.4L258,247C257,248,255.7,248.6,254.3,248.6z M252.6,238.2c-0.1,0-0.1,0-0.2,0.1
				l0,0l-1.6,1.6c-0.1,0.1-0.1,0.3,0,0.4l3.2,3.2c0.1,0.1,0.3,0.1,0.4,0l3.1-3.2c0.1-0.1,0.1-0.3,0-0.4l-1.7-1.7
				c0-0.1-0.1-0.1-0.2-0.1H252.6z"/>
		</g>
		<path fill="#231815" d="M254.3,260.5c-1.4,0-2.5-1.1-2.5-2.5v-10.8c0-1.4,1.1-2.5,2.5-2.5s2.5,1.1,2.5,2.5V258
			C256.8,259.4,255.6,260.5,254.3,260.5z"/>
		<path fill="#231815" d="M240.8,266.2c-0.7,0-1.5-0.3-2-0.9c-0.9-1.1-0.7-2.7,0.4-3.5c0.3-0.3,8-6.3,14.9-6.3
			c7,0,13.8,6.1,14.1,6.4c1,0.9,1.1,2.5,0.2,3.5c-0.9,1-2.5,1.1-3.5,0.2c-1.6-1.4-6.5-5.1-10.7-5.1c-4.3,0-10,3.8-11.8,5.2
			C241.9,266.1,241.3,266.2,240.8,266.2z"/>
	</g>
	<path fill="#FF9AA0" d="M157.5,189.4l-7.6,1c-1.1,0.2-1.6,1.6-0.8,2.4l6.1,5.9c0.8,0.8,2.1,0.4,2.3-0.7l1.5-6.9
		C159.2,190.1,158.4,189.3,157.5,189.4z"/>
	<path fill="#FF9AA0" d="M349.7,189.4l7.6,1c1.1,0.2,1.6,1.6,0.8,2.4l-6.1,5.9c-0.8,0.8-2.1,0.4-2.3-0.7l-1.5-6.9
		C348,190.1,348.8,189.3,349.7,189.4z"/>
	<g>
		<path fill="#231815" d="M288.6,222.9c-0.1,0-0.2,0-0.3,0c-7.8-1-13.9-5.1-14.2-5.3c-1.1-0.8-1.4-2.3-0.7-3.5
			c0.8-1.1,2.3-1.4,3.5-0.7c0.1,0.1,5.5,3.6,12,4.5c1.4,0.2,2.3,1.4,2.2,2.8C290.9,221.9,289.9,222.9,288.6,222.9z"/>
		<circle fill="#231815" cx="228.1" cy="226.7" r="9.4"/>
		<circle fill="#FFFFFF" cx="230.6" cy="225.2" r="3.3"/>
		<path fill="#FFFFFF" d="M226.2,229.2c0,0.9-0.8,1.7-1.7,1.7c-0.9,0-1.7-0.8-1.7-1.7s0.8-1.7,1.7-1.7
			C225.4,227.5,226.2,228.3,226.2,229.2z"/>
		<ellipse fill="#FFFFFF" cx="229.5" cy="230.9" rx="1.8" ry="0.9"/>
		<circle fill="#231815" cx="278.8" cy="226.7" r="9.4"/>
		<circle fill="#FFFFFF" cx="276.4" cy="225.2" r="3.3"/>
		<circle fill="#FFFFFF" cx="282.5" cy="229.2" r="1.7"/>
		<ellipse fill="#FFFFFF" cx="277.5" cy="230.9" rx="1.8" ry="0.9"/>
	</g>
	<g>
		<path fill="#FF9AA0" d="M490.7,261.4c-6-3-7-11-2.1-15.7c2.1-2,5.2-3.7,9.9-4.4c13.8-2,15.2,6.3,16,9.6c1,4.2-2.4,10.3-15,11.7
			C495.7,263.1,492.8,262.5,490.7,261.4z"/>
		<g>
			<path fill="#231815" d="M502,265c-1,0-1.9-0.6-2.3-1.5c-0.6-1.3,0-2.7,1.3-3.3l21.9-9.6c1.3-0.6,2.7,0,3.3,1.3
				c0.6,1.3,0,2.7-1.3,3.3l-21.9,9.6C502.7,265,502.3,265,502,265z"/>
			<path fill="#231815" d="M497.1,251.5c-1.1,0-2.1-0.8-2.4-1.9c-0.3-1.3,0.5-2.7,1.8-3l23.3-5.8c1.3-0.3,2.7,0.5,3,1.8
				c0.3,1.3-0.5,2.7-1.8,3l-23.3,5.8C497.5,251.4,497.3,251.5,497.1,251.5z"/>
		</g>
		<path fill="#FF9AA0" d="M618.3,261.4c6-3,0.2-11.3-0.8-16.2c-0.6-2.8-2.3-3.1-7-3.8c-13.8-2-15.2,6.3-16,9.6
			c-1,4.2,2.4,10.3,15,11.7C613.2,263.1,616.1,262.5,618.3,261.4z"/>
		<g>
			<path fill="#231815" d="M610.8,265c-0.3,0-0.7-0.1-1-0.2l-21.9-9.6c-1.3-0.6-1.8-2-1.3-3.3c0.6-1.3,2-1.8,3.3-1.3l21.9,9.6
				c1.3,0.6,1.8,2,1.3,3.3C612.7,264.5,611.7,265,610.8,265z"/>
			<path fill="#231815" d="M615.7,251.5c-0.2,0-0.4,0-0.6-0.1l-23.3-5.8c-1.3-0.3-2.2-1.7-1.8-3c0.3-1.3,1.7-2.2,3-1.8l23.3,5.8
				c1.3,0.3,2.2,1.7,1.8,3C617.8,250.7,616.8,251.5,615.7,251.5z"/>
		</g>
	</g>
	<g>
		<g>
			<path fill="#FF9AA0" d="M556.9,236.5l-1.6,1.6c-1,1.1-1,2.8,0,3.8l3.2,3.2c1.1,1.1,2.8,1.1,3.9,0l3.1-3.2c1.1-1.1,1.1-2.8,0-3.9
				l-1.7-1.7c-0.5-0.5-1.2-0.8-2-0.8h-3.1C558.1,235.7,557.4,236,556.9,236.5z"/>
			<path fill="#231815" d="M560.5,248.6c-1.4,0-2.7-0.6-3.7-1.6l-3.2-3.2c-2-2-2-5.2-0.1-7.3l1.6-1.6c1-1,2.4-1.6,3.8-1.6h3.1
				c1.4,0,2.8,0.6,3.7,1.6l1.7,1.7c2,2,2,5.3,0,7.4l-3.1,3.2C563.2,248,561.9,248.6,560.5,248.6z M558.9,238.2c-0.1,0-0.1,0-0.2,0.1
				l0,0l-1.6,1.6c-0.1,0.1-0.1,0.3,0,0.4l3.2,3.2c0.1,0.1,0.3,0.1,0.4,0l3.1-3.2c0.1-0.1,0.1-0.3,0-0.4l-1.7-1.7
				c0,0-0.1-0.1-0.2-0.1H558.9z"/>
		</g>
		<path fill="#231815" d="M560.5,260.5c-1.4,0-2.5-1.1-2.5-2.5v-10.8c0-1.4,1.1-2.5,2.5-2.5s2.5,1.1,2.5,2.5V258
			C563,259.4,561.9,260.5,560.5,260.5z"/>
		<path fill="#231815" d="M547,266.2c-0.7,0-1.5-0.3-2-0.9c-0.9-1.1-0.7-2.7,0.4-3.5c0.3-0.3,8-6.3,14.9-6.3c4.5,0,10,5.3,11.1,6.3
			c1,1,1,2.6,0,3.5c-1,1-2.6,1-3.5,0c-2-2-5.8-4.9-7.6-4.9c-4.3,0-10,3.8-11.8,5.2C548.1,266.1,547.5,266.2,547,266.2z"/>
	</g>
	<g>
		<path fill="#231815" d="M591.8,222.5c-0.1,0-0.2,0-0.3,0c-7.4-1-13.3-4.9-13.5-5c-1.1-0.8-1.4-2.3-0.7-3.5
			c0.8-1.1,2.3-1.4,3.5-0.7c0.1,0.1,5.2,3.4,11.4,4.2c1.4,0.2,2.3,1.4,2.2,2.8C594.1,221.6,593,222.5,591.8,222.5z"/>
		<circle fill="#231815" cx="534.3" cy="226.7" r="9.4"/>
		<circle fill="#FFFFFF" cx="536.8" cy="225.2" r="3.3"/>
		<path fill="#FFFFFF" d="M532.4,229.2c0,0.9-0.8,1.7-1.7,1.7s-1.7-0.8-1.7-1.7s0.8-1.7,1.7-1.7S532.4,228.3,532.4,229.2z"/>
		<ellipse fill="#FFFFFF" cx="535.7" cy="230.9" rx="1.8" ry="0.9"/>
		<circle fill="#231815" cx="582.5" cy="226" r="9"/>
		<circle fill="#FFFFFF" cx="585.3" cy="224.6" r="3.1"/>
		<circle fill="#FFFFFF" cx="579.3" cy="227.5" r="1.6"/>
		<ellipse fill="#FFFFFF" cx="584.7" cy="230" rx="1.7" ry="0.8"/>
	</g>
	<path fill="#231815" d="M299.5,433.1c-13.4,0-22-1.8-23.7-8.8c-0.6-2.5-5.4-1.8-5.4-1.8l-0.4,0c-1.1,0-26.2,0.3-34.2,0
		c-2.9-0.1-3.3,0.7-4.3,2.8c-0.9,1.9-2.2,4.5-5.7,5.7c-6,2.1-23.4,4.2-38.6-2.8c-13-6-15.2-30.4-15.6-38.8c-2.8,0.2-7.1-0.2-11.2-3
		c-5.9-4.1-9.4-11.7-10.5-22.7c-2.3-24.4,11.1-45.5,16-52.3c-4.8-3.4-15.1-12.5-19-30.4c-2.7-12.6-0.2-22.2,3-34.4
		c2-7.9,4.4-16.7,6-28.5c-0.9-0.7-1.9-1.4-2.9-2.1c-19.8-14.4-29.8-22.8-29.1-28.7c0.3-2.8,2.8-6.5,19-9.7c8.4-1.7,18.1-2.7,24.2-3
		c12.5-20.7,32.2-30.9,33.8-31.7c1.5-0.9,20.4-11.4,38-11.5c2.6-2.9,5.3-4.2,7.9-3.7c3,0.6,4.7,3.3,5.4,5h3c1.3-3.2,3.2-4.9,5.4-5.2
		c3-0.3,5.6,2.1,7.4,4.7c18.4,0.1,37.1,10.1,38.9,11.1c1.7,0.7,16.7,7.8,31.5,29.3c0.4,0.6,0.8,1.2,1.2,1.8c6,0.3,15.7,1.3,24.3,3
		c16.6,3.2,19.1,6.9,19.4,9.8l0,0c0.7,5.9-9.9,14.8-29.5,29c-1,0.7-2,1.4-2.9,2.1c1,7.9,2.8,18.6,6.9,32.8
		c10.9,38-9.8,55.2-16.7,59.7c2.5,5.1,8.9,18.7,12.4,27.8c5.7,14.6,7.6,40.1-3.9,47.7c-6.6,4.4-12.1,4-15.6,2.8
		c-0.2,4.9-0.6,13.5-2.1,20.5c-3.2,15.4-12.4,23.1-28.2,23.4C302.4,433.1,300.9,433.1,299.5,433.1z M272,417.4
		c3.4,0,7.7,1.2,8.7,5.7c0.6,2.7,3.9,5.4,23,4.9c17.3-0.4,21.6-10.6,23.4-19.5c2-9.7,2-23.4,2-23.5v-5.3l4.1,3.4
		c0.2,0.2,5.6,4.3,13.6-1c8-5.4,7.7-27.2,2-41.8c-4.3-11.1-13.2-29.3-13.3-29.4l-1.1-2.3l2.3-1.1c1.1-0.6,27.9-14.2,16.2-55.1
		c-4.4-15.4-6.2-26.8-7.2-35l-0.2-1.5l1.2-0.9c1.2-0.9,2.6-1.9,4.1-3c5.3-3.8,12.6-9.1,18.4-14c8.8-7.5,9.1-10,9.1-10.3
		c-0.1-0.3-1.9-2.9-16.1-5.6c-8.8-1.6-18.6-2.6-24.1-2.8l-1.3,0l-0.7-1.1c-0.6-1-1.2-1.9-1.8-2.7c-14.5-21-29.3-27.5-29.4-27.6
		l-0.2-0.1c-0.2-0.1-19-10.4-36.5-10.5c-1.6,0.6-2.9-0.1-3.5-1.1c-1.7-2.8-3.1-3.6-3.4-3.6c0,0,0,0,0,0c0,0-0.8,0.4-1.8,3.1
		c-0.4,1.2-1.6,2.1-2.9,2.1h-5.7c-1.3,0-2.5-0.9-2.9-2.2c-0.3-1.1-1.3-2.8-2.1-2.9c-0.6-0.1-2,0.6-3.9,2.9c-0.7,0.9-1.9,1.4-3.3,0.8
		c-16.6,0.2-35.1,10.7-35.3,10.8l-0.1,0.1c-0.2,0.1-20.6,10.3-32.5,30.9l-0.7,1.2l-1.4,0c-5.5,0.2-15.3,1.2-24,2.8
		c-14.6,2.8-15.8,5.5-15.8,5.6c0,0-0.1,2.4,8.9,10.1c5.7,4.8,12.9,10.1,18.2,13.9c1.5,1.1,3,2.1,4.2,3l1.2,0.9l-0.2,1.5
		c-1.7,12.8-4.1,22.3-6.3,30.6c-3.1,12-5.4,20.7-3,32.1c4.4,20.7,18.7,28.5,18.9,28.5l2.7,1.4l-1.9,2.4
		c-0.2,0.2-19.2,23.9-16.6,50.9c0.9,9.4,3.7,15.8,8.2,19c4.8,3.3,10,2,10.2,1.9l3.1-0.8l0,3.3c0,8.7,2.3,32.3,12.8,37.1
		c13.7,6.3,29.7,4.4,34.9,2.6c1.6-0.5,2.1-1.5,2.9-3.2c1.1-2.3,2.8-5.8,9-5.5c7.5,0.3,31.3,0,33.8,0
		C270.4,417.4,271.2,417.4,272,417.4z M378.4,187.9L378.4,187.9L378.4,187.9z M252.8,134.2C252.8,134.2,252.8,134.2,252.8,134.2
		C252.8,134.2,252.8,134.2,252.8,134.2z"/>
	<path fill="#231815" d="M735.5,433.1c-1.4,0-2.8,0-4.3-0.1c-15.8-0.4-25-8-28.2-23.4c-1.4-7-1.9-15.5-2.1-20.5
		c-3.5,1.1-9,1.6-15.6-2.8c-10.1-6.8-11.5-23.2-4-47.6c3.2-10.4,9.7-23,12.4-28c-7-4.6-27.4-21.9-16.6-59.7
		c4.1-14.2,5.8-24.9,6.9-32.8c-0.9-0.6-1.9-1.3-2.9-2.1c-19.6-14.2-30.2-23-29.5-29v0c0.3-2.9,2.8-6.6,19.4-9.8
		c8.6-1.7,18.2-2.7,24.3-3c0.4-0.6,0.8-1.2,1.2-1.8c14.8-21.5,29.8-28.5,31.5-29.3c1.8-1,20.6-11,38.9-11.1c1.8-2.6,4.4-5,7.4-4.7
		c2.3,0.3,4.1,2,5.4,5.2h3c0.8-1.7,2.4-4.4,5.4-5c2.6-0.5,5.2,0.7,7.9,3.7c17.6,0,36.5,10.6,38,11.5c1.6,0.8,21.3,10.9,33.8,31.7
		c6.1,0.3,15.7,1.3,24.2,3c16.3,3.2,18.7,6.9,19,9.7c0.7,5.9-9.3,14.3-29.1,28.7c-1,0.8-2,1.5-2.9,2.1c1.6,11.8,3.9,20.7,6,28.5
		c3.2,12.2,5.7,21.9,3,34.4c-3.8,17.9-14.2,27-19,30.4c4.9,6.8,18.3,27.9,16,52.3c-1,11-4.5,18.6-10.5,22.7c-4.1,2.8-8.4,3.2-11.2,3
		c-0.4,8.5-2.6,32.8-15.6,38.8c-15.2,7-32.6,4.9-38.6,2.8c-3.6-1.2-4.8-3.8-5.7-5.7c-1-2.1-1.4-2.9-4.3-2.8c-8,0.3-33.1,0-34.2,0
		l-0.4,0c0,0-4.8-0.8-5.4,1.8C757.4,431.3,748.9,433.1,735.5,433.1z M705.8,379.9l0,5.1c0,0.1,0,13.8,2,23.5
		c1.8,8.9,6.1,19.1,23.4,19.5c19.1,0.4,22.4-2.3,23-4.9c1.3-5.6,7.6-6.1,11-5.5c2.5,0,26.3,0.3,33.7,0c6.1-0.2,7.8,3.2,9,5.5
		c0.8,1.7,1.4,2.6,2.9,3.2c5.2,1.8,21.2,3.7,34.9-2.6c10.5-4.8,12.8-28.4,12.8-37.1l0-3.3l3.2,0.9c0.2,0.1,5.4,1.4,10.2-1.9
		c4.6-3.2,7.4-9.6,8.2-19c2.5-27.1-16.4-50.7-16.6-50.9l-1.9-2.4l2.7-1.4c0.1-0.1,14.4-7.8,18.9-28.5c2.4-11.4,0.2-20.1-3-32.1
		c-2.2-8.3-4.6-17.8-6.3-30.6l-0.2-1.5l1.2-0.9c1.2-0.9,2.6-1.9,4.2-3c5.3-3.8,12.5-9.1,18.2-13.9c9-7.7,8.9-10.1,8.9-10.2l0,0
		c0,0-1.2-2.7-15.8-5.5c-8.7-1.7-18.5-2.6-24-2.8l-1.4,0l-0.7-1.2c-11.9-20.7-32.2-30.8-32.5-30.9l-0.1-0.1
		c-0.2-0.1-18.7-10.6-35.3-10.8c-1.4,0.6-2.6,0.1-3.3-0.8c-1.9-2.4-3.3-3.1-3.9-2.9c-0.8,0.2-1.8,1.8-2.1,2.9
		c-0.4,1.3-1.6,2.2-2.9,2.2h-5.7c-1.3,0-2.5-0.8-2.9-2.1c-0.9-2.8-1.8-3.1-1.8-3.1c-0.3,0-1.7,0.8-3.4,3.6c-0.6,1-1.9,1.7-3.5,1.1
		c-17.6,0.2-36.3,10.4-36.5,10.5l-0.2,0.1c-0.1,0.1-15,6.6-29.4,27.6c-0.6,0.8-1.1,1.7-1.8,2.7l-0.7,1.1l-1.3,0
		c-5.4,0.2-15.3,1.1-24.1,2.8c-14.3,2.7-16,5.3-16.1,5.6c0,0.3,0.3,2.8,9.1,10.3c5.7,4.9,13,10.2,18.4,14c1.5,1.1,2.9,2.1,4.1,3
		l1.2,0.9l-0.2,1.5c-1,8.2-2.8,19.6-7.2,35c-11.7,40.9,15.1,54.6,16.2,55.1l2.4,1.2l-1.3,2.3c-0.1,0.2-9.3,16.7-13.1,29.1
		c-6.7,21.7-6,36.6,2,41.9c8,5.3,13.4,1.2,13.6,1L705.8,379.9z"/>
	<path fill="#231815" d="M572.8,433c-14.1,0-18-1.7-19.7-8.8c-0.6-2.5-5.4-1.8-5.4-1.8l-0.4,0c-0.9,0-21.1,0.3-29.1,0
		c-2.9-0.1-3.3,0.7-4.3,2.8c-0.9,1.9-2.2,4.5-5.7,5.7c-6.6,2.3-40.3,4-54.9-2.8c-13-6-15.2-30.4-15.6-38.8c-2.8,0.2-7.1-0.2-11.2-3
		c-5.9-4.1-9.4-11.7-10.5-22.7c-2.3-24.4,11.1-45.5,16-52.3c-4.8-3.4-15.1-12.5-19-30.4c-2.7-12.6-0.2-22.2,3-34.4
		c2-7.6,4.2-16.2,5.8-27.6c-3.4-2.4-7.3-4.9-11.6-7.7c-23.5-15-23.5-23.2-23.3-24.7l0.1-0.7l0.5-0.6c8.8-9.9,32.3-11.6,46.4-11.8
		c13.2-20.5,33.5-30.3,34.4-30.7c0.6-0.3,17.6-8.9,41.9-11.6c0,0,0.1,0,0.1,0c2.6-2.9,5.1-4.1,7.6-3.6c2.9,0.6,4.4,3.2,5.2,5.2h3
		c1.3-3.2,3.2-4.9,5.4-5.2c3-0.3,5.6,2.1,7.4,4.7c1.5,0.2,17.5,2,32,9.9c1.7,0.8,18.6,8.9,33.5,30.5c1,1.5,2,3,2.8,4.5
		c7,0.7,23.7,5,30.6,10.3l0,0c1.9,1.5,2.9,3.4,2.8,5.7c-0.4,7.7-14.1,16.7-16.9,18.4l-9.2,5.7c0.6,8,2,18.9,6.2,33.7
		c11.1,38.6-12.4,59.3-19.5,64.5c2.2,4.5,7.5,16,9.4,25.2c4.9,24,2.9,35.9-7.9,45.6l-0.2,0.2l-2,1.1c0,1.4,0,2.8,0.1,4.2
		c0.1,6.3,0.2,11.7-1,17.5C597.2,421.1,592.2,433,572.8,433z M442.5,383.3l0,3.3c0,8.7,2.3,32.3,12.8,37.1c14,6.4,46.1,4.4,51.2,2.6
		c1.6-0.5,2.1-1.5,2.9-3.2c1.1-2.3,2.9-5.8,9-5.5c7.4,0.3,26.5,0,28.6,0c3.3-0.6,9.6-0.1,11,5.5c0.8,3.3,1.2,4.9,14.8,4.9
		c16.5,0,19.9-9.7,22-19.6c1.1-5.3,1-10.5,0.9-16.5c0-1.8-0.1-3.7-0.1-5.7v-1.4l4-2.3c7.9-7.2,11.2-16,6.1-40.7
		c-2.2-10.9-9.8-25.7-9.9-25.9l-1.1-2.1l2-1.2c1.3-0.8,30.9-19,19.2-60.1c-4.7-16.2-5.9-27.9-6.5-36.3l-0.1-1.5l11.7-7.3
		c5.9-3.7,14.4-10.6,14.5-14.4c0-0.4-0.1-0.9-0.8-1.4l0,0c-6.5-5-24.2-9.2-29.2-9.4l-1.5,0l-0.7-1.3c-0.9-1.8-2-3.5-3.2-5.3
		c-14.5-21.1-31.3-28.7-31.5-28.8l-0.2-0.1c-12.1-6.7-25.8-8.8-29.4-9.3c-0.4,0.2-0.8,0.3-1.2,0.3c0,0,0,0,0,0c-1,0-2-0.5-2.5-1.4
		c-1.7-2.8-3.1-3.6-3.4-3.6c0,0,0,0,0,0c0,0-0.8,0.4-1.8,3.1c-0.4,1.2-1.6,2.1-2.9,2.1h-5.7c-1.3,0-2.5-0.9-2.9-2.2
		c-0.5-1.8-1.4-3-1.9-3.1c-0.4-0.1-1.6,0.4-3.6,2.9c-0.7,0.8-1.9,1.4-3.2,0.9c-23,2.6-39.5,11-39.7,11.1c-0.3,0.1-20.7,10-33.1,30
		l-0.7,1.2l-1.4,0c-21.1,0-37.1,3.5-43.3,9.3c0.6,2,3.9,8.5,20.9,19.3c4.9,3.1,9.3,6.1,13,8.7l1.2,0.9l-0.2,1.5
		c-1.7,12.4-4,21.5-6.2,29.6c-3.1,12-5.4,20.7-3,32.1c4.4,20.7,18.7,28.5,18.9,28.5l2.7,1.4l-1.9,2.4c-0.2,0.2-19.2,23.9-16.6,50.9
		c0.9,9.4,3.7,15.8,8.2,19c4.8,3.3,10,2,10.2,1.9L442.5,383.3z"/>
	<path fill="#FF9AA0" d="M426.2,190.3l-7.6,1c-1.1,0.2-1.6,1.6-0.8,2.4l6.1,5.9c0.8,0.8,2.1,0.4,2.3-0.7l1.5-6.9
		C427.9,191,427.1,190.2,426.2,190.3z"/>
	<path fill="#FF9AA0" d="M612.6,192.9l6,1.5c0.9,0.2,1.1,1.4,0.4,1.9l-5.4,4.2c-0.7,0.5-1.7,0.1-1.8-0.8l-0.6-5.7
		C611.1,193.3,611.8,192.7,612.6,192.9z"/>
	<path fill="#231815" d="M614.5,216h-5c0-27.1-5.6-34.7-5.7-34.8l3.9-3.2C608.4,178.9,614.5,187.2,614.5,216z"/>
</g>
</svg>
