<?xml version="1.0" encoding="utf-8"?>
<!-- Generator: Adobe Illustrator 27.7.0, SVG Export Plug-In . SVG Version: 6.00 Build 0)  -->
<svg version="1.1" id="레이어_1" xmlns="http://www.w3.org/2000/svg" xmlns:xlink="http://www.w3.org/1999/xlink" x="0px"
	 y="0px" width="1035px" height="540px" viewBox="0 0 1035 540" style="enable-background:new 0 0 1035 540;" xml:space="preserve">
<style type="text/css">
	.st0{fill:#FFFFFF;}
	.st1{fill:#FFEDD7;}
	.st2{fill:#231815;}
	.st3{fill:#C89264;}
	.st4{fill:#FF3636;}
	.st5{fill:none;}
	.st6{fill:#FFDDCA;stroke:#231815;stroke-width:5;stroke-miterlimit:10;}
</style>
<rect class="st0" width="1035" height="540"/>
<path class="st1" d="M724.5,294c0,0-3.4,67.9-1.9,82.5s3.2,17.1,9.5,31.8c6.3,14.8,7.6,17.5,18,17.3c16.1-0.2,22.1,4.1,23.1-10.1
	l0.5-10.5h25.4l0.5,10.5c1,14.2,7,9.8,23.1,10.1c10.4,0.2,11.8-2.5,18-17.3c6.3-14.8,8-17.2,9.5-31.8c1.5-14.6-1.9-82.5-1.9-82.5
	H724.5z"/>
<path class="st2" d="M809,428.4c-6.6,0-10.8-1.8-11.5-12.6l-0.4-8.4H776l-0.4,8.3c-0.9,13.3-7,13-16.3,12.5
	c-2.6-0.1-5.6-0.3-9.1-0.3c-12.1,0.2-14-4.2-20.1-18.7c-0.8-1.8-1.4-3.4-2.1-4.8c-4.7-10.8-6.2-14.5-7.6-27.7
	c-1.5-14.6,1.7-80.1,1.9-82.9l0.1-2.1h128.3l0.1,2.1c0.1,2.8,3.4,68.2,1.9,82.9c-1.4,13.2-3,16.9-7.6,27.7c-0.6,1.5-1.3,3-2.1,4.8
	c-6.2,14.5-8.1,18.9-20.1,18.7c-3.5-0.1-6.4,0.1-9.1,0.3C812,428.3,810.4,428.4,809,428.4z M771.6,402.9h29.7l0.6,12.7
	c0.6,8.8,2.3,8.7,11.5,8.2c2.7-0.1,5.8-0.3,9.4-0.3c8.8,0.1,9.7-1.2,15.9-15.9c0.8-1.8,1.4-3.4,2.1-4.8c4.6-10.6,6-13.8,7.3-26.4
	c1.3-12.8-1.2-68.4-1.8-80H726.6c-0.6,11.7-3.1,67.2-1.8,80c1.3,12.5,2.7,15.7,7.3,26.4c0.6,1.5,1.3,3.1,2.1,4.8
	c6.3,14.7,7.1,16.1,15.9,15.9c3.6-0.1,6.7,0.1,9.4,0.3c9.2,0.5,10.9,0.6,11.5-8.2L771.6,402.9z"/>
<path class="st1" d="M739.4,287.8c0,0-23.2,14.9-34.6,50.1s6.6,45,14.8,37s6.5-19.4,15.1-32.6"/>
<path class="st2" d="M713.4,379.8c-2.1,0-4.2-0.6-6.1-1.8c-7.2-4.5-12.2-17.5-4.6-40.8c11.6-35.5,34.6-50.6,35.5-51.3l2.4,3.8
	l-1.2-1.9l1.2,1.9c-0.2,0.1-22.7,15-33.7,48.9c-6.8,20.8-2.8,32.2,2.7,35.6c2.9,1.8,6.1,1.5,8.5-0.8c3.9-3.8,5.4-8.7,7.1-14.4
	c1.6-5.3,3.4-11.4,7.6-17.8l3.8,2.5c-3.9,5.9-5.5,11.4-7.1,16.7c-1.8,6-3.5,11.7-8.3,16.3C719,378.7,716.2,379.8,713.4,379.8z"/>
<path class="st1" d="M835.6,287.8c0,0,23.2,14.9,34.6,50.1s-6.6,45-14.8,37s-6.5-19.4-15.1-32.6"/>
<path class="st2" d="M861.7,379.8c-2.9,0-5.7-1.1-7.8-3.2c-4.8-4.6-6.5-10.3-8.3-16.3c-1.6-5.3-3.2-10.8-7.1-16.7l3.8-2.5
	c4.2,6.5,6,12.5,7.6,17.8c1.7,5.7,3.2,10.5,7.1,14.4c2.4,2.3,5.6,2.6,8.5,0.8c5.5-3.4,9.4-14.8,2.7-35.6
	c-11.1-34-33.5-48.7-33.7-48.9l2.4-3.8c1,0.6,24,15.8,35.5,51.3c7.6,23.3,2.6,36.3-4.6,40.8C865.9,379.2,863.7,379.8,861.7,379.8z"
	/>
<path class="st1" d="M828.6,127.8c18.2-2.4,49.6,5.4,53.4,33.6s4.4,65.2,9.2,80.4C896,257,905,299.1,842,316.4
	c0,0-21.1,5.1-53.5,5.1h-3.2c-32.3,0-53.5-5.1-53.5-5.1c-62.9-17.3-54-59.4-49.2-74.6s5.3-52.2,9.2-80.4s35.2-36.1,53.4-33.6
	C745.3,127.8,777.6,111,828.6,127.8z"/>
<path class="st1" d="M474.5,311.1c0,0-3.2,17.8-7.8,32.3c-6,19.1-6.6,42,13.6,55.2c10.9,7.7,17.8,7.1,17.8,7.2l3.5,16.2
	c0,0,0.9,3.9,12.2,3.9c17.1,0,19.3-1.1,20.1-4.6c1.5-6,2.4-14.6,2.7-16.1c0,0,5.7-1.8,12-5.6c7.8-4.7,24.4-14.5,17.9-42.9
	s-4.2-43.2-4.2-43.2S499.6,305.2,474.5,311.1z"/>
<path class="st2" d="M513.7,428.2c-12.2,0-14.1-4.3-14.4-5.6l-3.1-14.6c-5.2-0.6-11.2-3.3-17.2-7.5c-17.5-11.4-22.6-31.9-14.4-57.7
	c4.5-14.1,7.7-31.8,7.8-32l0.3-1.5l1.4-0.3c25.2-5.9,85.9,2,88.5,2.4l2.3,0.3l-0.4,2.3c0,0.1-2.2,14.8,4.1,42.3
	c6.9,29.8-11.1,40.7-18.8,45.3l-0.1,0.1c-4.7,2.8-9,4.5-11.1,5.3c0,0.3-0.1,0.5-0.1,0.8c-0.4,3.3-1.3,9.5-2.4,14.1
	C534.7,427.5,530.3,428.2,513.7,428.2z M503.7,421.4c0.5,0.7,3,2.3,10,2.3c16.4,0,17.5-1.1,17.9-2.9c1.1-4.4,1.9-10.4,2.3-13.7
	c0.1-1.1,0.3-1.9,0.3-2.3l0.2-1.3l1.3-0.4c0.1,0,5.5-1.8,11.5-5.3l0.1-0.1c8-4.8,22.9-13.8,16.8-40.4c-5.2-22.5-4.9-36.5-4.5-41.7
	c-11-1.4-60.7-7.1-83.3-2.5c-0.9,4.6-3.8,19.1-7.6,31.1c-5.3,16.8-7.4,39.5,12.6,52.6c6,4.2,11.8,6.6,16.4,6.8
	c1.7,0.1,2.2,1.2,2.3,1.8l0,0L503.7,421.4z M503.6,421.3L503.6,421.3z"/>
<path class="st1" d="M503.6,339.2c0.8,15.7-6.5,24.7-3.4,35.7c3.1,11.1,30.6,18.6,33.3-34.7"/>
<path class="st2" d="M511.8,385.2c-6.2,0-12.2-4.1-13.8-9.6c-1.8-6.4-0.4-12.2,1-18.2c1.3-5.4,2.6-10.9,2.3-18l4.5-0.2
	c0.4,7.7-1.1,13.8-2.4,19.3c-1.4,5.7-2.6,10.7-1.1,16c1,3.5,5.4,6.8,10.5,6.2c3.9-0.4,16.6-4.6,18.4-40.4l4.5,0.2
	c-1.9,38.3-16.3,44-22.4,44.7C512.9,385.1,512.3,385.2,511.8,385.2z"/>
<path class="st1" d="M538.3,125.8c32.6,3.4,79.6,19.6,85.4,96.3c5.7,74.4-33.9,103.8-70.4,103.8c-20,0-59.1,0-59.1,0
	c-98-2.5-83.2-90.6-73.9-94.2l0,0c3.7-0.8,6.2-4.1,6-7.9c-3.8-72.3,44.6-90.8,71.4-97.4C503.8,123.7,516.5,116.5,538.3,125.8z"/>
<path class="st3" d="M863.4,161.8c14.1,10,21.8,30.2,21.8,30.2s-2.3-16.7-3.2-21.9s-1.4-18.6-6.5-23.5c-5.1-4.8-16.6-21.1-47.1-19
	c0,0-23.8-8-41.7-7.4s-42.5,7.5-42.5,7.5s-15.3-4.2-34.1,6.4s-19.7,29.8-19.7,29.8l-2.7,28.1c0,0,0.1-0.5,0.4-1.4
	c6.9-21.3,23.4-32.4,44.6-39.6c13-4.4,31.2-8.5,54.2-8.5C841.6,142.4,863.4,161.8,863.4,161.8z"/>
<path class="st3" d="M619.2,196c-7-9.5-9.8-23.6-48.7-41.4c-28.4-12.9-35-11-35-11s-5.2,23.9-17.9,26s-19.5-27.1-19.5-27.1
	s-26.5,3.2-37,13.6s-15.2,7.8-16.6,7.5c-1.5-0.3-10.7-3.2,0-9.3c0,0,9.1-5.2,13.6-10.3c4.6-5.1,29.6-15.3,39.7-17.7
	c0,0,18.1-9.6,33.8-3.1l5.2,1.8c0,0,20.8,4.4,27.4,7.4C576.9,138.5,608.3,150.1,619.2,196z"/>
<path class="st1" d="M187.5,292.9c0,0-3.4,67.9-1.9,82.5s3.2,17.1,9.5,31.8c6.3,14.8,7.6,17.5,18,17.3c16.1-0.2,22.1,4.1,23.1-10.1
	l0.5-10.5h25.4l0.5,10.5c1,14.2,7,9.8,23.1,10.1c10.4,0.2,11.8-2.5,18-17.3c6.3-14.8,8-17.2,9.5-31.8c1.5-14.6-1.9-82.5-1.9-82.5
	H187.5z"/>
<path class="st2" d="M272,427.3c-6.6,0-10.8-1.8-11.5-12.6l-0.4-8.4H239l-0.4,8.3c-0.9,13.3-7,13-16.3,12.5
	c-2.6-0.1-5.6-0.3-9.1-0.3c-12.1,0.2-14-4.2-20.1-18.7c-0.8-1.8-1.4-3.4-2.1-4.8c-4.7-10.8-6.2-14.5-7.6-27.7
	c-1.5-14.6,1.7-80.1,1.9-82.9l0.1-2.1h128.3l0.1,2.1c0.1,2.8,3.4,68.2,1.9,82.9c-1.4,13.2-3,16.9-7.6,27.7c-0.6,1.5-1.3,3-2.1,4.8
	c-6.2,14.5-8,18.9-20.1,18.7c-3.5-0.1-6.4,0.1-9.1,0.3C275,427.2,273.4,427.3,272,427.3z M234.6,401.7h29.7l0.6,12.7
	c0.6,8.8,2.3,8.7,11.5,8.2c2.7-0.1,5.8-0.3,9.4-0.3c8.8,0.1,9.7-1.2,15.9-15.9c0.8-1.8,1.4-3.4,2.1-4.8c4.6-10.6,6-13.8,7.3-26.4
	c1.3-12.8-1.2-68.4-1.8-80H189.6c-0.6,11.7-3.1,67.2-1.8,80c1.3,12.5,2.7,15.7,7.3,26.4c0.6,1.5,1.3,3.1,2.1,4.8
	c6.3,14.7,7.1,16.1,15.9,15.9c3.6-0.1,6.7,0.1,9.4,0.3c9.2,0.5,10.9,0.6,11.5-8.2L234.6,401.7z"/>
<path class="st1" d="M202.4,286.7c0,0-23.2,14.9-34.6,50.1s6.6,45,14.8,37s6.5-19.4,15.1-32.6"/>
<path class="st2" d="M176.4,378.7c-2.1,0-4.2-0.6-6.1-1.8c-7.2-4.5-12.2-17.5-4.6-40.8c11.6-35.5,34.6-50.6,35.5-51.3
	c1-0.7,2.4-0.4,3.1,0.7c0.7,1,0.4,2.4-0.7,3.1c-0.3,0.2-22.7,15-33.7,48.9c-6.8,20.8-2.8,32.2,2.7,35.6c2.9,1.8,6.1,1.5,8.5-0.8
	c3.9-3.8,5.4-8.7,7.1-14.4c1.6-5.3,3.4-11.4,7.6-17.8c0.7-1,2.1-1.3,3.1-0.7c1,0.7,1.3,2.1,0.7,3.1c-3.9,5.9-5.5,11.4-7.1,16.7
	c-1.8,6-3.5,11.6-8.3,16.3C182,377.6,179.2,378.7,176.4,378.7z"/>
<path class="st1" d="M298.6,286.7c0,0,23.2,14.9,34.6,50.1s-6.6,45-14.8,37c-8.2-8-6.5-19.4-15.1-32.6"/>
<path class="st2" d="M324.6,378.7c-2.9,0-5.7-1.1-7.8-3.2c-4.8-4.6-6.5-10.3-8.3-16.3c-1.6-5.3-3.2-10.8-7.1-16.7
	c-0.7-1-0.4-2.4,0.7-3.1c1-0.7,2.4-0.4,3.1,0.7c4.2,6.5,6,12.5,7.6,17.8c1.7,5.6,3.2,10.5,7.1,14.4c2.4,2.3,5.6,2.6,8.5,0.8
	c5.5-3.4,9.4-14.8,2.7-35.6c-11-33.9-33.5-48.7-33.7-48.9c-1-0.7-1.3-2.1-0.7-3.1c0.7-1,2.1-1.3,3.1-0.7c1,0.6,24,15.8,35.5,51.3
	c7.6,23.3,2.6,36.3-4.6,40.8C328.8,378.1,326.7,378.7,324.6,378.7z"/>
<path class="st2" d="M267.5,406.3h-34.8c-1.2,0-2.3-1-2.3-2.3s1-2.3,2.3-2.3h34.8c1.2,0,2.3,1,2.3,2.3S268.7,406.3,267.5,406.3z"/>
<path class="st1" d="M291.3,127.8c18.2-2.4,49.6,5.4,53.4,33.6s4.4,65.2,9.2,80.4c4.8,15.2,13.8,57.3-49.2,74.6
	c0,0-21.1,5.1-53.5,5.1H248c-32.3,0-53.5-5.1-53.5-5.1c-62.9-17.3-54-59.4-49.2-74.6c4.8-15.2,5.3-52.2,9.2-80.4
	s35.2-36.1,53.4-33.6C207.9,127.8,240.3,111,291.3,127.8z"/>
<path class="st2" d="M788.5,323.8h-3.2c-32.2,0-53.1-5-54-5.2c-24.1-6.6-40.3-17.5-48.4-32.4c-7-12.8-7.8-27.9-2.4-45.1
	c2.8-8.8,4.1-25.7,5.5-43.5c1-12.4,2-25.1,3.6-36.6c3.9-28.5,35-38,55.3-35.6c5-2.4,36.2-15.6,83.9,0c20.3-2.5,51.5,7,55.4,35.6
	c1.6,11.4,2.6,24.2,3.6,36.6c1.4,17.8,2.7,34.7,5.5,43.5c5.4,17.1,4.6,32.3-2.4,45.1c-8.1,14.9-24.4,25.7-48.4,32.4
	C841.6,318.8,820.8,323.8,788.5,323.8z M738.6,129.6c-18.1,0-41.3,9.2-44.5,32.1c-1.6,11.3-2.6,24-3.5,36.3
	c-1.4,18.1-2.8,35.2-5.7,44.5c-5,15.9-4.3,29.9,2,41.6c7.5,13.7,22.8,23.9,45.6,30.2c0.1,0,21.2,5,52.9,5h3.2
	c31.7,0,52.7-5,52.9-5.1c22.7-6.3,38-16.4,45.5-30.1c6.4-11.7,7-25.6,2-41.6c-2.9-9.3-4.3-26.4-5.7-44.5c-1-12.3-2-25-3.5-36.3
	c-3.5-25.8-32.5-34.2-50.9-31.7l-0.5,0.1l-0.5-0.2c-49.4-16.3-81.3-0.3-81.6-0.1l-0.6,0.3L745,130
	C743,129.7,740.8,129.6,738.6,129.6z"/>
<path class="st2" d="M553.4,328.2h-59.1c-62.7-1.6-78.2-37.2-81.8-58.2c-3.3-19,1.1-38.1,7.1-40.4l0.3-0.1c2.6-0.5,4.3-2.9,4.2-5.6
	c-1.3-24.6,3.4-45.3,13.8-61.5c-0.5-0.8-0.9-1.7-0.9-2.9c0-2,1.5-3.4,2.4-4.1c0.1-0.1,0.3-0.2,0.4-0.3c1.7-2.2,6.5-4.4,8.2-5.2
	c12-12,28-20.4,49-25.6c0.3-0.1,0.6-0.3,0.9-0.4c6.4-3,19.7-9.2,40.9-0.2c21.8,2.3,39.9,9.5,53.6,21.2
	c19.6,16.6,30.8,42.6,33.5,77.2c3.5,45.9-10.3,71.3-22.5,84.5C590.5,320.4,572.7,328.2,553.4,328.2z M421.1,233.8
	c-2.7,1.6-7.9,18.9-3.6,38.5c4.1,18.6,19.5,49.9,76.8,51.4h59c18,0,34.6-7.2,46.8-20.3c16.6-18,24-46,21.3-81
	c-4.4-57.2-32.4-88.9-83.4-94.2h-0.3l-0.3-0.1c-19.6-8.4-31.3-2.9-37.5,0.1c-0.4,0.2-0.8,0.4-1.1,0.5l-0.4,0.1
	c-20.4,5-35.9,13.1-47.4,24.7l-0.3,0.3l-0.4,0.2c-2.2,1-6,2.9-6.9,4.1c-0.3,0.4-0.6,0.7-1,0.9c-0.2,0.2-0.6,0.5-0.8,0.7
	c0,0.4,0.3,0.5,0.4,0.6l2.5,1.1l-1.7,2.1c-10.6,15.6-15.3,35.9-14.1,60.3C428.9,228.5,425.7,232.7,421.1,233.8z"/>
<circle class="st2" cx="228" cy="220.9" r="5.5"/>
<circle class="st2" cx="271.2" cy="220.9" r="5.5"/>
<path class="st2" d="M256.6,228.7c0,3.4-3.1,6.2-7,6.2s-7-2.8-7-6.2s3.1-4.3,7-4.3S256.6,225.2,256.6,228.7z"/>
<ellipse class="st4" cx="205" cy="236.9" rx="13.5" ry="13.7"/>
<ellipse class="st4" cx="294.2" cy="236.5" rx="13.5" ry="13.7"/>
<path class="st0" d="M265.1,249.9c-18.7,5.9-30.9,0-30.9,0"/>
<path class="st2" d="M248.7,254.8c-9.5,0-15.2-2.7-15.6-2.8c-1.1-0.5-1.6-1.9-1.1-3s1.9-1.6,3-1.1c0.1,0.1,11.8,5.4,29.3-0.1
	c1.2-0.4,2.5,0.3,2.8,1.5c0.4,1.2-0.3,2.5-1.5,2.8C259.3,254.1,253.5,254.8,248.7,254.8z"/>
<line class="st5" x1="249.6" y1="229.6" x2="249.6" y2="252.5"/>
<rect x="247.3" y="229.6" class="st2" width="4.5" height="22.9"/>
<path class="st2" d="M516.6,172c-0.3,0-0.6,0-0.9-0.1c-13.1-2.8-17.5-21.4-19.6-30.3l-0.3-1.3c-0.3-1.2,0.5-2.4,1.7-2.7
	s2.4,0.5,2.7,1.7l0.3,1.3c1.9,8,5.9,24.7,16.1,26.9c1.2,0.1,7.1-2.5,11.8-11.9c2.7-5.3,6-16.5,6.1-16.6c0.4-1.2,1.6-1.9,2.8-1.5
	s1.9,1.6,1.5,2.8c-0.1,0.5-3.5,11.7-6.4,17.4C527.4,167.7,520.4,172,516.6,172z"/>
<circle class="st2" cx="451.5" cy="221.6" r="5.5"/>
<path class="st2" d="M430,229.1c0,3.4-3.1,6.2-7,6.2s-7-2.8-7-6.2s3.1-4.3,7-4.3C426.8,224.8,430,225.7,430,229.1z"/>
<ellipse class="st4" cx="474.5" cy="237.2" rx="13.5" ry="13.7"/>
<path class="st0" d="M413.7,253.1c4.4-0.1,14.4-0.8,20.3-2.6"/>
<path class="st2" d="M413.7,255.4c-1.2,0-2.2-1-2.3-2.2c0-1.2,1-2.3,2.2-2.3c4.8-0.1,14.3-0.8,19.6-2.5c1.2-0.4,2.5,0.3,2.8,1.5
	c0.4,1.2-0.3,2.5-1.5,2.8C428.2,254.7,417.4,255.3,413.7,255.4L413.7,255.4z"/>
<path class="st6" d="M546.5,269.7"/>
<path class="st2" d="M447.4,166.2c-4.3,0-7.6-1.5-7.8-1.6l-0.4-0.2l-0.3-0.3c-1.6-1.8-2.3-3.7-1.8-5.6c0.8-3.7,5.3-5.6,8.5-7
	c0.6-0.2,1.3-0.6,1.7-0.8c0.5-0.6,1.3-1,2.1-0.9c1.2,0.2,2.1,1.3,1.9,2.6c-0.2,1.6-1.6,2.2-3.9,3.2c-1.7,0.7-5.6,2.4-5.9,3.8
	c-0.1,0.4,0.2,0.9,0.5,1.2c1.6,0.6,7.2,2.3,11.7-0.8c1-0.7,2.4-0.4,3.1,0.6s0.4,2.4-0.6,3.1C453.3,165.6,450.1,166.2,447.4,166.2z"
	/>
<path class="st2" d="M803.9,407.4h-34.8c-1.2,0-2.3-1-2.3-2.3s1-2.3,2.3-2.3h34.8c1.2,0,2.3,1,2.3,2.3S805.1,407.4,803.9,407.4z"/>
<path class="st3" d="M151.4,192c0,0,9.8-33.1,21.8-35.9c0,0,5.1,1.1,9.8,7.4s12.3,10.3,19.4,7.7s6.8-13.9,7.1-15.2
	c0.2-1.3-0.7-10,1.2-11.4s13.1-5.4,23.5-3c0.6,8.2,9.6,7.1,13.8,5.3c4.2-1.9,4.9,1,10.2,2c5.3,0.9,8.2-7.2,8.2-7.2
	c11.9-1.2,21.6,1.7,23.5,3s0.8,10.1,1.1,11.4c0.2,1.3,0,12.6,7.1,15.2s14.6-1.4,19.4-7.7s9.8-7.4,9.8-7.4C339.2,159,349,192,349,192
	s-2.3-16.7-3.2-21.9c-0.9-5.2-1.4-18.6-6.5-23.5s-16.6-21.1-47.1-19c0,0-23.8-8-41.7-7.4s-42.5,7.5-42.5,7.5s-15.3-4.2-34.1,6.4
	s-19.7,29.8-19.7,29.8L151.4,192z"/>
<path class="st2" d="M199.6,173.9c-4.7,0-12.1-2-18.3-8.9c-3.8-4.3-12-8.5-12.1-8.6c-1.1-0.6-1.5-1.9-1-3c0.6-1.1,1.9-1.5,3-1
	c0.4,0.2,9.1,4.7,13.4,9.6c6.8,7.7,15.1,7.9,16.7,7.2c6.3-3.2,6-11.6,5.7-19.1c-0.1-4.1-0.3-7.7,0.7-10.4c0.4-1.2,1.7-1.8,2.9-1.4
	c1.2,0.4,1.8,1.7,1.4,2.9c-0.7,1.9-0.5,5.2-0.4,8.7c0.3,7.9,0.6,18.8-8.2,23.3C202.7,173.6,201.3,173.9,199.6,173.9z"/>
<path class="st2" d="M299.6,173.9c-1.7,0-3-0.3-3.8-0.7c-8.9-4.5-8.5-15.4-8.2-23.3c0.1-3.5,0.2-6.8-0.4-8.7
	c-0.4-1.2,0.2-2.5,1.4-2.9c1.2-0.4,2.5,0.2,2.9,1.4c0.9,2.7,0.8,6.2,0.7,10.4c-0.3,7.5-0.5,15.9,5.8,19.1c1.5,0.6,9.9,0.4,16.7-7.2
	c4.3-4.9,13-9.4,13.4-9.6c1.1-0.6,2.5-0.1,3,1c0.6,1.1,0.1,2.5-1,3c-0.1,0-8.3,4.3-12.1,8.6C311.7,171.9,304.3,173.9,299.6,173.9z"
	/>
<path class="st2" d="M258.1,151.2c-2.5,0-4.7-0.9-6.4-2.5c-0.7-0.7-1.6-0.7-2.3-0.1c-1.8,1.7-4.1,2.6-6.9,2.6
	c-7.9,0-10.5-6.9-10.7-10.5c-0.1-1.2,0.9-2.3,2.1-2.4c1.2-0.1,2.3,0.9,2.4,2.1c0,0.7,0.6,6.3,6.2,6.3c1.6,0,2.9-0.4,3.8-1.3
	c2.4-2.3,6.2-2.2,8.6,0.1c0.8,0.8,1.9,1.2,3.2,1.2c5.2,0,6.4-6.5,6.4-6.6c0.2-1.2,1.4-2,2.6-1.8s2,1.4,1.8,2.6
	C268.3,144.4,265.2,151.2,258.1,151.2z"/>
<path class="st2" d="M251.2,323.8H248c-32.2,0-53.1-5-54-5.2c-24.1-6.6-40.3-17.5-48.4-32.4c-7-12.8-7.8-27.9-2.4-45.1
	c2.8-8.8,4.1-25.7,5.5-43.5c1-12.4,2-25.1,3.6-36.6c3.9-28.5,35-38,55.3-35.6c5-2.4,36.2-15.6,83.9,0c20.2-2.5,51.5,7,55.4,35.6
	c1.6,11.4,2.6,24.2,3.6,36.6c1.4,17.8,2.7,34.7,5.5,43.5c5.4,17.1,4.6,32.3-2.4,45.1c-8.1,14.9-24.4,25.7-48.4,32.4
	C304.3,318.8,283.4,323.8,251.2,323.8z M201.2,129.6c-18.1,0-41.3,9.2-44.5,32.1c-1.6,11.3-2.6,24-3.5,36.3
	c-1.4,18.1-2.8,35.2-5.7,44.5c-5,15.9-4.3,29.9,2,41.6c7.5,13.7,22.8,23.9,45.6,30.2c0.1,0,21.2,5,52.9,5h3.2
	c31.7,0,52.7-5,52.9-5.1c22.7-6.3,38-16.4,45.5-30.1c6.4-11.7,7-25.6,2-41.6c-2.9-9.3-4.3-26.4-5.7-44.5c-1-12.3-2-25-3.5-36.3
	c-3.5-25.8-32.5-34.2-50.9-31.7l-0.5,0.1l-0.5-0.2c-49.4-16.3-81.3-0.3-81.6-0.1l-0.6,0.3l-0.7-0.1
	C205.6,129.7,203.5,129.6,201.2,129.6z"/>
</svg>
